<svg xmlns="http://www.w3.org/2000/svg" viewBox="0 0 173.28 62"><defs><style>.cls-1{fill:#fff;}</style></defs><title>09_logo_H_small_diapo</title><g id="Layer_2" data-name="Layer 2"><g id="CEPR_Logo_Primary"><path class="cls-1" d="M14,45a3,3,0,1,1-6,0V41a3,3,0,1,1,6,0Z"/><path class="cls-1" d="M30,49a3,3,0,1,1-6,0V41a3,3,0,1,1,6,0Z"/><path class="cls-1" d="M30,8a3,3,0,1,1-6,0V3a3,3,0,1,1,6,0Z"/><path class="cls-1" d="M6,23a3,3,0,0,1-3,3,3,3,0,0,1-3-3V20a3,3,0,0,1,3-3,3,3,0,0,1,3,3Z"/><path class="cls-1" d="M14,27a3,3,0,1,1-6,0V11a3,3,0,1,1,6,0Z"/><path class="cls-1" d="M22,59a3,3,0,1,1-6,0V35a3,3,0,1,1,6,0Z"/><path class="cls-1" d="M22,18a3,3,0,1,1-6,0V6a3,3,0,1,1,6,0Z"/><path class="cls-1" d="M38,39a3,3,0,1,1-6,0V33a3,3,0,1,1,6,0Z"/><path class="cls-1" d="M46,53a3,3,0,1,1-6,0V28a3,3,0,1,1,6,0Z"/><path class="cls-1" d="M54,43a3,3,0,1,1-6,0V33a3,3,0,1,1,6,0Z"/><path class="cls-1" d="M54,23a3,3,0,1,1-6,0V12a3,3,0,1,1,6,0Z"/><path class="cls-1" d="M46,19a3,3,0,1,1-6,0V15a3,3,0,1,1,6,0Z"/><path class="cls-1" d="M62,32a3,3,0,1,1-6,0V22a3,3,0,1,1,6,0Z"/><circle class="cls-1" cx="35" cy="3" r="3"/><path class="cls-1" d="M72,32.13C72,22.94,78,17.47,86,17.47c3.76,0,7.37.87,8.89,1l-.46,8.47H90.41l-1.29-5.81c-.42-.46-1.44-.91-3.5-.91-3.76,0-6.31,3.72-6.31,11.44,0,7,2.09,12.08,6.46,12.08,2.28,0,3.12-.53,3.76-1.18l1.71-4.07,3.72.34L94.29,45c-2.58.23-4.14,1.44-8.89,1.44C76.43,46.42,72,40.76,72,32.13Z"/><path class="cls-1" d="M99.78,21l-3-.53V17.77H117.6l.49,6.72h-3l-1.33-3.84-7.48-.38v9.88l4.63-.11.68-3.12h2.62v9.54H111.6L111,33.16,106.28,33V43.38l8.32-.53,2.32-4.9,3.23.91L119.24,46H96.86V43.49l2.92-.38Z"/><path class="cls-1" d="M124.62,21l-2.81-.53V17.77H128c1.71,0,3.46-.23,6.34-.23,8.36,0,10.79,3.08,10.79,8.47,0,6.42-4.07,10.26-11.4,10.26-1.1,0-2.32-.08-2.62-.11v6.92l5,.42V46H121.69V43.49l2.93-.38Zm9,12.77c2.74,0,4.94-1.79,4.94-7.56,0-4.29-1.71-6.08-4.94-6.08a13.63,13.63,0,0,0-2.51.23V33.54A11.55,11.55,0,0,0,133.59,33.73Z"/><path class="cls-1" d="M146.57,43.49l2.93-.38V20.92l-2.77-.53V17.77h5.85c2.2,0,3.72-.27,6.38-.27,8.09,0,11,2.24,11,7.56a8,8,0,0,1-5.4,7.9c4.37,1.6,5.81,9.73,7.6,10.18l1.1.34V46h-7.22c-1.86,0-3.8-10.9-6.65-12H156v9.12l3.38.38V46h-12.8ZM163.1,25.33c0-3.57-1.25-5.28-4.71-5.28a12.3,12.3,0,0,0-2.39.19V31.41a18.79,18.79,0,0,0,2.92.11C161.5,31.52,163.1,29.59,163.1,25.33Z"/></g></g></svg>