<svg xmlns="http://www.w3.org/2000/svg" viewBox="0 0 159.6 135.8"><defs><style>.cls-1{fill:none}.cls-2{fill:#004fa7}.cls-4{fill:#ff8740}</style></defs><g id="Capa_2" data-name="Capa 2"><g id="Capa_1-2" data-name="Capa 1"><path class="cls-1" d="M142.7 18.9h.3a3.7 3.7 0 0 1 .9.1 4 4 0 0 1 1 .5 2.8 2.8 0 0 1-1.2-.2l-1-.4zm-3.4-.9l-1.3-.3-1.3-.3-1.1-.5-1.3-.3c-.7-.3-1-.4-1-.6H133.6a4 4 0 0 1 .8.1 8 8 0 0 1 1.3.5l1.2.3 1.2.4a11.4 11.4 0 0 1 1.2.5l1 .3a5.3 5.3 0 0 1-1-.1zm-7.8-9a19.6 19.6 0 0 1 2 .7l2.1.7a18.3 18.3 0 0 1 2 .7 2.4 2.4 0 0 1 1 .4h.6l.4.2a.3.3 0 0 1 .2 0l.2.1c.2.3-.3.2-.5.2a5.6 5.6 0 0 1-.7-.2l-1.4-.5-2-.5-2-.7-2.1-.7a.4.4 0 0 1-.3-.4zM30 21.6c-1 0-1.8 0-1.7-.2s.7-.6 1.7-.6h.4c.7 0 1.5.2 1.5.3s-.9.5-1.9.5zm17.3-2l-3 .6c-1.5.2-1.4.4-2.9.6s-1.5 0-3 .1l-2 .2a3.1 3.1 0 0 1-1 .2c-.2-.1-.8-.3-.6-.5h.1a.6.6 0 0 1 .3-.3.3.3 0 0 1 .2 0l.6-.1h.8a13.7 13.7 0 0 0 1.5 0c1.5-.1 1.5-.3 2.9-.4l3-.4c1 0 1.8-.4 2.9-.6h.7a.6.6 0 0 1-.5.7zm9.3-2l-1.1.4-1.3.3a11.6 11.6 0 0 1-1.4.1c-.4.1-.9.5-1.2.4-.7.2-1.2 0-1.1-.2-.1 0 .2-.3.9-.5l1.3-.3 1.1-.4L55 17l1.3-.1a9.7 9.7 0 0 1 1-.2h.2c0 .2-.3.4-1 .7zm4.6-1.3a3 3 0 0 1-1.2 0 1.5 1.5 0 0 1 1-.6 2.6 2.6 0 0 1 .6 0h.6c0 .2-.4.4-1 .6zm3.7-1c-.6.2-1 .1-1 0s.2-.5.9-.8a2.6 2.6 0 0 1 .7 0l.5.2c0 .2-.4.3-1 .5zm10-2.4a12.6 12.6 0 0 1-1.3.4 9.7 9.7 0 0 1-1.3.2 6.3 6.3 0 0 0-1.3 0 6.6 6.6 0 0 1-1.3.4 1.6 1.6 0 0 1-1.1-.2s.2-.3 1-.5l1.2-.3 1.2-.3 1.3-.3h1.4l1-.1c.1.3-.3.6-.9.7zm15.1-1.5c-.5 0-.9-.1-.8-.3 0-.1.3-.4.8-.4s1 .3 1 .4-.5.3-1 .3zm6-.1a10 10 0 0 1-3-.3c0-.1 1.4-.3 3-.3a15.3 15.3 0 0 1 3.3.2 14.5 14.5 0 0 1-3.2.4zm12 .2h-2.5l-2.4-.2c-1.2 0-1.6-.2-1.6-.3s.5-.1 1.7-.1h2.5l2.3.2 1.8.4a5.1 5.1 0 0 1-1.8 0zm5.3.5c-.8 0-1.6-.2-1.6-.4l1-.2a6.3 6.3 0 0 1 .8.2c.9.1 1.7.3 1.7.5a4.3 4.3 0 0 1-1.8 0zm17 2.9h.2l.4.3a.8.8 0 0 1-.7 0l-2.9-.7-2.8-.6-2.9-.7-2-.4a5 5 0 0 1-1-.1c-.3-.1-.8-.3-.5-.5h.7l.5.2.8.2a13.2 13.2 0 0 0 1.5.3l3 .5 2.8.7zM81.4 5.2l1.5-.2c.8-.1.8 0 1.6 0l1.6-.3a4.5 4.5 0 0 1 .6 0 4.4 4.4 0 0 0 .9 0l1.5-.1 1.6-.1a15.6 15.6 0 0 1 1.5-.3l3-.1a2.8 2.8 0 0 1 .8 0 3.1 3.1 0 0 0 .8 0 7.9 7.9 0 0 0 1.5-.1 12.3 12.3 0 0 1 1.6.2h1.5a10.6 10.6 0 0 0 1.6 0l1.5.1h1.6l1.4.2a4.6 4.6 0 0 0 .9 0 4.2 4.2 0 0 1 .7 0l1.5.2a4.7 4.7 0 0 0 .8.1 4.1 4.1 0 0 1 .8 0 14 14 0 0 0 1.5.3 11.8 11.8 0 0 0 1.4.2 3.3 3.3 0 0 0 .8.1 4.9 4.9 0 0 1 .7.1l4.2.7a12.4 12.4 0 0 1 1.4.4 3.9 3.9 0 0 0 1.4.3l1.4.3 1.4.5a12.2 12.2 0 0 1 1.3.3l1.4.4a.3.3 0 0 1 .2.3h-.2a3.9 3.9 0 0 0-1.4-.4 4.5 4.5 0 0 1-1.5-.2 3.4 3.4 0 0 0-1.3-.4l-1.4-.4-2.9-.4a3.3 3.3 0 0 0-.8 0 3.9 3.9 0 0 1-.6-.1 12.1 12.1 0 0 0-1.4-.3l-1.3-.2-1.4-.1-1.4-.1a12.6 12.6 0 0 1-1.5-.1l-1.6-.3H109a14.3 14.3 0 0 0-1.5 0 4.8 4.8 0 0 0-.8 0 4.1 4.1 0 0 1-.8 0 15 15 0 0 0-1.5-.3h-4.6a13.1 13.1 0 0 0-1.6 0h-1.5l-1.6-.2-1.5.1a9.2 9.2 0 0 1-1.6 0 13.6 13.6 0 0 1-1.5 0h-1.4a14.3 14.3 0 0 0-1.6 0l-1.5.1a4.1 4.1 0 0 1-.7 0 4.8 4.8 0 0 0-.9 0c-.6.1-.7.3-1.4.3l-1.5.1a.3.3 0 0 1-.3-.3v-.3zm-1.8 6.4a21.5 21.5 0 0 1 4.5-.4h.1l1.5-.1h.4c0 .2-.6.5-1.7.6L82 12l-2.5.3a5.5 5.5 0 0 1-1.9-.1 8.8 8.8 0 0 1 2-.5zM39.1 8.4l2-.2 3.4-.6 5-1c4.3-1 9.1-2.3 14.4-3.9l4-1 3.6-.8 2-.4h3L75 .9l-3.4.7-3.6.8a28.8 28.8 0 0 0-3.9 1.1l-7.7 2.1q-3.4 1-7 1.7c-2 .4-3.7.8-5 .9l-3.4.4a10 10 0 0 1-2.5.1zM22 14.8a1.2 1.2 0 0 1 .6-.2c1.4 0 1.5-.2 3-.1l2.8.1c1.4 0 1.4-.3 2.8-.4h3L37 14a7.7 7.7 0 0 1 1.4 0 7.6 7.6 0 0 0 1.4 0l2.8-.4 1.5-.3 1.4-.3a26.3 26.3 0 0 1 2.8-.4 23.8 23.8 0 0 0 2.7-.7l2.7-.6 2.7-.6c1.3-.4 1.4-.3 2.7-.6l2.6-.7 2.8-.7c1.3-.3 1.3-.5 2.7-.9l2.7-.4a25.2 25.2 0 0 1 2.8-.7l2.7-.4h.1a.6.6 0 0 1 .5.2.5.5 0 0 1-.5.3l-2.7.5-2.8.5-2.6.8-2.7.7-2.7.8-2.6.7-2.6.8-2.8.8c-1.3.4-1.3.2-2.7.6s-1.2.5-2.7.8l-2.8.5a6.1 6.1 0 0 1-1.4.3l-1.5.2-2.8.4-3 .2-2.8.2-2.9.3h-8.7a2 2 0 0 1-.5-.3c-.1-.1-.4-.6-.2-.8zM19.6 21l2.5-.1h2.3c1.3 0 1.7.2 1.8.4s-.5.2-1.8.4l-2.4-.1a12.8 12.8 0 0 1-2.5 0c-1.2-.2-1.6-.3-1.6-.5s.5-.2 1.7-.1zM113.6 126a19.3 19.3 0 0 1 2.2.2 10 10 0 0 1 3.7 1c0 .3-2 0-4-.2a12.4 12.4 0 0 1-3.5-.8zm-4-54.6l1-.1a63.7 63.7 0 0 1 6.3.5l3.8.6 4.4 1 4.2 1.1 3.6 1 4.3 1.6a7.7 7.7 0 0 1 1.6.6 9.3 9.3 0 0 1-2.1-.5L132 76l-3.3-.9-3.8-1-3.9-.9a23.3 23.3 0 0 0-3.3-.6c-1.7-.4-3.8-.5-5.4-.7l-2.8-.5zM9.7 43.8h3l3 .2 3 .1 3.4.2h3.3a61.9 61.9 0 0 0 6.5-.2l2.6-.3 3.8-.2a101.4 101.4 0 0 0 12.6-2c4.1-1 8-2.4 12-3.4h.2a.3.3 0 0 1 .3-.2 11.8 11.8 0 0 1 2.5-.4 5.5 5.5 0 0 1-2.5 1.1c-6.1 1.7-6.1 1.8-12.3 3.4a117 117 0 0 1-12.7 2.3l-3.9.3-2.5.2-6.6.1h-4.2l-4.3-.2h-2.3l-2.2-.1c-1.2-.3-3.6-.8-2.7-.9zm11.4 6.8c0 .2-1 .4-2.3.3-1 0-2-.2-2-.4 0-.1 1-.3 2-.3a4.4 4.4 0 0 1 2.3.4zm44.5-1a4.5 4.5 0 0 1-2.5 1.5C57 53 57 53 50.7 54.4c-6.3 1.4-6.2 1.6-12.6 2.4l-4 .2-2.5.1H21l-4.4-.2h-2.2a13 13 0 0 1-2.2-.1c-1.3-.2-3.7-.9-2.6-1.1a1.9 1.9 0 0 1 .6 0l1.3-.2h1a17.5 17.5 0 0 1 3 .3l3.1.2 3.3.2h3.4a48.7 48.7 0 0 0 6.4-.3l2.7-.2 3.7-.4a103.4 103.4 0 0 0 12.6-1.9c4-1 8-2.3 12-3.4l.2-.1h.3c.7 0 2-.4 2.4-.3a.3.3 0 0 1 .2 0zm3.7-6.1c-1.8.5-1.7.2-3.5.8l-3.5 1-3.4.9-3.5 1.1c-1.8.5-1.9.3-3.6.7l-3.5.8-3.6.7-3.6.5-3.7.5-3.5.4-3.7.1c-1.8 0-.8-.7-.1-.8h3.6l3.6-.4a34.5 34.5 0 0 0 3.6-.6l3.6-.2 3.5-.8 3.6-.7 3.4-1 3.5-.8 3.5-1 3.5-1 3.6-.9a3.7 3.7 0 0 1 1.3-.2c.7 0 1 .3-1 1zm-6.7 43.7l-12.2 3.4C44 91.9 44 92 37.6 92.8l-3.8.4h-2.6l-6.5.1h-4.3l-4.2-.1h-2.4l-2.1-.2c-1.2-.2-3.6-.6-2.7-.8h3l3 .2 3 .1 3.4.2h3.3a61.9 61.9 0 0 0 6.5-.2l2.6-.3 3.7-.2a101.4 101.4 0 0 0 12.6-2c4.2-1 8-2.3 12-3.4h.3a.6.6 0 0 1 .2-.2v.1a11.8 11.8 0 0 1 2.5-.5 5.5 5.5 0 0 1-2.5 1.2zm37 38.5l-2.5-.1c-.7 0-1-.2-1-.3l1-.3a10.5 10.5 0 0 1 1.8-.2h.8a11 11 0 0 1 4 .7 10.6 10.6 0 0 1-4.1.2zm41.2-16.6l-2.7-.7-2.6-.8-2.3-.9c-1-.3-2-.4-2.7-.7-1.4-.4-2-.8-2-1h.3a11.6 11.6 0 0 1 2 .4l2.5.8 2.5.8 2.6.8 2.4.8a12.6 12.6 0 0 1 2.2.7c-.1.3-.8 0-2.2-.2zM129 92.9h.2a11.6 11.6 0 0 1 2 .4l2.5.8 2.6.8 2.5.8 2.4.8a12.6 12.6 0 0 1 2.2.7L141 97l-2.6-.7-2.6-.8c-1-.2-1.7-.7-2.5-.9L131 94c-1.4-.5-2-.8-2-1zm-9.5-8.4a9.4 9.4 0 0 1 1.1.2l3.4.6a27 27 0 0 1 3.4 1 6.9 6.9 0 0 1 1.6.5l-1.7-.3-3.4-.8a34 34 0 0 1-3.3-.8 4.7 4.7 0 0 1-1.4-.3zm9 14.4l-1.3-.3-3.5-.8-3.4-.7a4.7 4.7 0 0 1-1.2-.4l-.2-.1h.2a9.4 9.4 0 0 1 1.2.2l3.3.5a27 27 0 0 1 3.5 1 6.8 6.8 0 0 1 1.5.6zm-12-8.6l.4-.1a32.2 32.2 0 0 1 4 .5A15.2 15.2 0 0 1 125 92a10.2 10.2 0 0 1-2-.1l-2.3-.6a21.9 21.9 0 0 1-4.3-1zm0 12.1a32.2 32.2 0 0 1 4 .5 18 18 0 0 1 4.2 1.2 10.2 10.2 0 0 1-2-.1l-2.3-.5a21.9 21.9 0 0 1-4.3-1zm-2.7 5.4a20 20 0 0 1 2.6.4l4 .6 4.2 1 4.3 1 7.8 2.5a11.9 11.9 0 0 0 1.3.5 4.4 4.4 0 0 0 .4.2h-.6l-1.5-.5-4.5-1.3-3.4-1-3.9-1-3.8-1-3.4-.4a39.8 39.8 0 0 0-5.4-.8l-2.7-.4a3.5 3.5 0 0 1 .6 0h1.7zm-5-5.8l-3.3-.2h-10l-3.4-.1a15.5 15.5 0 0 0-1.6 0l-1.6.1-3.3.2H82a20 20 0 0 1-3.2.2v-.2l.1-.1a15.3 15.3 0 0 1 3-.5 70.8 70.8 0 0 1 8-.7H102l3.8.4 3.1.3 2.2.4a2.9 2.9 0 0 1 .8.2 4.2 4.2 0 0 1-.8 0zm1.7-12.6l.9.2a2.8 2.8 0 0 1 .8.2 4.2 4.2 0 0 1-.8 0H109l-3.3-.3H99a23 23 0 0 0-3.3.1h-3.4a15.5 15.5 0 0 0-1.7 0h-1.6l-3.3.2h-3.3a20 20 0 0 1-3.2.2V90l.1-.2a15.3 15.3 0 0 1 3-.4 70.8 70.8 0 0 1 8-.9v.1H102.3l3.7.4c1 .2 2 0 3.1.3zm12.9-27.9l-2.3-.4a22 22 0 0 1-4.3-1.1h.5a32.2 32.2 0 0 1 4 .5 17.2 17.2 0 0 1 4.1 1.2 10 10 0 0 1-2-.2zm18 5.1L139 66a24.6 24.6 0 0 0-2.7-.8l-2.4-1c-1-.3-2-.3-2.6-.6a5.4 5.4 0 0 1-2-.9h.2a11.6 11.6 0 0 1 2 .3l2.5.8 2.6.8 2.5.8 2.5.8a12.7 12.7 0 0 1 2 .7q.1.3-2-.3zm8.4 2.1a6.9 6.9 0 0 1-2.2-.6h.2a10.7 10.7 0 0 1 2 .4 11.5 11.5 0 0 1 2.4.6 15.8 15.8 0 0 1-2.4-.4zm1.8-12l3.5.6 3.8.7a4.8 4.8 0 0 1-1.1 0l-5.2-.9a3.8 3.8 0 0 1-1-.3zM148 38h.2a10.7 10.7 0 0 1 2 .3 11.4 11.4 0 0 1 2.4.6 15.8 15.8 0 0 1-2.5-.4 6.9 6.9 0 0 1-2.2-.6zm-.2 24l4.1 1 4.3.7c1.2.3 3.7.6 2.6.6a2.4 2.4 0 0 1-.6 0l-1-.2a7.7 7.7 0 0 1-1-.2l-3-.4c-1.1-.1-2-.5-3-.7-2.3-.4-4.4-1-6.5-1.5l-6.2-1.8-6-1.8a80.7 80.7 0 0 0-12.4-3l-3-.4-3.1-.3-6.3-.4h-.2a.5.5 0 0 0-.4-.2 12.3 12.3 0 0 1-2.4-.4 3.5 3.5 0 0 1 2.2-.5l.6.1 6.4.6c1.6.2 3.2.3 6.4 1a81.7 81.7 0 0 1 12.4 2.9c6.2 1.8 6 2 12.1 3.9zM95.3 40h2.5a21 21 0 0 0 2.5.1c1.3.2 2 .2 2 .4a7 7 0 0 1-2 0l-2.6.2h-2.5a17.9 17.9 0 0 0-2.4-.1 13.8 13.8 0 0 0-2.5.2c-1.4 0-2-.3-2-.4a5.1 5.1 0 0 1 2-.3h5zm3.3-5.5l-5.8.1h-5.6l-1.6.1a11 11 0 0 0-1.4.3l-2.7.2a7.1 7.1 0 0 1-1.1.1l-1 .1-1.3.1h-1.3a3.5 3.5 0 0 1 1.2-.4l1.6-.3.8-.2a6 6 0 0 1 1.2 0l2.6-.3a12.6 12.6 0 0 1 1.4-.2h1.6l2.7-.1 2.9-.1h5.7l5.6.4a20.7 20.7 0 0 1 2 .1h1.6l1.1.3h-4.5zM83.1 41c0 .2-1 .4-2.2.5a6.5 6.5 0 0 1-2 0c-.1-.2.8-.5 1.9-.7h1a2.8 2.8 0 0 1 1.3.2zm22.8-.3l4 .1a30.9 30.9 0 0 1 4.2.4l2.3.4 2 .4a11.7 11.7 0 0 1 3.5.8 2.3 2.3 0 0 0-1-.2l-2.2-.2-2.3-.4-2.4-.2-2.5-.2-2-.4a18 18 0 0 1-3.6-.5zm22.7 3.8a3.8 3.8 0 0 1-1.4-.5l.3-.1a8 8 0 0 1 1.3.2 3.1 3.1 0 0 1 1.4.6c.1.2-.7 0-1.6-.2zm.8 6a4.3 4.3 0 0 1-1.8-.2l-3.4-.8a35.6 35.6 0 0 1-4.5-1.3 1.3 1.3 0 0 1 .6-.1l4.2.6a19.7 19.7 0 0 1 3.4 1c1 .4 1.5.7 1.5.8zM128 38.2l-3.6-.8-3.2-.7a4.7 4.7 0 0 1-1.3-.4h-.1a.2.2 0 0 1 .2 0 9.5 9.5 0 0 1 1.2 0l3.3.7a27 27 0 0 1 3.4 1 6.8 6.8 0 0 1 1.5.6 11.8 11.8 0 0 1-1.5-.4zm-4.2-6.7l-2.2-.6a21.9 21.9 0 0 1-4.4-1s.2-.1.4 0a32.2 32.2 0 0 1 4.1.4 15 15 0 0 1 4.1 1.3 10.2 10.2 0 0 1-2-.2zM145 49.2l-1.4-.4-4-1.1-3.8-1.2a5.2 5.2 0 0 1-1.6-.7 9 9 0 0 1 1.6.5l4 1 4 1.4 1.8.6a1.5 1.5 0 0 1-.7-.1zm-10.4-20.6l.4-.1a9.7 9.7 0 0 1 1.8.3l2.4.7 2.4.8a4 4 0 0 1 1.6.9l-2-.4-2.3-.5a17.7 17.7 0 0 1-2-.8 7.2 7.2 0 0 1-2.3-1zm-2.7 4.2l2.6.8 2.5.8 2.6.7 2.5.9a12.6 12.6 0 0 1 2.1.8l-2.2-.4-2.6-.7-2.6-.8c-1-.2-1.7-.7-2.5-.9l-2.6-.7c-1.3-.4-2-.7-2-.9h.2a11.6 11.6 0 0 1 2 .4zm-22.7-9.4h.1a5.3 5.3 0 0 1 1 0h1a51.1 51.1 0 0 1 5.2.4l5 .8 2.6.6 2.4.7a14.8 14.8 0 0 0 2 .5c1.1.3 1.7.7 1.7.8a5.5 5.5 0 0 1-2-.2 14 14 0 0 0-2-.6l-2.3-.3-2-.4-2.2-.4-2.2-.4-6.4-1a9.5 9.5 0 0 1-2-.3zm-2.2 5c1 .2 2 .1 3.1.3l2.1.3a2.8 2.8 0 0 1 .8.3 4.1 4.1 0 0 1-.8 0h-2.2l-3.3-.3H93.2a15.7 15.7 0 0 0-1.7 0l-1.6.2h-3.2l-3.4.2a20 20 0 0 1-3.2 0l.1-.1a15.4 15.4 0 0 1 3-.6 71 71 0 0 1 8-.7h7.5l4.4.1a29.4 29.4 0 0 1 3.8.3zm-34-2.5l-3.7 1a33 33 0 0 0-3.7 1.1c-1.8.6-3.4.5-5.2.9l-3.8 1c-1.5.3-2.7.8-4 1l-4 .7c-1.5.2-2.7.8-3.8 1-2.5.1-4 1.3-4.3-.1-.3-1 1.5-.7 3.9-1.2l3.9-.8a33.8 33.8 0 0 0 3.8-1.1l9.5-2.7c2-.6 4-.9 6-1.4l3.9-1c1.3-.3 2.7-.4 4-.6s2.7-.7 4-1l2-.2a22.4 22.4 0 0 0 4-.2h2l4-.3 4.2.2 3.7-.2h.4c2.5.3 4.8.5 4.8 1s-2.2.5-4.7.6a27.2 27.2 0 0 0-4 0h-4q-3.1.1-6.1.5l-3 .4-3.1.4-3.4.4a22 22 0 0 0-3.3.6zM87 47a12.6 12.6 0 0 0-1.5 0l-1.5.3a24.8 24.8 0 0 1-2.7.3H78l-1.3-.1c0-.1.3-.3 1.2-.4a6.8 6.8 0 0 1 1.5-.4l.8-.2 1.2-.1A19.6 19.6 0 0 0 84 46h1.5l1.5-.1 2.8-.1 2.9-.2h5.7a50 50 0 0 1 5.6.5 20.7 20.7 0 0 1 2.1 0l2.7.4c0 .4-1.6.5-4.6.4H89.8zm-.9 12.6l-3.3.2a20 20 0 0 1-3 0l-.2-.1.2-.2a15.4 15.4 0 0 1 2.9-.4 70.8 70.8 0 0 1 8-.8h7.6c1.4 0 2.8 0 4.3.2a29.4 29.4 0 0 1 3.8.4c1 0 2 0 3.1.2l2.2.3a2.9 2.9 0 0 1 .8.2 4.2 4.2 0 0 1-.9.2l-2.1-.1-3.4-.2-3.3-.1h-10a15.5 15.5 0 0 0-1.7 0l-1.6.1zm-.4 11.7a29.3 29.3 0 0 0-3.5.4l-2.4.2-2.7.5-3.2.5-3.5.7-3.6.7-3.8 1.1-7.7 2.3-3.7 1-3.4.7c-2 .4-3.7.8-5.1.9l-3.4.3a5.7 5.7 0 0 1-2.5 0l.6-.3 2-.3 3.4-.6 5-1c4.3-1 9-2.6 14.4-4l3.9-1 3.7-1a60.6 60.6 0 0 1 6.9-1l2.7-.4 2.4-.1 3.5-.2a13.7 13.7 0 0 1 2.8.2l-2.8.4zm-8.4 12.5l1.5-.3 1-.2a6 6 0 0 1 1 0l2.6-.4a12.6 12.6 0 0 1 1.5 0l1.5-.2 2.8-.1a16.5 16.5 0 0 1 2.9 0h5.7l5.7.2 2 .2 1.5.1a5.6 5.6 0 0 1 1.2.2H98l-5.9-.1h-5.6l-1.5.1a11 11 0 0 0-1.5.2l-2.7.3a7.1 7.1 0 0 1-1 .1l-1 .1H76.3a3.5 3.5 0 0 1 1.1-.3zm-.2 12l1.6-.2.9-.2a6 6 0 0 1 1-.1l2.7-.3a12.6 12.6 0 0 1 1.4 0l1.6-.2h2.7l2.9-.2h5.8l5.6.4h2l1.6.2a5.6 5.6 0 0 1 1.1.2 4.5 4.5 0 0 1-1 0H84.9a11 11 0 0 0-1.5.4l-2.7.2a7.1 7.1 0 0 1-1 0l-1 .2-1.4.1h-1.2a3.5 3.5 0 0 1 1.1-.5zm-40.4 21l.7-.2 2-.2 3.4-.5 5-1c4.3-1 9.2-2.5 14.4-4l4-1 3.7-.9 6.8-1.1 2.8-.4 2.3-.1 3.6-.3h2a2 2 0 0 1 .7 0 11.7 11.7 0 0 1-3 .4l-3.5.2-2.3.3-2.8.5-3.1.5-3.5.6q-3.8.8-7.5 2l-7.7 2.1-3.6 1-3.3.7-5.1 1-3.4.3a10 10 0 0 1-2.6.1zm47.8-2.7l-3.8.3a109.4 109.4 0 0 0-14.2 2.2c-5.3 1.3-10.1 3.2-14.1 4l-5 1.1-3.7.5a8.4 8.4 0 0 1-3 .1c0-.3 4.1-.8 11.6-2.9l14-3.7a99.3 99.3 0 0 1 14.3-2.5l3.8-.3 3.7-.2 7.3-.2h4l3.7.3 3.4.3a21.4 21.4 0 0 0 3.3.2l5.3.8 3.8.7 1.3.2.9.3a2.5 2.5 0 0 1 .8.2h-.6l-5.9-1c-1.5 0-3.2-.2-5.2-.5h-3.2l-3.6-.3h-15zm-1.1 11a11 11 0 0 1 1.2 0h1.5c.7.1 1.2.3 1.2.4s-.4.3-1.1.4l-2.8.2c-2 .2-3.6.2-3.5 0-.2-.3 1.4-.8 3.5-1zM51 133c-2 .4-3.7.7-3.7.3s1.4-1 3.3-1.4a17.1 17.1 0 0 1 3.4-.4h.6c0 .3-1.6 1-3.6 1.5zm8.1-2.6c-.1-.2 1.4-1 3.3-1.6a14.9 14.9 0 0 1 3.4-.4h.6c0 .3-1.7.9-3.6 1.4s-3.5.7-3.7.5z"/><path class="cls-2" d="M126.2 1.7l-1.8-.5H122h.2l4 1 3.8.9 3.3 1 3 .8-.6-.5-5.2-1.7zM41 8.5l3.4-.4c1.4-.1 3-.5 5-.9q3.6-.7 7-1.7l7.8-2A28.8 28.8 0 0 1 68 2.2l3.6-.8L75 .8l1.6-.2h-3.1l-2 .3-3.7.8-4 1c-5.2 1.6-10 3-14.3 4l-5 1-3.5.5-2 .3-.6.1a10 10 0 0 0 2.6-.1zM53.3.2h-4.1l-2.7.5-1.4.3-1.6.2-3.5.5c-4 .4-8 .6-12 .7l-1 1c4.4 0 8.7-.3 13-.7A128.8 128.8 0 0 0 53.3.2zM81.6 5.8l1.5-.1c.7 0 .8-.2 1.4-.3a4.8 4.8 0 0 1 .8 0 4.1 4.1 0 0 0 .8 0l1.5-.1a14.3 14.3 0 0 1 1.5 0l1.5-.1a13.6 13.6 0 0 0 1.5 0 9.2 9.2 0 0 0 1.6 0h1.5l1.5.1h1.6a13.1 13.1 0 0 1 1.6 0h4.5a15 15 0 0 1 1.6.3 4.1 4.1 0 0 0 .8 0 4.8 4.8 0 0 1 .8 0 14.3 14.3 0 0 1 1.5 0l1.5.1 1.6.3a12.6 12.6 0 0 0 1.5.1l1.4.2 1.4.1 1.3.2a12.1 12.1 0 0 1 1.4.2 3.9 3.9 0 0 0 .6.1 3.3 3.3 0 0 1 .9 0l2.8.5 1.4.3a3.4 3.4 0 0 1 1.3.4 4.5 4.5 0 0 0 1.5.3 3.9 3.9 0 0 1 1.4.3h.2a.3.3 0 0 0-.2-.2l-1.3-.5a12.2 12.2 0 0 0-1.4-.3l-1.4-.4-1.4-.3a3.9 3.9 0 0 1-1.4-.4 12.4 12.4 0 0 0-1.3-.4l-4.3-.6a4.9 4.9 0 0 0-.6-.1 3.3 3.3 0 0 1-.9-.1 11.8 11.8 0 0 1-1.3-.3 14 14 0 0 1-1.6-.2 4.1 4.1 0 0 0-.8 0 4.7 4.7 0 0 1-.8-.1l-1.5-.2a4.2 4.2 0 0 0-.7 0 4.6 4.6 0 0 1-.9 0l-1.4-.2h-1.6l-1.5-.1a10.6 10.6 0 0 1-1.6 0h-1.5a12.3 12.3 0 0 0-1.6-.2 7.9 7.9 0 0 1-1.5.1 3.1 3.1 0 0 1-.8 0 2.8 2.8 0 0 0-.8 0l-3 .1a15.6 15.6 0 0 0-1.5.3H89l-1.5.2a4.4 4.4 0 0 1-.9 0 4.5 4.5 0 0 0-.6 0l-1.6.2-1.6.1-1.5.2c-.1 0-.2.4 0 .3 0 0 0 .2.2.2zM22.8 15.9h8.6l3-.3 2.8-.2 2.9-.2 2.8-.4 1.5-.2a6.1 6.1 0 0 0 1.4-.3l2.9-.5c1.4-.3 1.3-.5 2.6-.8s1.5-.2 2.8-.6l2.7-.8 2.6-.8L62 10l2.6-.8 2.7-.7 2.7-.8 2.8-.5 2.7-.5a.5.5 0 0 0 .5-.3.6.6 0 0 0-.5-.2l-2.8.4a25.2 25.2 0 0 0-2.8.6l-2.7.5c-1.4.4-1.3.6-2.6.9l-2.8.7-2.6.7-2.8.5-2.7.6-2.7.7a23.8 23.8 0 0 1-2.7.7 26.3 26.3 0 0 0-2.8.4l-1.4.3-1.4.2-2.9.4a7.6 7.6 0 0 1-1.4 0 7.7 7.7 0 0 0-1.4 0l-2.8.3h-3c-1.4 0-1.3.3-2.8.5-1.4-.1-1.4-.3-2.8-.2h-3a1.2 1.2 0 0 0-.6.3c-.2.3.1.7.3.8a2 2 0 0 0 .5.3zM131.3 9.5l2 .7 2 .7 2.2.5 1.3.5a5.6 5.6 0 0 0 .7.2c.2 0 .7 0 .6-.2l-.3-.1a.3.3 0 0 0-.1 0l-.5-.2h-.6a2.4 2.4 0 0 0-1-.4 18.3 18.3 0 0 0-2-.7l-2-.7a19.6 19.6 0 0 0-2-.7h-.6a.4.4 0 0 0 .3.4zM93 11a10 10 0 0 0 3 .3 14.5 14.5 0 0 0 3.3-.3 15.3 15.3 0 0 0-3.3-.3c-1.7 0-3.1.2-3 .4zM107.9 11l-2.3-.1h-2.4c-1.3 0-1.9 0-1.8.1s.4.2 1.6.3h2.5l2.4.2a5.1 5.1 0 0 0 1.8 0s-.5-.3-1.8-.4zM89.9 10.8c-.5 0-.8.2-.8.3 0 .2.3.3.8.3s1-.2 1-.3-.5-.3-1-.3zM113.4 11.6a6.3 6.3 0 0 0-.8-.1l-1 .1c0 .2.8.4 1.7.5a4.3 4.3 0 0 0 1.9 0c0-.2-.9-.4-1.8-.5zM79.5 12.2L82 12l2.5-.2c1-.2 1.7-.4 1.6-.6h-1.9a21.5 21.5 0 0 0-4.6.5 8.8 8.8 0 0 0-2 .5 5.5 5.5 0 0 0 2 0zM142.2 12.4a.4.4 0 0 0-.4.2l.7.3c.5.2.9.2.9 0l-.1-.1a2 2 0 0 0-.7-.4 1.7 1.7 0 0 0-.4 0zM141.8 12.6zM124.6 13.5l-3-.6a13.2 13.2 0 0 1-1.4-.3l-.8-.2h-.6l-.3-.1h-.3c-.3.1.1.3.5.4a5 5 0 0 0 1 .2l2 .3c1.4.4 1.3.5 2.9.8l2.8.6 2.9.7a.8.8 0 0 0 .7 0l-.5-.4h-.1l-2.9-.7zM74.7 12.3H73.3l-1.3.3-1.3.4-1.3.3c-.7.2-1 .4-.9.5a1.6 1.6 0 0 0 1.1.2 6.6 6.6 0 0 0 1.3-.4 6.3 6.3 0 0 1 1.3 0 9.7 9.7 0 0 0 1.3-.2 12.6 12.6 0 0 0 1.2-.4c.6-.2 1-.4 1-.7h-.2zM16.8 15l-.2.3a.3.3 0 0 0 .2-.3zM65.4 14.5a2.6 2.6 0 0 0-.8 0h.1c-.7.2-1 .5-1 .7s.5.2 1.1 0 1.1-.4 1.1-.6c.1 0-.3-.2-.5-.1zM138.1 17.3l-1.2-.3-1.2-.3a8 8 0 0 0-1.3-.5 4 4 0 0 0-.8-.1h-.2c0 .1.3.3 1 .5l1.2.3 1.2.5 1.2.4 1.3.3a5.3 5.3 0 0 0 1 .1l-1-.4a11.4 11.4 0 0 0-1.2-.5zM60.9 15.7a1.5 1.5 0 0 0-1 .7 3 3 0 0 0 1.2-.1c.6-.2 1-.4 1-.6h-.6a2.6 2.6 0 0 0-.6 0zM16.6 28a15.3 15.3 0 0 0 2.8 0 40.6 40.6 0 0 0 5.6 0h2.3a21.2 21.2 0 0 0 3.4 0l2.7-.1 1.1-.1 1.7-.2 2.8-.3 2.8-.3 2.8-.4 2.7-.4a15.9 15.9 0 0 0 2.6-.7l2.8-.6c2.7-.8 2.8-.5 5.4-1.2s2.6-.8 5.3-1.7l2.7-.7 2.6-.8 2.8-.7 2.7-.4A15.5 15.5 0 0 0 76 19l1-.3 2.8-.4 1-.2h1.8a22.6 22.6 0 0 0 2.9-.2l5.7-.4 5.7-.2a23 23 0 0 1 2.8 0 15.3 15.3 0 0 0 3 .1h2.8l2.9.2c2.9.2 2.9.3 5.7.6l2.8.3 2.8.4a21.8 21.8 0 0 1 2.8.4 19.7 19.7 0 0 0 2.8.7l2.7.7a13.6 13.6 0 0 1 2.8.7l1.6.5 3.5 1 3.5 1 3.6 1.3a25.7 25.7 0 0 0 3.5 1l3.6.8 1.8.5h.5l-.3-.5h-.1l-1.8-.4a27 27 0 0 1-3.6-1 35 35 0 0 1-3.5-1l-3.6-1-3.5-1-3.5-1-1.6-.6-2.8-.8-2.7-.6-5.6-1.4-2.8-.4-2.9-.4c-2.8-.4-2.8-.3-5.7-.6l-3-.2c-.7-.2-1.3-.1-2.8-.2H91.2a26.4 26.4 0 0 1-2.8 0 22.9 22.9 0 0 0-3 0l-2.9.4-2.9.3c-2.9.4-3 .2-5.8.7l-5.6 1.1a27 27 0 0 0-2.8.8l-2.7.9-5.3 1.2-5.3 1.3-5.2 1.4c-2.5.6-2.9.4-5.5.7l-1.6.2h-1.1l-2.8.3-1.6.2h-1.1l-2.8.3-5.5.2c-2.8 0-2.7 0-5.5-.2l-2.7-.2-2.7-.2-3.7-.2-1 2 4.5.2zM56.3 17l-1.3.1-1.3.3-1.1.4-1.3.3c-.7.3-1 .5-1 .6 0 .2.5.3 1.2.1l1.2-.3a11.6 11.6 0 0 0 1.4-.2l1.3-.3 1.1-.5c.7-.3 1-.5 1-.6h-.2a9.7 9.7 0 0 0-1 .1zM145 19.6a4 4 0 0 0-1.2-.5 3.7 3.7 0 0 0-.9-.2h-.2v.1l1 .4a2.8 2.8 0 0 0 1.2.2zM148.7 20.6l-.2-.2c-.2 0-.3.1.2.2zM47.1 19H47l-2.9.6-3 .4c-1.3.1-1.3.3-2.9.4a13.7 13.7 0 0 1-1.5 0H36l-.7.1a.3.3 0 0 0-.2 0 .6.6 0 0 0-.2.2l-.1.1c-.2.2.3.4.6.5a3.1 3.1 0 0 0 1-.2l2-.2h3c1.5-.2 1.4-.5 2.8-.7l3-.5a.6.6 0 0 0 .5-.6c0-.2-.5-.1-.6-.1zM15.8 21.1a2.7 2.7 0 0 0-1-.3l-1.8-.3-.4.8h2c.8.1 1.2-.1 1.2-.2zM30.3 20.9h-.4c-1 0-1.7.2-1.7.5s.8.2 1.7.2 1.9-.2 2-.5-.9-.3-1.6-.2zM30 20.8zM19.6 21.5a12.8 12.8 0 0 0 2.4 0h2.4c1.3 0 1.9-.1 1.8-.3s-.5-.2-1.8-.2l-.7-.1h-1.6l-2.5.1-1.7.1c0 .1.4.3 1.7.4z"/><path class="cls-2" d="M82.8 24.5l3-.4 6.1-.6h4a27.2 27.2 0 0 1 4 .2c2.5-.1 4.8-.1 4.7-.7 0-.4-2.2-.7-4.8-1h-.4l-3.7.2-4-.1-4 .2h-2a22.4 22.4 0 0 1-4.2.3l-2 .1c-1.3.3-2.6.8-4 1s-2.6.3-4 .6l-4 1c-2 .6-3.8.8-5.8 1.4L52 29.4a33.8 33.8 0 0 1-3.9 1c-1.4.4-2.8.5-3.8.9-2.4.4-4.2.1-3.9 1.1.4 1.5 1.8.3 4.3 0 1.1 0 2.3-.6 3.8-.8l4-.7 4-1.1 3.8-1c1.8-.4 3.4-.3 5.2-.9a33 33 0 0 1 3.7-1l3.7-1a22 22 0 0 1 3.4-.5l3.4-.5zM13.7 33.7l2.7.1 2.6.2H24.3l4-.2a11.6 11.6 0 0 1 2 0 11.6 11.6 0 0 0 2 0 29.4 29.4 0 0 0 4-.2.6.6 0 0 0 .5-.8 1.8 1.8 0 0 0-1-.8 29 29 0 0 1-3.9.1l-3.9.2h-3.8a14.2 14.2 0 0 0-2 0 6 6 0 0 1-1.9 0l-3.9-.2a30.6 30.6 0 0 1-3.9-.3c-2-.1-1.8-.4-3.8-.6l-1-.2-.9 2.2 1.7.1 5.2.4zM117.4 25l2.2.3 2.2.4 2 .4 2.3.3a14 14 0 0 1 2 .6 5.5 5.5 0 0 0 2 .2c0-.2-.5-.5-1.7-.9a14.8 14.8 0 0 1-2-.4l-2.4-.7-2.6-.6-5-.9a51.1 51.1 0 0 0-5.1-.3h-1.1a5.3 5.3 0 0 0-1 0h-.1v.2a9.5 9.5 0 0 0 2 .3zM136.7 29.5a17.7 17.7 0 0 0 2.1.8l2.2.5c1 .3 2.1.5 2.1.4a4 4 0 0 0-1.6-.9l-2.4-.8-2.4-.8a9.7 9.7 0 0 0-1.8-.2h-.4a7.2 7.2 0 0 0 2.2 1zM98.7 28h-7.5a71 71 0 0 0-8 .7 15.4 15.4 0 0 0-3 .5l-.1.1v.2a20 20 0 0 0 3.2-.1l3.4-.2h3.2l1.6-.2a15.7 15.7 0 0 1 1.7 0H100l3.3.1h3.4l3.3.3h2.2a4.1 4.1 0 0 0 .8 0 2.8 2.8 0 0 0-.8-.3l-2.1-.4c-1-.2-2.2-.1-3.1-.2a29.4 29.4 0 0 0-3.8-.4zM121.6 30.2a32.2 32.2 0 0 0-4-.5l-.5.1a21.9 21.9 0 0 0 4.4 1l2.2.5a10.2 10.2 0 0 0 2 .2 15 15 0 0 0-4-1.3z"/><path class="cls-2" d="M11.8 38.9l2.5.2 1.7.1 4.4.1 2.6.1h1.7a16.2 16.2 0 0 1 1.8-.1H29c4.4-.2 4.4.1 8.8-.3a32.8 32.8 0 0 0 4.3-.7l4.3-.8L49 37q3-.5 6-1.3l8.2-2.4 4.2-1c1-.3 2.2-.4 4.2-1 4.3-.9 4.5-1.3 3.6-1.4h-.4a15.2 15.2 0 0 0-3.6.4h.1l-4.3 1-4.1 1-8.3 2.4-4.2 1-1.8.3-2.4.5a32.4 32.4 0 0 1-4.2.6l-4.3.4c-4.3.4-4.3.5-8.6.7a20 20 0 0 1-2.5 0 16.2 16.2 0 0 1-1.8 0 16.2 16.2 0 0 0-1.7-.2h-2.5a36.5 36.5 0 0 0-4.4 0 16.2 16.2 0 0 1-1.7 0l-2.6-.1a26 26 0 0 1-4.3-.5l-2-.4-.5 1.2 2.3.2a41.2 41.2 0 0 0 4.3.5zM151.6 33l-3-.5-2.4-.6-.2.1c0 .2.9.4 2.6 1l3 .5a16.5 16.5 0 0 0 2.8.6l.8.2-.2-.6h-.5zM129.7 32.4c0 .2.5.5 2 1l2.5.6c.8.2 1.6.7 2.6 1l2.5.7 2.7.7 2.2.3a12.6 12.6 0 0 0-2.2-.7l-2.5-.9-2.5-.7-2.6-.8-2.5-.8a11.6 11.6 0 0 0-2-.4zM106.3 34.7h2.5l-1.1-.2h-1.5a20.7 20.7 0 0 0-2-.2l-5.7-.3h-8.7c-.8.2-1.8 0-2.6.2h-1.6a12.6 12.6 0 0 0-1.5.2l-2.5.2a6 6 0 0 0-1.2.1l-.9.2-1.5.3a3.5 3.5 0 0 0-1.1.3H79.5l.9-.1a7.1 7.1 0 0 0 1.1-.1l2.7-.3a11 11 0 0 1 1.4-.3H92.7l6-.2h5.6zM119.7 36.2zM124.4 36.9l-3.3-.6a9.5 9.5 0 0 0-1.1-.2.2.2 0 0 0-.3 0 4.7 4.7 0 0 0 1.4.4l3.2.8 3.5.8a11.8 11.8 0 0 0 1.6.3 6.8 6.8 0 0 0-1.5-.6 27 27 0 0 0-3.5-1zM152.7 38.9a11.4 11.4 0 0 0-2.4-.7 10.7 10.7 0 0 0-2-.3H148a6.9 6.9 0 0 0 2.3.6 15.8 15.8 0 0 0 2.4.4zM14.6 44.8h2.2l4.4.1H32l2.5-.1 4-.3A117 117 0 0 0 51 42.2c6.2-1.6 6.2-1.7 12.3-3.4a5.5 5.5 0 0 0 2.5-1 11.8 11.8 0 0 0-2.5.4V38a.3.3 0 0 0-.2.1h-.2c-4.1 1-8 2.5-12 3.5a101.4 101.4 0 0 1-12.7 2l-3.8.2-2.5.3a61.9 61.9 0 0 1-6.5.2H22l-3.3-.2-3-.2-3-.2h-3c-1 .2 1.5.6 2.7.8zM90.3 40.2a5.1 5.1 0 0 0-2 .3c0 .1.6.3 2 .3a13.8 13.8 0 0 1 2.6-.1 17.9 17.9 0 0 1 2.4 0h5a7 7 0 0 0 2-.1c0-.2-.7-.2-2-.4a21 21 0 0 1-2.5-.1H93zM105.9 40.7zM111.5 41.5l2.5.3 2.4.2 2.3.3 2.3.3a2.3 2.3 0 0 1 1 .2 11.7 11.7 0 0 0-3.5-.8l-2-.4-2.4-.4a30.9 30.9 0 0 0-4.1-.4l-4-.1a18 18 0 0 0 3.4.5zM80.8 40.8c-1.1.1-2 .5-2 .7a6.5 6.5 0 0 0 2.1 0c1.2 0 2.2-.3 2.2-.5a2.8 2.8 0 0 0-1.3-.2h-1zM70.4 42.7a3.7 3.7 0 0 0-1.3.2l-3.6.9-3.5 1-3.5 1-3.4.8-3.5 1-3.6.6-3.4.8c-2 .3-1.9 0-3.7.3a34.5 34.5 0 0 1-3.6.6l-3.5.3-3.7.1c-.7 0-1.7.8.1.8l3.7-.1 3.6-.4L41 50l3.6-.5 3.5-.7 3.6-.8c1.7-.4 1.8-.2 3.6-.7l3.5-1.1 3.4-1 3.5-1c1.8-.5 1.7-.2 3.5-.7 2.1-.6 1.8-.9 1.1-.8zM130.2 44.7a3.1 3.1 0 0 0-1.4-.6 8 8 0 0 0-1.4-.2l-.2.1a3.8 3.8 0 0 0 1.4.5c.9.2 1.7.4 1.6.2zM151.7 44.6l1 .3q2.7.3 5.3.8a4 4 0 0 0 .5 0l-6.7-1zM139.7 47.4l-4-1.2a9 9 0 0 0-1.6-.4 5.2 5.2 0 0 0 1.6.7l3.7 1.1 4.1 1.2 1.4.4a1.5 1.5 0 0 0 .6 0l-1.8-.6zM92.8 47h11.4c3 0 4.6 0 4.6-.4l-2.7-.4a20.7 20.7 0 0 0-2 0 50 50 0 0 0-5.7-.5h-5.8l-2.8.1-2.8.1-1.5.1H84a19.6 19.6 0 0 1-2.6.3l-1.1.1-1 .2a6.8 6.8 0 0 0-1.4.4c-.8.1-1.1.3-1.1.4l1.2.2h2.4l1-.1a24.8 24.8 0 0 0 2.7-.3l1.5-.2a12.6 12.6 0 0 1 1.5-.1h2.7zM119.7 48.3v-.1h-.2zM124.4 48.8l-4.1-.7a1.3 1.3 0 0 0-.6.1 35.6 35.6 0 0 0 4.5 1.3l3.4.8a4.3 4.3 0 0 0 1.8.2c0-.1-.5-.4-1.5-.7a19.7 19.7 0 0 0-3.5-1zM149 50.2l.8.2 2.4.6 4.5.7 2.8.3V52l-9.7-1.5a4.3 4.3 0 0 0-.8-.2zM5.1 49.9l2.5.4a18.3 18.3 0 0 0 2.5 0 4.4 4.4 0 0 0 2.2-.2c0-.2-.8-.2-2.2-.3L9 49.5l-1.2-.2a40.2 40.2 0 0 1-5-.5h-.2v.6zM63 49.9h-.5c-4 1.2-8 2.6-12 3.5a103.4 103.4 0 0 1-12.6 2l-3.7.3-2.7.2a48.7 48.7 0 0 1-6.5.3h-3.3l-3.3-.2-3-.2a17.5 17.5 0 0 0-3-.3h-1l-1.3.1a1.9 1.9 0 0 0-.6 0c-1 .4 1.3 1 2.6 1.2a13 13 0 0 0 2.2.1h2.2l4.4.2h10.7l2.6-.1 3.9-.2c6.4-.8 6.3-1 12.6-2.4C57 52.9 57 52.9 63.1 51a4.5 4.5 0 0 0 2.5-1.4.3.3 0 0 0-.2 0c-.3-.2-1.7.1-2.4.2zM16.8 50.5c0 .2 1 .4 2 .4 1.2 0 2.3 0 2.3-.3a4.4 4.4 0 0 0-2.3-.4c-1.1 0-2 .2-2 .3zM6.1 62.5l2.7.3a29 29 0 0 1 3.6.2l2 .1 1.7.1 2.5.2 2.5.1c1 .2 2.3 0 3.8 0a26.5 26.5 0 0 0 3.7 0l2.5-.2 6.3-.5 2-.2a12 12 0 0 0 1.7-.1l2.5-.3a22.7 22.7 0 0 0 2.6-.3l3.5-.7 3.6-.9 2.4-.7c1.5-.4 3-1 6-1.7a116.5 116.5 0 0 1 11.7-3c3-.7 4.5-.7 6-1a2.7 2.7 0 0 0 1.2-.2 11.6 11.6 0 0 0 1.3 0l3.7-.3c2.5-.2 5.7-1.2-.1-1l-3.7.2-1.4.1-1.2.2c-1.5.2-3.1.3-6.2.9-6 1.2-6 1.4-12 3l-5.8 1.6-2.4.6-3.6.9-3.6.7-2.5.4-2.5.3-1.5.2-2 .2c-3.1.4-4.7.4-6.2.5H21a21 21 0 0 0-2.5 0H16l-1.7-.2-2-.1-3.8-.4-4.8-.7-2.1-.4v1.5l2 .4zM131.7 56.9a81.7 81.7 0 0 0-12.4-2.9c-3.2-.7-4.8-.7-6.4-1s-3.2-.3-6.4-.6h-.6a3.5 3.5 0 0 0-2.3.4 12.3 12.3 0 0 0 2.5.4.5.5 0 0 1 .4.2h.1l6.3.4 3.2.3 3 .4a80.7 80.7 0 0 1 12.3 3l6 1.8 6.2 1.8 6.5 1.5c1 .2 1.9.6 3 .6l3 .5a7.7 7.7 0 0 0 1 .2l1.2.2a2.4 2.4 0 0 0 .5 0c1.1 0-1.4-.3-2.5-.6l-4.3-.7-4.1-1-4.1-1c-6-1.8-6-2-12.1-3.9zM157.8 58a4.8 4.8 0 0 0 1.1.1l-3.8-.8-3.5-.5a3.8 3.8 0 0 0 1 .4zM91.2 59.3a15.5 15.5 0 0 1 1.7 0h13.3l3.3.2 2.2.1a4.2 4.2 0 0 0 .8-.1 2.9 2.9 0 0 0-.8-.2l-2-.3c-1.2-.2-2.2-.2-3.2-.2a29.4 29.4 0 0 0-3.8-.4l-4.3-.2h-7.6a70.8 70.8 0 0 0-8 .8 15.4 15.4 0 0 0-3 .5l-.1.1v.2a20 20 0 0 0 3.2 0l3.3-.3h3.4zM117.2 60h-.5a22 22 0 0 0 4.4 1l2.3.5a10 10 0 0 0 2 .2 17.2 17.2 0 0 0-4.2-1.3 32.2 32.2 0 0 0-4-.4zM11.3 69.2l2.6.2a9.7 9.7 0 0 0 1.8 0l4.3.2h4.3a16.2 16.2 0 0 1 1.8 0l2.6-.2c4.4-.1 4.4.2 8.8-.3a32.9 32.9 0 0 0 4.2-.6 42 42 0 0 1 4.4-.9l2.5-.4 6-1.4 8.3-2.3 4.1-1 4.2-1c4.2-1 4.5-1.3 3.6-1.3l-.4-.1a15.2 15.2 0 0 0-3.5.4l-4.3 1-4 1c-4.3 1.3-4.2 1.4-8.4 2.5L50 66l-1.7.3-2.4.5a32.2 32.2 0 0 1-4.3.6l-4.3.4c-4.3.4-4.3.5-8.6.7a20 20 0 0 1-2.5 0 16.2 16.2 0 0 1-1.8 0 16.3 16.3 0 0 0-1.7-.2h-6.9a16.2 16.2 0 0 1-1.7 0l-2.6-.1a26 26 0 0 1-4.3-.6 38.4 38.4 0 0 0-4.3-.6l-1.2-.2.1 1.3 5.2.8a41.2 41.2 0 0 0 4.3.3zM139 65.4l-2.4-.8-2.6-.7-2.5-.8a11.6 11.6 0 0 0-2-.4h-.2a5.4 5.4 0 0 0 2 1l2.6.6 2.4 1a24.6 24.6 0 0 1 2.6.7l2.6.7q2.2.6 2.2.3a12.7 12.7 0 0 0-2-.7zM8.3 74.6l3.7.3 2 .1a5.3 5.3 0 0 0 1.7.1 21 21 0 0 0 2.5.2l2.5.2h3.7l3.7-.1 2.6-.2 6.2-.4 2-.3 1.6-.2 2.7-.3 2.4-.4 3.7-.7 3.4-.9 2.6-.6 5.8-1.8c6-1.5 5.9-1.6 11.9-2.8 3-.7 4.6-.8 6-1l1.3-.2a11.6 11.6 0 0 0 1.3-.1l3.6-.3c2.5-.2 5.8-.9 0-.7l-3.7.3-1.4.1-1.1.2a62.1 62.1 0 0 0-6.2 1 119 119 0 0 0-12 3L55 70.7l-2.4.7-3.5.7-3.6.7-2.5.5-2.5.3a13.8 13.8 0 0 1-1.6.2l-2 .2-6.2.5H18.2l-2.5-.1-1.6-.1L12 74 8.3 74 3.4 73l-1-.1.2 1 3.2.3zM151.7 74.9l-4-1-4.2-1.1-12-3.8a89 89 0 0 0-12.5-3l-6.3-.9-6.4-.5-.8-.1a5.3 5.3 0 0 0-2 .3 12.3 12.3 0 0 0 2.4.3 1.3 1.3 0 0 0 .5 0h.2c2.1.2 4.2.2 6.3.5l3.1.4 3.1.5a100 100 0 0 1 12.3 3l6.1 1.8 2.4.8a85.3 85.3 0 0 0 10.1 2.6c1 0 2 .5 3 .6l3 .4a6 6 0 0 0 1 .2l1.2.2a2.4 2.4 0 0 0 .5 0l-2.6-.4zM147.7 68.2h-.1a6.9 6.9 0 0 0 2.2.6 15.8 15.8 0 0 0 2.4.4 11.5 11.5 0 0 0-2.4-.7 10.7 10.7 0 0 0-2-.3zM157.7 70h-.5l1.3.2 1.1.1v-.1l-1-.2zM8 80.7l4 .2a17.2 17.2 0 0 0 4.5 0c.3-.1-.2-.3-1.2-.4l-3.8-.6-3-.2-3.2-.5-1.8-.3c0 .5.2 1 .3 1.4zM88.6 70.8a13.7 13.7 0 0 0-2.8-.2l-3.5.2-2.4.1-2.7.3a60.6 60.6 0 0 0-6.9 1.1l-3.7.9-4 1c-5.3 1.6-10 3.2-14.3 4l-5 1-3.5.7-1.9.3-.6.2a5.7 5.7 0 0 0 2.5 0l3.4-.3c1.4 0 3.2-.5 5.2-.8l3.3-.8 3.7-.9 7.7-2.3 3.9-1 3.6-.8 3.4-.8 3.2-.5 2.6-.4 2.4-.2a29.3 29.3 0 0 1 3.6-.5c1.9-.1 2.8-.3 2.8-.3zM117.8 72.5a23.3 23.3 0 0 1 3.3.6l3.9.9 3.9 1 3.2.8 4.6 1.4a9.3 9.3 0 0 0 2.1.5 7.7 7.7 0 0 0-1.6-.6l-4.2-1.5-3.6-1-4.3-1.2-4.3-1-3.9-.6a63.7 63.7 0 0 0-6.3-.5h-1l2.8.5c1.6.2 3.7.3 5.4.7zM109.6 71.4zM8.4 87l3.7.2 2 .1 1.7.1a22.9 22.9 0 0 0 2.5.2l2.5.1a27.3 27.3 0 0 0 3.7 0h3.7a18 18 0 0 0 2.6-.2c1.6 0 3-.2 6.2-.5l2-.2a12 12 0 0 0 1.7-.2l2.5-.1a22.7 22.7 0 0 0 2.6-.4l3.6-.6 3.6-.9 2.5-.8 5.7-1.8A116.5 116.5 0 0 1 73 79l6-1h1.2a11.6 11.6 0 0 0 1.4-.1l3.6-.3c2.6-.2 5.8-1.3-.1-1l-3.7.3a6.3 6.3 0 0 0-1.3 0l-1.2.1c-1.5.2-3.2.3-6.2.9-6 1.2-6 1.4-12 3-3 .8-4.4 1.3-6 1.6l-2.3.8-3.6.7a26.4 26.4 0 0 0-3.5.7 17.4 17.4 0 0 1-2.6.5 15.7 15.7 0 0 0-2.4.3l-1.6.2-2 .2-6.2.5H18a24.5 24.5 0 0 1-2.5-.1l-1.7-.1-2-.1-3.7-.4-3-.4.5 1.5h.1zM147.5 86.1l-4-1.1c-6.1-1.8-6-2-12.2-3.9s-6.1-1.6-12.4-2.8a54 54 0 0 0-6.4-1l-6.4-.6-.6-.1a3.5 3.5 0 0 0-2.2.5l2.5.4a.5.5 0 0 1 .4.1h.1l6.2.5 3.1.3 3.1.5a80.7 80.7 0 0 1 12.4 2.9l6 1.8 6.2 1.8c2.1.4 4.3 1.1 6.5 1.5l3 .7 2.8.4.1-.3-4-.6zM154.7 81.6l.8.2 1.9.3V82l-2-.3a6.6 6.6 0 0 0-.7 0zM155.5 81.8h-.1zM78.9 84l1-.1a7.1 7.1 0 0 0 1 0l2.7-.4a11 11 0 0 1 1.5-.2l1.5-.1h21.7a5.6 5.6 0 0 0-1.2-.1l-1.4-.2-2.1-.1-5.6-.3h-5.8a16.5 16.5 0 0 0-2.9 0l-2.7.2-1.6.1a12.6 12.6 0 0 0-1.5.1l-2.5.3a6 6 0 0 0-1.1 0l-1 .3-1.4.2a3.5 3.5 0 0 0-1.2.3h1.2zM120.5 85a34 34 0 0 0 3.3.7l3.5.8 1.6.3a6.9 6.9 0 0 0-1.6-.6 27 27 0 0 0-3.4-.9l-3.4-.6a9.4 9.4 0 0 0-1-.2l-.4.1a4.7 4.7 0 0 0 1.4.3zM62.6 86.5a.6.6 0 0 0-.3 0l-.1.1c-4 1-8 2.5-12.1 3.4a101.4 101.4 0 0 1-12.6 2l-3.7.3-2.7.3a61.9 61.9 0 0 1-6.4.2h-3.4l-3.3-.3-3-.1-3-.2H9c-.9.2 1.5.6 2.7.8l2.2.2h2.3l4.3.1h10.8l2.6-.2 3.8-.3c6.4-.7 6.5-1 12.7-2.3 6.1-1.5 6.1-1.5 12.2-3.3a5.5 5.5 0 0 0 2.5-1.1 11.8 11.8 0 0 0-2.5.4zM102.3 88.6H98c-2.5 0-5-.2-7.5 0l-.1-.2a70.8 70.8 0 0 0-8 .9 15.3 15.3 0 0 0-3 .5l-.1.1v.2a20 20 0 0 0 3.3-.2h3.2l3.4-.2h1.6a15.5 15.5 0 0 1 1.7-.2l3.3.1a23 23 0 0 1 3.4 0h6.6l3.3.2h2.2a4.2 4.2 0 0 0 .8 0 2.8 2.8 0 0 0-.8-.2l-.8-.2-1.4-.2c-1-.2-2 0-3.1-.2zM123 91.8a10.2 10.2 0 0 0 2 .2 15.2 15.2 0 0 0-4.1-1.3 32.2 32.2 0 0 0-4-.5l-.5.1a21.9 21.9 0 0 0 4.4 1zM15.2 99.7l4.5.1a15 15 0 0 0 2.5 0H24a16.2 16.2 0 0 1 1.8 0h2.6c4.3-.2 4.3.1 8.7-.4a32.8 32.8 0 0 0 4.3-.7l4.3-.8 2.6-.4q3-.5 6-1.3l8.2-2.4a22.8 22.8 0 0 1 4.2-1 42.8 42.8 0 0 0 4.1-1c4.3-.9 4.6-1.3 3.6-1.4h-.3a15.2 15.2 0 0 0-3.6.3l-4.2 1c-1.2.3-2 .7-4.2 1.2l-8.3 2.3-4.1 1-1.8.3-2.4.5a32.4 32.4 0 0 1-4.3.7L37 98l-8.6.8a20 20 0 0 1-2.5 0 16.2 16.2 0 0 1-1.8-.1 16.2 16.2 0 0 0-1.7 0c-.7-.2-1.5 0-2.6-.1h-4.3a16.2 16.2 0 0 1-1.8 0l-2.4-.2h-.6l.6 1.1 2.4.2zM151 93l1 .3 1.4.2v-.1l-2.3-.4zM129 93zM130.9 93.9l2.5.7 2.5.8 2.6.9 2.6.6 2.2.4a12.6 12.6 0 0 0-2.2-.8l-2.4-.8-2.5-.8-2.6-.7-2.5-.8a11.6 11.6 0 0 0-2-.4h-.2s.6.4 2 .9zM78.7 96h1a7.1 7.1 0 0 0 1-.1l2.7-.3a11 11 0 0 1 1.5-.2l1.5-.1H92l5.9-.1h9.2a4.5 4.5 0 0 0 1 0 5.6 5.6 0 0 0-1.2-.2h-3.5l-5.7-.4H92l-2.9.1h-2.7l-1.6.2a12.6 12.6 0 0 0-1.4 0l-2.7.3a6 6 0 0 0-1 .1l-1 .2-1.5.3a3.5 3.5 0 0 0-1.1.3l1.2.1zM123.5 97.4l-3.3-.6a9.4 9.4 0 0 0-1.1-.1h-.3.2a4.7 4.7 0 0 0 1.3.4l3.4.7c1.3.2 2.4.7 3.4 1l1.4.1a6.8 6.8 0 0 0-1.5-.5 27 27 0 0 0-3.5-1zM147.4 98.4h-.2a6.9 6.9 0 0 0 2.2.7l1.2.2.1-.2a11.4 11.4 0 0 0-1.3-.4 10.7 10.7 0 0 0-2-.3zM20.3 105.4H31l2.7-.1 3.8-.3a87.9 87.9 0 0 0 12.6-2.3c6.2-1.6 6.2-1.6 12.3-3.4a5.5 5.5 0 0 0 2.6-1.1 12.4 12.4 0 0 0-2.6.4h.1a.6.6 0 0 0-.3 0l-.1.1c-4.1 1-8 2.5-12.1 3.4a101.4 101.4 0 0 1-12.6 2l-3.8.3-2.6.2c-1.6.1-3.3.4-6.4.3h-3.4l-3.3-.1-3.1-.2h-.6l.5.8H16zM111.9 102a2.9 2.9 0 0 0-.8-.2l-2.2-.3-3.2-.4-3.7-.3-4.4-.1h-7.5a70.8 70.8 0 0 0-8 .8 15.3 15.3 0 0 0-3 .4l-.1.1v.2a20 20 0 0 0 3.2-.2h3.4l3.3-.2 1.5-.1a15.5 15.5 0 0 1 1.7 0h13.4l3.3.2h2.2a4.2 4.2 0 0 0 .9.1zM122.6 104a10.2 10.2 0 0 0 2 .1 18 18 0 0 0-4-1.2 32.2 32.2 0 0 0-4.2-.5h-.4a21.9 21.9 0 0 0 4.3 1.1zM23.7 112a16.2 16.2 0 0 1 1.7 0H28c4.2-.2 4.3 0 8.6-.4a32.8 32.8 0 0 0 4.3-.7l4.3-.8 2.6-.4 6-1.4L62 106l4.1-1 4.2-1c4.3-1 4.6-1.3 3.7-1.4h-.4a15.2 15.2 0 0 0-3.5.4l-4.4 1-4 1-8.4 2.3q-2 .6-4.1 1l-1.7.3a13 13 0 0 1-2.5.5 32.4 32.4 0 0 1-4.3.7l-4.2.4c-4.3.3-4.4.5-8.6.6a20 20 0 0 1-2.6 0 16.2 16.2 0 0 1-1.7 0 16.2 16.2 0 0 0-1.7 0c-.7-.2-1.6 0-2.5-.1h-.9l1.1 1.3h2.1zM138.4 107.9l-2.6-.9-2.5-.7-2.5-.8a11.6 11.6 0 0 0-2-.4h-.2c0 .2.6.5 2 1 .6.3 1.5.4 2.6.7l2.3.8 2.7.9 2.6.6c1.4.3 2.1.5 2.2.4a12.6 12.6 0 0 0-2.1-.8zM128.5 105zM47.8 115.3l3.3-.7 3.7-1 7.7-2.1q3.7-1.2 7.5-2l3.4-.6 3.2-.5 2.7-.5 2.3-.3 3.6-.2a11.7 11.7 0 0 0 3-.4 2 2 0 0 0-.7 0h-2l-3.6.3-2.4.1-2.7.4-6.9 1.1-3.7 1-4 1c-5.2 1.4-10 3-14.4 3.9l-5 1-3.4.5-2 .2-.6.2a10 10 0 0 0 2.5 0l3.4-.5c1.5 0 3-.5 5.1-.9zM109.8 107.5a3.5 3.5 0 0 0-.7 0l2.8.5a39.8 39.8 0 0 1 5.4.8l3.3.5 3.9 1 3.8 1 3.4.9 4.6 1.3 1.4.4.6.1a4.4 4.4 0 0 1-.4-.2 11.9 11.9 0 0 1-1.3-.5l-7.8-2.4-4.3-1.2-4.2-1-4-.5a20 20 0 0 0-2.6-.4l-2.3-.2zM95.6 113.7h7.8l3.6.2 3.2.1 5.2.6 5.9 1h.6a2.5 2.5 0 0 0-.8-.3l-.9-.3-1.3-.2-3.8-.7-5.2-.8a21.4 21.4 0 0 1-3.3-.2l-3.5-.3-3.7-.2H88.2l-3.8.3-3.8.3a99.3 99.3 0 0 0-14.3 2.5l-14 3.7c-7.4 2-11.6 2.6-11.6 3a8.4 8.4 0 0 0 3-.2l3.7-.5 5-1c4-1 8.9-2.9 14.2-4.1a109.4 109.4 0 0 1 14-2.2l3.9-.3 3.8-.2zM42.7 128.4c1.4-.1 3-.5 5-.9l3.4-.7 3.6-1 7.7-2.1q3.7-1.2 7.5-2l3.5-.6 3.1-.5 2.7-.5 2.4-.2a18 18 0 0 1 3.5-.3 16.2 16.2 0 0 0 3-.4 2 2 0 0 0-.7 0h-2.1l-3.6.3-2.2.1-2.9.4-6.8 1.2-3.8.8-3.9 1c-5.3 1.5-10 3-14.4 4l-5 1-3.5.5-.8.1.4.3h.5zM124.5 122l-4.4-1-3.9-.6a20 20 0 0 0-2.5-.4l-2.4-.2-1.7-.1a3.5 3.5 0 0 0-.7 0l2.8.5c1.7.2 3.7.4 5.5.8l3.3.6 4 .8 3.8 1 1.6.5.4-.3-1.6-.5zM98.9 124.9a10.5 10.5 0 0 0-1.8.1l-1 .4s.3.2 1 .2l2.4.1a10.6 10.6 0 0 0 4-.2 11 11 0 0 0-4-.6zM83.5 126l2.8-.2c.7 0 1.2-.3 1.1-.4s-.5-.2-1.2-.3l-1.5-.1a11 11 0 0 0-1.3 0c-2 .2-3.6.7-3.4 1 0 .3 1.6.3 3.5 0zM115.6 127c2 .3 4 .5 3.9.3a10 10 0 0 0-3.7-1.1 19.3 19.3 0 0 0-2.2-.2l-1.6.2a12.4 12.4 0 0 0 3.6.8zM66.2 129.4l-.6-.1a15.1 15.1 0 0 0-3.5.4c-2 .5-3.4 1.4-3.3 1.6s1.8 0 3.7-.5 3.7-1.2 3.7-1.4zM110 132.4l-3.4-.3a24.9 24.9 0 0 0-3.5-.3l-3.8-.2H88l-3.8.2-4 .3a101 101 0 0 0-14.4 2.6l-4 1h4.4a111.2 111.2 0 0 1 14.3-2.3l3.9-.2 3.8-.3c2.5-.2 5-.2 7.3-.2a16.8 16.8 0 0 0 2 0h6l3.6.3 3.3.1 5.2.6h.8l.6-.2-1.7-.4zM50.2 132.8c-2 .5-3.5 1.2-3.4 1.5s1.7.1 3.7-.3 3.6-1.2 3.7-1.5h-.6a17.4 17.4 0 0 0-3.4.3z"/><path d="M85.8 1L66.6 12.4 61 15.8 55.2 19a17.7 17.7 0 0 0-2.8 2.3 27.5 27.5 0 0 0-3.8 3.5c-.4.5-.5 1.4-1 1.9a9.8 9.8 0 0 1-2 1c-2.5 1.4-5 2.9-7.6 4.2L18.2 42c-2.8 1.4-6.2 1.7-9.2 2.5l-4.8 1.4c-.8.3-.8.6-1.2 1.4-.2.4-.3.5-.2.8s.7 1 .6 1.3-1.5 1.2-1.9 1.4l1 1.5c.3.3 1.2 1 1.2 1.4s-1 1-1 1.5.9.7.8 1.2c0 .3-.6.5-.6.8s.3.6.4.8c.3.6.2.5-.3 1l-3 2.8.8.6c.3.3.3.2.3.6-.2.8-1 .7-.3 1.3l1.8 2c.3.3.8.7.7 1-.2.7-1.4 1-1.6 1.6 0 .4.7 1 .7 1.4 0 .3-.4.5-.4.8s.5.7.6.8a8.2 8.2 0 0 0 .9 1.4 13.9 13.9 0 0 0 2 1.4l4.4 3 8.2 5.6c1 .6 1.8 1.3 2.7 2l7.3 6.2 14.5 12c3.7 3.1 7.4 6.4 11 9.7s7.3 6.3 11 9.4l4.2 3.6a12.4 12.4 0 0 0 1.8 1.5 17 17 0 0 0 2.1.8 14 14 0 0 0 2.3.9 3 3 0 0 0 1-.1l2.8-.5a8.7 8.7 0 0 0 2.9-1.2l4-2.1 4.8-2.7 16.7-9.6 13-7.2c3.9-2.2 8-4.3 11.6-7 4.3-3.2 8.7-6.3 13-9.7l7.7-6.3a8.5 8.5 0 0 0 1.6-2.2l1.5-2.2c.2-.4.4-.5.3-1a12.3 12.3 0 0 0-1-2.2c-.1-.4-.5-1-.4-1.4a8.4 8.4 0 0 1 1.1-2 1.5 1.5 0 0 0 .3-1.3c-.1-1.3-.6-2.7 0-3.8a13.6 13.6 0 0 0 1.3-2.2 2.2 2.2 0 0 0 0-1l-.6-4.5a2.9 2.9 0 0 1 0-1.6 13 13 0 0 0 1-2.2 5.5 5.5 0 0 0-.3-1.6 10 10 0 0 0-.5-2 17 17 0 0 0-2.1-2.8l-3.3-4.3A8.6 8.6 0 0 0 150 43a48.5 48.5 0 0 0-6-4.5c-2.5-1.4-5-3-7.6-4.3s-5.3-2.3-8-3.5l-3-1.1a10 10 0 0 1-1.8-.7 5.6 5.6 0 0 1-.7-.8 45.1 45.1 0 0 0-5.5-5.4c-4.4-3.2-9-6.2-13.2-9.5L97.6 8a73.8 73.8 0 0 1-5.4-5.3c-.7-.7-1.5-1.8-2.5-2a15.8 15.8 0 0 0-2.3-.2 6.5 6.5 0 0 0-1.6.5z" fill="#fff"/><path class="cls-4" d="M68.4 83l3.7-2.4c.4-.3 1-.6 1.3-1s1-.8 0-1a5.5 5.5 0 0 0-.6.6l-1 .7-2 1.2c-1.3 1-2.7 1.7-4.2 2.5L61.3 86c-.3.2-1.2.6-1.3 1s0 .7.5.6c.2 0 .3-.3.5-.4a12.7 12.7 0 0 1 1.1-.8 20.4 20.4 0 0 1 1.9-1l4.4-2.5zM79.1 7.4a9.5 9.5 0 0 0-2.5-.1 4.5 4.5 0 0 0 2.5.1zM92 79.4l3.6-1.9c.3-.2 1.2-.3 1.4-.7a.5.5 0 0 0-.1-.5c-.3-.3-.6 0-.9.2l-7.7 4a25.9 25.9 0 0 0-2.8 1.8c-.4.2-1.7 1.7-.5 1.4.3 0 .9-.9 1.2-1 .5-.5 1.1-.8 1.7-1.2l4-2zM84.2 95.2a39.4 39.4 0 0 0 4.5-2.8c.4-.3.8-.7 0-.7-.5 0-1 .5-1.4.8a38.9 38.9 0 0 1-4.6 2.6L78 97.8a14.7 14.7 0 0 0-2.3 1.3c-1 .8.3.5.8.3 1-.4 1.7-1 2.6-1.4l5-2.8zM76.1 65.2s1-.1 1-.3-1 .1-1 .3zM84 55a35 35 0 0 0-3 1.9c-.3.2-2 1.3-2 1.8 0 .8 1.6-.7 1.8-.8l3-2c.4-.4.4-.4.3-.9zM89.5 85.7c-.3 0-2 1-1 1.1.4.1.8-.4 1-.5l2-1L95 83l3.5-2c.4-.3 1-.6 1.3-1l.2-.4c0-.2-.3-.4-.4-.3-1.9 1.7-4.4 2.9-6.6 4.1l-3.5 2.2zM75.5 64c0 .2 1-.3 1-.4s-1 .2-1 .4zM75 68.8a19.8 19.8 0 0 1 4.1-2.2l1-.3c0-.4-1-.1-1.2 0-.4 0-4.6 2-4.3 2.5h.3zM84.2 58.8c.5-.3.5-.5.4-1a9.2 9.2 0 0 0-2.2 1.2c-.4.2-1.2.7-1.2 1.2 0 .7.6.1.8-.1a7.8 7.8 0 0 1 2.1-1.4zM82.5 62.2c.3.4 1.2-.4 1.4-.6.7-.4 1.3-.5 1.2-1.4-.3.1-3 1.6-2.6 2zM90.6 76.8L86.3 79a19.3 19.3 0 0 0-3.7 2c-.2.2-.7.6-.7.9.1.7.8 0 1 0a21 21 0 0 1 3.2-2c2.3-1.2 4.7-2.3 6.9-3.7.2-.1 2.4-1.4 1-1.6a8 8 0 0 0-1.4 1 22.7 22.7 0 0 1-2 1zM85.9 63.4c.5-.1.2-.4 0-.7-.4.3-.8 1 0 .7zM103 74.6c-.3.2-1.7.8-1.6 1.4s1.5-.6 1.8-.8l2.3-1.4a12.2 12.2 0 0 0 1-.8c.3-.2.7-.3 1-.6-.1-.1-.4-.5-.6-.5s-.8.6-1 .7l-2.9 2zM81.8 79c-.2.2-2 1.2-1.1 1.5.3 0 .7-.5 1-.7l2.2-1 3.6-2.2a37.6 37.6 0 0 1 3.8-2.4c.4-.1 1.2-.3 1.5-.7s0-.6-.5-.5a13.1 13.1 0 0 0-3.4 2c-2.2 1.5-4.7 2.7-7 4zM76.7 77.2c1.2-.4 2-1.4 3-2a36.3 36.3 0 0 1 3.9-1.8 21 21 0 0 0 3.4-1.6c.2-.2 2.2-1.9 1.1-1.7-.3 0-.6.5-.8.7a7 7 0 0 1-1.7 1c-1.2.6-2.5 1-3.7 1.5a39.2 39.2 0 0 0-3.6 2 10.5 10.5 0 0 0-1.7 1.2c-.2.2-.6.9.1.7zM75.8 63c0-.2-1.2.4-1.1.6h.2c.1 0 1-.4 1-.6zM104 76.7c-.2.2-1 .7-.7 1s.9-.3 1.1-.4a33.2 33.2 0 0 1 5.2-3.1c-.7-1-1.7 0-2.5.5a29.3 29.3 0 0 0-3.1 2zM82.8 75.4c-1.4.8-2.5 2-3.9 2.7-.3.2-1.1.4-1.2.8s.3.4.7.3a12.6 12.6 0 0 0 3.3-2.2c.6-.4 1-1 1.7-1.3s1-.7 1.6-1a20.6 20.6 0 0 1 1.9-1.2c.5-.3 1-.8 1.6-1 .3-.2 2.6-1 2-1.5s-2.8 1.2-3.2 1.4l-4.5 3zM108.6 79.6c-.3.2-1.2.8-1.2 1.2-.1.8.8.1 1 0a41.1 41.1 0 0 1 4.8-3.4c-.7-.8-1.2-.1-1.9.3a26 26 0 0 0-2.7 1.9zM91.5 88.4a21 21 0 0 1 3-2l3.8-2.2 3.6-2c.4-.2 1.2-.2 1.3-.7.1-.7-.7-.3-1-.1-2.6 1.5-5.4 2.7-8 4.3a29.4 29.4 0 0 0-3.3 2.1c-.8.7-.2 1.3.6.6zM94.7 69.4a51.6 51.6 0 0 1 5.7-3.3c-.8-.8-1.5 0-2.4.5l-3 1.8c-.4.2-1.8 1-1.7 1.4 0 .7 1.2-.3 1.4-.4zM106.2 78c-.3.2-1.2.7-.8 1.2s1-.5 1.1-.7a10.6 10.6 0 0 1 2.2-1.3l2.5-1.5c-.8-.6-1.4 0-2.2.5a21.6 21.6 0 0 0-2.8 1.8zM85.4 96.7c1.4-.6 2.7-1.5 4-2A6.5 6.5 0 0 0 91 94c.4-.3.5-.7 0-.7a5.5 5.5 0 0 0-1.7.6l-2 1-3.4 1.9-4.2 2.4c-.3.2-3 1.7-2.1 2 .3.2 1.2-.7 1.5-.8l1.8-1.1a38.7 38.7 0 0 1 4.5-2.7zM66.8 78.5L64.2 80c0 .3 2.8-1.3 2.6-1.5zM108.2 86.7a51.2 51.2 0 0 1-7.4 3.6 36.8 36.8 0 0 0-3.6 1.8c-.2.2-1.7 1-.7 1.2.4 0 .7-.5 1-.6a20.5 20.5 0 0 1 1.9-1 56 56 0 0 1 4-1.9 38.4 38.4 0 0 0 3.5-1.6 5.9 5.9 0 0 0 1.3-.8c.2-.1.3-.2.3-.4s-.2-.4-.3-.3zM100.8 88l2-1.5a13.9 13.9 0 0 1 1.9-1.3c.3-.2 1.2-.4 1.2-.8.1-.8-1.7.4-2 .5l-4 2.9-3.1 2c-.4.3-2 1-2 1.6-.1.8 1.1-.1 1.4-.3l2.4-1.8 2.2-1.3zM68 78.4c0-.1-1.1.6-1 .8s1-.7 1-.8zM112.3 83.1c-.3.2-1.2.6-1 1 .2.7 1.2-.4 1.5-.6l2.2-1.2a12.4 12.4 0 0 0 1.2-.7l1.1-.6c-.7-.7-1.4 0-2.1.4l-3 1.7zM101.8 85.3l1.7-1.1c.2-.2 1.1-.6 1.1-1 0-.5-1 .1-1.2.3l-3.1 2.2a43.7 43.7 0 0 1-4 2 19.3 19.3 0 0 0-3.5 1.8c-.3.3-.5.4 0 .6s1.2-.4 1.6-.6a77.9 77.9 0 0 0 7.4-4.2zM109.9 82c-.3.3-.5.7.1.6.5 0 1.1-.7 1.5-1l3.7-2.3c-.8-.8-1.4 0-2.2.5A21 21 0 0 0 110 82zM93.2 95zM67.2 78.2c.1.1 2-1.6 2-1.9 0 .1-2.3 1.5-2 1.9zM69.8 73c0-.1-1.4 1-1.3 1.1s1.5-1 1.3-1.1zM63.6 80.2c0-.2-1.6.1-1.4.2s1.5 0 1.4-.2zM70.5 72.6s.6-.5.5-.6-1 .6-.8.7zM93.2 95c-1.2 1-3 1.4-4.3 2l-4.4 2a31.5 31.5 0 0 0-3.6 2c-.3.3-1.8 1-1.7 1.6s1-.1 1.1-.3a10.8 10.8 0 0 1 2-1.3q2.3-1.3 4.7-2.4c1.4-.7 3-1.2 4.3-1.9a12.2 12.2 0 0 0 1.9-.8c.3-.2.6-1 0-.9zM73.3 70.9a29.2 29.2 0 0 0-3.8 3.4 19.5 19.5 0 0 0 3.8-3.4zM74.3 62c-.2-.2-.4.3-.4.3s.5 0 .4-.3zM73.1 61.9c-.2-.1-.3.2-.3.3s.6-.2.3-.3zM72.4 74.2a33.2 33.2 0 0 1 4.4-3.4c.2-.1 1-.4 1-.7.2-.4-.9.2-1 .3-.4.2-5.1 3.3-4.7 4l.3-.2zM66.5 79.5a5.4 5.4 0 0 0-1.8 1c.1.4 2-.8 1.8-1zM101 73.2c-.3.2-2 1.2-1.5 1.8s1.2-.7 1.5-1c1.5-1.2 3.4-2 5-3.2-.2-.2-.4-.5-.6-.5s-.8.6-1 .7a40.5 40.5 0 0 0-3.4 2.2zM74.6 62.8c0-.2-.4 0-.3.1h.2zM96 70.6c-.2.2-1 .6-1 .9 0 .8 1.3-.3 1.5-.4q2.8-1.8 5.7-3.4c-.9-.7-1.7.1-2.6.7L96 70.6zM75.2 64.2c-.1-.2-.6.1-.5.3s.5-.2.5-.3zM97.8 72.2c-.4.3-.9.9 0 .7.5 0 1.2-.7 1.6-1 1.6-1 3.3-1.7 5-2.6-.6-.4-.8-.4-1.4-.1l-1.7.9a40.1 40.1 0 0 0-3.5 2zM68.4 78a16 16 0 0 0 3.5-3.3c0 .2-.6.4-.8.6a9.8 9.8 0 0 0-1 .9c-.1 0-1.8 1.7-1.7 1.8zM62.9 81a5.6 5.6 0 0 0-1.8-.1c-.1.3 1.8.4 1.8.1zM74.3 69.3l-1 .6c-.6.3-1.8 1.1-1.9 1.8a13.6 13.6 0 0 0 2.9-2.4zM74.5 69l-.2.3a.6.6 0 0 0 .2-.2zM86.8 85.2c.7.1 2-1.2 2.6-1.5l3.4-2 4-2.5c.2 0 1.8-.9 1.3-1.2s-2.1 1-2.5 1.3a32 32 0 0 1-3.2 1.8l-3.6 2.1-1.7 1.2c-.3.1-1 .6-.3.7zM95.3 25.2zM79.6 9.4a9.8 9.8 0 0 0 2.2-.3A10.2 10.2 0 0 0 85 7.8c.2-.1.8-.8 1.2-1a5 5 0 0 0-1.5 1 8.3 8.3 0 0 1-2 .9 10.7 10.7 0 0 1-2.5.5c-.4 0-1.6-.2-1.8 0a8.5 8.5 0 0 1 1.3.2zM97.5 24.7c0-.2-2-.5-2.2-.3 0 0 2.1.7 2.2.3zM98.4 24.9zM98.4 24.9c-.1-.2-.6-.2-.6 0s.5.1.6 0zM99.4 22.9c0-.3-.7-.3-.8-.1 0 .1.8.3.8 0zM93 27.6c-.3.5 1.6.4 2 .4a.8.8 0 0 0 .2 0c-.2 0-2-.8-2.3-.4zM99.8 23.6c0 .3 1 .3 1 .2 0-.2-1-.4-1-.2zM101.3 22.4c0-.2-1-.2-1 0s1 .2 1 0zM96.1 21a.3.3 0 0 0-.2 0 .4.4 0 0 1 .2 0zM99 28.4c0 .2 1 .3 1 .2s-1-.3-1-.2zM96.9 25.4a2.5 2.5 0 0 0-1.6-.2 2.6 2.6 0 0 0 1.6.2z"/><path class="cls-4" d="M98 21.4c.2-.2-1.4-.5-2-.4.6 0 1.8.8 2 .4zM99 29.6c0 .2.8.3.8 0s-.8-.2-.8 0zM96.1 22.6a9.3 9.3 0 0 0 2.1.1 12.3 12.3 0 0 0-2.6-.5 8.4 8.4 0 0 0-2 0 11.5 11.5 0 0 0 2.5.4zM99.7 25c0-.3-1-.3-1-.1s1 .3 1 .1zM96.5 23.9c0-.2-2.9-.6-3-.4a6.5 6.5 0 0 0 3 .4zM94.8 24.4c-.2-.2-2.2-.5-2.2-.2 0 .5 2.2.1 2.2.2zM90.4 23.7c-.3 0-1-.3-1.2-.1s0 .3.3.3 2.7.4 2.7.2c-.2-.4-1.4-.3-1.8-.4zM96.8 19.9c0 .4 3.3.3 3.3.3-.1-.4-3.3-.3-3.3-.3zM97.5 22c0-.1-1.6-.4-1.6-.2a2.9 2.9 0 0 0 1.6.2zM99.8 26.4c0-.1-.8-.3-.8 0s.8.3.8 0zM101 29.4zM101.1 27.3c0-.2-1-.4-1 0s1 .2 1 0zM101 29.4c0-.2-1-.3-1 0s1 .2 1 0zM99.3 21.5c0 .2 1 .3 1 .1s-1-.4-1-.1zM99.4 23.6c0-.4-3.3-.4-3.3-.4 0 .3 3.3.5 3.3.4zM86.4 30.4a.5.5 0 0 0-.2.2c0 .1 1.6-.8 1.5-1s-1.2.7-1.3.8zM67.4 30.3s-.7-.2-.7 0 1.4.4 1.4.2-.6-.2-.7-.2zM86.6 26.4a10.6 10.6 0 0 1-1.1.5c-.2 0-1.5.3-1.5.5s1.4-.2 1.6-.3a6.7 6.7 0 0 0 1-.5s1-.7.7-.7-.5.4-.7.5zM84.4 23.7s.7-.2.6-.3a2.8 2.8 0 0 0-1.3.4l.7-.1zM71.3 27.9a.3.3 0 0 1-.1-.1h.1zM74.4 29.9a12.8 12.8 0 0 0-3-2 21.2 21.2 0 0 0 3 2zM84.4 23.6zM88.6 27.3s.5-.4.3-.5c-.4 0-1.4 1-1.7 1.1a10.7 10.7 0 0 1-1 .6c-.2 0-.6.1-.7.3-.3.4 1.2-.3 1.4-.5a18.6 18.6 0 0 0 1.6-1zM90.2 14.3H90h.2zM88.2 15.2a.8.8 0 0 0 .2-.2l-.2.2zM78.7 21l-.2-.2c-1.2-.2.2.5.2.1zM94.9 36a.4.4 0 0 0-.3.1 3.5 3.5 0 0 0 1.6 0c0-.2-1.2-.1-1.3-.1zM88.7 31s1-.5 1-.7a.3.3 0 0 0-.4 0l-.7.6v.1zM97.7 34.1s-.7-.1-.7 0a3 3 0 0 0 1.4.2l-.7-.2zM89.3 32.3c-.1 0-1.1.7-1 .9a4.6 4.6 0 0 0 1.5-1c0-.2-.6.1-.5.1z"/><path class="cls-4" d="M90.1 32l1-.5c0-.1-1.4.5-1.3.6a.3.3 0 0 0 .3 0zM94.8 30.3c-.4-.1-3.6.5-3.5.9l1.5-.4 1.2-.3.8-.2zM94 28.4l.6.3.4.1a.3.3 0 0 0 .2 0c.1-.2-.8-.5-1.1-.4zM92.9 20.7z"/><path class="cls-4" d="M93.1 32.4c-2.3.4-4 2-5.9 3.2a11.3 11.3 0 0 1-5 1.7c.3-.5-.5-1.2-.7-1.6l2-.3c-.3.4-.2.8.3.6s.9-.9 1.5-1.2 1.7-.5 2-1.1a7.4 7.4 0 0 0-.8.3l-1 .6c0-.1.2-.3 0-.6s-.5 0-.8.2-.1.2-.3 0l-.6-.8c.6-.1 1.6-.3 2-.8a13.4 13.4 0 0 1-2 .6c-.5-.3 1-1.2 1.2-1.2.8.1 1.2 1.4 1.8 1.4s1.5-1.8.5-1.5a6.2 6.2 0 0 0 1.4-1l-1.2.7c-.3.2-.4.4-.7.4s-1-.5-1-.6l-.4-.3v-.7c0-.9-.2-1.4-1-1.5a1.2 1.2 0 0 0-.8.1 7.8 7.8 0 0 1-1.1.7.5.5 0 0 0 .3 0 15 15 0 0 1-1.9 1.7c-.4.2.3 0-.2.2a2 2 0 0 1-.5 0l-1-.1c.2-.1.5-.4.4-.6 0-.5-.4 0-.7 0-.7.1-1.2-1-1.6-1.5a9.3 9.3 0 0 0 1.3.3 3.6 3.6 0 0 1 1.2.5c.6.4.8.2 1.2-.1l.2-.2s.6-.1.5-.2c-.3-.2-.6 0-.9-.2a7.7 7.7 0 0 1-1-1.6s1 0 .9-.1a1.4 1.4 0 0 0-.6-.1c-.6-.1-.2.1-.7-.3a4.3 4.3 0 0 1-.5-.7c-.8-1.2.8-.7 1.6-.7a10.2 10.2 0 0 0 2.3-.1c.5-.1 2.4-.2 2.6-.8a17.1 17.1 0 0 1-2.1.5 16 16 0 0 1-2.6.2 4.2 4.2 0 0 1-1.6-.1c-.2-.1-.2-.5-.5-.6s-1.3 1-1.5 1.2-.5.4-.3.8c-.2-.1-1.3-.8-1.5-.7 0 .5 2 1 2.4 1.2s.7 0 1 .4l.5.7c.2.2.4.2.5.5a11.2 11.2 0 0 1-2.7-1.4c-.3-.1-.8-.5-1.2-.5a2.6 2.6 0 0 0-1.1 1c-.2.5 0 .5.5.5l.3-.1a1.3 1.3 0 0 1 .6.3 16.6 16.6 0 0 1 1.6 2.2 12.6 12.6 0 0 1-1.7-.6c-.1 0-.5-.3-.7-.2.2.8 2.4.7 2.6 1.2s-1 .6-.5 1c.2.3.4.1.6 0 .5-.4.4-.8 1-.9a6.1 6.1 0 0 1 1.6.2 2.1 2.1 0 0 0 .6.1c.2 0 .2-.2.3-.2.5 0 .4 0 .7.3a9.6 9.6 0 0 1 .8 1.3 10.4 10.4 0 0 1-2.4.1c-.5 0-.5-.1-.8-.4s-.4-.5-.9-.3l-.4.3c-.4.2-.2.1-.7.1a5.1 5.1 0 0 1-1.4-.5c-.3-.1-1.8-1.3-2.2-1.1a13 13 0 0 0 1.4 1 12 12 0 0 0 2.4.9c-.3.2-2.9 1.7-2.3 2.2.4.4 1-.5 1.3-.2s.8 1.2 1 1.6a11.2 11.2 0 0 1-2.8-1.1l-.7-.5-.3-.2q-.2 0 0-.3c-.1 0 0-.2-.2-.3h-.4a.6.6 0 0 1 .3-1c.4 0 .7.3 1 .5a5 5 0 0 0 1.2.5 3.2 3.2 0 0 0-.6-.4c.3-.2 1-.5 1.1-.8.2-.5-.3-.3-.6-.4a4.6 4.6 0 0 1-1.6-1.1c-.5-.4-1.1-.9-1.7-1.2l-.5-.3c-.3-.1-.5-.1-.6.1a1.9 1.9 0 0 0 .2 1.2c-.3-.2-3.2-1.6-3.3-1.2 0 .2 2.1.9 2.5 1a3.4 3.4 0 0 1 .7.4c.3.3.4 1.1.7 1.7a3.6 3.6 0 0 1 .4 1c0 .4 0 .4-.2.7-.1.5.3.5.7.3s.4-.3.7-.2a4.6 4.6 0 0 1 1 .5 12 12 0 0 0 1.3.8c.9.3 2.4.4 2.5 1.7.1.7-.2.5-.5.9 0 .1-.2.5 0 .6s.6-.1.8-.3l1.7-1.2a7.2 7.2 0 0 1 1-.9 13.4 13.4 0 0 1 2-.2 9.7 9.7 0 0 0 2-.7 35.1 35.1 0 0 0 4-2.5 12.3 12.3 0 0 1 2-1 7.9 7.9 0 0 0 1.7-.7.6.6 0 0 0-.4 0zm-14.8-4.9l-1.1-.3c.2 0 .5-.5.7-.4s.4.7.3.7zm-1.6 1.1c.1-.1 1.6.8 1.7.9l-1.3-.4c-.1 0-.5-.3-.4-.5zM75 34a7 7 0 0 1-.8-.5c.4-.4 1.1-.3.8.5zm-2-2.1c.2.2.8.4.8.8 0 .2 0 .3-.3.3-.6 0-.8-.6-1-1.1s.4 0 .5 0zm.1 1.4c-.2 0-.2-.5-.2-.5l.5.4a.4.4 0 0 1-.3 0zm9.5-1.9c-.3-.7 1.6-2.2 2-1 .3.6 0 .8-.6 1-.3 0-1.3.4-1.5 0zm.1.3a12.5 12.5 0 0 0 1.8-.3 8.5 8.5 0 0 1-.8.7c-.3.2-.2.3-.5.2l-.5-.6zM78.4 36c-.3 0-.5-.5-.7-.7a4.7 4.7 0 0 1 1.1.2c.2.2 0 .5-.4.5zm1.4 2.3c-.4 0-.6-.5-.7-.8l1.6.2a3.7 3.7 0 0 1-.9.6zm1.4-1.1c-.1.4-1.4.2-1.7.1s-.7 0-.7-.4a.5.5 0 0 1 .7-.4c.2 0 1 1 1 .2 0-.2-.5-.9-.6-1h.5c.6 0 .2 0 .5.3a1.2 1.2 0 0 1 .3 1.2zm-.4-1.7a1.4 1.4 0 0 1-1.1-.3c-.2-.1-.3-.6-.5-.7-.6-.2-.3.6-.3.8-.2 0-1.3-.2-1.4-.4s.6-.6.9-.8.5-.4.8-.3.4.4.6.5c.5.3.9 0 .6-.5a18 18 0 0 0 1.8-.1c.6 0 .7-.2 1 .1A4.3 4.3 0 0 1 84 35c0 .3-.3.3-.6.3a18.7 18.7 0 0 1-1.8.3c-.3-.4-.4 0-.7 0z"/><path class="cls-4" d="M72.7 30.7a2 2 0 0 0 .4.2c.2-.3-3.9-2.5-4-2a5.4 5.4 0 0 0 .9.3l2.2 1.2a3.3 3.3 0 0 1 .4.2zM80.4 39.4c0 .3 3.4 0 3.6-.4a18 18 0 0 1-2.8.4 4.4 4.4 0 0 0-.8 0zM77.6 42c0 .2 2.8.3 2.8 0h-.6a11.8 11.8 0 0 0-2.2 0zM90.4 21.8c0 .2 2.9.6 3 .4s-3-.6-3-.4zM82.2 27.8h-1c0 .2 1 .2 1 0 0 .2.5 0 .5 0s1 0 .9-.2-1.4 0-1.4.2zM94 25.9a11.5 11.5 0 0 0 2.5.3 9.3 9.3 0 0 0 2 .1A12.3 12.3 0 0 0 96 26a8.4 8.4 0 0 0-2 0zM102.9 19.9c0-.3-1-.4-1-.1s1 .2 1 0zM101 23.8c0 .1.5.2.5 0s-.5-.2-.5 0zM100.3 18.4c0-.3-1-.3-1-.1s1 .3 1 0zM101.6 19.2zM101.3 19.2c0-.2-1-.3-1-.1s1 .3 1 .1zM100.4 20.3c0 .1 1 .3 1 0s-1-.3-1 0zM101.7 19.3c.5.1 0-.4 0 0zM105.4 25.6a8.4 8.4 0 0 0-1.8 0 6.7 6.7 0 0 0 2 .3l1.6.2h1l-1-.3a55 55 0 0 0-1.8-.2zM105.2 23.6c0-.1-.4-.2-.4 0s.4.3.4 0zM107.4 23.9c0-.2-.9-.3-.9-.1 0 .2.8.2.9 0zM105.8 23c0-.2-1.6-.3-1.6-.2a2.9 2.9 0 0 0 1.6.2zM103 22.6c0 .3.8.3.8.1s-.3 0-.4 0-.4-.2-.4 0zM102.7 21.8l-.2.1c0 .2 1 .3 1 .1s-.6-.2-.8-.2zM105.1 24.4a27.8 27.8 0 0 0 4.6.5 14.6 14.6 0 0 0-2.9-.5c-.1 0-1.8-.2-1.7 0zM87 6.3a3.3 3.3 0 0 0 1.3-.8s-1.4.7-1.3.8zM86.6 8.5c0 .1 1.5-.8 1.4-1-.3 0-1.6.8-1.4 1zM87.4 4l-1 .7c0 .1 1.1-.5 1-.6zM80.2 7.5A9.2 9.2 0 0 0 84 6.3a8 8 0 0 0 1.2-.8c.1 0 .5-.5.7-.5-.6 0-1 .5-1.4.8a6.4 6.4 0 0 1-1.5.7 9.5 9.5 0 0 1-2 .5c-.2 0-1 0-1.2.2s.3.2.4.2zM86 6.8h.2a.3.3 0 0 0-.1 0z"/><path class="cls-4" d="M87 22.3c-.4.2-1.1.3-1.4.9s.4 1 .8 1.4l4.4 3c-.3 0-2.1 1-2.1 1.3s.8-.3 1-.4c.3-.2 1.3-.5 1.3-.9l1.7 1.2a6.2 6.2 0 0 0-2.3 1s-.6.3-.4.4.6-.3.8-.4a7.9 7.9 0 0 1 1.7-.8h.6l4.8 3.2c-.2 0-2.2-.2-2.2 0l2.6.3c1.6.6 2.7 2 4.2 2.7 1.7.8 3-.7 4.2-1.7l5.3-4.1c1-.7 3.8-2 2.6-3.4s-3.3-2.3-4.8-3.3l-5.6-3.7-2.7-1.8a27.4 27.4 0 0 0-2.5-1.6c-1-.6-1.9-.1-2.8.5L93.4 18zm16.5 12.6c-.3.3-1-.4-1.2-.6a7.6 7.6 0 0 0 1.7.2zm-5.7-18.8a2.5 2.5 0 0 1 1.5.7l-2.1-.3zm-2.5 2.4c.1 0 .6 0 .5-.1l-1-.2a6.4 6.4 0 0 1 1.4-1c.1 0 1 .2 1 0s-.6-.2-.7-.2c1-.6 3-.1 4 .5a9.4 9.4 0 0 0-1.4-.2c-.2 0-.8 0-.5.2s1.2.1 1.5.1c.8 0 1 .3 1.7.7l-.4.1a8.9 8.9 0 0 1 1.8 1l.3.1 1.8 1.2c-.5 0-1.5-.5-2-.2a7.6 7.6 0 0 1 1.4.3 4 4 0 0 1 1.7.6c-.2 0-1.4-.2-1.4 0s1 .3 1.2.3a3.1 3.1 0 0 1 1.5.7l-3.3-.3c.9.5 2.1.3 3.1.4 1.2.1 2 1 2.9 1.6l-1.8-.2c-.3 0-1.1-.1-.5.2a6.8 6.8 0 0 0 2 .2 5.1 5.1 0 0 1 2.4 1.3l-3.9-.4c-.3 0-1.7-.1-.8.3a12.8 12.8 0 0 0 2.5.3l2 .3c.4 0 1.1 0 1.5.3-.3 0-2-.3-1.8 0s1.6.6 2 .7c-.4.2-1.2-.1-1.6-.2l-2.2-.2a11.4 11.4 0 0 0-1.5-.2 3.5 3.5 0 0 0-1.5 0c-.3.1 0 .1.2.2a6.1 6.1 0 0 0 1.5.3l4.3.6c-.4.4-1.6 0-1.9.2s.9.4 1.1.4a1.4 1.4 0 0 1-1.1.2c-.2 0-.9-.2-1 0s1.2.3 1.4.3c-.6.5-1.9 0-2.5 0a6 6 0 0 0-1.4 0c0 .2 1 .4 1 .4a9.4 9.4 0 0 1 2 .2 1.5 1.5 0 0 1-1.2.2s-.8-.1-.8.1 1.1.3 1.3.3c-.5.4-1 .2-1.6.2-.2 0-1-.2-1.1 0s1.7.3 1.8.4c0 0-1 0-1 .2s.5.2.6.2c-1 .6-1.8 0-2.8 0-.5.2-.6.2 0 .4a9.6 9.6 0 0 0 2 .2c-.7.4-1.3.2-2 .1 0 0-1.3-.3-1.3 0s2.3.4 2.6.4c-1 .7-1.8 0-2.8.2-.6 0-.4.2 0 .3a11.6 11.6 0 0 0 2 .1c-.8.6-1.5 1.7-2.5 1.6-.5 0-.9 0-1.3-.2h-.3a4.8 4.8 0 0 1-1-.6s.5.2.5 0-.5-.2-.6-.2a4.1 4.1 0 0 1-1.1-.6c.6.2 1.2-.2.2-.2h-.4a3.6 3.6 0 0 1-.6-.3c-.6-.5-1.3-1-2-1.3l.3-.1c-.4-.3-1-.3-1.4-.6l-1.2-1a26.4 26.4 0 0 0 3 .3c1 .1.3-.1-.3-.2a14.3 14.3 0 0 1-2.8-.4c-.4 0-1.1-.2-1-.3a13.3 13.3 0 0 1-2.3-1.6c.5.1 1.6.5 2 .1l-1.3-.3a5.6 5.6 0 0 1-2-.6h1c0-.2-.6-.3-.8-.3a3.2 3.2 0 0 1-1.3-.5c.3 0 1.7.2 1-.2s-1.6-.2-2.3-.6l5.5.3c0-.4-2.4-.5-2.8-.5l-1.5-.2c-.7-.1-1.9 0-2.4-.4.3 0 2 .2 2-.1s-1.4-.5-1.7-.5c.4-.2 1 0 1.5 0 .7.2 1.4.2 2.2.2.5 0 2.2.6 2.6.2l-1.6-.4-3.8-.6c.2-.1 3 .2 3 0 0-.3-2-.4-2.2-.5.2 0 1.5 0 1.5-.2s-.6-.3-.7-.3c.8-.4 1.9 0 2.8 0a7.5 7.5 0 0 0 1.8 0c-.1-.5-3-.6-3.5-.6.3-.2 2.1 0 2.2-.2s-1.3-.3-1.3-.3a2.2 2.2 0 0 1 1.5-.2c.2 0 .7.2 1 0s-1.3-.5-1.6-.5a3.5 3.5 0 0 1 2.4 0s1.6.4 1.6 0-3-.5-3.2-.5a6.5 6.5 0 0 1 1.2-.8l.8.2z"/><path class="cls-4" d="M97.3 19.3c.2 0 1.3.3 1.5 0a22 22 0 0 0-4.5-.4 9.9 9.9 0 0 0 3 .4zM98.4 18.2a.3.3 0 0 0 .3.1c.8.1-.2-.5-.3-.1zM97.9 18.7zM96 26.7l-1.4-.3a9.9 9.9 0 0 0-3-.4c-.2.1 1.5.4 1.6.4a13 13 0 0 0 2.5.3.8.8 0 0 0 .3 0zM100.1 19.5c0-.2-.7-.3-.8-.1s.8.3.8 0zM98.8 19.4zM98.7 18.8c0-.2-.7-.2-.8 0 .1 0 .8.2.8 0zM98 30.8c0 .6 2 0 2.2.2-.2-.1-2.2-.5-2.2-.2zM101.2 28zM101.1 30.6zM103.4 24.7c0 .2.4.2.5.1.1 0-.5-.3-.5 0zM105.5 28s4.5.7 4.5.4-.7-.1-.8-.1c-.2 0-3.5-.9-3.7-.4zM100.6 27.9c0 .1.5.2.6 0s-.6-.1-.6 0zM100.1 30.5c0 .2.9.2 1 0-.1 0-1-.3-1 0zM95.6 28s2.2.8 2.2.3a4.4 4.4 0 0 0-2.2-.3zM96.5 26.8zM99.4 27.2a.3.3 0 0 0 .3 0c-.2-.5-2.9-.4-3.2-.4a13.3 13.3 0 0 0 3 .5zM99 31.7c0 .2 1 .3 1 .1s-1-.4-1-.1zM99.7 30.4c0-.4-3.2-.4-3.2-.4 0 .4 3.3.5 3.2.4zM102.2 32c0 .3.6.2.7.2h.2c0-.2-.9-.4-.9-.1zM104.7 27c0-.1-.8-.2-.8 0s.8.3.8 0zM103.8 30.2c0 .2.9.3.9 0s-.8-.2-.8 0zM104.5 30.8c-.4 0-1.2-.3-1.6 0 .3-.3 1.6.7 2 .4s-.2-.3-.4-.4zM105.8 29.1a8.3 8.3 0 0 0-1.9 0 6.7 6.7 0 0 0 2 .3l1.6.2h1l-.9-.2-1.8-.3zM103.2 33.6c0 .1.8.3.9 0s-.9-.2-.9 0zM106.7 26.6s-1.3-.5-1.3-.2 1.2.3 1.3.2zM103.1 29h.1c0-.2-.9-.3-.9-.1s.7.1.8.1zM103.5 29.7l-.8-.1c0 .2.8.2.8 0zM104.4 23.5c0-.2-.8-.3-.9 0s.9.2.9 0zM103 31.6a.3.3 0 0 0 .4-.1c0-.4-1.1 0-.3.1zM102.3 26c0 .2.9.2.9.1s-.8-.2-.9-.1zM103 28.4h.2a.3.3 0 0 0 .3-.1c0-.4-1.2 0-.4 0zM35.4 59.8l-1.3.7c0 .2 1.4-.5 1.3-.7zM115.7 102.7c.3 0 2.6-1.3 2.4-1.6s-5 2.5-5 2.8 2.3-1 2.6-1.2zM102.8 109.9l3.5-2c.3-.1 1.3-.5 1.4-.8s-.1-.2-.4-.1c-.6.2-6.5 3.2-6.3 3.6a13.6 13.6 0 0 0 1.8-.8zM96.7 114.6c1-.7 0-.4-.6-.2l-3 1.5c-1.6.8-3.3 1.6-4.8 2.5-.4.2-1.4.6-1.6 1s.2.1.5 0c1.7-.7 3.2-1.6 4.8-2.4a48.9 48.9 0 0 0 4.7-2.4zM98.5 114.6c-.2-.4-7.2 3.5-7.9 3.9-.2.2-1.1.5-1.3.8s1-.1 1.1-.2l3.7-2c.3-.2 4.6-2.2 4.4-2.5zM47.8 103.5c-.1.2 10.8 9.2 11 9 0-.2-10.8-9.2-11-9zM49.8 99.5c-.3-.3-2.9-2.6-3-2.4a21.2 21.2 0 0 0 3 2.6.3.3 0 0 0 0-.3zM44.3 99.7a56.8 56.8 0 0 0 6 5 56.8 56.8 0 0 0-6-5zM59.7 106.7s-10.8-9-11-8.9 10.8 9.2 11 8.9zM92.8 119c.1.3 1.5-.4 1.3-.7s-1.5.4-1.3.6zM65 110.9v.1a36.5 36.5 0 0 0-4.2-3.3c.2.2 8.3 7.1 8.4 7a12 12 0 0 0-2-1.9l-2.3-2zM119.5 102.8q-1.7.8-3.3 1.8c-.4.2-1.3.6-1.5 1s-.2.2.1.2c.7 0 5.7-3 5.6-3.3s-.8.3-1 .3zM129.1 97.6a10.6 10.6 0 0 0 1.7-1c.3-.2 1-.6.4-.6a10.2 10.2 0 0 0-3 1.9c.1.1.8-.2 1-.3zM149.8 80.6a9.2 9.2 0 0 0 2.3-1.9c.2-.2 1.2-1.2.3-1-.6.1-1 1.1-1.5 1.5l-.9.8s-.8 1-.2.6zM128.2 99.5c.3.5 4.3-2.3 4.8-2.6s4.9-3.3 4.6-3.6a.5.5 0 0 0-.3.2c-.8.7-9.2 6-9.1 6zM144.8 84.5zM149.4 80.8c-.4-.1-2.5 1.7-2.3 2 .3.3 2.5-2 2.3-2zM129 94.5c-.2.1-1.4.8-1.2 1s1.3-.5 1.5-.6 1.3-.7 1.2-1-1.4.5-1.5.6zM112 108.4a5.5 5.5 0 0 0-1.2.6c-3.4 1.7-6.7 3.6-10 5.4l-2.3 1.2a12.5 12.5 0 0 0-2.3 1.4c-.5.5-.1.4.3.2l1.7-1c3.2-1.5 6.5-3.2 9.6-5l2.2-1.3a11.2 11.2 0 0 0 2.1-1.2c.4-.3.4-.4-.1-.3zM111.8 107.1c-2.2 1-4.2 2.2-6.2 3.3l-3 2c.4.3 2.3-1 2.8-1.3l3.6-2c1-.5 2-1 3-1.7 0 0 .7-.4.7-.6s-.8.2-1 .3zM51.2 99.1a56.8 56.8 0 0 0-6-5 29.4 29.4 0 0 0 2.9 2.5 32.2 32.2 0 0 0 3.1 2.5zM121.5 100.3a3.5 3.5 0 0 0-1.8 1l-2.2 1.3-5.2 3L102 111c-.2.1-2.8 1.4-2.8 1.8s2.6-1.1 3-1.3l9.8-5.4 5.8-3.2 2.5-1.3a8.3 8.3 0 0 0 1.2-.9c.1 0 .7-.4.1-.5zM14.6 59.5a46.7 46.7 0 0 0 5.7 4s-5.5-4.2-5.7-4zM9.5 59.4c.3.2.6-.2.3-.4s-.8 0-.3.4zM91.2 111.5a7 7 0 0 0 1.5-.7c.3-.2.7-.6.2-.6-.3 0-2.6 1.2-2.5 1.5s.7-.1.8-.2zM10.4 55.7l-1.6-1c-.3-.3-1-1-1.3-1s-.3 0-.2.3a6 6 0 0 0 1.2 1l1.4 1a7.8 7.8 0 0 0 1.1 1c.3.2.7.2.6-.2s-.9-.8-1.2-1zM11.8 66.2c0-.4-.8-.8-1-1l-2-1.4c-.4-.2-.8-.8-1.1-.9-.9-.1.5 1 .7 1.2l2.6 2c.2 0 .8.6.8 0zM8.8 71.8c1 .8 2 1.5 2.8 2.3.3.2.8.8 1 .4s-.6-.8-.8-1l-2.7-2c-.1 0-.7-.5-.9-.3s.5.5.6.6zM9.1 65.8c-.3.3 1.8 1.7 2 1.8.7.4 1 .4.4-.3-.3-.2-2-1.8-2.4-1.5zM22.5 74.9zM22.5 74.9c0-.2-1.6-1.4-1.7-1.3s1.6 1.4 1.7 1.3zM11.9 56.8c-.1 0 1 .9 1.1.8s-1-1-1.1-.9zM13.3 69.2c.1.1 1.1.7 1.2.5.3-.4-4.3-2.8-1.2-.5zM7.5 57.8c.3.3 1 1 1.3.9s-.2-.8-.5-1-.9-.8-1.2-.8.2.8.4 1zM106 103.6c.2-.1 1.1-.6 1-.8s-1.2.4-1.3.4-1.2.6-1 .9 1.1-.4 1.3-.5zM24.4 76.3l3 2.2a19.7 19.7 0 0 0-3.8-2.9 7.3 7.3 0 0 0 .8.7zM113.4 99.3c.5-.2 5.3-3.2 5-3.6s-6.9 4.4-6.8 4.4a13.8 13.8 0 0 0 1.8-.8zM99.3 107.3v.1a29.2 29.2 0 0 0 3-1.6c.2-.2 1.7-1 .6-.8-.5.2-5.2 2.7-5 3s1.2-.6 1.3-.7zM90.5 113.2c.3.4 3.7-1.6 4.1-1.8l2.2-1.2c.2 0 1.6-1.2 1.6-1.2-.3 0-1 .4-1.3.5l-2 1-4.2 2.3s-.5.3-.4.4zM116.5 90.9c.2-.1 1.2-.7 1-1s-1.1.5-1.2.5-1.2.7-1 1 1-.4 1.2-.5zM108.7 95.3c.3 0 1-.5 1.3-.7 1-.5 1.8-1 2.7-1.7.2 0 1.2-.6 1-.9s-4.7 2.6-5 3c0 .2-.3.3 0 .3zM111.8 94.7a68 68 0 0 0 7.6-4.5c.2 0 2.6-1.7 2.3-2s-1.5.8-1.7 1l-2.1 1.2c-.4.4-6.3 3.9-6.1 4.3zM117.5 92.2a9.2 9.2 0 0 0-1.3.8c-.3.2-.9.5-.4.6s2.6-1.3 2.4-1.7l-.7.3zM144.8 84.5c.2.3 1.2-.7 1-.9s-1 .7-1 .9zM101.2 106.8c-.3.2-1 .4-1.2.8-.1.6.8 0 1 0 .6-.5 1.4-.8 2-1.2 1.7-.8 3.3-1.7 4.8-2.7l4.3-2.5c.3-.2 2.6-1.2 2.6-1.7 0-.7-2.3 1-2.6 1.2l-4.2 2.5a54.1 54.1 0 0 1-4.8 2.6zM110.5 56.9l4-2.2c1.3-.8 2.2-1.6 3.4-2.2.4-.2 1-.4 1-.8s-.1-.5-.5-.4a10.8 10.8 0 0 0-2.3 1.5c-2.5 1.7-5.4 2.9-7.9 4.6-.3.2-2 1-.8 1.3.4 0 .7-.4 1.1-.6l2-1.2zM116 56.1c1-.5 1.8-1.2 3-1.7a11.5 11.5 0 0 0 2-1.2c.4-.3.4-.7-.3-.5a8.3 8.3 0 0 0-2 1c-2.5 1.6-5.2 2.9-7.7 4.7a16.2 16.2 0 0 0-1.8 1.4c-.4.4-.7 1.2.1.8a12.8 12.8 0 0 0 2-1.7 49 49 0 0 1 4.6-2.8zM106.5 55.5c-.3.2-2 1.1-1.6 1.7s.7-.2 1-.4a7.5 7.5 0 0 1 1.2-.8zM117.8 57.7l3.5-2.1a10.5 10.5 0 0 0 1.4-.7c.3-.3.5-.8 0-.8a5 5 0 0 0-1.6.8l-1.6 1c-2.4 1.4-4.8 2.7-7 4.3-.3.1-2.6 2-1.4 1.9.3 0 1-.8 1.2-1l1.8-1.3a28.6 28.6 0 0 1 3.7-2.1zM120 59c1.4-1 2.9-1.8 4-3 .4-.2.7-.5 0-.6a2.7 2.7 0 0 0-1.1.6l-7.4 5.4a23 23 0 0 0-2.5 1.8c-.7.6-.1.8.6.4a22 22 0 0 0 2-1.4l4.5-3.1zM104.7 54.2c-.3-.2-2.5 1.4-2.3 1.8.3.6 2.4-1.2 2.7-1.5zM122.9 60l3.4-2c1.1-.6 0-.6-.6-.3a50.1 50.1 0 0 0-7.2 4.3l-3.3 2.3c-.1.1-1 .6-.7 1s.9-.3 1-.4c1.3-.7 2.3-1.6 3.5-2.4l3.9-2.5zM117.4 44.3c2.4-2 5.3-3.4 7.7-5.3l1.7-1 1.7-1.5c.5-.5 1.4-1 1.5-1.6.1-1-.7-.1-1 .2-2.3 2.3-5 4-7.8 5.7-1.2 1-2.5 1.8-3.7 2.6-.3.2-1.2.7-1.1 1.2.2.8.8-.1 1-.3zM119.4 39.8a46.5 46.5 0 0 0 4.5-3.3l1.6-1.3a15.3 15.3 0 0 0 1.4-.9c.3-.1.8-.6.4-.9s-1.3.6-1.5.7l-4.2 3-4.2 3.3-2.2 1.7c-.2.2-1 .5-1 .8 0 1 1.4-.2 1.7-.4a31 31 0 0 1 3.6-2.7zM101.2 53.5c-.2.2-1.3 1.3-.3 1.2.3 0 .5-.4.6-.6a7.3 7.3 0 0 1 1.3-.9 1.8 1.8 0 0 0-1.6.3zM133.7 67l1.6-1c.3-.2 1-.3 1-.7 0-1-1.4.2-1.7.4a67 67 0 0 0-7.3 4.6l-1.5 1.2c-.3.1-1 .3-1 .5a.4.4 0 0 0 .4.7c.4-.1.8-.7 1.2-1 2.5-1.4 4.7-3.4 7.3-4.7zM135.4 68.2c-1.1.8-2.5 1.4-3.6 2.2l-3.1 2c-.3.4-2.1 1.4-1.6 2s2-1.3 2.3-1.6a44.2 44.2 0 0 1 6.2-3.8c.3-.2 1.6-.8 1.4-1.4s-1.3.4-1.6.6zM147 57c1.3-1.2 2.8-2.2 4-3.5.3-.2.6-.6.1-.7s-1.2.8-1.5 1c-2.5 2.5-5.4 4.6-8 6.9a9.3 9.3 0 0 0-2 1.8c-.7 1 .4.4.8 0l2.1-1.8A44.9 44.9 0 0 0 147 57zM145 56.8a38.8 38.8 0 0 0 4-3.3c.2-.2 2-2 1-2.2-.4-.2-.6.7-1 1a13.3 13.3 0 0 1-1.6 1.6 49 49 0 0 1-4.2 3.1c-.6.5-6.6 4-5.9 4.7.5.4 1-.4 1.2-.6a12.4 12.4 0 0 1 2-1.4q2.3-1.4 4.5-3zM151.4 56.5a23.8 23.8 0 0 1-3.8 3l-4.5 3a11.2 11.2 0 0 0-1.5 1c-.4.5-.5 1.3.3 1l.3-.3.7-.5 1.9-1.4a71.3 71.3 0 0 0 6.9-5c.3-.3 1.7-1.3 1.4-1.9-.3-.8-1.5.9-1.7 1z"/><path class="cls-4" d="M157.3 58.7c0-.5.5-1 .7-1.4 2.1-4.3-2-8.9-4.5-12a41.7 41.7 0 0 0-10.6-8.7 82.6 82.6 0 0 0-10.9-5l-5.1-2c-2-1-3.4-2.6-5-4a51 51 0 0 0-4.2-4c-1.8-1.4-3.7-2.6-5.6-3.9l-3.5-2.6q-6.2-4.8-12.2-9.8a41 41 0 0 1-3.2-2.7C91.7 1 90.2-.2 88 0c-2 .2-3.6 1.4-5.2 2.5-3.3 2.2-7 3.8-10.3 5.8L67 11.4c-3.9 2.4-8 4.6-11.6 7.2a61.8 61.8 0 0 0-7.4 7 20 20 0 0 1-3.8 2.6c-2 1.3-4 2.5-6.2 3.6a165.3 165.3 0 0 1-22.5 10.3c-2 .7-4.2 1.3-6.3 1.8S4.3 45.2 3 47a1.9 1.9 0 0 0 .2 2.5c-1.1 0-2.5 1-2.2 2.2.4 1.1 1.7 1.6 2.6 2.2-.5.3-1.1.8-1 1.3s.6.8 1 1.1a1.2 1.2 0 0 0-.5 1.2c0 .3.5.8.4 1l-1.3 1A14.7 14.7 0 0 0 .6 61c-.8.8-.5 1.3.3 2-1.8 1.3 1.3 3.6 2.4 4.3a3.8 3.8 0 0 0-1.7 1.3c-.4.7.3 1.2.9 1.6C.4 72 5 74.7 6.4 75.6l8.3 5.7c2.8 2 5.5 4.1 8.2 6.3l26.3 22c6.5 5.5 13.1 10.8 19.3 16.6a12.2 12.2 0 0 0 6.1 3.4 12.3 12.3 0 0 0 7.2-1.2c2.2-1 4.2-2.2 6.3-3.4l7.6-4.2 14.5-8.1c4.7-2.7 9.5-5.7 14.2-8.3s9.2-5.4 13.7-8.4 8.2-7 12.2-10.4c1.8-1.6 4-2.9 5.5-5s1.3-4 .1-6.1c-.3-.5-.3-.5.1-1a5.6 5.6 0 0 0 .7-1.3c.6-1.4.2-2.3 0-3.6 0-.4-.1-.2.2-.6a10 10 0 0 0 .6-1 7.6 7.6 0 0 0 .8-3.6 13.8 13.8 0 0 0-.4-3.5c-.1-.5-.5-.8-.6-1.2zM68 12.6c.5 0 4.1 2.6 4.2 2.5.2-.3-3.7-2.5-4.2-2.7a7 7 0 0 1 1.6-.9c.3 0 .8.5 1 .6a15.3 15.3 0 0 0 2.6 1.6 28.7 28.7 0 0 0-3.4-2.3c.6-.3 1-.9 1.7-.6a9.4 9.4 0 0 1 1 .7c.1 0 1.8 1 1.9.9s-2.7-1.7-3-2c.4-.2 1-.7 1.4-.7a3.4 3.4 0 0 1 1 .5c.1.1 1.7.9 1.8.6l-2.7-1.3c.5-.2 1.1-.8 1.7-.8a3 3 0 0 1 .9.2c.1.1 2 .6 2 .3a24.3 24.3 0 0 0-2.9-.7c2-1.3 4.1-2.3 6.2-3.5l2.8-1.6a13.4 13.4 0 0 1 3.9-2C90 .8 91.3 2.4 93 4l2.5 2 20 15.8a74.4 74.4 0 0 1 7.3 6.2 13.5 13.5 0 0 0-2.4 1.8 45 45 0 0 1-2.9 2l-2.3 1.5-5 3.3L98.3 44a25.5 25.5 0 0 1-3 1.6c-2.1 1-4 2.4-6.2 3.4 1-1.1 1.8-2.4 3.2-3.4s3-1.6 4.5-2.5a53 53 0 0 0 4.8-3.1c.2-.1 1.3-.7 1-1.1s-1.8.8-2.1 1c-2.5 2-5.5 3.2-8.1 5a6.3 6.3 0 0 0 .5-1.3c.1-.4 0-.9.3-1.2.3-.5 1.3-.7 1.8-1l5.2-3.5c.4-.3 1-.9.1-.8s-1.6 1-2.2 1.5a44.5 44.5 0 0 1-5 3 6.2 6.2 0 0 0-.4-2.2c-.3-.7-1-1.4-1.2-2s.5-.7 1-.8c.3 0 1-.5 1.2-.5a2.6 2.6 0 0 0-1.4.4c1.2-.9 2.5-1.6 3.8-2.4L96 34c.2-.2.5-.4.2-.6s-.8.2-1 .3a11.2 11.2 0 0 1-3 .9c-1.2.3-2 1-3.2 1a3.2 3.2 0 0 0-2.6 1c-1.5 1.5-1.9 3.9-2 5.9a31 31 0 0 0 0 6.8 7.4 7.4 0 0 0-1.9-1.7c.5-.2.5-.4.5-.9-.4.2-.7.6-1.1.5a3.6 3.6 0 0 1-1-.7l-2.6-2c1.2-.5 2.1-1.4 3.3-2A4.8 4.8 0 0 0 83 42c.3-.3.2-.9.3-1.3a4.1 4.1 0 0 1-1.6.6l-1.2.1h1.1L79 43c-.4.3-1.2.9-1.7.8s-1.3-.8-1.7-1.1a1.3 1.3 0 0 1-.4-.5s.3 0 .2-.2-.3-.2-.4-.3-.4 0-.6-.2a2.1 2.1 0 0 1-.8-.9c-.4-1.2.9-.3 1.3 0 0 0 .4 0 .5.2.3.3 0 .2.1.5s-.2.3.2.6a4.8 4.8 0 0 0 1.7.2c0-.2-1.1-.3-1.3-.3.3-.2 1.3-.6 1.3-.8s-.2-.5-.5-.6-.4.2-.7.2a1.7 1.7 0 0 1-.5-.3 8 8 0 0 1-1.4-1c-.6-.6-.4-1.1-.2-1.9a8.3 8.3 0 0 0 2 1.2c.4 0 1.2 0 1.4.3-.3-.4-1-.4-1.4-.6a12.3 12.3 0 0 1-1.9-1c.2-.2.6-.3.6-.7a.4.4 0 0 0-.6-.3c-.6 0-.3.6-1 .3a14.5 14.5 0 0 1-1.6-1c-.3-.2-1-1-1-.2 0 .3.4.5.3.8s-.4.6-.6.8c-.7.4-1 .4-1.5-.2-.2-.3-.5-.8 0-1 .4 0 .8.6 1.2.5.5-.2-.8-1.7-1.2-2-1-.5.1 1.8-1.2 1-.8-.4-.7-.8 0-1.2.4-.3 1-.6 1.4-.4.2.1 1 1.1 1 .2 0-.3-1-1-1.3-1-.7-.2-1.4.9-2 1.1a6.8 6.8 0 0 1-2.3 0c-1 0-1.6-.5-2.4-1 1.7-1 4-.8 6-.5l3 .9c.2-.3-2.9-1-3.1-1a8.3 8.3 0 0 0-5 0l6.5-4.3a14.6 14.6 0 0 1 2.4-1.5c.5-.2.8.1 1.2.4 0 0 1 1 1.2.8s-1.8-1.4-2-1.5c.5-.3.9-.8 1.5-.7l1 .6-1-.8c.5-.3 1-.8 1.5-.8l.7.3c.2 0 1.5.8 1.6.6a17.8 17.8 0 0 0-2.3-1c.6-.4 1-1 1.9-1s1.6.5 2.4.6a12.6 12.6 0 0 0 2.4 0l1-.3c-.7-.2-1.9.2-2.7.1a11.7 11.7 0 0 1-3.2-.6q7.6-5.1 15.7-9.5c.2-.2 1.3-.8.5-.7l-3 1.2a5.3 5.3 0 0 0 1.1-.2L84 18.4l-3 1.8a3.6 3.6 0 0 1-1.4.6c-.8 0-.5.1.1.2l-2.4 1.5c-1 .5-1 .3-2 0l1.6-1.3a1 1 0 0 1 .5-.3h.6a1.1 1.1 0 0 0-.6-.2c.3-.6-.2-1.3-.6-1.8a11.9 11.9 0 0 0 7-.8 27.3 27.3 0 0 0 2.6-1.5 7.4 7.4 0 0 0 2-1.4l-1.4.7a26.6 26.6 0 0 1-2.6 1.7 11.9 11.9 0 0 1-6 1.3 11.3 11.3 0 0 1-3-.5c-.3-.1-2-.5-2-1s.3-.4.6-.4.6.6.9.6c.8.2 0-.8-.2-1.1a12.7 12.7 0 0 0 5.6.6 10.9 10.9 0 0 0 2.7-.6 1.7 1.7 0 0 1 1-.2c.3 0 .5.6.8.6.6 0 1.7-1 2.1-1.4a12.1 12.1 0 0 1 2.3-1.5c.5-.2 3.6-1 2.7-2a6.5 6.5 0 0 0 1.5-.2c0-.2-1.2 0-1.4 0-.7-.1-1.1-.9-1.6-1.4l1-.3-1.1.2c-.5-.2-.9-1-1.2-1.3l1.2-.5-1.3.3c-.5 0-.6-.6-1.3-.5s-1.3 1-1.9 1.3a15.4 15.4 0 0 1-1.5 1l-1.7 1a9.9 9.9 0 0 0-1.7 1c-.2.2 0 .2-.4.4a2.5 2.5 0 0 1-1 .2 13 13 0 0 1-2.5-.3 17.3 17.3 0 0 1 2.4-1.4A22 22 0 0 1 82 11a12.5 12.5 0 0 0 2.3-1c.4-.2 1.2-.4 1.4-1a9.2 9.2 0 0 1-1.9 1 10.4 10.4 0 0 1-3.7 1l5-2.4a16 16 0 0 0 1.9-1c.2-.2.5-.5.1-.5s-1 .4-1.3.6L81 10.2a9.5 9.5 0 0 1-1.9 1 3.7 3.7 0 0 1-1.4 0c-.3 0-1-.3-1.3-.2l.9.3a7.4 7.4 0 0 0 1.5 0c-2.7 1.6-5.4 3.1-8 4.8 0-.2-1.6-1-1.8-1.2a9.2 9.2 0 0 0-3.3-1.1c.5-.4 1.6-1.3 2.2-1.2zm.9 88L44.6 79a9.1 9.1 0 0 1 1.5-1.7l.7-.6.8.7 3.5 3a45.6 45.6 0 0 0 7.5 5.3l-5-4.4-.5-.4-.9-.8a12.4 12.4 0 0 1-1.8-2.6 22.8 22.8 0 0 0-2.1-2.3l.4-.3a.3.3 0 0 0 .3 0c.1 0 .3-.4 0-.5l.3-.2a25.4 25.4 0 0 0 1.8 2.3l.8 1c0 .2.2.7.4.7.4.1 1-1.7 1.4-2.3a2.1 2.1 0 0 1 .5-.5l.1.4a10.7 10.7 0 0 0 2.9 3.2c.6.5 1.1 1 1.9.7a5.3 5.3 0 0 0 1.7-.8c.5-.3 1.5-.8 1-1.3s-1.4-.1-1.9 0c-.7.4-1 .4-1.6-.2a4.2 4.2 0 0 1-.7-2 5.2 5.2 0 0 0 1.2 1.3c.5.5.9.6 1.5.3a13.5 13.5 0 0 0 3-2 4.3 4.3 0 0 0-2 0q-.4.2-.4-.2c-.2-.3-.3-.6-.6-.8l-.8-.8a2.3 2.3 0 0 1 .2-3.5l-2.3-1.4 4.7-3.4c0 .3.2.8.6 1s.9-.4 1.1-.7a8.2 8.2 0 0 1 1.8 4.4 14.7 14.7 0 0 1 .2 2.5c0 .6-.2 1.6.7 1 1.5-.9 1.6-3 1-4.5S65.7 65.7 66 64c1.5.8 1.9 2.6 3.1 3.6.9.7 2.8 1.3 3.5 0-1.7-.8-3.5-1.8-4.2-3.6a3.5 3.5 0 0 1 1.6-4.5 8.3 8.3 0 0 1 2.3-1c1-.2 1.5.4 2.2 1 .2 0 1.2.7 1.2 1s-.7.3-.8.3-1.4.7-1.3.8 3-1.1 3-.8l-2 1a11.8 11.8 0 0 1 2.7-.4c-.2.3-1.4.3-1.4.7a16.2 16.2 0 0 1 2.2 0c-.1.2-1.5.5-1.7.7a2.5 2.5 0 0 1 1.1-.2l1.5.2c-.2.2-2.1.3-2 .6.4.2 2.7-.5 3 0a27 27 0 0 0-3.4.8c-.4.2-.1.2.1.2a11.3 11.3 0 0 0 1.8-.1 19.3 19.3 0 0 1 2 0l.8.2c-.3.2-1.2 0-1.6 0a5.1 5.1 0 0 0-2.4.3l4.5.3-2.5.3a12.8 12.8 0 0 0-2.6 1 12.5 12.5 0 0 0-4.2 3.5l3.7-2.7a8.1 8.1 0 0 1 7.2-1.1l-2.8-.1 3.1 1a9.6 9.6 0 0 0-10 3.7c.4 0 1-.8 1.3-1a25.4 25.4 0 0 1 2.5-1.6 6.6 6.6 0 0 1 6.5-.2 6.5 6.5 0 0 0-6.5.7 6.7 6.7 0 0 1 6-.3 6 6 0 0 0-4.6.3 7 7 0 0 1 3.8.2c-5.5-1.4-9.8 3.5-13 7.3 3.2-3.4 7.2-7.4 12.2-6.9a11.8 11.8 0 0 0-3.4.7l2.6-.2a15 15 0 0 0-10 6.8c-4 3.1-8.3 6-12.6 9 2 0 3.6-1.2 5-2.2l5.2-3.7 10.3-7 5-3.6c.6-.4 1.5-1 1.4-1.7s-1-1.4-1.7-1.8l-10.2-7.6a33.5 33.5 0 0 1 6.3-3.2 6.2 6.2 0 0 0-3 2.5l8.2-4.7a51.5 51.5 0 0 0 1.6 7.2 27.7 27.7 0 0 0 1.1 3.5 30 30 0 0 0 1.6 2.7 16.8 16.8 0 0 0 1.4 2.4c.8 1 1.8-.1 2.6-.7l3-2a28.7 28.7 0 0 1 2.5-1.4c-.2-.2-.7 0-.9.1a24 24 0 0 0-4 1.8c-.5.3-1.5 1.2-2 1-.4-.2-1-1-.8-1.3s1.4-.8 1.8-1a18 18 0 0 0 2.7-1.8s1-.5.7-.7-1.3.7-1.5.8L92 64.5c-.6.4-2 1.4-2.2.1-.2-.9 1-1.5 1.7-1.9l2.9-2A10.9 10.9 0 0 0 91 62l-1.5 1.1c-.3.2-.2.3-.5.1a.7.7 0 0 1-.3-.5c-.7-2.1 2.9-2.3 3.8-3.5a6.2 6.2 0 0 0-4.2 1.9 2.7 2.7 0 0 1-.3-1c-.1-.7 0-.7.5-1l2.1-1.3a3 3 0 0 0-3 1c0-.3-.5-1.5-.4-1.8s1.2-.5 1.5-.7a1 1 0 0 0-1.6.1l-.6-3.4q10.9 8.6 21.3 17.8l10.1 9.3 2.5 2.4c.6.6 1.9 1.4 2 2.4s-1.3 1.3-2 1.6l-3.5 2-25.2 13.8-6.5 3.5c-1.8 1-4 2.8-6.3 2.7-2-.1-3.5-1.8-5-3zm5.3 6.5a.4.4 0 0 1-.5.5c-4.6-2.2-8.6-5.7-12.6-8.9-1.7-1.3-3.2-2.8-4.7-4.3L45 83.5l-1.4-1.3c-.2-.2-.6-.4-.6-.6-.3-.6.5-1.6 1.2-1.2a9.6 9.6 0 0 1 1.2 1.1l2.5 2.1 9.5 8.6 7.6 7 4 3.5 3 2.7 1.7 1.3.4.4zM47.9 75.7c0-.3 1.2.7 1.3 1a7.6 7.6 0 0 0-1.4-1zM59 79.3l-.6-.2c.7-.3 1-1 1.7-1.3-.3.4-1.3 1-1.1 1.5zm1-2.8a2.4 2.4 0 0 0 .2-.3c0 .3 0 .3-.2.3zm.5-.6c.1-.2.3-.7.6-.7 0 .2-.5.6-.6.7zm5.8-5.9c.3 0 1-.7 1.1-.5s-.9 1-1 .5zm2.4-3.2c.3 0 .7-.3.8-.6.5.3-.5 1-.8.6zm1.5.2l.6.2c-.2.1-.4-.1-.6-.2zm8.7 4.4l-5.7 4a8 8 0 0 0 1.7-1.7l-3.8 2.8a18.8 18.8 0 0 1 8.8-6 12.2 12.2 0 0 0-4.7 3 14.9 14.9 0 0 1 3.7-2zm.6-18.7c-1.2.2-2.5 0-3.8.2a29.4 29.4 0 0 1-3.5.3c-1.3-.1-3.2-.9-2.8-2.5a4.2 4.2 0 0 1 2.6-2.6c1.6-.5 3 .3 4.4 1a24.8 24.8 0 0 0 4.8 2c.6.2 1.6.4.6 1a5.7 5.7 0 0 1-2.3.6zm6.5-3c-.1-.5-.3-.5.2-.8a5 5 0 0 0 1-1 4.2 4.2 0 0 0-1.5.6 22.4 22.4 0 0 1 .2-6c0-.7 0-1.9.6-2.3a5.3 5.3 0 0 1 1-.5L89 39c-.8-1-1.1-.6-2.1 0 .6-1.4 1.2-2.2 2.6-1.2a5.7 5.7 0 0 1 2.4 4 5.5 5.5 0 0 1-2 4.2l-2 2.1a13.5 13.5 0 0 1-1.9 1.7zM90 36a11.1 11.1 0 0 1 4.8-1.6 20.2 20.2 0 0 1-3.1 2l-.7.4-.2-.2c-.3-.1-.5-.5-.8-.6zm-16.8 2.6a3.5 3.5 0 0 1-.7-.4c-.1-.3 0-.4-.3-.5l-.4.2c-.3.1-1 .4-1.2.7-.2.6.4.5.8.5.6.2.6.7 1 1.2a11.8 11.8 0 0 1-3-2c.4-.3.8-.8 1.2-.8.1 0 .8.2.8 0s-.3-.2-.4-.2c.7-.5 1-.7.4-1.5l2 1.2c-.2.1-.5.2-.5.4-.2.4.1.3.2.4l.3.3c0 .3-.2.4-.2.5zm0 1c0 .8-1-.3-1-.7s.1-.6.5-.3c.5.2.4.5.5 1zm-8-4.3a.4.4 0 0 0 0 .2 5.6 5.6 0 0 1-1.3-1 16.1 16.1 0 0 1 2.2 0c-.3.1-1 .3-1 .8zm.8-.1c.7-.3 1 .5 1.4 1a5.6 5.6 0 0 1-2-.6l.5-.4zm.7 1.1a2 2 0 0 1 1.7 1l-2-1zm-5-4.9c-1 .7-1.5.8-2.6.2l-3.8-2.6a17.5 17.5 0 0 0 2.4-1.4l1.7 3.1.6 1c.5.2 1.6-.7 2-1 .7-.3 1.2-.5.7-1.2a9.7 9.7 0 0 1-.6-1l-1.3-2.8c.5-.2.7-.4 1.1 0a3 3 0 0 1 .4.5 13.6 13.6 0 0 1 1.4 2.2l.1.4c0 .2-.2 0-.2.1 0 .4 0 .6.4.6s2.1-1.2 1.6-1.5H65l-.3-.3a2.6 2.6 0 0 1-.6-1c0-.6.4-.6.8-.5.6.1.8.8 1.3 1.1s2.1.3 1.6-.5c-.1-.1-.7-.2-.9-.4l-.6-.6c-.3-.1-1.3-.2-1.4-.4a2 2 0 0 1 1-.8h-.4l-.1-1a1.3 1.3 0 0 0-1-.8c.8 0 1.2-.2 1.7.5s.8 1.5 1.2 2.3c.2.4.5 1.2 1 1.2.3 0 .7-.4 1-.6s1-.4 1.2-.8a1 1 0 0 0-.4-1c-.4-.1-.8.4-1.1.5s-.9-.3-.7-.6.9-.3 1-.6.1-.5-.1-.8c-.4-.5-.4-.2-.9-.1-.2 0-.9.2-1 0s0-.4.4-.6.8-.3.7-.8a.8.8 0 0 0-.7-.7 18.4 18.4 0 0 0-2.6 0l2.2-1.3c.7-.3 1.2.1 1.8-.1-.3 0-.8-.4-1.1-.4l4.4-2.9a18.7 18.7 0 0 1 1.7-1.1c.7-.4 1 0 1.6.1a12.4 12.4 0 0 0 4.1.4 10.5 10.5 0 0 0 1.3-.1 4.3 4.3 0 0 1 1.1-.2c.6 0 1 .7 1.4 1a12.6 12.6 0 0 1-5.4 1 9.1 9.1 0 0 1-2.4-.4 5.8 5.8 0 0 0-2-.6l.3.3c-.1 0-1.6 1-1.7.9.2.5-.3 1-.1 1.6a1.8 1.8 0 0 0 1.4 1.3c.7 0 1.4-.3 2-.1s1.1.9.5 1.4-2.1-1.2-2.2-.2c0 .2.6.8.7 1a3.6 3.6 0 0 0 1.4 1c-2.8 1.7-5.4 3.6-8.2 5.4l-4.5 2.9c-.3.1-1.9 1.3-2.3 1 .5-.3 2.7-1 2.5-1.7-.2-.8-1.4.2-1.8.5zm3.7-8.8a9.9 9.9 0 0 0-4.9 1l3.4-2.2c1.1-.8 2-.5 3.2-.5-.7.4-2.2.8-1.7 1.7zm-1.4 2c-.5 0-1.8.5-1.7-.5s1.8-.1 2 .5zm.3.2c0 .3-.2.9-.6 1s-.6-.5-.8-.8a11.9 11.9 0 0 1 1.4-.3zm-3.1-1.2a9.2 9.2 0 0 1 2-.6 11.7 11.7 0 0 0-1.4.7 3.6 3.6 0 0 0-1 .5c-.7.7.4.6.8 1-.2 0-.5.4-.8.3s-.2-.2-.4-.4c-.4-.3-.3-.3-.8 0a7 7 0 0 0-2.2 1.2c-.4.5 0 .5 0 1s-.2.5-.6.7a6.7 6.7 0 0 1-1.3.7c-.7.2-1-.2-1.7-.6a76.2 76.2 0 0 1 7.4-4.5zm-.4 6.3c.1.3.2.2 0 .5a1.6 1.6 0 0 1-.6.3c-.5 0-.7-.8-1-1.2-.2-.5-1.4-1.7-1-2.3.2-.3 1-.6 1.3-.8.7-.4 1-.5 1.3.2a1.4 1.4 0 0 1 0 1.8c0 .1-.4.4-.4.6-.1.2.3.5.4.9zm-3-2.7c-.3-.6-.3-.8.4-1.2a1.8 1.8 0 0 1 1.8-.2 17.3 17.3 0 0 0-2.1 1.4zm9.2-4.4l.8.1c-.4.3-.5.4-.8-.1zm1.3 2.2h.2c0 .1-.1.1-.2 0zm6.2-10.6a8.1 8.1 0 0 1 1.8-1.1 6.2 6.2 0 0 1 2 0 10 10 0 0 1 2.2 0c.6.2 1 1 1.5 1.4a13 13 0 0 1-3.8.4 27.6 27.6 0 0 1-3.7-.7zM73 17.7a9.8 9.8 0 0 0 1.9.8h-.1c-.7.2-1.8.3-1.8-.8zm-22.8 7.1a81.7 81.7 0 0 1 8.5-6.9 16.5 16.5 0 0 1 3-2 4.4 4.4 0 0 1 1.8-.1 15.4 15.4 0 0 1 2.2.1 8.7 8.7 0 0 1 1.9.5 4.6 4.6 0 0 0 1.5.6l-.8-.5a8.7 8.7 0 0 0-1.8-.6 13 13 0 0 0-4.2-.3c1.4-.8 2.8-2 4.4-1.3.4.1 4 1.4 4 1.8l-3.4 2.2c-1 .7-2.3.3-3.4.4a11.2 11.2 0 0 0-3.7 1.1c-.6.3-1.9.6-2 1.3 0-.2 1-.5 1-.6l1.8-.9a12.6 12.6 0 0 1 5.5-.8 26.8 26.8 0 0 1-2.7 1.7c-.9.4-1.9.4-2.8.8a18.1 18.1 0 0 0-2.6 1.5 18.2 18.2 0 0 1-1.9 1.3c.6.2 2-1.2 2.5-1.5a12.6 12.6 0 0 1 4-1.6l-8.6 5.8a2.2 2.2 0 0 1-2.7.3L49.3 26a13 13 0 0 0 1-1.1zm-46.5 23c.6-1.3 2-1 3-.4a15.8 15.8 0 0 1 2 1 4.6 4.6 0 0 0 1.2 1c.3 0 .4 0 .2-.3s-1-.7-1.4-.9a16 16 0 0 0-3.4-1.5c.8-.3 1.8-1 2.7-.7a7.1 7.1 0 0 1 1.3.9 13.2 13.2 0 0 0 2.3 1.4c.2-.2-3.3-2.3-3.7-2.5.6-.3 1.4-.7 2.1-.4l1 .7c.2.2 2.3 1.5 2.4 1.2L10 45a3.4 3.4 0 0 1 2.6-.1 8.2 8.2 0 0 0 1.1.4c.2.1 2.5.8 2.5.5L12 44.5A10.9 10.9 0 0 1 16 44c.2 0 2.5.3 2.5 0l-3.3-.3c3-.8 6-2.4 8.8-3.7l3.6-1.7a10.5 10.5 0 0 1 4-1.4 12.1 12.1 0 0 1 2 0 4.6 4.6 0 0 0 1.8.1c-.1.1-.5-.2-.6-.2a5.5 5.5 0 0 0-1.3 0 18 18 0 0 0-3 .2L42 31l4.4-2.5a24 24 0 0 0 1.7-1.2c.4-.2.2-.3.7 0l1.4.6a38.3 38.3 0 0 1 4.4 2.4l8.6 5.6a97.2 97.2 0 0 1 8.6 5.7l4.4 3.4c2.3 1.7 4.5 3.7 6.9 5.2a16.2 16.2 0 0 1-4.4-1.6 13.6 13.6 0 0 0-4.4-1.8l1.4-.8c-.8-.6-1.2-.4-2 .2s-1.2.2-2 .4a4.5 4.5 0 0 0-4 3.8c-.3 2 1.1 3.3 3 3.8 2.2.7 4.5-.1 6.8-.1A158.3 158.3 0 0 0 57 66.7l-6 4.8a70.1 70.1 0 0 0-7 6.2c-.5.6-.9.2-1.5-.3l-1.6-1.6-3.3-2.5-5-3.5-12.9-9.2-4.6-3.4a729 729 0 0 1-6.5-4.9l-3-2.4c-.5-.4-2-1.3-1.7-2.1zm-2 13.3s2.6 1.8 2.7 2L7 64.6c.2.2 1.7 1.4 1.8.9s-2.2-2-2.5-2.3l-3.4-3c.4-.3 4.1 3.3 4.4 2.4.1-.4-1-1-1.2-1.2L4.3 60c-.6-.5-.5-.7.1-.3L7 61.3q3.7 2.3 7.3 5l21.9 17.2 3.5 2.8c.8.7 1.9 1.2 2 2.3v4a172.2 172.2 0 0 0-12.2-10.3A136.7 136.7 0 0 0 16.7 73a107.9 107.9 0 0 1-11.3-8.2c-.3-.2-4.1-3.3-3.5-3.7zm4.4-4.8c-.5-.5-1.2-.8-1.6-1.3-.7-1 1.3.6 1.4.7l6.2 4.6 9.1 6.5L34 76l4.8 3.9 2 1.4c.7.6.5 1 .5 1.9-3-2.5-6-5.1-9.1-7.4l-8.2-6C18.5 65.8 12.7 62 7.2 58l-2-1.6a5.4 5.4 0 0 1-1.3-1l-.2-.3c0-.6.6.4.6.4a5 5 0 0 0 2 1.3c.6 0 .4-.2-.1-.6zm35.1 29.4c-10.5-8.9-21.9-16.9-33-25-.8-.7-4.1-2.6-4.1-3.8C5.7 58.2 7.4 59 9 60.3l2.5 1.9 8.2 5.5q7.7 5.4 15 11.2l4 3.2 1 .7A8 8 0 0 1 41 84a2.7 2.7 0 0 1 .3 1.8zM7.6 70.1c3 2.1 5.9 4.1 8.7 6.3l6.2 4.9c4.4 3.5 9 7 13.2 10.6l3.8 3.3 1.3 1 .9.8a3.2 3.2 0 0 1 0 1.3c-2.4-1.6-4.5-3.8-6.8-5.6l-7.6-5.9-15.9-12.4L8 71.6l-2.4-2c-.2-.2-.8-.5-.3-.8.6-.4 2 1 2.3 1.3zM5.8 67c0-.4.8 0 1 .2l1.3 1h-.7a5.3 5.3 0 0 1-1-.7s-.7-.3-.7-.5zm2.9 1.7c6 4.3 12.3 8.1 18.2 12.6q4.4 3.3 8.7 6.9l4 3.6 1.6 1.4c.6.6.3.9.3 1.6a420.7 420.7 0 0 0-30.2-23.6L9 69.5a3 3 0 0 1-.5-.4c-.3-.3-.2-.8.2-.4zm17.7 19.8C22 85 17.2 82 12.7 78.7c-2.2-1.7-4.3-3.6-6.6-5-.4-.3-3.4-2-3.1-2.7.1-.2 1.5.8 1.7 1 8.6 6 17.4 11.7 25.5 18.3l8 6.6L41 99a2.4 2.4 0 0 1 1 2c-5-4.4-10.3-8.5-15.5-12.5zM37.7 77c-.2.3 4.4 2.9 4.1 3.5-6-4.8-12.3-9.2-18.6-13.7-4.4-3.3-8.7-6.7-13.2-9.9a138 138 0 0 1-7.5-6.3 29 29 0 0 1 2.8 2c.2 0 1.7 1.1 1.8.6 0-.3-.9-.8-1.2-1l-.8-1c-.4-.4-1-.6-1.3-1 .8-.2 1.8 1.3 2.4 1.7a43.4 43.4 0 0 0 4 3.2l8.3 6.2 10.2 7 8.5 6.1 3.8 3c.3.1 1.8 1.1 1.8 1.5 0 .2-.5-.2-.6-.2l-2-1.6c-.4-.3-3.4-2.9-3.8-2.6l6.1 4.7a8.6 8.6 0 0 0-.5.8c-.4-.3-4-3.3-4.3-3zm5 5.8a50.7 50.7 0 0 1 5.4 5l5.6 5.3 3.4 3.5 3.7 3.2c1.2 1.1 2.4 2.3 3.8 3.3 1.9 1.4 4 2.7 6 4a15.5 15.5 0 0 0 6.6 2.7 7.8 7.8 0 0 0 3.4-.4 27.2 27.2 0 0 0 3.3-1.7L91 104l13-7.2 9.3-5.1 4.5-2.5c1.6-1 3.4-1.7 5.1-2.6a5.8 5.8 0 0 1 .2.6s-.3.2-.2.3c.4.1.2 0 .4.3a.8.8 0 0 1 0 .7s-.8.4-.8.6.7-.3.8-.3a3.9 3.9 0 0 1 .1 1.2c-.1.4-.2.3-.6.4a13 13 0 0 0-2.8 1.7l-1.7 1c-2 1.3-4.2 2.5-6.3 3.6l-19 10.6-6.2 3.5-2.9 1.8c-2.5 1.6-5.3 2.6-8.3 2s-5.1-3.2-7.4-5.2l-2-1.8-8.3-7.3-7.3-6.4c-2.3-2.1-5-4.2-7.3-6.4-.6-.5-.5-1-.5-1.8l4.3 4.4 4.8 4.4c1.6 1.4 3.1 2.8 4.7 4s2.9 2.8 4.4 4a42.7 42.7 0 0 0 4.7 3.6l5 3.1a32.7 32.7 0 0 1 2.9 2.2c.2.3.8.6 1 1 .2.4-.3 0-.5.4-.4.6 1.9 1.3 2 .2s-1.5-2-2.3-2.5l-4.4-3c-1.6-1-3.3-2.1-4.9-3.3-3.8-2.8-7.3-6.1-10.9-9.3L48 89.7 44.2 86a10.3 10.3 0 0 1-1.3-1.4 2.7 2.7 0 0 1-.1-1.8zM73.5 119a3.8 3.8 0 0 0-1.3-1.4 34.4 34.4 0 0 0-4-2.7 92.2 92.2 0 0 1-8-5.7 225.5 225.5 0 0 1-15.6-13.9c-.8-.7-1.7-1.4-1.7-2.5 0 0 .8.7.9.6s-.7-.6-.8-.7a2.5 2.5 0 0 1-.2-1.5c.1 0 .7.6.8.5s-.6-.7-.7-.8a5.1 5.1 0 0 1-.1-2.1l25.2 22c1.9 1.6 3.6 3.4 6 4.3a10.5 10.5 0 0 0 7.4 0 33.7 33.7 0 0 0 4.9-2.4l23.3-13 6-3.2c2.8-1.5 5.3-3.3 8-4.9l.1 2.4c0 1.2-.4 1.3-1.4 1.9l-4 2.3-4 2.3q-7.5 4.4-15.1 8.6l-16.3 8.9c-1.8 1-3.7 1.9-5.5 2.6a7.6 7.6 0 0 1-7.2-.6 20.7 20.7 0 0 1-3.2-2.9l-3.5-3-7.1-6.5c-2.5-2.2-5.1-4.1-7.6-6.4q-1.7-1.7-3.6-3.3c-1-.8-2.3-1.5-2.2-3a96 96 0 0 0 7.8 7.3c2.6 2.2 5 4.8 7.7 7a83.8 83.8 0 0 0 8.2 5.5l4 3a20.3 20.3 0 0 1 1.8 1.4 4.5 4.5 0 0 1 .5.5c.5.3.7 0 .5-.6zm50.3-18.9c0 .8.1 1.5-.5 2a12.5 12.5 0 0 1-1.9 1l-2.2 1.3c-.4.2-4.8 3-5 2.9.4.3 3.2-1.5 3.5-1.7l6-3.3c-.2 1-.2 1-.9 1.4l-2.1 1.3-7.7 4.7a690 690 0 0 1-30.2 16.9c-3 1.4-6 2.6-9.4 1.4-2-.8-3.5-2.5-5-4l-2.2-1.9-8-7c-4.5-3.9-8.8-8-13.4-11.7a13.5 13.5 0 0 1-1.2-1c-.4-.5-.4-.8-.4-1.5a96.6 96.6 0 0 0 8.5 7.9q5.5 4.9 11.1 9.6a39.3 39.3 0 0 0 4.1 2.9q3 2 5.7 4.1l1.1.9c.1 0 .7.8.9.8 1 0-.2-1.6-.4-1.8-1.3-1.4-3.2-2.2-4.8-3.3l-5.6-4c-3-2.3-5.8-4.8-8.6-7.3q-3.8-3.2-7.4-6.6l-1.9-1.6a20.2 20.2 0 0 1-1.7-1.8 4.2 4.2 0 0 1-1-1.1 4.3 4.3 0 0 1 0-1.5l11.6 10.2 5.7 5c1.8 1.6 3.8 3.1 5.6 4.8h-.2c.2.4 1.6 1.2 2 1.4a20.4 20.4 0 0 0 3.8 2.4c3.7 1.7 8.1-.4 11.4-2.3l12.4-7 13.5-7.4c4.9-2.8 9.6-6 14.6-8.4 0 1.2-1.3 1.5-2.3 2-.2.1-2 1-1.6 1.2s1.8-.8 2-1l2-1a17.8 17.8 0 0 1 0 2.1zm28.5-19.3c.2.2 1-.5 1.1-.8a16.4 16.4 0 0 0 2-1.5c0 .2-.3.4-.4.6a26.6 26.6 0 0 1-2.7 2.7l-3 2.7a143.8 143.8 0 0 1-11.9 10c-4 2.9-8.2 5.4-12.4 7.9.2-.8.2-1 .8-1.5.2-.1 1.1-.6 1-.8s-1.5.7-1.7.8a2.9 2.9 0 0 1 0-1c.2-.3.5-.3.7-.5.8-.5 0-.4-.5-.1 0-1 .3-1.1 1.1-1.5a17.7 17.7 0 0 0 2.5-1.4l2.5-1.5 2.5-1.6c.4-.3 1.6-1 1.8-1.5s-.6 0-.8.2l-2.5 1.6-7.2 4.4c-.1-.6-.3-.7.2-1 .1-.2 1-.6.9-.8s-1.1.5-1.3.6c0-1.2 1.7-1.8 2.6-2.4l3.7-2.3a94.4 94.4 0 0 0 10.6-7.6c2.6-2.2 5-4.6 7.7-6.6.3-.2 1.6-1.5 1.7-.8s-4.2 3.3-3.7 3.8c.2.2 2.7-2.1 2.9-2.2l2.3-2 1-1c.2-.2.8-1 1-1a8.6 8.6 0 0 0-1.8 2.6c0 .4.5 0 .8-.2a17.3 17.3 0 0 0 1.4-1.2c.2.4-.8 1-1 1.3l-1.8 1.8-1.8 1.6c-.2.3-1.2 1-1.3 1.4-.2.8 1.1-.4 1.3-.6l1.3-1.1 1.6-1.5 2.2-1.8c0 .3-.8 1-1 1l-1.5 1.7c-.1 0-1 .8-.8 1zm1.4-8l-2 2c-2.3 2.2-5.1 4-7.6 6.1a140.8 140.8 0 0 1-19 13.4l.1-3c0-.6 0-.7.5-1l2.8-1.7 9.6-6a34 34 0 0 0 4.7-3.3c2.6-2.3 5.2-4.6 8-6.8a27.8 27.8 0 0 1 4.2-3c.3-.2.8-.5.8-.2s-1 1-1.2 1.2l-1.4 1.4-2.8 2.7c-.1.1-.9.7-.9 1 0 .4.6 0 .8-.2 1.9-1.5 3.6-3.2 5.4-4.8-.1.9-1.3 1.5-2 2.2zm-5.9-.7a72 72 0 0 0 8.9-7.2c-.2 1-1.8 1.9-2.5 2.5l-3.7 3.2a31 31 0 0 1-3.4 2.5c-.3.2-1.9 1-1.8 1.4l1.6-.9 2.4-1.6a51.8 51.8 0 0 0 6.8-5.6c0 1.5-2.5 3-3.5 3.8-1.8 1.5-3.8 2.8-5.8 4.1-2.4 1.7-4.5 3.8-6.8 5.5-3 2-6 4-9 5.8l-6 3.7c-.1-.6-.5-1-.1-1.5a4.3 4.3 0 0 1 1-.7c.2-.2 2-1.2 1.8-1.5s-2.9 1.6-3.3 2c0-.9 0-1 .7-1.5l1.2-.6c.2-.2 2-1.2 1.7-1.5s-3.4 2-3.8 2.3c0-.3-.3-.6-.2-.9s.7-.3 1-.4l1.2-.9 3.9-2.7 7.1-5.4c4.9-3.6 9.5-7.5 14.2-11.4l3.4-2.8a16 16 0 0 1 1.8-1.4c0 .4-1 1.2-1.2 1.4l-2.4 2.3a69.7 69.7 0 0 1-6.4 5.4l-1.5 1c-.2 0-1.1.7-.4.6s1.7-1 2.2-1.4a53.5 53.5 0 0 0 4.3-3.3c1.8-1.6 3.8-3.2 5.5-4.9 0 .6-2 2-2.4 2.4l-3.9 3.5a78 78 0 0 1-5.7 4.7c.5.5 4.7-3.2 5.4-3.8l3.6-3a33.1 33.1 0 0 0 3-2.7c0 .5-1.5 1.6-2 2l-3.5 3.4a37 37 0 0 1-4.2 3.4c-.2 0-2.1 1.3-2 1.4a10.7 10.7 0 0 0 3.3-2l3.5-2.7 3.3-2.9c.3-.3 1.7-1.2 1.7-1.7 0 .7-1.4 1.7-1.8 2.1l-3.2 2.8c-1.2 1-2.2 2-3.4 2.8a16.9 16.9 0 0 1-2 1.4c-.3.2-1.3.6-1.3 1a26.7 26.7 0 0 1 2.7-1.4zm7.8-13.7a38 38 0 0 1-5.7 5.5l-6 5.2c-4.3 3.6-8.7 7.2-13.3 10.4q-1.8 1.4-3.7 2.6l-1.2.8a7.5 7.5 0 0 0-2.1 1.3 15.2 15.2 0 0 0-3.4-4.4c-.5-.7-.1-.9.5-1.2a17.3 17.3 0 0 0 1.7-1c.6-.2.9-1 0-.7a7.8 7.8 0 0 0-1.6 1c-.3.2-.8.7-1.3.7-.7 0-1.2-.8-1.7-1.2l3.7-2.2c.3-.2.8-.5.2-.6-.2-.1-.8.3-1 .4l-2.7 1.6a1.8 1.8 0 0 1-.8.3c-.5-.1-1.1-1-1.5-1.3a3.2 3.2 0 0 0 1.2-.7l1-.5a3.5 3.5 0 0 0 1.2-.9c.3-.4.2-.6-.3-.6-.7 0-1.8 1-2.5 1.5a4.2 4.2 0 0 1-1 .5c-.6.1-1-.5-1.4-.9a16.2 16.2 0 0 1 3-1.6c.2-.1.7-.2.7-.7s-.7 0-1 0l-2.7 1.6c-.9.6-1.1-.2-1.7-.8L115 71c.2-.1.7-.3.7-.6 0-.4-.5-.2-.7-.1a18 18 0 0 0-2.5 1.7c-.9.5-1.6-.4-2.3-1 .7-.7 1.9-1 2.7-1.4s.7-1.2-.3-.7c-.7.4-1.4.9-2.2 1.2a2 2 0 0 1-.8.4c-.6-.1-1-.8-1.4-1.2.4-.3 1.1-.3 1.6-.5a6.8 6.8 0 0 0 1.6-.8c.2-.3.2-.8-.3-.8-.2 0-.7.5-1 .6a13.9 13.9 0 0 1-2 1c-.7.2-1-.3-1.5-.8a13.3 13.3 0 0 0 2.7-1.7c.8-.8-.2-.6-.7-.3-.7.3-1.3 1-2 1.3-.9.5-1.1-.5-1.7-1a26.6 26.6 0 0 0 2.3-1.5c.5-.3 1-1.2 0-.9a20 20 0 0 0-2.2 1.5c-.8.5-1.3-.1-2-.7a29.2 29.2 0 0 0 2.8-1.5c.5-.3 1-1 0-.7a15.8 15.8 0 0 0-2.4 1.3c-.4.2-.6.5-1 .4s-1-1-1.4-1.2c.7-.5 1.8-.9 2.2-1.6s-.3-.5-.7-.3c-.6.3-1.1 1-1.8 1.1-.8.3-1.4-.7-2-1.2.8-.1 1.3-.8 2.1-1.1.3-.1.9-.3.7-.7s-.4-.2-.7-.1a18.3 18.3 0 0 0-2 1c-.9.6-1.2 0-2-.6.4 0 .6-.4 1-.6a8.9 8.9 0 0 0 1-.3c.6-.4.7-.8 0-.8a5.4 5.4 0 0 0-2 .9c-.9.5-1-.1-1.8-.6.2-.2 2.4-1 2.3-1.4s-1.1 0-1.3.1c-.5.2-1 .8-1.5.8s-1-.8-1.4-1.2a12 12 0 0 0 2.2-1.5c.4-.5.3-.7-.4-.5a9.4 9.4 0 0 0-1.6 1.1c-.8.6-1.2-.2-1.9-.7l1.2-.6 1.3-.8a4 4 0 0 0-1.6.1c-.4.2-.8.9-1.3.9-.6 0-1.9-1.4-2.4-1.8H92c1 0 2.2.3 3.4.3l7.4-.3c2.4 0 3.5 1.6 5.3 2.7.5.4 1.8 1 2.2.5s-.1-1.2-.6-1.4l5.2-3.1c.5-.4 1.5-.8 1.9-1.3.6-1-.8-.2-1.2 0l-4.6 3c-.6.2-1 .6-1.6.9-.8.4-1.3-.4-2-.8a15.3 15.3 0 0 0 2.7-1.6l2.3-1.4 1.9-1.1c.8-.7.5-1-.4-.5l-4.4 2.6-1.8 1c-.3.2-.6.5-.9.5-.5 0-.9-.5-1.3-.7a42.6 42.6 0 0 0 5.7-3.7 11.3 11.3 0 0 0 1-.7 5.2 5.2 0 0 1 .6-.6c.2 0 .5-.1.6-.3.3-.4-.1-.7-.5-.7s-.7.7-1 .9l-4.2 3a18.5 18.5 0 0 1-2.6 1.5 2.8 2.8 0 0 1-1.7.1 12 12 0 0 0-2.2 0c2.3-1.4 4.6-2.8 6.8-4.4a14 14 0 0 1 1.4-.9c.4-.2 1.4-.6 1.5-1 .2-1.2-1.9.3-2.1.5a132.6 132.6 0 0 1-7.7 5 3.9 3.9 0 0 1-2 1l-2.1-.1a14.6 14.6 0 0 1 3.4-2.7 31.5 31.5 0 0 1 3-1.8l3-1.8c.7-.4 2-.8 2.6-1.5.3-.3.3-.6-.3-.6l-.5.4-1.2.6-4.2 2.5a45 45 0 0 0-4.2 2.8c-.3.2-2.6 1.6-2.4 2l-3.9-.1-4-.1a10.5 10.5 0 0 0 1.4-1 10.4 10.4 0 0 1 1.8-1 44.6 44.6 0 0 0 4.3-2l4-2.6c1.3-.8 2.6-1.3 4-2.1 2.8-1.6 5.3-3.7 8-5.4 2.3-1.3 4.4-2.7 6.5-4.2l2.9-2c.7-.5 2-1 2.3-2 1.1 1.3 2.8 1.7 4.3 2.3L133 33a64.7 64.7 0 0 1 10 5.5 46 46 0 0 1 11.6 10.3 15.2 15.2 0 0 1 3 5.2c.4 1.9-.9 3.1-2 4.5z"/><path class="cls-4" d="M120.7 36.5a30.5 30.5 0 0 0 3.3-2.3c.9-.9-.2-.6-.7-.3l-6.8 4.6-3.3 2.2c-.2.1-1 .6-.8 1s1-.2 1-.3c1.3-.7 2.3-1.6 3.5-2.4l3.8-2.5zM128.9 64.7a16.9 16.9 0 0 0 2.9-2.2c.1-.1.5-.5.3-.7s-.7.3-1 .4c-2.1 1.7-4.5 3.1-6.8 4.8l-2.8 2.1c-.7.6-.6 1.5.3.8 2.2-2 4.7-3.5 7-5.2zM148.6 83l.4-.3-1 .4-.9.8c-.3.3-1.1.7-1.1 1 0 .5.7-.1.9-.3a11.2 11.2 0 0 0 1.7-1.6zM129.2 62.3c.5-.3 1.8-1.1 1.8-1.8 0-1-1.8.8-2 1a46.5 46.5 0 0 1-4.9 3.2c-1.2.8-2.6 1.4-3.9 2.1-.4.3-1.7 1-1.7 1.5 0 1.1 1.8-.6 2-.8 1.7-.9 3.5-1.7 5-2.7q2-1.2 3.7-2.5zM130.4 66.5c1.1-.7 2.2-1.7 3.4-2.4.2-.2.9-.2 1-.5.2-.7-.6-.5-.8-.4a28.6 28.6 0 0 0-3.5 2.5l-3.8 2.4c-.4.3-4.4 2.7-3.7 3.3.4.3 1.1-.6 1.4-.8l1.8-1.3 4.2-2.8zM127.1 60.8l1.7-1.3c.2-.1 1-.6.5-1-.4-.2-1 .5-1.2.7l-1.7 1c-2.5 1.8-5.2 3-7.7 4.7-.3.3-2.5 1.4-1.9 2 .3.3 1.8-1 2-1.2q4-2.6 8.3-5zM148.8 76.3c-.2.1-2.8 2-2.7 2.2.5.6 3-2.4 3-2.4a.6.6 0 0 0-.2.1zM140 76c0-.1 1.3-1.1 1-1.4s-1.2.8-1.4 1-1.3 1-1.1 1.2 1.2-.7 1.4-.8zM120.6 34.3a14.5 14.5 0 0 0 1.8-1.3c.2-.2 1-.6 1.2-.9s-.2-.5-.6-.4-1 .9-1.4 1a44.8 44.8 0 0 1-4 2.6l-4.2 2.2-2 1.3c-.3.2-1.2.5-1.2.8s.3.6.6.5 1-1 1.4-1.2c1.3-.8 2.6-1.4 4-2 1.4-.9 2.8-1.9 4.4-2.6zM136.8 78c0 .2-1 .6-1.1.7l-1.6 1c-.3.2-2.3 1.5-2 1.7s2.2-1.3 2.5-1.5c.6-.4 2-1 2.2-1.8zM107.1 42.2c-.8-.2-2.3 1.1-3 1.5l-2.6 1.4a47 47 0 0 0-5 2.8c-.3.2-2 1.3-2 1.7.3.7 1.8-.7 2-1a41 41 0 0 1 5-2.8l2.7-1.5 2-1.2c.3-.1 1.5-.8 1-1zM135.6 80.2c.4.5 6.7-4.7 6.4-5a71.4 71.4 0 0 0-6.4 5zM151.6 81.4l-3.2 2.7c-.2.1-1.2.6-1 1s1-.5 1.2-.6l2.7-2.5c.2-.1 1-.7.9-.9s-.5.2-.6.3zM145 78c.2.2 1.2-.7 1-.9s-1 .7-1 .8zM151.6 73l1-1c.2-.1.5-.3.5-.5s0-.5-.2-.3c-.3.3-3.3 2.6-3 3s1.5-1 1.7-1.2zM149.6 74.3c-.3 0-2.4 1.6-2.2 1.9.3.5 2.3-1.9 2.2-1.9zM130.1 83.8s-1.1.7-1 1c.4.5 3.9-3 1-1zM127.5 50.1c-.4.3-1.5.9-1.7 1.4s.2.6.6.5c.6-.2 1.2-1 1.7-1.4l1.6-1.2 8-6c.2-.1 2.7-2.1 1.4-2-.6 0-1.2.9-1.6 1.2l-2 1.6c-2.7 2-5.4 3.8-8 5.9zM140 55.9a28.3 28.3 0 0 0-4 3c-.2.3-.5.8 0 .8s1-.7 1.3-1c2.5-2.5 5.9-3.9 8.6-6.1a21.4 21.4 0 0 0 3.7-3.5c.1-.2.6-.8.2-1s-1 .8-1 1a24 24 0 0 1-3.9 3.4l-4.9 3.4zM128.8 43.8a53 53 0 0 0-4.7 3.2c-.3.3-1.3.8-1.5 1.2-.3.6.2.8.6.5l1.4-1.3 2.1-1.4c1.4-1 2.8-1.8 4-2.8a25.3 25.3 0 0 0 3.6-3.3c.2-.2 1.8-1.5.8-1.6-.4 0-.8.6-1 .8a17.8 17.8 0 0 1-1.3 1.4 26.7 26.7 0 0 1-4 3.3zM128 38a50.3 50.3 0 0 1-4 3.1 49 49 0 0 0-4 3c-.6.4-1.5.9-1.8 1.5s0 .7.4.6.8-.8 1.1-1c.6-.6 1.3-1 2-1.5l4-3 3.7-2.9.8-.6 1.1-.7c.3-.3.6-.7.1-.8s-1.2.6-1.6.8L128 38zM124.7 43.8a44.2 44.2 0 0 0-4.2 3.2c-.3.3-.6.7 0 .6s1.2-.6 1.6-1c2.3-2 5-3.4 7.5-5.3a35.2 35.2 0 0 0 4-3.3c0-.1.6-.6.4-.8s-1.3.6-1.5.7c-1.2 1-2.2 2.2-3.6 3.1s-2.9 1.8-4.2 2.8zM128.1 47.1c-1.1 1-2.5 1.7-3.6 2.6-.3.2-1 .7-.4 1s1.3-.7 1.6-1c2.5-1.8 5-3.6 7.5-5.6l3.5-3c.3-.3 1-.9.3-1-.4 0-1 .7-1.3 1l-3.5 3c-1.2 1-2.8 1.9-4.1 3zM138.3 51.4l-2 1.3-2.6 2c-.5.4-1.3 1-1.5 1.6-.1.2-.2.4 0 .5.5.2.8-.6 1-.8a16.5 16.5 0 0 1 3.4-2.5l4-2.9a36.2 36.2 0 0 0 3.5-2.8 7.6 7.6 0 0 1 1.2-1c.2-.2.8-.5.7-.9-.3-.8-1.7.8-2 1a47.7 47.7 0 0 1-4 3.2c-.6.4-1 .9-1.7 1.3zM145.3 49a57 57 0 0 1-8.5 6.5l-2 1.4c-.4.2-1.2.5-1.2.8-.3.9.6.4.9.2a13.4 13.4 0 0 1 1.7-1.2 49.3 49.3 0 0 0 8.5-6.1L146 49c.2-.2.7-.5.8-.8s-.2-.5-.5-.4-.8.9-1.1 1.2zM136.8 46a25.6 25.6 0 0 1-2 1.5l-2.5 1.8-3.8 3c-.1.2-.7.7-.3 1s.9-.5 1-.7c1.2-1.1 2.7-2 4-3a43.1 43.1 0 0 1 4.1-3.2l1.4-1 1.3-.8c.4-.3 1-.6 1.1-1s0-.7-.4-.6c-.3.1-.5.5-.7.6l-1 .7a22.8 22.8 0 0 0-2.2 1.7zM137.8 48.2l-4 3.3c-1.3.8-2.4 1.9-3.6 2.8-.2.2-1 .5-.4.9s1.3-.6 1.6-1c1.2-1 2.4-2 3.6-2.8l7.3-5.9c.3-.2 1.1-.6 1-1.2-.3-.7-1 .3-1.4.6a52.5 52.5 0 0 1-4 3.3zM28.8 45.3A9.4 9.4 0 0 0 30 45a6.4 6.4 0 0 0 1.3-.3c0-.3-2.7.3-2.6.6zM35.6 65.4c0 .2 1-.3 1-.4s-1 .3-1 .4zM36 62.7v.1c0 .3.3-.3 0-.1zM35.7 61.2zM35.1 63.3c0-.1-.4 0-.3.1h.2zM37 60.5l-1.3.7c.3 0 1.2-.4 1.3-.7zM39 55.5c0 .2 1.2-.8 1-.9s-.7.5-.8.6c0 0-.4.2-.3.3zM32.5 61.1c0 .2 1 0 1-.3l-1 .3zM35 60.8l-.2.1h.2zM35.8 56.4a13.6 13.6 0 0 0 2-1.7c-.3-.2-2 1.4-2.2 1.5a14.4 14.4 0 0 1-1.8 1.2s-1.4.5-1.2.6a14 14 0 0 0 3.1-1.6zM34.8 62.6c-.1-.2-1.3.3-1.2.5.1 0 1.3-.3 1.2-.5zM34.3 62c0 .2.6-.1.6-.3s-.6.1-.6.3zM37.6 56.6zM37.6 56.6a9.5 9.5 0 0 0-2.7 1.7l1-.4c.5-.3 1.6-.8 1.7-1.3zM39.1 54.4zM39.1 54.4a19.6 19.6 0 0 0-3.2 2.5c.1.2 3.3-2.3 3.2-2.5zM38.7 54c-.2-.2-.7.3-.6.5h.2c0-.1.5-.3.4-.5zM34.6 56.1a25.2 25.2 0 0 0-3.2 1.5c0 .4 3.5-1 3.3-1.5zM36.7 59.8c-.1-.1-.5.2-.5.3 0 .2.5-.2.5-.3zM37 61.3l-.3.2h.2zM34.8 58.4l.1-.1zM37 64.8a.2.2 0 0 0 0-.2c0-.2-.4.4 0 .2zM33.5 61.6c0 .1 1-.3 1-.5s-1 .3-1 .5zM71.7 24.6a4.2 4.2 0 0 0 1-.7c.7-.6 1.4-1.2 1-2.2l.6.5-.1-.3c-.1-.1-.5-.5-.3-.2-.4-.3-.6-.8-1-1a7.2 7.2 0 0 0-1-.4.3.3 0 0 0 0 .2c-.5 0-1.2.4-1.8 0a.8.8 0 0 1-.3-1.3c.7-.6 1.7 1.1 2 .2l-1-1.2c-.4 0-1.1.5-1.4.8a1.6 1.6 0 0 0-.5 2.3l.1.1c.8 1 1.6.6 2.6.5s1.8 1.8.5 1.7c-.6 0-.8-.8-1.3-.8-.9 0 .1 1 .3 1.3s.3.5.6.5zM77.2 96.3a40.7 40.7 0 0 0 5-3l3-2c.5-.2 1.7-.7 2-1.2.2-.8-1 0-1.4 0L83.1 92l-7.7 4.5c-.5.2-1.8.7-2 1.2-.3.7 1 .1 1.3 0l2.5-1.4zM75.1 94.9a42.6 42.6 0 0 0 8.5-4.6l1.6-1c.6-.4.6-.9 0-.9-.4 0-1.2.7-1.5.9-.6.4-1.1 1-1.8 1.3-2.6 1.6-5.4 2.7-8 4.1-.4.2-2.2.9-1.8 1.4s.8 0 1-.2.7-.2 1-.4a8.4 8.4 0 0 1 1-.6z"/><path class="cls-4" d="M69.9 19.4a7.2 7.2 0 0 0 1.7 1c.1-.3-1.7-1.1-1.7-1zM57.6 29.2s-.6.4-.5.5 1.2-.7 1-.8-.5.3-.5.3zM75.7 83.5s2.8-1.5 1.6-1.6c-.3 0-1 .4-1.2.6a18.1 18.1 0 0 0-1.6 1c-1.2.9-2.5 1.6-3.7 2.4L67 88.4c-.3.2-2.8 1.2-2.5 1.8.4.8 6.7-3.6 7.4-4.1a42 42 0 0 1 3.9-2.6zM59.6 26.9c-.2-.3-.4-.2-.4 0a1.8 1.8 0 0 0 .2.5c.5.6.5 0 .2-.5zM71.7 88.7a45 45 0 0 0 5-3l2-1.2c.4-.1 1-.5.6-.8s-2 1-2.5 1.2l-4.9 2.8-3.7 2.4c-.4.2-2 1.1-2 1.6s1.9-.7 2.1-.8a19.7 19.7 0 0 1 3.4-2.2zM72.1 91.4c1.3-.9 2.6-1.7 4-2.4s2.3-1.7 3.6-2.4c.4-.2 1-.2 1.5-.5s1-.8.2-.9a4.8 4.8 0 0 0-1.2.5 8.4 8.4 0 0 0-2 1 68.8 68.8 0 0 1-7.7 4.8c-.3.2-3 1.6-2.3 2 .4.2 1.5-.7 1.9-.9a20.4 20.4 0 0 0 2-1.2zM81 88.5c.2-.1 3-1.2 1.7-1.6-.3 0-1.4.7-1.7.8l-1.8 1c-2.6 1.5-5.3 2.8-7.8 4.5a3.5 3.5 0 0 0-1.3 1c-.1.3-.2.7.3.6.3 0 .9-.8 1.1-1l2-1.1c2.4-1.6 5-2.8 7.5-4.2zM35.4 63.1a.1.1 0 0 0 .2 0c.3-.1-.3-.2-.2 0zM36.5 61.7zM57.3 21.8c.1.1-3.7 1.8-3.7 1.8a.3.3 0 0 0 .2 0c.4 0 3.8-1.4 3.5-1.8zM27.3 79c-.2.2 6.6 5.2 7.4 5.5-.2 0-7.1-5.9-7.4-5.5zM36.5 61.7l-1.3.7c0 .1 1.3-.5 1.3-.7zM38 59.7c0-.1-.6.3-.5.4s.5-.2.5-.4zM38.6 56.7c-.2-.2-1.6.9-1.7 1.1.1 0 2-.7 1.7-1.1zM38.2 64c-.1-.2-.9.3-.8.5s.9-.4.8-.5zM55.5 24.8a31.8 31.8 0 0 1-4.3 1.1h1c.2 0 3.5-.7 3.3-1zM26.2 52.5c.6-.4 1-.5 1.3-1-.1.3-.6.4-.9.5a9.3 9.3 0 0 0-1.2.8 14.8 14.8 0 0 1-3.5 2 11.6 11.6 0 0 1-5.8.6c-.4 0-1-.3-1.3-.1a4 4 0 0 1 .7.2 6.5 6.5 0 0 0 1.3.2 13 13 0 0 0 4.4-.4 13 13 0 0 0 3.4-1.8l1.6-1zM54 63.3a8.5 8.5 0 0 0-2.7-2.1 7.3 7.3 0 0 0-3.5-.9 17.8 17.8 0 0 1-1.9 0l-1-.3c-.2 0 0 .4 0 .4-.3 0-.4-1-1-.9v-.4a.3.3 0 0 0-.4-.2v-.3c-.2-.2-1-.5-1 0a1.9 1.9 0 0 0-2.1.2 2 2 0 0 0-.7.9v1l.5-1.1c.3-.6 1-1.3 1.7-1-.7.3.1.5.3.7l.4.6.3.2a4.6 4.6 0 0 1 .5.4L42 61.8c0-.3 1-1.3 0-.5a8.7 8.7 0 0 0 0-1.4c0-.5-.3-.2-.8 0a.2.2 0 0 0 0-.4c-.2 0-.3.5-.4.6.2-.3 0-.6-.2-.2 0-.1.2-.7 0-.7s-.2.5-.2.6a3.6 3.6 0 0 1 0 .8c0 .3-.4.2-.5.6s.3.5.4.7a3.2 3.2 0 0 0 .6.5c.7.4 1.3.4 1.5 1.4a9.8 9.8 0 0 0 .7 2.4l.9 1.4c.3.4.7 1 1 1.2s0 .7.3 1l.8 1 .8 1.2a5.9 5.9 0 0 1 .3 1l1.1-1 1.9-1.4 3.3-2.5 1.7-1.2c.4-.3 1.1-.6.5-1.1a13.8 13.8 0 0 1-1.7-2.5zM42.6 59a.1.1 0 0 0 0 .1 1 1 0 0 1-.1-.3q.2 0 .1.2zm.1.2c.2 0 .2-.3.2.1zm.8 0c0-.5.4.4.4.4-.3-.3-.4-.2-.4-.5zm-.2-.4c.1.2-.3.1-.3.1a.8.8 0 0 0 .3-.1zm.7 2.4c-.3.1-2 1.2-2.1 1 .5-.3 1-1 1.5-1.3l.4-.2c.2 0 .5.4.2.5zm.3-.8a2.7 2.7 0 0 1-1.1-.7l.1-.3a3.7 3.7 0 0 1 1 1zm0-.5l.1.1c0 .3-.2-.1-.2-.1zm.3.6zm2.7.2a15 15 0 0 0-2 .7c0-1 1.4-.7 2-.7zm-2.2 1c.8-.3 2-1 2.9-.8a23.8 23.8 0 0 0-2.6 1 .5.5 0 0 1-.3-.3zm.7.4a2 2 0 0 0 1-.4c.1.5.5-.1.7-.3A2.3 2.3 0 0 1 49 61a3 3 0 0 1 1.6.6c.2 0 .6.6.9.4a1.4 1.4 0 0 1-.9 1.6 1.1 1.1 0 0 0-.5 0 .2.2 0 0 0 0 .2l-.4.6a12.7 12.7 0 0 0-4-2.2zM53 64a4.6 4.6 0 0 1-1.4 1.5c-.5.2-.7-.1-1-.5-.1 0-.5-.2-.5-.5s.4-.5.6-.6c.9-.3 1-.6 1.3-1.6.6.4 1.4 1 1 1.7zM34 62.1l-1 .4c0 .2 1-.2 1-.4zM53.4 34.2a9.4 9.4 0 0 0-1-2c-.3-.3-.7 0-1.2.3-.8.3-1.2.3-.9 1l1.3 3c.2.4.3 1 .6 1s1.9-1 2.2-1.3l-1-2zm-.3 1.7c-.2-.2-.5-1.6-1-1-.3.5.7 1.1.6 1.5a1 1 0 0 1-.5.4c-.2 0-.2-.2-.2-.3-.4-.4-1.8-3-1.7-3.4a.8.8 0 0 1 .6-.2l.4.7a2.7 2.7 0 0 0 .4.8c.2.1.4.1.5-.2l-.4-.8a2.5 2.5 0 0 1-.3-.5q-.3-.3 0-.4l.4-.2c.4 0 .7 1 .8 1.4s1.3 1.8 1 2.3c-.4.2-.3.3-.6-.1zM49 37.5c0-.2-1-.3-1-.2 0 .2 1 .3 1 .2z"/><path class="cls-4" d="M49 31.6a8.3 8.3 0 0 0 1.8.2 14.2 14.2 0 0 0 2-.2c0 .4.8 1.4 1 1.8s.9 2 1.3 2a7 7 0 0 0 1.1-.7c.2 0 .8-.3.9-.5s-.4-.7-.5-.7c-.4-.2-.8.6-1.2.5 0 0-.4-.3-.3-.5s.6-.3.8-.5.2-.2 0-.4a.8.8 0 0 0-1-.2c-.3.1-.4.3-.6 0s0-.4.4-.6c-.3-.2-.7-.6-1-.6a4 4 0 0 0-.6.1l.5-.3a7.4 7.4 0 0 1-1.5.5 9.6 9.6 0 0 1-1.4.1c-.3 0-1.4-.3-1.7 0zM43.9 31.9s1.1.8 1.2.6a4.5 4.5 0 0 0-1.5-1l.3.4zM70.5 84.4c1.4-.8 2.4-2.1 3.8-2.8.2-.1.8-.3.9-.5.1-.5-.3-.5-.7-.4a10.6 10.6 0 0 0-3 2.1 23 23 0 0 1-4 2.4 45.4 45.4 0 0 0-4 2.5c-.2.2-2.1 1.6-.8 1.4.4 0 .8-.7 1-.9a24.4 24.4 0 0 1 2.3-1.3c1.4-.9 3-1.7 4.5-2.5zM30.4 48.6l3.2-.2c0-.2-2.5 0-2.7 0l-.5.2zM31.6 59.4a14 14 0 0 0-1.7.4c.4.7 4.9-.9 4.8-1.3-.5-.1-1.5.5-2 .6a6 6 0 0 1-1 .3zM42 32.6c.2 0 1 .8 1.2.7s-1.3-1.2-1.4-1a.5.5 0 0 0 .3.3zM36.7 53a27.6 27.6 0 0 1-2.5 1.8c-.3.2-2.2.8-2.3 1.2s2.2-.8 2.3-.9c.6-.3 1.1-.8 1.7-1.2.3-.2 2.4-1.5 2.2-1.9-.1-.1-1.3.9-1.4 1zM31.5 46.5l-1.6.3a16.3 16.3 0 0 0 3-.3h-1.4zM48.3 35.5a.5.5 0 0 0 .4 0 .5.5 0 0 0 .4 0H48.3z"/><path class="cls-4" d="M15.4 47.9a8.2 8.2 0 0 0 1 0c-.2.1-1.3.8-1.2 1 .4 0 .8-.4 1.2-.6a1.5 1.5 0 0 1 1-.3 14.8 14.8 0 0 0 3-.2 9.7 9.7 0 0 0 3-1.2 25 25 0 0 0 1.8-1.1c.4-.3 1.2-.7 1.4-1.1a8.3 8.3 0 0 1-.9.4l-1.2 1a10.6 10.6 0 0 1-2.3 1.2 12 12 0 0 1-5 .8 25.3 25.3 0 0 1 4.6-2.4c1.6-.6 3-1.8 4.6-2.6l5-2.3 2.4-1.1a2.5 2.5 0 0 1 1-.4 7.6 7.6 0 0 0 1.3.3c0-.2-1.3-.4-1.3-.4l1.8-1c.5-.2.6-.2 1.1 0 0 0 .7.5.8.4s-1.2-.8-1.3-.8a7.7 7.7 0 0 1 1.3-.6 1.4 1.4 0 0 1 1.1.2c-.8.4-.6.6-.3 1.5 0 0-.7-.5-.7-.3a9.4 9.4 0 0 1 .8.8A10.1 10.1 0 0 1 40 41c-.3-.2-1-.5-1.1-.8 0 0-.3-.2-.4 0a8.3 8.3 0 0 1 .8 1l-.2-.6c.6.4 1 .5 1.1 1.2a2 2 0 0 1 .1.6s-.2.1-.2.3l.3.4-1.4-.8c.5-.2.1-.6 0-.8-.3-.5-.2-.5-.7-.3-.2 0-.4.3-.7.3a2 2 0 0 1-.7-.3c-.1-.2.2-.3.3-.3.2-.2.8-.3 1-.6s0-.3-.1-.5-.3-.7-.5-.7c-.4 0-.3.4-.8.2a7.7 7.7 0 0 0 .9-.5l-.6.3-.9.1.4.2c-.3.2-1.5.8-1.6 1.1.5-.3 1.4-1.2 2-1-.4.2-2 1-1.8 1.3-.1 0-1.6-.3-1.6 0l1.8.4a9.1 9.1 0 0 1 1 1.8 4.7 4.7 0 0 1-1-.2 1.7 1.7 0 0 1 0-.6 1.9 1.9 0 0 0-.4-.7c-.7-.7-1.4-.5-2.1 0l-1.3 1-1.7.5c0 .1 0 0 0 0h1l.5.6h.3c.4.1.6.6.8 1l-1.1.1h1.3c.3.1.4.6.5.8l.4.6a1.3 1.3 0 0 1 .3.7c0 .2-.1.4.2.7s.5 0 1-.3a1.3 1.3 0 0 1 .6-.3c.2 0 .3.2.6 0s-.7-.2-.6-.2a10.3 10.3 0 0 0 1-.8c.1 0 .3-.5.5-.5s.2.2.4.2.4.1.2-.2-.2 0-.4-.1l-.2-.3-.7-1.3c-.2-.2-.3-.4-.6-.5a2.6 2.6 0 0 0-.5 0s-.3 0 0-.1 0-.1.5 0 .6.1.9.4a10 10 0 0 1 .7 1.3c.5.6.5.6 1 .2l1.4-.7c.8-.5.8-.4.3-1.2a4.5 4.5 0 0 1 .5.4c0-.3.4.2.4 0a.6.6 0 0 0 0-.1 6.5 6.5 0 0 1 1-.6l.2-.1q.2-.2.4 0s.3.2.3 0a.8.8 0 0 0-.4-.2c.3-.2 0-.4 0-.6-.4-.6-.3-.3-.7-.3-.2-.3 0-.5.4-.6s.2-.2.6 0c-.3.3-.3.6 0 1s.7 0 1-.2.2-.2.6-.1c0 0 1.1.3.9 0s-.8-.2-1-.2c.5-.3.7-.3.5-.8a2 2 0 0 0-.4-.6 3 3 0 0 1-.6-.3l-.6-.7-2-2c-.4-.4-.4-.4-.8-.4-.2 0-.2.2-.4.3s-.6-.3-.8-.4a15 15 0 0 1 1.5-.7c.5-.2.5 0 1.1.4.9.5 1.8 1 2.6 1.7a6 6 0 0 1 1 1.5c.1.1.4.8.6.8a4.4 4.4 0 0 0 1-.7l-.4-.6a5.8 5.8 0 0 0 .9.1l-1-.4a5.2 5.2 0 0 1-.8-1.1l-.7-1.2a12.2 12.2 0 0 0 1.4.6 4.1 4.1 0 0 0 1 .2c-.3-.3-.9-.3-1.2-.4a6 6 0 0 1-1-.5c-.3-.1-1-.5-.9-.7s.6-.2.6-.4c0-.3-.6-.8-.8-.8a2.4 2.4 0 0 0-.5.4c-.6.4-.5.2-1 0 .5-.2 1-.8 1.5-.7s1 .6 1.5.8c.3.1 1.7.7 2 .5l-1.5-.5a9.8 9.8 0 0 1-2-1 8.8 8.8 0 0 1 1.3-.8c.6-.1 1 0 1.5.3a9.6 9.6 0 0 0 2 .3c-.2.1-1.2.6-1.2.8s.4.6.5.6l.3-.2.2.2.3.4h.1a5.7 5.7 0 0 1 .4.8l.8 1.2c.2.3.1.3.4.3 1.3-.2-.2-1.7-.6-2.3-.1-.2-.7-.9-.7-1.1.1-.4.6-.1.3-.6a.7.7 0 0 0 .5-.1l-.7-.3-.6.1a7.3 7.3 0 0 1-2.8-.7c1.7-1 3.5-2.7 5.5-3h-.4c.1-.2-.4-.5-.5-.5-.4 0-.7.4-1.2.4l-2.5-.3a9.7 9.7 0 0 0 2.5.5 9.6 9.6 0 0 1-2 1.3c-.3 0-2-.6-2.1-.5s1.5.8 1.6.8l-3.6 2.1c-.4.2-1.2.8-1.5.7-.2 0-1.6-1.3-1.7-1a8.1 8.1 0 0 0 1.7 1l-1 .6c-.5.3-.5.3-1 0l-2.3-.6 2.6 1-1.4.8c-.6.3-.9.1-1.6 0-.2 0-3.6-.3-3.6 0a34.1 34.1 0 0 1 4.4.4l-10.2 5.2-4.8 2.5-2.5 1.2a4.6 4.6 0 0 1-1.9.4 3 3 0 0 0-1 .1l.8.1a10 10 0 0 0 1.1 0l-2.4 1.5a1.5 1.5 0 0 1-1.3.2 3.3 3.3 0 0 0-1-.1l.6.3zm17.7-5.5a.5.5 0 0 1 .7.1 4 4 0 0 0-.8 0 .5.5 0 0 1 .1 0zm1 1.2c-.4.4-.9-.7-1-1 .2.3.6 0 1 .2a.6.6 0 0 1 0 .9zm1.4 2.1c-.3.4-.8-.7-1-1 .4 0 2 .3 1 1zm-.2-1.3l.2.3-1.1-.1c0-.5.7-.4.8-.1zm2-2.6l-.2-.3.4.2zm2.2 1.2c-.5.3-1 1-1.4.3-.2-.4-.2-.5.3-.7s.8 0 1.3.3zm1.9-2.6q-.2 0-.2-.3l.3.2zm.4-.4c-.3.2-1-.7-1-1 .2 0 .9.8 1 1zm-.6-4.4l.9-.4c.5-.3.5-.3 1 0-.3.1-1 .4-1 .6a4.2 4.2 0 0 0 .5.8c.3.1.4-.3.7-.3s.8 1.2 1 1.5c-1-.7-2-1.5-3.1-2.1zM22 45.1l2.2-1.2a11.8 11.8 0 0 1-2.6 1.4zM13.4 55s-4-2.8-4.4-2.7c-.3.4 4.4 2.8 4.4 2.6z"/><path class="cls-4" d="M15.2 51.5a10.6 10.6 0 0 1-1.8-.5 5.3 5.3 0 0 0-1.5-.6c.2 0 .4.3.6.4a4.1 4.1 0 0 0 .8.4 11 11 0 0 0 3 .7 12.7 12.7 0 0 1 2.8 0 1.9 1.9 0 0 1 .7.6l1 .8a12.3 12.3 0 0 1-4.5.3 9.2 9.2 0 0 1-2.7-.6c-.5-.3-1-.7-1.7-.7a9.2 9.2 0 0 1 1.2.7 11.7 11.7 0 0 0 3 .7 14.5 14.5 0 0 0 3 0l1.6-.2a5 5 0 0 0 1.3 0 10.5 10.5 0 0 0 2.2-1.3c.7-.4 1.5-.2 2.2-.7a16.6 16.6 0 0 0 1.8-1.7c.8-.8.1-1.4-.4-2.1a4.6 4.6 0 0 0 .4-.3c-.5.6-1.2-.7-1.5-1 .1 0 .7-.4.6-.5s-.6.3-.7.3c-.3 0-.4-.4-.7-.4a2.3 2.3 0 0 0-.8 0 8 8 0 0 0-2 1L20.8 48a10.5 10.5 0 0 0-2.2 1.3c-.5.4-.6.6-1.3.5a13.4 13.4 0 0 1-2.5-.3c-.5-.2-1.1-.6-1.6-.5.3 0 .8.4 1 .5a6.6 6.6 0 0 0 2 .4c.5 0 1.3-.2 1.7 0s.2.5.3.8a6.6 6.6 0 0 0 .8 1 11.8 11.8 0 0 1-3.8-.2zM27.1 79.5l-3-2.2c-.4-.2-1.2-1.3-1.7-1.2l2.2 1.9 2.2 1.5c.5.4 1 1 1.7 1.2.2-.2-1.3-1.1-1.4-1.2zM7.7 49.7a28 28 0 0 0 2.6 1.5c.4-.6-6.1-3.4-6.2-2.7A9.8 9.8 0 0 0 6 49a11.9 11.9 0 0 1 1.8.7zM14.8 47.6zM29.8 43c-.2-.1-2.1.6-2 .8a11.5 11.5 0 0 0 2-.8zM23 43c1.7-.9 3.1-2.1 4.9-3a9.2 9.2 0 0 1 2.5-.9 6.2 6.2 0 0 0 2-.3 6.2 6.2 0 0 1-1 0 10 10 0 0 0-1.8.4 13.5 13.5 0 0 0-3.7 1.8 20.9 20.9 0 0 1-3.2 2 15.1 15.1 0 0 1-1.7.6 5.3 5.3 0 0 1-1 .3c.7.5 2.3-.6 3-.9zM59.6 39.5a.3.3 0 0 0 .2-.2c0-.2-.6 0-.6.2a.4.4 0 0 0 .4 0zM40.6 43.5z"/><path class="cls-4" d="M53.4 37.6l-3.2 1.9-1.5.8a4.4 4.4 0 0 1-1 .7c-.7.1-1.5-.4-2.1-.7-.8-.4-1.5-1.2-2.4-1.4l.5.5a5.4 5.4 0 0 0 1 .7 10.3 10.3 0 0 0 2.7 1l-1.7 1-1.4.9c-.1 0-1 .2-1 0 0 .2.3.3.3.3a4.8 4.8 0 0 1-1.4.8c-.2 0-.7-.2-.8-.1s.4.3.4.3c-.3.2-.9.7-1.3.7l-.7-.2.5.4c-.6.3-1.3.8-2 .6.3.4 0 .3-.4.6l-.7.4a6.1 6.1 0 0 0-.7.2q.3.2 0 .3l-.6.3a9.7 9.7 0 0 1-1 .6 5.9 5.9 0 0 1-.9.1s-.3.2 0 .3c0 0-4 2.1-5 2.4a4.6 4.6 0 0 0 .9-.2c-.7.4-7 4-6.8 4.3.7.1 1.6-.8 2.2-1.2a36.3 36.3 0 0 1 3.2-2L36 48l7.6-4 3.7-2a3.8 3.8 0 0 1 1.6-.6h2c-3.3 2-6.6 4.2-10 6S34.3 51.9 31 54a35.3 35.3 0 0 0-4.7 3.3c-.6.5-.6.7-.2 1.4a8.7 8.7 0 0 0 1.8 1.8q4.6 3.8 9.1 7.8l4.8 4.3 2.3 2c.2.2.3.4.6.5.4.1.5-.2.8-.5q-4.8-4.3-9.7-8.4c.2 0 1.3-.4 1.2-.6s-1.4.8-1.8.1c0 .1.2 0 0-.1l-.6-.4c.2 0 1.3-.5 1.2-.7s-.7.3-.8.3c-.5.2-.6.2-.9-.1a1.3 1.3 0 0 0 .8-.3c0-.2-1 0-1.2 0-.6-.4.6-.5.7-.8a3.6 3.6 0 0 1-.7.2c-.4 0-.6 0-1-.4.2 0 .5 0 .5-.2s-.4 0-.6 0a1.7 1.7 0 0 1-.6-.4s.5 0 .5-.2-.4 0-.5 0a1.5 1.5 0 0 1-.8-.4 4.8 4.8 0 0 0 2-.6c-.3-.2-1 .2-1.3.2a1.5 1.5 0 0 1-1.4-.3 6.1 6.1 0 0 0 1 0l.7-.4c-.3-.1-1 .2-1.4.2a2 2 0 0 1-1.4-.7 9.4 9.4 0 0 0 5.1-1.2c.1 0 2.3-1.3 2.1-1.4s-1.1.5-1.4.6a12 12 0 0 1-2 1c-1.5.5-3.8 1-5 0 0 0 1.1.2 1.2 0a21.5 21.5 0 0 0-2.7-1.2c2 .7 3.6 1.1 5.5.5.8-.2 3-.8 3.3-1.7l-1.2.5a13.5 13.5 0 0 1-2 .7 7 7 0 0 1-5.6-.7c.2-.2 1 .4 1.2.5a4.7 4.7 0 0 0 1.9.4 11.8 11.8 0 0 0 2.5-.5c-.2-.3-1.4.2-1.7.2a6.1 6.1 0 0 1-3.2-.9c.3-.2 3.9 1.3 3.8.3l-2.5-.4c3 .3 5.3-1 7.6-2.7a33.2 33.2 0 0 0 3.2-2.7l1.2-1.3c-.4-.1-1.3 1-1.6 1.2a31.9 31.9 0 0 1-3 2.5c-2.2 1.5-4.9 3-7.6 2.4.7-.5 2.5.4 3-.6-.1.2-2 0-2.2 0a3 3 0 0 1 1.3-.2 8 8 0 0 0 1.7-.5 13 13 0 0 0 3-1.8 42 42 0 0 0 2.4-1.9c.5-.4 1.4-1 1.6-1.6l-1.2.8-2.6 2c-1.5 1.2-3.2 2.5-5.1 2.5a15.5 15.5 0 0 1 1.7-.7l1-.6 1.7-1.2c-.2-.1-1 .5-1.1.7a4.1 4.1 0 0 1-2 .9c1.6-1.1 3.3-2 4.9-3-.4.3-1.4.6-1.5 1.2 0-.2 1.4-1 1.7-1.2a38.7 38.7 0 0 1 4.2-2.8l8.9-5.5 2.1-1.3c.7-.4.8-.6 1.2 0a17.6 17.6 0 0 0 3.1 3.2l7.5 6.3 4.5 3.5 2 1.6c.7.5.8.3 1.5-.1a8 8 0 0 0-2-1.5 7.4 7.4 0 0 1-2.5-1.1c-.5-.5-.6-1.3-1-1.8a12.4 12.4 0 0 0-2-1.5c.1 0 1.3.2 1.3 0a20.3 20.3 0 0 1-2-.5l-3.5-3c.1 0 1.3-.1 1.2-.3s-1 .1-1.1.1c-.7 0-1.2-.6-1.7-1 .2-.1 2-.7 2-.9s-1.4.4-1.5.4c-.9.4-1.2 0-1.8-.7 0 0 .4-.2.4-.4s-.7.2-.8.2c-.3-.1-.6-.7-.9-.9.2 0 1-.5 1-.7s-1 .6-1 .6c-.4 0-.9-.8-1-1 0 0 .8-.5.7-.7s-.7.4-.9.4c-.4 0-.8-.7-1.1-.9 3.2-.8 5.4-3.9 8.7-4.2-.4.3-1.8.8-1.8 1.4s.5.2.7 0c.7-.2.8-.2 1.3.3-.3 0-2.5.3-2.5.6s2.3-.5 2.6-.4a22 22 0 0 1 1.4 1.8c-.2.1-2-.1-2 .2a9.5 9.5 0 0 0 1.7 0c-.5.2-.7.8 0 .7a5 5 0 0 0 1.3-.8 3.7 3.7 0 0 0 1.2-.8c.5-.6-.3-1-.8-1.4a1 1 0 0 1-.2 1.4c-.7.5-1 0-1.5-.5L62.5 38c-.6-.7.2-1 .8-1a2.2 2.2 0 0 0-1.8-.2l1-.4c-.4-.2-1.5.3-1.8.5a6.6 6.6 0 0 0-.9.4s-.6.4 0 .1c-1.8 1.1-3.5 2.5-5.5 3.2a.4.4 0 0 0 .3-.3 9.5 9.5 0 0 1-2 .7 13.1 13.1 0 0 1-3.7.1 19.7 19.7 0 0 1 2.7-1.7c1-.3 2.2-.3 3.2-.7 2.1-.8 3.8-2.4 5.8-3.4-.7-.4-2.5 1.3-3 1.7a12.3 12.3 0 0 1-5.6 2.1c2.5-1.4 5-2.9 7.4-4.6-1-.6-1.8.3-2.6.9l-3.4 2.1z"/><path class="cls-4" d="M46.9 46.7h1.4c0-.1-1.5-.2-1.4 0zM43.6 48.2l2.7-1.3c0-.3-3 1.1-2.7 1.3zM44 47.2a5.3 5.3 0 0 0 1.8-.9c0-.3-2 .7-1.9.9zM69.1 45.8s-.5-.3-.6-.2 1 .7 1 .6l-.4-.4zM49.4 46c-.3 0-1.8-.4-1.8 0 0 0 2 .2 1.8 0zM66.9 53.9c-.5 0-1 1-1.7 1 .2-1-.4-1.4-1-2-.3-.5-.3-.5-.8-.8a19.2 19.2 0 0 0-2-1 6.5 6.5 0 0 0-2-.7l-1.9.2a12.5 12.5 0 0 0-3.8.2 2 2 0 0 1-1.5.2 1 1 0 0 1-.7-.3c-.3-.3-.1-.7-.4-1-1-1-3.1-.1-3.2 1.2l.1.5q.3 0 .2.1a2.9 2.9 0 0 0 .2.6 11.4 11.4 0 0 0 0 1.2c.3.6.3.1.6 0s0-.1.4 0l.4.4c.5.3 0 0 .6 0q.2-.4.5-.1a1.6 1.6 0 0 1 .5.1 5.7 5.7 0 0 0 .2 2c.3.4 1.2 1.2 1.2 1.7A13.7 13.7 0 0 1 50 57a3 3 0 0 0-1 0h-.3c-.2 0 0 .3-.3.5s-.3.2-.4.5.2.9 0 1.3c0 .1-.5.6-.2.7s.6-.5.7-.7c.2.2.3 0 .5 0 0 .2.3.3.4 0a4.3 4.3 0 0 0 .1-1c.3 0 .4.3.7.5a3.3 3.3 0 0 0 .8.3 10.3 10.3 0 0 0 2.9.3c.5 0 1.1.3 1.2-.4a5.3 5.3 0 0 0-.6-2c1.2.3 3-.2 3.8 1 1 1.5 2 3.1 2.8 4.8l6-3.8c-.3-.4-.8-.6-1-1s.3-.8.6-1 1-.2 1.2-.4 0-.6-.1-1-.5-1.7-1-1.8zm-18 5.1l-.2-.1.1-.1.1.2zm.5-.7l-.2.5a.4.4 0 0 0-.7 0 6.8 6.8 0 0 1 .3-1.1.6.6 0 0 1 .8 0c-.2 0-.3.4 0 .3v-.2a3.5 3.5 0 0 1 .3.5c-.4 0-.2-.5-.5 0zm2.7-5.9v-.1l.3.8c-.4 0-.3-.4-.3-.7zm-3.6-.7c0-.2.1-.3.3-.2a.4.4 0 0 0-.3.2zm2 .3v1.1c-.1.5-1 .5-.7-.4.1.2.2-.3.1-.4-.2-.3-.3 0-.4.1l-.4.3.3.2a1.6 1.6 0 0 0-.6.2 2.4 2.4 0 0 0 0-.8c.2.3.5.3.5 0 0-.5-.2-.2-.4-.1-.2-.5.3-.3.3-.7a2.6 2.6 0 0 0 .8 0c.2-.1.3.2.4-.2a.7.7 0 0 1 0 .3c.5.5.4-.1.7-.4a2 2 0 0 1-.3 1.1c0-.2 0-.5-.2-.3zm.4 1.2c-.1-.1 0-.5.1-.7a4.5 4.5 0 0 0 .6-1.3c.4.2.4.3.4.8a4.6 4.6 0 0 1-.3 1.2c-.1.3-.7.2-.8 0zM53 55c-.4-.2-1-.4-1.1-1 .1.2.6.8.8.6s-.5-1-.5-1.1c.3 0 .4 0 .6.3a7.7 7.7 0 0 1 .5 1.2zm11-.9c.7.5.6 0 .4-.6l.3.5a3 3 0 0 1 .1.4v.3l.3.3s-1.2-.7-.9 0c0 0-.5-.3-.5-.5l.2-.5a.5.5 0 0 0 .1.1zm-.6-1.2v-.3c.6.2.6.2.2.8-.1.3-.2.7-.6.5-.2-.2.3-.9.4-1zm2.5 5c-1.4-1-2.2-2.5-3.8-3.3-1.2-.6-2.8-.6-3.8-1.6a3.7 3.7 0 0 1 2.6.1l1 .6a3 3 0 0 0 .7.2A2.6 2.6 0 0 1 64 55c.1.2 0 .6.3.7s.3-.5.3-.6a4 4 0 0 1 1.4 2.7zm.6-1.7s.9-.8.9-.4c-.4 0-.6.3-.9.3zm1-.6zM43.2 48.6c0-.3-.8.3-1 .4-.3.3-1.1.7-1.2 1.2 0-.2.9-.5 1-.6s1.2-.6 1.2-1zM38.3 51.7c.1-.2 4-2.8 3.7-3.1-.2-.2-2 1.4-2.2 1.6-.4.4-1.2.8-1.5 1.5zM41.1 53.8c.2.2 1.1-.7 1-.8s-1.1.6-1 .8zM42 54c-.2-.2-1 .6-1 .7s1-.5 1-.7zM61.6 41a.4.4 0 0 0 .3-.2c0-.2-.7 0-.7 0a.5.5 0 0 0 .4.1zM57 42.5l2.3-1a13 13 0 0 0 1.4-.6c-.4-.2-3.8 1.3-3.7 1.6zM55 40.1c.2.2 2-1.2 2.2-1.4a9.2 9.2 0 0 1 .9-.5s1-.5.8-.6h-.1c-.5.1-3.8 2.5-3.9 2.5zM60.8 40.9zM58.8 43.4c-.1 0-1.3.5-1 .7l1.5-.7.9-.3s.7-.2.3-.3a5 5 0 0 0-1.7.6zM40.6 55c0-.1-1.9 1.3-1.8 1.4s2-1.2 1.8-1.4zM66.8 46.9c0 .1.7.4.7.2s-.7-.4-.7-.2zM61.5 42.8H61c0 .2.6 0 .5 0zM29 51h-.2.2z"/><path class="cls-4" d="M66.1 41c.2.5 1.6.2 2 .7v.5a3.4 3.4 0 0 0 .3.7 4.4 4.4 0 0 0 .3.8 23.4 23.4 0 0 0-2.5-.9c-.6-.2-1-.7-1.7-.7-.5 0-.9.4-1.4.5 0 0-1.6 0-1.6.2a10.8 10.8 0 0 0 1.5 0 8.4 8.4 0 0 0-1.1.5c-.3.3-.4.7.1.7.3 0 .4-.4.8-.4s.7.6 1 .9c-.4 0-2.6-.2-2.7.2.1.3 1.8 0 2.1 0a1 1 0 0 1 1 .3 4.5 4.5 0 0 1 .7.8c.5.9 0 .6-.7.6-.4 0-2.5 0-2.5.2s2.7 0 3.1 0c-.2.2-.4.1-.3.5s.8 0 1 0a4.4 4.4 0 0 0 2-1 1.7 1.7 0 0 0 .3-.9 3.1 3.1 0 0 0-.6-1c-.3-.3-.9-.4-1-.6L66 43c.8.1 3.1.6 3 1.6 0 .3-.6.7.1.8a1.8 1.8 0 0 0 1.1-.6c.3.2 1.4 1.3 2 1l-1-.6-1.2-.9c-.2-.1-.7-.2-.6-.6a1.5 1.5 0 0 1 1-.6 1.8 1.8 0 0 1 .8.4l-.2.4c.2.5.2.4.6.4l.4-.3.3.2.4.3a3.7 3.7 0 0 0 .4.2l.7.1a11.1 11.1 0 0 0-1.7-.9l.3-.1c-1.6-1-2.7-3-4.6-3.7l.2 1.3c-.3-.1-1.7-.8-1.9-.5zM64.7 44a1 1 0 0 1-1-.5c-.2-.4.2-.6.5-.8s.6-.3 1 0c.6.5 0 1-.5 1.3zm1 2.1c-.2 0-.8-1.2-.8-1.4.3 0 2.2 0 2.1.4s-.7 1.1-1.2 1zm.8-1.8a1.2 1.2 0 0 1 .5.6 19.6 19.6 0 0 0-2-.4 1.4 1.4 0 0 1 1.5-.2zm2.4-2.4a10 10 0 0 1 .8.6c-.5.5-.7-.1-.8-.6zm-.2-.8a4 4 0 0 1 1.1 1.1 9.7 9.7 0 0 1-.9-.5s-.4-.7-.2-.6zM58.8 39.6c-.1-.1-1 .4-1.2.6a6.2 6.2 0 0 0-1.8 1c-.3.5.4 0 .5 0l1.7-1c.1-.1 1-.6.8-.6z"/></g></g></svg>