<svg xmlns="http://www.w3.org/2000/svg" xmlns:xlink="http://www.w3.org/1999/xlink" viewBox="0 0 160 56"><defs><style>.a{fill:none;stroke:#fff;opacity:0.3;}.b{clip-path:url(#a);}.c{fill:#009482;}.d{fill:#004fa7;}.e{fill:#ff8740;}</style><clipPath id="a"><path class="a" d="M0,0H160V56H0Z"/></clipPath></defs><g class="b"><g transform="translate(8 0)"><path class="c" d="M63.007,55.975,8.53,1.433a4.948,4.948,0,0,0-7,7L49.012,55.975Z" transform="translate(-0.075 0.025)"/><path class="c" d="M118.661,57h11.218l-47-46.834a3.966,3.966,0,0,0-5.609,5.609Z" transform="translate(-29.942 -1)"/><path class="d" d="M90.8,18c-.889,2-1.777,3.943-2.666,6A198.3,198.3,0,0,0,77.3,57.985h8.164A186.2,186.2,0,0,1,95.516,27.052C96.793,24,98.181,20.943,99.625,18Z" transform="translate(-30.476 -1.985)"/><path class="d" d="M146.016,18a172.294,172.294,0,0,0-8.386,16.994,169.912,169.912,0,0,0-7.83,22.992h10.274a169.184,169.184,0,0,1,6.664-19.1A157.4,157.4,0,0,1,157.456,18Z" transform="translate(-52.82 -1.985)"/><path class="d" d="M265.5,18c-1.277,1.166-2.5,2.332-3.721,3.554A111.987,111.987,0,0,0,237.4,57.985h15.272a99.5,99.5,0,0,1,18.937-26.6A100.6,100.6,0,0,1,288.27,18H265.5Z" transform="translate(-100.664 -1.985)"/><path class="e" d="M198.2,18l39.985,39.985h16.883L215.083,18Z" transform="translate(-83.234 -1.985)"/><path class="d" d="M203.47,18a139.355,139.355,0,0,0-15.883,28.045c-1.666,3.943-3.11,7.886-4.387,11.94h12.551A127.38,127.38,0,0,1,218.687,18Z" transform="translate(-76.564 -1.985)"/></g></g></svg>