<svg xmlns="http://www.w3.org/2000/svg" viewBox="0 0 15.93 16"><defs><style>.cls-1{fill:#020d2d;}</style></defs><title>22_logo_favicon</title><g id="Layer_2" data-name="Layer 2"><g id="CEPR_Logo_Primary"><path class="cls-1" d="M15,9V4.13a8,8,0,0,0-1-1.41V6H13V1.76a8,8,0,0,0-3-1.5V1H9V.07A8,8,0,0,0,8,0V3H7V.07A8,8,0,0,0,6,.26V5.5H5V.59a7.91,7.91,0,0,0-1,.49V8H3V1.76A8,8,0,0,0,1.08,4H2V6H1V4.13A8,8,0,0,0,5,15.41V9H6v6.74A8,8,0,0,0,15.93,9ZM4,13H3V10H4Zm4,0H7V10H8Zm2-2H9V8h1Zm2,3H11V7h1Zm0-9H11V3h1Zm2,7H13V8h1Z"/></g></g></svg>