<svg viewBox="0 0 220 71" xmlns="http://www.w3.org/2000/svg" xmlns:xlink="http://www.w3.org/1999/xlink" class="logos-cepr">
  <defs>
    <style>
      .darkBlue{fill:#07074e}.lightBlue{fill:#0066b3}.grey{fill:#bcbec0}
    </style>
  </defs>
  <symbol id="logos-cepr-small" viewBox="0 0 101.3 29">
    <path class="darkBlue" d="M0 14.67C0 5.47 6 0 14.06 0c3.76 0 7.37.87 8.94 1l-.46 8.47h-4.11l-1.3-5.81c-.41-.46-1.44-.91-3.49-.91-3.76 0-6.31 3.72-6.31 11.43 0 7 2.09 12.09 6.46 12.09 2.28 0 3.12-.54 3.76-1.18L19.26 21l3.73.35-.69 6.19c-2.58.23-4.14 1.44-8.89 1.44C4.45 29 0 23.29 0 14.67zM27.79 3.5l-3-.54V.3h20.83l.49 6.7h-3l-1.33-3.81-7.49-.38v9.88l4.64-.11.68-3.12h2.62V19h-2.62L39 15.69l-4.68-.11v10.33l8.32-.53 2.32-4.9 3.23.91-.91 7.14H24.87V26l2.92-.38V3.5zm24.84 0L49.82 3V.3H56c1.71 0 3.46-.22 6.35-.22 8.36 0 10.79 3.07 10.79 8.47 0 6.42-4.07 10.26-11.4 10.26-1.1 0-2.32-.08-2.62-.12v6.92l5 .42v2.5H49.71V26l2.92-.38V3.5zm9 12.76c2.73 0 4.94-1.78 4.94-7.56 0-4.29-1.71-6.08-4.94-6.08a13.127 13.127 0 0 0-2.51.23v13.22c.817.156 1.649.22 2.48.19h.03zM74.58 26l2.93-.38V3.46l-2.78-.53V.3h5.85C82.79.3 84.31 0 87 0c8.06 0 11 2.28 11 7.6a8.018 8.018 0 0 1-5.4 7.9c4.37 1.6 5.81 9.73 7.6 10.18l1.1.35v2.5h-7.23c-1.86 0-3.8-10.9-6.65-12H84v9.12l3.38.38v2.5h-12.8V26zM91.11 7.87c0-3.58-1.26-5.29-4.71-5.29a13.04 13.04 0 0 0-2.4.19v11.17c.972.12 1.952.16 2.93.12 2.58 0 4.18-1.94 4.18-6.19z"/>
  </symbol>
  <symbol id="logos-cepr-medium" viewBox="0 0 390 120">
    <g class="darkBlue">
      <path d="M241.74 48.49a9.518 9.518 0 0 1 2.42.34l-.27 1.64a3.594 3.594 0 0 0-2-.51c-1.44 0-2.56 1.11-2.56 3s1 3.2 2.7 3.2a4.32 4.32 0 0 0 2.07-.56v1.54a5.613 5.613 0 0 1-2.25.46 4.59 4.59 0 0 1-.263.008c-2.309 0-4.21-1.9-4.21-4.21 0-.109.004-.219.013-.328a4.407 4.407 0 0 1-.016-.363c0-2.315 1.905-4.22 4.22-4.22.049 0 .097.001.146.003zm3.76.09h5.44V50h-3.57v2.22h2.74v1.41h-2.74V56h3.95v1.5h-5.82v-8.92zm7.21 0h1.72l3.33 5.25.67 1.33-.17-2.16v-4.42H260v8.92h-1.87l-3.19-5-.7-1.43.2 2.13v4.3h-1.73v-8.92zM263.89 50h-2.55v-1.42h7V50h-2.54v7.5h-1.88l-.03-7.5zm5.58-1.42h5.44V50h-3.58v2.22h2.75v1.41h-2.75V56h4v1.5h-5.82l-.04-8.92zm7.2 0h.86c.55 0 1.09-.09 2.37-.09 1.67 0 3.21.59 3.21 2.69a2.467 2.467 0 0 1-1.48 2.6c.73.61 1.08 2.06 1.66 3.08l.37.64h-2.07a4.302 4.302 0 0 1-.33-.64c-.5-1-.68-2.74-1.55-2.75h-1.17v3.39h-1.87v-8.92zm3.09 4.24a1.437 1.437 0 0 0 1.54-1.58c0-.7-.23-1.36-1.62-1.36a5.667 5.667 0 0 0-1.14.1v2.81c.24.03.92.03 1.22.03zm-41.88 7.76h5.41V62h-3.52v2.34h2.59v1.44h-2.59v3.72h-1.89v-8.92zm10.17-.09c2.47-.07 4 1.79 4 4.54-.06 3.08-1.76 4.52-4.13 4.56-2.57.06-4.12-1.85-4.06-4.6.01-3.08 1.78-4.43 4.19-4.5zm2 4.48c0-1.75-.67-3.06-2.07-3.06-1.24 0-2.27.86-2.27 3.15 0 1.76.72 3.15 2.18 3.15 1.46 0 2.19-1.01 2.19-3.21l-.03-.03zm3.28-4.39h.86c.55 0 1.09-.09 2.37-.09 1.67 0 3.21.59 3.21 2.69a2.467 2.467 0 0 1-1.48 2.6c.72.61 1.08 2.06 1.66 3.08l.37.64h-2.07a3.43 3.43 0 0 1-.33-.64c-.51-1-.69-2.74-1.55-2.75h-1.18v3.39h-1.86v-8.92zm3.09 4.24a1.437 1.437 0 0 0 1.58-1.58c0-.7-.24-1.36-1.62-1.36a5.834 5.834 0 0 0-1.15.1v2.81c.21.03.88.03 1.19.03zm8.06-4.24h5.44V62h-3.57v2.22h2.74v1.41h-2.74V68h3.95v1.5h-5.82v-8.92zm10.91-.09a9.506 9.506 0 0 1 2.43.34l-.27 1.64a3.621 3.621 0 0 0-2-.51c-1.45 0-2.57 1.11-2.57 3s1 3.2 2.71 3.2a4.32 4.32 0 0 0 2.07-.56v1.54a5.53 5.53 0 0 1-2.25.46 4.1 4.1 0 0 1-.314.012c-2.309 0-4.21-1.901-4.21-4.21 0-.114.005-.228.014-.342a4.19 4.19 0 0 1-.015-.354c0-2.315 1.905-4.22 4.22-4.22.062 0 .123.001.185.004zm7.39 0c2.47-.07 4 1.79 4 4.54-.06 3.08-1.76 4.52-4.14 4.56-2.56.06-4.11-1.85-4.06-4.6.02-3.08 1.79-4.43 4.2-4.5zm2 4.48c0-1.75-.68-3.06-2.07-3.06-1.39 0-2.27.86-2.27 3.15 0 1.76.72 3.15 2.18 3.15 1.46 0 2.19-1.01 2.19-3.21l-.03-.03zm3.58-4.39h1.73l3.32 5.25.67 1.33-.17-2.16v-4.42h1.74v8.92h-1.87l-3.18-5-.71-1.5.2 2.13v4.37h-1.73v-8.92zm12.84-.09c2.47-.07 4 1.79 4 4.54-.05 3.08-1.75 4.52-4.13 4.56-2.57.06-4.12-1.85-4.06-4.6-.01-3.08 1.78-4.43 4.19-4.5zm2 4.48c0-1.75-.68-3.06-2.08-3.06-1.24 0-2.27.86-2.27 3.15 0 1.76.72 3.15 2.18 3.15 1.46 0 2.21-1.01 2.21-3.21l-.04-.03zm3.95-4.39h2.62l1.23 4.69.45 2 .34-2 1.07-4.69h2.55l1.06 8.92h-1.87l-.43-4.78L314 62l-.66 2.73-1.28 4.87h-1.46l-1.42-4.87-.66-2.73-.21 2.73-.38 4.78h-1.73l.95-8.93zM318 60.58h1.88v8.92H318zM325.72 60.49a9.595 9.595 0 0 1 2.43.34l-.27 1.64a3.649 3.649 0 0 0-2-.51c-1.45 0-2.57 1.11-2.57 3s1 3.2 2.71 3.2a4.32 4.32 0 0 0 2.07-.56v1.54a5.53 5.53 0 0 1-2.25.46 4.248 4.248 0 0 1-.253.008c-2.309 0-4.21-1.901-4.21-4.21 0-.11.004-.219.013-.328a4.364 4.364 0 0 1-.016-.362c0-2.315 1.905-4.22 4.22-4.22l.126.002zm-85.72 12h1.89l3.32 9h-2l-.6-1.89h-3.28l-.59 1.89h-2l3.26-9zm2.15 5.78l-1-3.06-.25-.92-.26.92-1 3.06h2.51zm4.19-5.69h1.73l3.33 5.25.67 1.33-.17-2.16v-4.42h1.73v8.92h-1.87l-3.18-5-.71-1.5.21 2.13v4.37h-1.74v-8.92zm8.97 0h.88c.53 0 1.19-.09 2.17-.09 3 0 4.37 1.59 4.37 4.32 0 3-1.77 4.81-4.51 4.78-.84 0-1.47-.09-2-.09h-.9l-.01-8.92zm3.08 7.58c1.41 0 2.37-.93 2.37-3.15 0-2.22-.84-3.12-2.58-3.12-.36 0-.77.07-1 .09v6.08c.398.079.804.112 1.21.1zm8.77-7.58h.56c1 0 1.78-.09 2.63-.09 2 0 3.26.87 3.26 3.07 0 2-1.26 3.24-3.57 3.24h-1v2.7h-1.86l-.02-8.92zm2.84 4.81c.9 0 1.76-.38 1.76-1.85a1.537 1.537 0 0 0-1.78-1.7c-.335.004-.669.03-1 .08v3.42a7.9 7.9 0 0 0 1.02.05zm8.82-4.9c2.47-.07 4 1.79 4 4.54-.06 3.08-1.76 4.52-4.13 4.56-2.57.06-4.12-1.85-4.07-4.6.02-3.08 1.79-4.43 4.2-4.5zm2 4.48c0-1.75-.68-3.06-2.07-3.06-1.24 0-2.27.86-2.27 3.15 0 1.76.72 3.15 2.18 3.15 1.46 0 2.19-1.01 2.19-3.21l-.03-.03zm3.28-4.39h1.9v7.5h3.21v1.42h-5.11v-8.92zM290.59 72.58h1.88v8.92h-1.88zM298.52 72.49a9.518 9.518 0 0 1 2.42.34l-.27 1.64a3.594 3.594 0 0 0-2-.51c-1.44 0-2.56 1.11-2.56 3s1 3.2 2.71 3.2a4.315 4.315 0 0 0 2.06-.56v1.54a5.613 5.613 0 0 1-2.25.46h-.04c-2.496 0-4.55-2.054-4.55-4.55 0-2.481 2.029-4.528 4.51-4.55l-.03-.01zm6.02 5.88l-3-5.79h2l1.69 3.42.26.67.22-.67 1.69-3.46h2l-3 5.8v3.16h-1.87l.01-3.13zm8.46-5.79h.86c.55 0 1.09-.09 2.37-.09 1.67 0 3.21.59 3.21 2.69a2.467 2.467 0 0 1-1.48 2.6c.73.61 1.08 2.06 1.66 3.08l.37.64h-2.07a4.302 4.302 0 0 1-.33-.64c-.5-1-.68-2.74-1.55-2.75h-1.17v3.39H313v-8.92zm3 4.24a1.437 1.437 0 0 0 1.54-1.58c0-.7-.23-1.36-1.62-1.36a5.667 5.667 0 0 0-1.14.1v2.81c.28.03.96.03 1.22.03zm5-4.24h5.44V74h-3.57v2.22h2.74v1.41h-2.74V80h4v1.5H321v-8.92zm7.23 6.99a4.91 4.91 0 0 0 2.3.56c1 0 1.31-.31 1.31-.9 0-.59-.36-.89-1.73-1.57-1.06-.52-2.22-1.31-2.22-2.77 0-1.76 1.44-2.4 3.11-2.4.8-.024 1.594.152 2.31.51l-.31 1.45a3.517 3.517 0 0 0-1.94-.57c-1 0-1.34.37-1.34.92s.46.91 1.54 1.49c1.4.73 2.45 1.37 2.45 2.82 0 1.45-1.24 2.48-3.06 2.48a6.716 6.716 0 0 1-2.68-.52l.26-1.5zm6.68-6.99h5.44V74h-3.58v2.22h2.75v1.41h-2.75V80h4v1.5h-5.82l-.04-8.92zm10.22-.09H347l3.32 9h-2l-.6-1.89h-3.28l-.59 1.89h-2l3.28-9zm2.15 5.78l-1-3.06-.26-.92-.25.92-1 3.06h2.51zm4.09-5.69h.86c.55 0 1.09-.09 2.37-.09 1.67 0 3.21.59 3.21 2.69a2.467 2.467 0 0 1-1.48 2.6c.73.61 1.08 2.06 1.66 3.08l.37.64h-2.07a4.302 4.302 0 0 1-.33-.64c-.5-1-.68-2.74-1.55-2.75h-1.17v3.39h-1.87v-8.92zm3.09 4.24a1.437 1.437 0 0 0 1.54-1.58c0-.7-.23-1.36-1.62-1.36a5.667 5.667 0 0 0-1.14.1v2.81c.24.03.92.03 1.22.03zm9.03-4.33a9.518 9.518 0 0 1 2.42.34l-.27 1.64a3.594 3.594 0 0 0-2-.51c-1.44 0-2.56 1.11-2.56 3s1 3.2 2.7 3.2a4.32 4.32 0 0 0 2.07-.56v1.54a5.613 5.613 0 0 1-2.25.46h-.04c-2.496 0-4.55-2.054-4.55-4.55 0-2.481 2.029-4.528 4.51-4.55l-.03-.01zm3.76.09h1.87v3.71h3.47v-3.71h1.84v8.92h-1.84v-3.81h-3.47v3.81h-1.87v-8.92zM97.78 63.46c0 1.646-1.354 3-3 3s-3-1.354-3-3V50.54c0-1.646 1.354-3 3-3s3 1.354 3 3v12.92zm-72-2.99c0 1.646-1.354 3-3 3s-3-1.354-3-3V37.54c0-1.646 1.354-3 3-3s3 1.354 3 3v22.93zm8 34.99c0 1.646-1.354 3-3 3s-3-1.354-3-3V67.54c0-1.646 1.354-3 3-3s3 1.354 3 3v27.92zm0-46.46c0 1.646-1.354 3-3 3s-3-1.354-3-3V30.54c0-1.646 1.354-3 3-3s3 1.354 3 3V49zm8 38.46c0 1.646-1.354 3-3 3s-3-1.354-3-3V73.54c0-1.646 1.354-3 3-3s3 1.354 3 3v13.92zm0-49c0 1.646-1.354 3-3 3s-3-1.354-3-3V26.54c0-1.646 1.354-3 3-3s3 1.354 3 3v11.92zm24 38c0 1.646-1.354 3-3 3s-3-1.354-3-3V60.53c0-1.646 1.354-3 3-3s3 1.354 3 3v15.93zm8 19c0 1.646-1.354 3-3 3s-3-1.354-3-3V57.53c0-1.646 1.354-3 3-3s3 1.354 3 3v37.93zm8-7c0 1.646-1.354 3-3 3s-3-1.354-3-3V63c0-1.646 1.354-3 3-3s3 1.354 3 3v25.46zm0-37.99c0 1.646-1.354 3-3 3s-3-1.354-3-3V31.54c0-1.646 1.354-3 3-3s3 1.354 3 3v18.93zm8 5.99c0 1.646-1.354 3-3 3s-3-1.354-3-3V37.53c0-1.646 1.354-3 3-3s3 1.354 3 3v18.93z"/>
    </g>
    <g class="lightBlue">
      <path d="M109 64.71C109 53.58 116.24 47 126 47c4.55 0 8.92 1.06 10.76 1.15l-.55 10.26h-4.92l-1.57-7c-.5-.55-1.75-1.1-4.23-1.1-4.55 0-7.64 4.5-7.64 13.84 0 8.52 2.53 14.63 7.82 14.63 2.76 0 3.78-.64 4.56-1.42l2.07-4.93 4.51.42-.83 7.5c-3.13.27-5 1.75-10.77 1.75C114.36 82 109 75.15 109 64.71zm33.52-13.53l-3.59-.64v-3.22h25.17l.6 8.14h-3.64l-1.61-4.65-9.06-.46v12l5.61-.14.83-3.77H160V70h-3.17l-.78-4-5.66-.14v12.47l10.07-.65 2.81-5.93 3.91 1.1-1.1 8.65H139v-3l3.54-.46-.02-26.86zm29.97 0l-3.41-.64v-3.22h7.5c2.07 0 4.19-.28 7.68-.28 10.12.05 13.07 3.73 13.07 10.26 0 7.78-4.92 12.42-13.8 12.42-1.34 0-2.81-.09-3.18-.14V78l6.08.5v3h-17.49v-3l3.55-.46V51.18zm10.85 15.46c3.32 0 6-2.16 6-9.15 0-5.2-2.07-7.37-6-7.37a16.324 16.324 0 0 0-3 .28v16c.988.19 1.994.27 3 .24zm15.6 11.82l3.55-.46V51.14l-3.36-.65v-3.17h7.08c2.67 0 4.51-.32 7.73-.32 9.8 0 13.34 2.71 13.34 9.15 0 3.77-1.93 8.14-6.53 9.57 5.29 1.93 7 11.78 9.2 12.33l1.34.41v3h-8.75c-2.25 0-4.6-13.2-8-14.54h-4.14V78l4.1.46v3h-15.56v-3zm20-22c0-4.32-1.52-6.39-5.71-6.39a15.233 15.233 0 0 0-2.9.23v13.53c1.178.141 2.365.188 3.55.14 3.12.03 5.12-2.34 5.12-7.5l-.06-.01zm-161.16 14c0 1.646-1.354 3-3 3s-3-1.354-3-3v-6.92c0-1.646 1.354-3 3-3s3 1.354 3 3v6.92zm-32 9c0 1.646-1.354 3-3 3s-3-1.354-3-3v-5.92c0-1.646 1.354-3 3-3s3 1.354 3 3v5.92zm-8-23c0 1.646-1.354 3-3 3s-3-1.354-3-3v-5.92c0-1.646 1.354-3 3-3s3 1.354 3 3v5.92zm32-28c0 1.646-1.354 3-3 3s-3-1.354-3-3v-3.92c0-1.646 1.354-3 3-3s3 1.354 3 3v3.92zm40 50c0 1.646-1.354 3-3 3s-3-1.354-3-3v-6.92c0-1.646 1.354-3 3-3s3 1.354 3 3v6.92zm-16-34c0 1.646-1.354 3-3 3s-3-1.354-3-3v-3.92c0-1.646 1.354-3 3-3s3 1.354 3 3v3.92z"/>
      <circle cx="54.78" cy="23.5" r="3"/>
      <circle cx="46.78" cy="78.5" r="3"/>
    </g>
  </symbol>
  <symbol id="logos-cepr-large" viewBox="0 0 620 200">
    <g class="darkBlue">
      <path d="M483 69.23a13 13 0 0 1 3.44.49l-.38 2.33a5.152 5.152 0 0 0-2.89-.72c-2.05 0-3.64 1.56-3.64 4.22 0 2.66 1.44 4.54 3.84 4.54a6.09 6.09 0 0 0 2.93-.8v2.18a7.8 7.8 0 0 1-3.19.66c-3.89 0-6.31-2.59-6.31-6.41.03-4.19 2.78-6.49 6.2-6.49zm5.34.14H496v2h-5v3.14h3.89v2H491v3.39h5.61V82h-8.24l-.03-12.63zm10.17 0H501l4.7 7.43 1 1.89-.24-3v-6.32h2.45V82h-2.65l-4.5-7.15-1-2 .29 3V82h-2.45l-.09-12.63zm15.82 2.02h-3.62v-2h9.87v2H517V82h-2.65l-.02-10.61zm7.87-2.02h7.7v2h-5.06v3.14h3.88v2h-3.88v3.39h5.6V82h-8.24V69.37zm10.17 0h1.22c.77 0 1.54-.14 3.36-.14 2.36 0 4.54.84 4.54 3.82 0 2-.78 3.15-2.1 3.68 1 .86 1.53 2.92 2.36 4.36l.52.91h-2.93a5.677 5.677 0 0 1-.47-.91c-.71-1.48-1-3.88-2.19-3.89h-1.67V82h-2.64V69.37zm4.38 6a2.01 2.01 0 0 0 2.18-2.25c0-1-.33-1.93-2.3-1.93a7.467 7.467 0 0 0-1.62.15v4c.35.03 1.3.04 1.74.04v-.01zm-59.19 13h7.66v2h-5v3.32h3.67v2h-3.67V101h-2.67l.01-12.63zm14.38-.14c3.5-.1 5.69 2.54 5.61 6.44-.08 4.36-2.49 6.4-5.86 6.46-3.63.08-5.82-2.63-5.75-6.51.06-4.38 2.58-6.29 6-6.39zm2.88 6.35c0-2.48-1-4.34-2.94-4.34-1.76 0-3.21 1.22-3.21 4.47 0 2.49 1 4.46 3.08 4.46 1.88 0 3.07-1.42 3.07-4.59zm4.57-6.21h1.22c.77 0 1.54-.14 3.36-.14 2.36 0 4.54.84 4.54 3.82 0 2-.78 3.15-2.1 3.68 1 .86 1.53 2.92 2.36 4.36l.52.91h-2.93a5.677 5.677 0 0 1-.47-.91c-.71-1.48-1-3.88-2.19-3.89h-1.67v4.8h-2.64V88.37zm4.38 6a2.01 2.01 0 0 0 2.23-2.24c0-1-.33-1.93-2.3-1.93a7.467 7.467 0 0 0-1.62.15v4c.3.02 1.25.03 1.69.03v-.01zm11.42-6h7.7v2h-5.06v3.14h3.88v2h-3.88v3.39h5.6v2.1h-8.24V88.37zm15.43-.14c1.16.01 2.314.174 3.43.49l-.38 2.33a5.152 5.152 0 0 0-2.89-.72c-2 0-3.63 1.56-3.63 4.22 0 2.66 1.43 4.54 3.83 4.54a6.053 6.053 0 0 0 2.93-.8v2.18a7.768 7.768 0 0 1-3.19.66c-3.89 0-6.31-2.59-6.31-6.41.01-4.19 2.76-6.49 6.21-6.49zm10.44 0c3.49-.1 5.68 2.54 5.61 6.44-.09 4.36-2.49 6.4-5.86 6.46-3.64.08-5.83-2.63-5.76-6.51.09-4.38 2.59-6.29 6.01-6.39zm2.88 6.35c0-2.48-1-4.34-2.94-4.34-1.76 0-3.21 1.22-3.21 4.47 0 2.49 1 4.46 3.08 4.46 1.87 0 3.07-1.42 3.07-4.59zm4.99-6.21h2.45l4.71 7.43.95 1.89-.24-3v-6.32h2.46V101h-2.65l-4.51-7.15-1-2 .29 3V101h-2.46V88.37zm18.17-.14c3.49-.1 5.69 2.54 5.61 6.44-.08 4.36-2.49 6.4-5.86 6.46-3.64.08-5.83-2.63-5.75-6.51.08-4.38 2.58-6.29 6-6.39zm2.9 6.35c0-2.48-1-4.34-2.94-4.34-1.76 0-3.21 1.22-3.21 4.47 0 2.49 1 4.46 3.08 4.46 1.85 0 3.07-1.42 3.07-4.59zm5.5-6.21h3.71L580.9 95l.64 2.79L582 95l1.52-6.64h3.6l1.53 12.64h-2.59l-.62-6.77-.23-3.87-.93 3.87-1.81 6.9h-2.09l-2-6.9-.94-3.87-.3 3.87-.54 6.77h-2.44l1.34-12.63zM590.87 88.37h2.65V101h-2.65zM601.75 88.23a13 13 0 0 1 3.44.49l-.38 2.33a5.152 5.152 0 0 0-2.89-.72c-2 0-3.64 1.56-3.64 4.22 0 2.66 1.44 4.54 3.84 4.54a6.09 6.09 0 0 0 2.93-.8v2.18a7.768 7.768 0 0 1-3.19.66c-3.89 0-6.31-2.59-6.31-6.41.01-4.19 2.76-6.49 6.2-6.49zm-121.21 19h2.67l4.71 12.77H485l-.85-2.67h-4.65l-.83 2.67h-2.83l4.7-12.77zm3 8.2l-1.37-4.34-.36-1.3-.36 1.3-1.36 4.34h3.45zm5.99-8.06H492l4.71 7.43 1 1.89-.24-3v-6.28h2.45V120h-2.64l-4.51-7.15-1-2 .29 3V120h-2.45l-.08-12.63zm12.67 0h1.25c.74 0 1.69-.14 3.07-.14 4.23 0 6.19 2.25 6.19 6.12 0 4.31-2.5 6.82-6.39 6.78-1.18 0-2.08-.13-2.84-.13h-1.28v-12.63zm4.36 10.74c2 0 3.36-1.33 3.36-4.48 0-3.15-1.19-4.4-3.65-4.4-.52 0-1.1.09-1.41.11V118a7.747 7.747 0 0 0 1.7.11zM519 107.37h.79c1.4 0 2.53-.14 3.73-.14 2.89 0 4.62 1.24 4.62 4.36 0 2.89-1.79 4.58-5.06 4.58h-1.44V120H519v-12.63zm4 6.8c1.29 0 2.5-.53 2.5-2.61a2.18 2.18 0 0 0-2.52-2.41 9.55 9.55 0 0 0-1.35.12v4.84c.455.045.913.065 1.37.06zm12.48-6.94c3.49-.1 5.69 2.54 5.61 6.44-.08 4.36-2.49 6.4-5.86 6.46-3.64.08-5.83-2.63-5.75-6.51.08-4.38 2.58-6.29 6-6.39zm2.88 6.35c0-2.48-1-4.34-2.94-4.34-1.76 0-3.21 1.22-3.21 4.47 0 2.49 1 4.46 3.08 4.46 1.88 0 3.07-1.42 3.07-4.59zm4.57-6.21h2.64V118h4.55v2h-7.19v-12.63zM552.1 107.37h2.66V120h-2.66zM563.3 107.23c1.16.01 2.314.174 3.43.49l-.38 2.33a5.152 5.152 0 0 0-2.89-.72c-2.05 0-3.63 1.56-3.63 4.22 0 2.66 1.43 4.54 3.83 4.54a6.053 6.053 0 0 0 2.93-.8v2.18a7.768 7.768 0 0 1-3.19.66c-3.89 0-6.31-2.59-6.31-6.41.01-4.19 2.76-6.49 6.21-6.49zm8.5 8.33l-4.24-8.19h2.91l2.32 4.89.37.95.31-.95 2.39-4.89h2.83l-4.24 8.21V120h-2.65v-4.44zm-94.24 10.81h1.22c.77 0 1.54-.14 3.35-.14 2.37 0 4.55.84 4.55 3.82 0 2-.78 3.15-2.1 3.68 1 .86 1.53 2.92 2.36 4.36l.52.91h-2.93a5.677 5.677 0 0 1-.47-.91c-.71-1.48-1-3.88-2.19-3.89h-1.67v4.8h-2.64v-12.63zm4.38 6a2.01 2.01 0 0 0 2.18-2.25c0-1-.33-1.93-2.3-1.93a7.344 7.344 0 0 0-1.62.15v4c.35.03 1.3.04 1.74.04v-.01zm6.95-6h7.71v2h-5.07v3.14h3.89v2h-3.89v3.39h5.61v2.1h-8.25v-12.63zm10.26 9.9c1.003.526 2.118.8 3.25.8 1.41 0 1.85-.44 1.85-1.29 0-.85-.5-1.25-2.45-2.22-1.49-.74-3.13-1.85-3.13-3.92 0-2.49 2-3.41 4.41-3.41a6.718 6.718 0 0 1 3.26.73l-.43 2.06a5.007 5.007 0 0 0-2.76-.81c-1.4 0-1.89.51-1.89 1.29s.64 1.3 2.18 2.11c2 1 3.47 1.95 3.47 4 0 2.28-1.76 3.52-4.34 3.52a9.374 9.374 0 0 1-3.79-.74l.37-2.12zm9.43-9.9h7.7v2h-5.06v3.14h3.88v2h-3.88v3.39h5.6v2.1h-8.24v-12.63zm14.42-.14h2.67l4.75 12.77h-2.88l-.85-2.67H522l-.83 2.67h-2.84l4.67-12.77zm3 8.2l-1.37-4.34-.35-1.3-.37 1.3-1.35 4.34H526zm5.85-8.06h1.22c.78 0 1.54-.14 3.36-.14 2.36 0 4.55.84 4.55 3.82 0 2-.78 3.15-2.1 3.68 1 .86 1.52 2.92 2.35 4.36l.53.91h-2.94a5.677 5.677 0 0 1-.47-.91c-.71-1.48-1-3.88-2.19-3.89h-1.67v4.8h-2.64v-12.63zm4.38 6a2.01 2.01 0 0 0 2.18-2.25c0-1-.33-1.93-2.3-1.93a7.467 7.467 0 0 0-1.62.15v4c.35.03 1.31.04 1.74.04v-.01zm12.67-6.14a13 13 0 0 1 3.44.49l-.38 2.33a5.152 5.152 0 0 0-2.89-.72c-2.05 0-3.64 1.56-3.64 4.22 0 2.66 1.44 4.54 3.84 4.54a6.09 6.09 0 0 0 2.93-.8v2.18a7.75 7.75 0 0 1-3.18.66c-3.9 0-6.31-2.59-6.31-6.41 0-4.19 2.75-6.49 6.19-6.49zm5.31.14h2.64v5.24h4.92v-5.24h2.61V139h-2.61v-5.4h-4.92v5.4h-2.64v-12.63zM192 103c0 3.292-2.708 6-6 6s-6-2.708-6-6V77.08c0-3.292 2.708-6 6-6s6 2.708 6 6V103zM48 95.93c0 3.292-2.708 6-6 6s-6-2.708-6-6V51.07c0-3.292 2.708-6 6-6s6 2.708 6 6v44.86zm16 70.99c0 3.292-2.708 6-6 6s-6-2.708-6-6v-56.84c0-3.292 2.708-6 6-6s6 2.708 6 6v56.84zM64 74c0 3.292-2.708 6-6 6s-6-2.708-6-6V37.08c0-3.292 2.708-6 6-6s6 2.708 6 6V74zm16 78c0 3.292-2.708 6-6 6s-6-2.708-6-6v-29.92c0-3.292 2.708-6 6-6s6 2.708 6 6V152zm0-99.07c0 3.292-2.708 6-6 6s-6-2.708-6-6V29.08c0-3.292 2.708-6 6-6s6 2.708 6 6v23.85zm48 76c0 3.292-2.708 6-6 6s-6-2.708-6-6V96.07c0-3.292 2.708-6 6-6s6 2.708 6 6v32.86zm16 39.99c0 3.292-2.708 6-6 6s-6-2.708-6-6V91.07c0-3.292 2.708-6 6-6s6 2.708 6 6v77.85zm16-16c0 3.292-2.708 6-6 6s-6-2.708-6-6v-50.85c0-3.292 2.708-6 6-6s6 2.708 6 6v50.85zm0-75.99c0 3.292-2.708 6-6 6s-6-2.708-6-6V39.08c0-3.292 2.708-6 6-6s6 2.708 6 6v37.85zm16 10.99c0 3.292-2.708 6-6 6s-6-2.708-6-6V51.07c0-3.292 2.708-6 6-6s6 2.708 6 6v36.85z"/>
    </g>
    <g class="lightBlue">
      <path d="M215.47 104.32c0-23 15-36.67 35.15-36.67 9.41 0 18.43 2.19 22.23 2.38l-1.14 21.18h-10.17l-3.22-14.53c-1.05-1.14-3.61-2.28-8.74-2.28-9.41 0-15.78 9.31-15.78 28.59 0 17.58 5.23 30.22 16.16 30.22 5.7 0 7.79-1.33 9.4-3l4.28-10.17 9.36.96-1.71 15.48C264.78 137 260.88 140 249 140c-22.42 0-33.53-14.11-33.53-35.68zm68.67-27.93l-7.41-1.33v-6.65h52l1.23 16.82h-7.5l-3.33-9.6-18.71-.95v24.7L312 99.1l1.71-7.79h6.56v23.84h-6.56l-1.62-8.26-11.68-.29v25.85l20.8-1.33 5.8-12.26 8.07 2.28-2.29 17.86h-56v-6.27l7.31-.95.04-55.39zm61.29 0l-7-1.33v-6.65h15.48c4.28 0 8.65-.57 15.87-.57 20.9.1 27 7.7 27 21.19 0 16-10.17 25.65-28.5 25.65-2.76 0-5.8-.19-6.56-.29v17.29l12.54 1V139h-36.1v-6.27l7.32-.95-.05-55.39zm22.42 31.92c6.84 0 12.35-4.46 12.35-18.9 0-10.74-4.28-15.2-12.35-15.2a33.73 33.73 0 0 0-6.27.57v33.06c2.066.388 4.169.545 6.27.47zm31.58 24.42l7.31-.95V76.3l-6.93-1.3v-6.59h14.63c5.51 0 9.31-.66 16-.66 20.23 0 27.55 5.6 27.55 18.9 0 7.79-4 16.82-13.49 19.77 10.92 4 14.53 24.32 19 25.46l2.75.85V139h-18c-4.65 0-9.5-27.27-16.62-30H423v22.8l8.45.95V139h-32l-.02-6.27zm41.32-45.41c0-8.93-3.13-13.21-11.78-13.21a30.549 30.549 0 0 0-6 .48v27.93c1.42.38 5.89.28 7.31.28 6.48 0 10.47-4.8 10.47-15.48zM112 116.93c0 3.292-2.708 6-6 6s-6-2.708-6-6v-12.86c0-3.292 2.708-6 6-6s6 2.708 6 6v12.86zm-64 16.99c0 3.292-2.708 6-6 6s-6-2.708-6-6v-10.84c0-3.292 2.708-6 6-6s6 2.708 6 6v10.84zm-16-44c0 3.292-2.708 6-6 6s-6-2.708-6-6V78.08c0-3.292 2.708-6 6-6s6 2.708 6 6v11.84zm64-58c0 3.292-2.708 6-6 6s-6-2.708-6-6v-7.84c0-3.292 2.708-6 6-6s6 2.708 6 6v7.84zm80 102.01c0 3.292-2.708 6-6 6s-6-2.708-6-6V119c0-3.292 2.708-6 6-6s6 2.708 6 6v14.93zm-32-68c0 3.292-2.708 6-6 6s-6-2.708-6-6v-7.86c0-3.292 2.708-6 6-6s6 2.708 6 6v7.86z"/>
      <circle cx="106" cy="23" r="6"/>
      <circle cx="90" cy="133" r="6"/>
    </g>
    <g class="grey">
      <circle cx="122" cy="24" r="6"/>
      <circle cx="90" cy="180" r="6"/>
      <circle cx="106" cy="181" r="6"/>
      <path d="M80 170.08c0-3.292-2.708-6-6-6s-6 2.708-6 6v4.84c0 3.292 2.708 6 6 6s6-2.708 6-6v-4.84z"/>
    </g>
  </symbol>
</svg>
