<?xml version="1.0" encoding="UTF-8" standalone="no"?><!DOCTYPE svg PUBLIC "-//W3C//DTD SVG 1.1//EN" "http://www.w3.org/Graphics/SVG/1.1/DTD/svg11.dtd"><svg width="100%" height="100%" viewBox="0 0 102 29" version="1.1" xmlns="http://www.w3.org/2000/svg" xmlns:xlink="http://www.w3.org/1999/xlink" xml:space="preserve" xmlns:serif="http://www.serif.com/" style="fill-rule:evenodd;clip-rule:evenodd;stroke-linejoin:round;stroke-miterlimit:1.41421;">
    <g class="darkBlue"><path class="darkBlue" d="M0,14.67c0,-9.2 6,-14.67 14.06,-14.67c3.76,0 7.37,0.87 8.94,1l-0.46,8.47l-4.11,0l-1.3,-5.81c-0.41,-0.46 -1.44,-0.91 -3.49,-0.91c-3.76,0 -6.31,3.72 -6.31,11.43c0,7 2.09,12.09 6.46,12.09c2.28,0 3.12,-0.54 3.76,-1.18l1.71,-4.09l3.73,0.35l-0.69,6.19c-2.58,0.23 -4.14,1.44 -8.89,1.44c-8.96,0.02 -13.41,-5.69 -13.41,-14.31Z M27.79,3.5l-3,-0.54l0,-2.66l20.83,0l0.49,6.7l-3,0l-1.33,-3.81l-7.49,-0.38l0,9.88l4.64,-0.11l0.68,-3.12l2.62,0l0,9.54l-2.62,0l-0.61,-3.31l-4.68,-0.11l0,10.33l8.32,-0.53l2.32,-4.9l3.23,0.91l-0.91,7.14l-22.41,0l0,-2.53l2.92,-0.38l0,-22.12Z M52.63,3.5l-2.81,-0.5l0,-2.7l6.18,0c1.71,0 3.46,-0.22 6.35,-0.22c8.36,0 10.79,3.07 10.79,8.47c0,6.42 -4.07,10.26 -11.4,10.26c-1.1,0 -2.32,-0.08 -2.62,-0.12l0,6.92l5,0.42l0,2.5l-14.41,0l0,-2.53l2.92,-0.38l0,-22.12Zm9,12.76c2.73,0 4.94,-1.78 4.94,-7.56c0,-4.29 -1.71,-6.08 -4.94,-6.08c-0.842,-0.004 -1.683,0.073 -2.51,0.23l0,13.22c0.817,0.156 1.649,0.22 2.48,0.19l0.03,0Z M74.58,26l2.93,-0.38l0,-22.16l-2.78,-0.53l0,-2.63l5.85,0c2.21,0 3.73,-0.3 6.42,-0.3c8.06,0 11,2.28 11,7.6c0.147,3.528 -2.059,6.755 -5.4,7.9c4.37,1.6 5.81,9.73 7.6,10.18l1.1,0.35l0,2.5l-7.23,0c-1.86,0 -3.8,-10.9 -6.65,-12l-3.42,0l0,9.12l3.38,0.38l0,2.5l-12.8,0l0,-2.53Zm16.53,-18.13c0,-3.58 -1.26,-5.29 -4.71,-5.29c-0.804,-0.011 -1.608,0.053 -2.4,0.19l0,11.17c0.972,0.12 1.952,0.16 2.93,0.12c2.58,0 4.18,-1.94 4.18,-6.19Z"/></g></svg>