<?xml version="1.0" encoding="utf-8"?>
<!-- Generator: Adobe Illustrator 22.0.0, SVG Export Plug-In . SVG Version: 6.00 Build 0)  -->
<svg version="1.1" id="Layer_1" xmlns="http://www.w3.org/2000/svg" xmlns:xlink="http://www.w3.org/1999/xlink" x="0px" y="0px"
	 viewBox="0 0 45 50" style="enable-background:new 0 0 45 50;" xml:space="preserve">
<style type="text/css">
	.st0{fill:#FFFFFF;}
</style>
<g id="cepr-icon">
	<path class="st0" d="M12.6,33.6c0,0.9-0.8,1.7-1.7,1.7c-0.9,0-1.7-0.8-1.7-1.7v-2.3c0-0.9,0.8-1.7,1.7-1.7c0.9,0,1.7,0.8,1.7,1.7
		V33.6z"/>
	<path class="st0" d="M21.9,36c0,0.9-0.8,1.7-1.7,1.7s-1.7-0.8-1.7-1.7v-4.6c0-0.9,0.8-1.7,1.7-1.7s1.7,0.8,1.7,1.7V36z"/>
	<path class="st0" d="M21.9,12.1c0,0.9-0.8,1.7-1.7,1.7s-1.7-0.8-1.7-1.7V9.2c0-0.9,0.8-1.7,1.7-1.7s1.7,0.8,1.7,1.7V12.1z"/>
	<path class="st0" d="M8,20.9c0,0.9-0.8,1.7-1.7,1.7s-1.7-0.8-1.7-1.7v-1.7c0-0.9,0.8-1.7,1.7-1.7S8,18.2,8,19.1V20.9z"/>
	<path class="st0" d="M12.6,23.2c0,0.9-0.8,1.7-1.7,1.7c-0.9,0-1.7-0.8-1.7-1.7v-9.3c0-0.9,0.8-1.7,1.7-1.7c0.9,0,1.7,0.8,1.7,1.7
		l0,0V23.2z"/>
	<path class="st0" d="M17.3,41.8c0,0.9-0.8,1.7-1.7,1.7s-1.7-0.8-1.7-1.7V27.8c0-0.9,0.8-1.7,1.7-1.7s1.7,0.8,1.7,1.7l0,0V41.8z"/>
	<path class="st0" d="M17.3,18c0,0.9-0.8,1.7-1.7,1.7s-1.7-0.8-1.7-1.7v-7c0-0.9,0.8-1.7,1.7-1.7s1.7,0.8,1.7,1.7V18z"/>
	<path class="st0" d="M26.6,30.1c0,0.9-0.8,1.7-1.7,1.7s-1.7-0.8-1.7-1.7v-3.5c0-0.9,0.8-1.7,1.7-1.7s1.7,0.8,1.7,1.7V30.1z"/>
	<path class="st0" d="M31.2,38.3c0,0.9-0.8,1.7-1.7,1.7s-1.7-0.8-1.7-1.7V23.8c0-0.9,0.8-1.7,1.7-1.7s1.7,0.8,1.7,1.7V38.3z"/>
	<path class="st0" d="M35.9,32.5c0,0.9-0.8,1.7-1.7,1.7s-1.7-0.8-1.7-1.7v-5.8c0-0.9,0.8-1.7,1.7-1.7s1.7,0.8,1.7,1.7V32.5z"/>
	<path class="st0" d="M35.9,20.9c0,0.9-0.8,1.7-1.7,1.7s-1.7-0.8-1.7-1.7v-6.4c0-0.9,0.8-1.7,1.7-1.7s1.7,0.8,1.7,1.7V20.9z"/>
	<path class="st0" d="M31.2,18.5c0,0.9-0.8,1.7-1.7,1.7s-1.7-0.8-1.7-1.7v-2.3c0-0.9,0.8-1.7,1.7-1.7s1.7,0.8,1.7,1.7V18.5z"/>
	<path class="st0" d="M40.5,26.1c0,0.9-0.8,1.7-1.7,1.7S37,27,37,26.1v-5.8c0-0.9,0.8-1.7,1.7-1.7s1.7,0.8,1.7,1.7V26.1z"/>
	<circle class="st0" cx="24.8" cy="9.2" r="1.7"/>
</g>
</svg>
