<svg width="100%" height="100%" viewBox="0 0 160 93" version="1.1" xmlns="http://www.w3.org/2000/svg" xmlns:xlink="http://www.w3.org/1999/xlink" xml:space="preserve" style="fill-rule:evenodd;clip-rule:evenodd;"><g><path d="M150.635,2c4.04,0.002 7.364,3.325 7.366,7.365c-0.002,4.04 -3.326,7.363 -7.366,7.365c-4.04,-0.002 -7.364,-3.325 -7.366,-7.365c0.002,-4.04 3.326,-7.363 7.366,-7.365Z" style="fill:none;stroke:#ffd000;stroke-width:3px;"/><path d="M47.618,36.339c4.039,0.002 7.363,3.326 7.365,7.365c-0.002,4.039 -3.326,7.363 -7.365,7.365c-4.039,-0.002 -7.363,-3.326 -7.365,-7.365c0.002,-4.039 3.326,-7.363 7.365,-7.365Z" style="fill:#ffd000;fill-rule:nonzero;"/><path d="M78.592,74.678l3.36,3.365l68.683,-68.678" style="fill:none;stroke:#001b79;stroke-width:2px;stroke-linecap:round;"/><path d="M81.956,64.052c7.673,0.005 13.986,6.318 13.991,13.991c-0.005,7.673 -6.318,13.986 -13.991,13.991c-7.673,-0.005 -13.986,-6.318 -13.991,-13.991c0.005,-7.673 6.318,-13.986 13.991,-13.991Z" style="fill:none;stroke:#009481;stroke-width:1px;stroke-dasharray:7,15,4,4;stroke-dashoffset:34;"/><path d="M81.956,75.296c1.507,0.001 2.747,1.241 2.748,2.748c-0.001,1.507 -1.241,2.747 -2.748,2.748c-1.507,-0.001 -2.747,-1.242 -2.747,-2.749c0.001,-1.507 1.24,-2.746 2.747,-2.747Z" style="fill:#004ea6;fill-rule:nonzero;"/><path d="M81.957,70.678c4.039,0.002 7.363,3.326 7.365,7.365c-0.002,4.039 -3.326,7.363 -7.365,7.365c-4.039,-0.002 -7.363,-3.325 -7.366,-7.364c0.002,-4.04 3.326,-7.364 7.366,-7.366Z" style="fill:none;stroke:#ff5e00;stroke-width:3px;"/><path d="M-21.06,95.213l66.761,-50.071c1.095,-0.821 2.643,-0.711 3.611,0.257l29.28,29.275" style="fill:none;stroke:#001b79;stroke-width:2px;"/><path d="M47.617,39.98c2.043,0.001 3.724,1.682 3.725,3.725c-0.001,2.043 -1.682,3.724 -3.725,3.725c-2.043,-0.001 -3.724,-1.682 -3.725,-3.725c0.001,-2.043 1.682,-3.724 3.725,-3.725Z" style="fill:#fff;fill-rule:nonzero;"/></g></svg>