<svg viewBox="0 0 808 344" xmlns="http://www.w3.org/2000/svg" fill-rule="evenodd" clip-rule="evenodd" stroke-linejoin="round" stroke-miterlimit="1.4">
  <path d="M641.3-78.5c0-.4-1.7-.7-3.6-.7-6.4.1-6.4.5-13 .7l-6.3.2-6.4-.2c-6.4-.2-6.4-.7-12.8-1-6.4-.3-6.4 0-13-.5l-6.3-.6c-1.5-.1-3.2-.1-6.4-.7-6.4-1-6.4-.6-12.8-1.5l-6.3-1c-1.5-.3-22.5-1.3-20.3-.9 6.4 1.2 6.6.6 13 1.7 3.1.6 4.8 1 6.3 1.1l6.4.8c6.4.7 6.4 1.1 13 1.9 2.1.2 4.3.4 6.5.3 1.7 0 3.2.2 6.6.4 6.6.4 6.4.8 13 1l13 .2c2.1 0 4.3 0 6.5-.2l6.4-.6c6.4-.4 6.5-.4 13-.6 1.8.8 3.5.6 3.5.2zm33.2-4.5c-2.4.2-5 .8-8 1.1l-4.6.6a28 28 0 0 0-4.1.4c-4.5.5-6.2 1.1-6 1.5 0 .3 1.9.3 6.4 0l4-.2c1.4-.1 3-.3 4.4-.6l8.3-1.3c4.3-.7 6.2-1.5 6.2-1.7-.2-.4-2.3-.2-6.6.2zm42.6 10.3c-.2-.3-.7-.5-1.5-.3l-5.4 1.3-5.5 1-5.4 1.2-5.6 1-5.5.9-5.4 1.1-5.7.8c-2.8.3-2.8.5-5.4 1l-5.6.8c-2.8.4-2.8 0-5.7.2-2.8.4-2.8.8-5.4 1l-5.6.4c-2.9.1-2.9-.2-5.7 0-2.8.1-2.8.3-5.6.5l-5.6.4-5.7.2h-5.6l-5.6.2c-2.8 0-2.8.2-5.7.2-2.8 0-2.8-.4-5.6-.4l-5.6-.2c-2.8-.2-2.8 0-5.7-.2l-5.6-.4-5.6-.5c-2.8-.2-2.8.2-5.7-.2-2.8-.2-2.8-.4-5.6-.8s-2.8-.2-5.6-.5c-2.8-.4-2.8-.2-5.7-.6-1.8-.3-3.6-.6-5.4-1.1-2.8-.4-2.8-.6-5.4-1-2.9-.3-2.9-.2-5.7-.7l-5.4-1c-2.8-.5-2.6-.9-5.5-1.6-2.8-.6-2.8-.4-5.4-1-2.8-.5-2.6-1-5.4-1.7-2.7-.7-2.9-.3-5.5-1l-5.2-1.6-5.5-1.5-5.4-1.5c-2.7-.8-2.7-.6-5.5-1.5l-5.2-1.9-5.3-1.9c-2.6-.9-14-1.8-11.4-.9 2.6 1 2.8.6 5.4 1.7 2.6 1 2.6 1.1 5.3 2 2.6 1 2.6 1.2 5.2 2.1 2.6 1 2.6 1 5.3 1.7l5.2 1.9c2.7.7 2.7 1 5.5 1.7l5.4 1.5 5.5 1.3a204.8 204.8 0 0 0 10.8 2.8c2.9.6 2.9.2 5.7 1 2.8.5 2.8.7 5.4 1.3l5.7.9c2.8.6 2.6 1 5.4 1.3l5.6.6 5.7 1c2.8.3 2.8.1 5.6.5s2.8.4 5.6.5c2.8.4 2.8.2 5.7.6l5.6.2c2.8.2 2.8.7 5.6 1l5.7.1 5.6.2c2.8.2 2.8-.2 5.6-.2l5.6-.2c2.9 0 2.9.6 5.7.6 2.8 0 2.8-.2 5.6-.4 2.8 0 2.8-.4 5.6-.4 2.9 0 2.9.2 5.7 0l5.6-.3c2.8-.2 2.8.2 5.6-.2 2.9-.2 2.9-.8 5.7-1 2.8-.1 2.8-.1 5.6-.5 2.8-.2 2.8.2 5.6-.2 2.9-.4 2.9-.6 5.7-1 2.8-.3 2.8-.3 5.6-.9 2.8-.4 2.8 0 5.6-.6 2.8-.3 2.8-.5 5.7-.9 2.8-.6 2.8-.7 5.4-1.1l5.6-1c2.9-.5 2.9-.3 5.7-.9l5.4-1.1c2.8-.6 2.8-.8 5.5-1.3l5.4-1.5c.5 0 1-.4 1.1-1zm-157.5 8.9l-10-1.5c-4.8-.8-5-.6-9.9-1.5-3.3-.7-6.5-1.5-9.7-2.5l-9.8-2-9.6-2.9c-4.9-1.3-4.7-1.8-9.4-3.2-3.2-.9-6.3-2-9.4-3.1-4.6-1.7-4.6-1.5-9.3-3.2-4.7-2-15.2-2-10.5-.2l9.3 3.3c4.7 1.5 4.7 2.1 9.4 3.6 4.7 1.7 5 1 9.8 2.5 4.9 1.3 4.7 1.5 9.6 2.8l9.7 2.4 9.8 2.3c3.2.8 6.5 1.5 9.7 2 5 .8 5.1.6 10 1.3l10 1.5c1.3.2 1.8 0 1.8-.3.2-.2-.2-1.2-1.5-1.3zM742.8-80s.2-.2 0-.2c0-.2-1.3-.2-2.2 0l-8.8 2.6-8.9 2.7c-.7.2-1.3.4-1.3.7v.2c0 .2.6.4 1.5.2l9-2.4c3-.8 6-1.6 8.9-2.7 1-.3 1.8-.9 1.8-1zm8.7-3.7a8.3 8.3 0 0 0-3.6 1c-.7.5-2 .8-1.9 1.2.2.4 1.2.6 2.1.4.6 0 1.3-.6 2-.8.8-.1 1.5-.4 2.1-.7.6-.3 1-.8 1.3-1.3-.6-.1-1.4 0-2 .2zm17.3 15.3c.3-.5-1.4-.1-3.2.6L755.4-64c-4.5 1.5-1.5 1.7 1.3.9 3-1 6.2-2.4 9.2-3.6a37 37 0 0 1 2.9-1.7zm9.7-4l4.1-1.6c1.4-.6 2.7-1.1 4.2-1.9 1.3-.5 2.6-1.3 4.1-1.8 1.3-.6 2.6-1.5 4-2.1 1.3-.8 2.8-1.3 4-2l4.2-2.1c1.3-.8-1.5 0-4.1 1.5-1.3.7-2.7 1.3-4.2 1.8l-4 2c-1.6.5-2.9 1.2-4.2 1.8l-4 2-4 2c-2.5 1-4 1.4-3.8 1.8 0 .6 1.3-.4 3.7-1.5zm-31 11c-1.3.4-2 1-2 1.3.2.4 1.3.4 2.4 0 1.3-.4 2.3-1.3 2-1.7.3-.4-1-.2-2.4.4zM569-40.4c1.4.3 2.9.5 4.3.6a36.6 36.6 0 0 1 8.9 1.1c2.2.4 2.2-.2 4.5 0l4.5.4 4.5.4c2.2.1 2.2.7 4.3.7l9 .4c2.3.2 2.3-.4 4.5-.2 2.3 0 2.3.4 4.5.2 2.3 0 2.3-.6 4.5-.6h4.5c2.3 0 2.3.4 4.5.2 2.3-.2 2.3-.4 4.5-.5 2.3-.2 2.3.1 4.5 0 2.3-.2 2.3-.6 4.5-.8 2.3-.2 2.3.2 4.6 0 2.2-.2 2.2-.6 4.5-.8 2.2-.1 2.2.2 4.5-.1 1.4-.4 3-.6 4.5-.8 1.3-.3 2.7-.6 4.1-.7 2-.4 2 0 4.1-.2l4.2-.8c2-.4 2-.2 4-.5l4.2-.8 4.1-1.1 4.2-1 4.1-.7c2-.4 2-.8 4-1.1 2-.6 2-.2 4-.8l4.2-1c.6-.1.6-.9.6-.9 0-.3-.4-.3-.8-.3-1.4.2-2.8.5-4.1.9-2 .4-2 .2-4.1.6-2.1.3-2.1.5-4.2.9l-4.1.8-4.1.7-4.2.8-4 .1c-2.2.2-2.2.8-4.2 1a31 31 0 0 0-4.1.5l-4.2.4-4.1.4-4.5.4c-2.3.2-2.3.5-4.5.7-2.3.2-2.3 0-4.5.2l-4.5.4c-2.3.2-2.3-.2-4.5 0-2.3.2-2.3.4-4.5.5-1.5.2-3 .3-4.5.2l-4.6.2h-9c-1.5 0-3 0-4.5.2-2.2 0-2.2.4-4.3.4-2.2 0-2.2-.4-4.3-.4-2.3 0-2.3.2-4.3.2a33 33 0 0 1-4.3 0c-2.3 0-2.3-.6-4.4-.6a32 32 0 0 1-4.3-.2c-1.4 0-2.9-.1-4.3-.3-2.3-.2-2.3.2-4.5 0-2.3-.2-2-.6-4.3-.8l-4.3-.4c-.6 0-.8.6-1 1-.5-.2-.4 1 .2 1zm-17.3-4.9l-8-1.5c-4-.7-4.2-.3-8.1-1.3-4-1-4-1.3-7.9-2.2l-7.9-1.9-7.9-2.3c-4-1.3-4-.7-7.9-2-3.9-1.3-3.7-1.3-7.7-2.8-3.7-1.3-3.7-1.5-7.5-3-3.7-1.5-3.9-1-7.7-2.5-3.7-1.5-3.5-2-7.3-3.5-4-1.5-4-1.7-7.7-3.4l-7.7-3.2-7.5-3.6c-3.7-1.9-3.7-1.9-7.5-3.5-3.8-2-13.1-2.1-9.6 0 3.8 2 3.6 2.2 7.3 4.3 3.8 1.8 4.2 1.3 8 3.2l7.6 3.5c4 1.7 3.6 2.3 7.5 4 4 1.7 4 1.3 8 2.8 3.9 1.5 3.7 1.9 7.4 3.4 4 1.5 4 1.3 8 2.6l7.8 2.4c4 1.3 4.1.6 8 1.7l8 2.3 8 1.9c4 .9 4 1.5 8 2.2 4 .8 4 .6 8 1.5 4 .8 4 1.1 8 1.7l8.1 1.1c.6 0 1.2-.2 1.5-.7-.1-.4-.3-1.2-1.3-1.2zm163.4-5c2-.6 3.9-1.5 6-2 3-.8 3.2-.7 6.2-1.6 3-.7 3-1.1 6-2 1-.4 2-.6 3.2-.8l1.5-.4c.3-.2 1-.2 1.5-.4l.3-.1.6-.4.2-.2c.4-.6-1-.6-1.5-.6-.7.1-1.4.3-2 .6l-4 1.1c-2 .6-4.1 1.1-6.2 1.5-3 .8-3 1.1-6 1.9-3 .7-3 .7-6.2 1.7-.6.2-1 .7-1.1 1.3v.2c.1.2.9.2 1.5.2zM589.5-21l-6.2-.6c-2.8-.4-6.2-.4-10.4-1-4-.5-9-1-14.6-2a370 370 0 0 1-41.7-9c-15.7-4.3-30.2-10-42-14.5l-13.7-5.6c-3.8-1.7-6.8-2.8-9-4-4.7-1.8-6.6-2.8-6.8-2.4 0 .2 1.9 1.5 6.6 3.8 2.4 1 5.4 2.6 9.2 4.3l13.9 6c12 4.7 25.9 10.1 41.6 14.4 14 3.8 28.2 6.8 42.5 8.9 5.6.7 10.7 1.1 14.8 1.7 4.1.3 7.5.3 10.3.5a79.8 79.8 0 0 0 8 0c-.5-.4-1-.4-2.5-.5zm238.2-57.1A363 363 0 0 1 799-64.2a180 180 0 0 0-8.1 3.7l-5.4 2.5a11 11 0 0 1-1.5.7l1.5-.5 5.6-2.3 8.3-3.6 9.9-4.7c6.8-3.5 13.5-6.9 18.4-9.7l8.3-4.3-8.3 4.3zm-855.5-4.7c.8-.4 3.2-1.7 1-.6l-1 .6zm764.4 42.2l-4.3 1.3-13.5 3.6c-3.2 1-6.4 1.5-10 2.3-3.5.7-7 1.7-11.4 2.6-4.1 1-7.9 1.7-11.3 2.4l-9.7 1.7c-2.5.4-5.3 1-7.9 1.3l-7.7 1.2c-2.4.3-4.3.5-5.8.9-.8 0-1.5.2-2.3.4h2l4.8-.4 6.7-.7c2.5-.2 5.1-.6 7.6-1l11.2-1.9c4.2-.7 8.5-1.8 12.8-2.6 4.3-.7 8.4-1.9 12.4-2.8l10.9-2.8 12.4-3.8 3.7-1.3 1.3-.6c-.2-.3-.7-.1-1.9.2zM3-80.2c3.4-1.7 367.7-2.2 370.8-.5 3.3 1.6 6.5 3.3 7.3 3.3.4 0 .2-.2.2-.3-1-1.5-381.1-1.7-389.8 3-1.8 1-4.3 2.4-7 3.7-2.3 1.5-5 2.8-7 4.1-4.2 2.5-6.8 3.8-3.6 2.1l4-2.2a331.6 331.6 0 0 1 25-13.2zM682.2-7.7l-10.7 1.3-7 .8c-2.4.1-5.2.3-8 .7l-4.7.4-4.9.2-10.3.5-11 .2h-11.7c-13.5-.2-28.4-.5-43.2-2.2-14.6-1.7-28.5-2.9-41.5-5.7-15.6-3.2-30-8.6-41.5-12.2-21.4-7-32.3-11.4-32.6-10.5-.2.4 2.4 2 7.8 4.5 2.7 1.3 6 2.8 10.2 4.5l14 5.5c13.6 4.4 27.4 8.1 41.4 11A368.5 368.5 0 0 0 613.3.3c16.2 0 30-1.5 42.2-2.8 5.9-.8 11-1.4 15.3-2.1 4.3-.8 8-1.1 11-1.9 6-1.1 9.2-1.9 9-2 0-.2-3 .1-8.6.9zm143.4-50.1a431 431 0 0 1-47.3 22.5c-3 1.3-5.4 2.4-7.1 3l-2.6 1.1 2.8-.7 7.3-2.7a332.2 332.2 0 0 0 47-23.2zm1.3 17.4l-13.5 6.8-13.1 6.4-7 3.5c-1 .5-2 1-3 1.7a6 6 0 0 1 1.2-.4c.8-.4 1.7-.8 2.6-1 2.3-1 5-2.5 7.7-3.8l12-6a2659.7 2659.7 0 0 0 22.4-11.9l-9.3 4.7zM751.5-7c-1.5-.1-3 .2-4.3.8-.4 0-.6.2-1 .4l-7.5 2.2-7.5 2.6c-2.6 1-4.9 2.3-7.1 2.9-2.8.7-5.7 1-7.7 1.8-4 1.4-5.8 2.3-5.8 2.7 0 .3 2.4 0 6.3-1 2.1-.5 4.7-1.5 7.5-2.2 2.5-.7 5-1.5 7.4-2.5l7.5-2.6 7.1-2.8 1.1-.4c1.2-.6 2.5-.9 3.8-1 .4.1.9 0 1.3-.1.4-.6-.2-.8-1.1-.8zM693.3 9c-2.3.4-4.6.9-6.8 1.5l-8.8 1.9c-2.4.5-4 1.1-4 1.3 0 .2 1.7.4 4.2.2A53.9 53.9 0 0 0 699 9c.2-.4-2.4-.4-5.8 0zm76.6-22.2c-3.4 1.5-6 2.9-5.8 3 .1.2 3-.5 6.3-2 3.4-1.5 6.4-3.2 6.2-3.6 0-.2-3.3 1.1-6.7 2.6zM61.6-83.8c3.2-1-7.7-1-14.1 1.4-12.8 4.9-12.6 5-25 10.5l-12.2 5.6-12 6.2-11.3 6.4c-3.7 2-7.3 4.5-11 6.6l-1.4.7-1.6 1.1 1.5-.7.3-.2.8-.4c4-2 7.7-4.3 11.6-6.2l11.8-6c6.2-2.8 9.2-4.3 12.2-5.8l12.4-5.3c12.6-5 12.6-5 25.2-9.5 6.4-2.3 9.6-3.2 12.8-4.3zm479.8 92l-7.3-1.5-4.9-1L517 2.7c-6-1.5-9-2.6-12-3.4l-12-3.7L481-8.5c-3-1-6-1.8-11.8-4.3a109 109 0 0 1-11.2-5.4c-2.9-1.5-5.7-2.8-11.1-5.7-5.7-2.8-8.5-3.9-11.5-5.2l-4.7-2-6.5-3.6-11-6.2-.5-.2h-.2l-.2-.2c-.3-.2-.7-.4-.9-.8l-2.3-1.5a240 240 0 0 1-6.2-4.3c-2.6-1.9-4.6-3-6.2-4.1l-4.3-2.8c-1.3-1-2.6-1.7-4.3-2.9-1.7-.9-3.7-2.2-6.6-3.7-2.8-1.5-4.8-2.8-6.5-3.8l-4.5-2.4L366-70c-1.7-1-4-2.1-6.8-3.4L347.8-79l-11.6-4.8c-11.8-4.4-13.3-1-1.5 3.3l11.5 5.1c2.8 1.3 5.6 3 11.2 5.6l6.8 3.2c1.7.8 3.2 1.5 4.7 2l4.7 2.2 6.5 3.5 6.4 3.8c1.7 1.1 2.8 2 4.1 3l4.2 3L401-45c2 1.5 4 2.9 6.2 4.1.7.6 1.5 1 2.2 1.5l1.2.6.5.4.6.2c2.8 1.3 5.6 2.8 11.2 6 2.9 1.5 5 2.8 6.6 3.7l4.5 2.5c2.8 1.5 5.5 3.2 11.3 6 3.8 1.9 7.6 3.5 11.6 4.9 3 1 6 2.2 11.9 4.6 5.8 2.5 8.8 3.4 11.8 4.6l11.8 4.3 12 3.7c3 1 6 2 12.2 3.6L529 9c3 1 6.2 1.5 12.4 2.8 4.1 1 24.8 2 0-3.6zM653 15c-2.6.2-6 .6-9.7.8l-9.6.1-9.6.2h-4.7l-4.9-.2H605l-5-.1h-2.4l-2.2-.2-9.6-.8-9.6-.4c-3-.2-6.5-1-9-.7-.2 0 0 .5 0 .5.1.2.3.2.4.2 2.4 1 5.8 1.4 8.6 2 7.7.9 15.2 2.2 23.1 2.5l22 .4 12.6-.4c3.6 0 7.3-.4 10.9-.9 3-.4 6-.4 9-.7 5.6-.8 8.6-1.5 8.6-2-.6-.3-4-.5-9.4-.3zm-68.7 20.8c-2.8-.1-6.2-.5-10.3-.9L559.2 33c-14-2-28-4.7-41.8-8.2-4-1.2-8-2.1-11.7-3.2A382.2 382.2 0 0 1 475 11l-13.8-5.5-5.1-2c-1.5-.6-2.8-1.4-4-1.7-4.6-2.1-6.7-2.7-6.7-2.5-.2.2 1.9 1.3 6.6 3.8l3.9 2a139.8 139.8 0 0 1 11.6 5l7.5 3.1c6 2.5 12.6 4.7 19.6 7.1 3.5 1.2 7.1 2.3 10.9 3.4 3.7 1.2 7.7 2 11.6 3.2 14 3.6 28.3 6.3 42.6 8 5.6.8 10.7 1.2 14.8 1.6l10.4.6a31.2 31.2 0 0 0 7.9-.2c-.4-.4-3-.6-8.5-1.2zM828-21.4l-4 2.2-4.5 2.5c-3.2 1.7-6.5 3.5-10 5.2l-9.7 5-8 3.7-5.5 2.6a11 11 0 0 1-1.5.7l1.5-.5c1.3-.6 3.2-1.3 5.5-2.5l8-3.7 9.8-5c3.6-1.8 6.7-3.8 10-5.5 1.4-1 3-1.7 4.4-2.5 1.4-.6 2.7-1.4 4-2.2l8-4.7-8 4.7zM364-47.7l8.6 4.3 7.4 4c4.5 2.2 7.8 4.3 10.1 5.2 2.6 1.1 4.1 1.9 3.4 1-1-.9-2-1.6-3-2.3-2.5-1.7-5-3.3-7.7-4.7-3.2-1.7-6.6-4-10.3-5.8l-10.6-5.6c-3.5-1.7-7.3-3.4-10.8-5.3l-11-4.9c-14.3-6-29-11.2-44-15.4-33-9-196.4-5.5-241.5 11a352 352 0 0 0-34.9 14.6l-4.9 2.2c-1.5.8-3.2 1.5-4.7 2.4l-8.6 5.1-13.9 7.9a164.8 164.8 0 0 1-14.3 7.1l-.9.4 6-2.6c6.2-2.6 13.7-6.6 20.3-10.1L11-46l13-6C86.6-79.6 238.7-85 242-85c6 .6 12 1.7 18 2.7l9 1.7 9 1.8 8.8 2 8.9 2.5c3 .8 5.8 1.7 8.8 2.7L313-69c5.8 2 11.5 4 17.3 6.2 11 4.5 22.3 9.6 33.6 15zM737.8 18l-4.3 1.3c-3.8 1-8.5 2.5-13.6 3.6l-10 2.4-11.4 2.5c-4 1-7.8 1.5-11.2 2.2-3.2.7-6.5 1.3-9.8 1.7l-7.9 1.3-7.7 1-5.8.7-2.2.4h1.8l5-.4c3.9-.4 9.3-.7 14.4-1.5 6.5-.7 15.6-2.6 24-4.3l12.4-2.8 10.9-2.8 12.4-3.8 3.7-1.3 1.3-.6-2 .4zm-74 35.7c-3.4.4-8.3.7-13.5 1.1-5.3.6-11.6 1-18.6 1.3-2.8.2-5.8.2-9 .2l-9.6.2a528 528 0 0 1-37.1-2l-7.4-.6c-2-.2-4-.4-5.6-.4-3-.2-4.7-.2-4.9 0 0 .2 1.7.6 4.7 1.1 1.5.4 3.4.6 5.5 1 2.4.4 4.8.7 7.3.9 5.2.6 11.8.7 18.7 1.1 5.9.4 12 .8 18.6 1 3.2.1 6.6-.2 9.6-.2l9-.4c7-.6 13.3-.8 18.6-1.5a130.7 130.7 0 0 0 19-3c.2-.2-2-.2-5.3.2zM736 37.3l-7.3 2.3-8.3 2.4c-3 1-6 1.5-8.6 2.3l-7.7 1.9c-4.3.9-7.3 1.8-9.2 2.2-1.9.6-2.6.8-2.6 1l2.8-.2 9.4-2 7.7-1.6c2.8-.7 5.6-1.3 8.6-2.3L729 41c2.7-1 5.1-1.7 7.4-2.4 4-1.3 7-2.5 9-3.2 1.8-.8 2.8-1.1 2.8-1.3-.2-.4-4 .9-12.4 3.3zm90-39A132.6 132.6 0 0 1 817 3l-.8.4.8-.4a12 12 0 0 0 2-1.1c2.4-1 4.7-2.2 6.8-3.6L836-7.3l-10.2 5.6zM409-1.7c3 2 6 4.1 8.8 6.4l3.2 1.9 3.2 1.6c2.2 1.2 4.8 2.3 7.1 3.6l3.4 1.9a17 17 0 0 0 3.4 1.5c5.4 1.9 3.7 0-1.5-2.8l-1.2-.8-1.3-.7c-.8-.6-1.7-1.1-2.6-1.5L426 6.6 421 3.7l-1.1-.7-1.2-1-2.4-1.8A401.1 401.1 0 0 0 394.4-15l-7.3-5.1-.6-.4c-4.1-2.4-8.4-4.3-12.2-6.7l-.7-.4-.6-.4-.4-.2-1.5-.7-3.2-1.7-6.3-3.4-13-6c-4.5-1.9-8.8-3.8-13.1-5.4a489.4 489.4 0 0 0-51.1-16.4c-.6-.2-3.2-.7-6.4-1.7-3.2-.7-7.3-1.7-10.5-2.2a347.8 347.8 0 0 0-42.6-6c-10.7-.8-16.2-.8-21.4-.8l-8.6.2h-5.7l-7.1.2c-5.5.2-9.4.6-12.8.7-3.4.2-6 .4-8.6.8-2.6.2-5.3.6-8.6 1-3.4.3-7.4.9-12.6 1.6l-12.6 2-8.6 1.6c-1.4.2-2.7.6-4 .7-1.3.4-2.8.6-4.5 1-3.2.7-7.1 1.5-12.4 3-5.2 1.3-9 2.4-12.2 3.4-3.2.9-5.8 1.8-8.2 2.6-5.1 1.9-10.2 3.4-20.1 7.1L50.3-44c-1.9.7-3.6 1.5-5.3 2l-8 3.2-8 3.4c-3 1.5-6.5 3.2-11.4 5.4L6.4-24.2-1.1-20l-7.5 4.3c-1.6 1-3.2 2-5 2.8l-2.7 1.7c-1.1.6-2.2 1-3.4 1.3l-6.4 2c-1.7.8-1.9.8 0 0a67 67 0 0 1 6.6-1.6 20 20 0 0 0 6.5-3c2-1 3.4-1.9 5-2.6 2.7-1.7 5.2-2.9 7.6-4.2 2.5-1 4.7-2.4 7.7-4l11.5-5.4 11.4-5 8-3.4 8.2-3.2c3.1-1.1 6.7-2.6 11.8-4.3 10-3.6 15.2-4.9 20.3-6.6l8.2-2.4c3.2-1 7.1-1.9 12.2-3.2 5-1.3 9-2 12.4-2.8 1.7-.4 3-.8 4.5-1l4-.7c2.6-.6 5.2-1 8.4-1.5 3.2-.6 7.1-1.1 12.4-1.9l12.6-1.5a509.6 509.6 0 0 0 17.2-1.1l12.6-.6a501.5 501.5 0 0 1 65.7 2.5c15.4 2.2 30.7 5.6 45.6 10 2.3.7 4.7 1.2 7.2 2l7.1 2.2 14 4.7A257.8 257.8 0 0 1 370-25.9l1.5.7.6.4.7.4c1 .5 2 1.3 3 1.9l6 3.2c2 .9 4 2 5.8 3.1l5.7 3.8c4.9 3.6 10.5 7.1 15.8 10.7zm124.6 49.2c-2.6-.6-5.8-1.3-9.2-2.3-2.8-.7-5.8-1.7-9-2.6-2.8-1-5.8-1.7-9-2.8-3-.8-5.8-2-9-3-3-1-6.2-1.7-9-2.8-3-1.2-6-2.3-8.9-3.2l-8.8-3.4-8.8-3.2c-2.6-1.1-5.8-2.8-8.3-3.2-.2 0-.2.4-.2.6l.4.4c2 1.5 5.3 2.8 7.7 4 6.8 3.3 13.5 6.7 20.9 9.3 6.5 2.6 13.5 4.5 20.2 6.7 4 1.2 8 2.5 11.9 3.4 3.3 1 7 1.5 10.3 2.3 2.8.5 5.6 1.7 8.6 2 5.5 1 8.7 1 8.7.6a30 30 0 0 0-8.5-2.8zm266-35.5l-1.5.8c-1.3.5-3 1.5-4.9 2.2l-7.7 3.4c-3 1.3-5.2 2.2-7.5 3.4l-5.4 2.4-2.8 1.3 2.4-.7c1.5-.6 3.4-1.3 5-2.1a247.2 247.2 0 0 0 23-10.9c0-.2-.2 0-.6.2zm-598-63.5c-2.8 0-5.5.3-8.2.6-3.7.6-1.8.8 16.2 1.9l17.8 1.5c4.5.4 9 .7 17.9 2l17.8 2.9c4.5.7 8.8 1.5 17.6 3.3l17.7 3.8c2.4.4 4.8 1 7.1 1.7 2.6.7 6 1.5 10.3 3l5.7 1.9c1.7.5 3 1 4.3 1.7a1784.6 1784.6 0 0 1 32.7 15C361-11 363-10 365-9c4 2 8.1 4 15.8 8.6 15.6 9.2 15.4 9.4 30.8 18.8l15.4 9.4c4 2.2 7.7 4.8 15.7 8.8 4.2 2 7.2 3.5 9.6 4.9 2.1 1.2 4.3 2.2 6.6 3.2 4.1 1.6 8.3 3.5 16.7 7l3 1.4c1 .4 1.9.6 2.6 1l4.5 1.4 7 2.5 7 2.4c2.6 1 6 1.7 10.3 3 17.4 5 17.4 4.7 35.2 8.5l18 2.4c2.3.2 4.6.8 7.4.8 2.8.2 6.2.3 10.7.7 16.9 1.1 7.5-1.3.2-2-4.5-.4-8-.6-10.7-1-2.8-.2-5-.7-7.3-1-4.5-.5-9-1-17.9-2.6-17.6-3.9-17.6-3.3-34.9-8.4-4.3-1.3-7.5-2-10.3-3a86 86 0 0 1-6.8-2.6c-2-.8-4.1-1.5-6.7-2.7-1.4-.5-2.9-.9-4.5-1.7l-2.7-.9-3-1.3c-8.2-3.6-12.4-5-16.7-6.8a204.5 204.5 0 0 1-32-16.7c-3.6-2.4-7.4-4.8-15.1-9.5-15.4-9.4-15.6-9-31.2-18.4l-15.5-9a160 160 0 0 0-16-8.5c-8.3-4-12.4-5.4-16.7-7.1l-7-2.5-4.5-1.5-5.8-1.8c-4.3-1.5-7.7-2.3-10.3-3-2.8-.8-4.9-1.4-7.1-1.7l-17.7-3.8c-8.8-1.9-13.3-2.6-17.8-3.4-4.5-.7-8.8-1.7-17.9-2.8-9-1.3-13.5-1.9-18-2.2-4.5-.6-9.2-1-18.2-1.5l-7.7.1zM-23.6 11c2.8-1.5 6.8-4 12-6.8L-3-.4 7-5.3l8.8-4.1 4.7-2.3 5-2c3-1.3 6-2.6 9.2-3.8l9.8-3.7c3-1.2 6.4-2.3 9.6-3.4l4.8-1.7 5.1-1.5c6.6-2.3 13.1-4.1 19.5-6 3.4-1 6.8-1.7 10.2-2.6a389.5 389.5 0 0 1 29.8-6.4c7.7-1.3 14.3-2.6 20.1-3.4 3-.4 6.6-1 10-1.3l9.2-1.1c.3 0 0-.4 0-.4h-1c-2.6 0-5.8.4-9 .6l-9.6 1A388.6 388.6 0 0 0 51-24.5c-4.2 1.5-8.3 3.2-12.4 4.9-2.1.7-4.2 1.7-6.2 2.4l-6 2.6-5.3 2.3c-1.7.7-3.4 1.7-5 2.4-3.4 1.7-7 3.2-10.2 5.1L-2.6-.6c-2.9 1.5-5.7 3-8.5 4.7a123.6 123.6 0 0 0-16.5 9.2c.4-.2 1.5-1 4.1-2.4zM642.2 74l-4.1.6-3 .4c-.2 0 0 .2 0 .2.6.3 3.6 1 8.3.5l18.5-1.8 18.6-2.9c4.7-.5 8.1-1.5 11-2l7.4-1.5 7.5-1.5c2.8-.6 6.2-1.5 10.7-2.8 9-2.5 13.5-3.6 18-5.3l17.9-6 23-9c3.6-1.7 8.5-3.6 11.9-5.3 3-1.5 9.6-4.5 7-3.5l-1.7.5c-1.2.4-2.3 1-3.4 1.3l-2.8 1.2c-2.7 1-5.5 2.4-8 3.5l-4 1.9-4.4 1.7c-6 2.2-12 4.7-18 7-17.8 5.6-17.8 5.8-35.8 10.3-4.6 1-8 2.2-10.7 2.8l-7.4 1.5-7.3 1.5c-2.8.5-6.2 1.5-10.9 2-6 1-12.2 1.7-18.2 2.5l-18.2 1.5h-.8c-.5.7-.9.7-1 .7zm168-47.8l.8-.4c.7-.4 1.7-1 3-1.5l9.2-4.9c7-3.6 12.6-6 12.6-6l-3.8 1.7c-2.2 1-5.4 2.4-9 4.3-3.6 1.7-6.8 3.6-9.2 4.9a27.3 27.3 0 0 1-4 2l.4-.1zM442.7 54.4c.1-.3.1-1.3-1.2-1.9-5-2.6-4.8-2.8-9.7-5.6-2.5-1.5-3.8-2-5.1-2.8a30 30 0 0 1-4.9-2.8c-4.7-3.2-4.5-3.6-9.2-6.6-4.3-2.8-8.6-5.6-13.1-8.2l-6.6-4.2c-2.2-1.3-4.5-2.4-6.7-3.5-4.6-2.5-8.7-5-13-7.4-1.6-1-3.3-1.9-5-2.6L363 6.2c-5.1-2.5-5.3-2.3-10.6-4.7l-5-2.6a51 51 0 0 0-5.3-2.5L331.3-8c-2.6-1.1-4.1-1.5-5.6-2l-5.6-2-11.3-3.7c-2.8-1-4.3-1.3-5.6-1.7l-5.7-1.5-11.4-3.2c-5.8-1.3-5.6-1.7-11.5-2.8L263-27c-6.8-1.2-13.5-2-20.3-2.9l-3.2-.3-3.3-.4-6.6-.8c-4.5-.3-8.8-.9-13.3-1.3l-11-.2-10.8-.2-11 .6c-5.4.2-5.4-.2-10.8 0-5.4.4-5.3 1-10.7 1.5l-10.7 1c-2.6.1-4 .5-5.4.7-1.4.2-2.7.4-5.3 1l-10.7 1.6-3.2.6-2.2.4-5.3 1c-5.3 1.2-5.3 1.6-10.5 2.7-3.6.7-7 1.6-10.5 2.6-1.3.4-1.9.8-1.7 1 .6.4 1.4.4 2 .2 5.3-1.3 5.3-1.5 10.6-2.7 5.2-1 5.2-1.3 10.5-2.4l5.2-1 2.1-.3c.7-.2 1.9-.2 3.2-.4 5.2-.7 5.2-1 10.7-1.7l5.2-.7 5.3-.6 13.3-1.1 6.8-.6 6.7-.2 13.6-.2c2.2 0 4.5 0 6.7.2l6.8.4 7.3.6c2.4.2 4.9.3 7.3.7 6.6.8 12.8 1 19.4 1.7 5.8 1 5.6 1.3 11.4 2 3.8.6 7.7 1.2 11.5 2l11.2 2.4c3.8 1 7.7 1.5 11.5 2.6 3.7 1.2 7.5 2 11.2 3.2 2.9.8 4.4 1 5.7 1.3 1.9.3 3.8.8 5.6 1.3l11 3.8c3 1 5.3 2.2 8.2 3.4 3.5 1.5 7 2.8 10.7 4.1C341 1.1 345 2.8 349 4.5c3.7 1.9 7.7 3.7 11.6 5.6 5 2.5 5.3 2.3 10.3 4.9 5.1 2.6 5.3 2.3 10.4 4.9l10.1 5.4 9.8 6c4.9 3 4.5 3.4 9.4 6.4l9.7 6 4.9 3c1.1.8 2.4 1.5 4.9 3l10.1 5.5c.9 0 1.7-.3 2.5-.8zm180.7 41c-3.3 0-7.3.3-11.8.3-3.5-.2-7.5 0-11.8-.2-11.8-.7-23.7-2.2-35.3-3.9-7-1-13.5-1.7-20.3-3-7.3-1.7-14.4-3.4-21.6-5.4-5.6-1.5-10-2-15.2-3.4a158.6 158.6 0 0 1-16.9-5.7l-5.2-2-11.1-4c-4.1-1.7-7.3-3.7-10.3-4.8-6.8-3-10-6.8-11.7-4.2-1.3 1.9 3.8 3 10.2 6.4 3 1.5 6.7 2.8 10.9 4.9 3.2 1.5 7 3 10.9 4.7 4.5 1.9 9.2 3.5 13.8 5 4.7 1.7 9.4 3 14.1 4.6 3 .9 5.8 1.5 8.7 2.2 2.8.6 5.6 1.1 8.6 1.9 3.8.7 7.7 1.9 11.4 2.6 4 .8 8 1.1 11.7 1.7 4 .8 7.9 1.9 11.6 2.4l6 .6 5.9.4 11.8 1c4.1.1 8 .5 11.8.5 4.3 0 8.3 0 11.8-.2 4.5-.2 8.5.2 11.9 0 7.3-.6 14-1.3 13.9-2.3.1-.5-6.4-.1-13.8-.1zM705.7 85c-1.7.4-4 1-6.2 1.3l-6.2 1.2-6.2 1-6.2 1.2-6.2 1.1c-2.3.4-4.3.8-6.2 1-2.3.4-4.3.5-6.4 1l-6.2 1c-1.9.4-4.3.4-6 1-.2 0 0 .4 0 .4.1 0 .3 0 .4.2 1.9 0 3.8 0 5.8-.2l7.5-.6 3.7-.4 3.8-.5c4.7-.8 9.4-1.5 14-2.5l8.2-1.5c2.4-.5 4.5-1.1 6.9-1.9 1.9-.5 4-.7 5.8-1.3a16 16 0 0 0 5.5-2c0-.4-2 0-5.8.5zm60.2-18c2.3-1 5.1-1.9 8.1-3 2.4-1.1 5.3-2.2 8-3.6l5.1-2.2 5-2.5c3.1-1.6 6.5-3 9.7-4.8l11.8-6 7.5-4.4c3-1.5 5.5-3.2 7.5-4.3l7.2-4.1-7.2 4.1c-2 1.1-4.7 2.8-7.7 4.3a1887.2 1887.2 0 0 1-15.5 8.1c-2.7 1.3-5.1 2.6-8 3.8l-7.8 3.5-8 3.6-8 3.6c-3 1.3-5.8 2.2-8 3.2-5 2-7.6 2.8-7.6 3.3.4.6 3-.7 8-2.6zm-22 7c-1.8.5-3.9 1-6.3 1.8-2.5.8-4.3 1.5-6.2 2l-7 2.5c0 .4 3.4-.2 6.6-1 1.9-.3 4.7-1.4 7.1-2.2 2.5-.7 5.1-1.6 7-2.4 3-1.1 5-2.3 5-2.6-2 .7-4 1.4-6.1 1.9zM26.6 4a119.9 119.9 0 0 0-15.2 7.3l-5.7 3-5.6 3c-1.9 1.2-3.8 2.1-5.6 3-2 1.2-3.8 2.1-5.7 3-2 1.2-4 2.1-5.6 3-2 1.2-4 2.1-5.6 3-1.7 1-3.6 2-5.3 2.7l.2-.2c1.7-.8 3.4-1.6 5-2.6 4.6-2.3 9-4.5 13.6-7l12.6-6.5 7.3-3.8c2-1.1 4.1-2.3 6.2-3.2 1.7-1 3.5-1.7 5.2-2.6 3.2-1.7 5.1-2.6 5.1-2.8.4.2-.2.3-1 .7zm54.8-19.5c-3 1.1-5.5 2-5.3 2.4.2.4 2.6 0 5.7-1 3-.8 5.8-2.2 5.6-2.5 0-.2-3 .2-6 1zM60.4-8.1l-1.8.6c-2 .3-3.8 0-6.6.3-1 .2-2 .5-2.8 1a29 29 0 0 1-3.6 1.5c-2.8 1.3-6.8 2.8-6.8 3 0 .2 3.4-.8 6.2-1.7l4.6-1.5c.7-.4 1.6-.6 2.4-.8 2.4-.3 5.3.2 7.3-.5.6-.2 1-.4 1.5-.8 2.3-1 3.8-1.7 3.6-1.8 0-.4-1.9.1-4 .7zm766.7 63.7a273 273 0 0 1-13.3 6.9l-13.1 6.4-7.2 3.4-3.2 1.6a6 6 0 0 1 1.2-.3c.8-.5 1.7-.8 2.6-1.2l7.7-3.5 12-6c4.7-2.7 8.6-4.5 12-6.6l10-5.6a87.4 87.4 0 0 1-8.7 4.9zM746.6 91l-7.5 2.1a205 205 0 0 1-7.7 2.3c-2.6.7-4.9 1.8-7.3 2.6-2.8.7-5.7 1.1-7.7 1.7-4 1-6 2.2-5.8 2.4 0 .4 2.4 0 6.3-1l7.5-2 7.6-2 7.5-2.3c2.8-1 5-1.9 7.3-2.6 4-1.5 6.2-2.3 6-2.7-.2-.3-2.3.4-6.2 1.5zm-53.5 14.1c-1.9.2-4.3 1-6.8 1.3a50.3 50.3 0 0 0-12.7 3.2c0 .4 6.5.2 13.1-1.1a48.7 48.7 0 0 0 12.2-3.6c0-.2-2.6-.4-5.8.2zm76.8-22.7a24.5 24.5 0 0 0-6 2.8c.2.2 3-.6 6.4-1.9 3.3-1.3 6.5-3 6.3-3.2 0-.1-3.3 1-6.7 2.3zM265.4-6c-2.2-1.3-5.6-1.7-8.8-2.3l-7.3-1-15.2-1.6-8-.8c-2.1-.1-3.8-.1-5.5-.3-3.4-.2-6.8-.6-13.5-.8l-13.6-.5-5.4-.2h-3.6l-4.5.2c-6.7.1-10.1.3-13.5.7l-5.4.4-8.1.7a2444.3 2444.3 0 0 0-26.8 4.1C112.7-5 112.7-5 99.4-2.2 86.3 1 86.3.7 73.2 4.5l-13 4.1-12.7 4.5-12.6 5c-3.2 1.4-6.2 3-12.4 5.5l-12.2 5.7-12 6.2c-3.8 2-7.5 4.1-11.3 6.4-3.7 2-7.3 4.5-11 6.7l-1.2.8c-.5.4-1 .8-1.7 1-.7.5.2-.1 1.5-.7l.4-.2c.2-.1.6-.1.8-.3 4-2 7.7-4.3 11.6-6.4l11.8-6C5.4 34 8.4 32.5 11.4 31l12.4-5.5 12.6-5 12.8-4.7c6.4-2.1 9.5-3.2 12.7-4.4l12.8-4C87.7 3.6 87.8 4 101 .8 114-1.9 114-2.3 127.3-4.5c6.5-1.1 10-1.5 13.3-2 3.4-.6 6.8-1 13.3-1.8l8-.7 5.4-.4c3.3-.2 6.7-.4 13.5-.6l4.5-.2h3.5l5.5-.1h5.4l8.1.1c6.8 0 10.1.4 13.5.4l5.5.2 8 .6c4.5.3 9 .9 13.4 1.7l5.4.7 7.9 1.3c1.7 1 6.6.8 4-.7zM541 105l-7.3-1.6-5-1a107 107 0 0 1-12.3-2.5c-12.2-3.2-12-3.2-24-7-11.8-4.3-12-3.7-23.6-8.4a80 80 0 0 1-11.3-5.5l-4.5-2.4-3-1.5c-1.1-.6-2.3-1.1-3.6-1.9-5.4-3-8.4-4.1-11.2-5.4-2.9-1.4-5.7-2.9-11.1-6L413.6 55c-1.3-1-2.7-1.7-4.2-2.8l-6-4.3-3.3-2.5-1.4-1-1.5-.9L393 41c-1.3-.7-2.6-1.7-4.3-2.6l-2.8-1.7-3.8-2c-11-6.3-11-6-22.5-11.7l-11.4-5.3-11.9-4.8c-12-4.4-11.8-5-23.8-8.7-2.4-.8-4.9-1.5-7.3-2a67.6 67.6 0 0 0-10.2-2.5c-1.9-.4-4.3-1-7.3-1.5-11.6-2.4-5.8 2-.8 3.2 3 .8 5.5 1.3 7.4 1.7a102.2 102.2 0 0 1 9.8 2.6l7 2c12 3.8 11.9 4.2 23.7 8.5l11.5 5.1c2.8 1.5 5.6 2.8 11.2 5.5 11.3 5.6 11.9 4.5 22.8 10.7l3.5 2c.9.7 1.8 1.3 2.8 1.7L391 44l4 2.8 5.9 4.4 6.2 4.3c1.4 1 3 1.8 4.5 2.6 2.8 1.5 5.5 3.2 10.9 6.6l10.7 6.5c2.6 1.7 5.4 3.2 11 6.2l3.8 2 3 1.2c2 .8 3.4 1.3 4.7 2 3 1 5.8 2.4 11.8 4.6 11.7 4.9 11.9 4.5 23.7 8.8 12 3.8 12 4 24.2 7.2 6 1.7 9.2 2.2 12.4 3l5 1 7.4 1.6c5 .7 25.7 1.5 1-3.8zm111.5 6.1l-9.7 1c-3 .2-6.2.2-9.6.3l-4.7.2h-4.9l-9.5-.2h-9.6c-3.4 0-6.6-.1-9.6-.3l-9.6-.6c-3.5-.2-7-.4-9.5-.4-3-.2-6.6-.7-9.2-.5-.2 0 0 .5 0 .5l.3.2c2.5 1 6 1.1 8.7 1.5 7.6 1.3 15.3 2.2 23 2.6 7.4.2 14.7.4 22 .2h9.6l3.2-.2c3.8-.3 7.1-.7 10.9-1.3 3-.3 6-.3 9-1a27 27 0 0 0 8.6-2c-.5-.4-3.7-.4-9.4 0zM442.7 93.5c.1-.4.1-1.3-1.2-1.9l-10-5.3c-4.8-2.8-5.2-2.4-10-5.2l-1.7-1-.6-.3c-.2-.2-.4-.4-.6-.4-.5-.6-1-1-1.7-1.5-1-1-2-2-4.3-3.8a219.2 219.2 0 0 0-25.9-16.9c-4.5-2.4-8.4-5-13-7.3-5-2.6-4.8-2.8-10-5.2-5.1-2.5-5.3-2.1-10.6-4.5-5.2-2.5-5-2.9-10.1-5.1-5.5-2.3-5.5-2.4-10.7-4.7-5.5-2.3-5.5-2-11-4.3-5.4-2-5.4-2.3-11-4.1l-5.6-2c-1.5-.3-2.8-.9-5.7-1.6l-5.6-1.7-5.6-1.5c-5.8-1.3-5.7-1.7-11.5-2.8-5.8-1.1-5.8-.8-11.6-1.7a248 248 0 0 0-20.3-2.3c-8.8-.7-17.6-1.8-26.5-2.2L207.1 6l-11 .2-10.6.4c-5.5.3-5.5-.2-11 .1-5.4.4-5.2.8-10.6 1.4-5.5.5-5.5.3-10.7.9l-10.7 1.5c-5.3.7-5.3.7-10.7 1.7-5.3 1-5.5.7-10.7 1.7-5.3 1.1-5.3 1.3-10.5 2.4-5.3 1.1-5.3 1.1-10.5 2.5-1.4.3-2 .5-1.7.9.6.4 1.3.4 2 .2 5.3-1.1 5.3-1.3 10.5-2.3 5.3-1 5.3-1.3 10.6-2.2 5.2-1 5.2-.6 10.7-1.5 5.2-.8 5.2-1 10.7-1.5l10.7-1.1c17.7-1.8 35.6-2.4 53.5-2 2.4 0 4.8.3 7.3.5l3.5.1 3.6.4c6.6.6 12.8.8 19.3 1.3 5.9.6 5.9 1 11.5 1.7 15.3 1.8 30.5 5 45.2 9.4l5.7 1.5c1.8.4 3.7 1 5.4 1.7 5.5 1.9 5.5 2 11 4.1 2.7 1.2 5.2 2.7 7.8 3.8 3.6 1.5 7.1 2.8 10.7 4.1 7.9 3.2 15.6 7 23.5 10.5 5 2.5 5 2.3 10.3 5 5 2.5 5.2 2 10.3 4.6 3.4 1.7 6.7 3.6 10 5.6l4.8 3 4.7 3c4.7 3.2 4.5 3.6 9 7l4.6 3.4a37.6 37.6 0 0 1 3.1 2.2c.6.2 1.2.6 1.7 1 5.1 2.8 5 3 10 5.6 5 2.6 5 2.4 10.3 5 .8.3 1.6.1 2.3-.3zm190.9 37.7h-9.8c-3.4-.2-7.3.6-11.8.2-3.6-.2-7.5 0-11.8-.2-5.9-.4-11.9-.7-17.7-1.5l-8.8-1-8.8-1a187 187 0 0 1-10.2-1.4c-3.4-.3-6.8-.8-10.1-1.5l-10.9-2.2-10.9-2.6c-5.6-1.5-10-1.7-15.2-3l-11.2-3.2c-4-1.2-7.6-2.7-11.1-3.8a108.6 108.6 0 0 1-16.7-6.2c-1.7-.7-3.2-1.7-4.7-2.2a81.4 81.4 0 0 1-8-3.8c-1.8-1-3-1.3-3.9 0-1 1.9 3.8 3 10.4 6 1.5.8 3.2 1.3 5 2.3 2 .7 3.8 1.5 6 2.2 3.4 1.3 7 3 11 4.3 4.6 1.7 9.1 3.4 13.8 4.7 4.7 1.5 9.4 3 14.3 4.2 3 .7 5.8 1.5 8.6 2 2.9.6 5.7 1 8.7 1.7 3.7 1 7.7 1.9 11.4 2.5 1.9.3 4 .5 5.8.9l5.9.7c3.9.6 7.7 2 11.6 2.3l11.8 1c4.2.1 8.1.7 11.9.9l11.8.5 11.8-.2 11.8.2 5.3-.3 4.5-.6c2.6-.4 4.1-.8 4.1-1.1.2-.6-1.3-.8-4-.8zm72.4-9.6c-1.6.4-3.9 1-6.2 1.4l-6.2 1-6.2 1.2-6.2 1-6.2 1c-2.2.4-4.3.8-6.2 1l-6.2.8-6.2.9c-1.8.2-4.3.2-5.8.7-.2 0 0 .4 0 .4l.4.2c1.7.2 4 0 5.8 0 5-.4 10.2-.5 15.2-1.3l14.1-2.3c2.6-.5 5.5-.9 8-1.5 2.5-.3 4.8-1 7-1.6 2-.6 4-.8 5.8-1.4 3.6-.9 5.5-1.6 5.5-1.8-.7-.4-2.8-.2-6.4.3zm60.1-17.2c2.3-1 5-1.7 8.1-3l8-3.4 5.1-2.3c1.7-.7 3.2-1.5 5-2.4 3.1-1.7 6.5-3 9.7-4.7l11.8-6 7.5-4.3c2.8-1.5 5.5-3.2 7.5-4.5 4-2.5 5-2.8 7.2-4.3l-7.2 4c-2 1.4-4.7 2.9-7.5 4.4a1887.2 1887.2 0 0 1-15.4 8c-2.6 1.4-5 2.7-7.9 3.8-2.6 1.3-5.4 2.5-7.9 3.6-2.8 1.3-5.4 2.2-8 3.4-2.8 1.1-5.5 2.4-8 3.5l-8 3.2c-4.9 2.1-7.7 2.7-7.5 3.2 0 1 2.6-.4 7.5-2.2zm-21.8 6.7L738 113c-2.5.8-4.4 1.3-6.2 2-3 1-7 2.1-7 2.5 0 .4 3.4-.2 6.4-.7 1.9-.6 4.7-1.4 7.1-2.3l7-2.2c1.8-.7 3.5-1.5 5-2.5-.1-.2-3 .6-6 1.3zm-716-68.9c-.9.4-2.2 1-4 1.5-1.6.8-3.5 1.5-5.7 2.7-1.9.7-3.8 1.6-5.7 2.6-1.8 1-3.7 1.7-5.6 2.8-1.9 1-3.7 1.7-5.6 2.8l-5.7 3-5.6 3-5.4 3c-2.1 1.1-4 2.3-5.5 3.2l-5 3 .1-.2c1.5-1 3.4-1.9 5.1-2.8 4.3-2.4 8.6-4.9 13.3-7.1l6.4-3.2 3.2-1.7 3.2-1.5 7.3-3.4 6.4-3 5.5-2.2c1.3-.6 2.5-1.2 3.7-2 .5 0 1-.3 1.3-.7-.2-.2-.7-.2-1.7.2zm54.9-19.9c-3 1-5.5 1.9-5.3 2.3.2.4 2.6.2 5.8-.6 3-.7 5.8-2.2 5.6-2.6-.1-.6-3.1 0-6.1 1zM60 29.5c-2 .5-4 1.3-6.4 2A128.9 128.9 0 0 0 40.9 37c0 .2 3.4-.8 6.2-1.7l7-2.5 6.7-2.4c3-1.1 5-2 5-2.4.3-.2-2.7.7-5.7 1.5zm523.5 122c-2.8-.2-6.2-.8-10.3-1.1-4.1-.4-9-1.2-14.6-2.1a368.1 368.1 0 0 1-84-22.9c-5.4-2-9.9-4.1-13.6-5.6l-9-4c-4.7-1.9-6.6-2.8-6.8-2.6-.2.2 1.9 1.5 6.6 3.7 2.4 1.2 5.2 2.7 9.2 4.5 1.8 1 4 1.7 6.3 2.9l7.6 3.2a328.1 328.1 0 0 0 99.3 24.4l10.3.7c5.4.2 7.9.2 7.9 0-.8-.4-3.4-.6-8.9-1.1zm250-60.3c-1.6.6-3.8 1-6.7 1.7-1.4.5-2.8 1.1-4 1.9-1.6.7-3 1.7-4.6 2.4-1.6 1-3.2 1.9-4.9 2.7l-5 2.6c-7 3.7-13.4 6.7-17.9 9l-5.4 2.6-1.5.8c-.4.2-.6.2-.6.4l.6-.2 1.5-.6c1.3-.6 3.2-1.3 5.4-2.4 4.5-2.3 11-5.3 17.9-9l5-2.9 5-2.8c1.4-1 3-1.7 4.4-2.6 1.3-.8 2.7-1.5 4.1-2a50.8 50.8 0 0 0 6.6-1.6zm-470-24.4l4.5 2.3 2.1 1 1.1.5.4.2.6.3c2.4 1.5 4.9 2.8 7.5 4 3.4 1.4 6.8 3 10 5 2.4 1.5 3.9 2.3 3.1 1.4-.4-.4-1.3-1.4-2.8-2.7-2.4-1.9-5-3.5-7.9-4.7-1.7-.7-3.4-1.6-5-2.6l-2.7-1.5c-1-.5-1.7-1.1-2.6-1.7L361.2 63c-3.6-1.9-7.3-3.4-11-5-3.5-1.8-7.2-3.3-10.8-4.8a340 340 0 0 0-44.1-15.4c-32.7-9-66.7-14.4-100.6-14l-9 .1-9 .4-9 .6-4.6.3-4.5.6c-12 1.1-23.8 3-35.6 5A429.6 429.6 0 0 0-13.3 82L-27 90.1c-1.7 1 .3-.2-.8.6l5.6-3.2a402 402 0 0 1 15-8l5.1-2.7a471.2 471.2 0 0 1 120.4-42 378 378 0 0 1 245.4 32zM737 133.1l-4.3 1.3-13.5 3.8-21.4 5c-4.1 1-7.9 1.7-11.3 2.3l-9.7 1.9c-2.5.3-5.3.9-8 1.3l-7.6 1.1-5.8.7-2.3.4h1.9l4.9-.4c4-.3 9.4-.7 14.4-1.6l11.3-2c4.1-.7 8.6-1.6 12.7-2.5l12.4-3 11-2.9c4.8-1.5 9.3-2.8 12.3-4l3.8-1.2 1.3-.6-2 .4zM365 86.3c1 .6 2.6 1.4 4.3 2.1l1.3.6.7.3.4.2.2.2c.8.6 1.7 1 2.6 1.5 2.4 1.3 4.8 2.4 7.3 3.4.2 0 .2 0 0-.2a62.8 62.8 0 0 0-7.8-5.6l-1.4-1-1.5-.9-7.1-3.8c-2.6-1.5-5.3-2.6-7.7-3.7l-6.8-3.2-11.6-4.9-9.8-3.7c-3-1.2-5.8-2.1-8.8-3L315 63c-1.5-.4-3-1-4.5-1.3a320.7 320.7 0 0 0-38-9.6c-11.8-2.5-20.8-3.6-28.3-4.7-3.7-.6-7.1-.8-10.3-1.1l-4.7-.6-4.5-.4-9.2-.7-10.3-.6c-3.8-.2-8-.2-12.6-.2h-7.5c-2.6 0-5.5 0-8.5.2-6 .4-11.2.8-16 1.3L148.2 47l-10.3 1.5-9.2 1.5-9 1.7c-3.2.8-6.6 1.3-10.2 2-3.7 1-7.7 2-12.4 3-4.5 1.4-9.7 2.5-15.3 4.2C61 66.8 41 74.2 21.6 83L6.4 90.3a333.9 333.9 0 0 0-21.6 11.4l-7.2 4.2c-4 2.4-6.5 4-3.5 2 1-.5 2.4-1.5 4-2.2l8-4.5 7-3.8c3.1-1.7 6.5-3.4 9.9-5 1.7-1 3.4-1.7 5-2.7l5.1-2.2a480.6 480.6 0 0 1 68.7-26l15.4-4c4.5-1.2 8.7-2 12.4-2.9l10.2-1.9 9-1.5c3-.3 6-.9 9.2-1.3 3.2-.4 6.5-.7 10.3-1.3 3.8-.6 7.9-.7 12.6-1.3 4.7-.6 10-.8 16-1.1 3-.2 5.8-.2 8.4-.2h7.5l12.6.2 10.3.3 9.2.6 4.5.4 4.7.4c3.2.3 6.6.5 10.3 1a370.1 370.1 0 0 1 117.1 35.5l1.6.8 1.8 1.1zM688.7 165l-6.4 1c-5.8.7-14.3 2.2-25.7 3.1-3 .2-6.2.8-9.6 1l-10.3.5c-7.2.6-14.9.4-22.7.4-3.5.1-7 0-10.4-.2l-10.7-.4c-3.5-.1-7.3-.5-11-.7l-11.1-1-10.9-1.3c-3.6-.3-7.1-.7-10.5-1.3l-10.2-1.7c-1.6-.1-3.3-.5-5-.7l-5-1.1a1021.7 1021.7 0 0 1-16.8-4.4l-5.3-1.6-10.1-3.2-9-3.2a733.4 733.4 0 0 1-24-8.9c-5.5-2-8.1-3-8.3-2.8 0 .2 2.6 1.7 8 4.4 5.5 2.6 13.6 6 24.3 9.9l9 3c3.2 1 6.6 1.9 10 2.8 1.6.6 3.5 1 5.2 1.5 1 .2 1.9.6 2.6.8l2.9.5c3.7 1 7.5 1.7 11.4 2.7l4.9 1c1.7.5 3.4.6 5 1l10.4 1.9c3.4.8 7 1.1 10.7 1.7 3.5.6 7.3 1 10.9 1.5l11 1c3.8.1 7.4.7 11 .7l10.6.4c3.6 0 7 .3 10.4.1 8-.1 15.5-.1 22.5-.9 7-.6 13.5-1 19.5-1.9a153.4 153.4 0 0 1 11.8-1.3l3.4-.5 11-2 6.9-1.2 2.2-.6a6 6 0 0 0-2.6 0zM825 114c-6.6 3.1-15 7.6-23.9 12.7l-3.2 1.9-1.5 1-1.7.7c-2 1-4.3 1.8-6.2 2.8l-10.5 4.7-7.1 3c-.7.4-1.5.5-1.9.7-.4.2-.7.4-.5.4.2 0 .5 0 .7-.2l2-.7c1.8-.8 4.2-1.7 7.4-2.8l10.5-4.7 6.2-2.9c.6-.1 1.1-.5 1.7-.7l1.5-1c1.1-.5 2-1.3 3.2-1.8 8.4-5 16.9-9.8 23.3-13.2 6.5-3.2 10.9-5 10.9-5s-4.4 1.8-11 5zM153 66.2a53 53 0 0 0-7.9.7L132 68.7l-4.2.6-4.5.9-10 2A402 402 0 0 0 61 87.6l-.6.2c-2 1-4.7.7-7.3.9a10 10 0 0 0-4 1L45.9 91l-13.3 6c-8.7 4-16.7 8-23.9 11.7-13.3 6.7-22.3 11.6-28 14.6-5.6 3-7.6 4.2-8 4.3.4-.1 2.6-1.3 8.4-4.5a750.3 750.3 0 0 1 52.4-25.3c4.3-1.9 8.6-3.8 13.1-5.6l3.4-1.5c1-.6 2.2-.8 3.4-.8 2.3-.2 5.3.4 7.9-1l.6-.1A423.5 423.5 0 0 1 114.7 74c14.3-3.2 24.6-4.6 31.3-5.9l4.4-.7 3-.6a8 8 0 0 0 2.4-.5H153zm80.2-2.1c-3-.2-8.1-.4-12.8-.8-4.7 0-8.8 0-9.8.2-.4 0-.2.2 0 .4a176 176 0 0 0 25 3.8c28.9 3.3 43 6.9 57 10.5l10.8 3 5.8 1.7 6.2 2 14.3 5 17.8 7.6 4.9 2 4.5 2.3 8 4.1c2.5 1.4 5 2.5 7.2 3.6l6.2 3.8c7.7 4.7 14 8.2 19.9 12.5l9 6.4 2.4 1.7.6.4.7.4.2.2 1.3.7 5.7 3.4c4 2.2 8.2 5 13.3 7.7l17.5 8.8 17.8 7.7 7.5 3 6.8 2.5 6.2 2.2c1.8.8 4 1.3 5.8 1.9 3.7 1.1 7.3 2 10.7 3.2 7 2.2 14 3.7 23 5.8l7.2 1.7 7.9 1.5c5.6 1 11.8 2.4 19.1 3.2 25.7 3.6 51.7 4.6 77.6 3 3.2 0 6.4-.6 9.7-.8 3.4-.3 7-.5 10.6-1a50 50 0 0 0 5.2-.5l5-.7 9.5-1.7c5.2-.8 13.3-3 19-4.5 5.6-1.5 9-2.6 4.6-2-1.3.1-3.4.5-5.4.9-3.6.5-7.3 1.3-11.1 1.8-3 .6-6 .8-9.4 1.3l-13.3 2.1c-4.5.4-9.2 1-13.3 1.3l-7.2.8-7.1.3-14.3.8c-4.9.2-10 0-14.8 0h-7.5c-2.5 0-5-.4-7.5-.4l-15-1.1-15-1.9c-7.4-.7-13.6-2.2-19-3.2l-8-1.5a375 375 0 0 1-6.9-1.7c-4.3-1-8.2-2.2-12-3.2a46 46 0 0 1-5.4-1.5l-5.3-1.6-10.5-3.4a68 68 0 0 1-5.6-2l-6-2.3-6.8-2.7c-2.4-.9-4.9-1.8-7.5-3-5.2-2.2-11-4.8-17.6-7.9-6.4-3.1-12.2-6.2-17.1-8.6-5-2.6-9.2-5.2-13.2-7.5l-5.6-3.2-1.3-.7h-.2l-.4-.2-.5-.4-2.5-1.7-9.4-6.2c-6-4.3-12.4-7.7-20.2-12.4l-6.2-3.5-7.4-3.6-8-4.1-4.5-2.3-5-2c-4.4-2-8.7-3.8-13.3-5.7l-3.3-1.5-3.4-1.3-6.8-2.5-6.7-2.4c-2.3-.7-4.5-1.7-6.8-2.2l-13.7-4-7-2-6.9-1.6-14-3.1c-4.7-1-9.4-1.5-14.3-2.3-4.7-.7-9.6-1.5-14.3-1.9l-2-.2c-1.2-.3-2.3-.6-3.4-.7zM755 166.5c1 0 2 0 3-.4 2.4-1 5.6-2.2 9.7-4.1 8-3.6 18.8-8.4 29.5-13.9a977.8 977.8 0 0 0 27.4-14.3c7-3.7 10.7-5.8 11.3-6l-11.3 6c-7 3.6-16.9 8.5-27.8 13.7-10.9 5.3-21.6 10.2-29.5 14l-9.5 4.2c-1 .4-1.9.6-2.9.6-.7 0-.9.2-.9.2h1zm-389.8-40c1.1.6 2.6 1.1 4.3 1.9 1.7.7 3.4 1.7 5.3 2.6a76 76 0 0 0 7.3 3.4c.4 0 .2-.2.2-.4-.4-.7-2-2.4-4.9-4.7-1.5-1-3.2-2.2-5-3.7-2.1-1.3-4.6-2.5-7.2-4-10.7-5.6-19.1-8.8-26-12-7-2.8-12.8-4.9-18.5-7-5.8-1.8-11.4-3.5-18.7-6l-12.2-3.1-7.4-1.9-8.2-1.7-8.3-1.7c-2.6-.5-5-.7-7.5-1.1l-12.6-1.9c-7.5-.7-13.5-1.5-19.5-2L206.7 82H194c-2.4 0-4.9 0-7.5.2a954.7 954.7 0 0 1-16.9 1.1l-7.5.8-12.6 1.5c-7.3 1.3-13.3 2.2-19.1 3.4l-9.2.2h-1.7l-1 .1-2.4.6c-1.7.4-3.4 1-5.3 1.3-7.3 1.9-16 4.2-27.6 7.5-20.4 5.9-40.9 12.6-60.2 21.6-2.3 1.1-5 2.3-7.3 3.6-1.4.5-2.7 1.3-4 1.9l-3.7 2-14.5 7.7a217.3 217.3 0 0 0-5.6 3.2l7-3.5 9.9-5.1c1.7-1 3.3-1.9 5-2.6l2.5-1.4 2.4-1c7.1-3.5 14.3-6.7 21.6-9.5 15.4-6 31.2-11.2 47.1-15.6 11.7-3.1 20.3-5.2 27.6-7l5.3-1.4 2.4-.6h2c3.3 0 6.3 0 9.5.2 6-.7 12-1.7 19.3-2.8l12.6-1.1 7.5-.8c2.6-.2 5.4-.2 8.4-.3 3-.2 5.9-.4 8.5-.4 2.6-.2 5 0 7.5 0h12.6c7.5.4 13.5.5 19.5.7l19.3 2c3.8.5 7.7 1 12.4 1.8l7.4 1.1 8.2 1.7a336.4 336.4 0 0 1 88.2 31.5c.6.2 1 .6 1.5.8.7.5 1.4.8 2.1 1.1zM682.8 204c-2.8.3-6.4.9-10.7 1.3l-15 1.7-9.6.7-5 .4-5.3.2c-7.2.4-14.7.5-22.8.4-14.3-.2-28.7-1.3-43-3.2-14.6-2-28.5-3.4-41.4-6-7.7-1.5-15.4-3.4-22.6-5.3-7-2-13.3-4.5-19-6.4-10.4-3.7-18.5-7-23.8-9-5.4-2-8.2-2.8-8.4-2.6-.2.4 2.4 2 7.7 4.7 7.7 4 15.7 7.5 23.8 10.7l9 3.2 5 1.5 2.5.7 2.7.6 22.3 4.7a564 564 0 0 0 41.7 7.1c14.3 1.8 28.6 2.8 43 3 7.5 0 15-.3 22.5-1.1 7-.6 13.5-1.5 19.5-2l15.2-2.3 11.1-2.1c6-1.1 9-2 9-2.3l-8.4 1.4zm142.8-51.5l-10.8 5.8c-4 2.3-8.5 4.4-13 6.6-4.5 2.3-8.8 4.1-12.8 6l-10.5 4.7c-6 2.6-9.7 4.1-9.6 4.3l2.7-.7a88 88 0 0 0 7.1-2.8c3-1.4 6.6-2.7 10.5-4.5 4-2 8.3-3.8 12.8-6a432 432 0 0 0 23.6-13.4zm-680-47.7l-6 .6a322.4 322.4 0 0 0-26 4.5 387.8 387.8 0 0 0-52.4 14.8c-18 6.4-35.5 14-52.4 22.8-3.4 1.6-6.4 3.3-9.2 4.8a88.7 88.7 0 0 0-7.5 4.4l-6 3.5-2.6 1.5-2.5 1-6.7 1.8-2.1 1 2-1 7-1.8c1.8-.7 3.5-1.6 5-2.7l6.3-3.5c2.2-1.4 4.9-2.7 7.7-4.2s5.8-3.2 9.2-4.7c16.8-8.2 34-15.4 51.8-21.4 17.3-5.8 35-10.7 53-14.4 7-1.3 13.3-2.6 18.5-3.4l7.2-1.3 5.8-1c6.7-1 10-1.6 10-1.8.3-.2-3-.2-10 .5zm88-2.6c-1.6 0-3.6-.2-5.9-.4l-7.1-.1-6.4-.2-3.4.2c-.4 0-.2.1 0 .3a171.6 171.6 0 0 0 25 4c14.4 1.7 25.1 3.3 34 5.4 2.2.4 4.3 1 6.3 1.3 2.1.6 4 1 5.9 1.3 3.7 1 7.3 1.7 10.7 2.9 7 1.8 13.9 3.9 22.5 6.9 4.3 1.5 9 3 14.3 5.3 2.6 1 5.4 2 8.4 3.3l9.4 4.2c6.6 3 12.4 5.8 17.3 8.4l3.5 1.9 1.7 1 1 .3.1.2.4.2c2 1.3 4.2 2.5 6.4 3.6a70 70 0 0 1 10.7 6.2c3.2 2.2 6 4.5 9 6.5 3 2.3 6 4.2 9.2 6.4 3.2 2 6.6 4.5 10.7 6.8 4 2.2 8.3 5 13.3 7.7l8.1 4.3c2.8 1.5 6 3 9.2 4.5 6.6 3.4 12.6 5.6 17.9 7.9a303.8 303.8 0 0 0 37 12.6c6.9 2 14 3.7 23 5.8 4.5 1 9.4 2 15 3 5.7.9 12 2.2 19.2 3a379 379 0 0 0 38.7 3.3c6.4 0 13 .4 19.3.2 3.2 0 6.4 0 9.8-.2l9.7-.5 5-.2 5-.4c3.4-.4 7-.5 10.5-1 7-.7 13.9-1.6 19.7-2.7 10.5-1.7 32.3-7.5 23.8-6.2-1.3.2-3.3.5-5.4 1l-11 1.6c-3 .4-6 .7-9.5 1.3-4.3.8-8.8 1.1-13.5 1.7l-6.7.8-6.6.5-7.1.6-7.2.4-7.1.3-7.1.2c-20 .5-40-.6-60-3.4-7-.9-13.4-2.2-18.9-3.2-5.6-1-10.5-2.2-14.8-3.1-8.8-2.3-15.8-4.2-22.7-6.4-7-2-13.7-4.7-22.4-7.7-4.1-1.7-8.8-3.4-14-5.7-5.1-2.2-11.1-4.7-17.5-7.8-3.2-1.7-6.4-3-9.2-4.6l-7.9-4.3c-5-2.6-9.2-5.2-13.1-7.5-4-2.2-7.4-4.5-10.7-6.5l-9.4-6-9.2-6.4a89.2 89.2 0 0 0-11.3-6.2c-2.1-1-4.2-2.1-6.2-3.4-.4-.2-.4-.4-1-.6l-.9-.4-1.7-.9-3.7-1.9c-5-2.6-10.9-5.2-17.5-8.4a366.1 366.1 0 0 0-110.5-30.8l-2.1-.2c-.7.2-1.4.2-2 0zm522 102.9c1-.2 2-.6 2.8-1 2.5-.9 5.8-2 10-3.7 4.1-1.5 8.8-3.8 13.9-5.8l16-7.5c5.2-2.9 10.4-5.5 15-8.1 4.4-2.6 8.6-4.9 12-7l10.8-6.7-10.8 6.6c-3.4 2-7.6 4-12.2 6.7-4.5 2.5-9.8 4.9-15.2 7.7l-16 7.3c-5 2.1-9.8 4.4-13.9 6l-9.8 4c-2.2 1-3.5 1.5-3.5 1.7 0 .2.2 0 1-.2zm71.3-14.5l-6.2 3.2-7.3 3.6-7.1 3.4c-2 .8-4 1.7-6 2.8-2.6 1.1-5.3 2.4-7.2 3.4a65.2 65.2 0 0 1-2 1c1-.2 1.8-.5 2.6-1 2.3-1 5-2.3 7.9-3.4l5.6-2.5 6.6-3.1 12.2-6.4 10.1-5.5-9.2 4.5zm-81.2 33.8c-2.3.6-4.7 1.1-7.6 2a205 205 0 0 1-7.7 2.3c-2.6.8-4.8 2-7.3 2.5-2.8.7-5.6 1.1-7.7 1.7-4 1.1-6 2-5.8 2.4 0 .4 2.4 0 6.4-.7 2.2-.4 4.7-1.4 7.5-2.1l7.5-2 7.5-2.3 7.3-2.6c4-1.4 6.2-2.3 6.2-2.5-.1-.4-2.2.2-6.3 1.3zM692.2 238c-2.3.4-4.6.9-6.8 1.5a50.4 50.4 0 0 0-12.8 3.2c0 .6 6.6 0 13.2-1.1A48.7 48.7 0 0 0 698 238c.2-.2-2.7-.3-5.8 0zm77-22c-3.5 1.4-6.3 2.5-6 2.9.1.2 3-.4 6.3-1.9 3.4-1.3 6.6-2.8 6.4-3.2 0-.2-3.2 1-6.8 2.3zm-504.5-89c-2.3-1.2-5.6-1.6-8.8-2.2l-3.6-.5-3.8-.4-15.2-1.7-13.5-1.1c-3.4-.4-6.7-.4-13.5-.6l-8-.4-5.5-.2-13.5-.1c-6.8.3-10.2.5-13.5.9l-5.5.4-8 .9c-4.6.4-9.1 1-13.6 1.9l-13.5 2.2c-6.7 1.2-10 2-13.3 2.5-1.7.4-3.4.5-5.5 1l-7.8 1.8c-13.2 3-13.4 3-26.1 7.5-12.8 4.7-12.6 4.7-25.6 9-6.4 2.3-9.6 3.8-12.6 5-3.1 1.4-6.2 2.9-12.3 6-6 3-9 4.4-12 6.1-3 1.5-6 3.2-11.9 6.6l-22.3 13-1.3.7c-.4.2-1.4.7-1.7 1-.8.3.2-.3 1.5-.8.2 0 .2 0 .3-.2l.8-.4c7.9-4 15.6-8.3 23.5-12.4l12-6.2c3-1.5 6-3 12.2-5.8 6.2-2.8 9.2-4 12.4-5.3 3.2-1 6.4-2.4 12.5-4.5 13-4 13-4.3 25.6-8.6 12.7-4.3 12.7-4.1 25.9-7l7.7-1.8 5.2-1.1c3.4-.8 6.6-1.5 13.2-2.7l13.3-2c3.4-.6 6.6-1 13.3-1.7l8-.8 5.4-.4 13.5-.7 13.5-.4 5.4-.2 8.1.2c6.8.2 10.2.2 13.5.4l13.6.7c6.7.8 10 1.4 13.3 1.7l5.4.8 8 1.3c2.5.2 7.4 0 4.8-1.3zm280.5 116.3c1.9.1 3.9 0 5.8-.2 1.3-.2 1.7-.6.2-1.3-1.2-.6-2.5-1-3.8-1.1-1.9-.4-4.1-1.2-7.1-2l-7.2-1.6-4.8-1.1c-3-.8-6.2-1.2-12.2-2.9-6-1.6-9-2.6-12-3.5l-11.9-4c-5.8-2-8.8-3.2-11.8-4.1a130.3 130.3 0 0 1-22.9-10l-4.5-2.4c-1.7-1-3.8-1.9-6.6-3.4-11.2-5.4-11.6-4.8-22.7-10.9-10.9-6.2-10.9-6.2-21.6-12.7-5.4-3.2-7.9-5-10.5-6.8-2.6-1.7-5.3-3.4-10.5-7-2.6-1.6-4.5-3.1-6.2-4l-.6-.4-.7-.6-1.2-.6-2.2-1c-2.8-1.6-5.6-2.9-11.3-5.9-5.6-2.8-8.6-4-11.4-5.3-3.8-1.8-7.7-3.5-11.7-5l-11.8-4.7-12-4.1a332.3 332.3 0 0 0-24.6-6.2c-11.6-2.3-5.8 2-.7 3.1l12.2 3.2c4 1 8 2.2 12 3.6 6 1.9 9 3 11.8 4.1 3 1.2 5.8 2.5 11.6 4.7 4 1.5 7.8 3.3 11.5 5.3 2.8 1.5 5.6 2.8 11.3 5.4 3.7 2 7.5 3.7 11.4 5.3.8.4 1.5.5 2.3 1l1 .5.6.2.6.3c1.7 1.2 3.8 2.3 6.2 4.2 5.3 3.5 7.7 5.4 10.3 7.3 3.4 2.6 6.9 5 10.5 7.1 10.7 6.6 11.3 5.9 22.2 12.2 11 6 10.7 6.6 22.2 12.2 2.8 1.5 5 2.5 6.7 3.2l4.7 1.9c3 1.1 5.8 2.4 11.6 4.7a284 284 0 0 0 11.9 4.7L491 229l12 4.1c3 1 6 2 12.2 3.6 6 1.7 9.2 2.4 12.4 3.4 1.5.4 3 1 5 1.3 2 .4 4.4 1 7.4 1.5.6-.2 2.8.2 5 .4zm106.4 1l-9.8.7c-3 .2-6.2.2-9.5.3l-9.6.4c-3.2 0-6.4-.2-9.6 0-3.4 0-6.5.4-9.6.2l-9.5-.2c-3.4 0-6.8-.4-9.6-.4-3.6-.1-7-.1-9.6-.3-3-.2-6.5-1-9-.6-.2 0 0 .6 0 .6l.4.2c2.4.9 5.8 1 8.6 1.6 7.7 1 15.2 2.3 23.1 2.3 3.6 0 7.3.2 11 0 3.5-.2 7.2-.2 10.8-.2A141.1 141.1 0 0 0 643 247c3-.3 6-.3 9-.7a27 27 0 0 0 8.6-2 29 29 0 0 0-9 0zm-628-66l-1.6.8c-1.5.5-3.6 1.7-6.2 2.8-2.7 1.1-5.7 2.4-8.9 4.1a256 256 0 0 1-10.1 5c-7 3.8-13.1 7-17.5 9.7a204 204 0 0 0-7.1 4.1c.6-.2 2.8-1.7 7.1-4.1 4.4-2.7 10.7-5.9 17.7-9.4l10.1-5c3.2-1.8 6.2-3 8.8-4.2a89.8 89.8 0 0 0 7.7-3.8c.2 0 .4 0 .6-.2l-.6.2zm389.6 32l-1-.6-.7-.6c-.7-.4-1.3-1-1.9-1.5l-4.1-3.2c-2.8-2-6-4.5-9.2-6.5l-9.2-6-7.9-4.4c-4.5-2.4-7.3-3.7-7.5-3.4-.2.2 2.4 2.1 6.8 5a402 402 0 0 1 16.5 11c3.4 2 6.4 4.3 9.4 6.4l4 2.8 2 1.3 1 .6.8.5c5 2.7 8.3 4.4 8.5 4 .4-.4-2.6-2.5-7.5-5.5zm-230-69.9c-1.7 0-4-.2-6.7 0l-9.8.6c-3.6.2-7.3.7-11.3 1l-10.9 1.4-8.8 1.5c-5 1-8 1.7-8 1.9 0 .2 3.1-.2 8.2-.8l8.8-.9c3.4-.4 7-1 11-1.1l11.2-1.2c3.5-.3 6.7-.5 9.6-.9 2.8-.4 5-.4 6.7-.6 1.7-.1 2.6-.1 2.5-.3.1-.4-.8-.6-2.5-.6zm118 14.3l-9.5-2.7c-1.7-.3-3.5-.9-5.4-1.5a61 61 0 0 1-5.6-1.3c-3.8-.7-7.6-1.7-10.7-2.2-3.4-.6-6.4-1-8.9-1.3-5-.8-8.2-1-8.2-.8 0 .2 3 1 8 2l8.9 2c3.3.5 7 1.6 10.7 2.4l5.6 1.1c1.9.4 3.6 1 5.4 1.3a1495.2 1495.2 0 0 0 18.6 4c-.2 0-3.5-1.3-9-3zm483.5 76.6l1.7-.8a330.4 330.4 0 0 0 25.2-12c6.7-3.8 13.1-7.1 17.4-9.8 4.3-2.4 6.6-3.9 7.2-4l-7.2 4c-4.3 2.7-10.7 5.9-17.4 9.4-7 3.4-13.7 6.8-19 9.2-2.4 1.2-4.7 2.3-6.2 2.8l-1.7 1.2c-.2 0-.4 0-.5.2l.5-.2zm-111.1 31.9c5.6-.6 13.1-1.9 20.8-3.4 3.8-.7 7.5-1.7 10.7-2.2a110 110 0 0 0 8.7-2.3c4.8-1.3 7.8-2.3 7.8-2.4a74.4 74.4 0 0 0-8 1.5c-2.5.5-5.5 1-8.9 1.8l-10.7 2.1c-7.7 1.3-15 2.8-20.6 3.8l-6.6 1.3-2.4.5c0 .2 3.5-.2 9.2-.7zm-166.4-9.6l6.8 2 8 2.1 4.6 1.2c1.5.3 3.2.5 4.7.9l10.1 2c7.1 1.2 13.9 2.3 20 3 6 .8 11.4 1.2 15.9 1.6 4.5.3 8.2.3 10.7.3l4-.1c0-.2-1.4-.4-3.8-.8-2.5-.4-6.2-.6-10.7-1.1-4.5-.6-10-1.1-16-2a327 327 0 0 1-19.7-3.3l-10.2-2-4.6-1-4.5-1a376.9 376.9 0 0 1-15-3.6c-8.3-2-13.2-3.3-13.4-2.9.4.4 4.9 2.3 13.1 4.7zm-312.2-93c-1.8.5-2.2.6 0 .8 2.3.2 7.2.6 16.2 1 9 .5 13.3.7 17.8 1.1 4.5.4 9 .6 17.9 1.7 17.8 2.4 17.8 2.4 35.3 6.2 8.6 2 13.1 3 17.4 4.3l7.1 1.9c2.7.7 5.9 1.9 10.2 3.2 16.9 6 16.7 6.5 33.2 13.7 8 3.7 12.2 5.6 16.2 7.7l6.5 3.2 9.2 5.2c2 1.1 3.6 2 5.1 3l4 2.7 6.1 3.9c3.8 2.4 7.2 5.2 14.9 10.3l15.7 9c2 1.2 4 2 6.6 3.4l9.6 4.7c2 1 3.7 1.9 5.4 2.6l4.3 2c2.7 1 4.7 2 6.8 3 4.1 1.6 8.3 3.7 16.7 6.7 17 6.3 17.1 6 34.2 11.4 17.4 4.3 17.4 4.9 35 8.3 4.6 1 7.8 1.5 10.6 1.9 2.8.3 5 .5 7.3.9 2.3.2 4.5.6 7.3 1l10.7.9c17 1.1 7.6-1.3.2-2.1-3.6-.2-7.1-.6-10.7-1.1-2.8-.4-5-.8-7.3-1l-7.3-.9c-2.8-.4-6-1-10.5-1.9-17.7-3.4-17.5-4-35-8.2-17-5.5-17-5.5-34-11.9-8.4-3-12.5-4.8-16.6-6.3l-6.8-2.7c-1.3-.5-2.8-1.1-4.3-1.9l-5.5-2.6-9.5-4.9c-2.2-1-4.3-2.2-6.4-3.5-3.8-2.3-7.7-4.7-15.4-9l-1.3-.8c-.4-.4-1-.6-1.3-1l-2.3-1.6-4-2.6c-2.2-1.5-4-2.9-6.1-4.2l-6.2-3.7-4-2.5c-1.5-1-3.2-1.8-5.2-3-4-2.2-6.8-4.1-9.2-5.4l-6.4-3.6c-5.2-3-10.6-5.6-16.2-8-16.7-7.2-16.7-6.8-33.7-12.8-8.7-2.8-13-4-17.3-5.3-4.3-1.3-8.8-2.2-17.5-4.5-17.6-3.7-17.6-3.7-35.6-6.2-9-1.1-13.6-1.5-18-1.9-4.6-.5-9.3-.7-18.3-1-5.2-.2-10.4 0-15.6.5zm-216.6 60.5l5-3c1-.5 2.1-1 3.3-1.8l3.7-2L-1 210l10-5 4.2-2 4.5-2 9.8-4.4 19-7.5c6.2-2.4 12.7-4.3 19.3-6.5 3.4-1 6.6-2.1 10-3l4.8-1.5c1.7-.4 3.2-1 5-1.4 3.3-.9 6.7-1.6 10-2.6l9.8-2.2c3.6-1 7.1-1.5 10.3-2.1l9.6-1.9c3.8-.5 7.3-1.3 10.7-1.9l9.2-1.3c6.2-.9 14-1.3 19.2-2.2.3 0 0-.4 0-.4h-1a355.6 355.6 0 0 0-66.8 10c-15 3.7-29.7 8.2-44.1 13.5L40 190.2l-12.2 5c-3.6 1.5-7 3.2-10.3 5l-5.1 2.4c-1.7.9-3.4 1.6-5 2.6l-8.5 4.3-8.5 4.7-3.5 2-3.2 2c-1.9.8-3.6 1.8-5.3 3-2.6 1.4-4 2.2-4.1 2.4l4.1-2.5zM643.2 285c-2 .3-6.6.5-7.2.9-.2 0 0 .2 0 .2.8.4 1.7.7 2.7.7l2.4.2c1 0 2.1 0 3.2-.2l18.6-1.7 18.4-2.8 3.2-.5 2.8-.6 4.7-1 7.5-1.4 7.5-1.7 10.7-3 9.6-2.8c2.6-1 4.7-1.7 6.5-2.5l14.1-5.2 2-.8 3-.2c2.1 0 4.4 0 6.3-1l5.6-2.4 11.3-5 11.6-5.5c3-1.5 9.4-4.8 7-3.7l-1.7.7-3.2 1.5c-1 .4-2 .8-2.8 1.3-2.5 1.2-5.5 2.5-8 3.8l-8.2 3.8-8.8 3.9-4.3 1.9a19 19 0 0 1-4.7.3c-1 0-2.2 0-3.2.2l-2.3.8-14 4.7-6.6 2.2-9.6 2.7-10.7 3-7.3 1.6-7.3 1.7c-1.5.4-3 .6-4.7 1.2l-2.8.5-3.2.6c-6 1-12 1.7-18 2.4-6 .6-12 1-18.3 1.5h-.7c-.3-.3-.7-.4-1.1-.3zm167.4-48.1l.8-.4c.7-.3 1.7-1 3-1.5l9.2-4.9c6.5-3.5 11.2-6 12.4-6.5 0 0-5.5 3-12.4 6.4-3.4 1.6-6.8 3.5-9.2 4.8l-3 1.5-.8.6zm-705.3-48.4c-4.7 1-10.1 2-16.3 3.5-5 1.3-10.7 3-16.4 4.7a1219 1219 0 0 0-15.4 5.5l-8.4 3c-2.6 1-5.3 1.8-7.3 2.8-2 1-3.8 1.5-5.5 2.2-1.5.8-2.8 1.4-3.7 1.7l-3 1.5 3.4-1.1c1.3-.5 2.6-1 3.9-1.7l5.4-2c2.3-.8 4.6-1.7 7.2-2.9 2.6-1 5.4-1.8 8.2-3 5-1.7 10.2-3.2 15.6-4.8a446 446 0 0 1 16.2-4.6c6-1.5 11.2-3 16-3.9 8.7-2 13.6-2.8 13.4-3.2-4.4.5-8.9 1.3-13.3 2.3zM-1.9 229.2c-.2.2-.6.2-.7.4l-3 1.7-9.2 4.9c-7 3.5-12.8 6-12.8 6l3.7-1.7c2.3-1.2 5.5-2.5 9-4.4 3.6-1.6 6.8-3.5 9.4-4.8 1-.7 2-1.2 3-1.7.2 0 .4-.2.6-.4.1 0 .3 0 .4-.2 0 .2-.2.2-.4.2zm518.7 66.3c1 .2 2.6.3 4.1.7 1 .3 2.2.3 3.2.2.2 0 0-.2 0-.2-.5-.5-3.2-2-7.5-3.4-9-2.2-13.5-3.7-18-5-2.3-.6-4.5-1.3-7.3-2.3l-10.5-3.5c-4.4-1.7-7.7-3-10.4-4.2l-7-3.2c-2-.9-4.2-1.8-6.9-3.2l-9.9-4.8-10-5.1-6.7-3.4-6.8-3.6-2-1-1.2-.6-.1-.2-.2-.2-.6-.4-5-3.6-5.1-3.7-5.3-3.6c-3.4-2.2-7-4.7-10.5-6.7-3.4-2.1-7.7-5.1-11-6.8-3.3-1.5-9.8-4.3-7.8-2.3l1.5 1.2 3 2 2.6 1.7 7.6 4.3a218.5 218.5 0 0 1 24 15.4l5 3.8.6.4.4.2.4.1 1 .6 2.2 1.1c2.4 1.5 4.5 2.9 6.5 4 2 1.3 4.2 2.4 6.6 3.7 2.6 1.3 5.6 3.2 10 5.3a286.9 286.9 0 0 0 17.2 7.7c2.3 1 4.3 1.9 7.2 2.8l10.5 4c11.6 4 23 8.4 35 11.4l.6.2c-.1.2.2.2.6.2zm-247.4-109a235.6 235.6 0 0 0-31-5.2c-4.9-.7-10.1-1-15.8-1.5l-16.5-1c-5.2 0-10.1-.3-14.6 0-4.1 0-7.5 0-10.3.3a208.5 208.5 0 0 0-11.9 1.3c0 .2 1.7.2 5.3.2l7-.2H192c4.5 0 9.2.4 14.3.4 5 .3 10.5.5 16.2 1.1l16 1.5c5 .6 9.7 1.1 13.8 1.9l17.3 2.6c3.7.6 5.4.6 5.4.4-.2-.4-1.9-1-5.6-1.7zm377.5 117.8c-1.4 0-2.7 0-4.1.2-1.7 0-3.6 0-5.8.2l-7.7.2H603.5c-5.8-.2-11.2.1-16.3 0-6.2-.6-12.2-1.4-16.7-2a125.4 125.4 0 0 0-13.3-.3c0 .2 1.1.6 3.4 1.1 2.2.4 5.6 1 10 1.5 4.8.8 10.4.8 16.6 1.3 5 .4 10.7.8 16.5.8 5.8 0 11.5.2 16.7 0l8.9-.4 7.7-.5c2.2-.2 4.3-.4 6-.4a86 86 0 0 0 7.9-1.3c-.6-.4-1.7-.6-4-.4zm48.4-7.3a66 66 0 0 0-13.7 3.2c0 .3 6.4-.2 14.1-1.7a80 80 0 0 0 14.7-4.2c-.2-.3-7.5 1.2-15 2.7zm-375.6-97.5a205 205 0 0 0-8.3-2.6l-6.7-1.9c-4-.9-6.2-1.5-6.4-1a88.6 88.6 0 0 0 12.6 4.9l8 2.7c11.5 4 22.4 7.7 22.6 7.1.2-.5-10.2-5.2-21.8-9.2zM793.9 265l-2.2 1-7.4 3.1-6.7 3c-1.7.8-2.8 1.3-2.8 1.5a86 86 0 0 0 17-7.1c.8-.5 1.5-.9 2.3-1.2l.7-.5c0-.2-.3 0-.9.2zm32.3-17c-2.4 1.6-4.9 2.9-6.6 3.8-.6.3-1.3.7-1.8 1.2l-.8.3c.2-.1.5-.3.8-.3a12 12 0 0 0 2-1.2c2.3-1 4.4-2.3 6.4-3.7l9.8-5.8-9.8 5.8zm1 18.1l-13.4 7.1c-4.9 2.5-9.6 5-13.1 6.4l-7 3.6-3.2 1.7a37 37 0 0 1 3.8-1.5c2.2-1.2 5-2.5 7.7-3.8 3.4-1.5 7.1-3.6 11.8-6 4.7-2.6 8.5-4.7 12-6.8l10-5.6-8.7 4.9zm-80.6 35.7l-7.5 2.2a205 205 0 0 1-7.7 2.3c-2.6.7-4.9 1.8-7.3 2.6-2.8.7-5.7 1.1-7.7 1.9-4 1.1-6 2-5.9 2.4 0 .4 2.5 0 6.4-.7l7.5-2.3 7.6-2 7.5-2.5 7.3-2.8c4-1.5 6.2-2.3 6-2.6 0-.2-2 .3-6.2 1.5zM693.3 316c-1.9.2-4.3 1-6.8 1.3-3.2.6-6.4 1.3-8.8 2-2.4.5-4 1-4 1.2 0 .4 6.8.2 13.2-1.1a65.3 65.3 0 0 0 12.4-3.6c-.2-.2-2.8-.2-6 .2zm76.8-23c-2.1.6-4.1 1.6-6 2.7.1.2 3-.5 6.3-1.8 2.3-.9 4.5-2 6.4-3.4-.2-.2-3.4 1.1-6.7 2.4zm-504.5-89.4c-2.2-1.3-5.6-1.7-8.8-2.3l-7.3-1.1c-5-.6-10.2-1.3-15.2-1.7-6.8-.8-10.2-1-13.5-1.1l-5.5-.4-8-.4-8.1-.4-5.5-.1c-3.4-.2-6.7-.2-13.5 0-13.5.5-13.5.7-27.2 2-6.8.8-10.1 1.3-13.5 1.9-3.4.8-6.8 1.3-13.4 2.4-13.3 2.5-13.3 2.3-26.6 5.5-6.6 1.7-10 2.4-13.2 3.4-1.6.3-3.1.9-5.2 1.5-2 .5-4.5 1.3-7.7 2.4l-7.7 2.6-5.3 2a228 228 0 0 0-12.7 4.8c-6.4 2.4-9.4 4-12.6 5.4l-5 2.3-7.4 3.4c-6.2 2.8-9.2 4.5-12.2 6l-4.9 2.4-7 4-3.9 2.2-3.7 2.3-3.8 2.2-1.9 1.1-.9.4-.6.4h-.3c-2.3 1.3-5.1 1.9-7.7 2.6l-1.3.6c-1.7.7-1.5.7-2 .7-.7.4.3-.2 1.6-.5.2 0 .2 0 .3-.2l.8-.2c2.8-.8 5.8-1.1 8.6-2.4v-.2c5.3-2.5 10.2-5.7 15.6-8.3 3-1.5 5.3-2.6 7.2-3.7l4.8-2.5c3-1.5 6-3 12.2-5.6 3-1.3 5.5-2.5 7.4-3.2l5-2c3.2-1.4 6.2-2.7 12.6-5l12.6-4.6 5-2c2.1-.5 4.6-1.4 7.7-2.4 1.7-.5 3-1 4.4-1.3 1.3-.4 2.4-.5 3.3-1l5.3-1.2c3.2-1 6.6-1.5 13.1-3.2 13.2-3 13-3.4 26.3-5.8l13.4-2.3c3.3-.4 6.7-1 13.3-1.7 13.5-1.3 13.5-1.1 26.8-1.9l13.5-.3h5.5l8 .1 8.1.2 5.5.2c3.4.2 6.7.2 13.5 1 6.8.5 10.1 1.3 13.3 1.7 3.4.5 6.8 1 13.4 2.2 2.8.6 7.5.6 5-1zM551.7 320c1.3-.2 1.7-.6.2-1.4-1.2-.5-2.4-.9-3.7-1l-7.4-2c-12.2-3-12.3-2.4-24.4-5.4l-12-3.4-12-3.7c-6-2.1-8.8-3-11.8-4.2-1.5-.5-3-.9-4.9-1.7l-7-2.8c-3.9-1.4-7.6-3.3-11.2-5.4l-4.5-2.5c-1.7-.9-4-1.8-6.6-3.3-2.8-1.3-4.9-2.5-6.7-3.2l-2.3-1-.4-.2-.5-.3-1.2-.6c-3-1.5-6-2.6-11.4-5.4l-3.4-2.1-2.6-2a49.8 49.8 0 0 0-4.2-3.3c-2.6-1.8-5.2-3.7-10.5-7l-10.5-7c-1.3-1-2.6-1.7-4.3-2.8a53.7 53.7 0 0 0-6.8-3.6c-2.1-1-4.3-2.1-6.3-3.4-.4-.2-.8-.6-1.2-.7a1 1 0 0 0-.7-.4l-.6-.4-2-1.1-11.3-5.8c-11.5-5.5-11.5-5.5-23.1-10.6-11.8-4.6-11.8-4.8-23.8-9-12.2-3.7-12.2-3.5-24.6-6.3-11.7-2.5-5.9 1.8-.8 3.1 12.2 3.2 12.2 3 24.2 6.8 11.9 4.1 11.9 4.3 23.5 8.8 11.6 4.9 11.5 5.5 22.7 11 5.6 2.5 8.5 4 11.5 5.2.7.3 1.5.5 2.2 1 .4 0 .8.2 1.1.5l1.4.7c1.6 1 3.9 2 6.7 3.4 3.8 1.8 7.3 4 10.5 6.6l10.4 7.3 10.5 6.8c1.3.7 2.6 1.6 4.3 2.8a33 33 0 0 0 6.4 4.3c5.6 3 8.4 4.3 10.9 6.2l2 1.3c.8.4 1.5 1 2.5 1.3 1.7 1 4 2 6.7 3.4 2.8 1.5 5 2.4 6.8 3.2l4.9 1.9c3 1 5.8 2.2 11.8 4.7 3 1 5 2 7 2.8l4.8 1.7c3 .9 6 2.2 12 4.3l12 4c3 .9 6 1.6 12.2 3.5 12.2 3 12.4 3.4 24.8 6 1.7.6 8.1.7 10.7.4zm107.4 1.7l-6.6.1c-2.6.2-6 .8-9.7.8l-9.6.2c-3 .2-6.4.2-9.6.2h-19.3c-3.4 0-6.6-.2-9.6-.4l-9.5-.6-9.6-.3c-3 0-6.6-1-9-.6-.2 0 0 .6 0 .6l.3.1c2.9 1 5.7 1.5 8.7 1.7l11.4 1.7c4 .4 7.7.8 11.7 1l11 .1h5.5l5.4-.1c4.2-.2 8.5 0 12.6-.4l10.9-1.1c3-.4 6-.4 9-1a60 60 0 0 0 6.4-1.1c1.5-.4 2.2-.8 2.2-1-.1.2-1 .2-2.6 0zM365 260.9c4.4 2 15.2 8 16.7 8.1.4 0 .2-.2.2-.4-1-1.5-6.5-6.7-17-12.4a281.2 281.2 0 0 0-44.4-19.5c-2.8-1-5.8-1.9-8.8-2.8-3.2-.8-6.4-1.9-10.1-2.8a732 732 0 0 0-28-5.8c-23.6-4.5-35.7-6-47.7-7.6-6-.5-12-1.3-19.5-1.6a241 241 0 0 0-28.7 0c-12 1-21 2.2-28.6 3.2l-10.3 1.5a405 405 0 0 0-9 1.6c-6 1-11.8 2.5-19.1 4a415.6 415.6 0 0 0-28 7c-20.6 5.6-40.7 13-60 21.9l-15.3 7.3C2.3 265.2-3 268-7 270.5c-2 1.1-4.4 2.4-6.8 4l-7 4.3c-4 2.6-6.5 3.9-3.5 2.2 1-.5 2.4-1.5 4-2.2 2.6-1.5 5.2-3.2 8-4.7l7-3.8 9.9-5.2c1.7-1 3.4-1.7 5-2.7l5-2.2c7-3.4 14.2-6.4 21.5-9.6a396.4 396.4 0 0 1 47.2-15.8l15.3-4c4.6-.8 8.7-1.8 12.4-2.5 7.4-1.4 13.4-2.5 19.4-3.4 3-.4 6-1 9-1.3l10.3-1.3c7.5-1 16.3-2 28.4-2.7 11.8-.5 20.8-.2 28.3 0a412.7 412.7 0 0 1 38.7 3.6c7.5 1.1 16.3 2.4 28.1 4.9 15.6 3.2 31 6.4 45.7 11.6 14.6 5.3 28.7 12 42.8 19.4.5.1.9.5 1.5.7l1.8 1.1zm324 76.6l-6.3 1-10.7 1.3a91.3 91.3 0 0 1-15 1.7l-20 1.3-22.7.4-21-.6c-7.1-.6-14.6-1.1-22.1-1.9-7.4-1-14.5-1.9-21.4-2.4a149.7 149.7 0 0 1-19.9-3.4l-5.9-1.3-5.6-1.7-10.9-3.4c-1.6-.6-3.3-1-5-1.5l-5-1.7-9-3.2c-2.6-1-5.2-1.7-7.4-2.4-2.5-.8-4.5-1.7-6.4-2.4-4-1.5-7.3-2.9-10.2-3.8-5.4-1.9-8.2-2.6-8.4-2.3-.2.4 2.4 2.1 7.9 4.6 5.4 2.4 13.3 6.5 24 10.3 5.6 2 11.8 4.5 19 6 3.3 1 7.1 1.9 10.7 2.8 1.8.6 3.7 1 5.6 1.5l5.8 1.1c3.2.8 6.6 1.3 10 2 3.3.8 6.7 1.6 10.1 2.2 7 .9 14 2.2 21.6 3l22 1.6 21 .4c8-.2 15.6-.7 22.5-1.1l2.6-.2 2.7-.4 4.8-.5 9.4-1.2c5.9-.5 11-1.5 15.2-2.2l11.1-1.9a48 48 0 0 0 6.8-1.5l2.2-.7c.2.3-.5.3-2 .5zm136.2-50.9a546.8 546.8 0 0 0-28.6 15.4c-.5.2-1 .6-1.7.8l-6.2 2.8-10.5 4.7c-3 1.3-5.4 2.4-7.1 3l-2.6 1.1 2.8-.7c2.4-.8 4.8-1.8 7.1-2.8 3-1.4 6.6-2.9 10.5-4.5l6.2-2.9a10.4 10.4 0 0 0 3.2-1.7c1.1-.5 2-1.3 3.2-1.8 8.8-5.1 17.3-10 23.7-13.4 6.5-3.1 10.9-4.8 10.9-4.8s-4.4 1.7-11 4.8zm-305.7 64.6c-2.4-.7-4.8-1.2-7.3-1.5-1.9-.2-3.2-.2-3.2.2-.2.8 4 3.4 9.6 4.9 5.6 1.5 11.3 1.7 11.5.7.3-.9-5-3-10.6-4.3zm161.9 6.8c-2.6.2-5.2.5-7.7 1-2.9.3-5.5.9-7.4 1.2-1.8.4-3 .8-3 1.2 0 .3 1.4.5 3.2.5 2.5 0 5-.2 7.5-.5l7.7-1.7c2.1-.8 3.4-1.3 3.2-1.5 0-.4-1.5-.4-3.5-.2zm-93.2 4.9a148 148 0 0 0-3.5-.6l-4.1-.6c-5.9-.5-10.6-.3-10.6.4-.1 1 4.5 2.5 10.4 3 1.4.2 2.8.2 4.3.2l3.5-.2c2.1-.2 3.6-.5 3.6-1.1 0-.6-1.5-.8-3.5-1.1zM485.6 340c-5.4-2-9.9-3.1-10.3-2.4-.4 1 3.6 3.8 9 5.8 5.5 2.3 11.1 2.7 11.5 2 .2-.8-4.9-3-10.1-5.3zm141.4 23c-5.8.1-10.5.7-10.5 1.4 0 .8 4.7 1.7 10.5 1.5 5.8-.3 11.3-1.6 11.3-2.2 0-.7-5.5-1-11.3-.7zM68 256.1c-1.7.4-3.8 1.2-6.3 1.7l-7.7 2.8-13.8 5.9c-3.4 1.5-5.5 2.6-5.3 2.8 0 .2 2.3-.6 5.8-1.9l14.1-5.2 7.7-2.9 6-2c3.4-1.2 5.3-2.1 5.3-2.3-.4-.2-2.5.2-5.9 1.1zM8.5 282a232.8 232.8 0 0 0-16 8.4c-3.9 2-7.4 4.1-10.3 5.6l-8 4.4 9-4.7 9.6-5 9.7-5.2 5.8-3c.8-.3 1.6-.8 2.3-1.3l-2 .8zm278.2-34.8c-1.7-.5-3.6-.9-5.4-1.1-1.7-.2-3.2-.6-4.5-.6-2.6-.1-4.1-.1-4.1.2 0 .4 1.3 1.3 3.7 2l4.1 1.6 5.3 1.5c7.5 2 14.8 2.8 15 1.9.4-1-6.5-3.6-14-5.5zm-169.5-4c-5.8 1.2-10.3 2.5-10.1 3 .2.6 4.9.5 10.5-.5a33.5 33.5 0 0 0 10.9-3.4c0-.7-5.6-.1-11.3 1zm54-6.3c-2.5 0-5.2 0-7.8.4-5.8.5-10.5 1.3-10.3 2 0 .6 4.9 1.2 10.5.8 2.6-.2 5.1-.6 7.7-1.1 2-.4 3.4-.8 3.4-1.2 0-.5-1.3-.9-3.4-.9zm67 1.5a98.8 98.8 0 0 0-19-1.7c-4.5 0-10.6 0-10.7.4 0 .6 4.7 1.7 9.2 2.2 2.8.6 7 .6 10.5 1l10.3 1c4.5.1 8 0 8-.8.4-.4-3.9-1.3-8.4-2.1zm135.3 42l-2.3-1.4c-1-.4-1.7-1-2.8-1.5a229.2 229.2 0 0 0-19-8.5c-3.1-1-5.4-1.3-5.6-.7-.2.5 1.5 1.8 4.5 3.3 3 1.7 7.2 4 11.8 6.2l6.8 3 2.8 1.2 2.5 1c3 1.2 4.8 1.8 5.2 1.2 0-.7-1.3-2-4-3.7zM817.9 311a100.2 100.2 0 0 0 9-5c4.7-3 8.1-5 9-5.5l-9.1 5.2-6.8 3.8c-.7.4-1.4.9-2 1.5a8 8 0 0 0-1 .3c.3 0 .7-.1 1-.3zm-32 16.5a75 75 0 0 0 6.7-3.4l2.6-1.5c-.2-.2-4.5 1.5-9.7 4a54 54 0 0 0-10.2 5c0 .2 5-1.7 10.5-4.1zm-66.3 24c4.3-1 8.6-2.1 12.7-3.5A75.2 75.2 0 0 0 750 341c-.2-.4-8 1.9-18.2 4.9-5.1 1.5-9.4 2.8-12.6 4-3 .9-4.7 1.6-4.7 2 0 .4 1.9.2 5-.6zm-276-30c-1.6-1-3.2-2-4.9-2.8-1.9-1-3.7-2.3-5.6-3.2-3.8-2.3-7.3-4.3-10.1-5.8-4.2-2.1-8.5-3.8-8.9-3.2-.3.5 4 3.7 7.7 6.7a93.2 93.2 0 0 0 14.3 8.8l4.7 2.1c4.7 2 8.4 4 8.6 3.2.8-.8-1.7-3-5.8-5.8zm140.2 59.9a860 860 0 0 1-25.1-3 384.1 384.1 0 0 1-53.5-11.3 694.6 694.6 0 0 1-30.4-11.6c-11-4.5-18-7.7-22.7-9.8-4.7-2-6.6-2.8-6.8-2.6-.2.2 1.9 1.5 6.6 4 4.7 2.4 12 6 22.9 10.6 6 2.5 12.4 5.3 19.3 7.7l10.7 4c3.8 1 7.7 2.2 11.6 3.1 14 3.6 28.3 6.2 42.7 8 11.4 1.2 19.7 1.8 25.1 2.2 5.5.2 7.9.2 7.9 0 0-.4-2.6-.8-8.3-1.3zm244-57.5c-4.8 2.8-11.5 6.4-18.5 10l-10 4.9-8 3.9-5.5 2.6-1.5.8c-.3.2-.5.2-.5.4l.5-.2 1.5-.6 5.7-2.4c2.4-1 5-2.3 8-3.8l10-4.9c7-4.1 13.5-7.7 18.4-10.7zm-464-27.6l8.7 4.5 7.3 4c4.5 2.2 7.9 4.3 10 5.2 5 2.5 6.3 2.3-7.4-6.2l-10.3-6-10.5-5.6-2.7-1.3-2.8-1.3-5.4-2.7-5.5-2.6-5.4-2.4a366.6 366.6 0 0 0-145-29.3c-48 .7-95.5 9.6-140.6 26.3a419.6 419.6 0 0 0-67.4 31.4c-15.2 9-12.1 7.2-13.6 8.2l-.8.5c.8-.3 1.1-.7 5.6-3.1 5.9-3.4 13.4-7.4 20-10.7l12.7-6.2 13.1-6c30.4-13.2 62.1-23 94.7-29.3 34.5-6.7 69.8-9 104.9-6.8 49.2 3.6 96 16.9 140.4 39.4zm373.8 67.2l-4.5 1.2c-3.8.9-8.5 2.4-13.5 3.5l-10 2.5c-3.5 1-7.3 1.5-11.4 2.4l-6 1.3-5.5 1c-3.4.5-6.6 1.3-9.7 1.8l-15.8 2.3-5.8.7-2.3.4h1.9l4.9-.2c4.1-.2 9.4-1 14.4-1.7 3.2-.3 7.2-1 11.3-1.8l6.4-1.2c2-.3 4.3-.9 6.4-1.3 4-1 8.4-1.7 12.3-2.8l11-2.8c4.8-1.5 9.1-2.8 12.3-4l3.8-1.3 1.3-.5-1.5.5zm-373.2-45.2l9.6 4.5a76 76 0 0 0 7.3 3.4c.4 0 .2-.2.2-.4-.4-.8-2.1-2.4-5-4.7-3.8-2.8-7.9-5.3-12.1-7.5-10.9-5.4-19.2-9-26.1-12-3.6-1.5-6.8-2.6-9.6-4l-8.6-3.1c-2.8-1.2-5.7-2-8.8-3-3-1-6.2-2.1-10-3.2-7.3-2.1-16-4.5-27.8-7.2-5.8-1.3-11-2.2-15.7-3-4.7-1-8.9-1.3-12.6-1.9l-10.4-1.3-9.2-1c-3 0-6-.3-9.2-.5l-5-.2h-18.2l-16.2.8c-6 .6-11.2 1-16 1.3l-12.5 1.7c-3.8.4-7.1 1.1-10.3 1.5l-9.2 1.5c-11.9 2.4-23.9 4.5-47 11.3a490.9 490.9 0 0 0-104.3 43.7c-4.4 2.3-6.8 3.8-3.8 2l4-2 8.2-4.3c2.3-1.1 4.5-2.3 7-3.4l10-4.9c3.7-1.5 7-3.2 10.2-4.7 3.6-1.7 7.3-3.2 11-4.7 3.5-1.5 7-3.1 10.8-4.5a534 534 0 0 1 47.1-16c15.4-4.3 31.1-7.7 47-10 3-.4 6-.8 9.2-1.4 3.1-.3 6.5-1 10.3-1.3 3.7-.4 7.9-.7 12.6-1.3 4.6-.4 9.9-.8 16-1.1l15.9-.6h18l4.9.2 9.2.4c3 0 6.1.3 9.2.7 3.2.4 6.5.6 10.3 1.2 3.8.5 7.9.9 12.4 1.8A376.2 376.2 0 0 1 362.5 317c.6.5 1.2 1 1.9 1.3zm318.2 76.6l-10.7 1.3c-4.3.6-9.4 1-15 1.5a486.7 486.7 0 0 1-85.8-1.1 425 425 0 0 1-41.5-5.7c-7.7-1.5-15.2-3.7-22.4-5.8l-19.1-6.2c-2.6-1-5.3-1.5-7.5-2.4L474 374l-5.6-1.8a58 58 0 0 1-4.5-1.7c-5.5-2-8.3-2.7-8.5-2.3-.2.4 2.7 1.9 8 4.5l4.4 2c1.7.8 3.6 1.6 5.7 2.3l6.5 2.7c2.5.9 5 1.7 7.7 2.8 5.7 2 12.2 3.7 19 5.8 7 1.7 14.4 3.6 22.1 5.3 13.8 3 27.7 5.3 41.7 6.7 15 1.5 29.5 2.3 43 2.3 16.2-.2 30-1.5 42.2-2.9 5.9-.7 11-1.3 15.3-2l11-1.9c6-1.1 9-1.9 9-2 .2 0-2.6.1-8.4.9zm143-50.7c-3.2 1.9-7 3.8-10.8 6-4 2.3-8.5 4.3-13 6.6l-12.8 6c-4 1.9-7.5 3.2-10.5 4.5l-7.1 3c-1.7.7-2.6 1.1-2.6 1.3l2.8-.7 7.3-2.9c3-1.3 6.6-2.6 10.5-4.5 4-1.8 8.3-3.7 12.8-6.2a382 382 0 0 0 23.4-13.1c6.2-3.6 9.8-5.8 10.4-6-.6.2-4.2 2.4-10.4 6zM584 419.9c-2.8-.1-6.2-.7-10.3-1l-14.6-2.1a382.8 382.8 0 0 1-84-22.7 632 632 0 0 1-22.9-9.6c-4.7-2-6.5-2.9-6.7-2.5a243.2 243.2 0 0 0 29.5 14 319.7 319.7 0 0 0 41.8 14.2 366 366 0 0 0 42.4 8.4c2.9.4 5.5.8 8 1 2.4.3 4.6.3 6.7.5l10.3.8c5.5.2 7.9.2 7.9 0l-8-1zm249.5-60.2c-1.5.5-3.7 1-6.5 1.7-1.5.4-2.9 1-4.2 1.8l-4.5 2.5c-1.5 1-3.2 1.9-4.9 2.6-1.7 1-3.3 1.9-5 2.6-7 3.8-13.4 6.8-17.9 9l-5.4 2.7-1.5.7c-.4.2-.6.2-.6.4.2 0 .4 0 .6-.2l1.5-.5 5.4-2.5c4.5-2.2 11-5.2 17.9-9l5-2.8 5-2.8c1.4-1 3-1.7 4.4-2.7 1.3-.8 2.7-1.5 4.2-2a50.8 50.8 0 0 0 6.5-1.5zm-469-24.2l4.6 2.2 2 1.1.6.2.4.2 1 .6c2.3 1.4 4.8 2.8 7.4 4 4.5 2 8.1 3.7 10 5.2 2.4 1.5 4 2.2 3.2 1.3l-2.8-2.6c-1.5-1.5-4.2-3-7.7-5a91 91 0 0 1-10.2-5.5l-10.5-5.7c-7.3-3.5-14.5-7-21.8-10.1-14.3-6.1-29-11.3-44-15.4a444.3 444.3 0 0 0-62.4-11.8c-4.2-.6-8.5-1-12.8-1.2l-3.2-.2h-3.2l-6.4-.1-6.3-.2H196c-47.9.5-95.8 8.6-140.6 25-4.3 1.6-10 3.5-16 6.1-3 1.4-6.2 2.7-9.4 4l-9.5 4.5-5 2.2-4.6 2.5-8.8 4.7-13.7 8-13.4 8.7c-1.7 1 .4-.2-.7.5.7-.3 1.1-.7 5.4-3.3 2.8-1.7 6-3.8 9.4-5.7 3.4-1.8 7-3.7 10.1-5.6a405.2 405.2 0 0 1 120.3-41.3c34.6-6 69.8-8.1 104.8-6.2a367.5 367.5 0 0 1 140.3 38.9zm372.7 66L733 403l-13.5 3.7c-6.4 1.5-13 3.2-21.4 5-4.2 1-8 1.8-11.3 2.3-3.4.8-6.6 1.3-9.8 2l-7.8 1.2-7.7 1.1-5.9.8c-.7 0-1.5.2-2.2.4h1.9l4.8-.4c4-.4 9.4-.8 14.5-1.7l11.3-1.9c4.1-.7 8.6-1.7 12.7-2.6 4.2-1 8.5-1.9 12.4-3 3.6-.8 7.2-1.8 10.7-3 4.9-1.5 9.2-2.8 12.4-4l3.8-1.3 1.3-.5-1.9.5zm89.6-20c-3.8 1.6-8.7 4-13.6 6.7-4.8 2.6-9.5 5-12.7 7l-3.6 2c-1.1.8-2.2 1.1-3.2 1.7-1 .5-2 1-3 1.7a6 6 0 0 1 1.1-.4l2.7-1.1c2.2-1 4.9-2.6 7.5-4l11.6-6.5a259.7 259.7 0 0 1 22.5-11.3s-3.7 1.5-9.3 4.2zM746.4 417L739 419l-7.7 2.3c-2.6.7-4.9 1.8-7.3 2.4-2.8.7-5.7 1.1-7.7 1.7-4 1.1-3.4 2.6.5 1.7l7.6-2 7.5-2.2 7.5-2.2 7.3-2.6c4-1.5 6.2-2.3 6.2-2.5-.2-.2-2.3.4-6.4 1.5zM770 409c-3.4 1.3-6.2 2.4-6 2.8.2.2 3-.4 6.3-1.7 3.4-1.3 6.6-3 6.4-3.2 0-.4-3.2.7-6.7 2zM266 320c-2.3-1.4-5.6-1.7-8.8-2.3l-7.3-1.1c-5.1-.8-10-1.3-15-2l-13.6-1.6c-3.4-.4-6.7-.5-13.5-1-13.5-.5-13.5-1.2-27.2-.9-13.5.8-13.5 1-27 2.3-13.6 1.5-13.6 2-26.9 4.1-13.3 2.5-13.3 2-26.7 5.3-13.1 3.4-13.1 3-26.2 7-13 4-13 4-25.6 9-12.5 5-12.5 5.2-25 10.8-12.1 6-12.1 5.8-24 12.4-7.5 4.3-14.8 8.7-22 13.5l-1 .8-1.7 1.1c-.8.4.1-.2 1.3-.7l.3-.2.8-.4c7.7-4.5 15.2-8.8 23-12.8 12.1-6 12.1-6 24.5-11.6 12.4-5.3 12.4-5.3 25-10 12.7-4.5 12.5-4.7 25.5-8.6 13-3.7 13.1-3.4 26.3-6.4 13.1-2.8 13.1-3.2 26.3-5.4 13.3-2 13.3-2.3 26.6-4 13.3-1.3 13.5-1 26.9-1.8 13.5-.4 13.5-.4 26.8 0l13.5.7c3.4.2 6.8.4 13.3 1.1 13.4 1.7 13.4 2.3 26.7 4.4 2.5 0 7.3-.2 4.7-1.7zm237.9 107c1.5.5 15 .2 12.7-.6l-7.1-1.9-4.9-1.5c-3-1-6-1.7-11.8-3.7-5.8-2.3-8.8-3.2-11.8-4.2a308.2 308.2 0 0 1-15.4-6.3c-1.2-.6-2.1-1.2-2.9-1.5l-4.5-2.5c-2.6-1.7-5.4-3-10.8-6-11-6-11.5-5.2-22.2-11.6L403.8 374c-10.7-6.5-10.7-6.7-21.6-13.1-10.9-6.2-10.9-6.4-22.1-12.2-11.3-5.6-11.3-5.8-23-10.9a284 284 0 0 0-23.8-8.8c-12.4-3.6-12.4-3-24.8-5.5-11.6-2-5.8 2.1-.7 3.2 12.2 2.8 12.4 2.3 24.4 5.8a308.2 308.2 0 0 1 23.5 8.8c11.4 5.1 11.2 5.7 22.3 11.3 11 5.9 11.4 5.1 22.5 11.3 11 6.4 10.3 7.1 21.2 13.7 10.7 6.6 11.1 6 22 12.6 10.9 6.5 10.5 7.1 21.6 13.1 5.4 3.2 8.6 4.1 11.4 5.5 1.5.5 3 1.3 4.7 2 1 .4 2 1 3 1.3l4 1.7 11.6 5 11.8 4.2 12 4zM105 342.6c-4.7 1.1-10.1 2.4-16.1 4.1-2.7.8-5.3 1.3-8 2.3-2.5 1-5.4 1.9-8.2 2.8-4.3 1.5-8.4 3.2-12.4 4.5a8 8 0 0 1-3 1l-4.5.1c-.7 0-1.5.2-2.2.4l-2 .7c-2.7 1.2-5.2 2.1-7.2 3.2l-9 4.4c-2.1.9-3 1.5-3 1.6l3.2-1.3 9.3-4 7.2-3 1.9-.7 2-.3c1.5-.2 3 0 4.5-.2 1.2-.2 2.3-.5 3.4-1l12.4-4c2.8-1 5.4-2 8-2.7 2.7-1 5.3-1.5 8-2.3l15.7-4.5c8.8-1.9 13.7-3 13.5-3.2-.1-.2-4.7.4-13.5 2zM-2 382.8c-.2.2-.5.2-1 .3-.7.4-1.6 1-3 1.5l-9.3 5c-6.8 3.5-11.5 6.1-12.4 6.7 0 0 5.4-3 12.4-6.6a242 242 0 0 1 9.4-4.9c1.3-.5 2.2-1.1 3-1.5a2 2 0 0 0 1-.5l.3-.2c-.2 0-.3 0-.4.2zm457.5 43.7c2.6 1.1 10.2 1.7 7.9.8-2-1-4.3-2.1-7-3.2l-9.9-4.7c-8.3-4.3-12.6-6.2-16.7-8.3-4.1-2.2-8.3-4.5-16.3-9.2l-1.3-.7-1.4-1-2.6-1.7-5-3.5-10.2-7.2c-3.4-2-7.7-4.8-11.3-6.5-3.1-1.5-9.7-4.5-7.7-2.5l1.4 1.2 3 2 2.4 1.7c2.3 1.5 5 3 7.5 4.3l4 2.3 3.9 2.4c5.4 3.6 10.9 7 16.3 10.5 8.1 4.7 12.2 7.2 16.2 9.8 4.1 2.4 8.2 4.5 16.7 8.8 3.3 1.8 6.7 3.3 10.1 4.7zm-186.2-87c-3.8-1-9.4-1.8-17.3-3.1-8.4-1.7-18.4-2.3-29.5-3.4-2.8-.3-5.6-.4-8.4-.4-2.8-.1-5.4-.1-8-.3l-7.6-.4c-2.4-.1-4.8 0-7.1.2-8 .4-13.7.5-17.3 1-3.6.3-4.9.7-4.9.9h5.3c3.6 0 9.4 0 17.4-.2 4.5-.2 9.2.2 14.3.3l7.9.4c2.6.2 5.4.2 8.3.6l16 1.5c5 .4 9.5 1.3 13.8 1.9 15.8 2 22.5 3.5 22.7 3-.2-.6-2-1-5.6-2zm65.5 18.9l-3.2-1.5-3.7-1.5-8.5-3-8-2.9-6.8-1.8c-4-1-6.4-1.3-6.4-1.2 0 .2 2.3 1.4 6 2.7l6.6 2.2 8 3 8.5 2.8 3.8 1.2 3.3 1c4.2 1.6 7 2.3 7 2.2 0 .1-2.6-1.4-6.6-3.2zm458.6 59.5l-2.2 1-7.2 3.3-6.7 3.2c-1.7.7-2.8 1.3-2.6 1.5l3-1 6.7-3 7.2-3.5c.7-.4 1.3-1 1.8-1.5zm32.5-16.4c-2.6 1.4-4.9 2.7-6.6 3.4l-2 1.1-.8.4.8-.4c.5-.1 1.1-.5 2-.9 1.7-1 4.2-2 6.6-3.6l10.2-5.2-10.2 5.2zm1.3 18.2a273 273 0 0 1-13.3 7c-4.9 2.4-4.7 2.8 0 .4 4.7-2.7 8.6-4.5 12-6.6l10-5.6a87.5 87.5 0 0 1-8.7 4.9zM264.7 359c1.1-.2 1.7-.5.5-1.3-2.2-1.3-5.6-1.7-8.8-2l-7.3-1.2c-2.4-.4-5-.5-7.5-.7l-7.5-.8c-2.7-.4-5.4-.6-8-.7l-5.5-.4-13.5-.8c-6.8 0-10.2-.1-13.6-.3l-5.4-.2-8 .4c-13.6.5-13.6.9-27.1 2.4l-8 1.1c-2.2.4-3.8.8-5.5 1l-5.5.9-3.5.6h-11.9c-.3.1-.7.1-1 .3a141.7 141.7 0 0 1-18 4.7c-6.7 1.1-10 1.7-13.4 2.5a110 110 0 0 0-9 2.2l-4.4 1.5-25.5 9.2-12.6 5-12.4 5.7c-6.2 2.8-9.2 4.3-12.2 6l-11.6 6.8c-7.5 4.3-15 8.4-22.7 12.2l-1.3.5-2 1c-.7.4.3-.2 1.6-.6l.4-.2c.1-.2.5-.2.7-.3A233 233 0 0 0-1 401.7l11.9-6.4c3-1.5 6-3 12.2-5.6 6.2-2.6 9.4-4 12.6-5l12.5-4.8c12.8-4.5 12.6-4.7 25.6-9 3.2-1 5.6-1.8 7.7-2.2 2-.6 3.7-.8 5.2-1.1l13.4-2.1a93.1 93.1 0 0 0 19.5-5.5h11.2l3.6-.5 5.5-1c1.6-.1 3.3-.5 5.4-.9 2-.4 4.5-.7 7.9-1.1 13.3-1.3 13.5-1.5 26.8-2l8.1-.7h5.4l13.6-.1 13.5.3c1.7 0 3.4 0 5.4.2 2 0 4.7.4 8 .6 6.8.7 10.2 1 13.6 1.5 3.4.5 6.6 1.3 13.3 2.2.8.6 2.7.6 3.8.4zm154 68.7c.3.2 16 3.8 4.6-1.7l-2-.9c-.4-.2-.6-.4-1-.4a.7.7 0 0 0-.5-.2l-2.7-1.8-4.1-3-4.1-3c-1.7-1.2-3.4-2.7-6.2-4.4l-10.7-6.9c-1.4-1-2.9-2-4.4-2.8-1.6-1-3.7-2.3-6.5-3.8-11.1-6.4-11.1-6.2-22.4-11.8L355 385c-1.1-.5-2-1-3-1.3-1.9-.7-3.2-1.5-4.7-2-1.5-.6-2.8-1.4-4.7-2.1-1.9-.8-4-1.9-7-3a222 222 0 0 1-11.8-4.7c-4-1.6-8-3-12-4.1-12-4-12.2-3.4-24.6-6.4-1.9-.6-3.8-.9-5.8-.8-1 .2-1.3.6-1 1a9 9 0 0 0 2.3 1.5l3.6 1.5c12.2 3.2 12.2 2.8 24.2 6.7 6 1.9 9 2.8 11.8 4.2 3 1 5.8 2.2 11.7 4.5 3 1 5 2.2 6.7 3l4.5 2.2c1.5.8 2.8 1.3 4.5 2.3 1 .3 2 .9 3 1.3l3.8 1.9c11.2 5.6 11.8 4.5 22.7 10.8 2.8 1.5 4.7 2.9 6.4 3.8l4.1 3c2.5 1.9 5 3.8 10.3 7.1 2.7 1.7 4.5 3.2 6.2 4.2l4.4 2.8c1.3 1 2.6 1.7 4.3 2.8.7.6 1.7 1.1 2.8 1.9l1 .5zm-303.3-49.2a195.5 195.5 0 0 0-17.6 3.6l-8.6 2c-5.1 1.6-10.7 3-16.2 5-2.8.9-5.4 1.8-7.9 2.8-2.6 1-5 2-7.5 2.8l-4.3 1.5-4.1 1.5-7.4 2.8-9.2 4.1-3 1.5c.4 0 .7 0 1-.2l2.4-.9 9.4-3.7c2.3-.8 4.5-1.7 7.1-2.9l8.3-3c2.4-.7 4.9-1.7 7.5-2.6 2.6-.7 5.3-1.7 8-2.4 5.5-2 11.2-3.2 16-4.7l8.5-2.3c2.4-.7 4.8-1.4 7.3-1.9 4.3-.9 7.7-1.8 10.2-2.4 2.2-.6 3.5-.7 3.5-1 0 0-1.1.3-3.4.5zm-117 43.2c-.1.2-.5.2-.7.4-.7.4-1.7 1-3 1.5-2.4 1.5-2 1.9.6.4l3-1.7c-.4-.2 0-.4.2-.6.1 0 .3 0 .4-.2l-.4.2zm390.4 4.7c2.6 1.7 7.7 2.5 4.3 0-1.7-1.1-3.4-2.6-5.4-3.7a28.6 28.6 0 0 0-5.9-3c-1.7-.8-4-1.5-5.8-2.3-1.9-.5-3-1-1.9.2l1.5 1.1c1 .8 2.1 1.3 3 2 .8.7 1.7 1 2.7 1.6 2.4 1.3 5.2 2.6 7.5 4.1zm-119.2-48.8c-3.8-1-9.4-2-17.3-3.4-4.3-.5-8.8-1.3-13.7-1.8-4.9-.4-10.1-1.2-15.8-1.4l-8.4-.5-8-.4-4-.2h-11c-4 0-7.4.4-10.2.4a211.2 211.2 0 0 0-11.9 1.3c0 .2 1.7.2 5.3 0l7-.2 10.4-.2c4.5.2 9.2 0 14.3.4l7.9.4 8.3.5c5.6.4 10.8 1 16 1.5 5 .6 9.5 1.4 13.8 1.7l17 2.7c3.8.5 5.5.7 5.5.3.2.4-1.5-.1-5.2-1zm50.3 13.2c-5.8-2.1-11-3.6-15-4.7-3.8-1.2-6.4-1.5-6.4-1.2 0 .4 2.2 1.2 6 2.7 3.7 1.5 9 3.2 14.6 5.2 11.5 4 22.4 7.9 22.6 7.3.1-.3-10.4-5.4-21.8-9.3zm-117.4-2.1a60 60 0 0 0-8 1c-1.9.3-2.3.9 0 1 2.2.2 7.1.8 16.1 1.2l10.5.7c2.9.2 5.1.4 7.4.4 4.5.2 9 .6 17.8 1.7 4.5.4 7.7 1.1 10.5 1.5l7.1 1.1c4.5.6 8.9 1.7 17.7 3.6l10.3 2.6c2.6.8 4.9 1.3 7.1 1.9 4.4 1 8.7 2.4 17.3 5.2l5.6 2 4.4 1.8c2.6 1.1 4.7 2 6.5 3 2.1 1 4.2 1.7 6.6 3 2.4 1.3 5.6 2.6 9.6 4.5 2 1 3.7 1.7 5.4 2.4 0 0 12.8 1 11.9.4l-6.4-3.5-4.2-2.3-5.4-2.4c-4.1-2-7.3-3.2-10-4.4l-6.9-2.4c-2-.8-4.3-1.5-7-2.4-1.3-.6-2.8-1-4.5-1.7l-5.6-2c-8.6-2.7-13-4.2-17.3-5.4-2.2-.5-4.3-1-7-1.8-3-.8-6.1-1.7-10.6-2.7-8.8-1.8-13.3-3-17.8-3.5l-7.4-1.2c-2.8-.3-6.2-1-10.7-1.5-9-.9-13.5-1.6-18.2-1.8l-7.5-.6c-2.8-.2-6.2-.6-10.7-.6-.4.8-3.4.8-6.5 1.2zM27.2 425c-7 3.2-7 4.7-.4 1.7a362.5 362.5 0 0 1 23.7-9c1.7-.4 3.2-1 4.9-1.3l10-3.2c6.5-2.3 12.9-4.7 19.3-6.8 1.6-.6 3.3-1 5-1.5l5-1.1 9.9-2.3c7-1.5 13.8-2.6 20-3.9l20-3.4c6.1-.7 14-1.5 19-2.4.5 0 0-.6 0-.6 0-.2-.5-.2-.8-.2-5.3-.2-12.8 1-18.6 1.3a355 355 0 0 0-48.3 8.3c-3.7 1-7.5 1.7-11.2 3a184 184 0 0 0-11 3.8c-7.3 2.6-14.4 5.4-21.7 7.7-8.5 2.7-16.8 6-24.8 10zm268.1.6c23.6 6.2 15.8-.8.7-5-4-1-8.2-2.2-12.3-3.1l-12.4-2.8-12.6-2.5c-4.1-.9-8.5-1.3-12.6-2a384.5 384.5 0 0 0-50.9-4c-3 0-6 0-9 .2s-6 0-9 .2c-6 .6-12 1-18 1.7-12 1.1-23.9 3.2-35.7 5.3-23.5 4.6-37 12-4.5 5.8 17.3-3.4 34.8-5.6 52.4-6.8l6.6-.4 6.5-.1c4.4 0 8.7-.2 13.2 0l13 .3a351.7 351.7 0 0 1 84.7 13.1z" fill="#004fa7" fill-rule="nonzero"/>
</svg>
