<svg xmlns="http://www.w3.org/2000/svg" xmlns:xlink="http://www.w3.org/1999/xlink" viewBox="0 0 191.362 92.534"><defs><style>.a,.i{fill:#fff;}.a{clip-rule:evenodd;}.b,.d,.e,.g{fill:none;stroke-linecap:round;stroke-miterlimit:2;}.b{stroke:#ffd000;}.b,.g{stroke-width:4px;}.c{fill:#ffd000;}.c,.f,.i{fill-rule:evenodd;}.d{stroke:#001b79;stroke-width:2px;}.e{stroke:#009481;stroke-dashoffset:34px;stroke-dasharray:7 15 4 4;}.f{fill:#004ea6;}.g{stroke:#ff5e00;}.h{clip-path:url(#a);}</style><clipPath id="a"><path class="a" d="M0-13H113.31V29.606H0Z" transform="translate(0 13)"/></clipPath></defs><g transform="translate(-1333 -1179.695)"><path class="b" d="M109.076-57.29a7.369,7.369,0,0,1,7.366,7.365,7.369,7.369,0,0,1-7.366,7.365,7.369,7.369,0,0,1-7.366-7.365A7.369,7.369,0,0,1,109.076-57.29Z" transform="translate(1405.921 1238.985)"/><path class="c" d="M49.076-37.29a7.369,7.369,0,0,1,7.365,7.365,7.369,7.369,0,0,1-7.365,7.365,7.369,7.369,0,0,1-7.365-7.365A7.369,7.369,0,0,1,49.076-37.29Z" transform="translate(1362.904 1253.324)"/><path class="d" d="M64.04,12.313,67.4,15.678,136.083-53" transform="translate(1378.914 1242.06)"/><path class="e" d="M71.842-21.149A14,14,0,0,1,85.833-7.158,14,14,0,0,1,71.842,6.833,14,14,0,0,1,57.851-7.158,14,14,0,0,1,71.842-21.149Z" transform="translate(1374.476 1264.896)"/><path class="f" d="M67.147-14.6a2.749,2.749,0,0,1,2.748,2.748,2.749,2.749,0,0,1-2.748,2.748A2.749,2.749,0,0,1,64.4-11.853,2.749,2.749,0,0,1,67.147-14.6Z" transform="translate(1379.171 1269.591)"/><path class="g" d="M69.076-17.29a7.369,7.369,0,0,1,7.365,7.365,7.369,7.369,0,0,1-7.365,7.365A7.369,7.369,0,0,1,61.71-9.924,7.369,7.369,0,0,1,69.076-17.29Z" transform="translate(1377.243 1267.663)"/><g class="h" transform="translate(1333 1215.182)"><path class="d" d="M6,18.139,72.761-31.932a2.763,2.763,0,0,1,3.611.257L105.652-2.4" transform="translate(4.302 41.587)"/></g><path class="i" d="M47.555-35.169a3.727,3.727,0,0,1,3.725,3.725,3.727,3.727,0,0,1-3.725,3.725,3.727,3.727,0,0,1-3.725-3.725A3.727,3.727,0,0,1,47.555-35.169Z" transform="translate(1364.424 1254.844)"/></g></svg>