<svg viewBox="0 0 732 40" xmlns="http://www.w3.org/2000/svg" fill-rule="evenodd" clip-rule="evenodd" stroke-linejoin="round" stroke-miterlimit="1.4">
  <path d="M-35.3-50.5c0-.2-4.6-.8-3.4-.5 2.2.5 3.4.7 3.4.5zm6.2 1.7a31.4 31.4 0 0 0 13.5 2.5 6 6 0 0 0-2.1-.7l-4.7-1c-1.2-.4-2.4-.6-3.6-.8-1.7-.2-3.1-.2-3.1 0zm84.4 1.6l6.6-1.5c1.6-.4 3.3-1 6.6-1.7 3.3-.8-5.1-.5-6.7-.1l-2.6.6-3.9.8c-13.5 2.9-2.5 2.3 0 1.9zm-64.4 1.8c0 .2 1.6.6 4.6 1l4.8.4 5.8.5c2.2 0 4.5 0 6.7.2l11.7-.2c4.2-.3 8.2-1 12.3-1.4a31.2 31.2 0 0 0 4.8-1.1v-.3c-1.3-.2-3.3.3-4.8.4-1.4 0-3.2 0-5.1.2-1.6 0-3.3.3-5.1.4h-2.5c-.9 0-1.7 0-2.6.2H6.2l-5.1-.1c-1.9-.1-3.7-.4-5.2-.4-3.2-.1-5 0-5 .2zm37 11.4h4.2l5.5-.2 7.9-.8c7.6-1 15.2-2.4 22.7-4.3l6.2-1.7 5.8-1.8c3.7-1.3 7.2-2.5 10.4-3.8l4-1.6 3.4-1.5c.9-.5 1.8-1 2.8-1.2.8-.4-1.8-.2-2.8.2-2 .8-4.4 1.9-7.4 2.9-3.2 1.3-6.8 2.5-10.5 3.8l-5.9 1.8c-2 .6-4.1 1-6.2 1.7-8.3 2-15.8 3.4-22.3 4.4l-7.8 1-5.5.5c-1.5 0-3 .3-4.5.6zm-78.4-10.2l.7.3 2 .7 6.6 2 5.8 1.5 6.6 1.5c4.5.9 9.4 1.9 12.8 2.3 2.7.4 5.5.6 7.7.8l2.6.2h1l-1.2-.2-3.1-.4-4.1-.5-4.2-.7-5.2-1-6-1.1c-2.2-.5-4.2-1-6.1-1.3-1.9-.4-3.6-1-5.3-1.3-2.7-.6-5.2-1.4-7.2-2l-2.3-.6-1.1-.2zm37.4 19l2.9.6 7.2 1c2.8.4 6.2.5 9.9.8 1.5 0 3.2 0 4.8.2 1.7 0 3.4.2 5.1 0 3.5 0 6.8-.1 9.9-.4 3.7-.2 7.2-.3 10-.6l3.9-.5 2.9-.5c.9-.1 1.7-.3 2.5-.6-.9-.2-1.7-.2-2.6 0-.8 0-1.8 0-3 .2l-3.9.3-9.9.7a281.7 281.7 0 0 1-15 .3l-4.8-.1a200.3 200.3 0 0 1-17.1-1.3l-2.8-.1zm-42-10.4s.4.3 1.5.7l4.8 1.7 3.9 1.3 4.5 1.3 4.6 1.2 4.1.9 5 1c1 .2 1.5.2 1.5 0l-1.4-.4a71 71 0 0 0-4.9-1.2l-4.1-1c-1.5-.4-3.1-.7-4.6-1.2l-4.4-1.3-3.9-1.2c-4.6-1.2-6.6-2-6.6-1.8zm176.2-15.5c1.5-1.2-3.5.5-4.4 1l-2.9 1.5-1.4.8-.7.4c-.2 0-.4.3-.6.4-2.7 1.5-3.7 2.5-.8 1.5l1.8-.8 1.8-1 3.8-2 1.7-.8a15 15 0 0 0 1.7-1zM54.7-26.8c0 .2 1.7 0 4.6-.3 1.6-.2 3.1-.8 4.6-1.1 1.8-.4 3.7-.7 5.5-1.2l6.3-1.8c3.6-1.2 7.3-2.2 10.8-3.6 3.8-1.4 7.4-3.2 11.1-5 1.4-.6 2.8-1.3 4.1-2.1l.2-.2-.1-.3c-1.3.2-3 1.2-4.4 1.7L92.7-39 88-37.2c-1.5.5-3.1 1-4.7 1.7L78.5-34c-1.6.5-3.2 1.2-4.8 1.6L68.9-31l-4.8 1.4-4.9 1.2c-2.9.7-4.5 1.3-4.5 1.5zM-82.9-47.4l.2.2.7.4 2.3 1.2 4.4 2c1.6.9 3.3 1.6 4.5 2a136.8 136.8 0 0 1 4 1.6c.4 0-.6-.3-1.5-.7l-2.9-1.3-4-1.8-4.1-1.8c-.9-.4-1.9-1-2.6-1.2a6 6 0 0 0-.8-.4l-.2-.2zm207 3.7c8.2-5 7.5-6.6-.7-1.5l-8.1 5a64.5 64.5 0 0 1-8.3 4.9 75.4 75.4 0 0 1-5.1 2.5c-1.4.6-2.4 1.2-3.6 1.6-2.2.9-4.5 1.7-8.9 3.6l-1.6.7-1.4.5-2.4.9-3.6 1.4-3.6 1.4-5.5 1.6c-9.2 2.7-9.3 2.5-18.6 4.5-4.7.8-7.1 1-9.5 1.4-1.2 0-2.4.4-3.9.5-1.5 0-3.3.3-5.7.5-3.9.3-8.9 1.7.1 1l5.7-.3 3.9-.4 9.6-1.3c9.4-2 9.5-1.8 18.8-4.5l5.5-1.6 3.7-1.3 3.7-1.3 2.4-.8 1.4-.5L90-26c4.4-2 6.7-2.8 8.9-3.8 1.2-.5 2.4-1 3.5-1.7l5.1-2.6c2.9-1.5 5.7-3 8.4-4.7l8.2-5zm234-2.8l-2.2-1.3c-1.5-.8-1.2-1 .3-.1l1.9 1.4zM.8-14.1H.4l-9.7-.8c-3.2-.4-6.4-1-9.7-1.3-2.5-.3-4.3-.8-5.8-1.1l-3.9-.8-3.9-.8c-1.5-.3-3.3-1-5.7-1.5-9.6-2.4-9.6-2.6-19.1-5.5l-9.6-3.7-2.3-1c-.7-.2-1.5-.6-2.2-1l-4.2-1.8-1.5-.6-1.8-.7-.9-.3c-1.4-.5 2.1 1 3.7 1.9l6.3 2.8 12.3 4.8 9.5 3.2c2.3.9 4.8 1.5 9.6 2.8l5.7 1.5 4 .8 4 .8c1.5.3 3.4.7 5.8 1 4.9.9 7.4 1.2 9.9 1.6l9.9 1c1.5.2 3 .1 4.4-.3 1.4-.5.1-.1 0-.1-.5-.2-1-.3-1.6-.2l-2.2-.3c-.2-.4-.4-.4-.6-.4zm-88.9-25.5l-.1-.1-.4-.3-1.6-1-4.9-2.5-4.8-2.3-2-1s3.1 1.4 6.7 3.3l4.9 2.6 1.6.8.4.2.2.3zm196.9 15l5.4-2.8 2.6-1.6 2.6-1.6 5.2-3.2c2.6-1.6 2.4-1.8 5-3.4l5.2-3.2 5.4-3c2.7-1.3 2.8-1.1 5.5-2.5s2.8-1.3 5.5-2.6c2.1-1 1.5-3.5-1.3-2.1l-2.7 1.4-2.7 1.4c-2.3 1.3-4.5 2.7-6.9 3.9L134-42l-3.5 2.2-7 4.4c-2.5 1.7-2.4 1.9-4.9 3.5l-2.6 1.5c-1 .4-1.8.9-2.7 1.5l-5.2 3c-.6.3-.7.8-.6 1a1 1 0 0 0 1.3.4zm-105 22c0 .5 3.5 1 7.4 1.3h12.6l6.3-.2c2 0 4.1-.3 6.3-.5l3.1-.2 3.2-.3c2-.3 4.1-1 6.2-1.3 2-.4 4.2-.5 6.2-1 2.1-.3 4.1-1 6.1-1.3l4.6-1a26 26 0 0 0 4.6-1.2c2.5-.8 5.1-1.5 7.5-2.4 2.5-1 5-1.7 7.4-2.7 2.1-1 4.1-1.6 5.8-2.5l5.8-2.6c3.5-2 6.1-2.4 5.4-3.4-.9-1.4-2.6.6-6.2 2.2-1.6.6-3.3 1.7-5.5 2.6-1.8.8-3.8 1.3-5.9 2-.9.5-1.9.8-2.8 1.2l-3 1-6 2c-2.8.8-5.1 1-8.1 1.8L53.3-6.2c-3.6.7-7.1 1.2-10.8 1.6-6.2.9-12.5 1.7-18.8 2-2.3.2-4.4 0-6.3.2l-6.3-.2c-3.7-.2-7.2-.4-7.3 0zm-39.4-6.1c.9.5 1.9.9 2.9 1 1 .4 2.1.5 3.1.8l3.7 1 4.3.8 7.5 1.3c.7 0 1.3.2 2 .3l2 .2 4 .3H-2.8s.1-.2 0-.2A24 24 0 0 0-6-3.7l-3.3-.6c-1-.2-2.2-.2-3.4-.5l-3.3-.5-3.3-.6-3.3-.6a104.6 104.6 0 0 1-6.6-1.2l-3.3-.7c-1-.2-2-.3-3.1-.3zm-24.9-7.8c.1-.2-1.4-.7-4-1.8l-4.3-1.7-4.2-2-4.3-1.8-4.2-2c-1.5-.6-2.8-1.3-4.2-2l-4.2-2L-94-32l-4.1-2.3-3.8-2.2 3.8 2.2 4 2.3 4 2.3c2.1 1.2 4.2 2.2 6.3 3.2l5.2 2.6 2.6 1.3 2.7 1.2 4.3 1.9c1.6.7 3.1 1 4.3 1.6 2.7 1 4.1 1.7 4.2 1.4zm4.4 1.5c.8.6 1.7 1 2.7 1.4l3.7 1.3a23.4 23.4 0 0 0 7.3 1.7c0-.2-2.1-.8-3.7-1.3l-3.3-1.1-3.4-1a19 19 0 0 0-3.3-1zm387.3-35.4c-.9-.4-.9-.2.1.2l2.8 1.4 3.3 1.7 3.9 2 6.7 3.5a245.6 245.6 0 0 1 7.2 3.8l-3-1.6-3-1.6-3-1.6-3-1.6-3-1.6-3-1.6-3-1.5-3-1.5zm-433.1 23.9A215.5 215.5 0 0 0-90.2-20l6.4 3.2 4.1 1.9a11.5 11.5 0 0 0 2 .8l-1.7-1-3.8-1.7c-1.8-1-4.4-2.1-7-3.4l-7.1-3.7-4.6-2.6zM-57.6-6c1 .5 2 1 3.2 1.4l3.9 1.4 4 1.2c1.4.4 2.7.8 4 1l4 1.2c2.2.5 3.4.7 3.4.5 0-.2-1-.7-3.1-1.3-1.1-.3-2.6-.5-4.1-1-1.2-.3-2.5-1-3.9-1.3L-50.3-4l-4-1.1c-2.1-.6-3.2-1-3.3-.8zM-29 2.3a22 22 0 0 0 6.5 1.9c3.4.7 6.9.8 7 .6 0-.3-3.3-1.1-6.8-1.7l-3.6-.7a8 8 0 0 0-3.1-.1zM-70.3-11c1 .7 2.2 1.3 3.4 1.7 1 .4 2.2.8 3.4 1-1-.7-2-1.2-3.2-1.5-1.2-.5-2.4-1-3.6-1.2zm375.1-40c-7-2-7.7-.5-.8 1.5l6.8 2.2 6.8 2.3 6.8 2.5 6.7 2.7 6.6 2.9 6.5 3 6.3 3.3c2.1 1 4.1 2.3 6.2 3.4.1 0 .3 0 .4.2h.2l.8.5-.9-.6-.6-.4-5.9-3.6-6-3.4-6.4-3.3-6.5-3-6.6-3-6.7-2.6-6.8-2.4-6.9-2.2zM55.5 4.3l3.9-.8 2.7-.6 6.6-1.6c6.5-1.7 6.5-1.8 12.9-3.8 6.3-2.3 6.4-2.1 12.6-4.7 3.1-1.2 4.7-2 6.3-2.5l2.5-1 1.6-.7 2-1c3-1.6 4.5-2.4 5.9-3.3 1.4-1 2.8-1.8 5.7-3.5l5.8-3.5 2.4-1.4 3.3-2.3 3.1-2.3 2.2-1.5a23 23 0 0 1 3.8-2.4l1.9-1.1c5.9-3.3 6.1-2.7 12.1-5.7 3-1.4 4.5-2.1 6-3l6.1-2.6c6.3-2.3 6.2-2.5 12.6-4.5 1.6-.5 2.8-1 3.8-1.1a96 96 0 0 0-17.2 3.8l-6.3 2.6-6.1 2.8c-6.1 3-6.1 2.9-12 6.2l-2 1-1.5 1-2.3 1.4-2.3 1.4c-.2 0-.6.4-.8.5a3 3 0 0 1-.7.5l-1.8 1.3-3.2 2.3-2.2 1.5-5.6 3.6c-2.9 1.7-4.4 2.4-5.9 3.2l-6 2.9-1.9 1-1.6.8-2.4 1.3-6 2.9C87.3-6 87.2-6.3 80.9-4.1c-6.4 1.9-6.4 2-12.8 3.7A57 57 0 0 1 61.6 1c-.8 0-1.6.3-2.7.5l-3.9.8c-13 2.8-2 2.4.5 2zM-8.9 5.6s1.6.7 4.6 1c1.6.3 3.3.3 4.8.6l5.8.7h6.8c3.9.2 7.8 0 11.7 0a121.8 121.8 0 0 0 17.1-2.3v-.3c-1.6 0-3.3 0-4.9.3-1.4 0-3.2 0-5.1.2a740.1 740.1 0 0 1-10.2.5H6.4L1.3 6l-5.2-.5c-3.3-.2-5-.2-5 0zm117.7-9.3l5.5-2.7c2.7-1.5 2.6-1.6 5.3-3l.9-.5.7-.5 1-.7 2.4-1.8c2.4-1.8 2.3-2 4.8-3.7l2.5-1.6 2.6-1.6 5.3-3c2.7-1.4 2.8-1.2 5.5-2.5l5.5-2.6c4.1-2 8.2-4 12.5-5.6l5.7-2.2c1.5-.7 2.7-1.4 4.2-2L179-40l2.9-1 3-.7c7.9-2.4 16-4 24.1-5 3.1-.4 3-.6 6.1-1 3.4-.3 6.8-.3 10.3-.6l1.9-.2 1.9-.1a225.6 225.6 0 0 1 32.4.8l5.7.6 5.7.8 5.7.8 5.6 1.2 5.6 1.2 1.1-.1c0-.1-.2-.3-.9-.5l-5.6-1.3-5.6-1.3c-2.8-.5-2.9-.4-5.7-1l-5.7-.8-5.7-.8-5.7-.5c-2.9-.3-2.8-.5-5.7-.7-2.9-.2-2.9 0-5.8-.1l-5.7-.2-5.8-.1h-5.8c-4.7.3-9.4.9-14.1 1.3L202.4-48c-3.1.5-3.1.3-6.2.9-3.1.6-3 .8-6.1 1.5l-3 .8-3 .9-3 .9-3 1c-3 1-2.9 1-5.9 2.2-2.9 1.2-2.9 1-5.8 2.3l-5.7 2.5c-2.8 1.2-2.7 1.4-5.4 2.7-2.7 1.3-2.9 1-5.6 2.4l-5.4 2.8-6.9 3.9a102 102 0 0 0-13.8 9c-1.2.9-1.7 1.5-2.3 2l-.9.8-.3.2-.3.2-.9.5c-2.6 1.5-2.8 1.3-5.4 2.8L108.2-5c-.7.3-.7.8-.6 1 .3.3.8.4 1.2.2zM3.6 16.6c0 .2.9.4 2.2.6l2.4.3c.9 0 1.8 0 2.8.2l6.3-.1h6.3l6.3-.2 6.3-.5 6.3-.5c2-.2 4.1-1 6.2-1.2l3.1-.4 3.1-.5c2.1-.4 4.1-1 6.1-1.3l4.6-1c1.5-.2 3-.6 4.6-1a168.5 168.5 0 0 0 15-4.7c2.1-.7 4.1-1.6 5.8-2.3l3.2-1.2 2.7-1.2c3.6-1.6 6.2-2.2 5.5-3.2-.4-.7-1.1-.5-2.1 0l-4.2 2c-.9.3-1.7.7-2.5 1.2l-3 1.3-5.9 2c-1.9.6-3.8 1.4-5.9 2-1.9.5-3.9 1-6 1.7-2.8.7-5.1.8-8.1 1.6l-5.8 1.4-5.8 1.2-5.4.8-5.4.7-4.7.6-4.7.5c-3.1.4-6.3.6-9.4.8h-6.3c-2.4.2-4.5-.1-6.3 0H5.7c-1.2 0-2 .2-2.1.4zm-39.4-5.7c1 .4 1.9.8 2.9 1l3.1.7c1.2.3 2.4.7 3.7.9l4.3.8 7.5 1.2c2.7.4 5.4.5 8.1.7h3.1l.2-.1s.1-.2 0-.2c-1-.3-2-.4-3.1-.4-1-.3-2.2-.5-3.3-.5l-3.3-.4-3.3-.5-3.3-.6-3.3-.5a104.6 104.6 0 0 1-6.6-1.2l-3.3-.7c-1.1-.2-2.3-.3-3.4-.2zm-24.8-7.5c.1-.3-1.4-.6-4-1.7L-68.9 0c-1.3-.5-2.7-1.2-4.2-2l-4.3-1.7-4.2-2c-1.5-.5-2.8-1.3-4.2-2-1.4-.6-2.9-1.3-4.1-2L-94-12l-4-2.3 4 2.5 4 2.3c2.1 1.2 4.2 2.2 6.3 3.2l5.2 2.5 2.6 1.3 2.7 1.2 4.3 1.8c1.6.6 3.1 1 4.3 1.6 2.5.8 3.9 1.5 4 1.2zm4.3 1.5a40.7 40.7 0 0 0 6.4 2.5l3.8 1.2c1.6.4 3.4.6 3.4.4 0-.2-2.1-.8-3.7-1.3l-3.3-1.1-3.4-1c-1-.4-2.1-.6-3.2-.7zm383.8-36.2l.7.4 2 1 2.9 1.2 3.4 1.6 3.9 1.8 1.7.8 1.7.9 3.4 1.7 7.1 3.8 2.7 1.5h.1l-2.7-1.5-2.9-1.7-2.9-1.6-3-1.6-3-1.6-3-1.5-3-1.5-3-1.4-3.1-1.4-2.1-.8-.9-.1zm-31.6-11c-.1.3 1.4 1 3 1.5 1.6.4 3 .5 3.1.3.1-.2-1.2-.7-2.8-1.2-1.7-.5-3.3-.8-3.3-.5zm12.3 3.7c.8.5 1.7 1 2.7 1.3l3.6 1.3a57.2 57.2 0 0 0 7 2.2c-1.2-.7-2.4-1.2-3.6-1.6l-3.2-1.3-3.4-1.1c-1.5-.5-3.1-1-3.1-.8zm-280 66.2h4.2c1.4 0 3.2-.2 5.5-.4a192.4 192.4 0 0 0 30.6-5.4c7.6-2 15-4.6 22.3-7.6l4-1.7 3.4-1.5a76.6 76.6 0 0 0 8.4-4.4 196.5 196.5 0 0 0-8.4 3.5l-7.3 3a226 226 0 0 1-22.5 7.6 216 216 0 0 1-22.2 4.6l-7.8 1-5.5.7c-1.6 0-3.1.3-4.7.6zM-101.9-5.5l1.3.5 3.5 1a9 9 0 0 1 2.2 1l2.4 1.5 2.6 1.5 2.7 1.5c3.6 2 7 3.6 9.5 4.8l2.9 1.3c.3 0 .5.2.8.3h.3l-.3-.1-.8-.4-2.9-1.4c-2.4-1.2-5.8-2.8-9.5-4.8l-2.7-1.4-2.6-1.4c-.8-.5-1.6-1-2.4-1.3-.7-.5-1.4-.8-2.2-1l-3.5-1-1.3-.6zm326.4-33.2a219 219 0 0 1 55.8 3.5 239.2 239.2 0 0 1 64.1 22.4l2.7 1.4 2.8 1.5 5.2 2.8 3 1.7-.4-.3-7.3-4.3a235 235 0 0 0-72.6-27.3 202 202 0 0 0-19-2.7l-2.4-.3-2.4-.2-4.8-.3-4.8-.2-4.8-.1a194.3 194.3 0 0 0-77.1 15.7l-5.8 2.5c-1.9.9-3.9 1.7-5.8 2.7l-5.7 2.9c-.5.2-1 .5-1.4.9l-1.4.8-2.7 1.4c-1.5.7-2.9 1.5-4.2 2.5l-1.5 1.4c-.4.4.4 0 1.7-.7 1.7-1 3.5-2 5.3-2.7l4-2.1.3-.2.2-.1.6-.3 1.1-.5 2.4-1.2c24-11.4 48.7-18.8 74.9-20.6zM-50.1 17l.7.3 2 .7 6.6 2c1.7.6 3.6 1 5.8 1.6l6.6 1.6a164 164 0 0 0 20.5 3.3l2.6.2h1l-1.2-.2-3.1-.4-4.1-.6-4.2-.7-5.2-1-6-1.2-11.4-2.7-7.2-2-2.3-.7-1.1-.2zM150.1-8.2l.8-.4c15-7.5 31-13 47.4-16.4 6.3-1.3 11.1-2 15-2.5l5.5-.6c.8-.2 1.7-.2 2.5-.2l2.4-.2 4.9-.3 5.5-.2 6.7-.1h8.5l8.5.7 6.7.7 5.5.7 4.9.7 4.8.8 5.4 1a180.7 180.7 0 0 1 14.8 3.7A212.3 212.3 0 0 1 336.5-7l2.7 1.2 2.7 1.4 5.3 2.7 3.7 2 4.3 2.4 2.1 1.2-1.9-1.1-3.8-2.2-3.7-2-7.8-4.1-8.1-4a245.6 245.6 0 0 0-40.2-14l-6.6-1.5-5.4-1.1-4.8-1-4.9-.7-5.5-.8-6.7-.8a153.8 153.8 0 0 0-13-.8h-10.7l-5.5.4c-1.7 0-3.3.3-4.9.4-.8 0-1.6 0-2.4.2l-2.5.3-5.5.6c-4 .5-8.8 1.2-15.1 2.5-6.3 1.2-11 2.5-14.9 3.5-1.9.5-3.7 1-5.3 1.6l-2.4.7-2.3.8-4.7 1.6-5.2 2-6.2 2.6c-1.1.5-2.4 1-3.6 1.7-1.3.6-2.7 1.2-4.1 2a119.6 119.6 0 0 0-4.6 2.5l-.7.5c-.4.2-.9.5-1.3.9-1 .5-2 1.2-2.9 2-.1.2-.1.2 0 .2a24.5 24.5 0 0 0 5.3-2.6l.1-.1.2-.1.4-.2.7-.3a54.8 54.8 0 0 0 3.3-1.7zM-24.6 34.2l1.2.3 3.6.7 5.9 1 1.8.3 2 .2 4.3.5c3.2.5 6.7.7 10.4 1 3.7.4 7.7.4 12 .5l5.5-.1 5.7-.2 5.8-.4 5.9-.5 5.8-.8c1.9-.3 3.8-.5 5.7-1 1.8-.2 3.7-.6 5.5-1l2.7-.4 2.6-.6 6.1-1.4 1.5-.3 1.4-.4 2.8-.8 5.3-1.5 4.8-1.6a152 152 0 0 0 17.2-7.6c-.1-.1-1.5.4-4.4 1.5l-12.8 4.7-4.8 1.7-5.4 1.7-2.8.9-2.9.8-6.1 1.5-2.6.6c-.9 0-1.8.3-2.7.4l-5.4.9-5.6.7-5.8.7-5.9.5c-2 0-3.9.4-5.9.4-1.9 0-3.8 0-5.7.2a51 51 0 0 1-5.5 0l-12.1-.1-5.5-.3-5.1-.5c-6.1-.5-10.6-1.3-13.7-1.7l-3.4-.5h-1.4zm-77.3-29.7A168.6 168.6 0 0 0-83.5 14l1.7 1 .8.5c.3 0 .6.3.9.4l3.3 1.5 5.6 2.5c1.6.6 2.9 1 3.9 1.5l1.1.4h.4l-.3-.1-1-.4-3.8-1.6-5.6-2.5-3.3-1.5-.9-.4-.8-.5a15 15 0 0 1-1.7-1c-4.7-2.6-9.2-5.1-12.7-6.8l-6-2.6zm362.4-22.7s.4.2 1.3.3l1.6.3c.7 0 1.4.3 2.3.4 3.6.7 9.1 1.3 16.7 3 9.6 2 19 4.7 28.2 8h.3c1.3.6 2.8.7 4.2.6a4 4 0 0 1 1.8.4l1.8.8 7 3 12.6 5.8a495 495 0 0 1 15.3 7.7l4.5 2.4-4.3-2.3c-3-1.6-7.8-4.2-14.9-7.8l-12.7-6.2-7.1-3.2-1.8-.8a5 5 0 0 0-2.1-.5c-1.4-.1-2.7 0-3.9-.5L311-7c-9-3.4-18.4-6.1-27.9-8.1l-5.3-1.1-2.4-.5-2.2-.3-7-1-4.2-.3h-1.5zm-42.8-1.1h-1.1l-7.6 1-7.6 1.3c-2.5.6-5 1-7.5 1.7l-3.7.8-3.7 1-7.3 2.2-3.6 1.2-3.6 1.3-3.6 1.3-1.8.7-1.8.8-7.1 3-2.6 1-2.4 1.3-4.3 2.2a136 136 0 0 1-3.9 1.9l-3.3 1.9c-4.2 2.5-7.7 4.3-10.8 6.6l-5 3.3-1.3.9-.3.2H123.5l-.7.5-3 1.7-7 4a719 719 0 0 1-9.1 4.6l-9.4 4.2-4 1.6-3.6 1.4-3.2 1.2a188.3 188.3 0 0 0-11.4 3.8l-2.9.8-6.4 1.7-3.7.9-4.2.8c-3 .5-6.3 1.3-10.1 1.7l-8 1-8 .6-4 .2H12.9l-7.6-.4-3.8-.2-3.8-.4-7.1-.7-7.1-1.1-5-.7-5.9-1-2.9-.5c-2.3-.3-.5.3 2.5 1a161.6 161.6 0 0 0 15.1 3.3l2.7.5 2.8.3 5.6.5c1.8 0 3.6.4 5.2.4 13.8.9 27.6.3 41.3-1.6 3.9-.4 7.2-1.2 10.2-1.7l4.2-.8c1.3-.2 2.6-.6 3.8-1 4.7-1 8.6-1.8 12.3-3l5.7-1.7a54.8 54.8 0 0 0 6.4-2.2l3.6-1.3 4-1.6 9.5-4.1 9.3-4.7 7.1-4.1 3-1.8.7-.4.1-.1.2-.1.2-.1.3-.2 1.3-1 4.8-3.3c3.1-2.3 6.5-4.2 10.6-6.7l3.3-2 3.8-2 4.3-2.1L156-.8l2.6-1.1c3.6-1.5 6.7-3 9.5-4l7.6-2.7a42.5 42.5 0 0 1 6.4-2l5.7-1.6c10-2.7 20.1-4.6 30.4-5.6 3.8-.3 6.9-1 9.1-1.2a23 23 0 0 0 4.2-.8c.1-.1.2-.1 0-.2-1.7-.2-3.5-.2-5.2-.1-2.5 0-5.3.3-6.8.4-.6.3-1.2.4-1.8.4zM-58.2 35l-.5-.1a5 5 0 0 1-1.5-.3l-5.1-2.3-15.7-7.4-14.8-7.3-6-3.2c.3 0 2.3 1.3 6 3.2a521.5 521.5 0 0 0 30.3 15l5.2 2.2 1.6.2h.5zm208.1-21.7l.8-.4a179.2 179.2 0 0 1 47-16.8l4.4-1 3.9-.5 6.6-1 10.3-1 10.4-.4H244c1.4 0 2.9 0 4.5.2 1.6 0 3.1 0 4.5.2 1.4 0 2.7.3 4 .4l6.7.6L274-5l5-.1h1.1l1.3.3 2.8.7A338.7 338.7 0 0 1 324 8l11.5 5 1.3.7 1.3.7 2.7 1.4a259.8 259.8 0 0 1 9 4.6l4.3 2.4 2.1 1.3-1.9-1.2a196 196 0 0 0-7.5-4.2l-7.7-4.1-2-1.1-2.1-1-3.9-2A227.1 227.1 0 0 0 299-.8c-6.2-1.8-10.8-3-14.7-4l-2.8-.7-1.3-.3-.5-.1h-.9l-4.9-.1L263.7-8l-6.7-.8-4-.4a509 509 0 0 0-9-.6l-4-.1h-6.7l-10.5.6-10.4 1c-2 .4-4.2.8-6.7 1l-4 .7-4.4.9-4.4.9-3.9 1-6.5 1.7-10 3.2c-3 1-6 2.2-9.8 3.7-3.7 1.6-8.2 3.4-13.9 6.4a43.4 43.4 0 0 0-6.5 4c-1 .8-1.9 1.6-2.6 2.6-.1 0-.1.2.1.2a20 20 0 0 0 3.9-1.8l2.8-1.4 2.3-1c.4-.3.7-.5 1.1-.6zM-25 54.5l4.8 1.2 5.9 1c2.3.5 5 .9 8.1 1.3 3.2.4 6.7.9 10.4 1 4 .5 8 .7 12 .7 7.7-.1 15.3-.6 22.9-1.6 7.9-1 15.3-2.4 22.2-3.8 4.1-1 8.1-1.7 11.9-2.5l1.4-.3L76 51l2.6-.8 4.8-1.7c4.3-1.7 8.6-3.6 12.7-5.7 2.8-1.5 4.2-2.4 4.1-2.5-.1-.2-1.6.3-4.5 1.4-2.9 1-7.1 2.8-12.7 4.8-3 1-6.4 2.4-10.1 3.4-3.8 1-7.8 2-12 2.8-6.9 1.3-14.3 2-22.1 3.2a187.4 187.4 0 0 1-35 1.5L1 57.4l-2.7-.2-5.1-.4c-3-.4-5.7-.6-8-1l-5.7-.6c-2.9-.7-4.4-1-4.5-.7zm-76.9-30l5.5 3.2c3.3 1.9 7.8 4.5 12.6 6.9l6.8 3.2 5.6 2.4 3.8 1.5 1.4.4-5.1-2.3-5.6-2.5-6.8-3.2c-2.4-1.2-4.8-2.3-6.9-3.5l-5.8-3.1c-3.3-1.8-5.2-3-5.5-3zM260.3 1.9c0 .2 1.7.4 5.3 1 .9 0 1.9.3 3.1.5l3.8.7A245.3 245.3 0 0 1 338.2 25l4.9 2.5 4.1 2.2 3.3 1.9 2.7 1.4c1.7.5 3 .7 3.7 1-.7-.3-1.9-.5-3.6-1a11.4 11.4 0 0 1-2.7-1.3l-3.2-2-4-2.2-4.9-2.6a228 228 0 0 0-55.8-20c-3.8-.7-7.1-1.4-10-1.8l-3.9-.6a184 184 0 0 1-3.2-.3c-3.5-.4-5.3-.4-5.3-.3zm-42.9-1h-1.1a195 195 0 0 0-58.9 16.5c-3.5 1.7-6.6 3-9.3 4.5l-2 1-.9.5-.5.2c-.3 0-.3.2-.5.3l-3.3 1.8c-2 .9-4 2-6 3.3l-4.9 3.4a120 120 0 0 1-10.7 6.7c-2.1 1.2-4.3 2.6-7 4l-4.2 2.3-4.9 2.4c-3.4 1.7-6.6 3-9.3 4.2-2.8 1.2-5.3 2-7.5 3a171.7 171.7 0 0 1-24 7.5c-2.4.5-5 1.2-7.9 1.7-3 .5-6.3 1.2-10.1 1.7-10.6 1.5-21.2 2-31.9 1.8l-3.8-.1-3.8-.2-3.8-.2-3.8-.3-3.5-.3-3.6-.4-7.2-1a67 67 0 0 1-5-.6l-5.9-1-2.9-.4c-4.5-.6 7 2.4 12.7 3.3 3.1.6 6.8 1 10.5 1.5l5.6.5c.9 0 1.8 0 2.7.2h2.6l5.2.4h5.2c3.4.2 6.9 0 10.3 0 6.9-.3 13.8-.9 20.6-1.8 3.9-.5 7.2-1.2 10.2-1.6l8-1.6c4.7-1.1 8.5-2 12.3-3.1 3.8-1 7.5-2.3 12.1-3.8l7.6-3c2.8-1.1 6-2.4 9.5-4.1 1.8-1 3.4-1.6 4.9-2.4l4.3-2.3c2.7-1.4 5-3 7.1-4.1 2.1-1.2 3.9-2.5 5.7-3.6 1.7-1.2 3.4-2.2 4.9-3.4l4.8-3.5a48 48 0 0 1 5.7-3.3l3.4-2h.2l.1-.1.5-.2.9-.5 1.9-1a202.8 202.8 0 0 1 14.2-6.7l4.5-1.8A200.7 200.7 0 0 1 187 8.7l5.7-1.5 3.1-.7 3.4-.7a198.3 198.3 0 0 1 23.2-3.5 91.4 91.4 0 0 0 8.2-1.5c.1-.1.2-.1 0-.2-.6-.1-1.2-.2-1.8-.1h-3.4l-3.8.2c-1.2 0-2.3 0-3.1.2h-1.1zm-276 54.8l-1.9-1-5.2-2-7.4-3.2-8.5-4-8.1-4-6.5-3.6c1.8 1.2 4 2.4 6.4 3.8l8 4.3a307 307 0 0 0 15.9 7l5.3 2 1.5.6c.4 0 .5.2.5 0zm-43.3-10.2l5.4 2.9 6.5 3.4 3.5 1.7 3 1.3 4.2 1.8 1.4.6c.2 0 .4 0 .6.2a15 15 0 0 0-1.7-.8l-3.8-1.8-3.2-1.5-3.8-1.8-3.9-2L-97 48l-4.9-2.4zm44.7 19.7c1 .5 2.1 1 3.3 1.3l3.9 1.4c1.3.4 2.6.9 4 1.2l4 1c1.5.5 6.4.9 4.3.3-1.1-.3-2.6-.5-4.1-1l-3.9-1.2c-1.4-.4-2.8-1-4.1-1.2l-4-1.1c-2.2-.6-3.3-1-3.4-.7zM-70 60.4a23.1 23.1 0 0 0 6.8 2.7c-1-.7-2-1.2-3.2-1.5-1.8-.8-3.5-1.4-3.6-1.2zm274.9-45.7l4.2-.7 2.9-.4 7.1-1 7.2-.3 7.2-.2 4.3-.1h2.9l7.2.3 7.2.4c.9 0 1.8 0 2.9.2 1.1 0 2.5.3 4.2.4l7.1.9c1.8.3 3.5.6 7.1 1 3.5.7 5.3 1 7 1.5l2.8.6 4.1 1c7 1.6 7 1.4 13.8 3.7 6.8 2.4 6.8 2.6 13.6 4.6 3.4 1 5.1 1.8 6.7 2.4l6.6 2.8a166.6 166.6 0 0 1 12.9 6.4l12.5 6.6c.1 0 .3 0 .4.2h.2l.8.5-.9-.5-.7-.4-11.9-7-6.3-3.4-6.4-3.3-6.6-3.1c-1.7-.7-3.3-1.5-6.7-2.7-6.9-2.2-6.8-2.3-13.6-4.8-4.5-1.8-9.2-3.1-13.9-4l-4.2-1-2.9-.5-7.1-1.3a87 87 0 0 1-7.2-1.2c-2.4-.5-4.8-.8-7.2-1l-4.3-.5-2.9-.2-7.2-.5h-7.2l-2.9.2c-1.1 0-2.5 0-4.3.2-3.6 0-5.4 0-7.2.3-1.8 0-3.6.3-7.2.6l-8.1.9-2 .2-1.9.3c-1.6.1-3.2.5-4.7 1.2-1.3.8 1.3.9 2.6.7zM68.8 70.4c-2.1.6 5.2.5 6.9 0l6.4-2.2 6.3-2.3 6.3-2.5 6.2-2.5a43.3 43.3 0 0 0 6.1-2.7c6.1-3 5.9-3.3 11.8-6.5 5.8-3.4 6.1-3 11.8-6.5 2-1.2 3.8-2.5 5.6-3.8l5.5-4 3.3-2.1.3-.2.3-.1.6-.3 1.2-.5a62 62 0 0 0 6.1-2.8c3-1.5 4.5-2.1 6-3 1.5-.6 3-1.5 6.1-2.7l6.2-2.5 6.3-2.2 6.4-2 6.5-1.6c2.7-.6 5.8-3-.4-1.7-3.3.8-4.9 1-6.6 1.5-2.2.4-4.4 1-6.5 1.8l-6.4 2.2-6.3 2.5c-2.1.8-4.2 1.7-6.2 2.7l-6.1 2.8-6 3-1.2.7-.6.3-.4.3c-.1 0-.2 0-.3.2l-3.3 2.2-5.6 3.7-5.6 3.6c-5.7 3.5-5.7 3.5-11.5 6.8-5.9 3-6.1 2.8-12.1 5.8l-3.5 1.8-2.4 1.3-6 2.9a69.5 69.5 0 0 1-6.2 2.4l-6.3 2.2-6.3 2-6.4 2zm261.6-29.2l.3.2.9.4 3.2 1.6 4.7 2.2 5.4 2.7a221.4 221.4 0 0 1 .1-.1c-1.9-1-3.7-2-5.4-2.7a62 62 0 0 0-4.7-2.2l-3.3-1.5-.9-.4-.3-.2zm-211.2 20c1.6-.5 3-1.2 4.5-2l.5-.3.5-.3 1-.7 2.2-1.5c1.6-1.1 3.2-2.3 5-3.4 1.7-1.1 3.4-2.2 4.8-3.3l4-2.6c1.3-.8 2.5-1.7 3.6-2.6-.1-.2-1.6.5-4 1.8l-4.2 2.3-4.9 3.2c-1.8 1-3.4 2.4-4.9 3.5-.8.6-1.5 1-2.2 1.7l-1 .8-.4.3c-.2 0-.3.2-.5.3a16.7 16.7 0 0 0-4 2.9zm125.2-40c0 .2.5.2 1.3.3.9 0 2.1 0 3.6.3l5.1.5a608.7 608.7 0 0 0 11.8 1.2l4.7.5 4.4.4a23 23 0 0 0-4.3-1l-4.7-.8a608.7 608.7 0 0 1-11.8-1.3l-5.2-.3h-3.6l-1.3.3zm-66 9.4c0 .2 2-.3 4.9-1l5-1.1 2.9-.7 3-.6c2-.4 3.9-1 5.7-1.3l4.7-1 4.3-1.1c-1.5-.1-3 0-4.4.4l-4.7.7-5.7 1.2-3 .7-2.9.8-5 1.4c-3 .7-4.9 1.4-4.8 1.6zm-252.6 39l-.3-.1-.9-.4a65 65 0 0 0-3.3-1.5 273.2 273.2 0 0 1 3.3 1.7l.9.4h.3zm305.2-38c-4.8.3-7.2.4-9.7.7-2.4.2-4.9.4-9.6 1-9.5 1.3-9.5 1.4-19 3.3-4.7 1-7 1.7-9.3 2.4-2.3.7-4.7 1.3-9.2 2.8-9.1 3.2-9.2 3-18 6.8-4.4 2-6.5 3-8.6 4.3l-3.4 1.9-4.9 2.9a93 93 0 0 1-2.8 1.6l-2.1 1.3-3.3 2-3.3 2.2-2.1 1.4-1.2.9-.7.5-.7.4c-4.2 2.4.6 1.2.6 1.2 4.1-2.7 5.9-4.2 7.9-5.5l3.3-2.1c.6-.4 1.3-1 2.1-1.4l2.7-1.6 4.9-2.8 3.5-1.7 8.6-4.1c8.8-3.8 8.6-4.1 17.7-7.3l5.4-1.7 3.8-1c2.3-.7 4.6-1.2 9.3-2.3 9.4-2 9.4-2 18.8-3.3 4.7-.6 7.1-.7 9.5-1l9.5-.5c4.8-.2 7.5-.3 8.6-.5 1.2-.1.9-.2 0-.4-2.8-.3-5.5-.4-8.3-.3zm126.1 33.9l-2.2-1.3-2.7-1.6-1.7-1-1.9-1.1-4.5-2.5-4.5-2.3-2.7-1.4-2.7-1.3-5.5-2.6c-2.2-1-4.3-2-6.5-2.7l-6.6-2.5a206.2 206.2 0 0 0-59.1-12.5h-.5s-.2.2 0 .2c2.7.5 6.9.7 10.2 1.2l4.9.7 5.7 1 5.1 1 5.5 1 5.2 1.3 5.4 1.4 2.6.7 2.6.8 5.3 1.6c3.5 1.2 7 2.2 10.3 3.5 3.6 1.3 6.9 2.7 10.1 4l5.2 2.3 2.4 1c.7.5 1.5.8 2.3 1.2l5.3 2.6a105.1 105.1 0 0 0 6.5 3.4l1.7 1c1.1.6 1.9 1 2.7 1.6l2.1 1.3zM-95.3 69c1.8 1 1.9.9.1-.1l-6.7-3.4 6.6 3.5zm375.5-23.2c0 .2 2.6.6 7.2 1.7 2.5.5 5.2 1.4 8.5 2l8.6 2.5 8.3 2.6 4.4 1.6 3.8 1.5 2.9 1 2.1 1c1.1.5 1.7.7 1.8.6l-1.6-.8a81 81 0 0 0-8.8-3.6l-4.5-1.6-8.2-3L296 49a109 109 0 0 0-8.7-2c-4.7-1.1-7.1-1.3-7.1-1.1zm64 22.7h.1l.4.4 1.6.9c1.3.7 1.4.7.1 0-.7-.4-1.2-.6-1.6-1l-.4-.1-.2-.2zm-204.1-.8c-2 1-1 2 .3 1.4l1.4-1 1.6-1 .8-.6c1.1-1-2.5.5-4.1 1.2zM197 46.6c1 0 2 0 2.9-.2l9.2-1.4c2.2-.4 4.7-.6 7.4-1s5.5-.5 8.5-.8l8.6-.6 7.6-.2H253.3a79.6 79.6 0 0 0-6.3-.7l-5.5-.2h-7.8l-8.8.6c-3 .3-5.8.4-8.4.8a117.8 117.8 0 0 0-19.5 3.7zm-35.5 11c.1.3 5.9-1.7 12-3.8l4.3-1.5c1.3-.4 2.5-1 3.5-1.2l3.2-1.4c0-.2-1.3 0-3.4.6l-3.6 1-4.4 1.4a60 60 0 0 0-11.6 4.9zm43-2c3.5-.6 5.3-1 7.1-1.2l7.1-1 7.2-.4 2.9-.1 4.3-.1 4.3-.1h2.9l7.2.2c7.2.4 7.2.3 14.3 1l7.1.9L276 56c7.1 1.3 7 1.5 14 3l7 1.8 2.8.7c.5 0 1.1.3 1.8.5l2.3.7L308 64a263.4 263.4 0 0 1 9.4 3.5c3.4 1.2 5 1.9 6.7 2.6.8.3 4.2.5 3.2 0l-2.7-1.1-6.7-3c-3.3-1.3-5.1-2-6.8-2.5l-2.8-1-4.1-1.4-4.1-1.3-2.8-.8-7-1.8c-7-1.7-7.1-1.6-14.2-3-3.6-.5-5.4-.8-7.1-1.2l-7.2-1c-7.2-.7-7.2-.8-14.5-1.1h-10.1l-4.3.3c-1.8 0-3.2 0-4.3.2-1.1 0-2 0-2.9.2-1.8 0-3.6.2-7.2.6l-8.1.9c-1.3 0-2.6.3-3.9.6-1.6.1-3.2.5-4.7 1.2-1.2.8 1.3.8 2.7.7zm-40 9.3c-6.2 2.6-5.4 4.4.8 1.8 6.2-2.5 6.2-2.5 12.5-4.7 6.4-2 6.4-2 12.9-3.6 2.7-.7 5.8-3-.4-1.7-6.6 1.6-6.6 1.4-13.1 3.4-6.4 2.2-6.4 2.3-12.7 4.8zm18.4 4.6c-2 .5 6.8 0 15.1-1.6a384.2 384.2 0 0 1 25.3-3.8 240.7 240.7 0 0 1 25.4-.7l15.1 1.4 5.5.7 4.8.7c3.2.4 6.3 1 10.3 1.8l6.6 1.4c2.4.6 2.7-.2.2-1l-6.6-1.4-10.2-2.1-4.8-1-5.5-.7a128 128 0 0 0-40.9-.8c-6.4.8-12.8 1.6-25.4 4l-14.9 3z" fill="#004fa7" fill-rule="nonzero"/>
</svg>
