<svg viewBox="0 0 960 56" xmlns="http://www.w3.org/2000/svg" fill-rule="evenodd" clip-rule="evenodd" stroke-linejoin="round" stroke-miterlimit="1.4">
  <path d="M193.7-35.8c-1.8-.2-4-.7-6.2-.9-1.3 0-2.6-.3-3.8-.6l-4-.8c-2.7-.7-5.8-1-9.2-1.7-3.3-.6-6.8-1.7-10.6-2.5-8.2-1.9-36-8.4-26.3-5.2 4.8 1.4 9.2 3.1 13.8 4.4 4.3 1.2 8.7 2.5 12.7 3.3 3.8.8 7.3 1.9 10.7 2.3l9.1 1.5 4 .6 3.8.4 6.2.6c7.4.9 11 .4 11 .2s-3.6-.6-11.2-1.6zm93.8-1.7c-6 1.2-22.1 2.5-23.8 3.3-.4.2-.2.2 0 .2 1 .5 4 .7 8.6.9 2.3 0 5 .2 8.1 0 3.2-.2 6.7-.6 10.5-1l5.6-.7c1.9-.4 3.6-.6 5.2-.8 3.4-.7 6.7-1.3 9.7-1.7 6-1.5 11.2-2.5 16-3.8 9.4-2.5 17-5 24.5-7.5s258.4 1 267.8 4c2.5.8 5 1.5 7.5 2l8.4 2.4c6 1.2 12.7 3.1 20.4 4.2a382 382 0 0 0 83.2 4.3c3.3 0 6.9-.4 10.6-.6 3.8-.2 7.6-.4 11.3-.8 7.5-1 15-1.7 21.1-3.2 2.7-.6 6.5-1.2 10-2.3l10.3-2.9c6-1.9 9.4-3.3 5-2.5-1.3.2-3.6.9-5.9 1.3-3.7.8-7.7 1.4-11.7 2.3-3 .4-6.4 1-10 1.4-4.6.9-9.4 1.3-14.4 2-2.5.1-4.8.5-7.3.7l-7.1.7c-10.2 1-20.3 1-30.5 1.4-21.3 0-42.8-.8-64.1-4.6C595.5-51.3 342-49.4 337-48a358.3 358.3 0 0 1-44.5 9.8c-.8 0-1.4.3-2.3.3-.9 0-1.8.2-2.7.4zM909-49.2l-4.4.2h1.3l3.1-.2zm-53.7 11.3c-2.3.6-5.2 1.2-8.1 2.3-2.5.8-5.2 1.9-8.2 2.7-2.7.8-5.2 2.3-7.7 3.1-3 1-6 1.5-8.1 2.3-4.2 1.5-6.3 2.7-6 3.2.1.4 2.4 0 6.8-1.3 2.3-.6 5-1.7 8-2.7 2.4-.8 5-1.7 7.9-2.5l8-2.7 7.6-3a36 36 0 0 0 6.7-2.5c-.2-.4-2.5 0-6.9 1zm-56.8 17.3c-2 .4-4.6 1.3-7 1.7a61 61 0 0 0-13.7 3.5c0 .7 7.1 0 14-1.2a41.4 41.4 0 0 0 13-4.4c-2.1-.1-4.2 0-6.3.4zM881.2-45c-4 .8-6.9 1.6-6.9 2 0 .3 3.4 0 7.1-1a32 32 0 0 0 7.4-2.3c0-.2-3.6.4-7.6 1.3zM321.8-20.6c-3-.4-6.3.6-9.6 1.5-2.5.6-5.2 1-7.7 1.4l-8 1.5-8 1c-3.5.5-6.2.9-8.5 1-2.3.3-4 .3-5.8.5-3.6.2-7.4.6-14.5.8-7.3.3-10.8 0-14.4 0-3.5-.2-7.3-.2-14.4-.4-14.4-.2-14.4-.4-28.8-1.2-14.2-1.7-14.4-.9-28.6-3.6A75 75 0 0 1 165-20l-5.6-1.4c-3.6-.9-7-1.9-13.8-4-13.8-4.2-13.6-4.6-27.4-9.2L104.5-39c-1.6-.6-3.5-1-5.6-1.6L90.5-43 86-44.2c-1.4-.2-2.7-.6-3.7-.8-2.3-.4-4-.9-5.9-1.3-3.5-.8-7-1.2-14.4-2.5-3.5-.6-16.3-.4-14.4-.2l5.8.8c3 .3 5.8.8 8.6 1.5 7.1 1.5 10.7 1.9 14.2 3 1.7.3 3.6.8 5.7 1.4 1 .2 2.3.6 3.7.8l4.6 1.3 8.2 2.3 5.6 1.7c3.6 1 6.9 2 13.8 4.6 13.8 4.8 13.6 5.2 27.6 9.6 7 1.8 10.4 3.1 14.2 3.7 1.9.4 3.5.9 5.8 1.3s4.8 1.2 8.6 1.6c14.4 2.8 14.4 2.1 28.8 4 14.6.8 14.6 1.5 29 1.7 3.6 0 6.5 0 8.6.2l5.9-.2c3.5-.2 7.3-.2 14.6-.4 7.3-.5 10.9-.9 14.4-1.3l5.9-.6c2.3-.2 5-.6 8.5-1.3l8.6-1 5.8-.9c4.9-.6 9.7-1.5 14.4-2.7 1.7 0 6.5-2.3 3.4-2.7zM647-18c2.9-.2 1.8-1.6-11.3-5.2-6.3-2-9.6-3-13-3.8a123 123 0 0 1-13-4l-25.6-8.5c-6.5-2-9.8-3-13.2-3.8l-5.4-1.4-8-1.9c-6.6-1.7-145.4-2.7-148.7-2-3.3.5-6.7 1.4-13.4 2.8a432 432 0 0 1-13.1 3.6l-13 4C356.7-34 356.7-33.5 344-29c-11.9 4.1-4.1 5.2 1 3.5 13-4.2 12.8-4.6 25.8-8.8l13-4c3.3-.8 6.4-1.6 12.9-3.5l13.1-2.7c3.4-.4 6.7-.8 13.4-2 4.5-.6 9-1.3 13.4-2.4 3.3-.8 80.4-.4 93.8 1.3 6.7.6 10 1.2 13.3 1.6 4.6.5 9 1.2 13.4 2.3 3.4.9 5.9 1.3 7.7 2l5.3 1.4c3.3.8 6.4 1.7 13 3.7 12.9 4.2 12.7 4.4 25.6 8.8 6.5 2.1 9.6 3.4 13 4.4l13.1 3.8c2.7 1 9.6 1.6 12.4 1.4zm115 4h-6.8c-3 0-6.5.4-10.5.6-3.1.2-6.7 0-10.2 0H724c-3.3 0-6.8-.2-10.4-.4h-10.4a42 42 0 0 1-5.3-.2l-5-.4c-3.7-.2-7-.7-10.4-.7l-10.3-.6c-3.1-.2-7-1-9.8-.6-.2 0 0 .6-.2.6l.4.4c2.5 1 6.3 1.5 9.2 2 8.2 1.5 16.5 2.6 24.9 3 8 .5 15.6.3 23.6.5 4.6 0 9 0 13.6-.2 3.9-.2 7.8-.5 11.7-1 3.1-.5 6.4-.3 9.8-.7l4-.6 2.9-.7c.8-.1 1.6-.4 2.3-.8-.9-.2-1.7-.2-2.5-.2zM62.6-25.8c-.6 0-1.2-.2-1.8-.4a41 41 0 0 0-7.1-1.3l-10.3-1.2-5.8-.7-6.3-.4-6-.4-3-.2h-2.7c-3.5 0-6.9 0-9.6-.2-5.2 0-8.2-.2-8.8-.2l8.8.2 9.6.2h2.7l3 .2 6 .4 6.3.4a351.2 351.2 0 0 1 23.4 2.7 1.3 1.3 0 0 0 1.6.9zM492-31.2c-2.9-.2-6.4-.5-10.4-.5s-8 0-12.1.3l-12 .4-9.5.8c-5.5.6-8.8 1-8.8 1.5 0 .2 3.3.4 8.8.4l9.6-.2 11.7-.2c4.2 0 8.3-.2 12-.4 3.9 0 7.4 0 10.5-.3 6.1-.2 10-.4 10-.8.3-.4-3.7-.6-9.8-1zM227.4 9.9l-10.5-.4-12.1-.8c-4.2-.2-8.1-.9-11.7-1l-9.6-1.1c-5.4-.9-8.8-1.3-8.8-1 0 .1 3.2 1 8.6 2.2l9.4 1.5 11.7 1.5 12.1.8c3.8.2 7.3 0 10.4 0 6.1 0 10-.2 10-.6 0-.5-3.5-.7-9.5-1zm132-20.5l-21.5 7-11.3 3.3c-3.3 1-6.7 1.7-9.2 2.5a39 39 0 0 0-6.3 1.9c-1.4.4-2.3.6-2.3.8 0 .2.9.2 2.5 0l6.5-1c2.7-.7 5.9-1 9.4-2A197.3 197.3 0 0 0 360-8.8c5.7-2.3 9.2-3.7 9.2-4.2-.2-.4-4 .7-9.8 2.5zM898-25.4l2-.2c1-.3 2.1-.4 3.2-.4a344.8 344.8 0 0 1 14.2-1.7l5.8-.6 6.3-.4c2-.2 4.2-.4 6-.4 1.1 0 2-.3 3-.3h2.7c3.5-.2 6.9-.2 9.6-.2l8.8-.2-8.8.2c-2.7 0-6 0-9.6.2h-2.7c-1 0-1.9.3-3 .3l-6 .4-6.3.4c-2 0-3.9.3-5.8.6L907-26.4l-4 .6-3 .6a2 2 0 0 0-2.1-.2zM771 8.5a71 71 0 0 0 7.2-.9L788.5 6l3-.4 2.8-.6c2.1-.4 4-1 6-1.5 4.3-.8 8-2 11.6-3l5-1.6 4.2-1.4c5.2-1.9 8.3-3 8.3-3.2 0 0-.8.3-2.3.5L821-3.7a59.7 59.7 0 0 1-9.4 2.5c-3.6.9-7.4 2.1-11.5 3l-6 1.4-3 .7-3 .6c-3.7.6-7.2 1.4-10.2 2-5.8 1.1-9.8 1.7-9.8 2.2l3-.2zM600.6-8.3c8.5 3.2 21 7.6 36.1 11.5l11 2.5 10.3 2c1.7.1 3.2.5 4.8.8l4.4.6 8 .8c3.8.5 7.6.7 11.4.6 2.8 0 4.2 0 4.2-.2s-1.4-.4-4.2-.8c-2.7-.4-6.4-.6-11.2-1.5l-8-1-4.4-.6c-1.4-.2-3-.7-4.6-.9l-10-1.8L637.6 1C622.8-2.6 610.5-7 601.7-9.7c-8.8-2.7-14-4.2-14.2-3.8-.4 0 4.6 2.1 13.2 5.2zm-337.8 42c19.4-1 19.4-1.2 38.6-4.1a318 318 0 0 0 19-4c4.8-1 9.4-2.5 18.8-5.2 18.6-5.9 18.4-6.5 36.8-12.6 18.4-5.6 18.6-5 37.4-9a318 318 0 0 0 11.3-2l7.7-1.3c2.3-.4 4.8-.6 7.7-1.2 3-.3 6.7-.7 11.5-.9 2.5-.2 4.6-.4 6.5-.4 1.9-.2 3.6 0 5-.2l8-.2c2.5 0 4.8 0 7.9-.2l11.5.2c4.8.2 8.3.2 11.5.2l7.7.6c4.8.4 9.6.6 19.2 1.9l6.3.8c1.9.2 3.5.7 5 .9l7.7 1.4c2.6.4 5.2 1 7.8 1.7l11 2.7L578 6c3 .9 5.2 1.7 7.5 2.6 4.6 1.4 9.2 3 18.4 6.2 18.4 6 18.4 6.7 37.2 11.3 9.4 2.3 14.4 3 19.2 3.8l3.8.6 4.2.4c2.9.4 6.6.6 11.4 1.3 18.2 1 8.2-1.7.3-2.3-4.8-.7-8.4-1-11.3-1.5-1.4-.2-2.8-.4-4.2-.4l-3.6-.6c-4.8-.9-9.6-1.5-19-3.8-18.8-4.8-18.6-5.2-37-11.3-9.1-3.1-13.7-4.8-18.3-6.5L579 3.2c-3-1-6.5-1.8-11.1-3.3-4.6-1.3-8.4-1.9-11.3-2.7-3-.7-5.4-1-7.7-1.5-2.5-.4-4.8-.6-8-1.2-1.4-.3-3.1-.7-5-.9l-6.5-.8C519.8-8.5 515-9 510-9.3l-8-.8-11.4-.5-11.5-.2c-3.1.2-5.4.2-8 .5l-7.9.4c-1.7 0-3.3 0-5 .2l-6.5.4-11.5.8c-2.9.2-5.4.7-7.9.9A149.4 149.4 0 0 0 413-5c-19 4-19 4.6-37.6 10.4-18.4 6-18.4 6.5-36.8 12.4-9.2 2.7-13.8 4.1-18.6 5.2-2.3.6-4.6 1-7.7 1.9l-11.3 2c-19 3-19.4 2.8-38.6 4-6.7.4-38.5 3.2.6 2.7zM20.5-8l10.3.6c3.7.4 7.7.4 11.9 1 6.7.9 14 1.7 21.7 3.4 7 1 14 2.9 21.5 4.8l10.5 3.1c3.5 1 7 2.3 10.6 3.6 7.1 2.5 14.2 4.8 21 7 3.5 1.3 7 2.6 10.6 3.6 1.6.6 3.5 1 5.2 1.7 1.7.4 3.3 1 5.2 1.4 7.5 2.3 14.9 4 21.5 5.5l11.7 1.8c3.6.7 7 .9 10 1.3 3.4.4 7.2 1 10.7 1.3 3.8.2 7.1.4 10 .4.5 0 0-.4 0-.4-.3-.2-.6-.3-1-.3-2.7-.4-6.3-.6-9.6-1a290.2 290.2 0 0 1-61.2-13C125.4 13 109.8 7.2 93.9 2.6l-7-1.9c-2.2-.6-4.5-1-6.8-1.7l-7-1.6-7-1.3C57.9-5.5 49.8-6.2 41.7-7 35-7.4 27.9-8 21.2-8.3L1.3-8.5l19.2.5zm724 38.8c-2 .4-7.2.6-7.8 1-.2 0 0 .3 0 .3.6.4 3.7 1.2 8.8.8 10-.6 15-1 20-1.7 5-.6 10-1 19.9-2.9 19.6-4 19.8-3.8 38.8-9.8 19-6.3 18.8-7.1 37.8-13.2l12.8-3.7 13-3.2c4.1-.8 9.5-1.6 13.5-2.5 3.5-.8 11.3-1.6 8.4-1.6-.7 0-1.3 0-2 .2l-3.7.4c-1 0-2 .2-3.1.4-3 .4-6.3 1-9.2 1.7-3.4.4-6.5 1.4-9.6 2-6.7 1.5-13.4 3.6-20 5.5-4.9 1.4-8.4 2.7-11.4 3.5l-7.7 2.5-19 6.3c-19.2 5.9-19 6-38.6 10-3.4.7-6.5 1.3-9.7 1.7l-9.8 1c-6.5.9-13 .9-19.6 1.5h-.6l-1.3-.2zM928.6-7.4h1l3.6-.2c1.7 0 3.4-.2 5.2-.5 1.9 0 4 0 6-.2l15-.4a577.6 577.6 0 0 0-21 .4c-1.9.2-3.6.2-5.2.5l-3.6.2-1 .2zM161.6 46c-2.3-.7-5.9-1.5-10.5-3-2.5-.8-5-1.4-8-2.5-2.8-1-5.8-2-8.9-2.9-5.4-1.9-11.3-3.8-17.1-5.6-5.9-2.1-11.5-3.4-17-5-3-1.1-6.2-2-9.1-2.8L82.8 22c-4.6-1-8.1-1.6-10.4-2-1.2-.3-2.4-.4-3.6-.5 1.2.4 2.5.7 3.8.9 2.5.6 6 1.4 10.4 2.7 2.5.6 5 1.4 8 2l9 2.8c5.2 1.7 10.8 3.5 16.7 5.6 5.8 2.1 11.4 4.2 16.9 5.9l9 2.7c2.7.8 5.4 1.4 7.9 2 2.3.7 4.4 1.3 6.3 1.7 1.8.5 3.3.7 4.6 1 2.5.7 3.7 1 3.7.7 0-.2-1.2-.6-3.5-1.4zm-130-31.8h-1l-3.6-.2-5.2-.4h-6L.6 13.5l15 .4 6.1.2 5.2.4 3.6.2c.2-.3.6-.4 1-.4zm578.5 24.9c1.9.4 7 1.8 7.7 1.6.2 0 0-.2 0-.2-.4-.8-3.1-2.7-7.7-4.2-19-6.4-19-6.6-38.2-12.5-19.5-5.2-19.5-5.8-39.5-9l-12-1.4-8-.4c-5.1-.3-10.1-.7-20.4-.7l-13.3-.2-13.4.2h-7a65 65 0 0 0-7 .7c-3.7.6-11.3 1.8-8.3 2.5l1.8.2h7.4c2.9 0 6.2-.7 9.4-.7 3.3-.2 6.4-.4 9.8-.4 3.3-.2 6.9-.4 10.2-.4 3.6 0 6.9 0 10.5.2 6.7 0 13.4.5 20 1.3l8.2.8 11.7 1.5c19.8 3.1 19.8 2.7 39.2 7.7 12.8 3.5 24.9 8.6 37.4 12.7l.6.2c.3.3.6.4.9.5zm-284 5l-7.4 1.6c-3.2.7-6.7 1.5-10.9 2.1-9 1.7-19.4 3.2-31.3 4.4l-9 .7c-3 .2-5.9.4-8.6.4-5.6 0-10.8.2-15.7.4-8.7.2-14.6 0-18.3.2-3.8 0-5.5.2-5.5.4s1.7.4 5.7.6c1.8 0 4.4.3 7.5.5l5.2.2h21.5c5.5 0 11.3-.7 17.4-.9l4.4-.4 4.3-.6 8.4-1c2.7-.3 5.2-.9 7.7-1.3l7.1-1.3c4.2-.6 7.8-1.8 10.9-2.5l7.3-2c3.8-1.3 5.4-2.1 5.4-2.4-.2-.4-2-.2-6 .9zm423 9.2h-11l-17.7-.2c-5.7-.2-12-.2-18.2-.5-3.1 0-6 0-9-.2-2.9 0-5.8 0-8.5-.2l-4.8-.4a30 30 0 0 1-4.6-.8l-8.4-1.3-3.3-.2-3-.4a43 43 0 0 0-8.1-.2c0 .2 1.2.6 3.5 1.2l4.6 1a68 68 0 0 0 6.3 1.1l8.2 1c1.5.3 3 .5 4.6.5l4.8.4a1610.6 1610.6 0 0 0 17.5 1c6.3.3 12.3.3 18 .5 6.7-.2 12.5-.7 17.5-.9a56 56 0 0 0 6.5-.4c1.9-.2 3.3-.4 4.6-.4 2.5-.2 3.8-.4 3.8-.6.4.2-.9 0-3.4 0zm62.6-10.9c-3 .6-7 1.9-10.9 2.7l-10.4 2.5c-2.7.7-4.2 1-4.2 1.3 0 .2 1.7.2 4.4-.2s6.5-1.3 10.4-2.1a75.5 75.5 0 0 0 15.5-5.2c-1.6.2-3.2.5-4.8 1zM396 21.8c-2.3.4-5 1.3-8 2.1l-9.2 2.7a163.7 163.7 0 0 0-22.1 8.6c0 .2 2.7-.2 6.9-1.3 4.2-1 9.8-2.7 16-4.8 3.2-1 6.3-1.8 9-2.9 3-.8 5.5-1.9 7.8-2.5 4.6-1.5 7.5-2.5 7.3-2.7 0-.4-3.2 0-7.7.8zm509.7-5.2c-2.8.3-5.6.7-8.4 1.3l-8 1.4c-2 .4-3 .9-3 1 0 .3 1.2-.1 3.3-.4 2-.2 4.8-.6 8-1.2 3-.6 6-1.3 8.3-1.5l3.8-.6c-.3-.4-1.7-.2-4 0zm41.6-3.1l-8 .2-2.5.2c-.6 0-.8 0-.8.2s.4 0 .8 0h2.5c2.7-.4 5.3-.6 8-.6l12.3-.2c-1.3 0-6.3 0-12.3.2zm1.4 21.7c-4.4 0-10.2 0-16.3.4-2.9.2-5.8.4-8.5.4-2.4.1-4.8.3-7.1.7l-8.4 1-3.8.6h1.3l3.1-.2 9.2-1c4-.4 8.6-.7 14.2-1 5-.6 10-.8 14.9-.7l12.3-.2c-1.3-.2-4.6 0-10.9 0zm-93.4 14.2c-2.3.6-5.2 1.3-8.1 2.3-2.5.8-5.2 1.9-8.2 2.7-2.7.9-5.2 2.3-7.7 3.2-3 1-6 1.4-8.1 2.3-4.2 1.4-6.3 2.7-6 3 .1.5 2.4 0 6.8-1.2 2.3-.6 5-1.6 8-2.7 2.4-.8 5-1.7 7.9-2.5l8-2.7 7.6-3a36 36 0 0 0 6.7-2.4c-.2-.7-2.5-.3-6.9 1zm-56.8 17.3c-2 .5-4.6 1.3-7 1.7a61 61 0 0 0-13.7 3.6c0 .6 7.1 0 14-1.3a41.4 41.4 0 0 0 13-4.4c0-.2-2.7-.2-6.3.4zm82.7-24.4c-4 .8-6.9 1.7-6.9 2 0 .3 3.4 0 7.1-1a32 32 0 0 0 7.4-2.3c0-.4-3.6.5-7.6 1.3zM321.8 66.7c-3-.4-6.3.7-9.6 1.5-2.5.6-5.2 1-7.7 1.5l-8 1.4-8 1c-3.5.5-6.2 1-8.5 1.1l-5.8.4c-3.6.2-7.4.7-14.5.9-7.3.2-10.8 0-14.4 0-3.5-.2-7.3-.2-14.4-.4-14.4-.3-14.4-.5-28.8-1.3-14.2-1.7-14.4-.8-28.6-3.6a75 75 0 0 1-8.4-1.8c-2-.7-4-1-5.6-1.5-3.6-.8-7-1.9-13.8-4-13.8-4.1-13.6-4.6-27.4-9.2-6.9-2.3-10.4-3.3-13.8-4.3-1.6-.7-3.5-1-5.6-1.7l-8.4-2.3L86 43c-1.4-.2-2.7-.6-3.7-.8-2.3-.4-4-.8-5.9-1.3-3.5-.8-7-1.2-14.4-2.5-3.5-.6-6.3-1-8.6-1.2l-5.8-.6-5.9-.7-8.5-.4-7-.4-3.5-.2h-18c9.5.4 18.9.6 28.5 1.7l8.5.8 5.9.8c1.9.2 3.5.4 5.8.9 3 .2 5.8.7 8.6 1.4 7.1 1.5 10.7 2 14.2 3l5.7 1.4 3.7.9 4.6 1.2 8.2 2.3 5.6 1.7c3.6 1 6.9 2 13.8 4.6 13.8 4.8 13.6 5.2 27.6 9.6 7 1.9 10.4 3.1 14.2 3.7 1.9.5 3.5.9 5.8 1.3s4.8 1.3 8.6 1.7c14.4 2.7 14.4 2 28.8 4 10.7.6 20.4 1.4 20.4 1.4a459.2 459.2 0 0 0 17.2.4l5.9-.2c3.5-.2 7.3-.2 14.6-.4 7.3-.4 10.9-.8 14.4-1.3l5.9-.6c2.3-.2 5-.6 8.5-1.2 3.6-.5 6.3-.9 8.6-1 2.3-.5 4-.7 5.8-1 4.9-.5 9.7-1.4 14.5-2.6 1.6 0 6.4-2.3 3.3-2.8zM647 69.2c2.9-.2 1.8-1.6-11.3-5.2-6.3-2-9.6-2.9-13-3.7a123 123 0 0 1-13-4c-12.7-4.4-12.7-4.4-25.6-8.6-6.5-2-9.8-2.9-13.2-3.7l-5.4-1.5-8-1.9c-6.6-1.6-10-2.3-13.3-3.3a90.3 90.3 0 0 0-13.4-2.7c-13.6-2-13.6-.7-27.2-1.5l-8.1-.4c-1.8 0-3.6 0-5.4-.2a51 51 0 0 1-5.5-.2c-2 0-4.6-.2-8.1 0l-13.6.2a51 51 0 0 0-5.4.2l-8.2.6c-6.9.4-10.2.6-13.6 1.3l-13.5 1.6c-6.7 1.3-10 1.7-13.4 2.3l-13.4 3a432 432 0 0 1-13.1 3.5l-13 4c-12.7 4.4-12.7 4.8-25.5 9.4-11.9 4.2-4.1 5.2 1 3.5 13-4.1 12.8-4.6 25.8-8.7 6.5-2.1 9.6-3.2 13-4 3.3-.8 6.4-1.7 12.9-3.6l13.1-2.7c3.4-.4 6.7-.8 13.4-2 4.5-.5 9-1.3 13.4-2.4 3.3-.8 6.7-1.2 13.3-1.6 3.4-.2 5.9-.5 8-.5 1.8 0 3.6 0 5.4.3 3.4.2 6.7.2 13.6.2 3.3-.2 5.8 0 8 0 1.7 0 3.6 0 5.4-.2 1.6 0 3.3-.3 5.4-.3a54 54 0 0 1 8 .3c13.3 1 13.3 1.4 26.7 3 6.7.7 10 1.3 13.3 1.8 4.6.4 9 1.2 13.4 2.3 3.4.8 5.9 1.2 7.7 1.8 2.1.7 3.8 1 5.3 1.5 3.3.8 6.4 1.7 13 3.8 12.9 4.1 12.7 4.4 25.6 8.7 6.5 2.1 9.6 3.4 13 4.4 3.3 1 6.7 2.1 13.1 3.8 4 1 8.2 1.5 12.4 1.4zm115 4h-6.8c-3 0-6.5.4-10.5.6-3.1.3-6.7 0-10.2 0H724c-3.3 0-6.8-.2-10.4-.4h-10.4a42 42 0 0 1-5.3-.2l-5-.4c-3.7-.2-7-.6-10.4-.6l-10.3-.7c-3.1-.2-7-1-9.8-.6-.2 0 0 .6-.2.6l.4.5c2.5 1 6.3 1.4 9.2 1.8 8.2 1.6 16.5 2.7 24.9 3.2 8 .4 15.6.2 23.6.4 4.6 0 9 0 13.6-.2 3.9-.2 7.8-.5 11.7-1 3.1-.5 6.4-.3 9.8-.7l4-.6 2.9-.6c.8-.2 1.6-.5 2.3-.9 0-.2-.9-.2-2.5-.2zM432.4 62.4c1.3-.3 3.1-.7 5-.9 2-.4 4.2-.7 6.3-.8 4.2-.4 7.7-1 8.3-1.5.2-.2.2-.2 0-.4-1.6-.8-10-2.3-22.5-.6a268.4 268.4 0 0 0-46 10c-1.6.4-3.1 1-4.6 1.5-6.2 1.8-12.3 4.1-20 6.6L346 80.7c-2.3.9-5 1.7-7.7 2.5l-8.8 2.6L325 87l-4.2 1-7.7 2c-5 1-9.4 1.6-13.1 2.2-1 .3-2 .4-3 .4-1 .3-1.9.3-2.7.5l-5.2.6c-3.4.4-6.7.8-9.8 1-17.1 1.4-34.3 1.8-51.4 1.3-3.2 0-6.3 0-9-.2-3-.2-5.4-.4-8-.4-5-.5-9.3-.5-13.3-1s-7.5-1-11-1.3l-9.9-1.5c-12.7-2-25.3-4.6-50-13l-16.2-5.4c-5.5-1.7-10.9-3.5-16.5-5l-8.4-2.3-8.3-1.9-4.2-1-4.2-.9-8.6-1.4c-2.7-.6-5.6-.9-8.7-1.3l-9.2-1c-6.3-.6-12.4-.9-17.6-1C20 57 12.6 57 7.4 57c-5.2 0-8.4-.2-4.6 0 1.6 0 3.2 0 4.8.2 3.1.2 6.5.2 10 .5 1.4 0 2.8 0 4.2.2 1.5 0 3 .2 4.4.4l12 1 6.2.7c2 .1 3.9.4 5.8.8l6.3.8c2 .2 4.1.9 6.2 1l6.3 1.1 6.3 1.3c17.3 3.7 34 9.4 51.1 15.4a358.2 358.2 0 0 0 59.8 16.1l11 1.5c4 .6 8.6.8 13.6 1.2l8.2.7c3 .2 5.8.2 9.2.2 17.3.6 34.7.2 52-1.5 3.3-.2 6.5-.8 9.8-1.2l5.2-.7 2.8-.4 2.9-.6c4-.9 8.3-1.5 13.4-2.5l7.9-2c1.5-.3 3-.5 4.4-1l4.6-1.2c16.5-4.6 32.6-10.5 48.7-15.3 16-5 32.4-8.6 49-10.8l2-.2c-.3-.2.6-.2 1.4-.4zm362 28.6l-6.9 1-11.4 1.7-16.1 1.7c-3.4.2-6.7.4-10.3.4-3.5.2-7.3.4-11 .4h-18.2L714 96c-7.3-.2-14.8-.2-22.5-1l-11.7-.9-12-1.5c-15.6-2.3-30.5-4.3-44-8.5-16.3-4.8-31.6-12-43.9-15.5l-15.7-4-11.5-2c-6.2-.9-9.4-.9-9.4-.5-.2 1 13 3.2 36 11 12 3.9 27 9.1 43.4 14.1 14.6 4.5 29.4 7.8 44.5 9.8l12 1.5c3.9.4 7.9.6 11.6.8 7.8.7 15.3.7 22.6.9h6.3l6-.2c4-.2 8-.5 11.7-.5 3.8 0 7.3-.6 10.9-.8 3.5-.4 6.9-.6 10.2-.8l16.3-2.3 12-2.3 4.1-.9 3-.8c1.6-.4 2.4-.8 2.2-.8l-1.9.2zM946.8 57c-7.7 0-18.1.7-29 1.5-5.4.6-10.4 1.2-15 1.9l-12.2 2.3c-3.5.6-6.2 1.4-8.1 1.9-1 .2-2 .4-3 .8 0 .2 4.2-.6 11.1-1.9l12.2-2a738.3 738.3 0 0 1 44-4.5c7.6 0 12.2-.2 12.8-.2l-12.8.2zM576 89.1c-6-1.7-11-2.5-11.3-1.5-.2 1 4.2 3.8 10.3 5.5 6 1.6 11.9 2.3 12.3 1.4 0-1-5.2-3.5-11.3-5.4zM95.5 90.3L87 88l-7.1-1.4c-4-.9-6.5-1.3-6.5-.9 0 .3 2.3 1 6.3 2.1 1.9.7 4.4 1 6.9 2l8.5 2.4c12.1 3.8 20.7 6.5 21 5.9.1-.9-8.2-4.2-20.6-7.8zm-53-9.8l-6.3-.6-13.1-.8c-4.9-.2-9.4-.2-12.6-.2-4.8 0-9 0-9.8-.3l10.9.5 11.5.4 11.9.8c2.7.2 5.2.2 6.9.4 1 .2 1.9.2 2.9.2s-.9-.2-2.3-.4zm396.9-1.2c-4.8 0-9.5.5-14.2 1.2-5.6.9-10.7 2.1-14.2 3-3.6 1-5.4 2-5.4 2.7.2.8 2.3.6 6 .4 3.6-.2 8.6-1 14.2-1.9 4.7-.5 9.3-1.2 13.8-2.3 3.4-.8 5.2-1.5 5.2-2 0-.7-2-1.1-5.4-1.1zm500.5 0l8.4-.2 11.3-.5c-1.3 0-5.5 0-11.3.3-3.1 0-6.3 0-8.4.2l-2.7.2c-.3 0-.7 0-1 .2 1.2-.2 2.5-.2 3.7-.2zm-41.1 4.6c1.5-.2 3-.7 4.4-.9l3.5-.6 3.2-.6c0-.2-1.3-.2-3.4 0l-3.5.2-4.4.6c-6.3 1-12 2.5-12 3 0 .4 6-.5 12.2-1.7zm-59 16.7c11-4 19-6.9 19-7.5-.1-.7-8.7 1.6-19.5 5.4-11 3.8-10.3 6 .6 2zM527 79.3c-2-.5-4-.9-6-1l-7.1-.7c-4.3-.5-8.5-.7-12.8-.6-5 .4-9.8 1.4-10 2.3 0 .8 5.6 1.2 10.9 1.9 3.1.4 6.9 1 11.5 1.2 2.3.2 4.3.2 6.2.2l5.5.2c5.4.2 9.8.7 10-.2.2-.8-3-2-8.2-3.3zm422.7 21.3c-3 0-3 .2 0 0 5.8 0 9.4-.2 10-.2-.6.2-4.2.2-10 .2zm-497.7 0c-3.7.2 15 .2 13.8 0a64 64 0 0 0-13.8 0z" fill="#c6c6c6" fill-rule="nonzero"/>
</svg>
