<svg xmlns="http://www.w3.org/2000/svg" viewBox="0 0 200.438 196.215">
  <defs>
    <clipPath id="a">
      <circle cx="95.937" cy="95.937" r="95.937" transform="translate(884 1030)" fill="#000155" stroke="#707070"/>
    </clipPath>
  </defs>
  <g transform="translate(-878.7 -1030)" clip-path="url(#a)">
    <path d="M913.4 1042a3 3 0 0 0-.7.3c-.5 0-1 0-1.8.2l-1.2.1-1.3.1c-1.8.1-4 .3-6.3.3h-3.6l-3.7-.1-7-.5-3.1-.3-2.7-.4a496.9 496.9 0 0 1 0 0l2.7.2 3 .3c2.3.1 4.6.4 7.1.4h7.3c2.3 0 4.4-.2 6.2-.3a11.4 11.4 0 0 1 1.3 0 9.3 9.3 0 0 1 1.2-.2l1.9-.1h.3zm28.6 4h-.3l-4.8.4-4.8.4-4.2.5-5.7.8-1.8.2c-.4 0-.7.1-.8 0a5.3 5.3 0 0 0 .6-.2 14.4 14.4 0 0 0 1.6-.3 541.6 541.6 0 0 1 9.8-1.5l5.3-.5 2.2-.2zm58.1 8.2l2.3.8 4.3 1.7 4.5 2c6 2.8 11.5 5.4 16.4 7.3l5.9 2.1 4 1.3 2.3.7.7.3a12 12 0 0 1-3-.6l-4-1.1c-1.6-.4-3.5-1.2-5.9-2a116.7 116.7 0 0 1-8-3.3l-8.9-4c-1.4-.8-2.9-1.4-4.4-2l-4.1-1.7-4-1.4a46 46 0 0 0-1.8-.6zm28.5 4l.6.2 3.1 1 1.7.7 1.9.5 4 1.2a186.5 186.5 0 0 0 23.7 4.7l4.6.6 2.5.2 2.6.3 3 .3h3.4l3.7.2h4.3l2.2-.2 2-.1a17.4 17.4 0 0 0 2-.1l1.5-.1 3.5.4-5 .5-3 .2-3 .1h-8l-3.4-.1a451 451 0 0 0-5.7-.4l-2.5-.2-4.6-.5a172.4 172.4 0 0 1-24-4.6 155.9 155.9 0 0 1-15.4-5.4zm99.4 14a140.8 140.8 0 0 0-18.3 1.6 177 177 0 0 1-19.1 2.2l-2.5.2h-7.4l-5-.2-4.9-.4a28.7 28.7 0 0 1-5.3-.8c-.4-.1.3-.1 1.4-.1 1 0 2.7 0 4.8.2l3.4.2 4 .2a52.3 52.3 0 0 0 7.7-.2l3.8-.2 3.8-.3c5-.5 10-1.3 14.9-2 4-.6 8.1-1 12.2-1.4zm57.8 8c5.5 2.1 10.7 4.6 16 7a144.4 144.4 0 0 0 19 7.4c2 .7 3.8 1.2 5.7 1.6l2.9.8 2.8.6 4.7 1 4.6.7 2.6.5-7-1-3-.5-3.5-.6-2-.5-2-.5-4.3-1a131.5 131.5 0 0 1-14.9-5l-13.5-6a124 124 0 0 0-13.7-5.2zm24.7 3.5l7.2 2.7 5.4 1.7 5.1 1.4 2.2.5 2.1.4 3.6.7 1 .3-.8-.2-3.5-.7c-1.3-.3-2.7-.4-4.2-.8l-5.2-1.3-5.6-1.7-8.4-3.1zm31 8.4a147.3 147.3 0 0 0-4.5-.7l4.5.7zm-270-37.8a3.8 3.8 0 0 0 1 .1 3.4 3.4 0 0 1 .9.1 58781.9 58781.9 0 0 1 3.6.7c1 .2 1 .4 1.8.6l1.9.4 1.8.4a5.3 5.3 0 0 0 1 .1 5.5 5.5 0 0 1 .8.1l1.8.6c1 .3 1 .1 1.9.4l1.8.5c.1.1.2.5 0 .4 0 .1-.1.3-.4.3l-1.7-.4c-.9-.2-.9-.4-1.7-.6a5.8 5.8 0 0 0-1-.1 5 5 0 0 1-.9-.2l-1.7-.4a17.3 17.3 0 0 0-1.9-.3c-.8-.1-.8-.3-1.7-.4a16.5 16.5 0 0 1-1.8-.3c-1-.1-1 0-1.9-.2-1-.1-1-.3-1.8-.4l-1.9-.1-1.8-.3a15.9 15.9 0 0 0-1.9-.3l-5.5-.8a18.2 18.2 0 0 0-1.9 0 5 5 0 0 1-.9-.2 5.8 5.8 0 0 0-1-.1 17.3 17.3 0 0 0-1.8-.2l-1.8-.2h-2a15.3 15.3 0 0 1-1.8-.1l-1.7-.1-1.7-.1H946a14.7 14.7 0 0 0-1.7 0 4.7 4.7 0 0 1-.8 0 4 4 0 0 0-1-.1H939l-1.7.2c-1 0-1 0-1.7.2s-1 0-1.8 0c-.9 0-.9 0-1.7.2l-.3-.1a.4.4 0 0 1 .3-.3l1.7-.2a14.8 14.8 0 0 1 1.7-.1l1.7-.3 1.8-.1c.9 0 .9 0 1.7-.2a15 15 0 0 1 1.7-.2h5.2a5.9 5.9 0 0 1 .8 0 4 4 0 0 0 1 0 14.3 14.3 0 0 0 1.7 0 17 17 0 0 0 1.9 0 5 5 0 0 1 .9.2 5.7 5.7 0 0 0 1 0l1.8.1a5.1 5.1 0 0 1 .9.2 5.6 5.6 0 0 0 1 .1h1.8l1.9.3 1.8.1c1 .2.9.3 1.9.4l1.8.3a14.9 14.9 0 0 1 1.9 0c.9.2.8.3 1.8.4zm183.2 25.7l3.4.7c1.7.3 1.7.1 3.4.5 1.8.3 1.8.4 3.4.8a1.3 1.3 0 0 1 .8.4c.2.2-.2.4-.5.6a2.3 2.3 0 0 1-.7 0l-3.3-.5-3.5-.5-3.4-.4-3.5-.6-3.4-.4-3.5-.4c-1.8 0-1.8 0-3.5-.2-1.8 0-1.8-.1-3.5-.2l-3.5-.1a14.7 14.7 0 0 1-1.5-.2 9.4 9.4 0 0 0-1.9 0h-3.3l-3.4.1-3.4.1c-1.7.1-1.7.3-3.3.5l-3.3.3c-1.6.3-1.7.2-3.4.4-1.6.3-1.7.1-3.4.3-1.6.3-1.6.5-3.3.7l-3.3.5c-.4 0-.6-.2-.2-.4a.6.6 0 0 1 .5-.5c1.7-.2 1.7-.3 3.3-.6l3.4-.4 3.3-.6c1.7-.3 1.7 0 3.4-.3l3.3-.5 3.3-.3c1.7-.2 1.6-.4 3.4-.5 1.6-.1 1.6-.2 3.3-.2l3.5-.1 3.4.2h3.5a8.3 8.3 0 0 1 1.8.2 10.6 10.6 0 0 0 1.7.2l3.5.3 3.5.2 3.4.5 2.6.2.9.2zm16 3.2l2.5.7 2.2.7c1.2.4 1.2.2 2.3.6l2.2.7 2.2.8 2.1.8c1.1.3 1 .5 2.1.9a19.4 19.4 0 0 0 2 1c1.2.4 1.2.3 2.3.8l2 1 2.2.9 2 .9a.4.4 0 0 1 .3.4h-.4c-1-.6-1-.5-2.1-1l-2.2-.8-2-1-2.2-.8-2.2-.8-2.2-.8-2.2-.6c-1.1-.4-1-.6-2.2-.9l-2.2-.6-2.2-.6-2.2-.5-2-.4a1.7 1.7 0 0 1-.6-.4c-.2-.2-.6-.5-.4-.8a1 1 0 0 1 .5-.3 1 1 0 0 0 .5 0zm-174-22.5l3.2 1c1.6.5 1.7.7 3.2 1.3l3.2 1.1c1.6.7 1.5.9 3 1.5l3.2 1.4 3 1.3c1.5.6 1.7.5 3.2 1.2l3.1 1.2 3.1 1.3c1.5.6 1.5.8 3.1 1.3 1.7.5 1.7.4 3.3 1l1.6.6 1.7.6 3.3 1a9.2 9.2 0 0 0 1.7.3 9.3 9.3 0 0 1 1.7.3l3.3.9 3.5.5c1.7.3 1.6.6 3.3 1 1.7.2 1.8 0 3.4.3 1.8.2 1.8.4 3.5.7a1.4 1.4 0 0 1 .7.4c.2.3-.2.8-.4.9a2.5 2.5 0 0 1-.7.2l-6.8-1-3.6-.6-3.4-.8-3.4-.8-3.4-.8-3.3-1-1.8-.5a7.4 7.4 0 0 1-1.6-.6l-3.3-1.2c-1.7-.6-1.5-.8-3-1.4-1.6-.7-1.7-.5-3.2-1.2l-3.1-1.5-3-1.5-3-1.3-3-1.5-3.1-1.3-3-1.4-3.2-1.1-3.2-1.2a.6.6 0 0 1-.5-.4.7.7 0 0 1 .6-.2.6.6 0 0 1 .1 0zm-67-7a.5.5 0 0 1-.4.5l-2.6.4-2.5.5c-1.2.2-1.3 0-2.6.2l-1.7.3a6.8 6.8 0 0 1-.9.1c-.2 0-.8 0-.6-.3l.3-.1a.3.3 0 0 1 .2 0l.6-.1h.7c.4-.2.9-.2 1.3-.2 1.2-.2 1.3-.4 2.5-.5l2.6-.4a23.7 23.7 0 0 1 2.5-.5zm-29.6-3.7a.4.4 0 0 1-.3 0 4.1 4.1 0 0 1-.6 0H892.9l-2.2-.1-2.3-.2-4.7-.5-4-.5 4 .3 4.7.4 2.3.2h2.2l3.8.2 2.5.1h.7zm-20.5-1.3a225.6 225.6 0 0 1 0 0zm277 39.3l1.5.3a12.4 12.4 0 0 1 1.6.2c.8.2 1.3.4 1.2.5s-.5.2-1.3.2a14 14 0 0 1-1.6-.4h-1.5l-1.6-.2a40.2 40.2 0 0 1-2.9-1h1.4a9.4 9.4 0 0 1 1.6 0l1.6.4zm-7.5-.7c0 .2-.7.3-1.5.2-.7 0-1.4-.3-1.4-.6 0 0 .8-.3 1.6-.2s1.3.5 1.3.6zm-174.2-24.1a12 12 0 0 1-3.7-.3 17.6 17.6 0 0 1-3.9-1c0-.1 2 0 4 .3s3.7.8 3.6 1zm-12.2-2.1c1.5.2 2.2.4 2.1.5s-.6.2-2 0l-3-.3-2.9-.3a6.2 6.2 0 0 1-2.2-.4c0-.1.7-.2 2.3-.2l2.8.2 2.9.5zm178 25.7h-2.4l-2.3-.2-2.4-.2h-2.3a23.6 23.6 0 0 0-2.4-.1 23.1 23.1 0 0 0-2.4 0c-1.1 0-1.1.2-2.3.2-1.2.2-1.2 0-2.4 0s-1.1.2-2.3.2-1.1.2-2.3.3-1.2.2-2.3.3c-2.4 0-.7-1 0-1h2.4l2.3-.3 2.3-.2c1.1 0 1.2-.3 2.4-.3s1.2.2 2.3.1l2.4-.2a5 5 0 0 1 1.2.1 6.2 6.2 0 0 0 1.1.1c1.2 0 1.2-.2 2.4-.1a10 10 0 0 1 1 .1 7 7 0 0 0 1.3.1l2.4.2 2.3.1c.5 0 1 .8 0 .8zM979.5 1064c0 .2-.5.3-1.1.2s-1-.4-1-.6c0-.1.6-.3 1.2-.2s.9.4.9.6zm185.4 25.7c1.2.2 2.2.6 3.4 1 1.8.3 1.8.2 3.5.7l3.5 1.1 1.8.5.9.2a3.2 3.2 0 0 1 .8.1l.2.2.3.1a.3.3 0 0 1 .1.1c.2.3-.5.2-.8.2a7.3 7.3 0 0 1-1.2-.4l-2.3-.7-3.4-.8c-1.8-.4-1.8-.5-3.5-1s-1.8-.4-3.5-.8a1 1 0 0 1-.7-.5v-.1a2.2 2.2 0 0 1 .8 0v.1zm-212.5-29.3c0 .2-1 .3-2 .2a5.2 5.2 0 0 1-2.3-.3c0-.2 1.1-.3 2.2-.3a7.7 7.7 0 0 1 1 0l1.1.4zm33 4.6a26 26 0 0 1 5.3 1.3 10.6 10.6 0 0 1 2.3 1 6.6 6.6 0 0 1-2.3-.2l-2.9-.8a31 31 0 0 1-2.9-.7c-1.2-.4-2-.8-1.9-1h.5l1.8.4zm219.1 31.4l2.5 1 2.5 1 2.5 1 2.4.9c1 .2 1.7.6 2.5.8l2.6.8 2.5.8 2.6.7a19.7 19.7 0 0 1 2.5.7l-2.5-.5-2.6-.6-2.6-.7-2.6-.8-2.5-.8c-.9-.4-1.8-.6-2.6-.8l-2.5-1-2.4-1c-1-.3-1.7-.8-2.4-1.1-1.5-.6-2.4-.8-2.2-1.2h.1c.3 0 1 .4 2.2.8zm-288.3-40.5l-1 .3c-.5.1-1 0-1-.1s.5-.4 1-.5a2 2 0 0 1 .5 0c.3 0 .5.2.5.3zm27.9 4h.4c.3.3-.3.4-.7.5a6.1 6.1 0 0 1-1.2 0h-2.4c-1.8.2-1.7.3-3.6.4-1.7.2-1.8 0-3.5.2l-3.6.3a1 1 0 0 1-.8-.2l.6-.3h.2l3.5-.3 3.6-.3c1.8-.2 1.8 0 3.6-.1a16 16 0 0 0 1.8-.1l1-.1h.7zm52.5 8.2l1.6.3 1.5.6 1.4.6 1.5.6c.8.4 1.1.7 1 .8s-.6.2-1.4 0a8 8 0 0 1-1.4-.7c-.5-.2-1-.2-1.6-.3a11.8 11.8 0 0 1-1.5-.5 15.3 15.3 0 0 1-1.4-.7c-.7-.3-1.1-.7-1-1h.2l1 .3zm-84.7-11.5l-4.4.4c-1 0-1.6 0-1.4-.2a3.1 3.1 0 0 1 1.3-.2l4-.4a5.4 5.4 0 0 1 1.2 0c.5 0 .6.3-.7.4zm183.3 25.7c.1.6-1 .3-2.7.7l-3 .4-3 .3-3 .2c-1 0-2-.3-3.1-.3l-3.1-.1h-3c-1.2 0-2.2-.3-3.1-.4l-3-.3c-2-.2-3-.2-3-.7.1-.4 1.2-.2 3-.2l3 .2 3 .2h3l3 .1h3l3-.1h3l3.1-.1a22.3 22.3 0 0 1 2.5-.1c.2 0 .3 0 .4.2zm89.8 13.3a4.3 4.3 0 0 1 1.8 1 4.7 4.7 0 0 1-2-.6c-1-.4-2.1-.8-2-1h.3a8.7 8.7 0 0 1 1.9.6zM902.7 1057a4.1 4.1 0 0 0 .8-.2l-.8.2zm-1 0h1a8.1 8.1 0 0 1-1 0zm-1.8 0a14.3 14.3 0 0 1-2 .1 14.6 14.6 0 0 1-1.8 0h-3.8l-1.9-.1-1.8-.1-1.9-.2a8.6 8.6 0 0 1-1.7-.2 9.3 9.3 0 0 1 1.7.1l1.9.1h1.9l1.8.2h3.8a15 15 0 0 0 1.9 0h1.9a67.7 67.7 0 0 0 0 .1zm291.1 41.1l2.6 1.2 2.6 1.2a9.2 9.2 0 0 1 2 1c-.2.2-.7 0-2-.6-1-.3-1.8-.8-2.8-1.2l-2.5-1.2a16.4 16.4 0 0 1-2-1 .3.3 0 0 1 .1 0 11.5 11.5 0 0 1 2 .6zm-183-25.5c.8.4 1.2.8 1 1s-.6.2-1.3-.2-1.2-.6-1.2-.9c0-.1.4-.2.7-.1a3.2 3.2 0 0 1 .9.2zm-82.4-11c0 .2-.4.3-1.3.5l-1.5.1-1.5.4-1.6.2-1.6.1a6.4 6.4 0 0 1-1.2 0l1.2-.3a13.8 13.8 0 0 1 1.6-.3l1.5-.2 1.5-.2a9.6 9.6 0 0 1 1.6-.3 4.9 4.9 0 0 1 1 0h.2zm183 26.2c0 .2-.5.4-1.3.6s-1.4 0-1.5-.2c0-.1.6-.6 1.3-.7a3 3 0 0 1 .9 0c.3 0 .5.2.6.3zm123.5 17.4l2.6.6 2.5.4 2.6.5-2.5-.4-2.5-.4-2.6-.5c-.3 0-.5-.2-.5-.2zm-219.7-30.5c.6.3 1 .8 1 1-.1 0-.7 0-1.4-.3s-1.2-.7-1.1-.9h.7a3.2 3.2 0 0 1 .8.2zm140.2 19.7c3.3.6 3.3.8 6.6 1.3l6.5 1.3c3.2.9 3.3.7 6.5 1.5l6.3 2 3.2 1.2 3 1.2a134.2 134.2 0 0 1 9.2 4l4 1.8 4.1 1.8c2.1 1 2 1 4.1 1.8l4.1 1.6 4.3 1.5 4.3 1.3 2 .6 2.2.6 2.2.5 1.1.3 1.2.3c.8 0 1.5.2 2.3.4l.6.2a10.8 10.8 0 0 1 1.3.2l1.5.3a10.1 10.1 0 0 0 1.4.3h.3l-1.2-.1-6.2-1.3-3-.7-3.2-.7-2.6-.7-4.4-1.3c-2-.8-2-.7-4.2-1.4s-2-1-4-1.7l-4.3-1.7-4-1.8-4-1.9c-2-.9-2-.7-4-1.7s-4.6-1.8-5.1-2c-1.5-.7-2.3-1-3.1-1.2l-3.1-1-6.4-1.8-6.4-1.6-6.6-1.2c-3.3-.4-3.2-.6-6.5-1-1.7-.4-2.5-.4-3.3-.5l-3.3-.4c-3.2-.3-3.3-.2-6.6-.4l-3.3-.3h-3.3l-3.2-.2h-3.3c-3.3.1-3.3.4-6.5.6l-3.3.3-3.2.4c-3.3.5-3.3.1-6.6.7l-6.5 1.2-3.3.4-3.3.4-3.4.3-3.4.1a19 19 0 0 0-2 .2 13 13 0 0 1-1.3.1 32.3 32.3 0 0 1-3.4.3 14.6 14.6 0 0 1-2 0l-1.4-.1-3.4-.1-6.8-.6-3.4-.4c-.9 0-1.7-.1-3.4-.4-3.4-.3-3.4-.4-6.7-1l-2.8-.4c-1-.1-1.9-.2-4-.7l-3.3-.7-1.3-.3-2-.5-3.3-.9-3.2-.9-3.3-1-3.2-1a19.2 19.2 0 0 1-3-1.3l-3.2-1.3c-3-1.4-3.2-1.1-6.2-2.4-3.1-1.4-3-1.5-6-3l-3.1-1.4-3-1.4-3.2-1.3-3.2-1.1a18.7 18.7 0 0 1-2-.7l-1.2-.5-3.3-1-1.1-.4-.9-.2-1.3-.2a27.3 27.3 0 0 1-3.4-.8l-6.7-1.6-6.8-1.3a27.8 27.8 0 0 0-3.4-.5c-1 0-1.8-.1-3.5-.4l-3.4-.5-3.5-.3c-3.5-.3-3.5-.2-7-.3l-3.3-.2-3.5-.1a26.4 26.4 0 0 0-3.4 0c-1 .2-1.7.2-3.5.3l-3.4.4c-.9 0-1.7 0-3.4.3l-2 .3-4.4.6-4.4.6-4.5.7c-2.2.4-2.1.3-4.4.5l-4.4.3c-1.2 0-1.7.2-2.3.2a15 15 0 0 1-2.2.1h-4.5l-4.5-.2-4.4-.2-4.5-.4-3.6-.4-3.7-.5v-.3h.7l2 .3a13.2 13.2 0 0 1 1.6.1h.2c2.2.4 4.4.5 6.6.6a1.8 1.8 0 0 1 .6 0l4.5.3h9a15 15 0 0 0 2.2 0l2.2-.2c2.3-.1 2.3-.1 4.5-.4a42.3 42.3 0 0 0 4.4-.5l4.4-.5 4.4-.7 4.4-.5 2-.4 3.5-.4 3.4-.3a83.1 83.1 0 0 0 6.9-.6h3.4l3.5.1c3.5 0 3.5.2 7 .4l3.5.2c.9 0 1.7.2 3.5.4l6.9 1 3.4.6 1.4.1 2 .4a32 32 0 0 0 3.3.5 27.7 27.7 0 0 1 3.6.6l3.4 1 3.4 1c3.4 1 3.5.7 6.8 1.8l6.5 2.4a32.6 32.6 0 0 1 3.2 1.5l3.1 1.5 6.1 2.5 6.1 2.5c3 1.2 3 1.5 6 2.6s3.3 1 6.4 1.9l1.9.5 1.3.3 3.3.8 1.9.5 1.3.3 3.3.8 6.5 1.3c3.3.6 3.3.4 6.6.8l3.3.3 3.3.2c3.4.3 3.3.5 6.7.7h3.3l1.4.1a12 12 0 0 0 2 .1l3.2-.1h1.3l2-.2 3.3-.2c.8-.1 1.6-.3 3.3-.4l3.3-.3 3.3-.3 6.5-.9c3.2-.5 3.3-.4 6.6-.8l3.3-.3 3.3-.2c3.4-.2 3.4-.5 6.7-.5H1132.8l3.3.3 3.3.3c3.4.3 3.4.2 6.7.7l3.3.4 1.8.2 1.5.3zM881 1056.3h-.3zm1.3.2zm-3.6-.5l2 .2a18.4 18.4 0 0 1-2-.2zm0 0l-2.2-.2h-.5v-.1h.7zm224 32.5c0 .2-.4.5-1.2.7-.4.1-1 0-1.6 0a10.7 10.7 0 0 1-1.5.6l-1.6.2a15 15 0 0 1-1.6 0c-.8 0-1.3-.2-1.4-.3s.5-.2 1.3-.4l1.5-.3 1.6-.2 1.6-.2c.6 0 1-.2 1.5-.3a6 6 0 0 1 1 0l.4.2zm-85.1-11.4l1.5.4 1.5.6 1.3.7 1.5.6c.8.4 1.1.7 1 .8 0 .3-.6.3-1.4 0-.4 0-.9-.5-1.4-.7a14 14 0 0 1-1.6-.4l-1.5-.6-1.3-.8c-.7-.5-1-.8-1-1h.2a11.7 11.7 0 0 1 1.2.4zM1204 1104a28.8 28.8 0 0 1 3.3 1.6 17.8 17.8 0 0 1-3.4-1.3 29.7 29.7 0 0 1-3.6-1.7h.1a23.7 23.7 0 0 1 3.6 1.4zM917 1063zm-3.1.4l-1.3.3a3.4 3.4 0 0 1-1.5 0s.6-.3 1.4-.4a4.5 4.5 0 0 1 1.1 0h.3zm177.7 26.6c0 .2-1 .4-2.2.6a34.2 34.2 0 0 1-6.1.2c-1.2 0-2-.2-2-.4l2.2-.3 2.8-.3h5c.2 0 .3.1.3.2zm119.2 16.8a1.6 1.6 0 0 1 1 .4 1.9 1.9 0 0 1-1-.2 4.2 4.2 0 0 1-1-.5.6.6 0 0 1 .2 0 3.7 3.7 0 0 1 .8.3zm-304.4-42.5c-1.2 0-1.2.1-2.3.2H899.3l-2.4.1h-2.4l-2.3-.2h-2.4l-2.3-.2c-1.1 0-1.3 0-2.4-.2s-1.2 0-2.3-.2l-2.4-.2c-2.3-.4-.4-.1 0-.2l2.4.3c1.2 0 1.2 0 2.3.2l2.4.2h2.3l2.4.2h2.4a23.5 23.5 0 0 0 2.3.1l2.3-.1h2.4l2.3-.1 2.3-.2a1.5 1.5 0 0 1 .4 0c.3 0 .5.2-.3.3zm122 17c1.2.4 2.2 1 3.3 1.3 1.7.5 1.8.4 3.5 1 1.6.4 1.6.6 3.4 1a16.5 16.5 0 0 0 1.8.4h.9c.2.2.5.2.8.3a.3.3 0 0 1 .2 0 .7.7 0 0 1 .3.3l.1.1c.2.3-.5.4-.8.5a3.8 3.8 0 0 1-1.2-.4l-2.3-.6c-1.8-.4-1.9-.2-3.6-.7s-1.6-.8-3.3-1.3l-3.5-1.2a.7.7 0 0 1-.5-.8c.1-.2.6 0 .7 0h.2zm189 27.7l2.7.8 2.6.8 1.6.4.8.2h-.7l-1.6-.4c-.7-.2-1.8-.4-2.8-.8l-3-.9-1.8-.7 2.2.6zm-139.8-18.5c0 .2-.5.3-1 .3-.6 0-1-.2-1.1-.4 0-.2.5-.5 1.1-.5a1.5 1.5 0 0 1 .2 0c.5 0 .8.4.8.6zm-4.6-.3c0 .3-1.7.3-3.7.2l-2.8-.4c-.8 0-1.2-.3-1.2-.4a3.3 3.3 0 0 1 1.2-.2 23.1 23.1 0 0 1 2.8 0l1.3.2c1.4.2 2.4.5 2.4.6zm-24.6-3.6c1.2.2 2 .7 2 1s-1 .1-2.1-.1c-1.2-.2-2.2-.6-2.2-.9 0-.2 1-.2 1.9 0h.4zm180.4 25.4l1.5.3 1.6.3 1.5.4a13.8 13.8 0 0 0 1.6.3 5.4 5.4 0 0 0 1 .2l-1-.2a13.3 13.3 0 0 1-1.6-.3l-1.6-.2-1.5-.3-1.6-.4c-1-.2-1.3-.3-1.3-.4 0 0 .5 0 1.4.3zm-171-23.9l2.9.6c1.5.2 2.1.3 2 .5s-.5.3-2 .2c-1 0-2-.2-3-.4l-2.8-.4c-1.5-.4-2.2-.6-2.1-.8s.6-.2 2.2 0h.8l2 .3zm-88.3-12.1l4.9.6 4.8 1 2.4.5a27.1 27.1 0 0 0 4.9 1l2.4.6c1.5.5 3 1.4 4.6 1.9 1.5.5 3.1.8 4.7 1.4l4.5 2c2.3 1 4.5 1.6 6.8 2.7l10.9 5c1.6.8 3 1.5 4.4 2 1.7.7 3.3 1.1 4.5 1.7 2.8 1 5 1 4.4 2.1-.7 1.7-2.2 0-5.2-.7-1.3-.4-2.6-1.3-4.4-1.8l-4.6-1.6c-1.5-.5-2.8-1.3-4.5-2l-4.4-1.9c-2.1-.8-4-1-6.1-2-1.4-.8-2.8-1.4-4.2-2l-4.2-1.8c-1.3-.5-2.6-1-4-1.3l-4-1.2-3.6-1-3.5-1.1a256 256 0 0 0-7.2-1.8l-4.8-.7c-1.8-.4-3.5-.5-4.8-.6-3-.6-5.7-1-5.5-1.7 0-.5 2.8-.4 5.9-.2h.5c1.2.2 2.7.7 4.4.9zm170.9 23.8l10 1.4 1.4.2 2.8.5c3.6.5 7.3 1.4 11 2.2l4.3 1.2 4.3 1.2a14.8 14.8 0 0 1 2.1.7l2.1.8c2.1.8 2.2.6 4.3 1.4 2 .9 2 .8 4.1 1.6a1 1 0 0 1 .6.8h-1l-4-1.7c-2.1-.7-2.2-.5-4.3-1.2l-2-.7-2.2-.7-4.3-1.1-4.3-1-4.4-.8c-2.2-.4-2.2-.2-4.4-.5s-2.2-.6-4.4-1-2.2-.1-4.5-.4l-4.4-.4a15.4 15.4 0 0 0-2.2-.2h-2.2c-3.6-.4-7.3-.7-10.9-.7l-4.2.2h-1l-1 .2h-2c-2.5.2-2.4.5-4.8.7s-2.5 0-4.8.4l-4.8.7-4.8.7c-2.4.4-2.3.5-4.7.8l-4.9.5-4.8.4c-2.4.1-2.5-.2-4.8-.2s-2.5.3-4.8.2l-4.8-.4c-2.1-.2-4.1-.5-6.2-.6-1.2 0-2.2-.2-3.3-.3l-3.2-.3-3.2-.4-3.2-.5c-2.4-.4-2.4-.7-4.7-1.1a14 14 0 0 0-2.3-.4 14 14 0 0 1-2.4-.4c-2.4-.4-2.4-.4-4.7-1a.7.7 0 0 1-.5-1 2.2 2.2 0 0 1 1.4-.8 35.2 35.2 0 0 0 4.6.9l4.6 1 4.6.6a17.2 17.2 0 0 1 2.3.4 7.2 7.2 0 0 0 2.3.5l4.7.5c2.3.3 2.4.2 4.7.3 2.4.2 2.3-.1 4.7 0h10l5.2-.1c1.6-.2 3.1-.5 4.7-.6a31.4 31.4 0 0 0 3.6 0l4.8-.7c2.4-.3 2.2-.7 4.6-1a144.5 144.5 0 0 1 19.4-1.8l5 .2h4l2 .1 2.1.2zm101.9 14.6l-2.4-.3a4.5 4.5 0 0 0 1 0 10.8 10.8 0 0 0 1.4.3zm-367-51.5zm78 12a.3.3 0 0 1 0 .1v.2a11.5 11.5 0 0 1-2.4 0H943l-2.7.1h-2.6l-2.6.1h-2.7c-1 0-1.9.2-2.6.3a6.6 6.6 0 0 1-2.4-.1c0-.2.8-.5 2.3-.7.8-.1 1.7 0 2.4-.2l3-.4 3.3-.2 6-.1c2.2 0 4.3.3 6.3.5l1.3.2a6.4 6.4 0 0 1 1.1.2zm240.2 39.5c1.1.5 2 1.3 1.8 1.5s-1.2-.1-2.3-.7c-1.3-.5-2.3-1.1-2.2-1.3.1-.1.4-.2.7-.1a7.8 7.8 0 0 1 2 .6zm-41-5.8c5.6.9 5.5 1.1 11.1 2.2 5.5 1.4 5.5 1.2 11 2.8l3.1 1 2.2.8c1.4.4 2.7 1 5.3 2 5.2 2.2 5 2.3 10.1 4.7l5.1 2.3 2.1.8a111.4 111.4 0 0 1 4.7 1.9l1.5.5 2 .8 5.4 1.7a27 27 0 0 0 3.2 1 35 35 0 0 0 4.4 1.1l3.3.8c3.6.8 7.2 1.4 10.8 2l-6.9-1-1.4-.2-2.6-.5-3.3-.6-2.2-.5-2.2-.5-3.2-.9c-2.8-.8-4.1-1.1-5.4-1.6l-2.2-.7-1.4-.5-1.7-.7-3.2-1.2-2-.9c-1.3-.5-2.6-1-5.1-2.2-5.1-2.2-5-2.4-10.1-4.5-2.6-1-3.8-1.6-5.1-2l-2.1-.9a33 33 0 0 0-3.2-1c-5.3-1.7-5.4-1.4-10.8-2.8l-11-2-5.5-.8c-1.4-.2-2.7-.5-5.6-.8l-5.5-.5-2.3-.2-3.3-.1-3.1-.1c-1.1-.1-2 0-3.2 0l-3 .1a12 12 0 0 1-3.8 0c-1.1-.3.8-.8 1.5-.7a53.5 53.5 0 0 1 5.6-.2h2.3l3.3.2h3.4l2.3.2c1.4 0 2.7 0 5.6.3l5.6.7c.7 0 1.4 0 2.3.2.8.2 1.9.4 3.2.5zm-230.6-32.2c0 .2-1.6.5-2.8.7a21.4 21.4 0 0 1-2.7.6l-2.7.2c-1.3.1-2.6.2-2.6 0 0-.1.9-.5 2.1-.7l3-.5 3-.5a11.7 11.7 0 0 1 2.3 0l.4.2zm52 7.4a85.9 85.9 0 0 1 9.4 2.3 18.7 18.7 0 0 1 3.4 1.2l.1.1v.2a24.1 24.1 0 0 1-3.8-.7l-4-.8-3.9-.7-1.9-.5a19 19 0 0 0-2-.3l-4-.6-4-.7-4-.5-4-.6-4-.3-2.6-.4a5 5 0 0 1-1-.2 3.4 3.4 0 0 1 1-.2h2.6c1.3 0 2.6.3 3.8.3 1.6 0 3 .1 4.6.3l5.2.7c3 .5 6 .8 9 1.4zm264 37.1l2.6.4-2.8-.4-2.7-.5 2.8.5zm3 .5h-.4.4zm-298.4-40.3a26.5 26.5 0 0 1-5.4.4l-2.8.2a12.4 12.4 0 0 1-2.4-.2c0-.2 2.4-.6 5.1-.8a39 39 0 0 1 5 .2c.3 0 .5.1.5.2zm259.7 37.3l2.7 1.2a25.5 25.5 0 0 1 3 1.1 11.8 11.8 0 0 1 2.3 1.3 11.6 11.6 0 0 1-3-.8 26.3 26.3 0 0 1-2.6-.9l-2.5-1c-1.2-.7-2.3-1.3-2.2-1.4h.3a10.2 10.2 0 0 1 2 .5zm-205-28.2l5 2 4.7 2c4.8 2.2 4.7 2.3 9.5 4.4a79 79 0 0 0 4.8 2l2 .7 2.8 1a39.2 39.2 0 0 0 5 1.5l5 1.3c5.1 1.3 5.1 1.4 10.2 2.5a24.1 24.1 0 0 0 3 .5 19.6 19.6 0 0 0 2.1.2 19.6 19.6 0 0 1 2.1.2l3 .5c2.7.3 4 .5 5.3.8a19.6 19.6 0 0 0 2 .3l3.1.3a31.5 31.5 0 0 0 5.3.2 46.5 46.5 0 0 1 5.2 0h5.2c1.4 0 2.7 0 5.2-.2l5.2-.5 5.1-.6c5.2-.7 5.1-.9 10.3-1.6 2-.2 5 .5.2 1.3-5 .8-5 1-10.2 1.7l-5.2.7-5.2.4-5.2.3h-5.3c-2.7 0-4-.1-5.3-.2a49.9 49.9 0 0 1-5.3-.3l-3.1-.2-2.1-.2a172 172 0 0 0-5.2-.7l-3.2-.4-2-.4a19.6 19.6 0 0 0-2.1-.4l-3.1-.5c-5.2-1-5.3-.6-10.4-2a39.7 39.7 0 0 1-5-1.6l-5-1.8-3-1a75.4 75.4 0 0 1-6.9-2.7l-9.4-4.4-4.8-2c-1.2-.5-2.5-.9-4.8-2-5-1.8-5.2-2.4-4.1-2.3h.5a18.4 18.4 0 0 1 4.2 1.2zm-89.7-11.9c0 .3-1.1.3-3.3.6l-3.6.2c-1 .2-2.3.2-3.6.2h-3.7l-3.7-.1-3.6-.3-3.7-.3-3.6-.4-5.7-.8 2.2.2 3.6.5c1.1.1 2.4 0 3.7.2 1.8 0 3.6.3 5.5.4h9l3.6-.2h3.6c1.6 0 2.7-.4 3.1-.3l.2.1zm19.5 3.6c0 .2-.8.5-2.5.7l-3.2.4c-1 .1-2 .5-3.2.6l-3.2.5-3.3.3h-2.7a15.2 15.2 0 0 1 2.7-.5l3.1-.6 3.2-.4 3.2-.5 3.2-.4a14 14 0 0 1 2.5-.2l.2.1zm290.3 42l2.3.7 2.9.7 3.3.8 5.8 1.2c2 .5 4 .8 6.1 1.2.8 0 1.6.3 2.4.4l-7.7-1.1-2.5-.5-2.6-.5-2.5-.5-2.5-.6-2.6-.7a22.3 22.3 0 0 1-2.5-.7c-1.5-.5-2.2-.8-2.2-1a18.2 18.2 0 0 1 2.3.6zm-246.5-33.3l3.5.7c1 .3 2.2.4 3.2.6l1.9.4a15.3 15.3 0 0 1 1.7.4l3 .8a7.2 7.2 0 0 1 1.4.3l1 .4 1.8.6a4.3 4.3 0 0 1 1.3.6l-1.5-.1-1.6-.4-1.1-.3a8.6 8.6 0 0 1-1.3-.3l-3.2-.8a13.3 13.3 0 0 0-1.7-.6l-1.8-.4-3.3-.5-3.4-.5-7-1.2-6.8-1-2.4-.3-3-.5h1.4l1.8.2a25.1 25.1 0 0 1 2.5.2l6.8.6 6.8 1.1zm176 24.6l2.4.3 2 .4 2.9.5a8 8 0 0 1 2.1.5 6.6 6.6 0 0 1-2.1-.1c-1.5-.1-3.7-.5-7-1a159 159 0 0 1-6.1-.6l-3.3-.4-3.5-.2q-7-.4-12.2-.3l-4.3.1-3 .2c-1.6.1-2.3.2-2.3 0a7.4 7.4 0 0 1 2.1-.5l3-.3c1.2 0 2.6-.3 4.2-.3h5.8l3.3.1h1.7l1.7.1 6.7.7zm-208.6-27a5.7 5.7 0 0 1-1.7.2l-4 .3-4.4.3a14.3 14.3 0 0 1-1.9.1 8.3 8.3 0 0 1 1.9-.4 32.7 32.7 0 0 1 4.3-.5l4.1-.1a11.5 11.5 0 0 1 1.4 0c.2 0 .3.1.3.2zm240 34.4l1.7.6 2.3.9 3 1 3.3 1.5 6.2 2.8 6.2 2.8 3.3 1.4 3 1.1 3.8 1.5a12 12 0 0 1 1.4.5 9.9 9.9 0 0 1-1.3-.4l-4-1.2-3-1.2a52 52 0 0 1-3.3-1.4c-2-.9-4.2-1.6-6.3-2.6l-6.3-2.8c-1.2-.4-2.3-1-3.3-1.5l-3-1.2-3.8-1.6c-.8-.4-1.4-.5-1.3-.6a9.4 9.4 0 0 1 1.4.4zM904 1085a8.3 8.3 0 0 1-2.8.3 19.1 19.1 0 0 1-3 0 13.8 13.8 0 0 1 3-.3 13 13 0 0 1 2.5 0h.2zm101.2 16a.3.3 0 0 1 .3.2l.2.1c4.7 2 9 4.4 13.8 6.3a122.7 122.7 0 0 0 14.7 4.7l4.5 1 3 .8c2 .4 3.8 1 7.7 1.5l4 .6 4 .4 3.7.4c1.2.2 2.6.2 3.7.3l2.8.4.7.2c1.1.3-1.9.4-3.3.4l-2.7-.2-2.7-.4-5.2-.6-5.1-.8-7.8-1.3-3-.6-4.6-1.1c-7.5-2.2-7.5-2.4-14.7-5.1-7.1-3-7.1-3.1-14.1-6.3a6.6 6.6 0 0 1-2.8-1.8c.5 0 2.2.7 2.9 1zm-113.2-15.6h-4.7l-2.8-.3-3.3-.3-6.3-.7-3-.5 3.6.5c1.7.2 3.4.5 5.7.6l5.5.4 3.6.1 1.2.1zm210.4 30.5a8.3 8.3 0 0 1-2.6.7l-6.3 1-3.7.4-3.1.3c-1.8 0-3 0-3-.2a13.5 13.5 0 0 1 2.9-.5c.9 0 2-.3 3-.4l3.7-.5 6.4-.7a19 19 0 0 1 2.6-.1zm48.4 7.4c2.8.5 4 .8 4 1-.2 0-1.2 0-4.1-.4-.8 0-1.7-.2-2.6-.4l-3-.4-5.2-.7-3.2-.4q-1-.1-1-.3l1-.2a24.3 24.3 0 0 1 3.3.2l5.4.6.8.1 4.6.9zm-184.2-25.8l3 .5 3 .5c1.6.4 2.3.7 2.3.8s-.8.2-2.4 0c-.8-.2-1.8-.6-3-.7-.8-.2-1.8-.2-2.9-.3l-3-.5-3-.6a8.5 8.5 0 0 1-2.4-.5c0-.2.9-.1 2.5 0 .9.2 1.9.2 3 .3l3 .5zm-12.7-1.3a21.7 21.7 0 0 1-4.3 0H947l-3-.2-3-.2h-2.8l-2.7-.1a2.8 2.8 0 0 0-1.2 0c0-.2 1.9-.3 4.3-.3l2.5-.1h2.9a37.4 37.4 0 0 1 5 .3 74.6 74.6 0 0 1 4.9.6zm212.7 30.2a31.6 31.6 0 0 1 4.7 1.5 8 8 0 0 1 1.9.8 8.7 8.7 0 0 1-2-.4l-4.7-1.2-5-1.3a6.5 6.5 0 0 1-2.3-.8 13.4 13.4 0 0 1 2.3.3l5.1 1.1zm-35.2-5c0 .2-1.8.3-4 .2s-4.2-.1-4.2-.3c0-.2 2-.5 4.3-.4a21.6 21.6 0 0 1 2.6.2c.8 0 1.3.2 1.3.3zM983.9 1101c1.3.4 2.3 1 2.2 1.2a7.9 7.9 0 0 1-2.5-.4c-1.4-.3-2.6-.8-2.5-1a3.4 3.4 0 0 1 1.6 0l1.2.2zm132.4 20.2h.3c.6.3-.7.6-1.3.7a5.2 5.2 0 0 1-1.2.1h-1.1l-4.4.5-6.6 1.2-6.6.7c-3.3.4-3.4.6-6.7.9a1.8 1.8 0 0 1-1.5-.5c0-.2.8-.3 1.2-.4a.7.7 0 0 1 .2 0c2.2-.1 4.5-.2 6.6-.5 3.4-.5 3.3-.7 6.6-1.1 3.3-.5 3.4-.3 6.7-.8l3.4-.5 1.6-.3a12.2 12.2 0 0 1 1.6-.1 1.8 1.8 0 0 1 .6 0zm63.6 9.5c1 .4 1.7.9 1.6 1s-.8 0-1.8-.5c-1-.3-2-.7-1.9-1h.5a6.6 6.6 0 0 1 1.6.5zm-182.4-25l4.1 1.7 4 1.8 4 1.8 4 1.6 4 1.8 4.1 1.5 4 1.6c2.2.6 2.2.4 4.3 1a41.7 41.7 0 0 0 4.2 1.3l4.2 1.1 4.4.8c.8.2 1.8 1.3-.3.9l-4.4-.8-4.2-1.1-4.3-1.3-4.2-1.3-4.1-1.5c-2.1-.7-2.1-.8-4.1-1.6s-2.1-.6-4.2-1.5c-2-1-1.9-1.1-3.9-2l-4-1.7-4-1.8c-2-1-2-.7-4-1.6-2.4-1.1-2-1.4-1.2-1.2a4.5 4.5 0 0 1 1.6.5zm-69.7-9.5a4.6 4.6 0 0 1-1.8.3c-1.1.1-2.1.2-2 0a3.8 3.8 0 0 1 1.9-.5 9.7 9.7 0 0 1 1.6 0c.2 0 .3.1.3.2zm-29.5-3.8l-1.2.1a104 104 0 0 0-6.4 0 4.8 4.8 0 0 1-1.5-.1h9.1zM1192 1136l4.8 2 4.6 2.1c1 .5 2 1 3 1.3a9.3 9.3 0 0 1 1 .4 3.7 3.7 0 0 1 .3.2 34.7 34.7 0 0 1-4.1-1.4l-5.1-2.1-5.3-2.4a16.9 16.9 0 0 1-3.2-1.7c.4 0 2 .7 4 1.6zm-272.8-38.9a6.3 6.3 0 0 1-2 .5l-4.7.7-5.1.6-1.7.2a1.8 1.8 0 0 1-.8 0l2.3-.4 5-.8 5-.6a11 11 0 0 1 2-.2zm309 43.5l2 .4 2.4.4 5.7 1-5.7-1-2.4-.2-2-.5-1.3-.2h-.4a.6.6 0 0 0 .4-.2l1.4.3zM879 1091.8h-1.3c-.7-.2-1.8-.3-3-.4l3 .2 1 .1h.3zm89.8 12.8l3.4.7 3.3.7 1.8.4 1.8.3c1.1.4 2.2.6 3.1.8l1.3.4 1 .4q1 .3 1.7.7c1 .3 1.3.6 1.3.7s-.5.1-1.5 0a17.4 17.4 0 0 1-1.7-.3l-1.2-.2-1.2-.3a30 30 0 0 1-3.2-.9l-1.7-.5a15.3 15.3 0 0 0-1.8-.4l-3.3-.4-3.5-.5-6.9-1.1c-2.5-.4-4.8-.9-6.8-1.1-3.6-.5-5.5-.9-5.4-1.3h3.3a25.1 25.1 0 0 1 2.5.3c2 0 4.2.2 6.8.5l6.9 1zm-94.1-13.2l-3.6-.5 3.6.5zm270.2 38.2l1.2.2a6.6 6.6 0 0 0 1.2.2l2 .4 2.8.5c1.5.3 2.2.4 2.2.6 0 .2-2.6 0-9.3-.9l-6-.7-3.3-.3-3.5-.3q-7-.3-12.2-.2h-4.3l-3 .2a8.5 8.5 0 0 1-2.3 0c0-.2.7-.4 2.2-.7a26.9 26.9 0 0 1 2.9-.4 40 40 0 0 1 4.3-.3h9.1l1.7.1 1.7.1 6.7.7zm-208.8-27a43.1 43.1 0 0 1-5.7.7l-4.3.3a5.2 5.2 0 0 1-2.2 0c0-.2.7-.4 2-.6a23.9 23.9 0 0 1 4.3-.6H935.3c.5.1.7.2.7.3zM1176 1137l1.7.6 2.4.9 3 1 3.3 1.5 6.2 2.8 6 2.9 3.4 1.4 3 1.1 3.8 1.6a6.2 6.2 0 0 1 1.3.5 5.1 5.1 0 0 1-1.3-.2l-4-1.3-3-1.2-3.4-1.5c-2-.8-4.1-1.5-6.3-2.5l-6.3-2.8-3.3-1.5-3-1.3-3.7-1.6c-.8-.4-1.3-.6-1.3-.8a.3.3 0 0 1 .2 0l1.3.4zm-276.5-37.3l-3 .2H891l-5.4-.2-3.2-.2-.8-.1a2 2 0 0 1 .7 0l3.2.2h14a5.2 5.2 0 0 1 1 0l-1 .1zm181.5 25.6q.1.3-.5.4a7.4 7.4 0 0 1-1.8.2c-.8 0-1.8-.2-3-.1l-3 .2h-3a22.2 22.2 0 0 1-3-.4c-1.7-.2-2.4-.5-2.6-.7 0-.2 1-.1 2.6 0l1.4-.1h1.5a48.6 48.6 0 0 0 6 .3c1.1 0 2.1-.2 3-.1a10.4 10.4 0 0 1 1.8.1c.4 0 .6.2.6.2zm128.3 18.2zm.7.1l1.8.6 2.8.8 3 .8 2.8.7a11.5 11.5 0 0 1 1.5.4c.5 0 1 .2 1.4.3l1.7.3a2.6 2.6 0 0 1 .7.2h-.7l-1.7-.4a9.6 9.6 0 0 1-1.4-.3l-1.5-.4-3-.6-2.8-.8-2.9-.9-1.7-.6-.7-.2a4.5 4.5 0 0 1 .7.1zm-206.6-28.4l.4.1.2.1c4.6 2.1 9 4.5 13.7 6.4 7.2 2.7 7.3 2.5 14.7 4.6l4.4 1.2 3.1.7a58.9 58.9 0 0 0 7.7 1.5l4 .6 4 .4 3.7.3c1.2 0 2.5 0 3.6.2l1.3.2 1.5.4a2.3 2.3 0 0 1 .7.2c1.2.5-1.8.8-3.3.8a15.7 15.7 0 0 1-2.7-.2l-2.7-.4-5.2-.6-5-.8-7.9-1.2-3-.6-4.6-1c-7.6-2.1-7.4-2.4-14.7-5.2-7.2-3-7.2-3-14.2-6.2a5.4 5.4 0 0 1-2.7-2.2v-.1a.4.4 0 0 1 .2 0c.4 0 2 .6 2.8.8zm55.2 9.4c0 .2-1.2.3-2.5 0-1.5-.1-2.8-.5-2.7-.7s1.4-.3 2.8-.1 2.4.6 2.4.8zM877 1099zm-4-.5l2.9.4c-.8 0-1.7-.2-2.8-.4zm364.1 51.1l-5.1-.7a2.5 2.5 0 0 1 .8.1 17.3 17.3 0 0 0 1.8.2c1.2.3 2.1.4 2.5.4zM870 1098.2zm230.4 32.3c0 .2-1 .5-2.5.8a57.9 57.9 0 0 1-6.3 1.1c-1.3.2-2.5.4-3.7.4l-3.1.2c-1.8 0-3 0-3.3-.3a8.6 8.6 0 0 1 3-.7l3.1-.5 3.6-.5 6.4-.6a13.2 13.2 0 0 1 2.4 0l.4.1zm35.7 6.7c-7.5-.5-7.6-.7-15-.7h-4.5l-3 .3c-1.9 0-3.7.2-7.3.6l-14.8 2.2c-7.4.9-7.3 1.2-14.9 1.5h-4.5l-3-.2-3.2-.2c-1-.2-2.5-.3-4.4-.4l-2.5-.2-2-.2-3-.3-3-.3c-1.2 0-2.7-.4-4.5-.6s-3.2-.5-4.4-.8l-3-.7-7.4-1.8-2.4-.6a14.6 14.6 0 0 1-2-.5l-3-.8a27.5 27.5 0 0 1-3-.8l-4.1-1.5-4.1-1.7-2.8-1.3c-1.7-.8-3.3-1.7-6.7-3.2a141 141 0 0 0-13.5-5.8c-3.5-1.3-5.3-1.7-7.1-2.3-.4 0-.9-.2-1.3-.4a14 14 0 0 1-1.6-.3l-4.3-1.1c-3-.7-6.6-2.5.3-1.2l4.4 1 1.6.4 1.4.4c1.8.5 3.7 1 7.2 2.2 7 2.6 7 2.8 13.8 5.8l6.7 3 2.8 1.3 4.1 1.7 4.2 1.5 2.9 1 2.9.8 1.8.6 2.4.6c3.6 1 5.5 1.3 7.3 1.7l3 .6 4.4.7 4.4.7c1.2 0 2 .2 3 .3l3 .4 2 .2 2.5.2 4.5.3h6l4.5-.1c7.3-.3 7.4 0 14.7-.8 7.4-1 7.3-1.4 14.7-2.3l7.4-.7a62.3 62.3 0 0 1 7.6-.3c7.5 0 7.6-.2 15 .6 15.1 2.2 2.8 1.7-.2 1.5zm-181.8-26c-.3.2-2.3 0-3 0a.6.6 0 0 0-.5.2h-.2c-2.5-.3-5-.6-7.6-.7l-3.8-.3h-3.7c-7.7.2-7.7.3-15.3 1.3l-7.6 1-7.7 1c-2.7.2-5.3.5-8 .6-1.2 0-2.4.3-3.7.2h-3.7a9.3 9.3 0 0 1-1.3 0h-1.4a2.9 2.9 0 0 1-.7-.1c-1.3-.2 1.8-.1 3.2-.2l5.3-.1 5.1-.4 5.1-.5c7.6-1 7.5-1.3 15.2-2.4 7.6-1 7.7-.9 15.4-1.1 3.9-.2 5.8 0 7.8 0s3.9.2 7.8.5h.7a4.3 4.3 0 0 1 2.6 1zm205.2 28.5l4 1c1.2.3 2.5.5 3.9 1l4.4 1.2c2.5.8 5.2 1.8 8 3l2 .7 1.9.9 3.9 1.7 7.7 3.5 4 1.8 3.8 1.6c2.7 1 5.3 2 8 2.8 2.7 1 5.5 1.5 8 2.2 1.6.5 3.1.7 4.6 1l3.9.9a70 70 0 0 1 7.4 1.4l-7.6-1.2-7.8-1.5c-3.1-.7-6.2-1.4-9.3-2.3l-2.7-.8-2.5-1-2.6-.8-2.6-1c-5.9-2.4-11.6-5.2-17.4-7.6a149.4 149.4 0 0 0-19-6.7 59 59 0 0 0-7.5-2c-.3 0-.4-.1-.4-.2 0 0-.1-.2 0-.2l1 .1 2.9.5zM896.3 1107a4.6 4.6 0 0 1-1.3.2h-6.4a5.8 5.8 0 0 1-1.4-.1l4.7-.2h4.3zm328.5 48l1.3.3 2 .4 2.3.4 5.7 1-5.7-1-2.3-.3-2-.4-1.4-.2c-.4 0-.5-.2-.5-.3zm-348-48.6a.5.5 0 0 1-.2 0h-1c-.7-.2-1.9-.2-3-.4l-3.6-.5c.9 0 2.2.2 3.5.4 1.3 0 2.3.2 3.1.3zm359.3 50.6zm0 0zm-88.7-12c5.5.8 5.5 1 11 2.1 5.5 1.4 5.5 1.2 11 2.9 1.3.3 2.3.8 3.1 1l2.2.7 5.3 2 10.2 4.7c2.5 1.3 3.7 1.8 5 2.3l2.1.9a114.3 114.3 0 0 1 4.8 1.8l1.4.5c.7.4 1.4.6 2 .8 1.4.6 2.7.9 5.4 1.8a27 27 0 0 0 3.2 1 35 35 0 0 0 4.4 1l3.3.8c3.6.9 7.2 1.5 10.8 2.1l-6.9-1-1.3-.2-2.7-.5-3.2-.6-2.3-.5-2.2-.6-3.2-.8-5.4-1.7-2.2-.7-1.4-.5-1.7-.6c-1.4-.6-2.3-1-3.1-1.2-.8-.4-1.5-.6-2.1-1-1.3-.4-2.6-1-5.1-2.1-5.1-2.3-5-2.4-10.1-4.5l-5.1-2.1-2.1-.8a33 33 0 0 0-3.1-1c-5.4-1.7-5.5-1.5-10.9-2.8l-11-2-5.5-.9-5.5-.8-5.6-.5-2.3-.1-3.3-.2h-9.2a12 12 0 0 1-3.8 0c-1.2-.3.7-.8 1.4-.7a53 53 0 0 1 5.6 0H1125l3.3.1 2.3.1 5.6.4 5.6.6 2.3.3 3.3.5zM968.7 1120a85.7 85.7 0 0 1 9.4 2.4 18.6 18.6 0 0 1 3.4 1.1l.2.2c-.1 0 0 .2-.2.2a24.1 24.1 0 0 1-3.7-.7l-3.9-.8-4-.8-1.9-.4a18.8 18.8 0 0 0-2-.3l-4-.6-4-.7-4-.6-4-.5-4-.4-2.6-.3a5.1 5.1 0 0 1-1-.3 3.5 3.5 0 0 1 1-.1h2.6c1.4 0 2.6.2 3.8.3 1.6 0 3 .1 4.6.3 1.8.1 3.5.4 5.2.6l9 1.4zm-31.4-2.7a26.6 26.6 0 0 1-5.4.5l-2.8.1a12.2 12.2 0 0 1-2.4-.2c0-.2 2.4-.5 5.2-.7a39 39 0 0 1 4.9.2l.5.1zm54.8 9.1l4.9 2 4.7 2.1c4.8 2.2 4.7 2.3 9.5 4.4l4.8 1.9 2 .8 2.8 1a39 39 0 0 0 5 1.5l5.1 1.3c5 1.3 5 1.4 10.1 2.5a24.1 24.1 0 0 0 3 .5 19.6 19.6 0 0 0 2.2.2 19.8 19.8 0 0 1 2 .2l3.1.4 5.2.8a19.6 19.6 0 0 0 2 .4l3.2.3a31.5 31.5 0 0 0 5.2.1 46.4 46.4 0 0 1 5.2 0h5.3c1.3 0 2.6 0 5.1-.2l5.2-.4 5.1-.7c5.2-.6 5.1-.8 10.3-1.5 2.1-.3 5 .5.3 1.2l-10.3 1.8-5.1.6-5.3.5-5.2.2h-10.6a49.9 49.9 0 0 1-5.2-.4l-3.2-.2c-.8 0-1.5-.2-2.1-.3l-5.2-.6-3.2-.5-2-.3a19.6 19.6 0 0 0-2.1-.4l-3.1-.6c-5.2-1-5.3-.6-10.4-2a39.8 39.8 0 0 1-5-1.5c-1.2-.6-2.5-1-5-1.9l-3-1a76.7 76.7 0 0 1-6.9-2.7l-9.4-4.3-4.8-2-4.8-2c-4.9-1.9-5.2-2.4-4.1-2.3h.5a18.4 18.4 0 0 1 4.2 1.1zm-70.3-8.2c0 .1-.8.4-2.5.7-.8.2-2 .1-3.2.3l-3.1.7c-1.2 0-2.3.3-3.3.4l-3.2.3c-1.8.2-2.7.2-2.7 0a15.3 15.3 0 0 1 2.6-.5l3.2-.5 3.1-.5 3.2-.4 3.2-.5a14 14 0 0 1 2.5 0h.2zm-43-4.4a1.3 1.3 0 0 1-.5 0h-1.4l-2-.2-2.4-.3-4.6-.6c1 0 2.7.3 4.7.5.8.1 1.6.1 2.3.3h2l1.4.2zm255.7 37.7a133.4 133.4 0 0 0-15-.8h-4.5l-3 .3c-2 0-3.8.3-7.4.7l-14.7 2.1c-7.4 1-7.5 1.2-15 1.5a184.7 184.7 0 0 1-7.6-.2l-3-.1-4.5-.4-2.5-.2c-.7 0-1.4 0-2-.2-1.2 0-2-.2-3-.3l-3-.2-4.5-.7-4.4-.8-3-.7-7.4-1.7-2.4-.7-1.9-.5-3-.9-2.9-.9-4.2-1.5-4-1.7-2.9-1.2-6.7-3.2c-6.8-3-6.7-3.1-13.7-5.7-3.5-1.3-5.3-1.8-7.1-2.3l-1.4-.4a14 14 0 0 1-1.6-.4l-4.2-1c-3-.7-6.8-2.1.2-.8l4.3 1 1.6.4 1.4.4c1.8.5 3.7 1 7.2 2.3a144 144 0 0 1 13.8 5.8l6.8 3 2.7 1.3 4.1 1.6 4.2 1.5 2.9 1 2.9.9c.5.1 1.1.4 1.9.5s1.5.5 2.3.6c3.7 1 5.5 1.3 7.3 1.7l3 .6 4.4.7 4.4.7 3 .4 3 .3 2 .2 2.5.2 4.5.4h6l4.5-.1c7.4-.3 7.4 0 14.8-1 7.3-1 7.3-1.2 14.7-2.2l7.4-.7 3.1-.2h4.4a118.9 118.9 0 0 1 15 .6l1.7.3c12.4 1.7 1 .9-1.5.7zm-182.2-26c-.3.2-2.3 0-3 0a1.6 1.6 0 0 1-.5-.1h-.3c-2.6-.2-5-.6-7.6-.6l-3.8-.2h-3.8a121 121 0 0 0-15.3 1.3l-7.6 1-3 .5c-1.2 0-2.7.3-4.6.5-2.6.3-5.3.6-8 .7-1.2 0-2.4.3-3.7.2h-3.6a7.2 7.2 0 0 1-1.3 0h-1.4a2.9 2.9 0 0 1-.8 0c-1-.2 2 0 3.3-.1l5.4-.1 5-.4 5.2-.6c7.5-1 7.5-1.2 15-2.3a107.8 107.8 0 0 1 15.5-1.2l7.7.1c2 .1 4 .2 7.8.6h1a6.4 6.4 0 0 1 2.4.7zm205 28.8l4 1 3.9 1 4.4 1.2c2.5.9 5.2 1.8 8 3l2 .7 1.8.9 4 1.7 7.7 3.5 3.9 1.8 3.9 1.6c2.8 1 5.4 2 8 2.8 2.9 1 5.7 1.6 8.2 2.2 1.6.5 3.1.7 4.5 1l4 .8a288.5 288.5 0 0 0-.3 0l-7.8-1.5a212.4 212.4 0 0 1-12-3.2l-2.5-.9-2.6-1-2.6-1c-5.8-2.3-11.6-5-17.4-7.5a127.5 127.5 0 0 0-19-6.7l-3.9-1-3.6-.8a1.1 1.1 0 0 1-.4-.1s-.2-.2 0-.2l3.8.7zm-258.4-33a8.3 8.3 0 0 1-2.7.3 19.1 19.1 0 0 1-3 0 13.9 13.9 0 0 1 3-.3 13 13 0 0 1 2.5 0h.2zm-11.9.4h-1.5l-3.2-.1-2.8-.2-3.3-.3-6.3-.8-3-.4 3.6.4c1.7.3 3.4.5 5.7.6l5.5.5 3.6.1 1.2.1zm262.3 37.9a138.6 138.6 0 0 1 21.6 5.5 197.5 197.5 0 0 1 18.9 8 140.7 140.7 0 0 0 19 7.5 60.3 60.3 0 0 0 8.5 2.5l2.9.6 4.6 1 4.6.8c2 .5 2.3.5 2.6.5l-7-1c-.8 0-1.8-.2-3-.4a124.5 124.5 0 0 1-5.5-1l-2-.5-4.3-1a134.7 134.7 0 0 1-15-5c-4.6-1.9-9-4-13.5-6a143.5 143.5 0 0 0-13.7-5 159 159 0 0 0-28.8-6l-5.3-.4-5.2-.5-2.6-.2h-2.6a61 61 0 0 0-5.2-.3 125 125 0 0 0-20.7 1.6 189.4 189.4 0 0 1-19 2.1l-2.6.2h-7.5l-5-.3-4.9-.5a20.8 20.8 0 0 1-5.3-.8c-.4-.2.3-.3 1.5-.3h4.7l3.5.3h4c2.6.1 5.2 0 7.6-.1l3.8-.2 3.8-.2c5-.4 10-1.2 15-1.9a149.2 149.2 0 0 1 30.3-1.5l5.4.3 5.5.5 3.4.5 7.5 1.2zm-172.8-23l2.8.6 3.2.9c2.4.6 5.1 1.5 8 2.6l4.3 1.7 4.5 2c6.1 2.8 11.5 5.6 16.4 7.5l5.9 2.1 4 1.4 2.2.7.7.4c0 .1-1 .1-3-.4l-4-1c-1.7-.4-3.7-1.2-6-2l-3.9-1.5-4.2-1.8-8.8-4.2-4.4-2-4.2-1.6-4-1.5-3.7-1.2-3.1-1-2.8-.7c-1.6-.5-3-1-4.2-1.2-2.2-.5-3.3-.9-3.2-1a16.6 16.6 0 0 1 3.3.3l4.2.9zm-32.8-4.4h-3.4c-2-.1-4.5-.3-6.6-.2-1.4 0-2.7 0-4.1.2l-4.8.3-4.8.5-4.1.4-5.7.8a11.2 11.2 0 0 1-2.6.2 9.3 9.3 0 0 1 2-.5l5.4-1 4.5-.6 5.3-.5 5.4-.4h4.7a77.1 77.1 0 0 1 7.7.5l1.1.3zm-67-3.9h-.5a10.8 10.8 0 0 0-1.3-.1l-2-.2-2.4-.2-4.6-.6 4.6.5 2.4.3 2 .1 1.4.1zm356.2 50.4zm-100.9-12.4c-7.5-.6-7.6-.7-15-.8h-4.5l-3 .3c-1.8 0-3.7.3-7.3.7-7.4 1-7.4 1.1-14.7 2.2-7.4.8-7.4 1.2-15 1.5h-4.5l-3-.2-3.1-.3-4.5-.4-2.5-.2-2-.2c-1.1 0-2-.2-3-.3l-3-.3c-1.2 0-2.6-.3-4.5-.6l-4.4-.7c-1.2-.2-2-.5-3-.8-1.9-.4-3.7-.8-7.3-1.8l-2.5-.6a14.6 14.6 0 0 1-1.9-.5l-3-.7a27.5 27.5 0 0 1-3-.9l-4.2-1.4-4.1-1.7-2.8-1.4-6.6-3.2a141 141 0 0 0-13.6-5.8l-7-2.2-1.4-.4a14 14 0 0 1-1.6-.4l-4.3-1c-3-.7-6.6-2.6.4-1.2l4.3 1c.6 0 1.1.2 1.6.3l1.4.4c1.8.5 3.7 1 7.2 2.2 7 2.6 7 2.8 13.8 5.8 3.4 1.6 5 2.4 6.8 3.1l2.7 1.3 4.2 1.6c1.8.6 3 1 4 1.5s2.1.7 3 1c1 .2 1.8.5 2.9.9l1.9.5 2.3.6c3.7 1 5.5 1.3 7.3 1.7l3 .6 4.4.7 4.4.7 3 .4c1 .2 2 .2 3.1.3l2 .2 2.4.2 4.5.3h10.5c7.3-.4 7.4 0 14.8-1 7.3-1 7.2-1.2 14.6-2.2l7.5-.7a62.3 62.3 0 0 1 7.5-.3c7.6 0 7.6-.1 15.1.7 15 2 2.7 1.6-.3 1.5zm-181.8-26h-3a.6.6 0 0 0-.5 0h-.2l-7.5-.6-3.8-.2h-3.8c-7.7.1-7.7.3-15.3 1.2l-7.6 1-7.7 1c-2.6.2-5.3.6-8 .7l-3.7.2h-3.6a9.3 9.3 0 0 1-1.3 0c-.5 0-1 0-1.5-.2a2.9 2.9 0 0 1-.7 0c-1.2-.2 1.8 0 3.2-.2h5.3l5.1-.4 5.1-.6c7.6-1 7.6-1.3 15.2-2.4 7.6-1 7.7-.8 15.4-1 3.9-.2 5.8-.1 7.8 0 2 0 3.9.1 7.8.4h.7a4.3 4.3 0 0 1 2.6 1zm205.2 28.4c1.4.3 2.8.8 4.1 1l3.8.9 4.4 1.2c2.5.9 5.2 1.8 8 3l2 .8 1.9.8 4 1.8 7.6 3.5 4 1.7 3.8 1.6c2.7 1 5.4 2 8 2.8 2.8 1 5.6 1.6 8 2.3l4.6 1 3.9.8a70.2 70.2 0 0 1 7.4 1.4l-7.6-1.1-7.8-1.5c-3.1-.7-6.2-1.4-9.3-2.3l-2.6-.8-2.6-1-2.6-.9-2.5-1c-6-2.4-11.7-5-17.5-7.5a149.4 149.4 0 0 0-19-6.7 59 59 0 0 0-7.5-2l-.4-.2s-.1-.2 0-.2l1 .1 2.9.5zM887 1136.2h-2.6l-3.7-.1-2.2-.1-2.3-.2-4.7-.4-4-.6c1.1 0 2.5.2 4 .4l4.7.3 2.3.2 2.2.1 3.8.2h2.5a8 8 0 0 1 .9.1l-1 .1zm-19.5-1.4l-2.7-.4 2.7.4zm95 14c1.1 0 2.3.3 3.4.5l3.3.7 1.8.4a15.2 15.2 0 0 1 1.8.4l3 .8a7.2 7.2 0 0 1 1.3.3l1.1.4 1.7.6a4.3 4.3 0 0 1 1.3.6l-1.4-.2-1.7-.3-1.1-.3a8.6 8.6 0 0 1-1.3-.3l-3.1-.9a13.3 13.3 0 0 0-1.8-.5l-1.8-.4-3.3-.5-3.4-.6-7-1-6.8-1.1-2.4-.3-1.8-.3-1.2-.2a6.8 6.8 0 0 1 1.4 0l1.8.1a25.1 25.1 0 0 1 2.5.2l6.8.7 6.9 1.1zm176 24.5l2.3.3 2 .4 3 .5a8 8 0 0 1 2 .5 6.6 6.6 0 0 1-2-.1l-7.1-1a159 159 0 0 1-6-.7l-3.4-.3c-1.2 0-2.2-.2-3.5-.3q-6.9-.3-12.2-.2l-4.3.1-3 .2h-2.3a7.4 7.4 0 0 1 2.2-.6l2.9-.3 4.3-.2h9.1l1.7.1 1.7.1 6.7.7zm-195.4-26.7zm-13.2-.3a5.7 5.7 0 0 1-1.7.1c-1 .1-2.6.3-4.1.3s-3.2.3-4.3.3l-2 .1a8.3 8.3 0 0 1 2-.4 32.7 32.7 0 0 1 4.2-.5l4.2-.1a11.4 11.4 0 0 1 1.3 0l.4.2zm240 34.4l1.6.6 2.4.8 3 1.2 3.2 1.4 6.3 2.8 6.1 2.8 3.4 1.4 2.9 1.1 3.9 1.5a12 12 0 0 1 1.4.4 9.9 9.9 0 0 1-1.3-.3l-4-1.2-3-1.2a52 52 0 0 1-3.4-1.4l-6.3-2.6-6.3-2.8-3.3-1.5-3-1.2c-1.6-.8-3-1.2-3.8-1.6a5.5 5.5 0 0 1-1.3-.7h.1a9.4 9.4 0 0 1 1.3.5zM997.1 1159a.7.7 0 0 1 .3.2l.2.1c4.6 2 9 4.4 13.8 6.3a122.7 122.7 0 0 0 14.7 4.7l4.4 1 3.1.8c2 .4 3.8 1 7.7 1.5 1.3.3 2.6.4 4 .6l4 .4 3.7.4 3.6.3 2.8.4.8.2c1 .4-1.9.4-3.4.4l-2.6-.2-2.8-.4-5.1-.6-5.1-.8-7.8-1.3-3.1-.6-4.5-1.1c-7.6-2.1-7.6-2.4-14.8-5.1-7-3-7-3-14-6.3a6.6 6.6 0 0 1-2.8-1.8c.5 0 2.2.7 2.9 1zm-122.5-16.2a1.3 1.3 0 0 1-.5 0h-1.4l-2-.2-2.3-.3-4.6-.6 4.6.5 2.3.3 2 .1 1.4.2zm219.6 31.2a8.3 8.3 0 0 1-2.5.6c-1.6.4-3.9.8-6.4 1l-3.6.5-3.2.2a9.6 9.6 0 0 1-3-.1 13.5 13.5 0 0 1 3-.5c.9 0 1.9-.3 3-.4l3.6-.5c2.5-.4 4.8-.6 6.4-.7a19 19 0 0 1 2.6-.1h.1zm48 7.2c5.5.8 5.5 1 11 2 5.5 1.5 5.5 1.3 11 3 1.4.3 2.3.7 3.1 1l2.2.7c1.5.4 2.7 1 5.3 2 5.2 2.2 5 2.4 10.2 4.7l5 2.3 2.1.8 3 1.3 1.8.6 1.4.5 2 .8 5.4 1.7a27 27 0 0 0 3.2 1 35 35 0 0 0 4.4 1.2l3.3.7c3.6.9 7.2 1.4 10.8 2l-6.9-.9-1.3-.2-2.7-.5-3.2-.6c-.8-.1-1.5-.4-2.3-.6l-2.2-.5-3.2-.9c-2.8-.8-4.1-1.1-5.4-1.6l-2.2-.7-1.4-.5-1.7-.7-3.1-1.2-2.1-.8-5.1-2.2c-5.1-2.3-5-2.4-10.1-4.6-2.6-1-3.8-1.6-5.1-2l-2.1-.8a32.8 32.8 0 0 0-3.1-1.1c-5.4-1.7-5.5-1.4-10.9-2.7-5.5-1-5.5-1.2-11-2l-5.5-1-5.5-.7-5.6-.5-2.3-.2h-3.3l-3.1-.2h-3.1c-1 .1-2 0-3 .2a12 12 0 0 1-3.8 0c-1.2-.4.7-.9 1.4-.8a53.3 53.3 0 0 1 5.6-.1h2.3l3.4.1h3.3l2.3.2c1.4 0 2.8 0 5.6.3l5.6.7 2.3.2 3.3.6zm-178.7-25a85.7 85.7 0 0 1 9.4 2.5 18.5 18.5 0 0 1 3.4 1.1l.2.2-.1.2a24.1 24.1 0 0 1-3.8-.8l-3.9-.7-4-.8-1.9-.4a18.8 18.8 0 0 0-2-.4l-4-.5c-1.3-.3-2.7-.6-4-.7l-4-.6-4-.6-4-.3-2.6-.4a5.1 5.1 0 0 1-1-.2 3.4 3.4 0 0 1 1-.1l1.1-.1h1.6c1.3 0 2.5.3 3.8.3l4.5.3 5.2.7c3 .5 6 .8 9 1.4zm-31.4-2.6a26.5 26.5 0 0 1-5.4.4l-2.8.2a12.4 12.4 0 0 1-2.4-.2c0-.2 2.4-.6 5.2-.8a39 39 0 0 1 4.9.2c.3 0 .5.1.5.2zm54.8 9l4.9 2c1.3.6 2.3 1.2 4.7 2.2l9.5 4.3a79 79 0 0 0 4.8 2l2 .7 2.8 1a39.2 39.2 0 0 0 5 1.6l5.1 1.2c5 1.3 5 1.4 10.1 2.5a24.1 24.1 0 0 0 3 .5 19.6 19.6 0 0 0 2.2.2 19.6 19.6 0 0 1 2 .3c.9 0 1.8.3 3.1.4 2.7.4 4 .5 5.2.8a19.6 19.6 0 0 0 2.1.4l3 .2a31.5 31.5 0 0 0 5.3.2 46.5 46.5 0 0 1 5.2 0h5.3c1.3 0 2.6 0 5.1-.2l5.2-.5c1.3 0 2.6-.3 5.2-.6l10.2-1.5c2.1-.3 5 .5.3 1.2l-10.3 1.8-5.1.6c-1.3 0-2.6.2-5.2.5-2.7 0-4 .2-5.3.2h-5.3l-5.3-.1a49.9 49.9 0 0 1-5.2-.3l-3.2-.3-2-.2a172 172 0 0 0-5.3-.7c-1.4 0-2.3-.3-3.1-.4l-2.1-.4a19.6 19.6 0 0 0-2.1-.3l-3.1-.6c-5.2-1-5.2-.6-10.4-2a39.7 39.7 0 0 1-5-1.6l-5-1.8-3-1a75.4 75.4 0 0 1-6.9-2.7l-9.4-4.3c-2.4-1.2-3.5-1.6-4.8-2s-2.5-1-4.8-2c-4.9-1.9-5.2-2.4-4-2.4l.4.1a18.4 18.4 0 0 1 4.2 1zm-96.8-12.2l-1.3.2h-6.4c-.9 0-1.4 0-1.5-.2h9.1zm26.5 4c0 .2-.8.5-2.5.8l-3.2.3c-1 .1-2 .5-3.1.6l-3.3.5-3.2.3h-2.7a15.3 15.3 0 0 1 2.7-.5l3-.5 3.2-.5 3.2-.4 3.2-.5a14 14 0 0 1 2.5-.1h.2zm303.3 44.3l2 .4c.7 0 1.5.3 2.3.4l5.8 1-5.8-1-2.3-.3-2-.4c-.6 0-1-.2-1.4-.3h-.4.5c.3 0 .8 0 1.3.2zm-1.8-.2h-.1a1.3 1.3 0 0 0 .1 0zm-347.4-48.7h-1.4c-.6-.2-1.8-.3-3-.4l3 .2 1 .1h.3zm-4.4-.4l-3.5-.5 3.5.5zm94.2 13.8l3.4.7c1 .3 2.2.4 3.2.6l1.9.4a15.2 15.2 0 0 1 1.7.4l3.1.8a7.2 7.2 0 0 1 1.3.3l1 .4 1.8.6a4.3 4.3 0 0 1 1.3.6l-1.5-.1-1.6-.4-1.1-.3a8.6 8.6 0 0 1-1.3-.3l-3.2-.8a13.3 13.3 0 0 0-1.7-.6l-1.8-.4-3.3-.5-3.4-.5-7-1.2-6.8-1-2.4-.3-1.8-.3c-.7 0-1-.2-1.2-.2a6.8 6.8 0 0 1 1.4 0l1.8.1 2.5.3 6.8.6 6.9 1.1zm176 24.6l2.3.3 2 .4 2.9.5a8 8 0 0 1 2.1.5 6.6 6.6 0 0 1-2-.1c-1.5-.1-3.8-.5-7.2-1a159 159 0 0 1-6-.6l-3.3-.4-3.5-.2q-7-.4-12.2-.3l-4.3.1-3 .2h-2.3a7.4 7.4 0 0 1 2.2-.5l2.9-.3c1.2 0 2.6-.3 4.2-.3h9.1l1.7.1 1.7.1 6.7.7zM941 1161.1zm-13.2-.3a5.7 5.7 0 0 1-1.6.2l-4.2.2c-1.6 0-3.1.3-4.3.4H916a8.3 8.3 0 0 1 1.9-.3 32.7 32.7 0 0 1 4.3-.6h4.1a11.4 11.4 0 0 1 1.4 0h.3zm240 34.3l1.7.6 2.3.9 3 1.1 3.3 1.4 6.2 2.9 6.2 2.7 3.3 1.4 3 1.2 3.9 1.4a12 12 0 0 1 1.4.5 9.9 9.9 0 0 1-1.4-.3l-3.9-1.3-3-1.2-3.4-1.4-6.3-2.6-6.3-2.8c-1.2-.4-2.2-1-3.3-1.4l-3-1.3-3.8-1.5c-.8-.3-1.3-.6-1.3-.7a9.4 9.4 0 0 1 1.4.4zm-274-37.6a8.3 8.3 0 0 1-2.8.4 19.1 19.1 0 0 1-3 0 13.8 13.8 0 0 1 3-.4 13 13 0 0 1 2.5 0h.2zm101.2 16a.7.7 0 0 1 .3.2l.2.1c4.7 2 9 4.4 13.8 6.3a122.7 122.7 0 0 0 14.7 4.7l4.5 1 3 .8c2 .4 3.9 1 7.7 1.5l4 .6 4 .5 3.8.3 3.6.3 2.8.4.7.2c1.1.4-1.8.4-3.3.4l-2.7-.2-2.7-.4-5.2-.6-5-.8c-4-.5-6-1-7.8-1.3l-3.2-.6-4.5-1.1c-7.5-2.1-7.5-2.3-14.7-5.1-7.1-3-7.1-3-14.1-6.3a6.6 6.6 0 0 1-2.8-1.8c.5 0 2.3.7 3 1zM882 1158h-4.7l-2.8-.2-3.3-.4-6.3-.7-3-.4 3.6.4c1.7.2 3.4.5 5.7.6l5.5.4 3.6.2h1.2zm210.4 30.6a8.3 8.3 0 0 1-2.6.7l-6.3 1-3.7.4c-1.2 0-2.2.2-3.1.3a9.6 9.6 0 0 1-3-.2 13.5 13.5 0 0 1 2.9-.5c1 0 2-.3 3-.4l3.7-.5c2.5-.4 4.7-.6 6.4-.7a19 19 0 0 1 2.6-.1zm48 7.2c5.5.8 5.4 1 11 2.1 5.5 1.4 5.5 1.2 10.9 2.9 1.4.3 2.3.7 3.2 1l2.2.7c1.4.4 2.6 1 5.3 2l10.1 4.7 5.1 2.3 2 .9 3.1 1.2 1.7.6 1.4.5 2.1.8 5.3 1.7a26.9 26.9 0 0 0 3.3 1 35 35 0 0 0 4.4 1.2l3.2.7c3.7.9 7.3 1.5 10.9 2.1l-7-1-1.3-.2-2.6-.5-3.3-.6-2.2-.6-2.2-.5-3.2-.9-5.5-1.6-2.2-.7-1.4-.5-1.7-.6-3-1.3-2.2-.8-5-2.2c-5.1-2.3-5-2.4-10.1-4.6l-5.2-2-2-.8a32.8 32.8 0 0 0-3.2-1c-5.3-1.8-5.4-1.5-10.8-2.8l-11-2-5.5-.9-5.6-.8-5.6-.5-2.2-.2h-3.4l-3-.1h-6.2a12 12 0 0 1-3.8 0c-1.2-.3.8-.8 1.4-.7a53.3 53.3 0 0 1 5.7-.1h2.3l3.3.2h3.4l2.3.1 5.6.4 5.6.6 2.2.3 3.3.5zm-178.8-24.9a85.7 85.7 0 0 1 9.4 2.4 18.5 18.5 0 0 1 3.5 1.1l.1.2v.2a24.1 24.1 0 0 1-3.8-.8l-4-.7-4-.8-1.8-.4a18.8 18.8 0 0 0-2-.4l-4-.5-4-.7-4-.6-4-.5-4-.4-2.7-.4a5.1 5.1 0 0 1-1-.2 3.5 3.5 0 0 1 1-.1h2.7l3.8.2c1.6 0 3 .2 4.6.3l5.2.7c3 .5 6 .8 9 1.4zm-31.3-2.7a26.5 26.5 0 0 1-5.4.5l-2.8.1a12.4 12.4 0 0 1-2.5-.2c0-.2 2.5-.5 5.2-.7a39 39 0 0 1 5 .2l.5.1zm54.7 9.1l5 2 4.7 2.1 9.5 4.3a79 79 0 0 0 4.8 2l1.9.7c.7.4 1.6.6 2.9 1a39.2 39.2 0 0 0 5 1.6l5 1.3c5.1 1.2 5.1 1.4 10.2 2.4a24.1 24.1 0 0 0 3 .5 19.6 19.6 0 0 0 2.1.3 19.6 19.6 0 0 1 2.1.2c.8 0 1.8.3 3 .4l5.3.8a19.6 19.6 0 0 0 2 .4l3.1.3a31.5 31.5 0 0 0 5.2.1 46.5 46.5 0 0 1 5.3 0h5.2c1.3 0 2.7 0 5.2-.2l5.2-.5c1.4 0 2.5-.2 5.1-.6l10.3-1.5c2-.3 5 .5.2 1.2l-10.2 1.8-5.2.6c-1.3 0-2.5.2-5.2.5l-5.3.2h-5.2l-5.3-.1a49.9 49.9 0 0 1-5.3-.3l-3.1-.3c-.8 0-1.5 0-2.1-.2a172 172 0 0 0-5.3-.6l-3-.5-2.2-.3a19.6 19.6 0 0 0-2-.4l-3.2-.6c-5.1-1-5.2-.6-10.3-2a39.7 39.7 0 0 1-5-1.6l-5-1.8-3-1a75.4 75.4 0 0 1-6.9-2.7l-9.4-4.3-4.8-2-4.8-2c-5-1.9-5.3-2.4-4.1-2.3h.5a18.4 18.4 0 0 1 4.1 1.1zm-96.8-12.3l-1.2.2h-6.4c-.9 0-1.5 0-1.5-.2h9.1zm26.6 4c0 .2-.8.5-2.5.8-.9.2-2 .1-3.3.3l-3 .6-3.3.5-3.3.3c-1.7.1-2.6.2-2.7 0a15.3 15.3 0 0 1 2.7-.5l3.1-.5 3.2-.5 3.2-.4 3.1-.5a14 14 0 0 1 2.5-.1h.3zm303.3 44.3l2 .4 2.3.4 5.7 1-5.7-1-2.4-.3-2-.4-1.3-.2h-.4l.4-.2 1.4.3zm-1.8-.2h-.2.1a.2.2 0 0 1 .1 0zm-347.5-48.7h-1.3l-3-.4 3 .2 1 .2h.3zm-4.3-.4l-3.6-.5 3.6.5zm278.8 39.5a145 145 0 0 1 21.5 5.5 197.3 197.3 0 0 1 19 8 144.4 144.4 0 0 0 19 7.5l5.7 1.5 2.8.8 3 .6 4.6 1 4.6.7 2.6.5-7-1-3-.5-3.5-.6-2-.5-2-.5-4.4-1a131.5 131.5 0 0 1-14.8-5l-13.5-6a123.9 123.9 0 0 0-13.7-5.2 172.6 172.6 0 0 0-29-6l-5.3-.7-5.2-.4c-.8-.2-1.7-.2-2.6-.3h-2.6c-1.7 0-3.5-.2-5.2-.1a133.5 133.5 0 0 0-20.7 1.7 177 177 0 0 1-19.1 2.2l-2.5.1h-7.4c-1.5 0-3.2 0-5-.2l-4.9-.4a28.7 28.7 0 0 1-5.3-.7c-.4-.1.3-.2 1.5-.2l4.7.3a309.4 309.4 0 0 1 7.5.3c2.5.2 5.1 0 7.6 0l3.8-.2c1.4-.1 2.6-.1 3.8-.3 5.1-.5 10-1.2 15-2a140.9 140.9 0 0 1 30.3-1.5c1.8 0 3.6.3 5.4.4l5.4.6 3.4.4 7.5 1.2zM966 1179.3l4.2 1 2.8.6 3.2 1 8 2.6 4.3 1.8 4.5 2c6 2.7 11.5 5.4 16.5 7.3l5.8 2.1 4 1.3 2.3.6.7.4a12 12 0 0 1-3-.6l-4-1.1c-1.7-.4-3.5-1.2-5.9-2l-3.8-1.5-4.2-1.8-8.8-4a113 113 0 0 0-8.6-3.8l-4-1.4-3.7-1.2-3.2-1-2.7-.8-4.2-1a14.1 14.1 0 0 1-3.5-1 2.4 2.4 0 0 1 .8.1l2.5.4zm-28.4-3.7h-3.4c-2-.1-4.5-.3-6.6-.1h-4.1l-4.8.4-4.8.5-4.2.5-5.7.7-1.8.3h-.8a5.3 5.3 0 0 0 .6-.2 14.4 14.4 0 0 0 1.6-.3 537.5 537.5 0 0 1 9.8-1.5l5.3-.6 5.3-.3h4.8a24.2 24.2 0 0 1 3.2 0l2.8.2 2 .2a4.2 4.2 0 0 1 .8.2zm-45.8-3.5a8.3 8.3 0 0 1-2.8.3 19.1 19.1 0 0 1-2.9 0 13.8 13.8 0 0 1 3-.4 13 13 0 0 1 2.5 0h.2zm-12 .3H875.2l-2.7-.2a105.5 105.5 0 0 1-9.6-1l-3-.5 3.6.4c1.6.3 3.4.5 5.7.6 2.2.2 4 .4 5.5.4l3.6.2h1.2zm260 37.7l3.5.6 3 .7 5.2 1.1 4.2 1 3.7 1.2a156.2 156.2 0 0 1 18.5 7.5 183.1 183.1 0 0 0 19 7.9l2.3.7 2.4.7 2.3.7 2.4.6a22 22 0 0 0 2.2.6l2.3.5 4.6 1a15.4 15.4 0 0 0 1.7.4 13.2 13.2 0 0 0 1.6.3l3.8.7 1.8.3a17.4 17.4 0 1 1-1.7-.2l-6.8-1c-2-.4-4.4-.8-6.7-1.4l-3.5-.8c-1.2-.3-2.3-.5-3.3-.9l-3.2-1a10.9 10.9 0 0 0-1.6-.4l-1.6-.6-3-1-3.2-1.3-6.1-2.6-6-2.6a122 122 0 0 0-18.6-7l-3.7-1-4.2-1c-1.5-.5-3.2-.7-5-1.1l-3.1-.6-3.4-.6c-9.9-1.6-15-2-19.8-2.3l-3.9-.2h-3a6.3 6.3 0 0 0-1.2-.1h-5.2l-3 .3h-1.7l-1.8.2-3.5.4-3 .4-5.2.8-8 1.1-1.8.3a14 14 0 0 1-2 .2l-4.3.4a118.7 118.7 0 0 1-11.9.2c-4.9 0-8-1-8.6-1.4v-.1a15.7 15.7 0 0 1 3.3 0h4.4a3.8 3.8 0 0 0 .8 0h.7a133.4 133.4 0 0 0 19.4-1c6.4-.7 12.8-1.8 19.4-2.4l1.8-.2 1.7-.1 3.2-.2 5.2-.1h4.2l3.9.1c3.9.3 7.8.5 14 1.4l6 1zM953 1184l8.7 1.5 4.4 1 4.5 1a120.2 120.2 0 0 1 16.7 5.7l16 7.1c8.5 3.8 13.4 5.2 13.3 5.6 0 .1-1.2 0-3.6-.7l-4.3-1.3a126 126 0 0 1-5.8-2.2c-4.6-1.8-10.1-5-16.2-7.5a132.4 132.4 0 0 0-16.5-5.2l-4.5-1.1-4.5-1-8.6-1.5-2.4-.4-7-1a85 85 0 0 0-4.3-.4l-3.9-.5c-2.4 0-4.5-.2-6.3-.3h-7.2l-.7-.1a3 3 0 0 1 1-.1l1.1-.2h1.6l4.7-.1h6.4c1.3.2 2.6.3 4 .3l4.2.4 4.5.4 2.3.3zm-32.2-1.3zm-39-3a.4.4 0 0 1-.2 0 4.1 4.1 0 0 1-.7 0h-6.3l-2.2-.2-2.3-.2-4.7-.4-4-.5 4 .3 4.7.4 2.3.1 2.2.1 3.8.2h2.5l.7.1zm-20.4-1.3a225.6 225.6 0 0 1 0 0zm279.6 39.5a145 145 0 0 1 21.5 5.5 197.4 197.4 0 0 1 19 8 144.4 144.4 0 0 0 19 7.4c2 .7 3.8 1.1 5.7 1.6l2.8.8 3 .6 4.6 1 4.6.7 2.6.4-7-1c-.9 0-1.8-.2-3-.4l-3.5-.7-2-.4-2-.5-4.4-1a131.5 131.5 0 0 1-14.8-5l-13.5-6a124 124 0 0 0-13.7-5.3 172.6 172.6 0 0 0-29-5.9l-5.2-.6-5.2-.4-2.6-.2-2.6-.1c-1.7 0-3.5-.2-5.2-.1a133.5 133.5 0 0 0-20.7 1.7 177 177 0 0 1-19.2 2.2l-2.4.1h-4.9l-1.3.1h-1.2l-5-.2-4.9-.4a28.7 28.7 0 0 1-5.3-.8c-.5-.1.3-.2 1.4-.1 1 0 2.6 0 4.7.2l3.5.2 4 .1a52.4 52.4 0 0 0 7.6-.2l3.8-.1 3.8-.4c5.1-.4 10-1.2 15-1.9a140.9 140.9 0 0 1 30.3-1.6l5.4.5 5.4.6c1.2 0 2.3.2 3.4.4l7.5 1.2zm-177.1-24l4.2 1 2.7.6 3.3 1c2.4.7 5.1 1.6 8 2.7l4.3 1.7 4.4 2c6.1 2.7 11.5 5.4 16.5 7.3l5.9 2.1 4 1.3 2.2.7.7.3a12 12 0 0 1-3-.6l-4-1.1c-1.6-.4-3.5-1.2-5.8-2l-3.9-1.5-4.1-1.8-8.9-4a113 113 0 0 0-8.6-3.8l-4-1.4-3.7-1.2-3.1-1-2.8-.7c-1.6-.5-3-1-4.2-1.1a19.6 19.6 0 0 1-3.4-1 2.4 2.4 0 0 1 .8.1l2.5.4zm-28.4-3.7h-3.4c-2-.1-4.5-.2-6.7-.1l-4 .1c-1.6.2-3.1.2-4.9.3l-4.8.5-4.1.5-5.7.7-1.8.3a1.1 1.1 0 0 1-.9 0 5.3 5.3 0 0 0 .6-.2 14.4 14.4 0 0 0 1.6-.3 537.5 537.5 0 0 1 9.9-1.5l5.2-.5 5.4-.4h4.8a24.2 24.2 0 0 1 3.1 0l2.9.2 2 .2a4.2 4.2 0 0 1 .8.2zm-47.9-3.6a9 9 0 0 1-1.1.1l-3.3.2-4.7.1-5.9-.2c-4.2-.3-8.2-.6-11.2-1 3 .3 7 .5 11.3.7l5.8.2h4.8l4.3-.1zm-30-1.3zm91.1 13.4l1.2.6c0 .1-.5.2-1.3.1l-3-.3c-2.5-.2-4.7-.8-4.7-1s2.4-.3 4.8 0l.9.1a12.7 12.7 0 0 1 2.1.5zm176.4 25.2c0 .2-2.5 0-4.4 0h-4c-1.5 0-2.7-.3-3.9-.4-1.8-.1-3.6-.1-3.5-.4 0-.2 1.4-.6 3.3-.7 1.1 0 2.7 0 4.3.2s3.2 0 4.5.2c1.8.3 3.8.8 3.7 1zm18.6 2.1c2.4.5 4.2 1.2 4.2 1.5 0 .2-2 0-4.4-.5l-3.2-.7c-.8-.3-1.4-.4-1.3-.6a3 3 0 0 1 1.4-.1l1.6.1 1.7.3zm-178.7-24.7c2.4.6 4.2 1.5 4 1.8 0 .3-2 0-4.3-.6l-3.2-.8c-.9-.2-1.4-.6-1.3-.7 0-.1.6-.2 1.5-.2l1.8.2a13.3 13.3 0 0 1 1.5.3zm-34.4-4c0 .2-2 .3-4.4.3-2.4 0-4.8-.1-4.7-.4 0-.2 2.2-.6 4.6-.6a23.3 23.3 0 0 1 2.7.2l1.8.5zm231.8 33.8c2.4.8 4 1.8 4 2l-1.4-.2-2.9-1-3-1a4.3 4.3 0 0 1-1.4-.8c.1-.1.7 0 1.6.1l3.1 1zm-64.2-7.6c0 .2-.7.4-1.7.6l-1.7.3-2.2.3c-3.2.4-6.1.7-6.3.4 0-.3 2.8-1.2 6-1.6a14.8 14.8 0 0 1 2.2-.3h2a7.9 7.9 0 0 1 1 0l.7.3zm-108.7-13.9c2.2 1 3.8 2.3 3.6 2.5s-2.1-.3-4.3-1.3c-2.1-1-4.1-2-4-2.3h.7a18 18 0 0 1 4 1.1zM909 1198c0 .3-3 .8-7.3 1.5s-7.8 1-7.8.7c0-.2 3.3-.7 7.6-1.5a41.2 41.2 0 0 1 7.3-.8l.2.1zm-29.1-4a.4.4 0 0 1-.3 0 4.1 4.1 0 0 1-.7.1h-6.2l-2.2-.2-2.4-.2-4.7-.4-4-.5 4 .3 4.8.4 2.3.2h2.2l3.7.2 2.6.1h.6zm-20.5-1.2a225.6 225.6 0 0 1 0 0zm277.1 39l3.6.6 3 .7 5.2 1.1 4.2 1.1 3.7 1.2a148.5 148.5 0 0 1 15.5 6l-2.5-.3a109.4 109.4 0 0 0-13.2-4.7l-3.7-1-4.2-1c-1.5-.5-3.2-.7-5.1-1.1l-3-.6-3.5-.5c-9.8-1.6-14.9-2-19.8-2.4l-3.8-.2h-3.1a6.3 6.3 0 0 0-1.2 0h-5.1l-3 .2-1.7.1-1.9.2-3.3.3-4.7-.6 7.5-1h1.9l1.7-.2 3.1-.2 5.3-.1h4.2l3.9.1c3.8.3 7.8.5 14 1.4l6 1zm-186.4-26.1l8.6 1.5 4.5.9 4.5 1.1a120.3 120.3 0 0 1 16.6 5.7l4.6 2-4.2-.7-1-.3a132.5 132.5 0 0 0-16.5-5.3l-4.5-1-4.4-1c-3-.7-5.8-1.1-8.6-1.6-.8 0-1.6-.3-2.4-.4l-7-1a85 85 0 0 0-4.3-.4l-4-.4-6.2-.3-4.5-.1H917.9a3 3 0 0 1 .9-.2l1.1-.1h1.7l4.7-.2 6.3.1 4 .3c1.4.1 2.8 0 4.2.3s3 .3 4.5.5l2.4.2zm237.2 36l3.2 1.3 2.5 1a10.7 10.7 0 0 1 2.3 1c0 .1-1-.1-2.4-.6l-2.7-.9-3.2-1.2a29.1 29.1 0 0 1-7.3-3.7c.6 0 3.5 1.4 7.6 3zm-184.3-26.2c2.2.9 3.8 2 3.7 2.4s-2-.2-4.3-1.1c-2.3-1-4.1-2-4.1-2.4h.7a20.7 20.7 0 0 1 4 1.1zm-85.1-11.2zm149.8 22.6c0 .3-.8.5-2.2.7h-.2l-9.1-1.3h3.7c2.2 0 4.2 0 5.5.2l1.6.1c.5.1.7.2.7.3zM883 1201.2a13 13 0 0 1-3.2.3l-2.6-.4h1a40.6 40.6 0 0 1 4.6 0l.2.1z" fill="#ffd100"/>
  </g>
  <path d="M109.2 64.4s29.1-30.7 58.5-10 20.8 52.3 13.5 62.5-24 36-89 59.3c-12.5-10.3-51.3-38.4-61.6-58.9s-18-40.7 2.4-67.7c20.9-27.4 69-8.3 76.2 14.8z" fill-rule="evenodd" fill="#fff"/>
  <path d="M190.2 93.5c.6-17.4-8-30.5-20.9-39.8a40 40 0 0 0-15-6.8l-3.4-.5a43.3 43.3 0 0 0-8.6.2 57.8 57.8 0 0 0-25.7 11c-2.3 1.8-4.3 3.8-6.5 5.6v.2c-1.1-1.7-1.4-3.8-2.6-5.4l-4.1-5.7a54.4 54.4 0 0 0-15.7-12 53.6 53.6 0 0 0-24-5.4 43 43 0 0 0-36.3 20.3 66 66 0 0 0-8.7 33 56.5 56.5 0 0 0 4.6 18.5c1 1.5 1.8 3.1 2.7 4.7l3.9 7.6 2.4 2.8 3.4 5.1c6.6 7.7 13.8 15 21.1 22.2q3.6 3 7.1 6.2c1.3 1 2.8 1.7 4 2.6l7.2 6 2 2.1 3.6 2.3L88 174l3.6 3.6c1.7.3 6.6-1.9 8.2-2.5 6.1-2.3 12-4.7 18-7.3 4.8-2.1 9.3-5 14.2-7.3a118.7 118.7 0 0 0 22.5-13.3l7.2-5.1A91.5 91.5 0 0 0 184 117a66.8 66.8 0 0 0 3.5-7.7c2-4.6 2.7-11.5 2.8-15.8zM35 50.5a1 1 0 0 1 .3.7 1.2 1.2 0 0 1 0 .1v.1h-.2a1.3 1.3 0 0 1-.5-.7.2.2 0 0 1 .4-.1zm-.6 5.4c-.2 0-.4-.2-.4-.5h.2v.1a3.3 3.3 0 0 0 .2.4zM23.4 94l-.6-1.7.2-.2a1.7 1.7 0 0 1 .5 1.9h-.1zm6 18.3l-.2.1a2.7 2.7 0 0 0-1-1l.3-.5a1.7 1.7 0 0 1 1 1.4zm155.2-5.6c-1.5 3.2-2.5 6.4-4.1 9.4-9.4 17.5-26.7 28.9-41.6 37.8a167.6 167.6 0 0 1-16 8.8c-3.5 1.6-6.8 4-10.4 5.5-6.3 2.7-13.1 4.3-19 7.6l-.2-.2a19.3 19.3 0 0 1 2.8-2.1l1.6-1.5a2.9 2.9 0 0 1 1-.7l1.2-.7c1.3-1 2-2 3.3-2.5a.3.3 0 0 0 .1-.5v-.2a.4.4 0 0 0-.5 0c-1.7.8-3.4 2.2-5.2 2.8a11.3 11.3 0 0 0-2.9 1.4c-.9.7-2 2-3.2 2a.1.1 0 0 1-.1-.1c1.3-2.6 7.3-5.8 9.4-7.4a47.9 47.9 0 0 1 9.2-5.6c3.8-1.8 7.5-4 11.4-5.4 4.7-1.8 12-2.8 17.9-2.6a.8.8 0 0 0 .6-.3.8.8 0 0 0-.2-1.2c-1.2-.7-3-.2-3.8 0a45.7 45.7 0 0 0-9.5 1.8c-2.3.7-4.4 1-6.7 1.8-1.1.4-2.1 1-3.2 1.5A82.1 82.1 0 0 0 97 166.6l-5.1 3.9-2 1.4c-.3.2-.4.3-.7.3a.2.2 0 0 1-.1-.3c1-2.8 5-4.4 6.8-6 1.5-1.3 3-2.4 4.5-3.5l2.5-1.4a67.2 67.2 0 0 1 13-7.7l5.7-2.4c.8-.4 1.3-1 2.3-1l.1-.3c-.5-.5-2 .2-2.5.4-2.4.8-4.5 2-6.8 2.9a47.7 47.7 0 0 0-11 6.1 2 2 0 0 1-.2 0l-3 1.6a1.5 1.5 0 0 0-.3 0c-1.5 1.2-3 2.3-4.7 3.4l-8.6 6.4a.3.3 0 0 1-.5-.3c.8-2.1 5-4.7 6.6-6 4.6-3.7 9.7-6.8 14.4-10.4l7-4.2a.1.1 0 0 0-.2-.2c-2.3.3-7 3.5-8.6 4.7l-6.8 4.2c-4.6 3.5-9.5 6.7-14 10.3a.4.4 0 0 1-.6-.5c.6-1.4 2.7-2.4 3.7-3.3 3.5-3 7.1-5.7 10.7-8.5 10.7-8.4 25.4-17 40.6-17.6 3.6-.2 7.8.6 11.7.9a1.4 1.4 0 0 1 .4 0l5.4 1.5a.6.6 0 0 0 .9-.4v-.2a.6.6 0 0 0-.3-.7 22.7 22.7 0 0 0-7.6-1.8l-3.8-.7a36.7 36.7 0 0 0-7.3.5c-3.6.5-7 .6-10.3 1.5A92.1 92.1 0 0 0 97.8 155l-11.4 8.9c-1 .8-2.7 3.1-4.2 3a.2.2 0 0 1-.1-.4c3.7-4.3 9-8 13.4-11.5 13-10.5 27-20.3 45.6-21.3a35.1 35.1 0 0 1 3.9.5c3.3.3 6.7 1.1 10.3 1.4 2 .2 3.6 1.3 5.6 1.6a.8.8 0 0 0 .8-1 .8.8 0 0 0-.4-.4 46 46 0 0 0-18.8-2.9 63.8 63.8 0 0 0-36.4 12.6c-3.1 2.4-6.7 4-9.8 6.5l-11 9.2c-1.3 1-2.8 3-4.4 3.7a.2.2 0 0 1-.2-.3c.8-1.8 4.5-4.3 5.8-5.5l4.7-4.6a1.7 1.7 0 0 1 .3-.2l2.6-2c1.6-1.2 2.9-2.6 4.4-4l5-3.6a.3.3 0 0 0 0-.2c0-.3.1-.4-.2-.5a.3.3 0 0 0-.2.1l-6 4.2c-6.2 4.7-12.2 9.6-18.3 14.7a.2.2 0 0 1-.2-.2c.5-1.1 2-1.9 2.8-2.6l3.4-3.5 3.5-2.8 5.2-4.8 14.7-11.2 4.8-3c1.8-1 3.5-2.2 5.3-3.3 1.1-.7 3-1.1 4-2.1a.2.2 0 0 0-.2-.3c-2.4.1-8 3.9-9.6 5-1.7.8-3.3 1.8-5 2.7l-6.4 4.9-5.3 3.4-9.2 7.8-7.5 6.6c-.7.6-1.4 1.6-2.4 1.9a.2.2 0 0 1-.2-.4c.7-1.2 2-2 3-2.8l7-6.4a494 494 0 0 1 18.7-15.7l11.4-7.8a.2.2 0 0 0-.2-.3 9.5 9.5 0 0 0-2.7 1.5 77.2 77.2 0 0 0-7.8 5.2l-9.6 7-11.9 10-7 6.2c-1 .8-1.7 1.8-3 2.2l-.2-.2c.5-1.3 2.3-2.2 3.2-3 2.5-2 4.7-4.5 7-6.5l9-8.2c5.2-4.5 10.8-8.7 16.2-12.8l9.7-6.3c1-.6 3-1.1 3.8-2.1a.2.2 0 0 0-.2-.4c-1.2.1-2.4 1.1-3.3 1.6-3.4 1.5-6.1 3.8-9.3 5.7a95.6 95.6 0 0 0-10.3 7.5l-6.4 4.5-20.9 18.5a.2.2 0 0 1-.2-.2 9.6 9.6 0 0 1 2-2l5.2-4.5 15.8-15c1.5-1.3 5.4-3.8 6.3-5.4l-.2-.3c-1.3.3-5.5 4.2-6.8 5.2-5.6 4.5-11.2 9.2-16.7 14-1.7 1.4-5.7 6-7.9 6.1a31.7 31.7 0 0 1 4.3-3.7l4.4-4.3 4.6-3.7c7.8-7.1 15.4-14.2 23.7-20.7l11.9-8.4c1.3-1 3.7-1.4 4.7-2.9a1.2 1.2 0 0 0-.1-.2c-9.2 4-17.1 10.6-24.8 17l-7.1 5.3-11.5 10.5-12 10-.2-.2c.7-1.2 1.8-1.8 2.7-2.6l5.6-4.7c2.8-2.4 5.4-5.1 8.1-7.8l3.3-2.6c1.9-1.7 3.5-3.5 5.4-5.4 1.4-1.4 6.5-5 7.1-6.5l-.2-.2c-1.3.4-2.2 1.8-3.3 2.7l-4.5 3.6L74 146.7c-1.7 1.5-6.4 6.3-8.7 6.3.5-1.8 2.6-2.4 3.7-3.3l9.3-7.7 23.7-21.2 9.1-7.3 4.9-3.7a12.8 12.8 0 0 0-4.2 2.4c-3 2.4-6.1 4.6-9 7l-25.7 22c-3.2 2.7-6.4 5.1-9.7 7.6-1.3 1-2.6 2.5-4.7 2.3v-.2c.9-1.8 3.6-2.6 5.1-3.8 3.7-2.8 7.4-5.6 10.9-8.6 8.8-7.5 16.9-15.7 25.8-23.1 3.9-3.3 8-6.3 12.1-9.4l6-4.2v-.2c-1.4 0-2.8 1.4-3.8 2a97.6 97.6 0 0 0-10.3 7.6l-4.4 3-8.6 7.7-7.7 6.1c-4.5 3.9-8.7 7.9-13.2 11.5-3 2.4-10.3 9-13.8 9.3l-.8-.2c3.1-2.6 7-4.2 10.2-6.7 5.4-4.2 10.7-8.9 15.9-13.4 2.9-2.5 5.4-5.5 8.3-8 5-4.4 10.2-8.6 15.5-12.8l9.7-7.3L124 98a59.4 59.4 0 0 1 24.9-10.8c2.4-.4 5-1.2 7.7-1.3v-.3c-1.7-1-4.6-.1-6.1.1a65.1 65.1 0 0 0-16.2 5.3c-20.1 9-36.6 26.1-53.6 40.3a143.7 143.7 0 0 1-17.2 12.5c-1 .7-5 3.4-6.5 2.4h-.1c.5-.9 2.3-1.3 3.2-1.7l7.3-4.3c6.2-4.7 12.3-9.5 18.2-14.6l3-3.2c1.5-1.3 7.2-5.7 7.7-7.2v-.1c-1.3 0-2.1 1.4-3 2.1l-6.8 5.9c-5 4.3-10.2 8.3-15.5 12.3l-4.8 2.9c-3 2.3-7.4 5.2-12 4.9v-.2l4.2-1.6a37.5 37.5 0 0 0 7.1-4.3l4-2.5c5.5-4.1 11-8.2 16.3-12.8l13.4-12.2L112.5 98c-1.7.3-3.4 2.2-4.7 3.3L97 110.5a760.2 760.2 0 0 1-18.6 15.7 64.4 64.4 0 0 1-13.2 9c-3.4 1.5-6.5 3.8-10 5l-4 .1H51v-.5l5.3-2 9.3-4.7a26.7 26.7 0 0 0 5.4-2.8c5.5-4.2 11.4-8.1 16.7-12.7 2.5-2.2 4.7-4.5 7-6.9l6-5 3.7-3.9 8-7c1.6-1.4 3.6-2.5 5-4.1a1 1 0 0 1-.1-.1c-1.3 0-3 1.8-3.9 2.5-3.3 2.6-6.4 5.2-9.6 8L94 109c-2.2 2-4.1 4.2-6.3 6.2l-6 4.5-5.3 4.5-8.8 5.6a54 54 0 0 1-14 6.5c-1.4.5-3.6 1.6-5.6.4l-.4-.5.1-.3c6.8-.6 12.8-4.4 18.4-7 7.8-3.6 14.3-9.5 20.8-15 4.6-4 9.4-7.8 13.8-12 1.8-1.8 3.4-3.7 5.3-5.3l8.2-6 4-3.8a91.6 91.6 0 0 1 19.9-12.9l2.5-1.4 7.8-3a15.5 15.5 0 0 1 2.3-1l7-1.6 3-.5h.2c-1.5-.8-7 .8-8.4 1.1a68.7 68.7 0 0 0-12.1 4.4 660 660 0 0 1-4.2 2.4 34.3 34.3 0 0 0-6.6 3.7l-5.2 3.4-12.1 9.3c-2.3 1.8-5 3.2-7.3 5.1-4.6 3.8-8.5 8.4-13 12.2l-7.3 5.6c-2.4 2.2-4.7 4.3-7.2 6.2l-7.5 4.8a53.2 53.2 0 0 1-16.5 7.4c-2.8.8-5.3 1.7-8.9.7l-.1-.3.2-.4 4.3-.8a50.2 50.2 0 0 0 12.5-3.4c1.9-.9 3.7-2.1 5.6-3a86 86 0 0 0 21.7-16l2.6-2 14.7-13.3a358 358 0 0 1 13.3-10.8c2.1-1.7 5-2.8 6.6-5.1v-.2c-2.1 0-4 2.2-5.5 3.3-4.3 3.5-8.7 6.6-12.9 10.5l-4 3-3.4 3.5-3 2.2q-3.3 3-6.5 6.2A98.6 98.6 0 0 1 64 124a48.3 48.3 0 0 1-17.4 4.4c-3-.1-7.4-1.3-9.1-3.2v-.3l.3-.1c3.9.6 7.7 1.4 11.2 1.3 14.6-.8 26.7-9.8 36.6-18.3 5.1-4.4 10.4-8.7 15.4-13.4 4-3.7 8.3-6.7 12.1-10.6 1.4-1.3 3.7-2.3 4.6-4.2-2.1.6-4.7 3.4-6.4 4.8l-4.7 3.4c-3 2.4-5.6 5-8.5 7.5-4.2 3.9-9 7.5-13.4 11.1l-7.3 6.3a58 58 0 0 1-19.1 9.4c-7.5 2.2-18.3 1.7-24.6-4.5-1.2-1.1-3-2.4-3.4-4h.1c1.7.7 2.6 2 3.9 2.9 3 2.2 8.2 5 13.2 5 16.9.2 28.5-9 39.7-18.5 3-2.6 6.4-5 9.4-7.6 6-5.6 11.8-11.1 18-16.4 5-4.3 10.4-8 15.6-12l10.6-6.9c-2.4.3-6.2 3.2-8.2 4.6l-4 2.4c-4 3.1-8 6-11.9 9.3-8.2 7.1-17 13.8-25.1 20.9l-5.7 5.3c-2.1 1.8-4.6 3.2-6.9 5a51 51 0 0 1-16 8.6 44.4 44.4 0 0 1-14.9 2.4l-4.2-1c-2.5-1-4.6-1.3-6.6-2.5-4.4-2.6-8.5-9-10.5-13.2-.9-2-3-5-3.2-7.2v-.1h.3l3.4 5.9c3 3.9 5.7 8.5 10 11.5 9.4 6.7 20.9 4.2 28.4 1.2 7.8-3 14.7-8 21.2-13.2 7-5.7 13.8-11.6 20.4-17.9l14-12c3.6-3 7.7-5.4 11.3-8.2a57.4 57.4 0 0 1 10.7-6.9l6.2-2.9c1-.4 2.8-.5 3.5-1.4a.8.8 0 0 0-.7-1.1c-2 0-5.9 2.3-7 3a188 188 0 0 0-19.5 12.8l-9.3 7.1c-3.1 2.6-5.9 5.5-9 8.1l-4.7 3.6-7.5 7-9.9 8c-2.8 2.4-6.2 4-9 6.2a47.2 47.2 0 0 1-10.8 6c-6.6 2.8-17.9 4.8-26.4-1.3a45.3 45.3 0 0 1-9.8-11.6A50.7 50.7 0 0 1 23 83.4c.8.6 1.1 2.4 1.5 3.3 1 2.7 2.4 5.2 3.6 7.8l3.1 4.7a44.7 44.7 0 0 0 3.5 4.6c3.2 3.3 7.3 5.5 12.5 7.7a15.8 15.8 0 0 0 7 1c6.3-.4 9.1-1.8 14-4a54.9 54.9 0 0 0 11.6-7c2.8-2.2 6-4 8.7-6.2l3.1-3c4-3.2 8.2-6.4 12-9.7 3.6-3.1 6.6-6.6 10.1-9.6 4-3.5 8.2-6.7 12.3-10 1.3-1 4.4-2.7 5.2-4.4-1.8 0-3.9 2.3-5.1 3.3l-11.5 9.5c-8.7 7.4-17.5 15-26.4 22.2l-7.3 5a49.2 49.2 0 0 1-15.5 8.7c-7.3 2.2-17.8 3.6-25.7-2.6-3.2-2.5-5.1-6-7.5-9.1L30 92.4l-1.6-3.5a.7.7 0 0 1 0-.5l4 7.1a41.7 41.7 0 0 0 8.2 7.5c1.4 1 3 1.4 4.8 2.2 8.6 3.8 16.2.7 22-1.2a83.7 83.7 0 0 0 9.2-3.6c4-1.8 7.3-5 10.7-8l6-5 4.2-3.4 2.6-1.7c1.3-1.2 2.2-2.6 3.4-3.7 3.4-2.9 7-5.6 10.4-8.4l2.7-2.9c2.4-2 5-4 7.3-6.3-1.9.3-3.6 2.4-5 3.6l-9.6 8c-2.2 1.7-4 3.7-6.2 5.6-4.8 4.4-10.3 8.1-15.3 12.3-3.5 3-6.8 6-10.9 8a92 92 0 0 1-12.2 4.6 34.9 34.9 0 0 1-10.8 1.7c-9.4 0-17.2-7.8-20.4-13-2.5-4.2-6.2-10.2-7.4-15l.2-.2c.9 2.6 2.5 4.8 3.5 7.2a21.2 21.2 0 0 0 2.4 5C37 95 45.8 103 57.3 102.2a40 40 0 0 0 9.7-1.9c16.8-5.5 30.4-20.2 43.8-31.7l13.6-11.6 4.5-3.8a.2.2 0 0 0-.2-.3c-2 .8-4.5 3.2-5.8 4.4-3.5 3.2-7.2 6.1-10.9 9.1-5.5 4.6-10.8 9.6-16.3 14.3-2.8 2.4-6.2 4.4-9 6.7a62.9 62.9 0 0 1-15.3 9.2 30.7 30.7 0 0 1-5.6 2 44.2 44.2 0 0 1-8.8 1 28.5 28.5 0 0 1-13.1-3.5 46.7 46.7 0 0 1-4-3.3L37 90.8l-3.3-5.1a33.2 33.2 0 0 1-4.3-8.2 7.9 7.9 0 0 0-.7-1.7 1 1 0 0 1-.1-.3c2.4 2.4 3.3 6 5.3 8.6 3.4 4.4 6.7 8.3 12.5 11.4a26 26 0 0 0 18.3 1.2 85.9 85.9 0 0 0 32-19.1l8-7.1a20.8 20.8 0 0 0 3.5-3.2.3.3 0 0 0-.3-.4l-2.3 1.8-7.4 6.2a280 280 0 0 1-11.9 9.6L82 86.9a37.3 37.3 0 0 1-7 4.5 75.2 75.2 0 0 1-10.2 3.5 25.3 25.3 0 0 1-19.3-2.5c-3.1-1.9-5.5-4.7-7.7-7.2a50.2 50.2 0 0 1-7-12.3l-2-5.7a.1.1 0 0 1 .2-.2c1.2 1.7 1.6 4 2.5 6l1.9 3.2c2.3 5 5.3 9.7 10.7 12.8a30.9 30.9 0 0 0 20.1 3.5c11.4-2 21.5-9.3 30-16.3 3-2.4 6-5 8.9-7.6a24.3 24.3 0 0 0 3.1-2.7.3.3 0 0 0-.3-.4 28 28 0 0 0-4.3 3.4L95 74.3c-9.8 8-20.7 16.3-35 16.8-1.8 0-3.4-.6-5.5-.7a18.3 18.3 0 0 1-7-2.4c-8.2-4.4-11.7-11.3-14.7-18.8L31.1 66 29.5 61c-.1-.6-1.4-2.3-1-3a.1.1 0 0 1 .3-.1c.9 1 1 2.7 1.6 4l2.5 5.7a41.8 41.8 0 0 0 12 16.2c5 3.8 13.6 5.4 19.4 4.5 12.1-2 22-9 30.9-16.5l7.7-6.5a29.4 29.4 0 0 0 2.5-2.2.2.2 0 0 0-.3-.4 16.4 16.4 0 0 0-2 1.6l-7.8 6.3C87.1 77.2 77 84.6 65.7 86c-5.6.8-12.2.4-18-3.1-3.5-2.2-5.7-5.4-8-8.3a39.5 39.5 0 0 1-6.4-12.9.2.2 0 0 1 .4-.1c1.5 2.8 2.5 6 3.9 9a13.6 13.6 0 0 0 2 2.5A32.5 32.5 0 0 0 50.5 82C55 84.3 60.2 84 64 83.9c6.7-.5 9.6-2.4 14.7-4.7a9 9 0 0 0 1.4-.8l.8-.5a8.3 8.3 0 0 1 1-.6 66.9 66.9 0 0 0 11.3-7.6c2.9-2.3 5.7-4.5 8.5-7a13 13 0 0 0 2.1-1.8.2.2 0 0 0-.2-.3 17.6 17.6 0 0 0-3.6 2.6L94 68a65.2 65.2 0 0 1-13.3 8.2c-5.1 2.3-9.2 5-15.6 5.5-5.9.5-11.5 0-16.8-3.7a35.6 35.6 0 0 1-7.5-7.9 35.9 35.9 0 0 1-4.9-9.5l-.7-1.9a.2.2 0 0 1 .5-.2 21.6 21.6 0 0 1 1 2.6l3 5c2.7 3.7 6.3 7.6 10.6 10.2 4.9 3 12 3.5 16.6 2.6 10.5-2 18.5-6.7 26.4-12.9 3.1-2.4 7-4.7 9.6-7.8V58c-1.8.5-3.3 2-4.7 3.2l-7 5.1a53.8 53.8 0 0 1-23.3 10.2 42 42 0 0 1-5.4.7 22 22 0 0 1-13.4-4.7c-2.8-2.8-5.9-5.2-7.8-8.4C40 62 39 59.9 38 57.7a2.3 2.3 0 0 0-.2-.4l-1-1.4a3.8 3.8 0 0 1-.5-1l-.7-2.2a.1.1 0 0 1 .3-.1c1.5 1.6 2.8 5.3 4.1 7 2.8 3.7 5.7 7.7 9.6 10.6 3.4 2.5 9.5 4 13.9 3.8A35.5 35.5 0 0 0 74 72.6l5.2-2.5a40.3 40.3 0 0 0 8.7-4.7.1.1 0 0 0-.2-.2C82 67.9 75 71.3 68 72c-3.8.4-10 .4-14.3-2A43 43 0 0 1 37 48a.2.2 0 0 1 .4 0c.7 1 1.4 2 2 3.2a11.4 11.4 0 0 0 1.3 2.9c3.6 4.7 7.1 9.6 12.8 13 3.8 2.3 9.5 3 13.3 2.5a56.4 56.4 0 0 0 17.4-5.3l5.4-3.4c2-.9 8.7-5.3 10.2-7.3a.2.2 0 0 0-.3-.3c-2.7 1.1-5.9 4.2-8.5 5.7a57.5 57.5 0 0 1-21.3 8.2c-4.4.7-11.5.5-16-2.8a45.7 45.7 0 0 1-8-8 36.7 36.7 0 0 1-6-9.7.2.2 0 0 1 .3-.2 28.4 28.4 0 0 0 2 3.5c2.7 3.4 5.4 7.3 9 10l4.6 2.7c3 1.8 8.5 2.3 11.4 2.2 9-.4 15-3.7 21.9-7.3a45.7 45.7 0 0 0 7-4.6c.6-.6 1.6-.9 2.1-1.7a.2.2 0 0 0-.2-.3c-1.4.3-2.7 1.6-3.7 2.4l-5.2 3.2c-9.5 4.3-21.6 10.4-35 2.3-3-1.8-4.8-4.3-6.6-6.6-1.3-1.6-4.3-5.2-5-7.5a.2.2 0 0 1 .3-.2c4.1 5 9.3 11.4 15.6 14.7a18.4 18.4 0 0 0 9.7 1.7 62.6 62.6 0 0 0 14.8-4l3.9-2.2c2.8-1.3 6.8-3.1 9-5.4a.3.3 0 0 0-.2-.5c-1.6.3-3 2-4.4 2.7-3.6 1.6-7.1 3.7-10.9 5a36.3 36.3 0 0 1-12 2.2c-1.6 0-3-.8-4.7-.9-7.2-.4-12.5-7.6-15.5-11.5a22.1 22.1 0 0 1-2.9-3.8.2.2 0 0 1 .2-.3c1.6 1 2.5 2.7 3.7 3.8a29 29 0 0 0 19.8 9.4l1.5.4c1.1 0 5-.4 6.3-1a.5.5 0 0 0 .2-.8 1 1 0 0 0-.8-.4 18.8 18.8 0 0 0-2.8.6h-3.5a26 26 0 0 1-15.6-6 26.4 26.4 0 0 1-2.2-3l-1.2-.9a26.2 26.2 0 0 1-2.1-3.6.2.2 0 0 1 .3-.2 17.3 17.3 0 0 1 1.6 1.9 20.4 20.4 0 0 0 4.5 4c8.3 5 18.4 6.1 25.5 3.5a23.2 23.2 0 0 0 3.5-1.4 5 5 0 0 1 1.5-1.2l4.7-1.7a.3.3 0 0 0 .2-.1.3.3 0 0 0-.4-.4c-5.6 2.2-14.9 7.3-22.8 4l-3.2-.7a3.1 3.1 0 0 1-1.7-1 3.2 3.2 0 0 0-1.3-.8l-.6-.2a3.3 3.3 0 0 1-.7-.4 31 31 0 0 1-7.2-7 .1.1 0 0 1 .1-.3c1.3.7 4.2 3.1 5 3.6 3.7 2.2 9.1 3.3 13.3 3.4l1 .2a4.8 4.8 0 0 0 2-.2 5.4 5.4 0 0 1 1.7-.2 5 5 0 0 0 3-.5.2.2 0 0 0-.1-.3c-1.2-.2-4.5.2-5.3.2a23 23 0 0 1-14.8-5.5c-.6-.6-1.7-.7-2-1.6a.6.6 0 0 1 .5-.7c2.1-.3 5.5 2.4 7.6 3l1.3.2a2.7 2.7 0 0 1 .5.1l1.7.5a1.3 1.3 0 0 0 .1 0c2.7.3 6.2.6 8.3-.2a.2.2 0 0 0 0-.3 5 5 0 0 0-2.6 0l-1.4-.4h-2a9.6 9.6 0 0 1-2.6-.8 4.3 4.3 0 0 0-1-.3l-1.3-.3c-.9-.5-1.2-1.2-2.8-1.6a.2.2 0 0 1 0-.3c2.8 0 5.5.2 8.6.4l5.5 1.1 3.3.7c10 4.3 16.7 8 22.4 15a35 35 0 0 1 4.6 7.2c.5 1 .7 2.5 1.5 3.5l1.2.4c1.1-.4 2.2-2 3.1-2.8l6.2-5a48.7 48.7 0 0 1 26-9.2 40 40 0 0 1 27 11 45 45 0 0 1 15.1 30.3c.4 4.7 0 11.6-2.5 17.3zm-156-40.4a1.2 1.2 0 0 1-.1 0l-.3-.9a.1.1 0 0 1 .2 0 2 2 0 0 1 .3.8zm-.5 6.6a.2.2 0 0 1-.4.1 6.9 6.9 0 0 1-.6-2.2.2.2 0 0 1 .3-.2 8 8 0 0 1 .7 2.3zm-2.5 9.8a2 2 0 0 1 .4.8v.1h-.2c0-.3-.2-.6-.3-.8l.1-.1zm1 2.4a.3.3 0 0 1 .4 0 6.4 6.4 0 0 1 .8 1 .3.3 0 0 1-.3.5 1 1 0 0 1-1-1.5zm116.3-25.6c.6-.1 1-.6 1.6-.8 3.2-1.2 6.3-3.4 9.7-4 1.1-.3 5.3-1 6-1.6a1 1 0 0 0-.4-1.2.5.5 0 0 0-.1 0 .1.1 0 0 0-.1 0c-3 .6-6 1-8.5 2.2-2 1-3.8 2.2-5.7 3.2a11.7 11.7 0 0 1-2.6 1.9.1.1 0 0 0 0 .3zm2.8-10.8a.4.4 0 0 0-.2 0c-3.2 1.2-6 3.5-8.6 5.6l-1.8 1.2a.3.3 0 0 0 .4.6l4.7-2.8 1.6-1.2h.1c1.3-.7 3.3-1.4 4.3-2.5a.4.4 0 0 0 .1-.3.7.7 0 0 0-.6-.6zm20.7 7.5a.7.7 0 0 0-.4-.9l-.4-.1a.8.8 0 0 0-.2 0h-2.8-.2l-5.5 1.2c-3 1-5.8 2.5-8.6 3.6-2.1.9-6.2 2.2-7.7 3.9a1 1 0 0 1-.1 0l-.1.1c1.7.2 4.2-2 5.9-2.6 2.7-.9 5.2-1.4 8-2.3a33 33 0 0 1 4.8-1.6c.8 0 5.5-.6 6.9-1a.7.7 0 0 0 .4-.3zm-28.2-6.4a34.4 34.4 0 0 0-9.7 7.1l-1.3 1.2a.3.3 0 0 0 .3.4l1.9-1.7c1.8-1.5 8.2-4.4 9.2-6.6a.3.3 0 0 0-.4-.4zm34.6 12.3a.6.6 0 0 0-.4-.9l-.6-.2a.8.8 0 0 0-.2 0l-4.7-.4a28.8 28.8 0 0 0-5.7.6.6.6 0 0 0 .2 1.2 58.2 58.2 0 0 1 8.4 0c1.2 0 2.4.7 3-.3zm-92-21.8l.1-.1a.2.2 0 0 0 0-.3l-.4-.3a.2.2 0 0 0-.3.3l.3.4a.2.2 0 0 0 .3 0zm-1.2-.4a.3.3 0 0 0-.5.2v.2a.3.3 0 0 0 .3.3 1.5 1.5 0 0 0 .3 0 .3.3 0 0 0 .2-.4.8.8 0 0 0-.3-.3zm-1.2.3l-.3-.2a.3.3 0 0 0-.2 0l-.7.3a.3.3 0 0 0-.2.3.5.5 0 0 0 .2.3.3.3 0 0 0 .3 0l1-.2a.3.3 0 0 0 0-.5zm6.6 2.5l-.6.2a.2.2 0 0 0 0 .3l.4.2a.2.2 0 0 0 .2 0 1.4 1.4 0 0 0 .2-.6.2.2 0 0 0-.2-.2zm-1.6.6l-.6.2a.2.2 0 0 0 0 .4l.3.1a.2.2 0 0 0 .3 0l.2-.4a.2.2 0 0 0-.3-.3zm85.2 23.4l6.6 1.1c1 .1 1.6.6 2.4.7a.2.2 0 0 0 .2-.1l.1-.2a.7.7 0 0 0 .1-.7c-.2-.7-1.7-1-2.7-1.2l-2.1-.2c-1.5 0-3.1 0-4.6.2a.2.2 0 0 0 0 .4zM151 63.3a92.8 92.8 0 0 0-16 7.5c-2.4 1.4-5.3 2.9-7.1 5.1a1.2 1.2 0 0 1 0 .2c1.4 0 4.7-2.7 6-3.5 4.6-2.6 9-5.5 14-7.2 2-.7 8-1.9 9.3-3.1v-.1h-.2c-2 .5-4 .5-6 1.1zM81.4 44l-1.6.4a.2.2 0 0 0-.2.1.3.3 0 0 0 .2.4 2 2 0 0 0 1.8-.5.2.2 0 0 0-.2-.4zm11.4 3.3a.3.3 0 0 0-.2 0 12.6 12.6 0 0 0-2 1.2.3.3 0 0 0 0 .5c.8.3 1.6-.6 2.3-1a.3.3 0 0 0 .1-.1v-.1c0-.2 0-.3-.2-.5zm70.9 19c.5 1 2.4.5 3 .3v-.2a1.2 1.2 0 0 1 0-.2l-1-.3c-.8.1-1.5 0-2 .4zM89.6 49.3l-.3-.2a.2.2 0 0 0-.3 0 1.4 1.4 0 0 0-.2.4.2.2 0 0 0 0 .1v.1a.2.2 0 0 0 .3.2l.4-.2a.2.2 0 0 0 0-.4zm-1.7.5a.5.5 0 0 0-.3 0 6.4 6.4 0 0 0-1.7.6.4.4 0 0 0-.1.5.4.4 0 0 0 .5.3 4.9 4.9 0 0 0 1.8-.9.4.4 0 0 0 0-.4l-.2-.1zm87.8 22.1l-3-.6-4.6-.3a.2.2 0 0 0 0 .3 55.8 55.8 0 0 1 9.4 2.7l4.5 2.1a.2.2 0 0 0 .3 0l.2-.9c-.3-1.2-5-2.9-6.8-3.3zm-9.4-1l-1-.3-3.7-.1-5 .6-.2.3 9.8-.3V71zM84.8 51a.7.7 0 0 0-1 .5v.3a.2.2 0 0 0 .1.2 3.1 3.1 0 0 0 1.1-.3.2.2 0 0 0 .2-.2c0-.3-.1-.3-.4-.5zm53.3 14.7l1.2-.9h-.3a2.8 2.8 0 0 0-1.3.6l-.2.2a1.2 1.2 0 0 1 0 .1h.6zm-36.8-10a.4.4 0 0 0-.2 0 4 4 0 0 0-1.2.8.3.3 0 0 0 0 .3l.1.2a.3.3 0 0 0 .2 0 2.3 2.3 0 0 0 1.2-1 .3.3 0 0 0-.1-.4zM82.8 52l-.2-.1a.3.3 0 0 0-.2 0c-1.4.7-3.5.6-4.6 1.8a.4.4 0 0 0 0 .2.4.4 0 0 0 .3.4c1.8-.3 3-1.4 4.6-1.7a.2.2 0 0 0 .1 0v-.1a.3.3 0 0 0 0-.5zm53.8 14a660 660 0 0 1-4.2 2.3c-2.4 1.9-5 3.5-7.4 5.4-1.5 1.1-4 2-5 4a19.4 19.4 0 0 0 4-2.8l8-5.6c1-.7 4.3-2.3 4.6-3.3zm17.1 5.7h1a.2.2 0 0 0 0-.4h-.2l-.8.1a.1.1 0 0 0 0 .3zM98.1 58a5.4 5.4 0 0 0-1.8 1.4.2.2 0 0 0 .3.4 3.6 3.6 0 0 0 1.9-1.5.2.2 0 0 0-.4-.3zm78 19.8l-3.6-.8a.2.2 0 0 0 0 .3l1.8.7 5 2.2c1.5.9 3.4 2.5 5.1 2.7a.2.2 0 0 0 .2-.1c.2-.6.2-.7.1-1-.4-1.4-6.1-3.5-8.6-4zM146 74c2-.7 4.8-.9 6.5-2.1h-.2l-4.8 1c-2.6.9-5 2-7.5 3.1-1.7.8-3.8 1.4-5.2 2.8 1.2-.1 2.3-1 3.3-1.4l7.9-3.4zm22.2 2.2a1.7 1.7 0 0 1 .3 0l-1.8-.5-2.6-.2h-7a63.4 63.4 0 0 0-28.9 10.9c-2.3 1.8-5.3 3-7.4 5.2 1.4-.3 5.3-3 6.5-4a50 50 0 0 1 9.4-5.3l6.5-3.2c3.9-1.3 8.4-1.8 12.6-2.4l1.9-.7h7.6l2.9.2zM94.2 61a.2.2 0 0 0-.2 0 12 12 0 0 0-3.9 2.7.2.2 0 0 0 .2.4c1.4-.2 3.2-1.9 4-2.8a.2.2 0 0 0-.1-.3zm82.1 22.8c-.8-1.5-4.9-2.2-7-2.7l-3.1-.5a55.6 55.6 0 0 0-7.2-.2l-.2.2c.6.8 3.9.5 4.8.6l3.9.7a28.7 28.7 0 0 1 8.8 2zm1 .6a72.9 72.9 0 0 0 8 5.2h.4c.2-.4.4-.6.2-1-.6-2-6-3.3-8.4-4.3a1.1 1.1 0 0 1-.1 0zm-26-3.5a46.6 46.6 0 0 0-10.1 3.4l-.1.2c1.6 0 3.2-.8 4.6-1.2l10.8-2.2.2-.3-1-.2-4.3.3zm20.5 6.5a8.8 8.8 0 0 0-3.6-1.4 23 23 0 0 1-3.2-.3l-.3.3 6.8 1.5zm2.2.6h-.3a1.2 1.2 0 0 0-.1.2c2 2 6 3.2 8.7 4.7 1 .6 1.6 1.6 3 2l.4-.4c.7-1-1.2-2-1.9-2.5a30.6 30.6 0 0 0-9.8-4zM161.7 85c-1 .2-2 0-2.8.1l-.2.3a9.9 9.9 0 0 0 3.9.3h.2a1.2 1.2 0 0 1 0-.2 92 92 0 0 1-1.1-.5zm-33-2c1.1-1 2.9-1.5 3.7-2.8h-.2c-4.2 2-9.9 5.2-13 8.8l.1.2a87.4 87.4 0 0 0 9.4-6.3zm-9.8-4.9l-.8.5v.3c.3 0 .5-.2.8-.4v-.4zM170 92.1a1.2 1.2 0 0 0 .1-.2 20.5 20.5 0 0 0-4.4-1.3l-4.6-.3c.3.4 7.4 1.5 9 1.8zm1.6.4c0 .4 2 1.2 2.7 1.6 2.4 1.6 5.5 2.6 7.3 4.4.6.6 1.5 2 2.5 2a.7.7 0 0 0 .5-.4l.2-.5c-2-3.5-7.6-5.8-13.2-7.1zM158.4 90a1.3 1.3 0 0 0 1.3.1h.3V90l-.3-.3h-1l-.2.3zm-29.3-.3c-6.6 3-12.2 8-18 12.4l-2.5 1.6-6.6 6c-1.3 1-2.9 1.8-3.8 3.4v.4c1.3 0 2.6-1.7 3.5-2.4l8-6.8A147.6 147.6 0 0 1 139 85.6v-.3l-.4-.1c-3.7 1.1-6.3 3.1-9.5 4.6zm14.7 2.4a40.3 40.3 0 0 1 8-1.6l5.5-.4h.1l-.6-.2-2.5-.1-5.8.5c-6.1 1-11.8 3.4-17.1 5.9-2 .9-5.5 2.4-6.9 4.1v.1a1.2 1.2 0 0 0 .1.1 95 95 0 0 1 19.2-8.4zm26.7 5c-.8-1-3.3-1.3-4.8-1.6l-3.2-.5-8.6-.3a58.2 58.2 0 0 0-17 3.1c-2.2.9-4.4 2-6.5 3-1.7.8-5 2.2-6.2 3.6l-.3.2c2.1-.3 4.1-2 6-3a86.4 86.4 0 0 1 11.3-4.5l4.5-.5 3.8-.9c3.9-.5 8.4 0 12.6.3 2.7.1 5.7 1.5 8.2 1.6a1.2 1.2 0 0 1 .2 0v-.5zm1.2.2l-.2.3c.7.8 2 1 3 1.7a60.8 60.8 0 0 1 6 3.7c.8.5 2 2 3 2a.9.9 0 0 0 .4-.4v-.6a30 30 0 0 0-12.2-6.7zm.5 6.6a1.2 1.2 0 0 1 .1 0v-.9c-.5-1-5.7-2.2-7.5-2.6l-6-.8c-4.2-.1-15-.1-17.5 1.9a1.2 1.2 0 0 1 0 .1l5.5-.7a97 97 0 0 1 11.7-.4 30.3 30.3 0 0 1 9.9 2.1 14.8 14.8 0 0 0 3.8 1.3zm3.3 1.8l5.4 3.6h.8l.3-.8c-1-1.8-6.1-3.8-9-4.6.2.8 1.7 1.3 2.5 1.8zm-57-12.2l-3.3 2.5a1.3 1.3 0 0 0-.8.6c.9 0 3.8-2.5 4-3.1zm48.5 13.3l.3-.3-.3-.5-1.7-.5-5.7-1.2-8.1-.2a48.7 48.7 0 0 0-7.6.6l-5 1.2-.2.2a60 60 0 0 0 6-.7 68 68 0 0 1 14.2 0c2.7.2 5.6 1.7 8.1 1.4zm10.5 4c-2-1-4.5-2.6-7.3-3.3-.7 0-1.3-.2-2-.3v.3c1.6.7 2.9 1.6 4.3 2.4 2 1 3.8 1.7 6 2.9.5.2.7.7 1.5 1l.4-.3.1-.5c-.2-1.1-2-1.6-3-2.1zm-42.3-7c1.3-.4 3.4-.6 4.2-1.7l-.6-.3a69 69 0 0 0-24.3 12.3l-3.2 1.8-2 1.8c-1.4 1.1-6.9 4.6-7.3 6.2l.4.2c3-1.8 5.7-4.3 8.4-6.5a67.8 67.8 0 0 1 13.2-8.3l3.4-2.2 7.8-3.3zm29 6.7l-3.8-.4a.6.6 0 0 0-.2.5l6.5 1.6.3-.4a2.2 2.2 0 0 1 0-.2 6 6 0 0 0-2.8-1.1zm-5.6.1l.3-.1v-.3a6.7 6.7 0 0 0-2-.8h-1.6l-.3.3a7.6 7.6 0 0 0 3.6 1zm9.4 1.6l-.5.2v.3a6.9 6.9 0 0 0 3 1.4c.8-1.1-1-1.6-2.5-1.9zm-29.8-.8l3-.4c3.7-.6 8-.8 12-1.2l.2-.1v-.1l-1-.4h-4.6a70.3 70.3 0 0 0-7.1 1.2l-4 .4a91.4 91.4 0 0 0-12.5 4.8c-2 .8-3.8 2.2-5.8 3l-4.1 3a65.3 65.3 0 0 0-8.3 5.7c-.9.7-2.3 1-2.7 2.5l.1.2c1.4 0 4.3-2.7 5.4-3.6 2.1-1.7 4.6-3 6.8-4.6l4.3-2.7 4.7-2.2 3.2-2c3.3-1.4 7-2.4 10.4-3.5zm33 2.5c0 .8 5.2 4.3 6.5 4.3l.4-.4v-.6c-1-1.1-5-2.9-7-3.3zm-45.8-2.3h.2l12-4.9.1-.2h-.4c-2.8.8-10.5 2.8-11.9 5zm37.7 3.2l-8-1H145c-2.1.3-4.4.9-6.4 1.1l-.2.2 8.5-.6 8 .2 5 .8c3 .3 5.8 1.7 8 2.8 1 .5 2 1.4 3 .9l-.1-1.2c-1-1.2-5.5-2.7-7.6-3.2zm-40.6-9.2h-.3c-1.2.7-3 1.4-4 2.6a1.3 1.3 0 0 0-.8.6 14 14 0 0 0 5.1-3.2zm52.2 16.2a1.2 1.2 0 0 0 .6-.8 7.4 7.4 0 0 0-3.5-1.7c-.7.8 1.8 2.3 3 2.5zm-14.7-1a.2.2 0 0 0 .1-.4c-.4-.8-1.8-1-3-1.2l-4.5-.6c-3.4-.1-7.7-.4-10.9.1a77.7 77.7 0 0 0-10.4 2.3l-6.9 2.8a.2.2 0 0 0 .1.5c2.3-.5 4.5-2 6.7-2.6a50.8 50.8 0 0 1 16.9-2.1c2.8 0 5.3.6 8.3.8 1.4.2 2.8.9 3.6.3zm10.6 3a30 30 0 0 0-8-2.8l-.7-.1a.2.2 0 0 0-.2.1.2.2 0 0 0 .1.3l3.8 1.5c2 1 4.1 2.7 6.2 3.2a.2.2 0 0 0 .1 0 1.1 1.1 0 0 0 .5-.5c.5-1-1-1.3-1.8-1.8zm-35-7.7l.7-.5a2 2 0 0 0-1 0c-3 .8-8.6 2-10.2 4a.1.1 0 0 0 0 .3l10.5-3.8zm15.5 8c1.9 1 5 .6 7.7 1.7 1.3.6 3.9 2 5.3 2 .4 0 .3 0 .7-.5a.2.2 0 0 0 0-.2c-.6-1.1-4-2.2-6-2.7l-2.2-.5c-2-.2-4.1-.8-5.5 0a.2.2 0 0 0 0 .3zm-1.8-1l-1.8-.3h-4.2a57.1 57.1 0 0 0-13.9 3c-1.7.6-4.2 1-5.4 2.4a.1.1 0 0 0 0 .3l10.4-3.5a39.2 39.2 0 0 1 7.7-1c1.1 0 7.2.7 7.8.2l.3-.7a.1.1 0 0 0 0-.1l-1-.3zm19.6 5.6a4.3 4.3 0 0 0-2.6-1.2.4.4 0 0 0-.5.4.4.4 0 0 0 0 .3 4.5 4.5 0 0 0 2.6 1.5.4.4 0 0 0 .3-.1.8.8 0 0 0 .3-.4.5.5 0 0 0 0-.5zm-6.5 2.4l-2.6-.6c-2-.5-7.1-2-8.9-1.6a.3.3 0 0 0 0 .5c.6.4 1.9.2 2.8.6a52 52 0 0 0 10.6 3.2c.3 0 .3 0 .5-.3a.7.7 0 0 0 0-.7c-.1-.7-1.4-1-2.4-1.2zm-12.5-2.4l-.6-.3a.3.3 0 0 0-.2 0h-2.2a.4.4 0 0 0-.3.6c.5.8 2.5.6 3.3.4a.4.4 0 0 0 .3-.3.4.4 0 0 0-.3-.4zm-5.2-.5c-4.8 1.1-10.1.5-14.7 1.9a97.6 97.6 0 0 0-13.2 5L114 137a35.5 35.5 0 0 0-6.8 4.2c-.7.5-1.6.7-2.2 1.4l-.2.5a.3.3 0 0 0 .3.3c3.6-1 6.4-4.4 9.7-6 6-2.7 11.9-5.9 18.7-7.3l9.2-.3c.8 0 2.6.1 2.5-1 0-.3-.2-.4-.6-.5zm-22-3.5h.1zm-.8.3h-.3a.1.1 0 0 0-.1 0 15.8 15.8 0 0 0-3.1 1.9.1.1 0 0 0 0 .2 14 14 0 0 0 3.5-1.8.1.1 0 0 0 0-.2zm29.3 17.7l-.6-.2a.7.7 0 0 0-.2 0l-1.8-.3a17.8 17.8 0 0 0-4 .4.2.2 0 0 0 0 .3c1.3.5 6.1 1.5 6.7 1.2a.6.6 0 0 0 .3-.2.8.8 0 0 0-.4-1.2zm-24.4 2l1.7-.2a72 72 0 0 1 9.7-1.6.8.8 0 0 1 .3 0l2.3.2 1.9-.2a.4.4 0 0 0 0-.7l-1.8-.6a1.6 1.6 0 0 0-.3 0l-1.7-.2-3.7.4-2.4 1c-2.8.8-5.8 1-8.5 2-1 .3-4 1.2-5 2a.1.1 0 0 0 .1.3c2.4-.5 4.6-1.7 7-2.4a1 1 0 0 1 .4 0zm18.6 2a3 3 0 0 0-1.5-.6l-3.6-.3a35.1 35.1 0 0 0-6.3.5l-6.6 1.7-2.3.9a.2.2 0 0 0 0 .3c.8.3 2.8-.4 3.5-.6a45.4 45.4 0 0 1 11.3-1.1c1 0 4.1.6 5.3.3a.6.6 0 0 0 .4-.4.6.6 0 0 0-.2-.7zm-27.2.8h-.1a.1.1 0 0 0-.2 0v.3a.1.1 0 0 0 .3 0v-.2zm-1.2.4a.2.2 0 0 0-.3 0l-.8.5a.2.2 0 0 0 0 .3.2.2 0 0 0 .2 0l.9-.4a.2.2 0 0 0 0-.4zm13.8 8.6h-.1a.7.7 0 0 0-.4-.1l-4.4.6c-1.4.4-2.6 1.2-4 1.6-1.6.6-3.3 1-5 1.4a27.5 27.5 0 0 0-3.2 1.6c-3.3 1.5-6.6 2.7-9.5 4.9a.5.5 0 0 0-.2.3.4.4 0 0 0 .5.5c1.7-.5 2.8-1.7 4.3-2.4a80.3 80.3 0 0 1 9.3-4l8.5-2.4c1.2-.2 3.1 0 4.2-.6a.8.8 0 0 0 .4-.5.8.8 0 0 0-.4-.9zm-12.2 7.7l-1.9-.3c-3.1.3-6.1 2.3-8.5 4-1 .8-2.2 1-2.8 2.3a57.5 57.5 0 0 0 8.5-3.8c1.7-.9 3.3-.9 4.7-2v-.2z" fill="#ff8740" fill-rule="evenodd"/>
</svg>
