<svg xmlns="http://www.w3.org/2000/svg" viewBox="0 0 512 512">
    <symbol id="logo-facebook"><path d="M426.8 64H85.2C73.5 64 64 73.5 64 85.2v341.6c0 11.7 9.5 21.2 21.2 21.2H256V296h-45.9v-56H256v-41.4c0-49.6 34.4-76.6 78.7-76.6 21.2 0 44 1.6 49.3 2.3v51.8h-35.3c-24.1 0-28.7 11.4-28.7 28.2V240h57.4l-7.5 56H320v152h106.8c11.7 0 21.2-9.5 21.2-21.2V85.2c0-11.7-9.5-21.2-21.2-21.2z"/>
    </symbol>
    <symbol id="logo-twitter"><path d="M492 109.5c-17.4 7.7-36 12.9-55.6 15.3 20-12 35.4-31 42.6-53.6-18.7 11.1-39.4 19.2-61.5 23.5C399.8 75.8 374.6 64 346.8 64c-53.5 0-96.8 43.4-96.8 96.9 0 7.6.8 15 2.5 22.1-80.5-4-151.9-42.6-199.6-101.3-8.3 14.3-13.1 31-13.1 48.7 0 33.6 17.2 63.3 43.2 80.7-16-.4-31-4.8-44-12.1v1.2c0 47 33.4 86.1 77.7 95-8.1 2.2-16.7 3.4-25.5 3.4-6.2 0-12.3-.6-18.2-1.8 12.3 38.5 48.1 66.5 90.5 67.3-33.1 26-74.9 41.5-120.3 41.5-7.8 0-15.5-.5-23.1-1.4C62.8 432 113.7 448 168.3 448 346.6 448 444 300.3 444 172.2c0-4.2-.1-8.4-.3-12.5C462.6 146 479 129 492 109.5z"/>
    </symbol>
    <symbol id="icon-press-release"><path d="M464 64H192c-8.8 0-16 7.7-16 16.5V112H74c-23.1 0-42 18.9-42 42v207.5c0 47.6 39 86.5 86 86.5h279.7c45.1 0 82.3-36.9 82.3-82V80c0-8.8-7.2-16-16-16zm-288 80v192h-42V163.2c0-6.8-.8-13.3-3.3-19.2H176zm-17 255.4C148 410 133.2 416 118.5 416c-14.5 0-28.1-5.7-38.5-16-10.3-10.3-16-24-16-38.5V163.2c0-10.6 8.4-19.2 19-19.2s19 8.6 19 19.2V352c0 8.8 7.2 16 16 16h57.5c-1.5 11.6-7.2 22.6-16.5 31.4zM448 366c0 13.3-5.4 25.8-14.9 35.3-9.5 9.5-22.2 14.7-35.4 14.7H187.3c12.8-14.9 20.7-33.9 20.7-54.5V97h240v269z"/><path d="M248 136h160v56H248zM248 224h160v32H248zM248 288h160v32H248zM408 352H248s0 32-8 32h148.7c19.3 0 19.3-21 19.3-32z"/></symbol>
    <symbol id="icon-mail"><path d="M460.6 147.3L353 256.9c-.8.8-.8 2 0 2.8l75.3 80.2c5.1 5.1 5.1 13.3 0 18.4-2.5 2.5-5.9 3.8-9.2 3.8s-6.7-1.3-9.2-3.8l-75-79.9c-.8-.8-2.1-.8-2.9 0L313.7 297c-15.3 15.5-35.6 24.1-57.4 24.2-22.1.1-43.1-9.2-58.6-24.9l-17.6-17.9c-.8-.8-2.1-.8-2.9 0l-75 79.9c-2.5 2.5-5.9 3.8-9.2 3.8s-6.7-1.3-9.2-3.8c-5.1-5.1-5.1-13.3 0-18.4l75.3-80.2c.7-.8.7-2 0-2.8L51.4 147.3c-1.3-1.3-3.4-.4-3.4 1.4V368c0 17.6 14.4 32 32 32h352c17.6 0 32-14.4 32-32V148.7c0-1.8-2.2-2.6-3.4-1.4z"/><path d="M256 295.1c14.8 0 28.7-5.8 39.1-16.4L452 119c-5.5-4.4-12.3-7-19.8-7H79.9c-7.5 0-14.4 2.6-19.8 7L217 278.7c10.3 10.5 24.2 16.4 39 16.4z"/></symbol>
    <symbol id="icon-download"><path d="M376 144H269v179.9l47.9-47.2c5.1-5 13.3-5 18.4.1 5 5.1 5 13.3-.1 18.4l-70 69c-2.5 2.4-5.8 3.7-9.1 3.7-1.7 0-3.4-.3-5-1-1.5-.6-2.9-1.6-4.1-2.7l-70-69c-5.1-5-5.2-13.3-.1-18.4 5-5.1 13.3-5.2 18.4-.1l47.9 47.2V144H136c-22 0-40 18-40 40v240c0 22 18 40 40 40h240c22 0 40-18 40-40V184c0-22-18-40-40-40zM269 61c0-7.2-5.8-13-13-13s-13 5.8-13 13v83h26V61z"/></symbol>
    <symbol id="icon-share"><path d="M383.822 344.427c-16.045 0-31.024 5.326-41.721 15.979l-152.957-88.42c1.071-5.328 2.142-9.593 2.142-14.919 0-5.328-1.071-9.593-2.142-14.919l150.826-87.35c11.762 10.653 26.741 17.041 43.852 17.041 35.295 0 64.178-28.766 64.178-63.92C448 72.767 419.117 44 383.822 44c-35.297 0-64.179 28.767-64.179 63.92 0 5.327 1.065 9.593 2.142 14.919l-150.821 87.35c-11.767-10.654-26.741-17.041-43.856-17.041-35.296 0-63.108 28.766-63.108 63.92 0 35.153 28.877 63.92 64.178 63.92 17.115 0 32.089-6.389 43.856-17.042l151.891 88.421c-1.076 4.255-2.141 8.521-2.141 13.847 0 34.094 27.806 61.787 62.037 61.787 34.229 0 62.036-27.693 62.036-61.787.001-34.094-27.805-61.787-62.035-61.787z"/></symbol>
    </svg>