<svg xmlns="http://www.w3.org/2000/svg" viewBox="0 0 251.682 208.215">
  <defs>
    <style>
      .c{fill:#ffaf80}
    </style>
    <linearGradient id="a" x1="0.716" y1="0.823" x2="0.731" y2="1.011" gradientUnits="objectBoundingBox">
      <stop offset="0" stop-color="#fff"/>
      <stop offset="1" stop-color="#fff" stop-opacity="0"/>
    </linearGradient>
    <linearGradient id="b" x1="0.689" y1="0.866" x2="0.721" y2="0.978" gradientUnits="objectBoundingBox">
      <stop offset="0" stop-color="#ff5f00"/>
      <stop offset="1" stop-color="#f5620b" stop-opacity="0"/>
    </linearGradient>
  </defs>
  <path d="M189.4 208.2l4.4-1.8q-1.6 1-3.3 1.8zm-79.2 0l3-1.2c8.9-3.8 17.8-8.2 27.9-12.3l29.2-12.1c10.7-4.4 20.8-8.1 29-11.5 7.8-3.2 13.6-5.3 17.7-6.9a22 22 0 0 1 6-2l-6 2.8-17.7 7.7-28 12.2-28.7 12-27.2 11.3zm-24.7 0l-1-.5 20.7-8.3 28.5-11.9 17.1-6.9c3.6-1.5 5.4-2.1 5.5-2s-1.4 1-5 2.5l-16.7 7.3-28.8 12c-6.8 2.9-13.1 5.4-19 7.8zm53-.9s-.3-.2-.1-.3c1.3-1.1 4-2 6-2.8l6.3-2.9 6.4-2.8 6.4-2.6c2.1-.9 4.2-2 6.5-2.8 2.2-1 4.5-1.7 6.6-2.6 2.2-1 4.4-1.8 6.5-2.6 2.4-.9 4.7-1.7 6.6-2.6l6.6-2.6c3.8-1.3 6.2-2 6.3-1.8.2.2-1.8 1.3-5.5 3-2 1-4.2 1.6-6.2 2.5l-7 3.3-8.4 3.5c-5 2-9.7 4.1-14.7 6.2-5.2 2.1-10.6 4-15.8 5.9a47.2 47.2 0 0 1-6.2 2zm-65.8-6.8l.4-.2c2.7-1 3-.8 5.7-1.9s2.7-1.3 5.4-2.4l5.5-2 5.6-2.1c2.8-1.1 2.7-1.4 5.4-2.4l5.5-2.2 5.4-2.3c2.8-1.1 3-.9 5.7-2 2.8-1 2.7-1.3 5.4-2.4l5.5-2.1c.8-.3 1.2 0 1 .2a.9.9 0 0 1-.4 1l-5.4 2.4c-2.7 1-2.8 1-5.5 2.2-2.7 1-2.7 1.2-5.4 2.4-2.9 1.2-3 .8-5.7 2l-5.4 2.4-5.4 2.5c-2.7 1.2-2.5 1.4-5.2 2.6l-5.4 2.4-5.4 2.5a36.2 36.2 0 0 1-4.2 1.4l-3-2zm-10-7.8l2-.8c2-.8 1.8-1 3.8-1.7l3.9-1.5c1.9-.8 2-.6 3.9-1.3s1.8-1 3.7-1.7l3.7-1.6a32.3 32.3 0 0 0 3.8-1.5c2-.8 1.8-.9 3.7-1.7l3.8-1.6a31.5 31.5 0 0 0 3.7-1.6l4-1.3a31 31 0 0 0 3.5-1.8 34.2 34.2 0 0 0 3.9-1.3c2-.8 1.8-1 3.7-1.7a35 35 0 0 0 4-1.4l3.7-1.5c2-.8 1.8-1 3.7-1.7l4-1.5 3.8-1.4 3.7-1.6c2-.7 1.8-.8 3.8-1.7l3.9-1.4c1.9-.7 1.8-1 3.6-1.7a33.5 33.5 0 0 0 3.7-1.6l3.8-1.5c1.9-.7 1.8-.8 3.7-1.6a33.3 33.3 0 0 0 3.7-1.6c2-.7 2-.6 4-1.5 1.9-.7 1.7-.8 3.7-1.7a33 33 0 0 0 3.7-1.5l4-1.5a33.3 33.3 0 0 0 3.6-1.6l3.8-1.5c2-.8 1.8-.9 3.7-1.7a34.2 34.2 0 0 0 4-1.3l3.8-1.5a31.2 31.2 0 0 0 3.6-1.8l4-1.3 3.6-1.7c2-.8 1.8-.9 3.8-1.6l3.7-1.5 3.8-1.5a32.4 32.4 0 0 0 3.7-1.6l4-1.4 3.6-1.5a33.1 33.1 0 0 0 3.8-1.6l3.7-1.5c.5-.3 1-.3 1.2 0 .8.3.8 1 .2 1.2l-3.8 1.5-3.7 1.7a32.5 32.5 0 0 0-3.7 1.6l-4 1.5a32 32 0 0 0-3.7 1.5c-2 .8-1.8.9-3.7 1.7-2 .7-1.8.9-3.8 1.6l-3.9 1.3c-2 .7-1.7.9-3.7 1.7-2 .7-1.8 1-3.6 1.7a35.2 35.2 0 0 0-3.9 1.3l-3.7 1.6c-2 .7-1.8 1-3.6 1.8-2 .7-2 .6-4 1.5-1.7.8-1.9.8-3.7 1.5l-3.8 1.5c-2 .7-1.8 1-3.8 1.7s-1.8.8-3.7 1.7c-2 .7-2.1.5-4 1.2s-1.9.8-3.8 1.7c-2 .7-1.8 1-3.8 1.7a33.3 33.3 0 0 0-3.7 1.5c-2 .8-1.8.9-3.7 1.7s-2.1.5-4 1.2-1.9 1-3.8 1.7c-1.8.9-2 .9-3.8 1.6l-3.7 1.6-3 1.2a4.4 4.4 0 0 1-.6.3l-6.7 2.8c-3.5 1.3-3.3 1.6-6.6 3s-3.5 1.3-6.8 2.7c-3.4 1.3-3.4 1.3-6.7 2.8l-6.6 2.9c-3.4 1.3-3.4 1.3-6.7 2.8s-3.2 1.7-6.5 3.1-3.6 1-6.8 2.5l-6.6 3-6.6 2.8-2.1 1-2.7-2.3zm134.4 1.6a11.7 11.7 0 0 1 1.5-.7 38 38 0 0 0 3.9-1.7l10.6-4.5 9.5-4-1.3 1.4-9.6 4-9.8 4a25.4 25.4 0 0 1-4.8 1.5zm-141.8-8.8l1.2-.5 8.5-3.3c4.2-1.7 4-2.2 8.1-3.8l8.5-3.3 8.7-3.4 8.7-3.5 8.7-3.4c4.3-1.8 4.2-2 8.5-3.7 4.4-1.8 4.4-1.7 8.9-3.4l8.6-3.4c4.4-1.8 4.2-2 8.6-3.7s4.5-1.6 8.8-3.4 4.2-2 8.5-3.8c4.4-1.8 4.5-1.4 8.9-3.1l8.7-3.6c4.4-1.8 4.1-2 8.5-3.8 1.2-.5 2.5-.7 2.7-.5.9.3-.2.9-1.4 1.4l-8.6 3.6c-4.3 1.8-4.2 2-8.4 4l-8.7 3.6-8.7 3.5c-4.3 1.8-4.2 2-8.5 3.7l-8.9 3.5-8.6 3.7c-4.4 1.8-4 2.2-8.4 4-4.4 1.9-4.5 1.7-8.9 3.5s-4.1 2.1-8.3 4l-8.7 3.7c-4.4 1.8-4.5 1.6-8.9 3.4-4.1 1.8-4 2-8.2 3.7-4.2 1.7-4 2-8.2 3.7s-4.4 1.4-8.5 3.2l-.4.2-2.8-2.8zm-6.7-7.7l.7-.3 11-4.5 10.7-4.6c5.4-2.3 5.6-2 11-4.2s5-2.7 10.4-5c5.4-2.1 5.6-2 11-4.2 5.5-2.2 5.6-2 11.2-4.3l11.2-4.6 11.2-4.5c5.7-2.3 5.6-2.5 11.1-4.8 5.6-2.2 5.7-2 11.2-4.4 5.6-2.2 5.7-2 11.3-4.3 5.5-2.2 5.5-2.5 11-4.8 5.6-2.1 5.7-2 11.3-4.3 5.7-2.3 5.5-2.5 11-4.8s5.9-2 11.4-4.3l11.3-4.6 11-4.7c1-.5 3.2-1.2 3.5-1.3l7.2-3a284.4 284.4 0 0 1 3-1l-2.9 1.2-7.3 3c-.3 0-2.3 1-3.3 1.5l-11 4.7c-5.6 2.3-5.5 2.5-11 5l-11.2 4.7c-5.5 2.3-5.7 2.1-11.3 4.6l-11 4.8c-5.6 2.3-5.7 2-11.3 4.5s-5.5 2.4-11 4.7c-5.6 2.4-5.3 2.8-10.8 5.2-5.6 2.3-5.9 2-11.4 4.3s-5.4 2.7-11 5.1l-11 4.7c-5.5 2.4-5.9 2.2-11.4 4.5l-10.6 4.7-10.7 4.7c-5.4 2.3-5.5 2-10.9 4.3l-10.6 4.7-10.6 4.5-2.4-3zm162.4 0c-.2-.3 4-2.5 8.4-4.3l4.6-2a13.9 13.9 0 0 1 4.2-1c.1.2-3.7 2.3-8 4.2a51.7 51.7 0 0 1-9.1 3 .2.2 0 0 1-.1 0zm-71.4-3.2c-.2-.3-.2-.7.1-.9a31.2 31.2 0 0 1 3-1.3 32 32 0 0 1 3.2-1c1.3-.7 1.2-1 2.7-1.5l3-1.2c1.3-.6 1.3-.8 2.8-1.4a20.2 20.2 0 0 1 3-1 30.3 30.3 0 0 1 2.8-1.5l2.9-1.3c1.3-.6 1.5-.5 3-1.1s1.3-.9 2.8-1.5a21 21 0 0 1 3-1.3l3.2-1.2 3.1-1.2 3-1.2 3-1.2c1.6-.6 1.5-.9 3-1.5l3.1-1 3.2-1.3 3.1-1.2c1.5-.6 1.4-.8 2.9-1.4 1.5-.8 1.6-.6 3.1-1.2a17.9 17.9 0 0 0 2.9-1.1 27.8 27.8 0 0 1 2.8-1.1 27 27 0 0 1 2.8-1.1l2.7-1.3a20.6 20.6 0 0 0 3-.9 19 19 0 0 0 2.9-1 18.3 18.3 0 0 0 2.8-1.2l2.9-1.2a26.4 26.4 0 0 0 2.7-1.2c1.5-.6 1.6-.3 3-1a18.3 18.3 0 0 0 2.8-1 .7.7 0 0 1 .8.1s0 .5-.3.6l-2.9 1.2a28 28 0 0 1-2.8 1l-2.7 1.4-2.9 1.1a27.4 27.4 0 0 1-2.7 1.3c-1.5.6-1.3.8-2.7 1.4l-2.7 1.2-2.8 1.2-2.7 1.2c-1.3.6-1.5.4-2.8 1L204 149l-3 1.4-3.2 1.1c-1.5.6-1.3.9-2.8 1.5l-3.2 1c-1.5.8-1.3 1-2.8 1.6l-3.1 1.1c-1.7.7-1.5.9-3 1.5s-1.7.3-3.2 1l-3 1.1c-1.5.7-1.3 1-2.8 1.6l-3.2 1.1c-1.5.6-1.3.8-2.8 1.5l-3 1.2a30.2 30.2 0 0 0-3 1 30.6 30.6 0 0 0-3.2.9 30.6 30.6 0 0 0-3 1l-3 1.3c-1.5.6-1.3.8-2.8 1.4l-3 1.1c-1.5.6-1.3.8-2.8 1.4a30.3 30.3 0 0 0-3 1 .6.6 0 0 1-.2 0c-.4 0-.8-.3-1.3-.3zm-96.8-4.8l6.5-2.7c1-.4 1.5-.1 1.7.2.6 0 .7.8-.3 1.1l-6.8 3-1-1.6zm15.8-5.6c-.9-1.8 2.8-2 7.8-4.2 2.2-1 4.8-1.7 7.8-3l7.7-3.6c2.4-1 5.3-2 8-3.2l7.8-3.4c3.6-1.6 6.1-3.3 10-4.8l15.3-6c4.8-1.8 9-4 13.7-5.8 8-3.2 16.2-6.1 24.3-9.4 2.8-1 5.4-2.4 8-3.3 3-1.2 5.5-2.5 7.9-3.3 4.9-1.7 9.4-3.5 9.7-3s-4 2.5-8.8 4.7c-2.3 1-5 1.8-8 3.1l-7.8 3.5c-2.5 1-5 2.2-7.9 3.3l-8 3.2c-2.5 1.1-5 2.4-7.7 3.5-2.6 1.1-5.6 1.8-8.1 3s-5 2.3-7.8 3.4l-8 3.2c-4 1.7-7.4 3.5-11.6 5.2l-20 8-7.8 3-8 3.4c-3.9 1.4-6.4 3-7.7 3a.9.9 0 0 1-.8-.5zm-21.4-3.9l1.2-.5c5.4-2.3 5.5-2 11-4.3l10.8-4.5 10.8-4.6c5.4-2.3 5.6-2 11-4.2s5-2.7 10.4-5c5.4-2.1 5.6-2 11-4.2 5.5-2.2 5.6-2 11.2-4.3l11.2-4.6 11.2-4.5c5.7-2.3 5.6-2.5 11.1-4.8 5.6-2.2 5.7-2 11.2-4.4 5.6-2.2 5.7-2 11.3-4.3 5.5-2.2 5.5-2.4 11-4.7 5.6-2.2 5.7-2.1 11.3-4.4 5.7-2.3 5.5-2.5 11-4.8s5.9-2 11.4-4.3l11.3-4.6 11-4.7 3.5-1.3 6.3-2.6v.2c-2.8 1-3 1.2-6.3 2.5l-3.3 1.6-11 4.7c-5.6 2.3-5.5 2.5-11 5l-11.2 4.7c-5.5 2.3-5.7 2.2-11.3 4.6l-11 4.8c-5.6 2.3-5.7 2-11.3 4.5s-5.5 2.4-11 4.7c-5.6 2.4-5.3 2.8-10.8 5.2-5.6 2.3-5.9 2-11.4 4.3s-5.4 2.7-11 5.1l-11 4.7c-5.5 2.4-5.9 2.2-11.4 4.5l-10.6 4.7-10.7 4.7c-5.4 2.3-5.5 2-10.9 4.3l-10.6 4.7-10.8 4.6c-5.4 2.1-5.5 1.9-11 4.2l-.9.4-1.7-3zm159.9 1.1a11.8 11.8 0 0 1 1.5-.7 38.8 38.8 0 0 0 3.9-1.7l10.6-4.5 14.4-6 14.8-6a295 295 0 0 0 4.7-2l-.3.8-2.6 1.1a5746.6 5746.6 0 0 1-32.4 13.6l-9.8 3.8a25.3 25.3 0 0 1-4.8 1.6zM38.4 150.2c3.4-1.6 3.4-1.7 7-3.2l7.2-2.7 7.2-3 7.2-2.8 7.2-3 7.2-2.8c3.5-1.5 3.2-1.9 6.8-3.3s3.8-1.1 7.4-2.5 3.4-1.6 7-3.2c3.6-1.4 3.6-1.4 7-3 3.6-1.5 3.5-1.7 7-3 7.4-3 2.3.6 1 1l-7.2 3-7.2 2.9c-3.6 1.5-3.6 1.4-7 3-3.6 1.4-3.5 1.7-7 3.2-3.5 1.5-3.7 1.3-7.2 2.8-3.6 1.5-3.5 1.8-7 3.3-3.5 1.4-3.7 1.2-7.3 2.6s-3.3 1.9-6.9 3.4c-3.5 1.5-3.7 1.2-7.3 2.7s-3.6 1.3-7.2 2.9l-7 3a3.9 3.9 0 0 1-1.4.3c-1.2 0-1.9-.6.5-1.6zm-8.7-7.4c11.8-4.8 12-5.3 24.3-10.4 12.5-5.2 12.7-5 25.3-10.1l25.1-10.4a14 14 0 0 1 6-1.5l.1.1a44.4 44.4 0 0 1-4.6 2.5 1.3 1.3 0 0 0-.6.2l-.4.2c-8.3 3.5-16.7 6.6-24.9 10-12.6 5.3-12.4 5.5-25 10.7-12.4 5.1-12.7 5-24.8 10l-.5-1.3zm-2.9-10.4l1-.3c12-5.1 12.2-4.8 24.4-9.8s11.8-5.5 24-10.4 12.2-4.7 24.3-9.8l24.3-10 24-10c5.1-2 12-3.6.8 1.3-12 5.2-12 5.2-24.1 10.2l-24.2 10c-12.2 4.9-12.2 4.9-24.3 10l-24.2 10-24.3 10-1.3.5-.3-1.7zm211 1.6a1.2 1.2 0 0 1 .6-1l4.2-1.7c2.2-.8 2-1 4.2-2l3.2-1-.1.8a17.1 17.1 0 0 1-2.4 1.1c-2 1-2.2.9-4.3 1.7l-4 2a4.4 4.4 0 0 1-1.4.2zm-41.8-4.8c-.1-.3 1-.9 4-2.2l5.7-2.3 5.6-2.3c3.1-1.2 4.6-1.7 4.6-1.5a91 91 0 0 1-9.6 4.6c-2 .9-4.1 1.6-5.8 2.2a24.2 24.2 0 0 1-4.4 1.5zM25 122l11-4.6c8.4-3.5 8-4 16.6-7.4 8.4-3.5 8.8-3 17.2-6.4s8.4-3.8 16.8-7.3l16.9-7.1c8.5-3.5 8.2-3.9 16.8-7.2 17.5-6.7 4.6.6 1.6 2-8.4 3.5-8.7 3.4-17 7l-17 7-16.9 7.1c-8.4 3.5-8.2 3.9-16.6 7.5-8.4 3.5-8.7 3.2-17 6.7-6.5 2.7-8 3.6-12 5.4l-.4-2.7zm218.5-2.6l-.2-.1c-.1-.2.2-.4.8-.6l7.6-3.2-.1 1-7 2.8a2.5 2.5 0 0 1-.8.2.6.6 0 0 1-.3-.1zm-22.2-.9c-.1 0 .5-.6 2.3-1.4.9-.5 2.2-.9 3.4-1.3l3.3-1.4c1.6-.6 2.5-.8 2.7-.7s-.6.6-2.3 1.5l-3.2 1.4-3.5 1.2a9.7 9.7 0 0 1-2.5.8.3.3 0 0 1-.2 0zM24.1 112l6.5-2.7c5.2-2 11-4.7 16.2-6.6 4-1.5 6-1.6 2.4.4-3 1.5-7 3.1-10.4 4.5l-4.6 2.1-7.2 3.1-2.8 1.1v-2zm212.5.2c-.2 0 .4-.6 1.3-1s1.8-.4 1.8-.3c.2.1-.6.7-1.3 1a4 4 0 0 1-1.4.4.7.7 0 0 1-.4 0zM136.3 110c-.2-.2 1.5-1.2 3.7-2.1 2.1-1 4.4-1.7 4.7-1.4.1.3-1.7 1.6-4 2.6a12.3 12.3 0 0 1-4 1h-.4zm108.4-.8c-.2-.1.7-.6 2-1s2-1 2.2-.8c.1.1-1 .8-2 1.3a6.8 6.8 0 0 1-2 .5h-.2zm-49.9-1.3l-.1-.3c.9-.7 2.7-1.2 3.9-1.8l4.1-2 4.2-1.7c1.4-.6 2.9-1.2 4.2-1.9s2.7-1.2 4.2-1.8l4.4-1.7L224 95c1.5-.6 3-1 4.3-1.6 1.7-.6 3.2-1.4 4.4-1.7 2.5-1 4-1.4 4.2-1.2a15.3 15.3 0 0 1-3.6 1.9c-1.4.6-2.7 1-4 1.7l-4.7 2.2-5.5 2.3-9.6 4c-3.5 1.5-6.9 2.7-10.3 4a26.7 26.7 0 0 1-4 1.3zm-40.1-5.2c-.2-.3.9-1.1 3.4-2.3 1.4-.6 3.3-1.1 5.1-1.9 1.5-.6 2.9-1.6 4.5-2.3l5-2 4.9-1.7c2.7-1 4.2-1.4 4.3-1.2s-1.3.8-3.9 2c-1.3.7-2.8 1.5-4.6 2.2l-4.8 2-4.8 2c-1.8.7-3.4 1.6-4.8 2a18.2 18.2 0 0 1-4 1.2h-.3zM24.1 101c6.5-2.6 11.3-4.3 11.4-4.1s-4.8 2.7-11.4 5.6v-1.5zm108.3-.1c-.2-.3 2.7-1.8 8.5-4.5 3.2-1.3 7.4-2.8 11.4-4.5 3.4-1.4 6.9-3.2 10.8-4.9l11.4-4.7a356.8 356.8 0 0 1 20.8-7.6c.1.2-3.2 1.5-9.2 4.2l-10.7 4.8-11.3 4.7c-3.9 1.6-7.5 3.2-11 4.5L142 97.7a53.3 53.3 0 0 1-9.5 3.3.3.3 0 0 1-.1 0zm-72.5-3s-.3-.3-.1-.4c1.3-1 3.9-1.8 5.8-2.8l6.2-2.9 6.3-2.6 6.2-2.7c2.1-.8 4-1.8 6.3-2.8a255 255 0 0 0 12.9-5c2.2-1 4.5-1.7 6.4-2.5l6.5-2.6c3.6-1.2 5.8-1.8 6-1.6s-1.8 1.3-5.4 3l-6 2.4c-2.3 1.1-4.5 2.2-6.9 3.2L95.9 84c-4.8 1.9-9.5 4-14.3 6-5 2-10.3 4-15.4 5.8a45.1 45.1 0 0 1-6 2 2.3 2.3 0 0 0-.2.1zm-34.6-8.4c8.8-3.6 16.2-6.4 16.4-6.1s-7.5 4-16.6 7.8l.2-1.7zM189 88.2c-.2-.3 3.1-2 6.6-3.5 2.2-1.1 5.5-2.3 9-3.8a170.1 170.1 0 0 1 15.8-5.8c.2.1-3 1.5-6.9 3.3l-8.4 3.7c-3.2 1.4-6 2.5-8.2 3.3a78 78 0 0 1-7.9 2.8zm56.9-1.7c-.2-.2 2-1 3.9-2l.2 1a22.8 22.8 0 0 1-4 1h-.1zM138.5 75.7s-.3-.2-.1-.3c1.3-1.1 4-2 6-2.8l6.3-3c1.9-.8 4.1-1.6 6.4-2.7l6.4-2.7c2.1-.8 4.2-1.9 6.5-2.7 2.2-1 4.5-1.7 6.5-2.6l6.6-2.6c2.4-.9 4.7-1.7 6.6-2.6l6.6-2.6c3.8-1.5 6.1-2 6.3-1.8s-1.8 1.3-5.5 3c-2 1-4.2 1.6-6.2 2.5l-7 3.3-8.4 3.5c-5 2-9.7 4.1-14.7 6.2-5.2 2.1-10.6 4-15.8 5.9a46.7 46.7 0 0 1-6.2 2zm-48.5-1c-.1-.3 3.2-1.9 8.7-4.4A1169.8 1169.8 0 0 1 156.5 47c.1.2-3.4 1.8-9.4 4.4a1823.4 1823.4 0 0 1-47.8 20 62.5 62.5 0 0 1-9.3 3.3zm-23.2-1.8a448.8 448.8 0 0 1 39-16.2c.2.2-2.1 1.4-5.7 3s-8.7 4-14 6.2a152.9 152.9 0 0 1-19.3 7zm164.7-2.5c-.2-.2 1.2-.8 2.8-1.6a9.8 9.8 0 0 1 3.5-1c.1.2-1.4 1-3 1.8a10.3 10.3 0 0 1-3.2.8h-.1zm-46.7-2.9l-.2-.1 4.7-2.3a1.5 1.5 0 0 0 .9-.2l.4-.3c8.3-3.4 16.5-6.5 24.7-9.9l19.4-8 .5.8c-7.3 3-9.2 3.6-19.6 8l-25 10.4a16.5 16.5 0 0 1-5.5 1.6 1.5 1.5 0 0 1-.3 0zm-51.5 0a11.4 11.4 0 0 1 3-1.6l8.5-3.8 12.5-5.3 12.5-5.1 12.4-5.1 10.7-4.4h3l-.5.2-12.4 5.2-12.4 5.3-12.6 5c-4.6 1.9-8.8 4-12.4 5.3l-8.9 3.4a19.1 19.1 0 0 1-3.3 1 .2.2 0 0 1-.1 0zM32.1 64.8l24.4-10.2 30-12.4H91a4437.2 4437.2 0 0 1-59.8 25l1-2.4zm184.1 1c-.1-.2 4-2 9.2-4.2 5.3-2.2 10.3-4.1 10.4-3.9s-4.6 2.6-9.8 4.7a60.7 60.7 0 0 1-9.8 3.4zM61.7 64.5c-.1-.1 1.8-1.1 5.6-3l16.9-7.4c8-3.4 18.6-7.4 29.2-11.9h3.5l-2.8 1.1-28.4 12-17.7 7a45.4 45.4 0 0 1-6.2 2.2zM123 49.7a135 135 0 0 1 16.6-7.5h3.7l-1 .4c-10 4.1-18.1 7.2-19.2 7.2a.2.2 0 0 1-.1 0zm88-3.7c-.1-.2 3.4-2 7.4-3.8h3.4l-1.7.8a52 52 0 0 1-9 3h-.1zm-157-.4c-.2 0 1.2-.8 4.6-2.4l2.2-1h2.3l-3.9 1.6a48 48 0 0 1-5.2 1.9z" fill="#001c7a"/>
  <path d="M38.5 123.3l-11.9-.5-10-1.4.3-4.1.4-1.2-.4-2.6-.4-13.6-.6-13.2v-3.3L14.7 75l-.3-27h1L32 51l7.8 1.3 11 2.7 11.8 2.3 4-9.3 4.5-6.3 7.7-4.3 5.3-1.2 4.6-.7h7.5l12.1-.3 10.6-.5 4.1.2L123 16l.6-14.3.7-1.5h20.2l1 2.7.2 5-.9 5.6-10.4 1.5-6.2 1.3-1.3.6-.3 5.7v6.5l.3 5.6 6.4-.3 6-.4 10.6-.7 7-.2 6.9.2 5.9-1 4.1-.4 10-.2 5.5.6 5.1 2 5.5 4.7 5.5 8.1 1.3 3.2.7 5.7.4 6.8-.4 7.8-.2 8.6.2 11.9-.2 5.3-.5 7.6-.5 3.7-.1 4.8v2.3l-2.2.6-9.3 3.1-10.4 2.9-8.9 3-3.8 1-11.9 3.6 1 19.9-.4 29.3-.4 8.9v11.1a33 33 0 0 1-18.2 0c-.1-3.6.4-64.5.4-64.5l-4.5 1.2-4 1-15.3 5.6.5 5.7-16.6 5-19.3 6.2-20.3 6.2-19.3 2.7s-22 2.6-39-5a30.6 30.6 0 0 1-2.8-3s-2.8-9 .2-11.3a54.7 54.7 0 0 1 14.1-5.7l26.3-6.7z" transform="translate(.1 .4)" fill-rule="evenodd" fill="url(#a)"/>
  <path class="c" d="M172.6 107.6c.6-5.7-.2-12.5.7-18.3v-6.8a32.1 32.1 0 0 0-.3-8.7c-.8 3.1.3 7.8-.2 11.6l-.2 11.7a51.5 51.5 0 0 0-.2 10.4zM173 73a1.5 1.5 0 0 0-.2-1.7l.2 1.6zM141.4 2.6h.2l-.7-.2.2.3zM196 107.5v.2h.1a52.2 52.2 0 0 0 .5-10 32.9 32.9 0 0 0-.7 9.8zM196.5 96.6l.2.3a1.8 1.8 0 0 0 0-1.8 2.5 2.5 0 0 0-.2 1.5zM184.3 104.1l-.2 3.6h.1a6 6 0 0 0 .1-3.6zM135.6 12.3l.2-.1-.5-.1c-3.1 1.2-7.3 0-10.2 1.2h-.2v.6h.1c3-.4 8.2-.4 10.6-1.6zM172.4 108.8l-.1 1.6h.2c.1-.6.4-1.3-.1-1.6zM196.9 68.6a56 56 0 0 0 0 11.6l-.4 14.5h.4c1.1-6 .5-12.8.5-19.1 0-1.8.6-6.1-.5-7zM135 11l-9.8 1-.2.4 10.3-1.2-.2-.3zM184.1 112.6l-.2-.1v1.2l.1.1zM140.3 3.5h.4v.3h-.4zM136.4 10l.1-.1v-.1l-.5-.1-10.9 1h-.2v.4c3 .7 8.3-1 11.5-1.1zM184.6 95.6l-.2 6.8a20 20 0 0 0 .2-6.8zM184.1 109.2v2zM184.8 94.4a14.8 14.8 0 0 0 .1-5.9 16.7 16.7 0 0 0-.2 6zM135.6 2.5L124.9 2v.6a37.5 37.5 0 0 0 10.7-.2zM137.4 2.6v-.2H136l-.1.1a3.4 3.4 0 0 0 1.5.1zM138 2.3v.3c.2-.3.2 0 0-.3zM140.6 2.5h-2.1c.3.2 1.2.1 1.6.2zM125 5v.3l10.3-.4v-.2h-7.2l-3 .1zM135.9 6l-5.7-.1-5.3.4V6.9a51.7 51.7 0 0 0 11-.8zM136.5 3.8l.1-.2-11.7-.2V4c3.6 1 8-.2 11.6-.2zM135.4 9v-.3h-.8l-9.7.6v.6c2.3.5 7.8-.7 10.5-1zM138.6 10.8v-.1l-.5-.1-.2.1v.2h.6zM139.1 9.4l-.1.2.2.2.2-.4zM138.6 7.2l.2-.2h-.2l-.1.2zM141 77v.9h.1c.2-.4.2-.8-.2-1zM138.7 4.7l-.4-.2-.3.2V5h.7zM140.5 8.3h-.3l-1.7.2c.3.4 1.2.2 1.9.1zM139 10.8l.3-.3h-.3zM138 7.1l-.2-.2-.2.1v.2h.5zM127.7 95.2a1.6 1.6 0 0 0 1.5.6 1.8 1.8 0 0 0 .4-1.7c-.2-.5-.4-.6-1.3-.6l-.5.6z"/>
  <path class="c" d="M129 90.8l-1.2-.1c-3.8 1.4-4.3 6.9 0 7.6 3.3.6 3.5-6 1.2-7.5zm-.6 7l-.7-.1c-3-1.3-1.1-5.3.4-6.6 3.5.2 2.4 5.7.3 6.8zM132 43.2a33.6 33.6 0 0 1 5 7.1A75.6 75.6 0 0 1 140 62l.1 4.6.7 9.5h.2a35.3 35.3 0 0 0-.3-11.3c-.5-2.7.2-5-.5-7.6-1.6-6.2-4-11.2-8.3-14.9-1.1-.9-2.1-2.5-3.4-3 .5 2 2.3 2.5 3.5 4zM139.2 7V7l.2-.2zM138.4 9.9v-.3H137a2 2 0 0 0 1.4.3zM138 8.5h-.3l.3.3zM137 5.8h-.4l-.1.3h1.6V6a1.4 1.4 0 0 0-1.1-.2zM139.2 3.5l.2.3v-.3zM142.8 9.4h.2l-.4-.3-.1.2zM142 7h.5v-.3h-.5zM141.7 3.8l.2-.1v-.1l-.6-.1c.2.4 0 .2.4.3zM125.1 14.5v.5a73.3 73.3 0 0 0 11.9-1.7V13h-.3zM139.1 4.7v.1l.4-.2h-.3zM140.3 6l-.4-.2h-1.2c.3.4 1 .3 1.6.3zM141.1 7.1l.2-.2h-.4zM140.8 6c.4-.2.1 0 .3-.3h-.2zM140.8 8.5h.6v-.2l-.3-.2-.3.2zM142 8.3h.4l-.4-.2zM141.7 5.7v.2h.6v-.2l-.4-.1zM140 4.8h1.6l.1-.2h-1.6zM141.7 9.3H141.1v.2h.5zM140.2 10.4l-.3.2h1.5l.1-.2zM142.2 11.4h-.6v.2h.5zM141 11.5h-.3l-.1.2h.4zM139.7 12.9l.4-.1v-.1h-.4zM141.7 12.5v.2l.5-.1h.2v-.1h-.7zM141 12.8h.1l.1-.2h-.5l.3.2zM138.6 11.8v.2l1.7-.2-.6-.2zM143.1 3.6v-.1h-.4l.2.3zM141.4 85.4c-.3-2.2.3-5-.2-6.9h-.3l.1 12.7-.2 16.2.2.1h.2c.7-3.7-.3-7.7.2-11.3a41.1 41.1 0 0 0 0-10.8zM142.6 4.5l-.1.1v.1l.5.1h.1l.1-.2-.4-.2zM142.2 2.3v.3h.4c-.2-.3 0-.1-.4-.3zM142.7 11.5l.4-.2h-.4zM142.8 5.8h.5l-.4-.2zM143 10.3l-.5-.1-.1.2h.4zM140.6 9.6l-.4-.3-.1.2.3.2zM137.2 3.8h1.4v-.2l-1.4-.1zM136 4.8c.4.3.8.2 1.4.1-.3-.3-.9-.2-1.3-.3zM125 7.8V8a56.3 56.3 0 0 0 12-.9l-.6-.2-11.3.5zM139.2 13.1l.1-.3h-.3zM140.7 111c0 2.5-1 9.4-.2 11v.1l.2.1a56.5 56.5 0 0 0 .3-11.5zM140 6.8l-.2.2.3.1c0-.3.1-.1-.2-.3zM137.4 8.7l-1.4-.1-.1.2h1.5zM136.4 12v.3l1.3-.2h.2a1.4 1.4 0 0 0-.9-.2zM138.4 13.2l.2-.3h-.2zM136 11.2l1.4-.2v-.2h-.7l-.7.1zM137.7 13.3h.3V13h-.5zM141 108.6l.1.8.1.2h.1c0-.6 0-.8-.3-1zM36.6 94.2a1.4 1.4 0 0 0-1-.2c.3.2.5.2 1 .2zM37 111.4l-.3.2h1.8zM37.2 113.8l1.3.1v-.2H38zM35.4 108.9h1.2v-.1h-.3zM11.8 147.6c.6.2 1.3-.3 1.9-.5v-.1h-.3zM33.9 104.1l-1.5-.2a2.8 2.8 0 0 0 1.5.2zM35.5 106.4h-.6c.2.1 0 .2.4 0h.2zM33.4 101.4a2.7 2.7 0 0 0-1.6-.2 2.7 2.7 0 0 0 1.6.2zM47.7 140.8a.6.6 0 0 0 .1-.3l-1.1.2c.3.3.5.2 1 .1zM40.6 98.5h1.3l.1-.3h-.3zM35 140.8v-.2h-.7l-1.6.4c.6.4 1.5 0 2.3-.2zM8.1 149l2.2-.7v-.2H10zM46.3 138.4v-.2H46l-1.5.3-.1.2zM18 145.8h-.6c-.5.2-1 .1-1.2.8l1.5-.4.3-.4zM15.5 144.8H15h.5zM47.4 135.7H47h.4zM44 100.7l-.6.3 1-.2zM35.7 139.3h-.2l-2.3.6a3.3 3.3 0 0 0 2.5-.6zM38.8 140.6h.2-1l-1.6.3-.2.4a4.8 4.8 0 0 0 2.6-.7zM36.2 140.3H36l-.2.3zM37.2 96.4v.2l1.5-.2H38zM59.7 114.3l-.4.5c.4-.3.3-.3.4-.5zM59.2 123.1c0-.3.3-.2 0-.3l-.3.4zM58.7 117.8v.3l.2-.3zM58.8 126l-.4.5c.4-.2.4-.2.4-.5zM60.4 116.3l-.6.4v.3a.8.8 0 0 0 .6-.7zM29.2 119.2c.2.3.4.4 1 .4a1.4 1.4 0 0 0-1-.4zM30.7 122.3v-.1l-1.3-.5zM60 119.9l.6-.7h-.2zM57.9 129.1l-.2.3 2-1.2h-.2zM53.1 134.1h-.3l-.9.4-.2.1 1.1-.3zM51.3 106h-.5l-.4.3-.2.4 1-.3zM48.9 133h-.3l-1.2.3 1.5-.1zM49.4 137.7l-.4.3a1.2 1.2 0 0 0 .7-.3zM58.3 112.7H58l-.6.5v.1l.7-.4.2-.2zM47.3 133.3zM56.7 108.3h-.2c-.3.4-.8.6-1 1a2.8 2.8 0 0 0 1.2-1zM55 106.8h-.4l-.7.6 1-.4zM47.9 143v.3l.6-.2-.5-.1zM47.7 135.7l.3-.2h-.3c0 .1-.1 0 0 .2zM111.8 137.9l2.7-.7a47.7 47.7 0 0 1 9-2.6c7.6-1.8 14.8-4.3 22-6.6 3.5-1 8-1.5 10.9-3.2h.2c-.2-.2-.3-.2-.7-.2L111.8 137zM111.9 139l-.3.4a1 1 0 0 0 .2.6c6.8-2.1 13.4-4.3 20-6.2l6.8-1.6 12.6-3.9.1-.2h-.8zM138.7 128.3l12.2-3.9h.1c-.2-.3-.3-.3-.7-.3l-7 2-23 6.7c-2.8.9-6.4 1.2-8.8 2.7v.4l.3.1c9-3 17.8-4.8 26.9-7.7zM157 128.5l-.2.3c2.7-.6 5-1.5 7.4-2l.1-.3h-.7a44.5 44.5 0 0 1-6.6 2zM160.5 125.6l-.4-.2a61.1 61.1 0 0 1-6 1.8v.3a37.4 37.4 0 0 0 6.2-1.7zM167.5 125.8h-.3c1.7.5 7.1-1.9 8.9-2.4v-.2h-.4c-2.4 1.3-6 1-8.2 2.6zM159.5 122v-.1h-.9l-6 1.7.1.3a42.7 42.7 0 0 0 6.8-1.8zM158.3 124.2a40.7 40.7 0 0 0 7.2-1.9l.2-.3h-.5l-6.6 1.9zM161.8 124.8l7.7-2 .2-.4h-.5c-2.2 1-5.3 1.4-7.4 2.4zM163.6 120.9l.2-.3-.9-.1-2.2.5v.2c.7.6 2-.2 2.9-.3zM203.4 110.4l-.6-.1-3.2 1v.1a25.8 25.8 0 0 0 3.8-1zM177.7 122.5l-.2.3a3.5 3.5 0 0 0 2-.4l.2-.2-.6-.1zM203.4 114l.6-.3h-.3a1.5 1.5 0 0 0-.3.3z"/>
  <path d="M207.7 76.5c.1-7.3 1-15.3-.2-22a30.6 30.6 0 0 0-1-6.2 28 28 0 0 0-17.2-16.2c-6-1.6-16.9-.7-23 .3-7.2 1-14.1.5-21.4 1.6-2.3.4-5.2-.4-7.2 0a56.4 56.4 0 0 1-10.4.7l-.3-11.8v-5.5c4.1-1.6 10-1.9 14.4-2.7l3.5-.4c1.2-.8 1.5-12.9 0-14-.9-.7-4-.2-5.5-.2H124c-1.5 2-.6 5.5-1.1 8.9v25.9c-5.5-.8-10.5.4-16 .4-11.7 0-26-.5-33.6 4.1a23 23 0 0 0-7.1 8.4 26 26 0 0 0-3.9 9.4 100.6 100.6 0 0 1-15.7-3.4c-6.4-1.7-12.3-2.3-18.9-3.6-1.6-.2-12.2-2.8-13.2-2.3-.6.2-.4 2.7-.6 3.4a33.6 33.6 0 0 0 .1 9.3v6l.5 10.4c.4 2.8 1 5.6 1.3 8.2l-.2 4 .7 15.5c.4 2.8 0 6.5.5 9.5l.1 2.4a26 26 0 0 0-.6 5.4l6.9.7a86.6 86.6 0 0 0 15.3 1.3c1 3.6 1.8 8 3 11.7a72.4 72.4 0 0 0-9.7 2.4c-4.7 1.4-9.8 2.4-14.3 3.7-6 1.8-11.5 3-15.8 6.3-3.6 2.7-1.2 12.7 1.6 14.3 8 4.8 30.9 7.8 43.5 5.1 6-1.2 13.2-1.2 19-3 11.5-3.5 22.9-7.6 34.4-11l6-1.5 12.4-3.9c.7-1.3 0-4.1-.2-6l14.6-5.3c2.8-1 6.2-1.2 8.6-2.4-.1 33.3-.3 31-.5 64.3h.9c.3-28.8.7-22.1 1-50.9v-13.6a76 76 0 0 1 16.7-4.2v18.5a2.5 2.5 0 0 1 0 1.1v.4a40.1 40.1 0 0 1 0 8v1.4l.2.9h-.2c-.2 21.5-.5 17.1-.6 23.7s0 8 .1 14.6h1c0-36.7.5-34 .5-69.6 9-2.5 17.8-5.6 26.7-8.3l6.2-1.5c2-.7 4.7-1.9 7-2.6l5-1.3c1.2-.9.7-7 1-9.1 1.6-9 .8-21 1-29.7zm-6.3-34.3c4.4 5.6 3.5 9 4.9 17.2V67a23.5 23.5 0 0 1 0 7.2c-.4 2.5.2 5.6-.2 8V90l-.8 18-2 .5.2-3.4c.9-5.3.4-11 1.2-15.9v-4.6c.3-2.7 0-5.8.2-8.8a65 65 0 0 0-.6-16.1c-1-5.1.3-10.2-1.8-14.3a19.9 19.9 0 0 0-5.8-7.7c-1.4-1-3-1.2-4.1-2.4 3.9.8 6.6 4.3 8.8 7zm.7 5l1.2 6.3c1 4-.3 7.8.3 11.8a62.7 62.7 0 0 1 .1 13l-.5 15-.4 15.3-1.7.4.8-15.3v-3.3c.6-3.2-.2-7.5.3-11a42.5 42.5 0 0 0 0-11.6V62c-1-5.5 0-12-2-16.3a21.3 21.3 0 0 0-5.7-7.6c-1.9-1.5-4.1-2.1-6.1-3.5 6.6.8 11.4 7 13.5 12.6zM188 34l-.3-.4zm-1.8 1c5.8.7 11.6 7.6 13.2 12.9l1.4 6.5a4.9 4.9 0 0 0-.2 1.6 20.6 20.6 0 0 1 .4 6c-.5 3.4.8 7.6.3 10.8l.2 6-.3 2.7v9.8c-.7 3.6 0 7.9-.7 11.6a13.5 13.5 0 0 0-.2 6.5l-1.8.4 1-17V88c.4-2.6-.3-5.3.2-8.1a83.3 83.3 0 0 0-.3-20.3c-.8-5 0-9.5-1.7-13.4A21.1 21.1 0 0 0 186.2 35zm-.5-1.2l.1.4h-.2l-.5-.8a1 1 0 0 1 .6.4zM198.3 54c.3 2.8 0 6.5.7 9.8v6.7a54.5 54.5 0 0 1-.1 13.1l-.1 7.3-.7 13.5c0 1.8-.8 4.4 0 5.6l-2.1.4V109h-.1a2 2 0 0 0-.2 1.4l-2.1.6 1.4-19V83a63.8 63.8 0 0 0-.2-17c-.3-2.4 0-4.6-.4-6.5V56a36.6 36.6 0 0 0-1.9-10.1c-2.2-5.3-6.4-7.5-10.7-10.6h-.2a9.8 9.8 0 0 1 3.6 1.6 19.9 19.9 0 0 1 9.8 12.1l.9 4.9 1 12.6v.2c1.2-2.5.1-7.8-.3-10.4l-.4-6.4a19.7 19.7 0 0 0-6.8-11.6c-1.4-1-5.5-2.5-6.2-4a22 22 0 0 1 15 19.5zm-6 11.5c-1-5.9.2-12-1.5-17-2.2-6.3-6.2-9.5-11.5-12.8 5.3.3 10.4 7.3 12.1 11.5a38.4 38.4 0 0 1 2.2 7l.4 7.2c.5 3.2-.4 6.4 0 9.1a55.6 55.6 0 0 1-.1 13.8l-.6 27-2.1.6 1.1-18.2.3-16.1a76.8 76.8 0 0 0-.3-12.1zM183 34c-.5 0-.6-.3-.7-.7.4.2.5.3.7.7zm-2 .3h.2l.3.6a1 1 0 0 1-.7-.5zm-.4-.4h-.1l-.3-.4zm-1.6 1l.2.2-.2.1-.7-.8c.5.1.6.1.7.5zm11.5 17.2c.5 2.4.3 5.6.8 8.6a54.9 54.9 0 0 1 .4 14.2V80l-.2 5.7c-.5 3.1.1 6.8-.3 10v8l-.6 8-1.7.5h-.1l1.1-20.8V85a25.9 25.9 0 0 0 .1-7.6V63.4c-1.1-5.3-.2-11-1.9-15.3a24.2 24.2 0 0 0-7.9-10.1 14 14 0 0 1-3.3-2.4c6.9 1.6 12 9.2 13.6 16.5zm-14-17.1v.1a1.6 1.6 0 0 1-.8-1 1.9 1.9 0 0 1 .9.9zm.2 1.9c11.4 4.6 13.2 19.9 12.7 36v14.6l-.4 9.8-.7 15.1-2 .6.3-3.5.7-11V94l.2-10.4.1-7.3a79.8 79.8 0 0 0-.3-12.5l-.2-7.4.3-1.8a33.6 33.6 0 0 0-1.8-6.6 22 22 0 0 0-6.2-9c-1.7-1.2-4.2-2-5-3.8.9.3 1.4 1.3 2.3 1.6zm-3.2-2.2a1.2 1.2 0 0 1-.5-.5zm-1.5.5l.3.5c-.4-.1-.4-.1-.6-.5zm-.5-.4l-.1.3a1.6 1.6 0 0 1-1-.9zm-5.3 2.7l.4-.1c12.7 7 12.9 20.4 12.9 39.8V95a78.7 78.7 0 0 0-.5 14c0 2-1 4.2-.2 5.9v.2h.2c1.2-5.5.3-12.1 1.2-18l.4-10.3-.1-3.7a41 41 0 0 0-.1-10.6v-4.2c-.6-3.5 0-7.4-.5-11-1.1-7-2.5-12.6-6.8-16.3a18.4 18.4 0 0 0-5.6-4.2l-.4-.5c4.8.5 7.3 4.8 9.8 7.9 3.6 4.3 3.7 9.7 4.9 16.6l.2 7.5V76c-.5 3.1.4 6.3-.1 9.3v9.2l-.7 19.8.2.1.3-2.5.7-12.5a82.1 82.1 0 0 0 .5-18.9c-.5-5.5.4-11.5-.5-16.7v-5.3c-.7-3.5-.6-7-1.8-9.9a22.2 22.2 0 0 0-6.1-9 30.3 30.3 0 0 1-5.2-3.8v-.1c.9.2 1.3 1 2 1.4a21.2 21.2 0 0 1 11.9 16.4l.7 2.4a57.1 57.1 0 0 0 .5 9.1l.3 8 .1 14.5.1.2a79.7 79.7 0 0 0 .2-17.2L185 60l.2-2.2a37 37 0 0 0-3.2-12.5 19.4 19.4 0 0 0-5-6 23.3 23.3 0 0 1-4.1-3h-.3c.8-.5 2.6 1.1 3.4 1.5a18.4 18.4 0 0 1 7.8 8.7c3.4 7.6 4.2 24.2 3.3 35.4v9.4l-.7 15.4c0 1.9-1 4.4-.2 6.2a25.4 25.4 0 0 1-9.2 2.6l.6-8.5.1-7.4a77.2 77.2 0 0 0 .5-12.5v-4.8a53.3 53.3 0 0 0-.3-12.5l-.3-14.2c-1.2-7.2-5.1-15.5-11.1-17.8l-.1-.4zM164 36l1.7.8v.2l-.1.2-1.7-1.1zm-.6-.3v.1c-.7.3-1.7-.3-2.1-.8zm1.4 1.8a24.1 24.1 0 0 1 9 9.5c5 11.3 3.4 33 3.4 48.4l-.6 14a14.2 14.2 0 0 0-.1 6.2l-1.8.3c.8-9.2 1-19.4 1-29 0-4.7.8-10 0-14.5l-.2-7.4c-.4-2.1.1-4.5-.2-6.5a49 49 0 0 0-2.4-10.6 30.3 30.3 0 0 0-8.7-10.4c-1.4-1.2-3.9-1-5-2.4a54.8 54.8 0 0 1 5.6 2.4zm-6.4-1.6v.2a1.5 1.5 0 0 1-1.2-.4zm6.1 6c4.5 5.4 6 8.9 7.4 17 .7 3.6.3 7.9.7 11.1h.3v-5.9c0-9.3-1.8-16.4-6.2-21.8-1.2-1.6-7.2-5.2-7.6-6.3a13.6 13.6 0 0 1 4.6 2.7 24.3 24.3 0 0 1 9.8 15.4l1 7.7.3 14.4a52.6 52.6 0 0 1-.1 12.7l-.1 6v7c-.8 4.3-.2 10.3-.9 14.4l-1.7.5a27.4 27.4 0 0 0 .1-5.6c-.8 1-.5 4-.5 5.7l-2 .3.8-11.3v-7.7a138.9 138.9 0 0 0 .4-22 86 86 0 0 0-.5-11.9V60a52.8 52.8 0 0 0-.7-6.6c-1.4-7.4-5-10.4-9.8-14.4a11.2 11.2 0 0 0-4.7-2.8l-.2-.3c4.2 0 7.5 3.8 9.6 6.2zm3.5 28a24.3 24.3 0 0 1 .1-6.8 29.6 29.6 0 0 0-1.4-11 34 34 0 0 0-5.9-10.4c-1.2-1.6-3.4-2.1-4.4-3.7 3.4.5 5.1 3.7 7 5.7 5.7 5.9 4.7 11.4 6.3 21V70l.2 14.4-.2 10.4-.6 22.6-2.1.6 1-14.2.3-9.8V82.8zm-13.3-33l1.3.3v.3a2 2 0 0 1-1.4-.6zm-1-.7l.3.2-.1.2a3.5 3.5 0 0 1-1.8-1zm7.8 8.3a28.7 28.7 0 0 1 4.7 8.9c1.3 4.7.2 10 1.2 15.5l.2 11-.1 7.6-.1 13.4-.5 17.1-2.1.6 1-17.4.1-5.8A50.6 50.6 0 0 0 166 82l-.4-12.3c-.4-3 .4-5.8 0-8.7a55.4 55.4 0 0 0-2.2-11.4 27.7 27.7 0 0 0-6.2-9.1 15.6 15.6 0 0 1-2.9-2.2c-1-1.2-3.3-1.2-4.3-2.4 4.1.6 9.3 5.3 11.5 8.4zm-2.2.4a28.3 28.3 0 0 1 5.1 13.2l.5 11.2a47.7 47.7 0 0 1 .1 12.3v19.9l-.6 17.4-2 .5c.7-11 1.1-22.8 1.1-34.7l-.3-15.2c-.5-3.4.4-6.6-.2-10a44.2 44.2 0 0 0-1.8-9 30 30 0 0 0-9.2-11.9l-3.8-2.2c4.2.2 9 5.7 11 8.4zm-.9 3c3 4.9 2.9 9.7 4 16.7l.3 6.5a84.3 84.3 0 0 1 .2 13c0 12-1 23.7-.9 35.2l-1.8.4h-.3c.9-8.8 1-18.3 1-27.7a87.7 87.7 0 0 0 0-13.1v-7.7l-.2-10a91.3 91.3 0 0 0-1.8-9.9 29.7 29.7 0 0 0-6.3-10 29 29 0 0 1-4.7-3.5c4.5.2 8.6 6.7 10.5 10zm-12.5-11.3l1.3.4.2.3-.2.2-1.4-.6-.2-.3zm8 8.3a23.5 23.5 0 0 1 3.6 6l2 7 .5 7 .2 7.7.2 4.7V100l-.9 20-1.7.4h-.1l1-22.3V84.6a19 19 0 0 0 0-5.5l-.4-9.6c-1.2-6.8 0-13.3-2-18.6a23.4 23.4 0 0 0-9.7-11.7l-2.9-2.3v-.2c3.1.1 8.6 5.8 10.2 8.1zm-1.1 2.1a32.3 32.3 0 0 1 4.1 10.9l.7 9a60.4 60.4 0 0 1 .5 14l-.2 4.1a41.4 41.4 0 0 1-.1 10.7v9.4c-.4 2.4.4 5 0 7.6l-.6 7.7-1.7.4h-.1l.6-11.7v-7.6c.9-5.3-.3-10.9.3-16.4a96.7 96.7 0 0 0-.3-13.5c-.9-14.3 0-23.8-9.4-30.6a19.6 19.6 0 0 0-5.2-3.5.7.7 0 0 1 0-.4c4.2 0 9.4 6.8 11.3 9.8zm-12-10.2l-.7-.5zm12.5 17.6c1.5 4.4 1 8.6 2 14.2v6.6a54.1 54.1 0 0 1 .1 11.6v14.5l-.8 19.7-1.7.5h-.1c0-12.9 1.7-26 1-40.1-.3-4.5.2-10-.6-14.2-1-6.1.3-11.1-1.9-16a38.3 38.3 0 0 0-9-12l-3.9-2.4c7.4 1.1 12.7 10.8 15 17.5zm-19-18.2a14.9 14.9 0 0 1 6.3 3.3 25.2 25.2 0 0 1 10.8 16c.5 2.2.5 5 1.2 7.1l.2 10.8.2 14.6-.3 16.7-.3 17-2 .4 1-20v-9.7a78.7 78.7 0 0 0-.3-19.3l-.1-5.7c-1-5-.5-11-2.1-15.5a24.2 24.2 0 0 0-7.7-10.8c-1.6-1.4-4.9-4.5-7-4.8zm14.3 35.3V65a35.2 35.2 0 0 0-1.3-10.4c-1-3.6-4.5-10.6-7.3-12.5a36.2 36.2 0 0 1-5-4.2v-.2a16.2 16.2 0 0 1 7.4 5.6 32.6 32.6 0 0 1 6 10.2c.5 1.6.7 3.7 1.1 5 .8 2.4.2 4.9.7 7.6 1 6 .3 13.4.3 19.4v5.7l-.2 14-.3 17.3-2.1.5a572 572 0 0 0 1-35.2 108.7 108.7 0 0 0-.3-16.3zm-14.6-35.8l-.3-.2.3.1zm.3 1.7c-.3.3-1.6-.6-2-1a4.6 4.6 0 0 1 2 1zm-1.3.7l2.7 1.3a20.6 20.6 0 0 1 5.8 6.2 39.1 39.1 0 0 1 6.1 15.6l.4 9.1-.1 3.9a86.6 86.6 0 0 1 0 13.6c0 11.6-.5 23.8-.4 35.4l-2 .4 1-22.8-.2-6.3c.4-2.4-.3-5.1.1-7.6l-.2-10.4.2-3.6c-.9-7.1 0-14.6-2.1-20.2-3.4-8.5-7.5-11-14.5-16.1A7.5 7.5 0 0 1 133 38zm-4.2-2.4h.4l.2.4h-.3l-.2-.1zm10.8 10.6c3.6 5.2 4.5 11 5.8 18.6l.4 10-.1 3.7a72.9 72.9 0 0 1 0 16v8.9c-.2 1.5.3 3.6 0 5.1a137.9 137.9 0 0 0-.7 15.2l-1.6.6h-.1l.6-15.6.1-9.1V84.8c-.5-3.6.4-7.4 0-10.9l-.3-5.9c-.8-5.2-.3-10.4-2-14.7-1.2-3-4-8.9-6.2-10.7l-7.9-6c5 .9 9.5 6.2 12 9.7zm-12.2 7.3a72.2 72.2 0 0 0 .1-15.8C136 41 141 51.9 142.6 61.5c.4 2.4-.2 5 .2 7.4s-.1 5.8.3 8.6l.1 9.1v18l-.6 20.1-1.6.4h-.3v-2c-1.2 1.5.4 2.3-2.4 2.7l.8-21.7-.1-15.3a95.4 95.4 0 0 0-.2-16.8l-.6-13c-1.8-7.4-4.4-13.6-9.6-17.5h-.1a65.2 65.2 0 0 0 4.4 6.4 43.7 43.7 0 0 1 4.6 13.3c.9 4.3 0 9.6.6 14.3.7 4.5-.3 8.8.2 12.9v8.7l-.2 17-.4 11.9-1.7.5a77.2 77.2 0 0 1 .7-12l.3-11.5-.1-12.5a55.3 55.3 0 0 0-.2-13.5V73c-.6-4.5-.1-10.9-1-14.8a34.8 34.8 0 0 0-3.9-10.2l-3.2-4-.2-.1c.2 3 2.9 5.2 4 7.7a54.8 54.8 0 0 1 3 13.4l.1 11.4.1 11 .2 3.3V101l-.3 8.8v16.7a2.7 2.7 0 0 1-1.5.5c0-6.3-.7-13.2.4-19.5V96.2a48.9 48.9 0 0 0 0-13.7l-.4-9.1v-5.7l-.8-9a39.8 39.8 0 0 0-3-8.2 10 10 0 0 0-1.8-3.2V47h-.1a16.2 16.2 0 0 0 2 5.6l2.4 9c.8 3.2 0 6.6.6 10.3l.1 19.7h-.2c-.3-1.2-1.1-2.3-1.4-3.4v-5.6c-.5-3.5-.4-7.6-.6-10.8s.5-7.7-.3-11.4c-.7-3-1.9-6.2-2.5-9-.6 1.6 1.2 8.8 1.6 10.3l.4 6c1 5.9.5 13 .5 19.6l-1.4-1.2c-1-1.1 0-4.4-.3-6l-.6-15.2c-.3-1.7.3-5.5-.9-6 0 8.9 1 17.5 1 26.7l-1.5-.4c0-7.1-.8-14 0-21zm2.8 73.8v.8h-.9c0-8.1.3-17.2.1-25.4l1.6-1.7v6l-.2 14a19.3 19.3 0 0 0-.7 6.3zm-2.7-24.8c-4-.1-5.4-9.1-4-13.4.5-1.6 2-2.3 3.2-3.2 9.2 0 6.5 16.9.8 16.6zm-.4 11.2a43.2 43.2 0 0 0 .3-9.4c0-1.3.5-.9 1.2-1.3a25 25 0 0 1 .3 6l-.8 19.7-1.2.4.2-6.7a31.7 31.7 0 0 1 0-8.7zm-2.4 9.2a41.2 41.2 0 0 1 .2-10.8c.5-3.1-.6-6 .1-8.8h1.1l-.1 7.4v10.7l-.5 8-.6.2c-1-1.6 0-4.7-.3-6.7zm0-21.1l.1.3zm-.5-.7l-.3-.6zm-2 19.7l.4-17.8h1.1c.4 9.1-.4 17.9-.4 27.1l-1 .3c0-3-.7-6.8-.3-9.6zm-1.1 3a23 23 0 0 0-.1 7l-1.3.3.5-28.7 1 .1a27.7 27.7 0 0 1 0 9.1c-.8 4.4.4 8-.2 12.1zm1.2-34.4l-.8 2a17.7 17.7 0 0 0 0 6.6v.2h-.3a10.6 10.6 0 0 1 1-9.1c.2.3.2 0 .1.3zm0-2.2l.4-.5c.2.2-.2.4-.4.5zm0 13l-.3.2a2.6 2.6 0 0 1-.5-1.6c.4.3.5 1 .7 1.4zm-1.5-.2l-.2.2c-2.8-3.4-1.3-9.5.9-12.1.2.1-1.2 2.6-1.4 3.3a16.2 16.2 0 0 0 .7 8.6zM122 86l-.7.6-.1-.4a1.1 1.1 0 0 0 .8-.6h.1zm-.8-1l-1.3.2c0-10.6.3-22.3-2.8-30.6a43.4 43.4 0 0 0-4.1-7.3c-1.1-1.8-4.3-6.5-6.1-7l-.1-.7c3 .7 5.6 4.6 7.3 7 6.5 9 7.2 23.3 7 38.4zm-2.9 16.3c-4-3-2-12.1 1.3-15.2l-.2.4a25.8 25.8 0 0 0-2.4 5.8 18.8 18.8 0 0 0 1.3 9zm-.9 11.8l.1-11.6 1.2.6c0 9.8-.7 19.7-.6 29.6l-1 .2-.3-7.5a62.3 62.3 0 0 0 .7-11.3zm1-14.2c-2-5.2 0-8.6 2-12a57 57 0 0 0-2 6c-.6 3.3.9 6.5 1.6 9.1-1-.7-1.1-1.9-1.6-3zm2.8 2.5l.6 1h-.1a1.4 1.4 0 0 1-.5-1zm1.2-10.2v6.2a21.5 21.5 0 0 0 1.2 3c-2.1-2.5-1.8-5.7-1.2-9.2zm.6-3l.1-.2h.1zm.6-.4v-.2h.2zM132 99a25.4 25.4 0 0 0 1.2-3.6v8.5l-.5 23.5-1.5.4zm-8.8-39.7l.2-14.2.3-11.9v-7.5c0-8.3-1-17.3.6-24.8a40 40 0 0 1 6.3.2l13.8.1a31.8 31.8 0 0 1 .2 12.3 15 15 0 0 1-3.7.6c-4.4 1-10.4 1-14 3-1 .6-.5 2.2-.7 3.7a58.6 58.6 0 0 0 .4 12.5c.4 6.8.2 14.3 0 21.2v14.2a59.7 59.7 0 0 0-.2 11.3l.1 4.5-.4.6h-.5l.2-45.4-.7 45.2h-.9l.2-44.2-.7 44.2-.2.1h-.4V59.2zm-.4 27.5l.2-.2s.1 0-.2.2zm0-48.8v1a23.1 23.1 0 0 1-2.5-2zm-3.5-1.8a.7.7 0 0 1-.6-.2zm-4.4 0l.2.2-.1.2-.5-.1a.7.7 0 0 1-.1-.4zm-2.2 2.2l-.2.2-1.8-1.1a3.2 3.2 0 0 1 2 .9zm-4.2.7l.1-.2c3.7 1 12.4 11.8 12.8 16.6 1-6.5-8.2-13.2-11.1-17 6 1.3 8 7.7 11.4 11.7v.2c-.1-3.3-5.6-10.4-8.2-11.2l-.1-.2v-.2a16.7 16.7 0 0 1 8.4 7.9l.2.1c-.1-4.8-5.7-6-7.8-9a16.5 16.5 0 0 1 7.5 5.3l.4.1c-.2-1.7-4-4.7-5.5-5.3l-.5-.6c2.4.5 4.4 2.7 6.1 4.2 0-2.4-2.6-3.3-4.1-4.2 2 .3 2.9 1.6 4.6 2a14.3 14.3 0 0 1-.2 4.7 79.8 79.8 0 0 0-.1 9.4c0 9.2.2 19.3 0 28.7l-.5-16.9a58.8 58.8 0 0 0-2.4-11 42.4 42.4 0 0 0-6.3-10 15 15 0 0 0-4.6-5zm-.5-.5l-1.6-.9a2.3 2.3 0 0 1 1.6.9zm-1.9.6h.2l-.4.1-1.2-1zm12.7 46.4l-1.2 1c-.2-11.4.4-24.2-3.3-32.8-2.5-5.9-6.8-9.6-10.2-14.4 13.3 6 14.9 27 14.6 46.2zm-15.8-49l.4.1-.5.1zm-.7 3.4c7.7 4.1 11.2 13 13 22.9l1 17.8V89a16 16 0 0 0-1 6.6l1 4.1v5.3a28.2 28.2 0 0 1-.2 7.8l.1 4a23.7 23.7 0 0 1-.4 7.5v7.8l-1.3.2.4-15.5.3-14.5V85c-.6-10.2.4-22-3-30.2a43.7 43.7 0 0 0-6-10 22.1 22.1 0 0 0-8.4-7.3v-.2a21 21 0 0 1 4.5 2.7zm2.4 4.3a36 36 0 0 1 5.3 8c4 9.3 3.6 23 3.8 35.4v24.1a100.4 100.4 0 0 1-.4 15c-.3 2 .2 4.4-.6 5.9h-.3c0-5.7-.8-11.5.1-17.2v-6.1a69 69 0 0 0 0-15l.1-4-.3-12V73c-.3-1.8.1-3.6-.2-5.6a62.4 62.4 0 0 0-2.2-11.7A39.3 39.3 0 0 0 98.2 39c-1.6-1.1-3.7-1.6-5.2-2.8 3.4.2 9.9 5.8 11.7 8.1zm-14.3-8c4.2 0 10.7 6.4 12.8 9 8.6 11.2 8.3 27.1 8.3 45.9l-.1 22.5-.3 18.8-.3.3a19 19 0 0 1-.4-4.4v-14.2l.1-7.3c-.8-5.5.8-11.8 0-17.7-.9-5 .3-10.1-.5-15.5-1.6-10.4-2.3-18.4-7-25.7a39.3 39.3 0 0 0-8-8.9c-1.8-1-3.8-1.5-5.6-2.5h-.2zm16.2 106.3l.7-.2h2.6v.9zm2.8 1.5h-2v-.4zm-8.6-4v-.1a41.7 41.7 0 0 1 9.2-.3v1.9a53 53 0 0 0-9.2-1.5zm-10.4 2.8v-.2h.2c3.3.2 5 3.2 8.4 3.7l.2.3c-4.5 0-5.3-3-8.7-3.8zm6 4.4c-1.2.5-3.5-1.2-4.4-2 1.9.3 2.8 1.6 4.4 2zm-19.9-.9l1.9-.5a14.9 14.9 0 0 1 7.6 1.7 33 33 0 0 0-9.4-1.2zm8.3 3.2l-3-.5v-.3zm-12.6 1.7a32.3 32.3 0 0 1-3.7.8c-4.4 1.4-7.5 4.1-11.2 6h-.2v-.3c2.6-1.2 4.7-3.6 7.5-4.7a16.8 16.8 0 0 1 4-1l1.1-.4a13.8 13.8 0 0 1 2.5-.4 8.6 8.6 0 0 0 1.1-.4l8.4.1v.1c-3 .4-6.5 0-9.5.2zm6.1 2.1v.1c-5.8 1-11 1.7-15.4 3.7H62v-.2a41.7 41.7 0 0 1 4.4-2l6.7-1.6zm-16.9 4.2c-.1.9-1.3 1-2 1.2l1.6-1.2zm-7 .2h-.2v-.2c1.4-2.2 9.4-6.9 12.4-7.8 2-.7 5.3-.6 7.4-1.4l6.8.1-.3.4a32 32 0 0 0-21.3 5.2zm2.1.4c-.3 1-1.3 1.3-2.2 1.7l2.1-1.7zm-8.3.3l3.4-1.9c2.7-1.8 5-4 7.9-5.8h.3c-1.5 1.8-8.9 7.9-11.5 7.9zm5.3 0a8.5 8.5 0 0 1-2.4 1.3h-.5v-.1a7 7 0 0 0 2.7-1.8c.3.3.2.3.3.8zm-30.1-.3c-5.2-2-9.4-5.9-15.8-6.5v-.1c2.5-.7 4.7-2.6 7-1.4l.4-.5-1.5-.2v-.1l8-2.7c2.2.4 4.3 1.5 6.8 2a39.5 39.5 0 0 0 16.4-1.5l.3.6a37 37 0 0 1-18.7 2l-6.7-1.7c5.9 4.6 18.2 3.5 25.8 1.4l.2.3c-.4.7-4.7 1.5-5.8 1.7a37.7 37.7 0 0 1-16.3 0c-2-.6-3.6-2.1-5.9-2.1l5.8 3a35.4 35.4 0 0 0 22.8-.6l.2.8-12 2.9h-.1c.6 1.5 2.7.4 4 .5 3.7.4 7-1.6 10.4-1.9a34 34 0 0 1-24.5 2 89.4 89.4 0 0 1-8.8-3.6c-1.6-.7-2.4-1.8-4.8-1.8l6 2.9c2.7 1.2 5.2 2.9 8 4a36.2 36.2 0 0 0 18.8.2 31 31 0 0 0 7-3 14.1 14.1 0 0 1 4.4-2.6c-5.4 7-21 10.2-31.4 6zm23.5 1.4a4.7 4.7 0 0 1-3 .6l2.5-1h.4zm-42.6-5.9l-.1-.2 2.4-1.4a19.5 19.5 0 0 1 8.4 3.3c5.4 3 10.6 6 19 5.9-2.2 1-7.4 0-9.6-.5-7.1-1.6-11.2-7.1-20.1-7.1zm15 6.2a26.9 26.9 0 0 1-7.5-2.4L6 156.3l-2.5-1.7.2-.6c6.8.1 10.5 4.2 15.6 5.7zm14.5-13.3c2.3.6 8.7-1 10-1.7h.3v.4c-5.8 1.3-15.6 4.5-21.6 1.3h-.2l5.2-1.3a54.3 54.3 0 0 1 6.3 1.3zm-5.9-1.4v-.1l5.2-1.3c3.9-.6 7.4.2 10.2-1.4h.2c-1.3 2-11.8 3-15.6 2.8zm55.7-.8a4.6 4.6 0 0 1 2.7.9zm-22.2 5.2l.2-.3c-4.4 1.7-9.6 2.7-13.9 4.3-2-8.2 2.9-11 6.2-15.4l8.5-11.2c1.6-2.2 2.6-4.6 4.2-6.6l6.7-9 3.3 1.7-3.6 1.8c1.5.3 3-1 4.5-1.2l2.6 1-3.9 1.4-.1.2c4.6-.6 8.7-2 13.7-2v-.1a19.3 19.3 0 0 0-3.9-.2l1.5-1.6 4-.3v-.1a11 11 0 0 0-3.6-.6l1.5-3 12.1 5.9c2.4 1 5.5 1.7 7.2 3.4-2.8-1-7.3-3.6-10.2-3.7l2.8 1.1c2.5 1.3 4.9 3.4 8.3 3.7l.1.4c-4.6 0-6.3-2-10-2.5a48.3 48.3 0 0 0 10 5c-2.5 1-6.6-1.9-9-2.3 2.7 2.1 6.2 2.9 9.2 4.7l-.1.2c-3.9-.5-6.1-2.1-9.5-2.7a33.3 33.3 0 0 0 9.1 4.7l.1.2c-4.1 0-5.8-2.4-9.8-2.4 1.8 1.1 9.4 3.5 10 5-4.2-.2-6.2-2.7-10-3.2 2.3 2.4 8.4 3 10.3 5.5v.1c-3.7-.8-6.2-2.4-10-3a38.6 38.6 0 0 0 9.4 4.5l.4.5c-3.5.6-7-2-9.8-3.1h-.4c1 2.2 8.2 3.4 10 5.4h.2v.4c-3.9-.5-6-2.5-9.8-3 2.1 1.9 5.8 2.1 8 4-2.2 1.1-4.9-1-7-1.3l4 2v.2l-11.2 2.8c-10.6 3.2-22 5.4-32.3 8.7zm14.3-91a36.2 36.2 0 0 1 8.6.6c5.7 1.5 10 4.8 15.6 6.2-.8.4-5.7-1.5-6.7-2a39 39 0 0 0-8.7-3.8 30.1 30.1 0 0 0-8.8 0l-2 .3c-.7-.1-1.4-.6-2.2-.8zm-8.8-.5l-.2-.4 5.4-1.3 4.2-.4c7.5 0 11.9 2.1 17 4.5l4 2v.2l-.1.1c-4.5-1.8-8.3-4.7-13.4-5.7a31.9 31.9 0 0 0-11.4.5 13.6 13.6 0 0 1-5.5.5zm31.6 5l-.1-.1.3-.2 5.4.8c-1.8.7-4-.3-5.6-.4zm.2-7.6c-1.9.7-4-1-5.2-1.6a80.9 80.9 0 0 0-11-4v-.1l.2-.2c5.5 0 10.4 5 16 5.9zm-6.9-4.9l5.2 2.1c-1.7.6-4.3-1.3-5.1-2zm8.2.3a1.4 1.4 0 0 1-1.3 0zm-2-4.8l1.2.4a1 1 0 0 1-1.1-.4zm5.4 10.1l-.8.1v-.2h.8zm.3 4.9a.8.8 0 0 1-.9-.1zm-1.7-7.4h.8a.7.7 0 0 1-.8 0zm.2 4.8a1.6 1.6 0 0 1-1.8-.2zM102 61a2.9 2.9 0 0 1-2.3-.5zm-2.7-5.1l.1-.2 2.4.5zm.1-6.8l1.6.2.1.2a3 3 0 0 1-1.6-.4zm1.7 4.5A4.9 4.9 0 0 1 98 53zM99.3 58a10.4 10.4 0 0 1-5.9-2 26.3 26.3 0 0 0 6 2zm7.3 8.3c-1 1-5 .3-5.8-.4zm-3 1.7l-.9.2V68zm4 .8v.5l-4.8.4h-.2a13.5 13.5 0 0 0 5.4.5l.2 1.5a67.9 67.9 0 0 1-9.5-1.3v.2a27 27 0 0 0 9.3 2.1v.2l-.4 1.1c-4 1-10-2.2-13.2-3.1 0 .7 1 .7 1.8 1.2a31.7 31.7 0 0 0 6.7 2.6l3.8.5h.2l-.5 1v.4a33.3 33.3 0 0 1-8.4-2.1c-2.8-1.2-5.2-3.1-9-3l4.2 1.7c3.8 1.7 7.4 3.8 12.5 4.4l-.6 1.2c-8.4-.6-12.9-6.8-22.1-6.7l6 1.6 9.8 4.5 5.8 1.7-.5 1.2c-4-.5-7.5-2.6-10.9-4a9.2 9.2 0 0 0-3.7-1.5l4 1.8c3.1 1.4 6.2 4 10.3 4.3l-.5 1.1c-1.4.7-9.3-3.6-11.8-4 1.4 1.5 8.6 4.4 11 5l-.4 1.2-10.5-3.8c1.8 2 7.1 3.1 9.8 4.6h.2l-.4 1.1-9.6-3.8c.7 2 7.2 3.4 8.8 4.9l-.4.8c-2.6-.4-4.8-2-7.7-2.6a26.8 26.8 0 0 0 7.1 3.5l-.3 1c-1.5.2-3.1-1.3-4.8-1.5v.1l4.2 2a2 2 0 0 1-.6 1.1c-.6.4-3.4-1-4.6-1.2l4.2 1.7.1.2-.7 1.4-2.6-.3 2.1 1.2-.5 1a8 8 0 0 1-3-.5l2.6 1.2-.6 1.2-1.6-.2-.1.2 1.1.4a18 18 0 0 1-2.7 4.7c-2.2 3.7-3.7 9.8-8.7 10.7-3.3.6-9.5-3.5-11.7-4.8l-27-16.4c-5-3-18.5-8-18.6-14.9l4.7-.2L44 76.4 58 74l5.6-.3c13.9-2.6 29.4-3.5 44-5zm1.4 7.1l-1.3.8-.5.8c.8 0 1.6.2 1.8 1l-2.6.6-.2.3a6.6 6.6 0 0 1 2.6.7l.2.7c-1 .4-2.8.4-3.6.7l-.3.5c1 .2 3.1.2 3.8.8l.4.3v.2l-2 .5h-2.9c.5 1.2 2.6 1.9 4.2 1.9v.1a26.3 26.3 0 0 1-5.4-.3l-.1.2a4.6 4.6 0 0 0 2.7 1.5c-.6.8-2 .7-3.5.6v.1a18.2 18.2 0 0 0 7.1 2.3l.2.3c-1.8 1-6.7-.5-8.5-.8 1.3 1.6 4.1 1.6 5.6 3h.2c-2.2.8-5-.7-6.6-1v.2l6 2.8.2.4a21.2 21.2 0 0 1-7.1-1.8c1.2 2.4 7.3 2.8 9.9 4.1-4.6 1-7.5-1.7-11.3-1.9 1.4 1.6 8.3 4.2 11.2 4.6l.1.4a19.7 19.7 0 0 1-8.3-2 12.5 12.5 0 0 0-3.7-1.4v.1a39.7 39.7 0 0 0 11.7 5l.2.3c-3.1 1.2-10.8-3.3-13.3-3.8.5 1 8.6 4.6 10.1 5.2l.4.3c-3.7 1.2-6.4-2.3-9.7-2.7a35.5 35.5 0 0 0 12.4 5.6l.1.2c-4.9 0-7.5-2-11.3-3A44.9 44.9 0 0 0 109 110l.1.2v.2c-2.5.7-7.6-2.3-10-3a27 27 0 0 0 9.7 4.6c-2 1.5-8.6-2.4-11-2.5a30.3 30.3 0 0 0 7.6 3.7c1.4.5 2.9.5 3.7 1.6v2.3c-4.3-2.3-9-4.2-13.7-6.1l-5.9-2.8-.1-.2c.5-.7 2.5-.3 3.3-.2v-.2L90 107v-.1l.5-1a4.4 4.4 0 0 1 2.1-.4l-1.1-.4v-.1l.8-1.3c.3-.3.8-.2 1.4-.2v-.2l-1-.2c.3-.7.7-1.7 1.6-1.8a1.5 1.5 0 0 0-.3-.3 177.9 177.9 0 0 0 11.6-22.2l3-5.6a7 7 0 0 1 .3 2.7zm-.1 12.3c-.3.3-.6.3-1.2.3-.3-.3-.3-.2-.3-.6.6 0 1 0 1.2.3zm.6 7.2a2.6 2.6 0 0 1-2.1.2l-.3-.3.3-.4zm-1.3-2.7l.1-.2.8.1h.3c-.2.5-.4.5-1 .3zm1 12.4l-1.6-.2-.2-.6 1.7.5zm-21 38a1.6 1.6 0 0 1 .4.5c.8.8 2.4.7 3.1 1.7l-4-1.6v-.3zm9.6.6c2.1.5 5.8.6 7.3 1.7a10 10 0 0 1-7.3-1.7zm-.3-2.6l8.6 2.6v.3a17.8 17.8 0 0 1-8.7-2.8zm0-95.1l-1.1-.2v-.3zm-3.2-3.3l-.6-.2c-.4-.2-.2 0-.4-.4zm-1.7-2.9l-4.6-2a10.4 10.4 0 0 1 4.5 2zM82 37.6l.3-.3c2 .7 9.4 3.1 10.3 4.7A48.7 48.7 0 0 0 82 37.8zM78.4 39c5.3 0 8.9 2.7 12.7 4.3l4.6 2.1v.2c-4.5-.7-8.3-3.5-12.1-5.1-1.3-.6-3.6-.3-5-1-.4-.3-.2-.1-.3-.5zm-5.1 2.7l1.4-.6c7.6 0 12 2.7 17.3 5l6.5 2.8c-5.6-.9-9.7-4.1-15-5.8l-5.8-1h-4.4zm-2.7 3c.8-1 1.8-.5 3.2-1a32.7 32.7 0 0 1 13.6 2.7 12 12 0 0 1 1.4.5l.7.4 2.3 1 6.2 2.3c-3.2.6-6.2-2-8.5-3.3l-2-1A38.1 38.1 0 0 0 70.8 45h-.1zm-2.4 2.6c1.9-1.1 4.7-.4 7-1.2 6.2 0 12.8 1.8 16.3 4.4a114.1 114.1 0 0 0-13-3.3c-3.3-.6-7.9 1.5-10.3.6H68zm-.7 2.5a55.5 55.5 0 0 0 7-1.2 18 18 0 0 1 6.4.4l.2.1c-1 1-2.8 0-4.3.4l-9.3 1.2zm-2 3.3a24.5 24.5 0 0 1 7.6-1.8l2.7-.2c5.8 0 13.9 2 16.9 4.6v.1c-4.2-.7-7.4-3-11.6-4.2-4.7-1-11.6 1-15 2.3l-.5-.1zm-1 3.1c1.2-2 7.8-1.6 10.6-2.6a35.2 35.2 0 0 1 9.6 1c5 1.5 9 4.5 14.3 5.8v.2a22.4 22.4 0 0 1-7-2.5 52 52 0 0 0-10-3.6 29.4 29.4 0 0 0-13.8 1.3l-3.7 1-.3-.3zM37.1 53L48 55c8.7 2.2 17.7 3.9 27 5.7 4.2.9 8.8 2.4 12.9 3.4l9.2 1.7 4.7 1.4.1.8v.3l-5.6.7c-4.7-1.1-7.7-4.3-14.1-4.1.4.6 3 .7 3.8 1l8.4 3.3C91.8 70.4 87 67 83 67.6c2.5 1 5.5.5 7.3 2.1v.1c-7.5.1-13.9 2.5-21.1 2.6v-.1l6.8-1.8c-3.4-1.3-8.1 1.8-10.5 2.5l-3.6.5a19.8 19.8 0 0 1 7.8-4.1l.1-.2c-5.2 0-6.9 4.5-11.6 4.5 1.9-2.2 5-3.1 7-5.2h.2a15 15 0 0 0-8.6 5.4l-2.2.2 6.1-5.6c-4.1 1.5-5 5.6-10.2 6 1.4-1.4 3.7-2.3 4.6-4.1-4 2.4-6 5.1-12.6 5.2a19 19 0 0 0 8.3-4.6l-3 1.6a25.2 25.2 0 0 1-9.1 3.2L32 69l-4.6-4.5a28.2 28.2 0 0 0-4.4-5c-3.6-3-7-5-7.8-10.7a168.6 168.6 0 0 1 22 4zm-22 22.2l-.4-23.3c2.1 2.8 4.2 6.2 7.5 7.8l.9 1-3-.6c1 1.7 4.3.9 5.4 3.1l.3.3-3.4-.4-.1.2v.2a32.2 32.2 0 0 1 4.5 1c.5.4.7 1.1 1.3 1.4v.4c-1.3 0-4-.6-4.8 0v.2c2.3 0 3.6.7 5.8.7l1 1.3.3.2v.1a10.2 10.2 0 0 1-5.3-.2l-.3.1v.1c1.3 1 4.2 1 6.4 1l.8.8.8.9h-5l-.1.3a48.9 48.9 0 0 0 5.8.3l1.9 1.6-3.7.5-.1.2a18.4 18.4 0 0 0 4.5 0L38 76l-12.2 1.8a1.5 1.5 0 0 0-1 1.9c-1.6-.2-2.2-1-3.8-1a8.3 8.3 0 0 0 4.2 2.1l.4 1.7v.1c-1.2-.3-2-.8-3.3-1a8.3 8.3 0 0 0 3.5 1.7l.3 1.2v.4l-4-1a7.8 7.8 0 0 0 4.3 2l.3 1.3-5.4-1.1c.7 1.2 4.1 2 5.8 2.3l.4 1.8-5.7-1.7a15 15 0 0 0 5.9 2.5l.5 1.9-6-1.8c1 1.4 4.5 1.9 6.2 2.5l.4 1.8c-1.6-.4-4-1.8-5.6-1.6-.7.5 4.8 1.8 5.7 2.4.5.3.6 1 .8 1.6l-6-1.6a17.5 17.5 0 0 0 6.2 2.3l.6 2-6.4-1.7a13.9 13.9 0 0 0 6.6 2.4l.6 1.8v.1l-7.1-1.9a14.6 14.6 0 0 0 7.3 2.6l.5 1.8-7.6-2a14.2 14.2 0 0 0 8 2.6l.1.5-1.1.7-6.8-1.8c.8 1.5 3.7 1.7 5.2 2.5l-2 1c-.7-.9-2-1-3.3-1a5.1 5.1 0 0 0 2.4 1.2l-6.8 3.8-2.6 2.5A280.3 280.3 0 0 0 15 75.1zm23 48.1a183.7 183.7 0 0 1-20.8-1.7c-2.3-8.8 11.5-10.6 15.2-14.3l1.2 3h-3v.1a18.7 18.7 0 0 0 3.1 1.1 2.3 2.3 0 0 1 .6 1.4l-5.1-.4a15.2 15.2 0 0 0 5.5 1.5l.5 1.5a54.6 54.6 0 0 1-5.7-.5c1 1 4.5 1.2 6.1 1.6l.5 1.6v.1a42.4 42.4 0 0 1-7-1.1c1 1.3 5.2 2 7.4 1.9l.5 1.3v.3a35.2 35.2 0 0 1-5.4-.5h-.1c.6 1 4.3 1.5 5.9 1.5l.6 1.6zm-3.4-12.9l-4-11.7a2.8 2.8 0 0 0 1.7.1h.2l-2-.2-.7-2.4h1.6L30 96l-.7-2.3v-.1l1.7.3-1.5-.5c-1-.6-2.8-9.3-3.2-11a9.6 9.6 0 0 0 4.2 3.5v.2H29v.3l3.2.4 2.8 1.7.1.2h-4l-.1.2a18.2 18.2 0 0 1 8 1.8v.1l-3 .4v.1c2.8 1.2 4.2-.7 6.5 1.5L38.2 94H38c1.6.5 3.9-1.2 5.5-.7l1.7 1.2a10.7 10.7 0 0 1-4.7 1.5v.2a27.7 27.7 0 0 0 5.4-1l2 1.2-5 1.7h-.1c1.6.5 4.6-.8 5.9-1.3l1.6 1-4 2.1-.2.4 5.2-1.8 1.4.7v.2l-3.7 2.4-.2.1a13.3 13.3 0 0 0 4.8-2.2l1.3.8v.2l-3.3 2.5v.1c1.7-.5 2.8-1.8 4.3-2.2l1.2.6a13.2 13.2 0 0 1-4.8 3.6l-.1.3c2-.6 3.7-2.4 5.6-3.3.3-.2.8.3 1.3.5l.1.2a6.7 6.7 0 0 1-2.3 2l-1.2 1.3a9.9 9.9 0 0 0 4-3l1.2.4.1.2-2.7 2.6-1 1.3 4-3c.6-.7.8 0 1.5.2a20.4 20.4 0 0 1-4.5 4.7l-.4.6c2-1.4 3.8-3.3 5.9-4.8l1.1.6c-1.6 2-4.5 3.5-5.7 5.8l-.2.3c2.5-1.2 4-4.2 6.6-5.4.3-.2.6 0 1.1.3l.2.3a18.7 18.7 0 0 0-6 5.6l-.3.4 6.7-5.1c.5-.4.8.1 1.3.4l.1.2a24 24 0 0 0-7.5 6.7c3.1-1.5 6.3-7 9.7-5.6l.1.2a33.7 33.7 0 0 0-10 8.4h.1a34 34 0 0 0 5-4.1 50 50 0 0 1 5.8-3.8l.6.3.1.2-8.1 6.6c-1.2 1-2 2.7-3.4 3.3l-.7 1c3.4-2.2 5.9-5.5 9.5-7.5l-3.2 4.2a31.7 31.7 0 0 0-6.6 6l-.7.7c2.6-.8 3.8-3.3 6-4.5-2.8 4.4-6 10.2-11 12.5l-.1.3 2.3-.8a9.7 9.7 0 0 1-6.2 4.5c.4.2 2.2-.5 3.2-.5a6.6 6.6 0 0 1-4.5 3.2l-.2.3 2-.3.2.1c-2.2 3.1-4.5 5-4.5 10.8l-2.1-8c-2.9-11.6-6.4-21.8-9.7-32.8zm-26.1 35c7.7-2.6 16.3-4.1 24.4-6.6l8.3-2h.5l.1.8-2.6.8-.1.3 2.8-.7.2.5-3.7 1-.1.3 4.1-.7.1.3-1.3.5v.2l1.3-.2.2.2c-3.6 1.8-8.3 2.2-12.3 3.3-9 2.4-20.9 5.3-27.3 10.3.1-3 3-2.5 4-4.3-1.8.7-4.5 1.7-4.6 4.1h-.1l-.3-.7c.3-3.3 7.7-6.4 11-7l.3-.4c-3.4.4-11.5 3.8-12.2 6.7-2-2.8 5.5-6 7.3-6.6zm102.5 4.2c-6.8 2.3-14 4.2-21 6.3-8.8 2.6-17.3 6.2-26.5 8.5l-14.8 2.1a54.7 54.7 0 0 1-16.9 1.3h-3.6a130 130 0 0 1-17.3-3.2l-7.5-3-.2-.3a11 11 0 0 1 2.5.7h.3c-.4-1-3.4-1.9-4.5-2.4l-.2-.9a30.6 30.6 0 0 0 4.6 1.7h.5l-5-2a1.6 1.6 0 0 1-.3-1l2.7 1h.2l-2.8-1.5-.3-1a20.8 20.8 0 0 0 5 2.4h.4c-.8-1-4.4-2.5-5.7-3.8v-.3c8.3 6 26.6 9.8 40.7 7.6l6.8-.2 11.8-1.7 15.7-4.7c5-1.4 9.7-3 14.4-4.7l10.7-2.8 8.3-2.5c2.9-.8 6.3-1 8.6-2.3h.3l-.1 1.6c-2.9.8-11.8 3-13.6 4.5l13.6-4.2.2 1.7v.5l-2.4.6-.1.3a11.7 11.7 0 0 0 2.6-.5c-1 1-5.4 1.7-7 2.3zm94.6-34.4c-4.2 1.1-8.3 2.8-12.2 4l-6.4 1.4-12.2 4-4.9 1.2A96.1 96.1 0 0 1 156 130c-1.3.3-2 0-3 .3-2.6.7-5.8 2.5-8.8 2.6v-.1l10.2-3.3.1-.2v-.2l-10.4 3c-7.7 2.2-15.4 4.1-22.9 6.4-1.8.6-9.5 2-9.7 3.6a28.1 28.1 0 0 0 8-2.3c6.2-1.9 11.7-3 18-4.9l5.9-1.9c-.4 1-7.5 2.4-9.1 2.9l-4.9 2c-6 2.4-11.8 4-18.2 6h-.4l.1-9.7 7.2-1.4 7-2.7 7.6-1.7c7-2.2 14.3-4.1 21.5-6.4l9.9-2c3.1-1 6.5-2.4 10-3.1s6.6-.6 9.5-1.6 6.6-2.5 9.8-3.5c4.2-1.3 8.6-1.8 12.5-3.3h.2zm.3-7.3h-.5l1-13.8c.8 2.4-.5 10.8-.5 13.8zm1.3-34h-.1l-.1-8.6a108.9 108.9 0 0 1-1.1-13.6 14.3 14.3 0 0 1 .6 3.4c1.2 5.7.8 12.4.7 18.8z" fill="url(#b)"/>
  <path class="c" d="M198.1 115.5a4.3 4.3 0 0 0 2.7-.8h-.2zM195.7 114.4a12.2 12.2 0 0 0 5.2-1.8h-.5c-1.4.8-3.7.7-4.7 1.8zM172.7 121.9c1.2.7 7.7-1.9 9.1-2.4l-.2-.2zM194.4 116.9l.7-.1v-.2h-.4zM172.2 120.3l-.7-.1-3.5 1.1h-.2c1.2.5 3.2-.5 4.3-.8zM196.9 112.3v-.2h-.3l-2 .6v.2zM44.5 164.4a3.3 3.3 0 0 0 2.4 0h.2l-.8-.2zM16.5 148.9v-.1l-.5-.1.5.2zM28.2 116.9h.6a2.4 2.4 0 0 0-1.3-.5c.1.2.3.3.7.5zM9.6 159.6l-2.2-.8a4 4 0 0 0 2.2 1zM107.3 150l-.2.2 6.9-2v-.3h-.5zM107.1 149h-.3l-1.2.4 1.5-.3zM115.9 146.4h-.4l-1.2.4a2.1 2.1 0 0 0 1.6-.3zM179.2 116.6l-.2-.2-1.7.4v.1a3.5 3.5 0 0 0 1.9-.3zM168.9 117.7v-.2h-.8l-9.2 2.8c1.6.5 8.3-2 10-2.6zM110.2 148.1h-.5l-2 .8 2.3-.6zM117 144l.2-.4h-.5l-9.4 3c.6.3 8.2-2.3 9.7-2.7zM95.1 129.8a3.5 3.5 0 0 0 1.7.3 2.4 2.4 0 0 0-1.7-.3zM96.4 120.5a1.3 1.3 0 0 0-1-.3 1.3 1.3 0 0 0 .5.3zM93.6 114.8l-2.8-.4c.4.4 2 .5 2.8.5zM89.8 116.8c-.1.2 1.8.3 2.4.3a4 4 0 0 0-2.4-.3zM97.8 113.8v-.2l-1-.2v.2l.6.2zM93.8 124.3l-1.1-.1-.3.2h1.3zM98.8 123.8h.4a1.4 1.4 0 0 0-1-.5zM98.8 121.1h-.6l.6.1zM97.8 116.3h.1v-.2l-.7-.3c.2.4.3.3.6.5zM97.3 120.8l.9.3v-.1zM90.3 88.1h.6v-.2l-1.8-.4c.2.5.7.5 1.2.6zM90.8 102.7h.5v-.1l-.7-.1zM89.5 95.3a2.9 2.9 0 0 0 1.9.3 2.8 2.8 0 0 0-1.7-.4zM90 102.4l-.7-.2c.2.2.2.2.6.2zM91.6 93l-1.2-.3c0 .5.4.4 1 .6zM88 107.3h.7c-.2-.2-.2-.1-.6-.2zM88 104.8l.8-.1-.6-.1zM87.7 82.8a1.6 1.6 0 0 0 .8.3h.3l-.9-.4zM98.8 132.7h-.4l.4.2zM88.7 85.4l1.4.2v-.1l-1.3-.3zM88.5 102.2H88l.5.1zM61.7 131.9c.4.3 1.7-.8 2-1.4h-.2zM60.8 143.7l-.3.4h.2l2-1.8h-.3zM67.6 124l-1 .8-.8 1 2-1.8zM54.3 149.2v.2l3.4-1.6v-.2h-.3z"/>
  <path d="M38 156.2V155c-2-1.1-4.8-.9-7.3-1.5-3.7-.9-6.8-2.6-10.2-3.6l-.2.5c3.4 1.8 7 4.5 11 5.4z" fill="#ed6a12"/>
  <path class="c" d="M27.5 146.9h.7v-.3l-1.5-.2zM67 127.7c.7-.6 1.8-1.3 2.1-2.2H69c-.6.7-1.6 1.2-2 2.2zM57 146v-.3h-.8l-.1.3.6-.1zM71.2 115.8l-.4.4.6-.4zM79.5 117.8h-.2a22.5 22.5 0 0 0 7.9-1.2h-2.9c-1.5.7-3.5.4-4.8 1.2zM70.6 121.7l-1.6 1-.1.3v.1l1.7-1 .5-.4zM77.6 118.2l1-.1v-.1h-.4zM98.2 130.5h.3l-.5-.2zM99.2 135.5h.4a2.9 2.9 0 0 0-1.9-.5zM76.2 118.8l1-.3v-.1h-.3zM71.2 124l-.2.3 1.2-.6.1-.4h-.2zM71.5 118.3l-.5.6.2.2 1.1-.8.2-.5h-.4zM74.6 116.8l.3-.2h-.2zM73.4 117.4l1-.5h-.2c-.3.2-.6.2-.8.5zM24.6 71l1.5.4a2.7 2.7 0 0 0-1.5-.4zM58.6 67.6h-.2l-1.8 1.1v.4l1.7-1zM55.4 68l-1.6 1.1-.2.3 2-1.2zM22.2 107.6c.2.4 1.3.4 1.7.5h.4a3.8 3.8 0 0 0-2.1-.5zM65 66.5h-.5l-2.3 1-.2.3 2.8-1.1zM24 105.7l.2-.2-1-.3v.2l.8.3zM71.9 66.7v-.1l-.5-.1-.9.2v.2l1.3-.2zM67 66h-.6l-.6.3-.1.2 1.2-.2zM70.8 68.7l-.1.2 1.7-.3.1-.2h-.7zM22.7 98.3h-.4l.4.2zM66.3 68l2.6-.8.1-.2h-.3c-.9.4-1.9.3-2.4 1zM20.8 83.6h.4v-.3h-.5zM20.7 86.1v-.3l-.6-.1v.2l.2.2zM19.5 60.2V60l-.8-.2v.3l.3.1zM22.2 93.6v-.2l-.7-.1.2.3zM21 63.1l-.6-.1v.2h.6zM29.7 110.4l.1-.2H28.1v.2l.1.2zM74.1 68.3l-.5-.1-.7.2H74zM22.6 65.6v-.3l-1-.2-.3.1 1 .4zM27.4 114l-.8-.4c.3.3.3.3.8.3zM22.7 68c-.2-.2-.3-.3-.8-.3a1.3 1.3 0 0 0 .8.3zM88.6 80.5l.2-.1v-.1l-2.3-.3a3.8 3.8 0 0 0 2 .5zM90 78.5h.1l.1-.2v-.1l-1.4-.2c.2.4.7.4 1.2.5zM91 100.1h.6v-.1h-.8zM87.7 77.9v-.1l-2-.3-.2.3 2.1.2zM90.3 81h.5a1.7 1.7 0 0 0-1.2-.5c.1.3.2.3.7.5zM91.6 91v-.3a10.6 10.6 0 0 0-3.8-.8c.5.7 2.9.4 3.8 1zM89.5 83.3l1.5.2-.1-.2-1.3-.2zM90.5 97.9a2.3 2.3 0 0 0 1 .4h.3v-.1a1.7 1.7 0 0 0-1.3-.3zM93.7 93.7v-.2l-1.5-.3-.1.2 1 .3zM88.1 75.3L85 75c.5.5 2.3.6 3.2.6zM76.1 68.3A1.7 1.7 0 0 0 75 68l-.1.3 1-.1zM51.2 70.8l-.2.1h.2zM83.2 75c-.2-.2-.2-.2-.6-.2h-1a2.9 2.9 0 0 0 1.6.2zM79 68h.3-.6c-.3.3.3.1.4 0zM81.2 65.3h-.8l-1.1.1h1.9zM97.4 109.2h.4v-.3l-1-.1c.2.3.3.3.6.4zM95.1 104h.1v-.3h-.5zM94.4 108.3h.4v-.2l-.6-.1zM98.3 107.2v-.2l-.6-.1.2.3z"/>
</svg>
