<svg style="position: absolute; width: 0; height: 0; overflow: hidden;" version="1.1" xmlns="http://www.w3.org/2000/svg" xmlns:xlink="http://www.w3.org/1999/xlink">
    <symbol id="cepr-icon">
        <g>
            <path d="M12.6,33.6c0,0.9-0.8,1.7-1.7,1.7c-0.9,0-1.7-0.8-1.7-1.7v-2.3c0-0.9,0.8-1.7,1.7-1.7c0.9,0,1.7,0.8,1.7,1.7
                V33.6z M21.9,36c0,0.9-0.8,1.7-1.7,1.7s-1.7-0.8-1.7-1.7v-4.6c0-0.9,0.8-1.7,1.7-1.7s1.7,0.8,1.7,1.7V36z M21.9,12.1c0,0.9-0.8,1.7-1.7,1.7s-1.7-0.8-1.7-1.7V9.2c0-0.9,0.8-1.7,1.7-1.7s1.7,0.8,1.7,1.7V12.1z M8,20.9c0,0.9-0.8,1.7-1.7,1.7s-1.7-0.8-1.7-1.7v-1.7c0-0.9,0.8-1.7,1.7-1.7S8,18.2,8,19.1V20.9z M12.6,23.2c0,0.9-0.8,1.7-1.7,1.7c-0.9,0-1.7-0.8-1.7-1.7v-9.3c0-0.9,0.8-1.7,1.7-1.7c0.9,0,1.7,0.8,1.7,1.7
                l0,0V23.2z M17.3,41.8c0,0.9-0.8,1.7-1.7,1.7s-1.7-0.8-1.7-1.7V27.8c0-0.9,0.8-1.7,1.7-1.7s1.7,0.8,1.7,1.7l0,0V41.8z M17.3,18c0,0.9-0.8,1.7-1.7,1.7s-1.7-0.8-1.7-1.7v-7c0-0.9,0.8-1.7,1.7-1.7s1.7,0.8,1.7,1.7V18z M26.6,30.1c0,0.9-0.8,1.7-1.7,1.7s-1.7-0.8-1.7-1.7v-3.5c0-0.9,0.8-1.7,1.7-1.7s1.7,0.8,1.7,1.7V30.1z M31.2,38.3c0,0.9-0.8,1.7-1.7,1.7s-1.7-0.8-1.7-1.7V23.8c0-0.9,0.8-1.7,1.7-1.7s1.7,0.8,1.7,1.7V38.3z M35.9,32.5c0,0.9-0.8,1.7-1.7,1.7s-1.7-0.8-1.7-1.7v-5.8c0-0.9,0.8-1.7,1.7-1.7s1.7,0.8,1.7,1.7V32.5z M35.9,20.9c0,0.9-0.8,1.7-1.7,1.7s-1.7-0.8-1.7-1.7v-6.4c0-0.9,0.8-1.7,1.7-1.7s1.7,0.8,1.7,1.7V20.9z M31.2,18.5c0,0.9-0.8,1.7-1.7,1.7s-1.7-0.8-1.7-1.7v-2.3c0-0.9,0.8-1.7,1.7-1.7s1.7,0.8,1.7,1.7V18.5z M40.5,26.1c0,0.9-0.8,1.7-1.7,1.7S37,27,37,26.1v-5.8c0-0.9,0.8-1.7,1.7-1.7s1.7,0.8,1.7,1.7V26.1z"/>
            <circle cx="24.8" cy="9.2" r="1.7"/>
        </g>
    </symbol>
    <symbol id="logo-small" viewBox="0 0 101.3 29">
        <path fill="var(--logo-darkBlue)" d="M0,14.67c0,-9.2 6,-14.67 14.06,-14.67c3.76,0 7.37,0.87 8.94,1l-0.46,8.47l-4.11,0l-1.3,-5.81c-0.41,-0.46 -1.44,-0.91 -3.49,-0.91c-3.76,0 -6.31,3.72 -6.31,11.43c0,7 2.09,12.09 6.46,12.09c2.28,0 3.12,-0.54 3.76,-1.18l1.71,-4.09l3.73,0.35l-0.69,6.19c-2.58,0.23 -4.14,1.44 -8.89,1.44c-8.96,0.02 -13.41,-5.69 -13.41,-14.31Z M27.79,3.5l-3,-0.54l0,-2.66l20.83,0l0.49,6.7l-3,0l-1.33,-3.81l-7.49,-0.38l0,9.88l4.64,-0.11l0.68,-3.12l2.62,0l0,9.54l-2.62,0l-0.61,-3.31l-4.68,-0.11l0,10.33l8.32,-0.53l2.32,-4.9l3.23,0.91l-0.91,7.14l-22.41,0l0,-2.53l2.92,-0.38l0,-22.12Z M52.63,3.5l-2.81,-0.5l0,-2.7l6.18,0c1.71,0 3.46,-0.22 6.35,-0.22c8.36,0 10.79,3.07 10.79,8.47c0,6.42 -4.07,10.26 -11.4,10.26c-1.1,0 -2.32,-0.08 -2.62,-0.12l0,6.92l5,0.42l0,2.5l-14.41,0l0,-2.53l2.92,-0.38l0,-22.12Zm9,12.76c2.73,0 4.94,-1.78 4.94,-7.56c0,-4.29 -1.71,-6.08 -4.94,-6.08c-0.842,-0.004 -1.683,0.073 -2.51,0.23l0,13.22c0.817,0.156 1.649,0.22 2.48,0.19l0.03,0Z M74.58,26l2.93,-0.38l0,-22.16l-2.78,-0.53l0,-2.63l5.85,0c2.21,0 3.73,-0.3 6.42,-0.3c8.06,0 11,2.28 11,7.6c0.147,3.528 -2.059,6.755 -5.4,7.9c4.37,1.6 5.81,9.73 7.6,10.18l1.1,0.35l0,2.5l-7.23,0c-1.86,0 -3.8,-10.9 -6.65,-12l-3.42,0l0,9.12l3.38,0.38l0,2.5l-12.8,0l0,-2.53Zm16.53,-18.13c0,-3.58 -1.26,-5.29 -4.71,-5.29c-0.804,-0.011 -1.608,0.053 -2.4,0.19l0,11.17c0.972,0.12 1.952,0.16 2.93,0.12c2.58,0 4.18,-1.94 4.18,-6.19Z" />
    </symbol>
    <symbol id="logo-med" viewBox="0 0 390 120">
        <g fill="var(--logo-darkBlue)">
            <path d="M241.74,48.49c0.818,0.009 1.631,0.123 2.42,0.34l-0.27,1.64c-0.602,-0.362 -1.298,-0.539 -2,-0.51c-1.44,0 -2.56,1.11 -2.56,3c0,1.89 1,3.2 2.7,3.2c0.726,-0.01 1.438,-0.202 2.07,-0.56l0,1.54c-0.71,0.307 -1.476,0.463 -2.25,0.46c-0.087,0.005 -0.175,0.008 -0.263,0.008c-2.309,0 -4.21,-1.9 -4.21,-4.21c0,-0.109 0.004,-0.219 0.013,-0.328c-0.01,-0.121 -0.016,-0.242 -0.016,-0.363c0,-2.315 1.905,-4.22 4.22,-4.22c0.049,0 0.097,0.001 0.146,0.003Z    M245.5,48.58l5.44,0l0,1.42l-3.57,0l0,2.22l2.74,0l0,1.41l-2.74,0l0,2.37l3.95,0l0,1.5l-5.82,0l0,-8.92Z    M252.71,48.58l1.72,0l3.33,5.25l0.67,1.33l-0.17,-2.16l0,-4.42l1.74,0l0,8.92l-1.87,0l-3.19,-5l-0.7,-1.43l0.2,2.13l0,4.3l-1.73,0l0,-8.92Z  M263.89,50l-2.55,0l0,-1.42l7,0l0,1.42l-2.54,0l0,7.5l-1.88,0l-0.03,-7.5Z     M269.47,48.58l5.44,0l0,1.42l-3.58,0l0,2.22l2.75,0l0,1.41l-2.75,0l0,2.37l4,0l0,1.5l-5.82,0l-0.04,-8.92Z  M276.67,48.58l0.86,0c0.55,0 1.09,-0.09 2.37,-0.09c1.67,0 3.21,0.59 3.21,2.69c0.15,1.098 -0.459,2.169 -1.48,2.6c0.73,0.61 1.08,2.06 1.66,3.08l0.37,0.64l-2.07,0c-0.128,-0.204 -0.238,-0.418 -0.33,-0.64c-0.5,-1 -0.68,-2.74 -1.55,-2.75c-0.29,0 -0.67,0 -1.17,0l0,3.39l-1.87,0l0,-8.92Zm3.09,4.24c0.039,0.003 0.079,0.005 0.118,0.005c0.785,0 1.43,-0.646 1.43,-1.43c0,-0.052 -0.002,-0.104 -0.008,-0.155c0,-0.7 -0.23,-1.36 -1.62,-1.36c-0.382,-0.005 -0.764,0.028 -1.14,0.1l0,2.81c0.24,0.03 0.92,0.03 1.22,0.03Z  M237.88,60.58l5.41,0l0,1.42l-3.52,0l0,2.34l2.59,0l0,1.44l-2.59,0l0,3.72l-1.89,0l0,-8.92Z    M248.05,60.49c2.47,-0.07 4,1.79 4,4.54c-0.06,3.08 -1.76,4.52 -4.13,4.56c-2.57,0.06 -4.12,-1.85 -4.06,-4.6c0.01,-3.08 1.78,-4.43 4.19,-4.5Zm2,4.48c0,-1.75 -0.67,-3.06 -2.07,-3.06c-1.24,0 -2.27,0.86 -2.27,3.15c0,1.76 0.72,3.15 2.18,3.15c1.46,0 2.19,-1.01 2.19,-3.21l-0.03,-0.03Z    M253.33,60.58l0.86,0c0.55,0 1.09,-0.09 2.37,-0.09c1.67,0 3.21,0.59 3.21,2.69c0.15,1.098 -0.459,2.169 -1.48,2.6c0.72,0.61 1.08,2.06 1.66,3.08l0.37,0.64l-2.07,0c-0.132,-0.201 -0.243,-0.416 -0.33,-0.64c-0.51,-1 -0.69,-2.74 -1.55,-2.75c-0.3,0 -0.67,0 -1.18,0l0,3.39l-1.86,0l0,-8.92Zm3.09,4.24c0.053,0.006 0.106,0.009 0.159,0.009c0.784,0 1.43,-0.646 1.43,-1.43c0,-0.053 -0.003,-0.106 -0.009,-0.159c0,-0.7 -0.24,-1.36 -1.62,-1.36c-0.386,-0.005 -0.771,0.029 -1.15,0.1l0,2.81c0.21,0.03 0.88,0.03 1.19,0.03Z  M264.48,60.58l5.44,0l0,1.42l-3.57,0l0,2.22l2.74,0l0,1.41l-2.74,0l0,2.37l3.95,0l0,1.5l-5.82,0l0,-8.92Z   M275.39,60.49c0.821,0.008 1.638,0.122 2.43,0.34l-0.27,1.64c-0.603,-0.36 -1.298,-0.538 -2,-0.51c-1.45,0 -2.57,1.11 -2.57,3c0,1.89 1,3.2 2.71,3.2c0.726,-0.01 1.438,-0.202 2.07,-0.56l0,1.54c-0.71,0.309 -1.476,0.466 -2.25,0.46c-0.104,0.008 -0.209,0.012 -0.314,0.012c-2.309,0 -4.21,-1.901 -4.21,-4.21c0,-0.114 0.005,-0.228 0.014,-0.342c-0.01,-0.118 -0.015,-0.236 -0.015,-0.354c0,-2.315 1.905,-4.22 4.22,-4.22c0.062,0 0.123,0.001 0.185,0.004Z    M282.78,60.49c2.47,-0.07 4,1.79 4,4.54c-0.06,3.08 -1.76,4.52 -4.14,4.56c-2.56,0.06 -4.11,-1.85 -4.06,-4.6c0.02,-3.08 1.79,-4.43 4.2,-4.5Zm2,4.48c0,-1.75 -0.68,-3.06 -2.07,-3.06c-1.39,0 -2.27,0.86 -2.27,3.15c0,1.76 0.72,3.15 2.18,3.15c1.46,0 2.19,-1.01 2.19,-3.21l-0.03,-0.03Z     M288.36,60.58l1.73,0l3.32,5.25l0.67,1.33l-0.17,-2.16l0,-4.42l1.74,0l0,8.92l-1.87,0l-3.18,-5l-0.71,-1.5l0.2,2.13l0,4.37l-1.73,0l0,-8.92Z     M301.2,60.49c2.47,-0.07 4,1.79 4,4.54c-0.05,3.08 -1.75,4.52 -4.13,4.56c-2.57,0.06 -4.12,-1.85 -4.06,-4.6c-0.01,-3.08 1.78,-4.43 4.19,-4.5Zm2,4.48c0,-1.75 -0.68,-3.06 -2.08,-3.06c-1.24,0 -2.27,0.86 -2.27,3.15c0,1.76 0.72,3.15 2.18,3.15c1.46,0 2.21,-1.01 2.21,-3.21l-0.04,-0.03Z    M307.15,60.58l2.62,0l1.23,4.69l0.45,2l0.34,-2l1.07,-4.69l2.55,0l1.06,8.92l-1.87,0l-0.43,-4.78l-0.17,-2.72l-0.66,2.73l-1.28,4.87l-1.46,0l-1.42,-4.87l-0.66,-2.73l-0.21,2.73l-0.38,4.78l-1.73,0l0.95,-8.93Z" />
            <rect x="318" y="60.58" width="1.88" height="8.92" />
            <path d="M325.72,60.49c0.821,0.009 1.638,0.123 2.43,0.34l-0.27,1.64c-0.604,-0.359 -1.298,-0.536 -2,-0.51c-1.45,0 -2.57,1.11 -2.57,3c0,1.89 1,3.2 2.71,3.2c0.726,-0.01 1.438,-0.202 2.07,-0.56l0,1.54c-0.71,0.309 -1.476,0.466 -2.25,0.46c-0.084,0.005 -0.168,0.008 -0.253,0.008c-2.309,0 -4.21,-1.901 -4.21,-4.21c0,-0.11 0.004,-0.219 0.013,-0.328c-0.01,-0.12 -0.016,-0.241 -0.016,-0.362c0,-2.315 1.905,-4.22 4.22,-4.22c0.042,0 0.084,0.001 0.126,0.002Z M240,72.49l1.89,0l3.32,9l-2,0l-0.6,-1.89l-3.28,0l-0.59,1.89l-2,0l3.26,-9Zm2.15,5.78l-1,-3.06l-0.25,-0.92l-0.26,0.92l-1,3.06l2.51,0Z M246.34,72.58l1.73,0l3.33,5.25l0.67,1.33l-0.17,-2.16l0,-4.42l1.73,0l0,8.92l-1.87,0l-3.18,-5l-0.71,-1.5l0.21,2.13l0,4.37l-1.74,0l0,-8.92Z M255.31,72.58l0.88,0c0.53,0 1.19,-0.09 2.17,-0.09c3,0 4.37,1.59 4.37,4.32c0,3 -1.77,4.81 -4.51,4.78c-0.84,0 -1.47,-0.09 -2,-0.09l-0.9,0l-0.01,-8.92Zm3.08,7.58c1.41,0 2.37,-0.93 2.37,-3.15c0,-2.22 -0.84,-3.12 -2.58,-3.12c-0.36,0 -0.77,0.07 -1,0.09l0,6.08c0.398,0.079 0.804,0.112 1.21,0.1Z M267.16,72.58l0.56,0c1,0 1.78,-0.09 2.63,-0.09c2,0 3.26,0.87 3.26,3.07c0,2 -1.26,3.24 -3.57,3.24l-1,0l0,2.7l-1.86,0l-0.02,-8.92Zm2.84,4.81c0.9,0 1.76,-0.38 1.76,-1.85c0.008,-0.064 0.012,-0.128 0.012,-0.193c0,-0.839 -0.69,-1.53 -1.53,-1.53c-0.088,0 -0.175,0.008 -0.262,0.023c-0.335,0.004 -0.669,0.03 -1,0.08l0,3.42c0.339,0.039 0.679,0.055 1.02,0.05Z M278.82,72.49c2.47,-0.07 4,1.79 4,4.54c-0.06,3.08 -1.76,4.52 -4.13,4.56c-2.57,0.06 -4.12,-1.85 -4.07,-4.6c0.02,-3.08 1.79,-4.43 4.2,-4.5Zm2,4.48c0,-1.75 -0.68,-3.06 -2.07,-3.06c-1.24,0 -2.27,0.86 -2.27,3.15c0,1.76 0.72,3.15 2.18,3.15c1.46,0 2.19,-1.01 2.19,-3.21l-0.03,-0.03Z M284.1,72.58l1.9,0l0,7.5l3.21,0l0,1.42l-5.11,0l0,-8.92Z" />
            <rect x="290.59" y="72.58" width="1.88" height="8.92" />
            <path d="M298.52,72.49c0.818,0.009 1.631,0.123 2.42,0.34l-0.27,1.64c-0.602,-0.362 -1.298,-0.539 -2,-0.51c-1.44,0 -2.56,1.11 -2.56,3c0,1.89 1,3.2 2.71,3.2c0.723,-0.011 1.431,-0.204 2.06,-0.56l0,1.54c-0.71,0.307 -1.476,0.463 -2.25,0.46c-0.013,0 -0.027,0 -0.04,0c-2.496,0 -4.55,-2.054 -4.55,-4.55c0,-2.481 2.029,-4.528 4.51,-4.55l-0.03,-0.01Z M304.54,78.37l-3,-5.79l2,0l1.69,3.42l0.26,0.67l0.22,-0.67l1.69,-3.46l2,0l-3,5.8l0,3.16l-1.87,0l0.01,-3.13Z M313,72.58l0.86,0c0.55,0 1.09,-0.09 2.37,-0.09c1.67,0 3.21,0.59 3.21,2.69c0.15,1.098 -0.459,2.169 -1.48,2.6c0.73,0.61 1.08,2.06 1.66,3.08l0.37,0.64l-2.07,0c-0.128,-0.204 -0.238,-0.418 -0.33,-0.64c-0.5,-1 -0.68,-2.74 -1.55,-2.75c-0.29,0 -0.67,0 -1.17,0l0,3.39l-1.87,0l0,-8.92Zm3,4.24c0.039,0.003 0.079,0.005 0.118,0.005c0.785,0 1.43,-0.646 1.43,-1.43c0,-0.052 -0.002,-0.104 -0.008,-0.155c0,-0.7 -0.23,-1.36 -1.62,-1.36c-0.382,-0.005 -0.764,0.028 -1.14,0.1l0,2.81c0.28,0.03 0.96,0.03 1.22,0.03Z M321,72.58l5.44,0l0,1.42l-3.57,0l0,2.22l2.74,0l0,1.41l-2.74,0l0,2.37l4,0l0,1.5l-5.87,0l0,-8.92Z M328.23,79.57c0.709,0.371 1.499,0.564 2.3,0.56c1,0 1.31,-0.31 1.31,-0.9c0,-0.59 -0.36,-0.89 -1.73,-1.57c-1.06,-0.52 -2.22,-1.31 -2.22,-2.77c0,-1.76 1.44,-2.4 3.11,-2.4c0.8,-0.024 1.594,0.152 2.31,0.51l-0.31,1.45c-0.577,-0.376 -1.252,-0.574 -1.94,-0.57c-1,0 -1.34,0.37 -1.34,0.92c0,0.55 0.46,0.91 1.54,1.49c1.4,0.73 2.45,1.37 2.45,2.82c0,1.45 -1.24,2.48 -3.06,2.48c-0.919,0.012 -1.832,-0.165 -2.68,-0.52l0.26,-1.5Z M334.91,72.58l5.44,0l0,1.42l-3.58,0l0,2.22l2.75,0l0,1.41l-2.75,0l0,2.37l4,0l0,1.5l-5.82,0l-0.04,-8.92Z M345.13,72.49l1.87,0l3.32,9l-2,0l-0.6,-1.89l-3.28,0l-0.59,1.89l-2,0l3.28,-9Zm2.15,5.78l-1,-3.06l-0.26,-0.92l-0.25,0.92l-1,3.06l2.51,0Z M351.37,72.58l0.86,0c0.55,0 1.09,-0.09 2.37,-0.09c1.67,0 3.21,0.59 3.21,2.69c0.15,1.098 -0.459,2.169 -1.48,2.6c0.73,0.61 1.08,2.06 1.66,3.08l0.37,0.64l-2.07,0c-0.128,-0.204 -0.238,-0.418 -0.33,-0.64c-0.5,-1 -0.68,-2.74 -1.55,-2.75c-0.29,0 -0.67,0 -1.17,0l0,3.39l-1.87,0l0,-8.92Zm3.09,4.24c0.039,0.003 0.079,0.005 0.118,0.005c0.785,0 1.43,-0.646 1.43,-1.43c0,-0.052 -0.002,-0.104 -0.008,-0.155c0,-0.7 -0.23,-1.36 -1.62,-1.36c-0.382,-0.005 -0.764,0.028 -1.14,0.1l0,2.81c0.24,0.03 0.92,0.03 1.22,0.03Z M363.49,72.49c0.818,0.009 1.631,0.123 2.42,0.34l-0.27,1.64c-0.602,-0.362 -1.298,-0.539 -2,-0.51c-1.44,0 -2.56,1.11 -2.56,3c0,1.89 1,3.2 2.7,3.2c0.726,-0.01 1.438,-0.202 2.07,-0.56l0,1.54c-0.71,0.307 -1.476,0.463 -2.25,0.46c-0.013,0 -0.027,0 -0.04,0c-2.496,0 -4.55,-2.054 -4.55,-4.55c0,-2.481 2.029,-4.528 4.51,-4.55l-0.03,-0.01Z M367.25,72.58l1.87,0l0,3.71l3.47,0l0,-3.71l1.84,0l0,8.92l-1.84,0l0,-3.81l-3.47,0l0,3.81l-1.87,0l0,-8.92Z M97.78,63.46c0,1.646 -1.354,3 -3,3c-1.646,0 -3,-1.354 -3,-3l0,-12.92c0,-1.646 1.354,-3 3,-3c1.646,0 3,1.354 3,3l0,12.92Z M25.78,60.47c0,1.646 -1.354,3 -3,3c-1.646,0 -3,-1.354 -3,-3l0,-22.93c0,-1.646 1.354,-3 3,-3c1.646,0 3,1.354 3,3l0,22.93Z M33.78,95.46c0,1.646 -1.354,3 -3,3c-1.646,0 -3,-1.354 -3,-3l0,-27.92c0,-1.646 1.354,-3 3,-3c1.646,0 3,1.354 3,3l0,27.92Z M33.78,49c0,1.646 -1.354,3 -3,3c-1.646,0 -3,-1.354 -3,-3l0,-18.46c0,-1.646 1.354,-3 3,-3c1.646,0 3,1.354 3,3l0,18.46Z M41.78,87.46c0,1.646 -1.354,3 -3,3c-1.646,0 -3,-1.354 -3,-3l0,-13.92c0,-1.646 1.354,-3 3,-3c1.646,0 3,1.354 3,3l0,13.92Z M41.78,38.46c0,1.646 -1.354,3 -3,3c-1.646,0 -3,-1.354 -3,-3l0,-11.92c0,-1.646 1.354,-3 3,-3c1.646,0 3,1.354 3,3l0,11.92Z M65.78,76.46c0,1.646 -1.354,3 -3,3c-1.646,0 -3,-1.354 -3,-3l0,-15.93c0,-1.646 1.354,-3 3,-3c1.646,0 3,1.354 3,3l0,15.93Z M73.78,95.46c0,1.646 -1.354,3 -3,3c-1.646,0 -3,-1.354 -3,-3l0,-37.93c0,-1.646 1.354,-3 3,-3c1.646,0 3,1.354 3,3l0,37.93Z M81.78,88.46c0,1.646 -1.354,3 -3,3c-1.646,0 -3,-1.354 -3,-3l0,-25.46c0,-1.646 1.354,-3 3,-3c1.646,0 3,1.354 3,3l0,25.46Z M81.78,50.47c0,1.646 -1.354,3 -3,3c-1.646,0 -3,-1.354 -3,-3l0,-18.93c0,-1.646 1.354,-3 3,-3c1.646,0 3,1.354 3,3l0,18.93Z M89.78,56.46c0,1.646 -1.354,3 -3,3c-1.646,0 -3,-1.354 -3,-3l0,-18.93c0,-1.646 1.354,-3 3,-3c1.646,0 3,1.354 3,3l0,18.93Z" />
        </g>
        <g fill="var(--logo-lightBlue)">
            <path d="M109,64.71c0,-11.13 7.24,-17.71 17,-17.71c4.55,0 8.92,1.06 10.76,1.15l-0.55,10.26l-4.92,0l-1.57,-7c-0.5,-0.55 -1.75,-1.1 -4.23,-1.1c-4.55,0 -7.64,4.5 -7.64,13.84c0,8.52 2.53,14.63 7.82,14.63c2.76,0 3.78,-0.64 4.56,-1.42l2.07,-4.93l4.51,0.42l-0.83,7.5c-3.13,0.27 -5,1.75 -10.77,1.75c-10.85,-0.1 -16.21,-6.95 -16.21,-17.39Z M142.52,51.18l-3.59,-0.64l0,-3.22l25.17,0l0.6,8.14l-3.64,0l-1.61,-4.65l-9.06,-0.46l0,12l5.61,-0.14l0.83,-3.77l3.17,0l0,11.56l-3.17,0l-0.78,-4l-5.66,-0.14l0,12.47l10.07,-0.65l2.81,-5.93l3.91,1.1l-1.1,8.65l-27.08,0l0,-3l3.54,-0.46l-0.02,-26.86Z M172.49,51.18l-3.41,-0.64l0,-3.22l7.5,0c2.07,0 4.19,-0.28 7.68,-0.28c10.12,0.05 13.07,3.73 13.07,10.26c0,7.78 -4.92,12.42 -13.8,12.42c-1.34,0 -2.81,-0.09 -3.18,-0.14l0,8.42l6.08,0.5l0,3l-17.49,0l0,-3l3.55,-0.46l0,-26.86Zm10.85,15.46c3.32,0 6,-2.16 6,-9.15c0,-5.2 -2.07,-7.37 -6,-7.37c-1.006,0.001 -2.011,0.094 -3,0.28l0,16c0.988,0.19 1.994,0.27 3,0.24Z M198.94,78.46l3.55,-0.46l0,-26.86l-3.36,-0.65l0,-3.17l7.08,0c2.67,0 4.51,-0.32 7.73,-0.32c9.8,0 13.34,2.71 13.34,9.15c0,3.77 -1.93,8.14 -6.53,9.57c5.29,1.93 7,11.78 9.2,12.33l1.34,0.41l0,3l-8.75,0c-2.25,0 -4.6,-13.2 -8,-14.54l-4.14,0l0,11.08l4.1,0.46l0,3l-15.56,0l0,-3Zm20,-22c0,-4.32 -1.52,-6.39 -5.71,-6.39c-0.972,-0.016 -1.943,0.061 -2.9,0.23l0,13.53c1.178,0.141 2.365,0.188 3.55,0.14c3.12,0.03 5.12,-2.34 5.12,-7.5l-0.06,-0.01Z M57.78,70.46c0,1.646 -1.354,3 -3,3c-1.646,0 -3,-1.354 -3,-3l0,-6.92c0,-1.646 1.354,-3 3,-3c1.646,0 3,1.354 3,3l0,6.92Z M25.78,79.46c0,1.646 -1.354,3 -3,3c-1.646,0 -3,-1.354 -3,-3l0,-5.92c0,-1.646 1.354,-3 3,-3c1.646,0 3,1.354 3,3l0,5.92Z M17.78,56.46c0,1.646 -1.354,3 -3,3c-1.646,0 -3,-1.354 -3,-3l0,-5.92c0,-1.646 1.354,-3 3,-3c1.646,0 3,1.354 3,3l0,5.92Z M49.78,28.46c0,1.646 -1.354,3 -3,3c-1.646,0 -3,-1.354 -3,-3l0,-3.92c0,-1.646 1.354,-3 3,-3c1.646,0 3,1.354 3,3l0,3.92Z M89.78,78.46c0,1.646 -1.354,3 -3,3c-1.646,0 -3,-1.354 -3,-3l0,-6.92c0,-1.646 1.354,-3 3,-3c1.646,0 3,1.354 3,3l0,6.92Z M73.78,44.46c0,1.646 -1.354,3 -3,3c-1.646,0 -3,-1.354 -3,-3l0,-3.92c0,-1.646 1.354,-3 3,-3c1.646,0 3,1.354 3,3l0,3.92Z" />
            <circle cx="54.78" cy="23.5" r="3" />
            <circle cx="46.78" cy="78.5" r="3" />
        </g>
    </symbol>
    <symbol id="logo-large" viewBox="0 0 620 200">
        <g fill="var(--logo-darkBlue)">
            <path d="M483,69.23c1.163,0.009 2.32,0.173 3.44,0.49l-0.38,2.33c-0.871,-0.519 -1.877,-0.77 -2.89,-0.72c-2.05,0 -3.64,1.56 -3.64,4.22c0,2.66 1.44,4.54 3.84,4.54c1.028,-0.015 2.037,-0.29 2.93,-0.8l0,2.18c-1.005,0.442 -2.092,0.667 -3.19,0.66c-3.89,0 -6.31,-2.59 -6.31,-6.41c0.03,-4.19 2.78,-6.49 6.2,-6.49Z    M488.34,69.37l7.66,0l0,2l-5,0l0,3.14l3.89,0l0,2l-3.89,0l0,3.39l5.61,0l0,2.1l-8.24,0l-0.03,-12.63Z  M498.51,69.37l2.49,0l4.7,7.43l1,1.89l-0.24,-3l0,-6.32l2.45,0l0,12.63l-2.65,0l-4.5,-7.15l-1,-2l0.29,3l0,6.15l-2.45,0l-0.09,-12.63Z    M514.33,71.39l-3.62,0l0,-2l9.87,0l0,2l-3.58,0l0,10.61l-2.65,0l-0.02,-10.61Z     M522.2,69.37l7.7,0l0,2l-5.06,0l0,3.14l3.88,0l0,2l-3.88,0l0,3.39l5.6,0l0,2.1l-8.24,0l0,-12.63Z   M532.37,69.37l1.22,0c0.77,0 1.54,-0.14 3.36,-0.14c2.36,0 4.54,0.84 4.54,3.82c0,2 -0.78,3.15 -2.1,3.68c1,0.86 1.53,2.92 2.36,4.36l0.52,0.91l-2.93,0c-0.184,-0.289 -0.341,-0.593 -0.47,-0.91c-0.71,-1.48 -1,-3.88 -2.19,-3.89c-0.42,0 -0.95,0 -1.67,0l0,4.8l-2.64,0l0,-12.63Zm4.38,6c0.065,0.006 0.131,0.01 0.197,0.01c1.097,0 2,-0.903 2,-2c0,-0.087 -0.006,-0.174 -0.017,-0.26c0,-1 -0.33,-1.93 -2.3,-1.93c-0.544,-0.009 -1.087,0.041 -1.62,0.15l0,4c0.35,0.03 1.3,0.04 1.74,0.04l0,-0.01Z  M477.56,88.37l7.66,0l0,2l-5,0l0,3.32l3.67,0l0,2l-3.67,0l0,5.31l-2.67,0l0.01,-12.63Z     M491.94,88.23c3.5,-0.1 5.69,2.54 5.61,6.44c-0.08,4.36 -2.49,6.4 -5.86,6.46c-3.63,0.08 -5.82,-2.63 -5.75,-6.51c0.06,-4.38 2.58,-6.29 6,-6.39Zm2.88,6.35c0,-2.48 -1,-4.34 -2.94,-4.34c-1.76,0 -3.21,1.22 -3.21,4.47c0,2.49 1,4.46 3.08,4.46c1.88,0 3.07,-1.42 3.07,-4.59Z     M499.39,88.37l1.22,0c0.77,0 1.54,-0.14 3.36,-0.14c2.36,0 4.54,0.84 4.54,3.82c0,2 -0.78,3.15 -2.1,3.68c1,0.86 1.53,2.92 2.36,4.36l0.52,0.91l-2.93,0c-0.184,-0.289 -0.341,-0.593 -0.47,-0.91c-0.71,-1.48 -1,-3.88 -2.19,-3.89c-0.42,0 -0.95,0 -1.67,0l0,4.8l-2.64,0l0,-12.63Zm4.38,6c0.082,0.01 0.164,0.015 0.246,0.015c1.098,0 2,-0.903 2,-2c0,-0.085 -0.005,-0.17 -0.016,-0.255c0,-1 -0.33,-1.93 -2.3,-1.93c-0.544,-0.009 -1.087,0.041 -1.62,0.15l0,4c0.3,0.02 1.25,0.03 1.69,0.03l0,-0.01Z     M515.19,88.37l7.7,0l0,2l-5.06,0l0,3.14l3.88,0l0,2l-3.88,0l0,3.39l5.6,0l0,2.1l-8.24,0l0,-12.63Z      M530.62,88.23c1.16,0.01 2.314,0.174 3.43,0.49l-0.38,2.33c-0.871,-0.519 -1.877,-0.77 -2.89,-0.72c-2,0 -3.63,1.56 -3.63,4.22c0,2.66 1.43,4.54 3.83,4.54c1.029,-0.013 2.037,-0.289 2.93,-0.8l0,2.18c-1.005,0.443 -2.092,0.668 -3.19,0.66c-3.89,0 -6.31,-2.59 -6.31,-6.41c0.01,-4.19 2.76,-6.49 6.21,-6.49Z     M541.06,88.23c3.49,-0.1 5.68,2.54 5.61,6.44c-0.09,4.36 -2.49,6.4 -5.86,6.46c-3.64,0.08 -5.83,-2.63 -5.76,-6.51c0.09,-4.38 2.59,-6.29 6.01,-6.39Zm2.88,6.35c0,-2.48 -1,-4.34 -2.94,-4.34c-1.76,0 -3.21,1.22 -3.21,4.47c0,2.49 1,4.46 3.08,4.46c1.87,0 3.07,-1.42 3.07,-4.59Z     M548.93,88.37l2.45,0l4.71,7.43l0.95,1.89l-0.24,-3l0,-6.32l2.46,0l0,12.63l-2.65,0l-4.51,-7.15l-1,-2l0.29,3l0,6.15l-2.46,0l0,-12.63Z      M567.1,88.23c3.49,-0.1 5.69,2.54 5.61,6.44c-0.08,4.36 -2.49,6.4 -5.86,6.46c-3.64,0.08 -5.83,-2.63 -5.75,-6.51c0.08,-4.38 2.58,-6.29 6,-6.39Zm2.9,6.35c0,-2.48 -1,-4.34 -2.94,-4.34c-1.76,0 -3.21,1.22 -3.21,4.47c0,2.49 1,4.46 3.08,4.46c1.85,0 3.07,-1.42 3.07,-4.59Z      M575.5,88.37l3.71,0l1.69,6.63l0.64,2.79l0.46,-2.79l1.52,-6.64l3.6,0l1.53,12.64l-2.59,0l-0.62,-6.77l-0.23,-3.87l-0.93,3.87l-1.81,6.9l-2.09,0l-2,-6.9l-0.94,-3.87l-0.3,3.87l-0.54,6.77l-2.44,0l1.34,-12.63Z" />
            <rect x="590.87" y="88.37" width="2.65" height="12.63" />
            <path d="M601.75,88.23c1.163,0.009 2.32,0.173 3.44,0.49l-0.38,2.33c-0.871,-0.519 -1.877,-0.77 -2.89,-0.72c-2,0 -3.64,1.56 -3.64,4.22c0,2.66 1.44,4.54 3.84,4.54c1.028,-0.015 2.037,-0.29 2.93,-0.8l0,2.18c-1.005,0.443 -2.092,0.668 -3.19,0.66c-3.89,0 -6.31,-2.59 -6.31,-6.41c0.01,-4.19 2.76,-6.49 6.2,-6.49Z     M480.54,107.23l2.67,0l4.71,12.77l-2.92,0l-0.85,-2.67l-4.65,0l-0.83,2.67l-2.83,0l4.7,-12.77Zm3,8.2l-1.37,-4.34l-0.36,-1.3l-0.36,1.3l-1.36,4.34l3.45,0Z       M489.53,107.37l2.47,0l4.71,7.43l1,1.89l-0.24,-3l0,-6.28l2.45,0l0,12.59l-2.64,0l-4.51,-7.15l-1,-2l0.29,3l0,6.15l-2.45,0l-0.08,-12.63Z        M502.2,107.37l1.25,0c0.74,0 1.69,-0.14 3.07,-0.14c4.23,0 6.19,2.25 6.19,6.12c0,4.31 -2.5,6.82 -6.39,6.78c-1.18,0 -2.08,-0.13 -2.84,-0.13l-1.28,0l0,-12.63Zm4.36,10.74c2,0 3.36,-1.33 3.36,-4.48c0,-3.15 -1.19,-4.4 -3.65,-4.4c-0.52,0 -1.1,0.09 -1.41,0.11l0,8.66c0.561,0.099 1.131,0.136 1.7,0.11Z     M519,107.37l0.79,0c1.4,0 2.53,-0.14 3.73,-0.14c2.89,0 4.62,1.24 4.62,4.36c0,2.89 -1.79,4.58 -5.06,4.58l-1.44,0l0,3.83l-2.64,0l0,-12.63Zm4,6.8c1.29,0 2.5,-0.53 2.5,-2.61c0.011,-0.09 0.017,-0.181 0.017,-0.271c0,-1.191 -0.98,-2.17 -2.17,-2.17c-0.123,0 -0.246,0.01 -0.367,0.031c-0.452,0.008 -0.903,0.048 -1.35,0.12l0,4.84c0.455,0.045 0.913,0.065 1.37,0.06Z        M535.48,107.23c3.49,-0.1 5.69,2.54 5.61,6.44c-0.08,4.36 -2.49,6.4 -5.86,6.46c-3.64,0.08 -5.83,-2.63 -5.75,-6.51c0.08,-4.38 2.58,-6.29 6,-6.39Zm2.88,6.35c0,-2.48 -1,-4.34 -2.94,-4.34c-1.76,0 -3.21,1.22 -3.21,4.47c0,2.49 1,4.46 3.08,4.46c1.88,0 3.07,-1.42 3.07,-4.59Z       M542.93,107.37l2.64,0l0,10.63l4.55,0l0,2l-7.19,0l0,-12.63Z" />
            <rect x="552.1" y="107.37" width="2.66" height="12.63" />
            <path d="M563.3,107.23c1.16,0.01 2.314,0.174 3.43,0.49l-0.38,2.33c-0.871,-0.519 -1.877,-0.77 -2.89,-0.72c-2.05,0 -3.63,1.56 -3.63,4.22c0,2.66 1.43,4.54 3.83,4.54c1.029,-0.013 2.037,-0.289 2.93,-0.8l0,2.18c-1.005,0.443 -2.092,0.668 -3.19,0.66c-3.89,0 -6.31,-2.59 -6.31,-6.41c0.01,-4.19 2.76,-6.49 6.21,-6.49Z    M571.8,115.56l-4.24,-8.19l2.91,0l2.32,4.89l0.37,0.95l0.31,-0.95l2.39,-4.89l2.83,0l-4.24,8.21l0,4.42l-2.65,0l0,-4.44Z        M477.56,126.37l1.22,0c0.77,0 1.54,-0.14 3.35,-0.14c2.37,0 4.55,0.84 4.55,3.82c0,2 -0.78,3.15 -2.1,3.68c1,0.86 1.53,2.92 2.36,4.36l0.52,0.91l-2.93,0c-0.184,-0.289 -0.341,-0.593 -0.47,-0.91c-0.71,-1.48 -1,-3.88 -2.19,-3.89c-0.42,0 -1,0 -1.67,0l0,4.8l-2.64,0l0,-12.63Zm4.38,6c0.065,0.006 0.131,0.01 0.197,0.01c1.097,0 2,-0.903 2,-2c0,-0.087 -0.006,-0.174 -0.017,-0.26c0,-1 -0.33,-1.93 -2.3,-1.93c-0.544,-0.01 -1.087,0.04 -1.62,0.15l0,4c0.35,0.03 1.3,0.04 1.74,0.04l0,-0.01Z      M488.89,126.37l7.71,0l0,2l-5.07,0l0,3.14l3.89,0l0,2l-3.89,0l0,3.39l5.61,0l0,2.1l-8.25,0l0,-12.63Z       M499.15,136.27c1.003,0.526 2.118,0.8 3.25,0.8c1.41,0 1.85,-0.44 1.85,-1.29c0,-0.85 -0.5,-1.25 -2.45,-2.22c-1.49,-0.74 -3.13,-1.85 -3.13,-3.92c0,-2.49 2,-3.41 4.41,-3.41c1.131,-0.035 2.252,0.216 3.26,0.73l-0.43,2.06c-0.821,-0.534 -1.781,-0.816 -2.76,-0.81c-1.4,0 -1.89,0.51 -1.89,1.29c0,0.78 0.64,1.3 2.18,2.11c2,1 3.47,1.95 3.47,4c0,2.28 -1.76,3.52 -4.34,3.52c-1.301,0.019 -2.592,-0.233 -3.79,-0.74l0.37,-2.12Z  M508.58,126.37l7.7,0l0,2l-5.06,0l0,3.14l3.88,0l0,2l-3.88,0l0,3.39l5.6,0l0,2.1l-8.24,0l0,-12.63Z     M523,126.23l2.67,0l4.75,12.77l-2.88,0l-0.85,-2.67l-4.69,0l-0.83,2.67l-2.84,0l4.67,-12.77Zm3,8.2l-1.37,-4.34l-0.35,-1.3l-0.37,1.3l-1.35,4.34l3.44,0Z     M531.85,126.37l1.22,0c0.78,0 1.54,-0.14 3.36,-0.14c2.36,0 4.55,0.84 4.55,3.82c0,2 -0.78,3.15 -2.1,3.68c1,0.86 1.52,2.92 2.35,4.36l0.53,0.91l-2.94,0c-0.184,-0.289 -0.341,-0.593 -0.47,-0.91c-0.71,-1.48 -1,-3.88 -2.19,-3.89c-0.42,0 -0.95,0 -1.67,0l0,4.8l-2.64,0l0,-12.63Zm4.38,6c0.065,0.006 0.131,0.01 0.197,0.01c1.097,0 2,-0.903 2,-2c0,-0.087 -0.006,-0.174 -0.017,-0.26c0,-1 -0.33,-1.93 -2.3,-1.93c-0.544,-0.009 -1.087,0.041 -1.62,0.15l0,4c0.35,0.03 1.31,0.04 1.74,0.04l0,-0.01Z    M548.9,126.23c1.163,0.009 2.32,0.173 3.44,0.49l-0.38,2.33c-0.871,-0.519 -1.877,-0.77 -2.89,-0.72c-2.05,0 -3.64,1.56 -3.64,4.22c0,2.66 1.44,4.54 3.84,4.54c1.028,-0.015 2.037,-0.29 2.93,-0.8l0,2.18c-1.001,0.442 -2.085,0.667 -3.18,0.66c-3.9,0 -6.31,-2.59 -6.31,-6.41c0,-4.19 2.75,-6.49 6.19,-6.49Z   M554.21,126.37l2.64,0l0,5.24l4.92,0l0,-5.24l2.61,0l0,12.63l-2.61,0l0,-5.4l-4.92,0l0,5.4l-2.64,0l0,-12.63Z  M192,103c0,3.292 -2.708,6 -6,6c-3.292,0 -6,-2.708 -6,-6l0,-25.92c0,-3.292 2.708,-6 6,-6c3.292,0 6,2.708 6,6l0,25.92Z    M48,95.93c0,3.292 -2.708,6 -6,6c-3.292,0 -6,-2.708 -6,-6l0,-44.86c0,-3.292 2.708,-6 6,-6c3.292,0 6,2.708 6,6l0,44.86Z   M64,166.92c0,3.292 -2.708,6 -6,6c-3.292,0 -6,-2.708 -6,-6l0,-56.84c0,-3.292 2.708,-6 6,-6c3.292,0 6,2.708 6,6l0,56.84Z  M64,74c0,3.292 -2.708,6 -6,6c-3.292,0 -6,-2.708 -6,-6l0,-36.92c0,-3.292 2.708,-6 6,-6c3.292,0 6,2.708 6,6l0,36.92Z  M80,152c0,3.292 -2.708,6 -6,6c-3.292,0 -6,-2.708 -6,-6l0,-29.92c0,-3.292 2.708,-6 6,-6c3.292,0 6,2.708 6,6l0,29.92Z     M80,52.93c0,3.292 -2.708,6 -6,6c-3.292,0 -6,-2.708 -6,-6l0,-23.85c0,-3.292 2.708,-6 6,-6c3.292,0 6,2.708 6,6l0,23.85Z   M128,128.93c0,3.292 -2.708,6 -6,6c-3.292,0 -6,-2.708 -6,-6l0,-32.86c0,-3.292 2.708,-6 6,-6c3.292,0 6,2.708 6,6l0,32.86Z     M144,168.92c0,3.292 -2.708,6 -6,6c-3.292,0 -6,-2.708 -6,-6l0,-77.85c0,-3.292 2.708,-6 6,-6c3.292,0 6,2.708 6,6l0,77.85Z     M160,152.92c0,3.292 -2.708,6 -6,6c-3.292,0 -6,-2.708 -6,-6l0,-50.85c0,-3.292 2.708,-6 6,-6c3.292,0 6,2.708 6,6l0,50.85Z     M160,76.93c0,3.292 -2.708,6 -6,6c-3.292,0 -6,-2.708 -6,-6l0,-37.85c0,-3.292 2.708,-6 6,-6c3.292,0 6,2.708 6,6l0,37.85Z M176,87.92c0,3.292 -2.708,6 -6,6c-3.292,0 -6,-2.708 -6,-6l0,-36.85c0,-3.292 2.708,-6 6,-6c3.292,0 6,2.708 6,6l0,36.85Z" />
        </g>
        <g fill="var(--logo-lightBlue)">
            <path d="M215.47,104.32c0,-23 15,-36.67 35.15,-36.67c9.41,0 18.43,2.19 22.23,2.38l-1.14,21.18l-10.17,0l-3.22,-14.53c-1.05,-1.14 -3.61,-2.28 -8.74,-2.28c-9.41,0 -15.78,9.31 -15.78,28.59c0,17.58 5.23,30.22 16.16,30.22c5.7,0 7.79,-1.33 9.4,-3l4.28,-10.17l9.36,0.96l-1.71,15.48c-6.51,0.52 -10.41,3.52 -22.29,3.52c-22.42,0 -33.53,-14.11 -33.53,-35.68Z     M284.14,76.39l-7.41,-1.33l0,-6.65l52,0l1.23,16.82l-7.5,0l-3.33,-9.6l-18.71,-0.95l0,24.7l11.58,-0.28l1.71,-7.79l6.56,0l0,23.84l-6.56,0l-1.62,-8.26l-11.68,-0.29l0,25.85l20.8,-1.33l5.8,-12.26l8.07,2.28l-2.29,17.86l-56,0l0,-6.27l7.31,-0.95l0.04,-55.39Z    M345.43,76.39l-7,-1.33l0,-6.65l15.48,0c4.28,0 8.65,-0.57 15.87,-0.57c20.9,0.1 27,7.7 27,21.19c0,16 -10.17,25.65 -28.5,25.65c-2.76,0 -5.8,-0.19 -6.56,-0.29l0,17.29l12.54,1l0,6.32l-36.1,0l0,-6.27l7.32,-0.95l-0.05,-55.39Zm22.42,31.92c6.84,0 12.35,-4.46 12.35,-18.9c0,-10.74 -4.28,-15.2 -12.35,-15.2c-2.103,-0.006 -4.202,0.185 -6.27,0.57l0,33.06c2.066,0.388 4.169,0.545 6.27,0.47Z    M399.43,132.73l7.31,-0.95l0,-55.48l-6.93,-1.3l0,-6.59l14.63,0c5.51,0 9.31,-0.66 16,-0.66c20.23,0 27.55,5.6 27.55,18.9c0,7.79 -4,16.82 -13.49,19.77c10.92,4 14.53,24.32 19,25.46l2.75,0.85l0,6.27l-18,0c-4.65,0 -9.5,-27.27 -16.62,-30l-8.63,0l0,22.8l8.45,0.95l0,6.25l-32,0l-0.02,-6.27Zm41.32,-45.41c0,-8.93 -3.13,-13.21 -11.78,-13.21c-2.011,-0.038 -4.021,0.123 -6,0.48l0,27.93c1.42,0.38 5.89,0.28 7.31,0.28c6.48,0 10.47,-4.8 10.47,-15.48Z   M112,116.93c0,3.292 -2.708,6 -6,6c-3.292,0 -6,-2.708 -6,-6l0,-12.86c0,-3.292 2.708,-6 6,-6c3.292,0 6,2.708 6,6l0,12.86Z     M48,133.92c0,3.292 -2.708,6 -6,6c-3.292,0 -6,-2.708 -6,-6l0,-10.84c0,-3.292 2.708,-6 6,-6c3.292,0 6,2.708 6,6l0,10.84Z  M32,89.92c0,3.292 -2.708,6 -6,6c-3.292,0 -6,-2.708 -6,-6l0,-11.84c0,-3.292 2.708,-6 6,-6c3.292,0 6,2.708 6,6l0,11.84Z   M96,31.92c0,3.292 -2.708,6 -6,6c-3.292,0 -6,-2.708 -6,-6l0,-7.84c0,-3.292 2.708,-6 6,-6c3.292,0 6,2.708 6,6l0,7.84Z     M176,133.93c0,3.292 -2.708,6 -6,6c-3.292,0 -6,-2.708 -6,-6l0,-14.93c0,-3.292 2.708,-6 6,-6c3.292,0 6,2.708 6,6l0,14.93Z     M144,65.93c0,3.292 -2.708,6 -6,6c-3.292,0 -6,-2.708 -6,-6l0,-7.86c0,-3.292 2.708,-6 6,-6c3.292,0 6,2.708 6,6l0,7.86Z" />
            <circle cx="106" cy="23" r="6" />
            <circle cx="90" cy="133" r="6" />
        </g>
        <g fill="var(--logo-grey)">
            <circle cx="122" cy="24" r="6" />
            <circle cx="90" cy="180" r="6" />
            <circle cx="106" cy="181" r="6" />
            <path d="M80,170.08c0,-3.292 -2.708,-6 -6,-6c-3.292,0 -6,2.708 -6,6l0,4.84c0,3.292 2.708,6 6,6c3.292,0 6,-2.708 6,-6l0,-4.84Z" />
        </g>
    </symbol>
    <symbol id="logo-v-small" viewBox="0 0 80.2 93.3">
        <g fill="var(--logo-lightBlue)">
            <path d="M22.69,45a3,3,0,1,1-6,0V41a3,3,0,1,1,6,0Z M38.69,8a3,3,0,1,1-6,0V3a3,3,0,1,1,6,0Z M14.69,23a3,3,0,1,1-6,0V20a3,3,0,1,1,6,0Z M46.69,39a3,3,0,1,1-6,0V33a3,3,0,1,1,6,0Z M62.71,43a3,3,0,1,1-6,0V33a3,3,0,1,1,6,0Z M54.69,19a3,3,0,1,1-6,0V15a3,3,0,1,1,6,0Z"/>
            <circle cx="43.69" cy="3" r="3"/>
        </g>
        <g fill="var(--logo-darkBlue)">
            <path d="M38.69,49a3,3,0,1,1-6,0V41a3,3,0,1,1,6,0Z M22.69,27a3,3,0,1,1-6,0V11a3,3,0,1,1,6,0Z M30.71,59a3,3,0,1,1-6,0V35a3,3,0,1,1,6,0Z M30.69,18a3,3,0,1,1-6,0V6a3,3,0,1,1,6,0Z M54.69,53a3,3,0,1,1-6,0V28a3,3,0,1,1,6,0Z M62.69,23a3,3,0,1,1-6,0V12a3,3,0,1,1,6,0Z M70.69,32a3,3,0,1,1-6,0V22a3,3,0,1,1,6,0Z"/>
        </g>
        <g fill="var(--logo-lightBlue)">
            <path d="M0,82.05c0-7.26,4.74-11.58,11.1-11.58a64.85,64.85,0,0,1,7,.75l-.36,6.69H14.55l-1-4.59c-.33-.36-1.14-.72-2.76-.72-3,0-5,2.94-5,9,0,5.55,1.65,9.54,5.1,9.54,1.8,0,2.46-.42,3-.93L15.21,87l2.94.27-.54,4.89c-2,.18-3.27,1.14-7,1.14C3.51,93.33,0,88.86,0,82.05Z M22,73.23l-2.34-.42v-2.1H36.07L36.46,76H34.09l-1-3-5.91-.3v7.8l3.66-.09.54-2.46H33.4v7.53H31.33l-.51-2.61-3.69-.09v8.16l6.57-.42,1.83-3.87,2.55.72L37.36,93H19.7V91l2.31-.3Z M41.67,73.23l-2.22-.42v-2.1h4.89c1.35,0,2.73-.18,5-.18,6.6,0,8.52,2.43,8.52,6.69,0,5.07-3.21,8.1-9,8.1-.87,0-1.83-.06-2.07-.09v5.46l4,.33v2H39.36V91l2.31-.3Zm7.08,10.08c2.16,0,3.9-1.41,3.9-6,0-3.39-1.35-4.8-3.9-4.8a10.73,10.73,0,0,0-2,.18V83.16A9.08,9.08,0,0,0,48.75,83.31Z M59.06,91l2.31-.3V73.2l-2.19-.42V70.71H63.8c1.74,0,2.94-.21,5-.21,6.39,0,8.7,1.77,8.7,6a6.31,6.31,0,0,1-4.26,6.24c3.45,1.26,4.59,7.68,6,8l.87.27v2h-5.7c-1.47,0-3-8.61-5.25-9.48H66.5v7.2l2.67.3v2H59.06Zm13-14.34c0-2.82-1-4.17-3.72-4.17a9.67,9.67,0,0,0-1.89.15v8.82a14.85,14.85,0,0,0,2.31.09C70.85,81.57,72.11,80,72.11,76.68Z"/>
        </g>
    </symbol>
    <symbol id="logo-v-medium" viewBox="122.3 150.1">
        <g>
          <path fill="var(--logo-darkBlue)" d="M5 130.5a7.7 7.7 0 0 1 2 .3L7 132a3 3 0 0 0-1.7-.4 2.2 2.2 0 0 0-2.2 2.5c0 1.6.9 2.7 2.3 2.7a3.6 3.6 0 0 0 1.7-.5v1.3a4.5 4.5 0 0 1-1.9.4 3.8 3.8 0 0 1 0-7.6zM8.3 130.6h4.5v1.2h-3v1.8h2.3v1.2H10v2h3.3v1.2H8.3zM14.4 130.6h1.4l2.8 4.3.6 1.1-.2-1.7v-3.7h1.4v7.4H19l-2.6-4.2-.6-1.2.2 1.8v3.6h-1.5zM23.8 131.8h-2.1v-1.2h5.8v1.2h-2.1v6.2h-1.6zM28.6 130.6H33v1.2h-3v1.8h2.3v1.2H30v2h3.3v1.2h-4.8zM34.6 130.6h.8l2-.1c1.4 0 2.6.5 2.6 2.2a2 2 0 0 1-1.2 2.2c.6.5 1 1.7 1.4 2.6l.3.5h-1.8a3.6 3.6 0 0 1-.2-.5c-.5-1-.6-2.3-1.3-2.3h-1v2.8h-1.6zm2.6 3.5a1.2 1.2 0 0 0 1.3-1.3c0-.6-.2-1.1-1.4-1.1a4.4 4.4 0 0 0-1 0v2.4h1.1zM44 130.6h4.4v1.2h-2.9v2h2.2v1.1h-2.2v3.1H44zM52.5 130.5c2 0 3.3 1.5 3.3 3.8 0 2.5-1.5 3.7-3.4 3.8-2.2 0-3.5-1.6-3.4-3.8 0-2.6 1.5-3.8 3.5-3.8zm1.7 3.7c0-1.4-.6-2.5-1.7-2.5s-2 .7-2 2.6c0 1.5.7 2.6 1.9 2.6s1.8-.8 1.8-2.7zM57 130.6h.7l2-.1c1.4 0 2.7.5 2.7 2.2a2 2 0 0 1-1.2 2.2c.6.5.9 1.7 1.3 2.6l.4.5H61a3.6 3.6 0 0 1-.3-.5c-.4-1-.5-2.3-1.3-2.3h-1v2.8H57zm2.6 3.5a1.2 1.2 0 0 0 1.2-1.3c0-.6-.1-1.1-1.3-1.1a4.4 4.4 0 0 0-1 0v2.4h1zM66.3 130.6h4.5v1.2h-3v1.8h2.3v1.2h-2.3v2h3.3v1.2h-4.8zM75.5 130.5a7.7 7.7 0 0 1 2 .3l-.2 1.3a3 3 0 0 0-1.7-.4 2.2 2.2 0 0 0-2.2 2.5c0 1.6.9 2.7 2.3 2.7a3.6 3.6 0 0 0 1.7-.5v1.3a4.5 4.5 0 0 1-1.9.4 3.8 3.8 0 0 1 0-7.6zM81.7 130.5c2 0 3.4 1.5 3.3 3.8 0 2.5-1.4 3.7-3.4 3.8-2.2 0-3.5-1.6-3.4-3.8 0-2.6 1.5-3.8 3.5-3.8zm1.7 3.7c0-1.4-.6-2.5-1.7-2.5s-2 .7-2 2.6c0 1.5.7 2.6 1.9 2.6s1.8-.8 1.8-2.7zM86.5 130.6h1.4l2.8 4.3.5 1.1-.1-1.7v-3.7h1.4v7.4H91l-2.6-4.2-.6-1.2.1 1.8v3.6h-1.4zM97.3 130.5c2 0 3.3 1.5 3.3 3.8 0 2.5-1.5 3.7-3.5 3.8-2.1 0-3.4-1.6-3.4-3.8 0-2.6 1.5-3.8 3.5-3.8zm1.6 3.7c0-1.4-.5-2.5-1.7-2.5s-1.9.7-1.9 2.6c0 1.5.6 2.6 1.8 2.6s1.8-.8 1.8-2.7zM102.3 130.6h2.2l1 3.9.4 1.6.2-1.6 1-4h2l.9 7.5h-1.5l-.4-4-.1-2.3-.6 2.3-1 4h-1.2l-1.2-4-.6-2.3-.1 2.3-.4 4h-1.4zM111.4 130.6h1.6v7.4h-1.6zM118 130.5a7.7 7.7 0 0 1 2 .3l-.3 1.3a3 3 0 0 0-1.7-.4 2.2 2.2 0 0 0-2.1 2.5c0 1.6.8 2.7 2.2 2.7a3.6 3.6 0 0 0 1.8-.5v1.3a4.5 4.5 0 0 1-2 .4 3.8 3.8 0 0 1 0-7.6zM4.8 142.5h1.6l2.8 7.5H7.5l-.5-1.6H4.2l-.5 1.6H2.1zm1.8 4.8l-.8-2.5-.2-.8-.2.8-.8 2.5zM10.2 142.6h1.4l2.8 4.3.6 1.1-.2-1.7v-3.7h1.5v7.4h-1.6l-2.6-4.2-.6-1.2.1 1.8v3.6h-1.4zM17.8 142.6h.7l1.8-.1c2.5 0 3.6 1.3 3.6 3.6 0 2.5-1.4 4-3.7 4h-2.4zm2.5 6.3c1.2 0 2-.8 2-2.6s-.7-2.6-2.1-2.6h-.9v5.1a4.3 4.3 0 0 0 1 0zM27.6 142.6h.5l2.2-.1c1.7 0 2.7.7 2.7 2.5s-1 2.7-3 2.7h-.8v2.3h-1.6zm2.4 4c.7 0 1.5-.3 1.5-1.6a1.3 1.3 0 0 0-1.5-1.4 5.2 5.2 0 0 0-.8 0v3a7.4 7.4 0 0 0 .8 0zM37.4 142.5c2 0 3.4 1.5 3.3 3.8 0 2.5-1.4 3.7-3.4 3.8-2.2 0-3.4-1.6-3.4-3.8.1-2.6 1.5-3.8 3.5-3.8zm1.7 3.7c0-1.4-.5-2.5-1.7-2.5s-1.9.7-1.9 2.6c0 1.5.6 2.6 1.8 2.6s1.8-.8 1.8-2.7zM42 142.6h1.5v6.2H46v1.2H42zM47.4 142.6H49v7.4h-1.6zM54.1 142.5a7.7 7.7 0 0 1 2 .3L56 144a3 3 0 0 0-1.7-.4 2.2 2.2 0 0 0-2.1 2.5c0 1.6.8 2.7 2.2 2.7a3.6 3.6 0 0 0 1.7-.5v1.3a4.5 4.5 0 0 1-1.8.4 3.8 3.8 0 0 1-.1-7.6zM59.2 147.4l-2.5-4.8h1.7l1.4 2.8.2.6.2-.6 1.4-2.8h1.7l-2.5 4.8v2.6h-1.6zM66.2 142.6h.7l2-.1c1.4 0 2.7.5 2.7 2.2a2 2 0 0 1-1.2 2.2c.6.5.9 1.7 1.4 2.6l.2.5h-1.7a3.6 3.6 0 0 1-.3-.5c-.4-1-.5-2.3-1.2-2.3h-1v2.8h-1.6zm2.6 3.5a1.2 1.2 0 0 0 1.3-1.3c0-.6-.2-1.1-1.4-1.1a4.3 4.3 0 0 0-1 0v2.4h1zM73 142.6h4.5v1.2h-3v1.8h2.3v1.2h-2.3v2h3.3v1.2H73zM79.1 148.4a4.1 4.1 0 0 0 2 .5c.8 0 1-.3 1-.8s-.3-.7-1.4-1.3a2.7 2.7 0 0 1-1.9-2.3c0-1.5 1.2-2 2.6-2a4 4 0 0 1 2 .4l-.3 1.2a3 3 0 0 0-1.6-.4c-.8 0-1.1.3-1.1.7s.3.8 1.2 1.3c1.2.6 2 1.1 2 2.3s-1 2-2.5 2a5.5 5.5 0 0 1-2.2-.4zM84.8 142.6h4.5v1.2h-3v1.8h2.3v1.2h-2.3v2h3.3v1.2h-4.8zM93.4 142.5h1.5l2.8 7.5H96l-.5-1.6h-2.7l-.5 1.6h-1.7zm1.8 4.8l-.8-2.5-.2-.8-.2.8-.8 2.5zM98.7 142.6h.7l2-.1c1.4 0 2.7.5 2.7 2.2a2 2 0 0 1-1.3 2.2c.6.5 1 1.7 1.4 2.6l.3.5h-1.7a3.6 3.6 0 0 1-.3-.5c-.4-1-.5-2.3-1.3-2.3h-1v2.8h-1.5zm2.5 3.5a1.2 1.2 0 0 0 1.3-1.3c0-.6-.2-1.1-1.3-1.1a4.4 4.4 0 0 0-1 0v2.4h1zM108.8 142.5a7.7 7.7 0 0 1 2 .3l-.2 1.3a3 3 0 0 0-1.7-.4 2.2 2.2 0 0 0-2.1 2.5c0 1.6.8 2.7 2.2 2.7a3.6 3.6 0 0 0 1.8-.5v1.3a4.5 4.5 0 0 1-1.9.4 3.8 3.8 0 0 1 0-7.6zM112 142.6h1.6v3h3v-3h1.4v7.4h-1.5v-3.2h-2.9v3.2h-1.5z"/>
          <path fill="var(--logo-lightBlue)" d="M0 107.2c0-11.1 7.3-17.8 17-17.8 4.5 0 9 1.1 10.8 1.2l-.6 10.3h-4.9l-1.6-7c-.5-.6-1.7-1.1-4.2-1.1-4.5 0-7.6 4.5-7.6 13.8 0 8.5 2.5 14.6 7.8 14.6 2.8 0 3.8-.6 4.5-1.4l2.1-5 4.5.5-.8 7.5c-3.1.3-5 1.8-10.8 1.8-10.8 0-16.2-7-16.2-17.4zM33.5 93.7L30 93v-3.2h25.1l.6 8.2h-3.6l-1.6-4.7-9-.5v12H47l.9-3.9H51v11.6h-3.1l-.8-4-5.7-.2V121l10-.7 2.9-6 3.9 1.2-1.1 8.6H30v-3l3.5-.5zM63.5 93.7l-3.4-.7v-3.2h7.5c2 0 4.2-.3 7.7-.3 10.1 0 13 3.8 13 10.3 0 7.8-4.9 12.4-13.7 12.4l-3.2-.1v8.4l6 .5v3H60v-3l3.5-.5zM74.4 109c3.3 0 6-2.1 6-9.1 0-5.2-2.1-7.4-6-7.4a16.4 16.4 0 0 0-3 .3v16a14 14 0 0 0 3 .2zM90 121l3.5-.5V93.6l-3.3-.6v-3.2h7c2.7 0 4.5-.3 7.8-.3 9.8 0 13.3 2.7 13.3 9.2 0 3.7-2 8.1-6.5 9.5 5.3 2 7 11.8 9.2 12.4l1.3.4v3h-8.7c-2.3 0-4.6-13.2-8-14.6h-4.2v11l4 .5v3H90zm20-22c0-4.3-1.5-6.4-5.7-6.4a15 15 0 0 0-3 .2v13.6a22.9 22.9 0 0 0 3.6.1c3.1 0 5.1-2.4 5.1-7.5zM63.7 49.8a3 3 0 1 1-6 0v-6.6a3 3 0 1 1 6 0zM31.7 58.8a3 3 0 1 1-6 0v-5.6a3 3 0 1 1 6 0z"/>
          <path fill="var(--logo-darkBlue)" d="M103.7 43a3 3 0 1 1-6 0V30a3 3 0 1 1 6 0z"/>
          <path fill="var(--logo-lightBlue)" d="M23.7 36a3 3 0 1 1-6 0v-6a3 3 0 1 1 6 0zM55.7 8a3 3 0 1 1-6 0V4a3 3 0 1 1 6 0z"/>
          <path fill="var(--logo-darkBlue)" d="M31.7 40a3 3 0 1 1-6 0V17a3 3 0 1 1 6 0zM39.7 75a3 3 0 0 1-6 0V47a3 3 0 0 1 6 0zM39.7 28.9a3 3 0 1 1-6 0V10.1a3 3 0 1 1 6 0zM47.7 67.1a3 3 0 0 1-6 0V53a3 3 0 0 1 6 0zM47.7 18a3 3 0 1 1-6 0V6a3 3 0 1 1 6 0zM71.7 56a3 3 0 0 1-6 0V40a3 3 0 0 1 6 0zM79.7 76a3 3 0 1 1-6 0V37a3 3 0 1 1 6 0zM87.7 68a3 3 0 0 1-6 0V43a3 3 0 0 1 6 0zM87.7 30a3 3 0 1 1-6 0V11a3 3 0 1 1 6 0z"/>
          <path fill="var(--logo-lightBlue)" d="M95.7 58a3 3 0 0 1-6 0v-7a3 3 0 0 1 6 0zM79.7 24a3 3 0 1 1-6 0v-4a3 3 0 1 1 6 0z"/>
          <path fill="var(--logo-darkBlue)" d="M95.7 35.9a3 3 0 1 1-6 0V17.1a3 3 0 1 1 6 0z"/>
          <circle fill="var(--logo-lightBlue)" cx="60.7" cy="3" r="3"/>
          <circle fill="var(--logo-lightBlue)" cx="52.7" cy="58" r="3"/>
          <circle fill="var(--logo-grey)" cx="68.7" cy="4" r="3"/>
          <circle fill="var(--logo-grey)" cx="52.7" cy="81" r="3"/>
          <circle fill="var(--logo-grey)" cx="60.7" cy="82" r="3"/>
          <path fill="var(--logo-grey)" d="M47.7 76.9a3 3 0 0 0-6 0V79a3 3 0 0 0 6 0z"/>
        </g>
    </symbol>
    <symbol id="cepr-name" viewBox="0 0 51.6 27.9">
        <g fill="var(--logo-darkBlue)">
            <path d="M112.856,27.311c0.401,0.21 0.846,0.319 1.298,0.319c0.563,0 0.739,-0.176 0.739,-0.515c0,-0.339 -0.2,-0.499 -0.979,-0.886c-0.594,-0.296 -1.249,-0.739 -1.249,-1.565c0,-0.994 0.798,-1.362 1.76,-1.362c0.452,-0.014 0.9,0.087 1.302,0.292l-0.172,0.822c-0.327,-0.213 -0.711,-0.326 -1.102,-0.323c-0.559,0 -0.754,0.203 -0.754,0.515c0,0.311 0.255,0.519 0.87,0.842c0.799,0.4 1.386,0.779 1.386,1.597c0,0.911 -0.703,1.406 -1.733,1.406c-0.52,0.007 -1.035,-0.093 -1.513,-0.296l0.147,-0.846Zm19.863,-4.009c0.464,0.004 0.926,0.069 1.373,0.196l-0.152,0.93c-0.347,-0.207 -0.749,-0.307 -1.153,-0.287c-0.819,0 -1.454,0.623 -1.454,1.685c0,1.062 0.575,1.812 1.533,1.812c0.411,-0.006 0.814,-0.116 1.17,-0.319l0,0.87c-0.399,0.177 -0.832,0.266 -1.269,0.264c-1.557,0 -2.52,-1.034 -2.52,-2.56c0,-1.672 1.098,-2.591 2.472,-2.591Zm-6.807,0.056l0.487,0c0.311,0 0.615,-0.056 1.341,-0.056c0.942,0 1.817,0.336 1.817,1.525c0,0.799 -0.312,1.258 -0.839,1.47c0.4,0.343 0.607,1.165 0.939,1.74l0.211,0.364l-1.174,0c-0.073,-0.116 -0.136,-0.237 -0.187,-0.364c-0.284,-0.591 -0.4,-1.549 -0.875,-1.553c-0.167,0 -0.379,0 -0.666,0l0,1.917l-1.054,0l0,-5.043Zm-20.621,5.043l-1.054,0l0,-5.043l0.487,0c0.307,0 0.615,-0.056 1.337,-0.056c0.946,0 1.817,0.336 1.817,1.525c0,0.799 -0.312,1.258 -0.839,1.47c0.4,0.343 0.611,1.165 0.943,1.74l0.207,0.364l-1.17,0c-0.073,-0.116 -0.136,-0.237 -0.187,-0.364c-0.284,-0.591 -0.399,-1.549 -0.875,-1.553c-0.167,0 -0.399,0 -0.666,0l0,1.917Zm30.602,0l-1.054,0l0,-5.043l1.054,0l0,2.092l1.964,0l0,-2.092l1.042,0l0,5.043l-1.042,0l0,-2.156l-1.964,0l0,2.156Zm-10.552,0l-1.15,0l-0.339,-1.066l-1.873,0l-0.331,1.066l-1.134,0l1.864,-5.099l1.066,0l1.897,5.099Zm-13.287,0l-3.294,0l0,-5.043l3.078,0l0,0.799l-2.024,0l0,1.253l1.553,0l0,0.799l-1.553,0l0,1.353l2.24,0l0,0.839Zm4.567,-5.043l3.074,0l0,0.799l-2.02,0l0,1.253l1.549,0l0,0.799l-1.549,0l0,1.353l2.236,0l0,0.839l-3.29,0l0,-5.043Zm6.955,3.218l-0.547,-1.733l-0.14,-0.519l-0.147,0.519l-0.539,1.733l1.373,0Zm-17.591,-0.822c0.026,0.002 0.053,0.004 0.079,0.004c0.438,0 0.799,-0.361 0.799,-0.799c0,-0.035 -0.003,-0.069 -0.007,-0.104c0,-0.399 -0.132,-0.77 -0.918,-0.77c-0.218,-0.004 -0.434,0.016 -0.647,0.06l0,1.597c0.139,0.012 0.519,0.016 0.694,0.016l0,-0.004Zm21.675,0c0.026,0.002 0.053,0.004 0.079,0.004c0.438,0 0.798,-0.361 0.798,-0.799c0,-0.035 -0.002,-0.069 -0.006,-0.104c0,-0.399 -0.132,-0.77 -0.919,-0.77c-0.217,-0.004 -0.434,0.016 -0.646,0.06l0,1.597c0.139,0.012 0.523,0.016 0.694,0.016l0,-0.004Zm-0.299,-10.037c1.393,-0.04 2.272,1.014 2.24,2.571c-0.032,1.741 -0.994,2.555 -2.34,2.579c-1.453,0.032 -2.328,-1.05 -2.296,-2.599c0.032,-1.749 1.03,-2.511 2.396,-2.551Zm-13.287,0.056l0.499,0c0.296,0 0.675,-0.056 1.226,-0.056c1.689,0 2.471,0.898 2.471,2.443c0,1.721 -0.998,2.723 -2.551,2.707c-0.471,0 -0.83,-0.052 -1.134,-0.052l-0.511,0l0,-5.042Zm24.394,-0.056c0.463,0.004 0.924,0.069 1.369,0.195l-0.151,0.931c-0.348,-0.208 -0.75,-0.308 -1.154,-0.288c-0.819,0 -1.45,0.623 -1.45,1.685c0,1.062 0.571,1.813 1.53,1.813c0.41,-0.006 0.813,-0.116 1.169,-0.32l0,0.87c-0.401,0.177 -0.835,0.267 -1.273,0.264c-1.553,0 -2.519,-1.034 -2.519,-2.559c0.004,-1.673 1.101,-2.591 2.479,-2.591Zm-29.452,0.056l0.986,0l1.88,2.966l0.399,0.755l-0.095,-1.198l0,-2.507l0.978,0l0,5.026l-1.054,0l-1.801,-2.855l-0.399,-0.798l0.116,1.198l0,2.455l-0.978,0l-0.032,-5.042Zm33.903,5.042l-1.058,0l0,-1.773l-1.692,-3.269l1.161,0l0.927,1.952l0.147,0.379l0.124,-0.379l0.954,-1.952l1.13,0l-1.693,3.277l0,1.765Zm-34.546,0l-1.166,0l-0.339,-1.066l-1.857,0l-0.331,1.066l-1.13,0l1.876,-5.098l1.066,0l1.881,5.098Zm13.462,0l-1.054,0l0,-5.042l0.316,0c0.559,0 1.01,-0.056 1.489,-0.056c1.154,0 1.844,0.495 1.844,1.74c0,1.154 -0.714,1.829 -2.02,1.829l-0.575,0l0,1.529Zm9.554,-0.798l1.817,0l0,0.798l-2.871,0l0,-5.042l1.054,0l0,4.244Zm2.607,-4.244l1.062,0l0,5.042l-1.062,0l0,-5.042Zm-5.485,2.479c0,-0.99 -0.4,-1.733 -1.174,-1.733c-0.703,0 -1.282,0.487 -1.282,1.785c0,0.994 0.4,1.78 1.23,1.78c0.751,0 1.226,-0.566 1.226,-1.832Zm-12.696,1.808c0.798,0 1.341,-0.531 1.341,-1.788c0,-1.258 -0.475,-1.757 -1.457,-1.757c-0.208,0 -0.439,0.036 -0.563,0.044l0,3.458c0.224,0.039 0.452,0.054 0.679,0.043Zm-9.191,-1.069l-0.547,-1.733l-0.143,-0.519l-0.144,0.519l-0.543,1.733l1.377,0Zm15.754,-0.504c0.515,0 0.998,-0.211 0.998,-1.042c0.005,-0.035 0.007,-0.072 0.007,-0.108c0,-0.475 -0.391,-0.866 -0.866,-0.866c-0.049,0 -0.098,0.004 -0.147,0.012c-0.18,0.003 -0.36,0.019 -0.539,0.048l0,1.933c0.182,0.017 0.365,0.025 0.547,0.023Zm-12.4,-10.356c1.397,-0.04 2.272,1.014 2.24,2.571c-0.032,1.741 -0.995,2.555 -2.34,2.579c-1.449,0.032 -2.324,-1.05 -2.296,-2.599c0.024,-1.748 1.03,-2.511 2.396,-2.551Zm19.611,0c1.393,-0.04 2.267,1.014 2.239,2.571c-0.036,1.741 -0.994,2.555 -2.339,2.579c-1.453,0.032 -2.328,-1.05 -2.3,-2.599c0.036,-1.748 1.034,-2.511 2.4,-2.551Zm10.396,0c1.393,-0.04 2.272,1.014 2.24,2.571c-0.032,1.741 -0.994,2.555 -2.34,2.579c-1.453,0.032 -2.327,-1.05 -2.296,-2.599c0.032,-1.748 1.031,-2.511 2.396,-2.551Zm13.834,0c0.464,0.004 0.926,0.069 1.373,0.196l-0.152,0.93c-0.347,-0.207 -0.749,-0.307 -1.153,-0.287c-0.799,0 -1.454,0.622 -1.454,1.684c0,1.062 0.575,1.813 1.533,1.813c0.411,-0.006 0.814,-0.116 1.17,-0.32l0,0.871c-0.401,0.177 -0.835,0.267 -1.273,0.263c-1.553,0 -2.52,-1.034 -2.52,-2.559c0.004,-1.673 1.102,-2.591 2.476,-2.591Zm-28.398,0c0.463,0.004 0.923,0.07 1.369,0.196l-0.152,0.93c-0.347,-0.207 -0.749,-0.307 -1.154,-0.287c-0.798,0 -1.449,0.622 -1.449,1.684c0,1.062 0.571,1.813 1.529,1.813c0.411,-0.005 0.814,-0.115 1.17,-0.32l0,0.871c-0.401,0.177 -0.835,0.267 -1.274,0.263c-1.553,0 -2.519,-1.034 -2.519,-2.559c0.004,-1.673 1.102,-2.591 2.48,-2.591Zm23.168,5.098l-1.034,0l-0.248,-2.702l-0.092,-1.546l-0.371,1.546l-0.723,2.754l-0.834,0l-0.799,-2.754l-0.375,-1.546l-0.12,1.546l-0.215,2.702l-0.974,0l0.535,-5.042l1.481,0l0.675,2.647l0.255,1.114l0.184,-1.114l0.607,-2.651l1.437,0l0.611,5.046Zm-34.583,0l-1.054,0l0,-5.042l0.487,0c0.308,0 0.615,-0.056 1.342,-0.056c0.942,0 1.812,0.335 1.812,1.525c0,0.799 -0.311,1.258 -0.838,1.469c0.399,0.344 0.611,1.166 0.942,1.741l0.208,0.363l-1.17,0c-0.074,-0.115 -0.136,-0.236 -0.188,-0.363c-0.283,-0.591 -0.399,-1.549 -0.874,-1.553l-0.667,0l0,1.916Zm18.725,-5.042l0.978,0l1.88,2.966l0.38,0.755l-0.096,-1.198l0,-2.523l0.982,0l0,5.042l-1.058,0l-1.801,-2.854l-0.399,-0.799l0.116,1.198l0,2.455l-0.982,0l0,-5.042Zm-25.436,0.798l-1.996,0l0,1.326l1.465,0l0,0.798l-1.465,0l0,2.12l-1.066,0l0.004,-5.042l3.058,0l0,0.798Zm15.039,0l-2.02,0l0,1.254l1.549,0l0,0.799l-1.549,0l0,1.353l2.236,0l0,0.838l-3.29,0l0,-5.042l3.074,0l0,0.798Zm27.141,-0.798l1.058,0l0,5.042l-1.058,0l0,-5.042Zm-8.332,2.479c0,-0.99 -0.399,-1.732 -1.174,-1.732c-0.703,0 -1.282,0.487 -1.282,1.784c0,0.994 0.4,1.781 1.23,1.781c0.739,0 1.226,-0.567 1.226,-1.833Zm-10.405,0c0,-0.99 -0.399,-1.732 -1.173,-1.732c-0.703,0 -1.282,0.487 -1.282,1.784c0,0.994 0.399,1.781 1.23,1.781c0.746,0 1.225,-0.567 1.225,-1.833Zm-19.61,0c0,-0.99 -0.4,-1.732 -1.174,-1.732c-0.703,0 -1.282,0.487 -1.282,1.784c0,0.994 0.4,1.781 1.23,1.781c0.751,0 1.226,-0.567 1.226,-1.833Zm3.573,-0.084c0.033,0.004 0.065,0.006 0.098,0.006c0.438,0 0.799,-0.36 0.799,-0.798c0,-0.034 -0.002,-0.068 -0.007,-0.102c0,-0.399 -0.132,-0.77 -0.918,-0.77c-0.217,-0.004 -0.434,0.016 -0.647,0.06l0,1.596c0.12,0.008 0.499,0.012 0.675,0.012l0,-0.004Zm-8.292,-10.037c0.464,0.004 0.926,0.07 1.373,0.196l-0.152,0.93c-0.347,-0.207 -0.749,-0.307 -1.154,-0.287c-0.818,0 -1.453,0.623 -1.453,1.685c0,1.062 0.575,1.812 1.533,1.812c0.411,-0.006 0.814,-0.116 1.17,-0.319l0,0.87c-0.401,0.177 -0.835,0.267 -1.273,0.264c-1.554,0 -2.52,-1.034 -2.52,-2.559c0.012,-1.673 1.11,-2.592 2.476,-2.592Zm18.724,0.855l-2.02,0l0,1.253l1.549,0l0,0.799l-1.549,0l0,1.353l2.236,0l0,0.839l-3.29,0l0,-5.043l3.074,0l0,0.799Zm-3.721,0.008l-1.429,0l0,4.236l-1.058,0l-0.008,-4.236l-1.445,0l0,-0.799l3.94,0l0,0.799Zm5.761,4.236l-1.054,0l0,-5.043l0.487,0c0.308,0 0.615,-0.056 1.342,-0.056c0.942,0 1.812,0.336 1.812,1.526c0,0.798 -0.311,1.257 -0.838,1.469c0.399,0.343 0.611,1.166 0.942,1.741l0.208,0.363l-1.17,0c-0.073,-0.116 -0.136,-0.237 -0.188,-0.363c-0.283,-0.591 -0.399,-1.55 -0.874,-1.554l-0.667,0l0,1.917Zm-14.572,-5.043l0.994,0l1.876,2.967l0.4,0.754l-0.096,-1.197l0,-2.524l0.978,0l0,5.043l-1.058,0l-1.797,-2.855l-0.399,-0.798l0.116,1.197l0,2.456l-0.978,0l-0.036,-5.043Zm-1.002,0.799l-1.996,0l0,1.253l1.553,0l0,0.799l-1.553,0l0,1.353l2.239,0l0,0.839l-3.289,0l-0.012,-5.043l3.058,0l0,0.799Zm16.269,1.597c0.026,0.002 0.052,0.004 0.079,0.004c0.438,0 0.798,-0.361 0.798,-0.799c0,-0.034 -0.002,-0.069 -0.007,-0.103c0,-0.4 -0.131,-0.771 -0.918,-0.771c-0.217,-0.004 -0.434,0.016 -0.647,0.06l0,1.597c0.14,0.012 0.519,0.016 0.695,0.016l0,-0.004Z"/>
        </g>
    </symbol>
    <symbol id="icon-menu" viewBox="84 0 512 512">
        <title>Icon menu</title>
        <path d="M256 294.1L383 167c9.4-9.4 24.6-9.4 33.9 0s9.3 24.6 0 34L273 345c-9.1 9.1-23.7 9.3-33.1.7L95 201.1c-4.7-4.7-7-10.9-7-17s2.3-12.3 7-17c9.4-9.4 24.6-9.4 33.9 0l127.1 127z"/>
    </symbol>
    <symbol id="icon-search" viewBox="0 0 512 512">
        <title>Icon search</title>
        <path d="M443.5 420.2L336.7 312.4c20.9-26.2 33.5-59.4 33.5-95.5 0-84.5-68.5-153-153.1-153S64 132.5 64 217s68.5 153 153.1 153c36.6 0 70.1-12.8 96.5-34.2l106.1 107.1c3.2 3.4 7.6 5.1 11.9 5.1 4.1 0 8.2-1.5 11.3-4.5 6.6-6.3 6.8-16.7.6-23.3zm-226.4-83.1c-32.1 0-62.3-12.5-85-35.2-22.7-22.7-35.2-52.9-35.2-84.9 0-32.1 12.5-62.3 35.2-84.9 22.7-22.7 52.9-35.2 85-35.2s62.3 12.5 85 35.2c22.7 22.7 35.2 52.9 35.2 84.9 0 32.1-12.5 62.3-35.2 84.9-22.7 22.7-52.9 35.2-85 35.2z"/>
    </symbol>
    <clipPath id="icon-news" viewBox="0 0 512 512">
        <path d="M464 64H192c-8.8 0-16 7.7-16 16.5V112H74c-23.1 0-42 18.9-42 42v207.5c0 47.6 39 86.5 86 86.5h279.7c45.1 0 82.3-36.9 82.3-82V80c0-8.8-7.2-16-16-16zm-288 80v192h-42V163.2c0-6.8-.8-13.3-3.3-19.2H176zm-17 255.4C148 410 133.2 416 118.5 416c-14.5 0-28.1-5.7-38.5-16-10.3-10.3-16-24-16-38.5V163.2c0-10.6 8.4-19.2 19-19.2s19 8.6 19 19.2V352c0 8.8 7.2 16 16 16h57.5c-1.5 11.6-7.2 22.6-16.5 31.4zM448 366c0 13.3-5.4 25.8-14.9 35.3-9.5 9.5-22.2 14.7-35.4 14.7H187.3c12.8-14.9 20.7-33.9 20.7-54.5V97h240v269z"/><path d="M248 136h160v56H248zM248 224h160v32H248zM248 288h160v32H248zM408 352H248s0 32-8 32h148.7c19.3 0 19.3-21 19.3-32z"/>
    </clipPath>
</svg>
