<?xml version="1.0" encoding="UTF-8" standalone="no"?><!DOCTYPE svg PUBLIC "-//W3C//DTD SVG 1.1//EN" "http://www.w3.org/Graphics/SVG/1.1/DTD/svg11.dtd"><svg width="100%" height="100%" viewBox="0 0 500 500" version="1.1" xmlns="http://www.w3.org/2000/svg" xmlns:xlink="http://www.w3.org/1999/xlink" xml:space="preserve" xmlns:serif="http://www.serif.com/" style="fill-rule:evenodd;clip-rule:evenodd;stroke-linejoin:round;stroke-miterlimit:1.41421;"><path d="M350.75,66.485l-4.1,0c-1.4,0 -3.1,-0.3 -5.3,-0.5l-3.5,-0.4l-4.1,-0.7c-3.427,-0.604 -6.829,-1.338 -10.2,-2.2l-5.6,-1.6l-5.8,-1.9c-8,-2.7 -15.1,-5.4 -21.4,-7.1c-2.9,-0.7 -5.4,-1.4 -7.5,-1.8l-5.1,-1l-2.9,-0.5l-0.9,-0.3c0,-0.1 1.1,-0.2 3.7,0.2l5.1,0.8c2.1,0.3 4.6,1 7.5,1.6l5,1.4l5.4,1.7l11.5,4l5.7,1.9l5.4,1.6l5.1,1.2l4.8,1l4,0.8l3.5,0.5l5.3,0.7c3,0.3 4.4,0.5 4.4,0.6Zm128.8,-19.2l-4.8,0.1l-5,0.1l-5.8,0.4l-2.9,0.2l-2.7,0.3l-4.6,0.5l-3.1,0.4l-0.8,0.1l-0.3,0l0.3,-0.1l0.8,-0.2c0.7,-0.1 1.8,-0.4 3.1,-0.5l4.6,-0.6l2.7,-0.3l2.9,-0.2l5.8,-0.3l5,-0.1l4.8,0.2Zm-253.1,2.1l4.9,-0.6l4.3,-0.4l5.8,-0.6c1.4,-0.2 2.3,-0.4 1.7,-0.5c-0.6,-0.1 -2.5,-0.3 -6.6,0l-6.1,0.4l-6.1,0.7l-1.5,0.2l-1.5,0.3l-3,0.5l-3,0.5l-3,0.7c-7.801,1.825 -15.482,4.129 -23,6.9c-8.125,2.901 -16.491,5.076 -25,6.5c-2.1,0.4 -4.3,0.6 -6.4,0.9l-3.2,0.4l-3.2,0.2l-6.4,0.4l-6.5,0.2c-12.2,0.2 -24.4,-0.4 -36.4,-2.6c-6,-1.2 -11.9,-2.7 -17.7,-4.7c-5.8,-1.9 -11.6,-3.9 -17.5,-5.7c-4.5,-1.3 -11.8,-3.2 -19,-4.2l-5.4,-0.6l-2.6,-0.3l-2.5,-0.2l-4.5,-0.2l-3.7,-0.1l-8.7,0l3.3,0.1l5.7,0.2l5.9,0.4l3.6,0.3l3.6,0.5c10.841,1.494 21.498,4.108 31.8,7.8c8,2.8 16,5.7 24.5,7.6c8.9,2.1 18.1,3 27.2,3.5c4.5,0.1 9.1,0.3 13.6,0.1l6.7,-0.2l6.7,-0.5c12.7,-1.1 24.9,-4.1 36.8,-8.2c5.9,-2 11.8,-4.1 17.9,-5.7c1.5,-0.5 3,-0.8 4.6,-1.2c1.5,-0.3 3.1,-0.8 4.6,-1c3,-0.8 6.1,-1.5 9.3,-1.8Zm199.5,6.4l-0.7,0.3l-1.9,0.7c-3.918,1.411 -7.851,2.778 -11.8,4.1l-6.3,1.8l-6.5,1.6l-5.8,1l-3.9,0.5l-3.5,0.3c-1,0.1 -1.9,0.2 -2.5,0.1l-1,-0.1l1.2,-0.2l3,-0.4c2.4,-0.3 5.5,-0.6 8.1,-1.2l5,-1l5.8,-1.4l5.8,-1.6l5,-1.5l6.8,-2.2l2.2,-0.7c0.6,-0.1 0.9,-0.2 1,-0.1Z" style="fill-rule:nonzero;"/><path d="M225.95,60.485l-0.9,0.1c-7.964,1.079 -15.824,2.818 -23.5,5.2c-7.7,2.3 -15.3,5.1 -23.3,7.3l-2.2,0.6l-2.1,0.5l-3.8,0.9l-6.4,1.2l-1.4,0.3l-1.3,0.2l-2.5,0.3l-4.7,0.6c-6.2,0.5 -12.4,1.1 -24.9,0.7l-4.4,-0.1c-1.301,-0.093 -2.601,-0.193 -3.9,-0.3c-2.4,-0.2 -4.6,-0.3 -6.5,-0.6l-5.3,-0.7c-1.6,-0.2 -3.2,-0.6 -4.7,-0.9c-6.1,-1.2 -12.2,-2.7 -23.9,-6.8c-8.1,-2.8 -16.2,-5.6 -24.5,-7.4l-3,-0.6l-3,-0.5l-3,-0.5l-3,-0.4l-2.8,-0.4c-1,-0.1 -1.9,-0.3 -2.9,-0.3l-5.8,-0.5l-2.1,-0.2l-2,-0.1l-4.8,-0.2l-2.3,-0.1l2.2,0l8.3,0.1l8.4,0.5l4.4,0.5c1.4,0.2 2.9,0.3 4.2,0.6l4.1,0.7l2,0.4l2,0.5l4,0.9l4,1.1c2.7,0.7 5.3,1.6 7.9,2.4l7.8,2.6c11.7,4 17.8,5.2 23.9,6.2l4.7,0.7l5.3,0.6c1.9,0.3 4,0.3 6.4,0.5l3.8,0.2l4.3,0.1c12.3,0.3 18.5,-0.2 24.6,-0.6l4.7,-0.5l2.5,-0.3l1.3,-0.2l1.4,-0.2l6.3,-1.1l3.7,-0.9l2,-0.5l2.2,-0.6l4.2,-1.2l3.7,-1.2l6.1,-2.1l9.6,-3.2l2.2,-0.7l2.3,-0.7c1.6,-0.4 3.3,-1 5.2,-1.4c4.782,-1.158 9.622,-2.059 14.5,-2.7c6.1,-0.9 10,-0.1 10.8,0.3c0.1,0.1 0.2,0.1 0,0.2c-0.3,0.2 -2.1,0.4 -4,0.7l-3,0.4l-2.4,0.4c0.1,0.1 -0.3,0.1 -0.7,0.2Zm175.6,13.5l-1.1,0.4l-1.4,0.4l-2,0.4l-5.7,1.1l-7.8,1.1l-4.9,0.4c-1.7,0.1 -3.4,0.4 -5.2,0.4l-5.6,0.2l-2.9,0.1l-3,0c-3.5,-0.1 -7.1,0 -10.8,-0.4l-5.6,-0.4l-5.7,-0.7c-7.6,-1 -14.7,-2.7 -21.3,-4.7c-7.8,-2.4 -14.9,-4.9 -20.8,-6.8c-11,-3.7 -17.3,-4.7 -17.2,-5.2c0,-0.2 1.6,-0.2 4.5,0.2l5.5,1l7.5,1.9c6,1.7 13.2,5 21,7.4c6.5,2 13.6,3 21.1,4.1l5.7,0.7l5.6,0.4c3.7,0.3 7.3,0.3 10.8,0.5l3,0.1l8.7,0l5.3,-0.2l4.9,-0.2l7.7,-0.8l5.5,-0.8l3.3,-0.5c0.5,-0.2 0.9,-0.2 0.9,-0.1Zm78,-16.3l-6.1,0.2c-3.7,0 -8.7,0.5 -13.8,1l-7.2,0.9l-5.8,1l-5.3,0.9l1.4,-0.4l3.9,-0.9l5.8,-1.1l7.2,-0.9c5.1,-0.4 10.1,-0.7 13.9,-0.7l6,0Z" style="fill-rule:nonzero;"/><path d="M350.75,87.385l-4.1,0c-1.4,0 -3.1,-0.3 -5.3,-0.5l-3.5,-0.4l-4.1,-0.7c-3.427,-0.604 -6.829,-1.338 -10.2,-2.2l-5.6,-1.6l-5.8,-1.9c-8,-2.7 -15.1,-5.4 -21.4,-7.1c-2.9,-0.7 -5.4,-1.4 -7.5,-1.8l-5.1,-1l-2.9,-0.5l-0.9,-0.3c0,-0.1 1.1,-0.2 3.7,0.2l5.1,0.8c2.1,0.3 4.6,1 7.5,1.6l5,1.4l5.4,1.7l11.5,4l5.7,1.9l5.4,1.6l5.1,1.2l4.8,1l4,0.8l3.5,0.5l5.3,0.7c3,0.3 4.4,0.5 4.4,0.6Zm128.8,-19.3l-4.8,0.1l-5,0.1l-5.8,0.4l-2.9,0.2l-2.7,0.3l-4.6,0.5l-3.1,0.4l-0.8,0.1l-0.3,0l0.3,-0.1l0.8,-0.2c0.7,-0.1 1.8,-0.4 3.1,-0.5l4.6,-0.6l2.7,-0.3l2.9,-0.2l5.8,-0.3l5,-0.1c2.9,0.3 4.5,0.2 4.8,0.2Zm-253.1,2.2l4.9,-0.6l4.3,-0.4l5.8,-0.6c1.4,-0.2 2.3,-0.4 1.7,-0.5c-0.6,-0.1 -2.5,-0.3 -6.6,0l-6.1,0.4l-6.1,0.7l-1.5,0.2l-1.5,0.3l-3,0.5l-3,0.5l-3,0.7c-7.801,1.825 -15.482,4.129 -23,6.9c-8.125,2.901 -16.491,5.076 -25,6.5c-2.1,0.4 -4.3,0.6 -6.4,0.9l-3.2,0.4l-3.2,0.2l-6.4,0.4l-6.6,0c-12.2,0.2 -24.4,-0.4 -36.4,-2.6c-6,-1.2 -11.9,-2.7 -17.7,-4.7c-5.8,-1.9 -11.6,-3.9 -17.5,-5.7c-4.5,-1.3 -11.8,-3.2 -19,-4.2l-5.4,-0.6l-2.6,-0.3l-2.5,-0.2l-4.5,-0.2l-3.7,-0.1l-8.7,0l3.3,0.1l5.7,0.2l5.9,0.4l3.6,0.3l3.6,0.5c10.841,1.494 21.498,4.108 31.8,7.8c8,2.8 16,5.7 24.5,7.6c8.9,2.1 18.1,3 27.2,3.5c4.5,0.1 9.1,0.3 13.6,0.1l6.7,-0.2l6.7,-0.5c12.7,-1.1 24.9,-4.1 36.8,-8.2c5.9,-2 11.8,-4.1 17.9,-5.7c1.5,-0.5 3,-0.8 4.6,-1.2c1.5,-0.3 3.1,-0.8 4.6,-1c3.1,-0.6 6.2,-1.3 9.4,-1.6Zm199.5,6.4l-0.7,0.3l-1.9,0.7c-3.918,1.411 -7.851,2.778 -11.8,4.1l-6.3,1.8l-6.5,1.6l-5.8,1l-3.9,0.5l-3.5,0.3c-1,0.1 -1.9,0.2 -2.5,0.1l-1,-0.1l1.2,-0.2l3,-0.4c2.4,-0.3 5.5,-0.6 8.1,-1.2l5,-1l5.8,-1.4l5.8,-1.6l5,-1.5l6.8,-2.2l2.2,-0.7c0.6,-0.1 0.9,-0.2 1,-0.1Z" style="fill-rule:nonzero;"/><path d="M479.55,78.585l-5.9,0.1l-7.1,0.3l-6.8,0.5l-4.4,0.5l-1.5,0.1l-0.6,0l1.8,-0.3l4,-0.5l3.4,-0.3l4.1,-0.2c2.8,-0.2 5.7,-0.2 7.8,-0.2l5.2,0Zm-46.6,6.2l-3.2,1.2l-3.7,1.4l-3.8,1.3l-3.8,1.2l-3.8,1.3c-2.1,0.6 -3.2,0.8 -3.3,0.6c-0.1,-0.2 0.9,-0.7 2.9,-1.5c1.1,-0.4 2.5,-0.6 3.9,-1.1c1.2,-0.4 2.3,-1.1 3.7,-1.5l3.9,-1.3c1.4,-0.5 2.8,-0.8 3.9,-1.1c1.078,-0.289 2.185,-0.457 3.3,-0.5Zm-27.4,8.8c0.1,0.2 -2.9,1.3 -6.2,2.1c-3.3,0.6 -6.7,0.9 -6.7,0.6c2.076,-0.869 4.264,-1.441 6.5,-1.7c1.2,-0.3 2.5,-0.7 3.4,-0.8c1.6,-0.4 3,-0.3 3,-0.2Zm40.1,-12.2c0,0.1 -1.7,0.7 -3.5,1.1c-1.8,0.4 -3.4,0.6 -3.4,0.5c0,-0.2 1.4,-0.6 3.3,-1l3.6,-0.6Zm-273.4,13.9c-3.4,0.9 -5.1,1 -6.9,1.3l-2.8,0.4l-4.1,0.5l-4.1,0.6l-2.8,0.3l-6.9,0.6l-7,0.2l-2.8,0.1l-4.1,-0.1c-7,-0.1 -7,-0.4 -13.9,-0.8c-6.9,-0.8 -7,-0.6 -13.8,-1.9l-4.1,-0.8l-2.8,-0.6c-1.7,-0.3 -3.4,-0.8 -6.8,-1.8c-6.7,-2.1 -6.6,-2.4 -13.2,-4.6c-2.173,-0.811 -4.375,-1.545 -6.6,-2.2l-2.7,-0.8l-3.9,-1.1l-2.2,-0.6c-0.591,-0.17 -1.192,-0.304 -1.8,-0.4l-2.7,-0.7c-1.7,-0.5 -3.4,-0.8 -6.8,-1.4c-1.7,-0.4 -3,-0.5 -4.1,-0.7l-2.8,-0.4l-2.8,-0.4l-4.1,-0.4c-4.5,-0.5 -9,-0.6 -13.6,-0.8l-0.6,0c-0.7,0 -1.2,-0.1 -0.8,0l10,0l1.7,0.1l3.3,0.2l4.1,0.2l5.6,0.6l4.1,0.6c3.4,0.6 5.2,0.8 6.9,1.2l2.8,0.6l1.8,0.4l2.2,0.6l4,1.1l2.7,0.8l6.6,2.1c6.6,2.2 6.5,2.4 13.1,4.4l6.6,1.9l2.7,0.7l4,0.9c6.8,1.3 6.9,0.9 13.7,1.7c6.9,0.5 6.9,0.5 13.8,0.6l6.9,0.2l6.9,0c3.5,-0.1 5.2,-0.3 6.9,-0.4l2.8,-0.2l4.1,-0.5l3.8,-0.5l3.8,-0.7l3.7,-0.7c1.6,-0.4 3.2,-0.8 4.6,-0.7c1.9,-0.1 -0.4,1 -1.6,1.3Zm151.9,-0.9l-6.3,-1.8l-6.2,-2.1c-6.1,-2.1 -6.1,-2.2 -12.3,-4.2l-6.2,-1.8l-2.5,-0.7l-3.7,-0.9c-3.1,-0.8 -4.8,-0.9 -6.4,-1.1l-6.4,-0.8c-6.4,-0.8 -6.4,-1 -12.8,-1.5l-3.8,-0.1l-2.6,0.1l-2.6,0.1l-3.8,0c-3.2,0.1 -4.8,0 -6.5,-0.1l-2.6,-0.1l-3.8,0.2c-3.2,0.2 -4.8,0.4 -6.4,0.8l-6.4,1.1c-2.121,0.409 -4.255,0.742 -6.4,1c-1.6,0.2 -3.2,0.6 -6.3,1.3l-6.2,1.7l-6.2,1.9c-6.1,2.1 -6.1,2.2 -12.3,4.2c-2.6,0.8 -6.2,0.3 -0.5,-1.7c6.1,-2.2 6,-2.4 12.2,-4.5c4.103,-1.411 8.275,-2.612 12.5,-3.6l6.4,-1.4l6.4,-1.1l6.5,-0.8l6.5,-0.6l3.9,-0.3l2.6,-0.1l6.5,-0.1l3.9,0l5.2,0.2c1,0 2.2,0 3.9,0.2c6.5,0.5 6.6,-0.1 13,0.7c3.3,0.4 4.8,0.9 6.4,1.3l6.4,1.6l3.8,0.9l2.6,0.7c6.243,1.83 12.444,3.797 18.6,5.9l6.2,1.9l6.2,1.8c6.2,1.7 6.7,2.3 5.4,2.5c-1.978,-0.123 -3.948,-0.357 -5.9,-0.7Zm62.1,2.5l-1.1,0.4l-1.4,0.3l-1.9,0.3c-1.5,0.2 -3.1,0.1 -4.7,0.3c-1.8,0.3 -3.7,0.4 -5.6,0.5l-6.5,0.1c-3.8,-0.1 -7.5,0 -11.3,-0.2c-4,-0.3 -8,-0.7 -11.9,-1.5c-1.4,-0.3 -3.2,-0.4 -4.4,-0.9c-0.11,0 -0.2,-0.091 -0.2,-0.2l0.1,-0.3c1.3,-0.2 3.2,0.2 4.7,0.3c3.296,0.262 6.597,0.462 9.9,0.6l2.4,0.2l2.5,0.1l5,0l5,0.2l9.9,0l5,-0.3l3.3,0l1.2,0.1Z" style="fill-rule:nonzero;"/><path d="M99.25,105.385l-1.8,-0.3l-2.2,-0.5l-3,-0.8l-3.8,-1l-4.3,-1.3l-8.1,-2.8l-8,-2.7l-4.3,-1.3c-1.4,-0.4 -2.6,-0.8 -3.8,-1l-5,-1.3l-1.8,-0.4l1.7,0.2l5,1c1.2,0.2 2.5,0.6 3.9,1.1l4.4,1.3l8.1,2.4l8.2,2.7c2.682,0.922 5.382,1.789 8.1,2.6l5,1.4l1.7,0.7Zm-63.7,-15.8l-0.7,0l-1.7,-0.1c-0.836,-0.025 -1.671,-0.092 -2.5,-0.2l-2.9,-0.1l-7.2,-0.2l7.2,0.1l2.9,0l2.5,0.2l1.7,0.1l0.5,0l0.2,0.2Zm276.2,11.7l-0.3,-0.1c-6,-2 -11.8,-4.4 -17.9,-6.1c-9.3,-2.5 -9.3,-2.3 -18.8,-3.7l-5.6,-0.7l-3.9,-0.4c-2.4,-0.2 -4.8,-0.6 -9.6,-0.6l-5,-0.1l-4.9,0.2l-4.7,0.2l-4.5,0.3l-3.5,0l-0.9,-0.1c-1.4,-0.3 2.2,-1 4,-1.2l3.3,-0.3l3.4,0l6.4,-0.1l6.4,0.1c4.8,0 7.2,0.2 9.7,0.3l3.9,0.2l5.7,0.7c9.6,1.5 9.5,1.8 18.9,4.3c9.3,2.8 9.2,2.9 18.3,6c2.2,0.8 3.5,1.7 3.7,2l0,0.1c-0.3,0.1 -2.7,-0.6 -3.7,-0.8l-0.4,-0.2Zm-132.6,2c0,0.1 -0.8,0.5 -2.6,1.1l-3.5,1c-1.4,0.3 -3.1,0.9 -5.2,1.2l-3.4,0.6c-1.2,0.2 -2.4,0.5 -3.7,0.6l-4,0.5l-2.1,0.3l-2.1,0.2c-2.9,0.2 -5.7,0.4 -8.3,0.4l-10.3,0l-2.5,-0.1l-3.6,-0.2c-1.9,-0.1 -2.7,-0.2 -2.7,-0.3c0,-0.1 0.8,-0.2 2.6,-0.2l8.8,-0.1l7.5,-0.2l4.1,-0.2l4.3,-0.3c5.031,-0.455 10.037,-1.156 15,-2.1l5.2,-1l3.6,-0.8l2.9,-0.4Zm201.4,5.1l-1.8,0.3l-2.2,0.2l-3.1,0.2l-8.4,0.4l-8.6,-0.2l-4.3,-0.2l-4.1,-0.3l-2.3,-0.2l-2.2,-0.2l-3.9,-0.5l-1.6,-0.2l-1.4,-0.3l-2.2,-0.5c-1.2,-0.3 -1.7,-0.5 -1.7,-0.6l1.8,-0.1l2.1,0.2l1.4,0.2l1.6,0.1l4,0.6l2.2,0.4l2.3,0.2l4.1,0.1l4.3,0.1l8.7,0.2l8.5,0.1l5.2,0c1,-0.2 1.6,-0.1 1.6,0Zm30.6,-5.8l-2.2,0.9c-3.31,1.187 -6.725,2.058 -10.2,2.6l-2.1,0.1l2,-0.6l5,-1.2l5.2,-1.3c0.733,-0.296 1.511,-0.465 2.3,-0.5Zm-197.7,-10c-2.338,1.001 -4.744,1.836 -7.2,2.5l-4.3,1.4l-7.7,2.3c-2,0.5 -3.2,0.8 -3.3,0.6c0,-0.1 1.1,-0.7 3,-1.4c1.9,-0.8 4.6,-1.7 7.6,-2.7l4.4,-1.3l3.8,-1l3.7,-0.4Zm242.1,-2.1l-1.8,0.3l-4,0.7c-1.78,0.387 -3.584,0.654 -5.4,0.8l1.5,-0.5l3.8,-0.7l4,-0.6l1.9,0Zm24,-1.5l-5.9,0.2l-3.8,0.1l-1.6,0l0.4,-0.1l1.2,-0.1l3.8,-0.1l5.9,0Z" style="fill-rule:nonzero;"/><path d="M479.55,99.485l-5.9,0.1l-7.1,0.3l-6.8,0.5l-4.4,0.5l-1.5,0.1l-0.6,0l1.8,-0.3l4,-0.5l3.4,-0.3l4.1,-0.2c2.8,-0.2 5.7,-0.2 7.8,-0.2l5.2,0Zm-46.6,6.2l-3.2,1.2l-3.7,1.4l-3.8,1.3l-3.8,1.2l-3.8,1.3c-2.1,0.6 -3.2,0.8 -3.3,0.6c-0.1,-0.2 0.9,-0.7 2.9,-1.5c1.1,-0.4 2.5,-0.6 3.9,-1.1c1.2,-0.4 2.3,-1.1 3.7,-1.5l3.9,-1.3c1.4,-0.5 2.8,-0.8 3.9,-1.1c2.1,-0.5 3.2,-0.7 3.3,-0.5Zm-27.4,8.8c0.1,0.2 -2.9,1.3 -6.2,2.1c-3.3,0.6 -6.7,0.9 -6.7,0.6c2.076,-0.869 4.264,-1.441 6.5,-1.7c1.2,-0.3 2.5,-0.7 3.4,-0.8c1.6,-0.4 3,-0.3 3,-0.2Zm40.1,-12.2c0,0.1 -1.7,0.7 -3.5,1.1c-1.8,0.4 -3.4,0.6 -3.4,0.5c0,-0.2 1.4,-0.6 3.3,-1l3.6,-0.6Zm-273.4,13.9c-3.4,0.9 -5.1,1 -6.9,1.3l-2.8,0.4l-4.1,0.5l-4.1,0.6l-2.8,0.3l-6.9,0.6l-7,0.2l-2.8,0.1l-4.1,-0.1c-7,-0.1 -7,-0.4 -13.9,-0.8c-6.9,-0.8 -7,-0.6 -13.8,-1.9l-4.1,-0.8l-2.8,-0.6c-1.7,-0.3 -3.4,-0.8 -6.8,-1.8c-6.7,-2.1 -6.6,-2.4 -13.2,-4.6c-2.173,-0.811 -4.375,-1.545 -6.6,-2.2l-2.7,-0.8l-3.9,-1.1l-2.2,-0.6c-0.591,-0.17 -1.192,-0.304 -1.8,-0.4l-2.7,-0.7c-1.7,-0.5 -3.4,-0.8 -6.8,-1.4c-1.7,-0.4 -3,-0.5 -4.1,-0.7l-2.8,-0.4l-2.8,-0.4l-4.1,-0.4c-4.5,-0.5 -9,-0.6 -13.6,-0.8l-0.6,0c-0.7,0 -1.2,-0.1 -0.8,0l10,0l1.7,0.1l3.3,0.2l4.1,0.2l5.6,0.6l4.1,0.6c3.4,0.6 5.2,0.8 6.9,1.2l2.8,0.6l1.8,0.4l2.2,0.6l4,1.1l2.7,0.8l6.6,2.1c6.6,2.2 6.5,2.4 13.1,4.4l6.6,1.9l2.7,0.7l4,0.9c6.8,1.3 6.9,0.9 13.7,1.7c6.9,0.5 6.9,0.5 13.8,0.6l6.9,0.2l6.9,0c3.5,-0.1 5.2,-0.3 6.9,-0.4l2.8,-0.2l4.1,-0.5l3.8,-0.5l3.8,-0.7l3.7,-0.7c1.6,-0.4 3.2,-0.8 4.6,-0.7c1.9,-0.1 -0.4,1 -1.6,1.3Zm151.9,-0.9l-6.3,-1.8l-6.2,-2.1c-6.1,-2.1 -6.1,-2.2 -12.3,-4.2l-6.2,-1.8l-2.5,-0.7l-3.7,-0.9c-3.1,-0.8 -4.8,-0.9 -6.4,-1.1l-6.4,-0.8c-6.4,-0.8 -6.4,-1 -12.8,-1.5l-3.8,-0.1l-2.6,0.1l-2.6,0.1l-3.8,0c-3.2,0.1 -4.8,0 -6.5,-0.1l-2.6,-0.1l-3.8,0.2c-3.2,0.2 -4.8,0.4 -6.4,0.8l-6.4,1.1c-2.121,0.409 -4.255,0.742 -6.4,1c-1.6,0.2 -3.2,0.6 -6.3,1.3l-6.2,1.7l-6.2,1.9c-6.1,2.1 -6.1,2.2 -12.3,4.2c-2.6,0.8 -6.2,0.3 -0.5,-1.7c6.1,-2.2 6,-2.4 12.2,-4.5c4.103,-1.411 8.275,-2.612 12.5,-3.6l6.4,-1.4l6.4,-1.1l6.5,-0.8l6.5,-0.6l3.9,-0.3l2.6,-0.1l6.5,-0.1l3.9,0l5.2,0.2c1,0 2.2,0 3.9,0.2c6.5,0.5 6.6,-0.1 13,0.7c3.3,0.4 4.8,0.9 6.4,1.3l6.4,1.6l3.8,0.9l2.6,0.7c6.243,1.83 12.444,3.797 18.6,5.9l6.2,1.9l6.2,1.8c6.2,1.7 6.7,2.3 5.4,2.5c-1.978,-0.123 -3.948,-0.357 -5.9,-0.7Zm62.1,2.5l-1.1,0.4l-1.4,0.3l-1.9,0.3c-1.5,0.2 -3.1,0.1 -4.7,0.3c-1.8,0.3 -3.7,0.4 -5.6,0.5l-6.5,0.1c-3.8,-0.1 -7.5,0 -11.3,-0.2c-4,-0.3 -8,-0.7 -11.9,-1.5c-1.4,-0.3 -3.2,-0.4 -4.4,-0.9c-0.11,0 -0.2,-0.091 -0.2,-0.2l0.1,-0.3c1.3,-0.2 3.2,0.2 4.7,0.3c3.296,0.262 6.597,0.462 9.9,0.6l2.4,0.2l2.5,0.1l5,0l5,0.2l9.9,0l5,-0.3l3.3,0l1.2,0.1Z" style="fill-rule:nonzero;"/><path d="M99.25,126.285l-1.8,-0.3l-2.2,-0.5l-3,-0.8l-3.8,-1l-4.3,-1.3l-8.1,-2.8l-8,-2.7l-4.3,-1.3c-1.4,-0.4 -2.6,-0.8 -3.8,-1l-5,-1.3l-1.8,-0.4l1.7,0.2l5,1c1.2,0.2 2.5,0.6 3.9,1.1l4.4,1.3l8.1,2.4l8.2,2.7c2.682,0.922 5.382,1.789 8.1,2.6l5,1.4l1.7,0.7Zm-63.7,-15.8l-0.7,0l-1.7,-0.1c-0.836,-0.025 -1.671,-0.092 -2.5,-0.2l-2.9,-0.1l-7.2,-0.2l7.2,0.1l2.9,0l2.5,0.2l1.7,0.1l0.5,0l0.2,0.2Zm276.2,11.7l-0.3,-0.1c-6,-2 -11.8,-4.4 -17.9,-6.1c-9.3,-2.5 -9.3,-2.3 -18.8,-3.7l-5.6,-0.7l-3.9,-0.4c-2.4,-0.2 -4.8,-0.6 -9.6,-0.6l-5,-0.1l-4.9,0.2l-4.7,0.2l-4.5,0.3l-3.5,0l-0.9,-0.1c-1.4,-0.3 2.2,-1 4,-1.2l3.3,-0.3l3.4,0l6.4,-0.1l6.4,0.1c4.8,0 7.2,0.2 9.7,0.3l3.9,0.2l5.7,0.7c9.6,1.5 9.5,1.8 18.9,4.3c9.3,2.8 9.2,2.9 18.3,6c2.2,0.8 3.5,1.7 3.7,2l0,0.1c-0.3,0.1 -2.7,-0.6 -3.7,-0.8l-0.4,-0.2Zm-132.6,2c0,0.1 -0.8,0.5 -2.6,1.1l-3.5,1c-1.4,0.3 -3.1,0.9 -5.2,1.2l-3.4,0.6c-1.2,0.2 -2.4,0.5 -3.7,0.6l-4,0.5l-2.1,0.3l-2.1,0.2c-2.9,0.2 -5.7,0.4 -8.3,0.4l-10.3,0l-2.5,-0.1l-3.6,-0.2c-1.9,-0.1 -2.7,-0.2 -2.7,-0.3c0,-0.1 0.8,-0.2 2.6,-0.2l8.8,-0.1l7.5,-0.2l4.1,-0.2l4.3,-0.3c5.031,-0.455 10.037,-1.156 15,-2.1l5.2,-1l3.6,-0.8c2,-0.4 2.9,-0.5 2.9,-0.4Zm201.4,5.1l-1.8,0.3l-2.2,0.2l-3.1,0.2l-8.4,0.4l-8.6,-0.2l-4.3,-0.2l-4.1,-0.3l-2.3,-0.2l-2.2,-0.2l-3.9,-0.5l-1.6,-0.2l-1.4,-0.3l-2.2,-0.5c-1.2,-0.3 -1.7,-0.5 -1.7,-0.6l1.8,-0.1l2.1,0.2l1.4,0.2l1.6,0.1l4,0.6l2.2,0.4l2.3,0.2l4.1,0.1l4.3,0.1l8.7,0.2l8.5,0.1l5.2,0c1,-0.2 1.6,-0.1 1.6,0Zm30.6,-5.8l-2.2,0.9c-3.31,1.187 -6.725,2.058 -10.2,2.6l-2.1,0.1l2,-0.6l5,-1.2l5.2,-1.3c0.733,-0.296 1.511,-0.465 2.3,-0.5Zm-197.7,-10c-2.338,1.001 -4.744,1.836 -7.2,2.5l-4.3,1.4l-7.7,2.3c-2,0.5 -3.2,0.8 -3.3,0.6c0,-0.1 1.1,-0.7 3,-1.4c1.9,-0.8 4.6,-1.7 7.6,-2.7l4.4,-1.3l3.8,-1l3.7,-0.4Zm242.1,-2.1l-1.8,0.3l-4,0.7c-1.78,0.387 -3.584,0.654 -5.4,0.8l1.5,-0.5l3.8,-0.7l4,-0.6l1.9,0Zm24,-1.5l-5.9,0.2l-3.8,0.1l-1.6,0l0.4,-0.1l1.2,-0.1l3.8,-0.1l5.9,0Z" style="fill-rule:nonzero;"/><path d="M145.85,138.985c9.2,-0.7 9.4,-0.5 18.5,-1.9c6.049,-1.068 12.026,-2.504 17.9,-4.3c8.8,-2.8 8.7,-3 17.6,-6c8.9,-2.8 8.8,-3.2 18,-5.1l5.5,-0.9l3.8,-0.3l3.8,-0.3l5.5,-0.3l3.1,-0.2l2.4,-0.1l3.8,-0.2l3.8,-0.2l5.5,0l5.5,0.2l3.8,0.4l9.3,1.1l3.1,0.4l2.4,0.3l3.8,0.5l3.8,0.6c1.4,0.3 3.2,0.6 5.4,1.2l5.3,1.6l3.6,1.3l8.7,3.2c8.8,2.9 8.7,3.2 17.6,5.5c4.5,1.1 6.8,1.4 9,1.8l1.7,0.3l2,0.2l5.4,0.7c3.8,0.3 8.6,2.2 -0.2,1.7l-5.5,-0.5l-2,-0.2l-1.8,-0.3c-2.3,-0.4 -4.6,-0.6 -9.2,-1.7c-9.1,-2.3 -9,-2.6 -17.8,-5.5l-8.8,-3l-3.6,-1.2l-5.3,-1.5l-5.3,-1.3l-3.7,-0.8l-3.7,-0.7l-2.4,-0.4l-3,-0.4c-4.6,-0.6 -6.9,-0.7 -9.2,-0.9l-3.7,-0.3l-5.5,-0.1l-5.5,-0.1l-3.8,0.1l-3.8,0.1l-2.4,0.1l-3.1,0.2l-5.5,0.5c-2.481,0.304 -4.95,0.705 -7.4,1.2l-5.4,1c-9,1.9 -9.1,1.4 -17.9,4.1c-8.8,2.9 -8.7,3.3 -17.5,6.1c-4.5,1.3 -6.7,2 -9,2.5l-3.7,0.9l-5.5,1c-9.2,1.4 -9.3,1.7 -18.5,2.1c-18.4,-0.2 -3.2,-2 0.1,-2.2Zm-125.3,-18.6l9.5,0.1c3.3,0.1 6.6,0.4 9.8,0.6c3.9,0.4 7.8,0.7 11.7,1.4l3.4,0.6l6.6,1.6l3.3,0.9c7.7,2.1 15.1,4.9 22.6,7.2c8.1,2.5 16.1,4.5 24.4,5.7l4.9,0.7c1.7,0.2 3.3,0.3 4.6,0.6l0.5,0.2c0,0 0.2,0.3 0,0.3c-1.3,0.1 -3,0 -4.8,-0.1c-1.8,-0.1 -3.6,-0.4 -5.2,-0.6c-1.5,-0.2 -3.1,-0.2 -4.8,-0.5c-5.368,-0.833 -10.679,-2.002 -15.9,-3.5l-2.5,-0.7l-2.5,-0.8l-5.1,-1.7l-10,-3.4l-5.1,-1.7l-5,-1.5c-3.5,-0.9 -6.9,-1.8 -10.2,-2.4c-3.7,-0.8 -7.2,-1.2 -10.3,-1.6c-2,-0.3 -3.9,-0.3 -5.7,-0.5l-4.9,-0.4l-9.3,-0.5Zm356.4,18.4l0.3,0c3.1,-0.2 6.3,-0.2 9.3,-0.6l4.7,-0.4l4.6,-0.7c9.4,-1.9 9.3,-2.1 18.5,-4.8l9.1,-2.9l9.2,-2.9c3.2,-0.9 6.4,-1.9 9.6,-2.6c1.5,-0.4 3,-0.8 4.6,-1c1.984,-0.423 3.986,-0.757 6,-1l1.8,-0.1l0.9,-0.1c1.4,0 -2.2,0.5 -3.9,0.9l-6.5,1.2l-6.2,1.5l-6.1,1.8c-9.1,2.9 -9,3.3 -18.1,6.4c-9.2,2.9 -9.3,2.7 -18.7,4.6c-4.7,0.9 -7.1,1.1 -9.5,1.5c-2.4,0.4 -4.8,0.5 -9.6,0.9c-2.4,0.2 -3.9,-0.4 -4.2,-0.8c0,0 -0.1,-0.1 0,-0.1c0.3,-0.2 2.7,-0.4 3.7,-0.6c0.2,-0.2 0.4,-0.2 0.5,-0.2Zm87.7,-17.9l0.6,-0.1l1.7,-0.2l2.5,-0.2l2.9,0l7.2,-0.1l-7.2,0.2l-2.9,0.1l-2.5,0.2l-1.7,0.1l-0.6,0Z" style="fill-rule:nonzero;"/><path d="M350.75,149.985c0,0.2 -1.3,0.3 -4.1,0.2c-1.4,0 -3.1,-0.2 -5.3,-0.4l-3.5,-0.3l-4.1,-0.6c-3.1,-0.4 -6.6,-1.3 -10.2,-2.1l-5.6,-1.6l-5.8,-1.9c-8,-2.7 -15,-5.5 -21.4,-7.3l-7.5,-1.9l-5.1,-1.1l-2.9,-0.6l-0.9,-0.4c0,-0.2 1.1,-0.3 3.8,-0.1l5.1,0.7c2.1,0.3 4.6,0.9 7.6,1.5l5,1.4l5.4,1.8l11.5,4.1l5.7,1.9l5.4,1.5l5.1,1.3l4.8,1l4,0.8l3.5,0.5l5.3,0.8c2.9,0.4 4.2,0.6 4.2,0.8Zm128.8,-19.2l-4.8,0.1l-5,0.2l-5.8,0.4l-2.9,0.2l-2.7,0.3l-4.6,0.5l-3.1,0.4l-1.1,0.1l1.1,-0.3c0.7,-0.1 1.8,-0.4 3.1,-0.5l4.6,-0.6l2.7,-0.3l2.9,-0.2l5.8,-0.3l9.8,0Zm-253,2.5l4.9,-0.7l4.3,-0.4l5.8,-0.8c1.4,-0.3 2.3,-0.6 1.7,-0.8c-0.6,-0.2 -2.5,-0.4 -6.6,-0.1l-6.1,0.3l-6.1,0.6l-1.6,0.2l-1.5,0.3l-3.1,0.5l-3,0.5l-3,0.7c-7.8,1.7 -15.4,4.2 -23,6.8c-10.15,3.595 -20.69,5.978 -31.4,7.1l-3.2,0.4l-3.2,0.2l-6.4,0.4l-6.5,0.3c-12.1,0.3 -24.3,-0.2 -36.3,-2.5c-5.9,-1.2 -11.8,-2.7 -17.6,-4.6c-5.8,-1.9 -11.6,-3.9 -17.5,-5.6c-4.6,-1.3 -11.8,-3.1 -19.1,-4.1l-5.4,-0.6l-2.6,-0.3l-2.5,-0.1l-4.5,-0.2l-3.7,-0.1l-8.7,0l3.3,0.2c3.864,0.299 7.731,0.566 11.6,0.8l3.6,0.3l3.6,0.5c10.82,1.538 21.446,4.219 31.7,8c8,2.8 16,5.8 24.5,7.7c8.973,2.006 18.112,3.178 27.3,3.5c4.6,0.1 9.1,0.3 13.6,0.1l6.8,-0.3l6.7,-0.6c12.7,-1.2 25,-4.2 36.8,-8.2c5.9,-2 11.8,-4.1 17.9,-5.6l4.6,-1.1c1.5,-0.3 3.1,-0.8 4.6,-1c3.068,-0.73 6.172,-1.297 9.3,-1.7Zm199.3,5.9l-2.5,1.1l-6.3,2.4l-5.5,1.8l-6.3,1.8l-6.5,1.6l-5.8,1c-5.2,0.7 -10.9,0.9 -10.9,0.6l4.2,-0.6c2.4,-0.3 5.5,-0.7 8.1,-1.2l5,-1l5.7,-1.4l5.8,-1.6l5,-1.5l6.8,-2.2l3.2,-0.8Z" style="fill-rule:nonzero;"/><path d="M145.85,160.185c9.2,-0.7 9.4,-0.5 18.5,-1.9l5.4,-1l3.7,-0.9c2.3,-0.5 4.5,-1.1 8.9,-2.5c8.8,-2.8 8.7,-3 17.6,-5.9c8.9,-2.8 8.8,-3 18,-5l5.5,-0.9l3.8,-0.4l3.8,-0.4l5.5,-0.4l3.1,-0.2l2.4,-0.1l3.8,-0.2l3.8,-0.2l5.5,0.1l5.5,0.2l3.8,0.4l9.3,1l3.1,0.4l2.4,0.4l3.8,0.6c1.2,0.1 2.3,0.4 3.7,0.7c1.4,0.3 3.2,0.6 5.4,1.3l5.3,1.6l3.6,1.2l8.8,3.1c8.8,2.9 8.7,3.1 17.7,5.4c4.5,1.1 6.8,1.4 9.1,1.8l1.7,0.3l2,0.2l5.4,0.7c3.8,0.3 8.6,1.6 -0.1,1.1l-5.5,-0.6l-2,-0.2l-1.8,-0.3c-2.3,-0.4 -4.6,-0.6 -9.2,-1.8c-9,-2.3 -9,-2.5 -17.8,-5.4l-8.8,-3l-3.6,-1.2l-5.3,-1.5l-5.3,-1.3l-3.7,-0.8l-3.7,-0.7l-2.4,-0.4l-3,-0.4c-4.6,-0.6 -6.9,-0.7 -9.2,-0.9l-3.7,-0.3l-5.5,-0.1l-5.5,-0.1l-3.8,0.1l-3.8,0.1l-2.4,0.1l-3.1,0.2l-5.5,0.4l-3.7,0.6l-3.7,0.6l-5.4,1c-9,1.9 -9.1,1.6 -17.9,4.3c-8.8,2.9 -8.7,3.2 -17.6,6c-4.5,1.3 -6.7,2 -9,2.5l-3.7,0.9l-5.4,1c-9.2,1.4 -9.2,1.5 -18.5,2c-18.8,0.1 -3.6,-1.1 -0.3,-1.3Zm-125.3,-19l9.5,0.1c3.3,0.1 6.6,0.4 9.8,0.6c3.9,0.5 7.8,0.8 11.7,1.5l3.4,0.6l6.6,1.6l3.3,0.9c7.6,2.2 15.1,4.9 22.6,7.3c8.1,2.5 16.2,4.4 24.4,5.6c1.5,0.2 3.2,0.5 4.9,0.6c1.713,0.178 3.415,0.445 5.1,0.8l-4.8,-0.2c-1.8,-0.1 -3.6,-0.4 -5.1,-0.6l-4.8,-0.6c-5.368,-0.833 -10.679,-2.002 -15.9,-3.5l-2.5,-0.7l-2.5,-0.8l-5.1,-1.7l-10,-3.4l-5.1,-1.7l-5,-1.5c-3.6,-0.9 -7,-1.8 -10.3,-2.3c-3.7,-0.8 -7.2,-1.1 -10.4,-1.6c-2,-0.3 -3.9,-0.3 -5.7,-0.5l-4.9,-0.3l-9.2,-0.2Zm356.5,18.9l0.3,0c3.1,-0.2 6.3,-0.3 9.4,-0.7l4.7,-0.5l4.6,-0.8c9.4,-1.9 9.4,-2 18.5,-4.8l9.1,-3l3.7,-1.2l5.4,-1.7c3.2,-0.9 6.4,-1.9 9.6,-2.6c1.5,-0.4 3,-0.8 4.6,-1c1.951,-0.42 3.92,-0.754 5.9,-1l1.8,-0.2l0.9,-0.1c1.4,-0.1 -2.2,0.4 -4,0.8l-6.5,1.2l-6.2,1.5l-6.1,1.8c-9.1,2.9 -9,3.3 -18.1,6.3c-9.2,2.9 -9.2,2.8 -18.6,4.7c-4.7,0.9 -7.1,1.1 -9.5,1.4c-2.4,0.4 -4.8,0.5 -9.6,0.8c-2.4,0.2 -3.9,-0.2 -4.2,-0.4c0,0 -0.1,-0.1 0,-0.1l3.7,-0.5l0.6,0.1Zm87.6,-18.3l0.2,0l0.5,-0.1l1.7,-0.1l2.5,-0.2l2.9,-0.1l7.2,-0.1l-7.2,0.2l-2.9,0.1l-2.5,0.2l-1.7,0.1l-0.7,0Z" style="fill-rule:nonzero;"/><path d="M479.55,151.685l-5.9,0.1l-7.1,0.3l-6.8,0.5l-4.4,0.5l-1.5,0.1l-0.6,0l1.8,-0.3l4,-0.5l3.4,-0.3l4.1,-0.2c2.8,-0.2 5.7,-0.2 7.8,-0.2l5.2,0Zm-46.6,6.2l-3.2,1.2l-3.7,1.4l-3.8,1.3l-3.8,1.2l-3.8,1.3c-2.1,0.6 -3.2,0.8 -3.3,0.6c-0.1,-0.2 0.9,-0.7 2.9,-1.5c1.1,-0.4 2.5,-0.6 3.9,-1.1c1.2,-0.4 2.3,-1.1 3.7,-1.5l3.9,-1.3c1.4,-0.5 2.8,-0.8 3.9,-1.1c1.078,-0.289 2.185,-0.457 3.3,-0.5Zm-27.4,8.8c0.1,0.2 -2.9,1.3 -6.2,2.1c-3.3,0.6 -6.7,0.9 -6.7,0.6c2.076,-0.869 4.264,-1.441 6.5,-1.7c1.2,-0.3 2.5,-0.7 3.4,-0.8c1.6,-0.4 3,-0.3 3,-0.2Zm40.1,-12.2c0,0.1 -1.7,0.7 -3.5,1.1c-1.8,0.4 -3.4,0.6 -3.4,0.5c0,-0.2 1.4,-0.6 3.3,-1l3.6,-0.6Zm-273.4,13.9c-3.4,0.9 -5.1,1 -6.9,1.3l-2.8,0.4l-4.1,0.5l-4.1,0.6l-2.8,0.3l-6.9,0.6l-7,0.2l-2.8,0.1l-4.1,-0.1c-7,-0.1 -7,-0.4 -13.9,-0.8c-6.9,-0.8 -7,-0.6 -13.8,-1.9l-4.1,-0.8l-2.8,-0.6c-1.7,-0.3 -3.4,-0.8 -6.8,-1.8c-6.7,-2.1 -6.6,-2.4 -13.2,-4.6c-2.173,-0.811 -4.375,-1.545 -6.6,-2.2l-2.7,-0.8l-3.9,-1.1l-2.2,-0.6c-0.591,-0.17 -1.192,-0.304 -1.8,-0.4l-2.7,-0.7c-1.7,-0.5 -3.4,-0.8 -6.8,-1.4c-1.7,-0.4 -3,-0.5 -4.1,-0.7l-2.8,-0.4l-2.8,-0.4l-4.1,-0.4c-4.5,-0.5 -9,-0.6 -13.6,-0.8l-0.6,0c-0.7,0 -1.2,-0.1 -0.8,0l10,0l1.7,0.1l3.3,0.2l4.1,0.2l5.6,0.6l4.1,0.6c3.4,0.6 5.2,0.8 6.9,1.2l2.8,0.6l1.8,0.4l2.2,0.6l4,1.1l2.7,0.8l6.6,2.1c6.6,2.2 6.5,2.4 13.1,4.4l6.6,1.9l2.7,0.7l4,0.9c6.8,1.3 6.9,0.9 13.7,1.7c6.9,0.5 6.9,0.5 13.8,0.6l6.9,0.2l6.9,0c3.5,-0.1 5.2,-0.3 6.9,-0.4l2.8,-0.2l4.1,-0.5l3.8,-0.5l3.8,-0.7l3.7,-0.7c1.6,-0.4 3.2,-0.8 4.6,-0.7c1.9,-0.1 -0.4,1 -1.6,1.3Zm151.9,-0.9l-6.3,-1.8l-6.2,-2.1c-6.1,-2.1 -6.1,-2.2 -12.3,-4.2l-6.2,-1.8l-2.5,-0.7l-3.7,-0.9c-3.1,-0.8 -4.8,-0.9 -6.4,-1.1l-6.4,-0.8c-6.4,-0.8 -6.4,-1 -12.8,-1.5l-3.8,-0.1l-2.6,0.1l-2.6,0.1l-3.8,0c-3.2,0.1 -4.8,0 -6.5,-0.1l-2.6,-0.1l-3.8,0.2c-3.2,0.2 -4.8,0.4 -6.4,0.8l-6.4,1.1c-2.121,0.409 -4.255,0.742 -6.4,1c-1.6,0.2 -3.2,0.6 -6.3,1.3l-6.2,1.7l-6.2,1.9c-6.1,2.1 -6.1,2.2 -12.3,4.2c-2.6,0.8 -6.2,0.3 -0.5,-1.7c6.1,-2.2 6,-2.4 12.2,-4.5c4.103,-1.411 8.275,-2.612 12.5,-3.6l6.4,-1.4l6.4,-1.1l6.5,-0.8l6.5,-0.6l3.9,-0.3l2.6,-0.1l6.5,-0.1l3.9,0l5.2,0.2c1,0 2.2,0 3.9,0.2c6.5,0.5 6.6,-0.1 13,0.7c3.3,0.4 4.8,0.9 6.4,1.3l6.4,1.6l3.8,0.9l2.6,0.7c6.243,1.83 12.444,3.797 18.6,5.9l6.2,1.9l6.2,1.8c6.2,1.7 6.7,2.3 5.4,2.5c-1.978,-0.123 -3.948,-0.357 -5.9,-0.7Zm62.1,2.5l-1.1,0.4l-1.4,0.3l-1.9,0.3c-1.5,0.2 -3.1,0.1 -4.7,0.3c-1.8,0.3 -3.7,0.4 -5.6,0.5l-6.5,0.1c-3.8,-0.1 -7.5,0 -11.3,-0.2c-4,-0.3 -8,-0.7 -11.9,-1.5c-1.4,-0.3 -3.2,-0.4 -4.4,-0.9c-0.11,0 -0.2,-0.091 -0.2,-0.2l0.1,-0.3c1.3,-0.2 3.2,0.2 4.7,0.3c3.296,0.262 6.597,0.462 9.9,0.6l2.4,0.2l2.5,0.1l5,0l5,0.2l9.9,0l5,-0.3l3.3,0l1.2,0.1Z" style="fill-rule:nonzero;"/><path d="M145.85,180.785c9.2,-0.7 9.4,-0.5 18.5,-1.9c6.049,-1.068 12.026,-2.504 17.9,-4.3c8.8,-2.8 8.7,-3 17.6,-6c8.9,-2.8 8.8,-3.2 18,-5.1l5.5,-0.9l3.8,-0.3l3.8,-0.3l5.5,-0.3l3.1,-0.2l2.4,-0.1l3.8,-0.2l3.8,-0.2l5.5,0l5.5,0.2l3.8,0.4l9.3,1.1l3.1,0.4l2.4,0.3l3.8,0.5l3.8,0.6c1.4,0.3 3.2,0.6 5.4,1.2l5.3,1.6l3.6,1.3l8.7,3.2c8.8,2.9 8.7,3.2 17.6,5.5c4.5,1.1 6.8,1.4 9,1.8l1.7,0.3l2,0.2l5.4,0.7c3.8,0.3 8.6,2.2 -0.2,1.7l-5.5,-0.5l-2,-0.2l-1.8,-0.3c-2.3,-0.4 -4.6,-0.6 -9.2,-1.7c-9.1,-2.3 -9,-2.6 -17.8,-5.5l-8.8,-3l-3.6,-1.2l-5.3,-1.5l-5.3,-1.3l-3.7,-0.8l-3.7,-0.7l-2.4,-0.4l-3,-0.4c-4.6,-0.6 -6.9,-0.7 -9.2,-0.9l-3.7,-0.3l-5.5,-0.1l-5.5,-0.1l-3.8,0.1l-3.8,0.1l-2.4,0.1l-3.1,0.2l-5.5,0.5c-2.481,0.304 -4.95,0.705 -7.4,1.2l-5.4,1c-9,1.9 -9.1,1.4 -17.9,4.1c-8.8,2.9 -8.7,3.3 -17.5,6.1c-4.5,1.3 -6.7,2 -9,2.5l-3.7,0.9l-5.5,1c-9.2,1.4 -9.3,1.7 -18.5,2.1c-18.4,-0.3 -3.2,-2.1 0.1,-2.2Zm-125.3,-18.7l9.5,0.1c3.3,0.1 6.6,0.4 9.8,0.6c3.9,0.4 7.8,0.7 11.7,1.4l3.4,0.6l6.6,1.6l3.3,0.9c7.7,2.1 15.1,4.9 22.6,7.2c8.1,2.5 16.1,4.5 24.4,5.7l4.9,0.7c1.7,0.2 3.3,0.3 4.6,0.6l0.5,0.2c0,0 0.2,0.3 0,0.3c-1.3,0.1 -3,0 -4.8,-0.1c-1.8,-0.1 -3.6,-0.4 -5.2,-0.6c-1.5,-0.2 -3.1,-0.2 -4.8,-0.5c-5.368,-0.833 -10.679,-2.002 -15.9,-3.5l-2.5,-0.7l-2.5,-0.8l-5.1,-1.7l-10,-3.4l-5.1,-1.7l-5,-1.5c-3.5,-0.9 -6.9,-1.8 -10.2,-2.4c-3.7,-0.8 -7.2,-1.2 -10.3,-1.6c-2,-0.3 -3.9,-0.3 -5.7,-0.5l-4.9,-0.4l-9.3,-0.5Zm356.4,18.4l0.3,0c3.1,-0.2 6.3,-0.2 9.3,-0.6l4.7,-0.4l4.6,-0.7c9.4,-1.9 9.3,-2.1 18.5,-4.8l9.1,-2.9l9.2,-2.9c3.2,-0.9 6.4,-1.9 9.6,-2.6c1.5,-0.4 3,-0.8 4.6,-1c1.984,-0.423 3.986,-0.757 6,-1l1.8,-0.1l0.9,-0.1c1.4,0 -2.2,0.5 -3.9,0.9l-6.5,1.2l-6.2,1.5l-6.1,1.8c-9.1,2.9 -9,3.3 -18.1,6.4c-9.2,2.9 -9.3,2.7 -18.7,4.6c-4.7,0.9 -7.1,1.1 -9.5,1.5c-2.4,0.4 -4.8,0.5 -9.6,0.9c-2.4,0.2 -3.9,-0.4 -4.2,-0.8c0,0 -0.1,-0.1 0,-0.1c0.3,-0.2 2.7,-0.4 3.7,-0.6l0.5,-0.2Zm87.7,-17.8l0.6,-0.1l1.7,-0.2l2.5,-0.2l2.9,0l7.2,-0.1l-7.2,0.2l-2.9,0.1l-2.5,0.2l-1.7,0.1l-0.6,0Z" style="fill-rule:nonzero;"/><path d="M99.25,188.885l-1.9,-0.2l-2.2,-0.5l-3,-0.8l-3.8,-1l-4.3,-1.3l-8.1,-2.8l-7.9,-2.8l-4.3,-1.3l-3.8,-1.1l-5,-1.4l-1.7,-0.5l1.7,0.1l5,1c1.2,0.2 2.5,0.6 3.9,1.1l4.4,1.4c2.5,0.8 5.3,1.4 8.1,2.3l8.2,2.7l4.3,1.5l3.8,1.2l4.9,1.5l1.7,0.9Zm-63.7,-15.8l-0.7,0l-1.7,-0.1c-0.836,-0.025 -1.671,-0.092 -2.5,-0.2l-2.9,-0.1l-7.2,-0.2l7.2,0.1l2.9,0l2.5,0.2l1.7,0.1l0.7,0.2Zm276.1,12.2l-0.3,-0.1c-6,-2 -11.7,-4.5 -17.8,-6.2c-9.3,-2.5 -9.3,-2.2 -18.8,-3.6l-5.6,-0.8l-3.9,-0.4c-2.4,-0.3 -4.8,-0.6 -9.6,-0.7l-5,0c-1.7,0 -3.3,0.2 -4.9,0.3l-4.7,0.3c-1.4,0.1 -3,0.4 -4.4,0.4l-1.6,-0.1l-1.9,-0.2l-0.9,-0.1c-1.5,-0.5 2.2,-1.5 3.9,-1.8c1,-0.2 2.1,-0.3 3.3,-0.3l3.4,0l6.4,-0.1l6.4,0.1l9.7,0.2c3.214,-0.049 6.427,0.185 9.6,0.7c9.6,1.5 9.5,1.9 18.9,4.4c9.3,2.8 9.2,2.9 18.4,6c2.2,0.8 3.4,1.9 3.6,2.5l0,0.2c-0.3,0.2 -2.8,-0.4 -3.7,-0.6l-0.5,-0.1Zm-132.5,1.5c0.1,0.2 -0.8,0.6 -2.6,1.3c-0.9,0.4 -2.1,0.7 -3.5,1.1c-1.4,0.4 -3.1,0.9 -5.2,1.3l-3.4,0.6c-1.2,0.2 -2.4,0.5 -3.7,0.6l-4,0.5l-2.1,0.3l-2.1,0.2c-2.9,0.2 -5.7,0.4 -8.3,0.4l-8.9,0l-1.4,-0.1l-2.5,-0.1l-3.6,-0.2c-1.9,-0.1 -2.7,-0.2 -2.7,-0.4c0,-0.3 3.1,-0.5 11.4,-0.6l7.5,-0.2l4.1,-0.2l4.3,-0.3c5.031,-0.455 10.037,-1.156 15,-2.1l5.2,-1l3.6,-0.7c1.9,-0.4 2.9,-0.5 2.9,-0.4Zm201.4,5.2c0,0.2 -0.6,0.3 -1.8,0.4l-2.2,0.2l-3.1,0.2l-8.4,0.6l-8.6,-0.2c-1.439,0.003 -2.876,-0.097 -4.3,-0.3l-4.1,-0.3l-2.3,-0.2l-2.2,-0.2c-3.085,-0.242 -6.136,-0.812 -9.1,-1.7c-1.2,-0.3 -1.7,-0.6 -1.7,-0.8c0,-0.2 0.7,-0.3 1.8,-0.3l2.2,0.1l1.4,0.1l1.6,0.1l4,0.6l2.2,0.4l2.3,0.2l8.4,0l8.6,0.2l8.5,0.2c4.4,0.3 6.8,0.4 6.8,0.7Zm30.6,-5.9c0,0.1 -0.8,0.6 -2.2,1.1c-1.4,0.5 -3.2,1.2 -5.2,1.7c-2,0.5 -3.7,0.8 -5.1,0.9c-1.3,0.1 -2.1,0 -2.2,-0.1c-0.1,-0.1 0.7,-0.4 2,-0.8l4.9,-1.3l5.2,-1.2c1.6,-0.3 2.5,-0.5 2.6,-0.3Zm-197.7,-10c0.1,0.2 -1.3,0.9 -3.5,1.6l-3.7,1.3l-4.3,1.4c-3,0.9 -5.7,1.7 -7.7,2.1c-2,0.4 -3.3,0.6 -3.4,0.4c-0.1,-0.2 1,-0.8 2.9,-1.6c1.9,-0.8 4.5,-1.8 7.5,-2.8l4.4,-1.3l3.8,-0.9c2.5,-0.3 3.9,-0.4 4,-0.2Zm242.1,-2.1l-5.7,1.2l-3.8,0.6l-1.6,0.1l1.5,-0.5l3.8,-0.7l4,-0.6l1.8,-0.1Zm24,-1.4l-5.9,0.2l-3.8,0.1l-1.6,0l0.4,-0.1l1.2,-0.1l3.8,-0.1l5.9,0Z" style="fill-rule:nonzero;"/><path d="M206.55,189.285l-0.1,0c-2.6,0.7 -5.3,1.3 -7.9,2.1c-4,1.3 -3.9,1.5 -7.9,2.9c-4,1.4 -4.1,1.1 -8,2.4l-4.1,1.4l-1.9,0.7l-1.9,0.5l-0.7,0.1l-1.2,0c-0.7,-0.2 0.8,-0.9 1.5,-1.2l1.4,-0.4l1.4,-0.3l5.3,-1.5c4,-1.3 3.9,-1.5 7.8,-2.9c3.9,-1.4 4,-1.1 8,-2.4c4,-1.3 4,-1.4 8,-2.5c1,-0.3 1.8,0 2,0.3l0,0.1c-0.1,0.2 -1.1,0.6 -1.4,0.8l-0.3,-0.1Zm-151.2,-3l-0.8,-0.1l-2.3,-0.4l-3.6,-0.6l-3.7,-0.5l-3.6,-0.5l-2,-0.2l-1.7,-0.1l-2.2,-0.2l-0.8,-0.1l0.8,0l2.2,0.1l1.7,0.1l2,0.3l3.6,0.3l3.7,0.5l3.6,0.7l2.2,0.5l0.9,0.2Zm-28.3,-3.2l-1,0l-2.3,-0.1l-3.1,-0.1l5.4,0l1,0.2Zm56.5,11.8l-5.2,-1.5l-6.2,-2l-6,-2l-3.8,-1.2l-1.3,-0.4l-0.5,-0.2l5.3,1.2c1.7,0.4 4.1,1.2 6.6,2l6.8,2.3c2.7,1 4.4,1.7 4.3,1.8Zm65.7,7.5l-1.2,0.4c-0.8,0.1 -2.1,0.4 -3.9,0.4l-6.7,0.2c-2.5,0.1 -4.8,-0.2 -6.8,-0.3c-3.6,-0.2 -5.1,-0.3 -5,-0.5c0,-0.2 1.3,-0.4 5,-0.4c2,0 4.4,0.2 6.9,0.1l6.6,-0.1l3.9,-0.1l1.2,0.3Zm86.7,-18.7c0,0.3 -1.1,0.3 -3.1,0.6l-1.7,0.3c-0.6,0.1 -1.2,0.3 -1.9,0.3c-1.227,0.188 -2.461,0.321 -3.7,0.4l-3.6,0.4l-3.6,0.7l-2.3,0.2c-0.5,0 -0.8,0 -0.8,-0.2l0.6,-0.6l2.1,-0.7c1,-0.3 2.4,-0.2 3.7,-0.4c1.1,-0.3 2.3,-0.8 3.6,-0.9l3.8,-0.5c1.4,-0.2 2.7,-0.1 3.7,-0.1c2.2,0.1 3.2,0.3 3.2,0.5Zm13.5,-0.7c0,0.3 -1.6,0.8 -3.4,0.8c-1.7,0 -3.1,-0.4 -3.1,-0.7c0,-0.3 1.4,-0.6 3.1,-0.6c1.8,0 3.4,0.2 3.4,0.5Zm-84.8,17.6c0,0.3 -2.4,1.1 -5.1,1.4c-2.7,0.3 -4.9,0.2 -4.9,0c0,-0.3 2.1,-0.7 4.8,-1.1c2.6,-0.3 5.1,-0.6 5.2,-0.3Zm-68.3,-2c0,0.2 -1.3,0.2 -2.6,-0.2c-1.3,-0.4 -2.2,-0.9 -2.2,-1.1c0,-0.2 1.1,0 2.3,0.3c1.4,0.4 2.6,0.8 2.5,1Zm23.5,3.6c0,0.1 -1.1,0.2 -2.9,0.1c-1.7,0 -4,-0.3 -6.4,-0.6c-2.4,-0.2 -4.5,-0.8 -6,-1.1c-0.834,-0.153 -1.642,-0.422 -2.4,-0.8l2.5,0.2c1.5,0.2 3.6,0.6 6,0.8l6.3,0.8l2.9,0.6Zm201.1,-4.2c-2.6,-0.7 -2.7,-0.8 -5.3,-1.7l-5.2,-1.7l-5.2,-1.7c-2.6,-0.9 -2.7,-0.7 -5.2,-1.5c-2.6,-0.8 -2.5,-1.1 -5.1,-1.8c-2.6,-0.7 -2.7,-0.5 -5.3,-1.2c-2.6,-0.6 -2.6,-0.9 -5.2,-1.5c-2.7,-0.5 -2.7,-0.1 -5.4,-0.6c-2.7,-0.5 -2.6,-0.7 -5.3,-1c-2.7,-0.3 -2.7,-0.5 -5.4,-0.7l-5.4,-0.3c-1.1,-0.1 -2.5,-1.3 0.1,-1.3l5.5,0.2l5.4,0.8c2.7,0.3 2.7,0.3 5.4,0.9l5.4,1l5.3,1.3l5.3,1.5c2.6,0.8 2.7,0.5 5.3,1.3c2.6,0.8 2.5,1.2 5.1,2.1l5.2,1.6l5.2,1.7c2.6,0.8 2.7,0.6 5.2,1.5c5.2,1.5 0.6,1.3 -0.4,1.1Zm49.4,4.7c0,0.2 -1.1,0.2 -3.1,0.4c-1.1,0.1 -2.3,0.3 -3.7,0.2l-3.7,-0.1l-3.7,-0.1l-3.7,-0.1c-2,-0.2 -3,-0.5 -3,-0.7c0,-0.2 1,-0.4 3,-0.4c1,0 2.4,0.4 3.7,0.4c1.1,0 2.4,-0.3 3.6,-0.2l3.8,0.1l3.7,0.2c2.1,-0.1 3.1,0.1 3.1,0.3Zm-28.4,-1.4c0,0.3 -1.7,0.4 -3.4,0.2c-1.7,-0.2 -3,-0.9 -3,-1.2c0.1,-0.3 1.4,-0.2 3.2,0.1c1.6,0.2 3.2,0.6 3.2,0.9Zm57.7,-1.8c-2.698,0.778 -5.435,1.412 -8.2,1.9l-3.5,0.5l-6.3,0.6c-2.8,0.1 -5.9,0.2 -6,0.1c2.789,-0.471 5.59,-0.871 8.4,-1.2l3.7,-0.4l3.8,-0.4l3.3,-0.5l3.4,-0.4l1.4,-0.2Zm64.4,-15.9l-0.3,0.1l-0.9,0.1c-0.8,0.1 -2.1,0.1 -3.9,0.4l-6.6,0.9l-6.7,1.1l-3.8,0.8l-1.2,0.2l1.1,-0.4l3.7,-0.9l6.8,-1.1l6.6,-0.8c1.294,-0.164 2.596,-0.264 3.9,-0.3l1,0l0.3,-0.1Zm15.5,-0.6l-5.3,0.1l-3.5,0.1l-1.4,0l1.4,0l3.5,-0.1l5.3,-0.1Zm-67.1,13c0,0.2 -1,0.8 -2.3,1.1c-1.3,0.4 -2.3,0.4 -2.4,0.2c0,-0.2 0.9,-0.6 2.2,-0.9c1.3,-0.3 2.5,-0.6 2.5,-0.4Zm22.6,-7.4l-2.7,1l-6.1,2.1l-5.8,1.9c-1.5,0.4 -2.4,0.7 -2.5,0.6l2.3,-1l5.7,-2l6.1,-1.9l2,-0.5l1,-0.2Z" style="fill-rule:nonzero;"/><path d="M99.25,209.785l-1.8,-0.3l-2.2,-0.5l-3,-0.8l-3.8,-1l-4.3,-1.3l-8.1,-2.8l-8,-2.7l-4.3,-1.3c-1.4,-0.4 -2.6,-0.8 -3.8,-1l-5,-1.3l-1.8,-0.4l1.7,0.2l5,1c1.2,0.2 2.5,0.6 3.9,1.1l4.4,1.3l8.1,2.4l8.2,2.7c2.682,0.922 5.382,1.789 8.1,2.6l5,1.4l1.7,0.7Zm-63.7,-15.8l-0.7,0l-1.7,-0.1c-0.836,-0.025 -1.671,-0.092 -2.5,-0.2l-2.9,-0.1l-7.2,-0.2l7.2,0.1l2.9,0l2.5,0.2l1.7,0.1l0.5,0l0.2,0.2Zm276.2,11.7l-0.3,-0.1c-6,-2 -11.8,-4.4 -17.9,-6.1c-9.3,-2.5 -9.3,-2.3 -18.8,-3.7l-5.6,-0.7l-3.9,-0.4c-2.4,-0.2 -4.8,-0.6 -9.6,-0.6l-5,-0.1l-4.9,0.2l-4.7,0.2l-4.5,0.3l-3.5,0l-0.9,-0.1c-1.4,-0.3 2.2,-1 4,-1.2l3.3,-0.3l3.4,0l6.4,-0.1l6.4,0.1c4.8,0 7.2,0.2 9.7,0.3l3.9,0.2l5.7,0.7c9.6,1.5 9.5,1.8 18.9,4.3c9.3,2.8 9.2,2.9 18.3,6c2.2,0.8 3.5,1.7 3.7,2l0,0.1c-0.3,0.1 -2.7,-0.6 -3.7,-0.8l-0.4,-0.2Zm-132.6,2c0,0.1 -0.8,0.5 -2.6,1.1l-3.5,1c-1.4,0.3 -3.1,0.9 -5.2,1.2l-3.4,0.6c-1.2,0.2 -2.4,0.5 -3.7,0.6l-4,0.5l-2.1,0.3l-2.1,0.2c-2.9,0.2 -5.7,0.4 -8.3,0.4l-10.3,0l-2.5,-0.1l-3.6,-0.2c-1.9,-0.1 -2.7,-0.2 -2.7,-0.3c0,-0.1 0.8,-0.2 2.6,-0.2l8.8,-0.1l7.5,-0.2l4.1,-0.2l4.3,-0.3c5.031,-0.455 10.037,-1.156 15,-2.1l5.2,-1l3.6,-0.8l2.9,-0.4Zm201.4,5.1l-1.8,0.3l-2.2,0.2l-3.1,0.2l-8.4,0.4l-8.6,-0.2l-4.3,-0.2l-4.1,-0.3l-2.3,-0.2l-2.2,-0.2l-3.9,-0.5l-1.6,-0.2l-1.4,-0.3l-2.2,-0.5c-1.2,-0.3 -1.7,-0.5 -1.7,-0.6l1.8,-0.1l2.1,0.2l1.4,0.2l1.6,0.1l4,0.6l2.2,0.4l2.3,0.2l4.1,0.1l4.3,0.1l8.7,0.2l8.5,0.1l5.2,0c1,-0.1 1.6,-0.1 1.6,0Zm30.6,-5.8l-2.2,0.9c-3.31,1.187 -6.725,2.058 -10.2,2.6l-2.1,0.1l2,-0.6l5,-1.2l5.2,-1.3c0.733,-0.296 1.511,-0.465 2.3,-0.5Zm-197.7,-9.9c-2.338,1.001 -4.744,1.836 -7.2,2.5l-4.3,1.4l-7.7,2.3c-2,0.5 -3.2,0.8 -3.3,0.6c0,-0.1 1.1,-0.7 3,-1.4c1.9,-0.8 4.6,-1.7 7.6,-2.7l4.4,-1.3l3.8,-1c2.2,-0.4 3.7,-0.6 3.7,-0.4Zm242.1,-2.2l-1.8,0.3l-4,0.7c-1.78,0.387 -3.584,0.654 -5.4,0.8l1.5,-0.5l3.8,-0.7l4,-0.6l1.9,0Zm24,-1.5l-5.9,0.2l-3.8,0.1l-1.6,0l0.4,-0.1l1.2,-0.1l3.8,-0.1l5.9,0Z" style="fill-rule:nonzero;"/><path d="M479.55,203.885l-5.9,0.1l-7.1,0.3l-6.8,0.5l-4.4,0.5l-1.5,0.1l-0.6,0l1.8,-0.3l4,-0.5l3.4,-0.3l4.1,-0.2c2.8,-0.2 5.7,-0.2 7.8,-0.2l5.2,0Zm-46.6,6.2l-3.2,1.2l-3.7,1.4l-3.8,1.3l-3.8,1.2l-3.8,1.3c-2.1,0.6 -3.2,0.8 -3.3,0.6c-0.1,-0.2 0.9,-0.7 2.9,-1.5c1.1,-0.4 2.5,-0.6 3.9,-1.1c1.2,-0.4 2.3,-1.1 3.7,-1.5l3.9,-1.3c1.4,-0.5 2.8,-0.8 3.9,-1.1c1.078,-0.289 2.185,-0.457 3.3,-0.5Zm-27.4,8.8c0.1,0.2 -2.9,1.3 -6.2,2.1c-3.3,0.6 -6.7,0.9 -6.7,0.6c2.076,-0.869 4.264,-1.441 6.5,-1.7c1.2,-0.3 2.5,-0.7 3.4,-0.8c1.6,-0.4 3,-0.3 3,-0.2Zm40.1,-12.2c0,0.1 -1.7,0.7 -3.5,1.1c-1.8,0.4 -3.4,0.6 -3.4,0.5c0,-0.2 1.4,-0.6 3.3,-1l3.6,-0.6Zm-273.4,13.9c-3.4,0.9 -5.1,1 -6.9,1.3l-2.8,0.4l-4.1,0.5l-4.1,0.6l-2.8,0.3l-6.9,0.6l-7,0.2l-2.8,0.1l-4.1,-0.1c-7,-0.1 -7,-0.4 -13.9,-0.8c-6.9,-0.8 -7,-0.6 -13.8,-1.9l-4.1,-0.8l-2.8,-0.6c-1.7,-0.3 -3.4,-0.8 -6.8,-1.8c-6.7,-2.1 -6.6,-2.4 -13.2,-4.6c-2.173,-0.811 -4.375,-1.545 -6.6,-2.2l-2.7,-0.8l-3.9,-1.1l-2.2,-0.6c-0.591,-0.17 -1.192,-0.304 -1.8,-0.4l-2.7,-0.7c-1.7,-0.5 -3.4,-0.8 -6.8,-1.4c-1.7,-0.4 -3,-0.5 -4.1,-0.7l-2.8,-0.4l-2.8,-0.4l-4.1,-0.4c-4.5,-0.5 -9,-0.6 -13.6,-0.8l-0.6,0c-0.7,0 -1.2,-0.1 -0.8,0l10,0l1.7,0.1l3.3,0.2l4.1,0.2l5.6,0.6l4.1,0.6c3.4,0.6 5.2,0.8 6.9,1.2l2.8,0.6l1.8,0.4l2.2,0.6l4,1.1l2.7,0.8l6.6,2.1c6.6,2.2 6.5,2.4 13.1,4.4l6.6,1.9l2.7,0.7l4,0.9c6.8,1.3 6.9,0.9 13.7,1.7c6.9,0.5 6.9,0.5 13.8,0.6l6.9,0.2l6.9,0c3.5,-0.1 5.2,-0.3 6.9,-0.4l2.8,-0.2l4.1,-0.5l3.8,-0.5l3.8,-0.7l3.7,-0.7c1.6,-0.4 3.2,-0.8 4.6,-0.7c1.9,-0.1 -0.4,1 -1.6,1.3Zm151.9,-0.9l-6.3,-1.8l-6.2,-2.1c-6.1,-2.1 -6.1,-2.2 -12.3,-4.2l-6.2,-1.8l-2.5,-0.7l-3.7,-0.9c-3.1,-0.8 -4.8,-0.9 -6.4,-1.1l-6.4,-0.8c-6.4,-0.8 -6.4,-1 -12.8,-1.5l-3.8,-0.1l-2.6,0.1l-2.6,0.1l-3.8,0c-3.2,0.1 -4.8,0 -6.5,-0.1l-2.6,-0.1l-3.8,0.2c-3.2,0.2 -4.8,0.4 -6.4,0.8l-6.4,1.1c-2.121,0.409 -4.255,0.742 -6.4,1c-1.6,0.2 -3.2,0.6 -6.3,1.3l-6.2,1.7l-6.2,1.9c-6.1,2.1 -6.1,2.2 -12.3,4.2c-2.6,0.8 -6.2,0.3 -0.5,-1.7c6.1,-2.2 6,-2.4 12.2,-4.5c4.103,-1.411 8.275,-2.612 12.5,-3.6l6.4,-1.4l6.4,-1.1l6.5,-0.8l6.5,-0.6l3.9,-0.3l2.6,-0.1l6.5,-0.1l3.9,0l5.2,0.2c1,0 2.2,0 3.9,0.2c6.5,0.5 6.6,-0.1 13,0.7c3.3,0.4 4.8,0.9 6.4,1.3l6.4,1.6l3.8,0.9l2.6,0.7c6.243,1.83 12.444,3.797 18.6,5.9l6.2,1.9l6.2,1.8c6.2,1.7 6.7,2.3 5.4,2.5c-1.978,-0.123 -3.948,-0.357 -5.9,-0.7Zm62.1,2.5l-1.1,0.4l-1.4,0.3l-1.9,0.3c-1.5,0.2 -3.1,0.1 -4.7,0.3c-1.8,0.3 -3.7,0.4 -5.6,0.5l-6.5,0.1c-3.8,-0.1 -7.5,0 -11.3,-0.2c-4,-0.3 -8,-0.7 -11.9,-1.5c-1.4,-0.3 -3.2,-0.4 -4.4,-0.9c-0.11,0 -0.2,-0.091 -0.2,-0.2l0.1,-0.3c1.3,-0.2 3.2,0.2 4.7,0.3c3.296,0.262 6.597,0.462 9.9,0.6l2.4,0.2l2.5,0.1l5,0l5,0.2l9.9,0l5,-0.3l3.3,0l1.2,0.1Z" style="fill-rule:nonzero;"/><path d="M271.65,214.985l-5.8,-0.4c-2.9,-0.1 -2.9,-0.4 -5.8,-0.5l-5.8,0.1c-1.5,0 -2.2,-0.1 -2.9,-0.2l-2.9,-0.2l-5.8,0.3l-5.8,0.4c-2.9,0.3 -2.9,0.7 -5.7,1l-5.7,0.9l-6.5,1c-2.2,0.3 -4.3,0.8 -6.4,1.3c-1.9,0.4 -3.7,1.3 -5.6,1.7c-1.5,0.3 -2.9,0.3 -4.4,0.8l-5.7,1.9c-2.8,1 -2.7,1.4 -5.5,2.4c-7.6,2.6 -15.5,4.9 -23.4,6.3c-3,0.5 -3,0.3 -6.1,0.7l-5,0.7l-2.5,0.3l-2.5,0.1l-16.3,0l-1.7,-0.1l-3.5,-0.1c-4.6,-0.1 -9.3,-0.5 -13.8,-0.9l-5.5,-0.9c-2.8,-0.4 -2.8,-0.3 -5.5,-0.8l-2.7,-0.6l-2.7,-0.7c-2.7,-0.7 -2.8,-0.4 -5.5,-1.1l-5.3,-1.5c-0.7,-0.2 -0.8,-0.9 -0.8,-0.9c0.1,-0.2 0.4,-0.3 1.1,-0.1l5.3,1.4c2.7,0.6 2.7,0.4 5.4,0.9l2.7,0.6l2.7,0.5l5.4,0.8l5.5,0.5l5.5,0.3c2.8,0.1 2.8,-0.2 5.5,-0.2c2.8,0 2.8,0.4 5.5,0.4c2.8,0 2.8,-0.1 5.5,-0.2l5.5,-0.3c1.4,0 2.1,-0.1 2.7,-0.2l2.7,-0.3c4.5,-0.3 9,-0.5 13.4,-1.3l5.1,-1.1l1.3,-0.3l1.2,-0.3l2.5,-0.6c2.9,-0.7 2.8,-1 5.7,-1.8c2.9,-0.8 2.9,-0.5 5.8,-1.5l5.7,-1.9l5.7,-2l5.7,-2l5.8,-1.8c2.9,-0.9 3,-0.7 5.9,-1.4c2.9,-0.7 3,-0.2 5.9,-0.7c2.9,-0.4 2.9,-0.9 5.8,-1.2l5.9,-0.5l7.7,-0.3c1.3,-0.2 2.6,-0.2 4,-0.3l4,-0.1l4,-0.1l4,0.1c2.9,0.1 2.9,0.5 5.9,0.6c2.9,0.3 3,-0.2 5.9,0.1l5.9,0.6c0.7,0.1 0.9,0.7 0.8,1.2c-0.5,0.7 -0.8,1.6 -1.5,1.5Zm102.3,17.5c0,0.7 -3.4,1.1 -7.2,1.4c-1.7,0.2 -3.8,-0.3 -6.1,-0.3l-6.1,0.1l-6.1,-0.4l-3,-0.2l-3.1,-0.4l-3,-0.2c-1,0 -2.1,-0.1 -3.1,-0.3c-2,-0.3 -3.9,-1.3 -5.9,-1.7c-2,-0.4 -4,-0.6 -6,-1.1c-2,-0.5 -3.9,-1.3 -5.8,-1.9c-3,-0.9 -5.8,-1.4 -8.8,-2.5l-14.2,-5l-5.7,-1.9c-2.2,-0.6 -4.2,-0.9 -5.8,-1.4c-3.7,-0.9 -6.2,-0.3 -5.8,-2.2c0.6,-2.5 2.7,-0.4 6.5,0c1.7,0.3 3.4,1.2 5.7,1.7l5.9,1.3c1.9,0.5 3.7,1.3 5.8,1.9l5.8,1.8c2.7,0.9 5,0.9 7.8,1.8l5.4,1.9c3.453,1.102 6.957,2.037 10.5,2.8l5.2,0.8l9,1.6l9.1,1.1l6,0.1c2.3,0.1 4.4,-0.1 6,-0.1c3.5,0.6 6.9,0.6 7,1.3Zm37.9,-6.2c0.1,0.2 -0.9,0.7 -2.7,1.4c-1,0.4 -2,0.5 -2.9,0.8c-2.452,0.943 -5.001,1.614 -7.6,2l-7.3,1.4c-2.6,0.3 -5.2,0.4 -7.8,0.5c-0.9,0 -2.1,0.1 -3,-0.1l-0.2,-0.1l0,-0.3c0.8,-0.4 2.1,-0.3 3,-0.5l3.2,-0.6l3.2,-0.4l3.2,-0.5l3.2,-0.7l3.2,-0.5l3.2,-0.7l3.2,-0.6c1.2,-0.3 2.3,-0.7 3.2,-0.8c1.7,-0.4 2.8,-0.4 2.9,-0.3Zm23.8,-7.9c-0.1,-0.4 1.3,-0.7 3.9,-1.4l4.4,-1.1c1.3,-0.4 2.8,-0.7 4.4,-1l4.5,-0.7l4.5,-0.5c1.5,-0.2 3,-0.4 4.5,-0.4l4.5,-0.2l4.5,-0.2l8.7,0l-4.3,0.1l-4.5,0.1c-1.4,0 -2.9,0.2 -4.5,0.4l-6.8,0.6l-5.5,0.8l-1.4,0.2l-1.4,0.3l-2.7,0.5c-1.6,0.3 -3.1,0.5 -4.4,0.9l-4.4,0.8c-2.5,0.5 -3.8,1.4 -4,0.8Zm-4.3,1.2c0.1,0.2 -1,0.9 -2.5,1.5l-3.5,1.2c-1.3,0.4 -2.6,1.1 -3.6,1.3c-1.6,0.4 -3.3,0.5 -3.4,0.3c-0.1,-0.3 2,-1 3.4,-1.6l3.1,-1.3c1.084,-0.356 2.186,-0.656 3.3,-0.9c1.7,-0.3 3.2,-0.7 3.2,-0.5Zm-379,-4c0,0.1 -1.1,0 -2.9,-0.3l-3,-0.5l-3.6,-0.4c-1.394,-0.216 -2.795,-0.383 -4.2,-0.5l-7.3,-0.6l-7.7,-0.4l-2.9,-0.1l-0.1,0c0,0 -0.1,0 0,0l9.6,0l9.6,0.6l6.4,0.8c2.086,0.198 4.137,0.669 6.1,1.4Zm31.1,8.9c-0.1,0.3 -1.7,0.3 -3.3,-0.2c-1.5,-0.5 -2.6,-1.4 -2.5,-1.7c0.1,-0.3 1.4,-0.1 3,0.4c1.6,0.4 3,1.1 2.8,1.5Zm-11.7,-4c-0.1,0.2 -1.4,0.1 -2.9,-0.3c-1,-0.2 -2.3,-0.7 -3.6,-1.1l-3.7,-1c-1.106,-0.287 -2.154,-0.76 -3.1,-1.4c0,-0.2 2.2,0.3 3.8,0.6l3.3,0.7c1.3,0.3 2.3,0.7 3.3,1.1c1.5,0.6 3,1.2 2.9,1.4Z" style="fill-rule:nonzero;"/><path d="M479.25,223.285l-5.7,0l-4.5,0.1l-5.5,0.4l-5.5,0.5l-5.5,0.6l-5.5,0.9c-1.4,0.2 -2,0.4 -2.7,0.6l-2.7,0.7c-2.7,0.6 -2.7,0.5 -5.4,1.3l-5.3,1.7l-5.3,1.8l-5.3,1.7l-5.2,1.8l-2.5,0.7c-2,0.7 -3.1,0.9 -4.1,1.2c-1,0.3 -2,0.7 -4.1,1.2l-4.2,1c-1,0.3 -2.1,0.5 -4.2,0.8l-4.2,0.6l-4.2,0.3c-4.2,0.5 -4.2,0.7 -8.5,1l-4.3,0.2l-4.3,0l-4.3,0.1l-4.3,0l-8.5,-0.5l-8.5,-0.9l-4.2,-0.4l-1.7,-0.1l-1.1,-0.1l-1.4,-0.3l-4.2,-0.8l-1.7,-0.4l-2.4,-0.6l-4.1,-1l-4.1,-1.2l-4,-1.4l-4,-1.4c-3.9,-1.4 -3.8,-1.6 -7.8,-2.9c-3.9,-1.3 -4.1,-0.9 -8.1,-2.2l-4,-1.3c-1,-0.4 -2,-0.7 -4,-1.1l-4.1,-0.9l-4.1,-0.7l-4.1,-0.7l-4.2,-0.5l-2.5,-0.3l-1.7,-0.2l-4.2,-0.4c-4.2,-0.3 -4.2,-0.1 -8.4,-0.2c-4.2,-0.1 -4.2,-0.3 -8.4,-0.1l-4.2,0.1l-4.2,0.2l-8.4,0.5l-4.2,0.5l-1.7,0.2c-0.7,0.1 -1.4,0.1 -2.5,0.4c-2.1,0.4 -3.1,0.7 -4.1,1l-1.6,0.5l-2.4,0.6l-4.1,0.9l-4.1,1l-4,1.2l-4,1.3c-3.9,1.4 -3.8,1.6 -7.7,3c-3.9,1.4 -4,0.9 -7.9,2.2l-3.9,1.2l-3.9,1.1c-3.9,0.9 -3.9,1.3 -7.9,2.1l-4,0.7l-4,0.5l-4,0.5l-4.1,0.3c-4.1,0.3 -4.1,0.5 -8.1,0.7l-4.1,0.1l-4.1,0l-8.2,-0.2l-8.2,-0.4c-4.1,-0.4 -4.1,-0.6 -8.1,-1l-8.1,-1.2l-4,-0.9l-4,-1c-0.6,-0.2 -3.9,-1 -6.5,-1.9c-2.6,-0.9 -2.7,-0.7 -5.3,-1.6l-5.2,-1.8l-5.2,-1.8l-5.4,-1.5c-2.7,-0.7 -2.6,-1 -5.3,-1.6l-5.4,-1.2l-5.5,-0.9l-3.4,-0.5l-3.9,-0.4l-3.9,-0.4c-2.597,-0.217 -5.197,-0.384 -7.8,-0.5l-5,-0.1l-3.4,-0.1l-0.5,0l4.1,0.1l3.7,0.1l3.6,0.2l1.7,0.1l0.7,0.1l2.9,0.2l1.5,0.1l1.4,0.2l2.8,0.3l2.7,0.4l2.7,0.5l5.5,1l5.4,1.2l5.3,1.5l5.3,1.7l5.3,1.8l5.3,1.7l5.3,1.8l6.5,2l4,1.1l4,1c4,0.8 4,0.9 8.1,1.6l8.2,0.8l8.2,0.6c4.1,0.1 4.1,0.4 8.2,0.6l4.1,0l4.1,-0.1c4.1,0 4.1,-0.1 8.2,-0.3l4.1,-0.2l4.1,-0.4l4.1,-0.5l4.1,-0.7c4.1,-0.7 4,-1.1 8.1,-2l4,-1l4,-1.1c3.9,-1.2 4,-1.1 7.9,-2.4l7.8,-2.5l4,-1.1l4,-1.1c2,-0.5 2.9,-0.9 3.9,-1.2l4,-1l2.4,-0.6l1.6,-0.3l4,-0.8l2.4,-0.3l1.7,-0.2l4.1,-0.5c4.1,-0.4 4.1,-0.1 8.2,-0.4l4.1,-0.3l4.1,-0.3c4.1,-0.1 4.1,-0.2 8.2,-0.1c4.1,0.1 4.1,0.2 8.2,0.5l4.1,0.4l1.7,0.2l2.4,0.3l4.1,0.5l1.7,0.2l2.4,0.4c4,0.7 4.1,0.5 8.1,1.4c4,0.9 3.9,1.3 7.8,2.4l7.9,2.3c3.9,1.3 4,1.1 7.9,2.4l4.1,1.5c1,0.4 2,0.8 4.1,1.4c4.2,1.1 4.2,1.2 8.4,2.1c4.2,1 4.3,0.5 8.6,1.3l8.6,1.4c4.3,0.4 4.3,-0.1 8.6,0.2l2.6,0.1l1.7,0l4.3,0.1c4.3,0.1 4.3,0.2 8.6,0.1l4.3,-0.2l4.3,-0.4c4.3,-0.4 4.3,-0.2 8.6,-0.8l4.3,-0.5l4.2,-0.8c1.418,-0.254 2.82,-0.588 4.2,-1l4.1,-1.1c2.1,-0.5 3.1,-0.9 4.1,-1.2l4.1,-1.2l2.5,-0.9l5.3,-1.7l5.2,-1.8c2.6,-0.9 2.7,-0.8 5.3,-1.6c2.6,-0.9 2.6,-0.9 5.3,-1.6l5.4,-1.4l2.7,-0.7c0.7,-0.2 1.3,-0.4 2.7,-0.6l5.5,-0.9l5.5,-0.7c2.7,-0.4 2.8,-0.4 5.5,-0.6l0.8,-0.1c2.7,-0.2 5.4,-0.5 8.1,-0.5l0.3,0l1.9,-0.1l2.5,-0.1l1.9,-0.1c0.3,-0.3 0.7,-0.3 0.1,-0.3Z" style="fill-rule:nonzero;"/><path d="M119.25,253.585c-1.5,-0.1 -3,-0.4 -4.4,-0.6l-4.4,-0.4c-2.2,-0.3 -2.2,-0.5 -4.4,-0.9l-2.3,-0.3l-1.1,-0.1l-1,-0.1l-0.3,-0.1l-0.4,-0.2l-0.2,-0.1c-0.3,-0.3 0.6,-0.4 1,-0.4l1.5,0.3l2.9,0.5c2.2,0.4 2.2,0.2 4.4,0.5c2.2,0.3 2.2,0.5 4.4,0.7l4.4,0.4c0.5,0 0.9,0.4 0.9,0.7l0,0.1l-0.9,0.2l-0.1,-0.2Zm-80.1,-19l-1.7,-0.1l-1.9,-0.1c-0.67,-0.022 -1.339,-0.089 -2,-0.2l-1.9,-0.2l-2,-0.1l-1.2,-0.1l-0.4,0l1.6,0l2,0.1l1.9,0.1l2,0.1l2,0.2l1.6,0.3Zm-15.1,-0.8l-1.8,0l-1.7,-0.1l2.9,0l0.6,0.1Zm30.6,3.1l-2.8,-0.4l-3.4,-0.6c-1.3,-0.3 -2.4,-0.4 -3.3,-0.5l-2.1,-0.3l-1,-0.2l0.9,0l2,0.2c0.9,0.1 2.3,0.2 3.6,0.5l3.7,0.7l2.4,0.6Zm33.8,10.3c0,0.1 -0.9,0 -2.7,-0.5l-3.4,-1.1l-3.4,-1.3l-2.5,-1.1c0,-0.1 0.7,0 2.6,0.6l3.5,1.2l3.3,1.1c1.9,0.7 2.7,1 2.6,1.1Zm46.8,6.6c0,0.2 -0.6,0.2 -1.7,0.3l-1.9,0.2l-2,-0.1l-1.9,-0.1l-2,0c-1,-0.1 -1.6,-0.4 -1.6,-0.5c0,-0.2 0.6,-0.4 1.6,-0.5l2,0.2l1.9,-0.3l2,0c0.7,0 1.4,0.2 2,0.3c1.1,0.1 1.6,0.3 1.6,0.5Zm7.2,-0.3c0,0.3 -0.9,0.6 -1.8,0.6c-0.9,0 -1.7,-0.3 -1.7,-0.6c0,-0.2 0.7,-0.4 1.7,-0.5c0.9,0 1.8,0.2 1.8,0.5Zm-46,-4.1c0,0.2 -1.4,0.2 -2.8,-0.3c-1.4,-0.4 -2.4,-1 -2.4,-1.1c0,-0.2 1.2,0 2.6,0.4c1.4,0.4 2.7,0.8 2.6,1Zm-34.9,-10.9c0,0.1 -0.7,0.1 -1.4,-0.1l-1.2,-0.5c0,-0.1 0.6,-0.1 1.3,0.1c0.8,0.1 1.4,0.4 1.3,0.5Zm12.1,3.7c0,0.1 -2.4,-0.4 -4.8,-1.2l-4.3,-1.6c0,-0.1 2,0.3 4.4,1.1c1.626,0.386 3.203,0.956 4.7,1.7Zm107.6,6l-2.9,0.7l-2.8,0.8l-2.8,0.7c-1.4,0.3 -1.4,0.6 -2.8,0.9c-1.4,0.3 -1.5,0.1 -2.9,0.3c-1.4,0.3 -1.4,0.5 -2.8,0.7c-1.4,0.2 -1.5,0 -2.9,0.2c-1.4,0.2 -1.4,0.5 -2.9,0.7c-1.5,0.2 -1.5,0 -2.9,0.1c-1.4,0.2 -1.5,0.1 -2.9,0.2l-2.9,0.3c-0.6,0 -1.4,-0.9 -0.1,-1.1c1.4,-0.2 1.4,-0.3 2.9,-0.4c1.4,-0.1 1.5,0 2.9,-0.2l2.9,-0.3l2.9,-0.3l2.9,-0.4l2.9,-0.5l2.8,-0.8c1.4,-0.3 1.5,0 2.9,-0.4l2.8,-0.8l2.8,-0.8c1.4,-0.4 1.3,-0.6 2.8,-0.9c2.5,-0.6 0.6,1.2 0.1,1.3Zm106.4,-9.8c-1.5,-0.3 -2.8,-1 -4.3,-1.2l-4.4,-0.6c-2.2,-0.4 -2.1,-0.7 -4.3,-0.9l-2.3,-0.1l-1.1,0l-1,-0.1l-0.3,-0.1l-0.4,-0.2c-0.11,0 -0.2,-0.091 -0.2,-0.2c-0.3,-0.4 0.6,-0.7 1,-0.8c0.5,-0.1 1.1,0.1 1.5,0.2l2.9,0.4c2.2,0.3 2.3,0 4.5,0.4c2.2,0.4 2.2,0.7 4.3,1.1l4.4,1c0.5,0.1 0.8,0.7 0.8,1l0,0.1c-0.1,0.2 -0.7,0.2 -0.9,0.2l-0.2,-0.2Zm-81.5,1c0.1,0.2 -0.5,0.4 -1.5,0.8l-1.8,0.8l-1.9,0.6l-1.9,0.5l-1.8,0.7c-1,0.2 -1.6,0.2 -1.7,0c-0.1,-0.2 0.3,-0.7 1.3,-1.2c0.5,-0.3 1.3,-0.2 2,-0.4c0.6,-0.2 1.1,-0.8 1.7,-1l1.9,-0.6l2,-0.3c1,-0.3 1.6,-0.2 1.7,0.1Zm-14.5,4.4c0.1,0.3 -0.6,0.9 -1.5,1.2c-0.9,0.3 -1.7,0.2 -1.8,-0.1c-0.1,-0.3 0.5,-0.7 1.4,-1c0.9,-0.3 1.8,-0.4 1.9,-0.1Zm29.8,-8c0,0.2 -1.2,0.5 -2.7,0.9l-3.3,0.9l-3.3,0.6c-1.5,0.2 -3.1,0.5 -3.2,0.3c-0.1,-0.2 1.2,-0.9 2.6,-1.4c2.41,-0.748 4.889,-1.251 7.4,-1.5c1.4,-0.1 2.4,0 2.5,0.2Zm35.2,-2c0,0.3 -0.8,0.5 -2.7,0.6l-3.5,0c-1.203,-0.008 -2.404,-0.075 -3.6,-0.2c-1.9,-0.1 -2.7,-0.1 -2.7,-0.4c0,-0.3 0.7,-0.5 2.6,-0.7l3.7,0l3.5,0.1c1.9,0.1 2.7,0.3 2.7,0.6Zm46.5,8.4c-0.1,0.2 -0.6,0 -1.7,-0.2c-0.632,-0.108 -1.265,-0.208 -1.9,-0.3l-1.9,-0.6l-1.8,-0.7l-1.9,-0.5c-1,-0.4 -1.5,-0.8 -1.4,-1c0.1,-0.2 0.7,-0.4 1.7,-0.3c0.6,0.1 1.2,0.6 1.9,0.8c0.6,0.1 1.3,0 2,0.2l1.9,0.6l1.8,0.9c0.9,0.5 1.4,0.9 1.3,1.1Zm6.9,2.1c-0.1,0.3 -1,0.4 -1.9,0.1c-0.9,-0.3 -1.4,-0.9 -1.3,-1.2c0.1,-0.3 0.9,-0.2 1.7,0.1c0.8,0.3 1.6,0.8 1.5,1Zm-45.1,-10.2c0,0.3 -1.4,0.6 -2.8,0.5c-1.4,-0.1 -2.6,-0.6 -2.6,-0.9c0,-0.3 1.2,-0.5 2.6,-0.4c1.5,0.2 2.8,0.5 2.8,0.8Zm-36.5,0.6c0,0.3 -0.6,0.8 -1.3,0.9c-0.7,0.1 -1.3,-0.3 -1.3,-0.6c0,-0.3 0.5,-0.6 1.2,-0.7c0.7,0 1.3,0.1 1.4,0.4Zm12.6,-1c0,0.2 -0.6,0.3 -1.5,0.5l-3.4,0.5c-2.5,0.2 -4.6,-0.1 -4.6,-0.4c0,-0.3 2,-0.7 4.5,-0.9l3.4,-0.1c1,0.1 1.6,0.3 1.6,0.4Zm170.9,13.8c-1.5,0.5 -2.9,0.7 -4.3,1.1c-2.1,0.6 -2.1,0.7 -4.3,1.2c-2.2,0.5 -2.2,0.3 -4.4,0.9l-2.2,0.5l-1.1,0.3l-1,0.2l-1,0c-0.4,-0.2 0.4,-0.6 0.8,-0.8c0.4,-0.2 1,-0.2 1.5,-0.3l2.9,-0.5c2.2,-0.5 2.1,-0.7 4.3,-1.2c2.2,-0.5 2.2,-0.3 4.3,-0.9l4.3,-1.2c0.5,-0.2 0.9,0 1.1,0.1l0,0.1l-0.7,0.5l-0.2,0Zm-81.8,2.9c0,0.2 -0.6,0.1 -1.7,0l-2,-0.2l-1.9,-0.5c-0.7,-0.1 -1.3,-0.4 -1.9,-0.6l-1.9,-0.5c-1,-0.4 -1.5,-0.7 -1.4,-1c0.1,-0.2 0.7,-0.4 1.7,-0.2c0.5,0.1 1.1,0.6 1.9,0.7l2,0.1l1.9,0.4l1.8,0.7c1.1,0.5 1.6,0.9 1.5,1.1Zm-14.5,-4.2c-0.1,0.3 -1,0.4 -1.9,0.1c-0.9,-0.3 -1.5,-0.9 -1.4,-1.2c0.1,-0.3 0.9,-0.2 1.7,0c0.9,0.4 1.7,0.8 1.6,1.1Zm30.1,6.5c0,0.2 -1.3,0.1 -2.9,0l-3.5,-0.2c-1.3,-0.1 -2.4,-0.4 -3.3,-0.6c-1.5,-0.4 -3.1,-0.8 -3,-1c0,-0.2 1.5,-0.2 2.9,-0.1l3.6,0.5l3.7,0.5c1.5,0.3 2.5,0.7 2.5,0.9Zm35.3,0.2c0,0.2 -0.8,0.4 -2.7,0.7l-3.5,0.3l-3.6,-0.1c-1.9,0 -2.7,-0.1 -2.7,-0.3c0,-0.2 0.7,-0.4 2.6,-0.5l3.7,0l3.5,-0.2c1.8,-0.2 2.6,-0.1 2.7,0.1Zm45.9,-10.8l-1.5,0.7l-1.8,0.8l-1.9,0.6l-1.8,0.6l-1.8,0.7c-1,0.3 -1.6,0.4 -1.6,0.2c0,-0.1 0.4,-0.5 1.4,-0.9l1.9,-0.5c0.6,-0.2 1.1,-0.6 1.8,-0.8l1.9,-0.6l1.9,-0.5c0.9,-0.4 1.5,-0.4 1.5,-0.3Zm6.8,-2.3c0,0.1 -0.7,0.5 -1.6,0.8c-0.9,0.3 -1.6,0.3 -1.7,0.2c0,-0.1 0.6,-0.4 1.5,-0.7c0.9,-0.3 1.8,-0.5 1.8,-0.3Zm-44.5,12.1c0,0.2 -1.3,0.7 -2.7,0.9c-1.4,0.2 -2.6,0 -2.6,-0.2c0,-0.2 1.1,-0.5 2.5,-0.7c1.4,-0.2 2.7,-0.2 2.8,0Zm-36.5,1.2c0,0.3 -0.7,0.6 -1.4,0.5c-0.7,0 -1.2,-0.4 -1.2,-0.7c0,-0.3 0.6,-0.4 1.3,-0.4c0.7,0.1 1.3,0.3 1.3,0.6Zm12.6,0.3c0,0.3 -2.4,0.6 -4.9,0.5c-2.5,0 -4.6,-0.4 -4.6,-0.7c0,-0.3 2,-0.4 4.6,-0.3c2.6,0.1 4.9,0.3 4.9,0.5Zm105.9,-19.4l-2.9,0.1l-2.9,0.2l-2.9,0.2l-2.9,0.3l-2.9,0.3l-2.9,0.4l-2.9,0.4l-2.8,0.6l-2.9,0.5l-2.8,0.6l-2.8,0.7c-0.6,0.1 -1.4,-0.1 -0.1,-0.4l2.8,-0.7l2.8,-0.6l2.9,-0.5l2.9,-0.5c1.4,-0.2 1.4,-0.3 2.9,-0.4l2.9,-0.3l2.9,-0.4c1.4,-0.2 1.5,0 2.9,-0.2l2.9,-0.2l2.9,-0.2l2.9,-0.1c2.9,0 0.5,0.2 0,0.2Zm8.3,-0.2l-3.5,0l3.5,0Z" style="fill-rule:nonzero;"/><path d="M199.85,250.885l-4,1.3c-2,0.6 -1.9,0.9 -3.9,1.6c-2,0.6 -2.1,0.4 -4.1,1.1l-4,1.3l-4,1.1c-2,0.5 -2,0.8 -4,1.3c-2,0.5 -2.1,0.3 -4.1,0.8l-4.1,0.7c-2.1,0.3 -2,0.5 -4.1,0.9c-2.1,0.4 -2.1,0.1 -4.2,0.3l-4.3,0.5c-2.1,0.3 -2.1,0.2 -4.3,0.4l-4.3,0.4c-2.1,0.2 -2.1,0.1 -4.3,0.2l-4.3,0.1l-4.3,-0.1l-4.3,0.1l-4.3,0l-4.2,-0.2l-0.8,0.3c-0.3,0.2 -0.8,0.6 -0.5,0.9c0.2,0.2 0.6,0.4 1,0.4l4.3,0.5c2.2,0.1 2.2,-0.1 4.3,-0.1c2.2,0.1 2.2,0.3 4.3,0.4c2.2,0.1 2.2,-0.1 4.3,-0.2l4.3,0.1c2.2,-0.1 2.2,-0.3 4.3,-0.4l4.3,-0.3c2.2,-0.2 2.2,0.2 4.3,-0.1l4.3,-0.7c2.1,-0.3 2.1,0 4.2,-0.4l4.2,-0.8c2.1,-0.4 2.1,-0.5 4.1,-1c2.1,-0.5 2,-0.8 4,-1.3l4,-1.2l4,-1.3c2,-0.7 2.1,-0.4 4.1,-1.1l3.9,-1.5l4,-1.3l4,-1.4c0.5,-0.2 0.5,-0.8 0.5,-0.8c0.5,-0.4 0.2,-0.7 -0.3,-0.5Zm-86.1,12.9l0.5,-0.5c0.2,-0.5 -0.3,-0.9 -0.6,-1.1l-0.8,-0.4l-2.5,-0.2l-2.8,-0.3l-2.8,-0.4l-2.8,-0.4c-1.4,-0.2 -1.4,-0.5 -2.8,-0.8l-2.8,-0.4l-2.8,-0.7l-2.8,-0.7l-2.8,-0.8l-2.7,-0.9l-2.8,-0.7l-2.7,-0.9l-0.6,0c0,0 0,0.4 0.4,0.5l2.7,0.9l2.8,0.8c1.4,0.5 1.3,0.6 2.7,1l2.8,0.8l2.7,0.9c1.4,0.4 1.3,0.6 2.7,0.9l2.8,0.7l5.6,1.2c1.4,0.3 1.5,0.1 2.9,0.4l2.8,0.6l3.1,0.5l0.6,0Zm325.7,-14.7l-4.8,1.4c-1.5,0.4 -3.1,0.2 -0.7,-0.5l5.4,-1.4c1.1,-0.2 1.9,-0.3 1.7,-0.1c-0.2,0.2 -0.9,0.4 -1.6,0.6Zm4.8,-1.4c0,-0.2 0.7,-0.4 2.1,-0.6l2.3,-0.4l2.3,-0.5l2.3,-0.4l2.3,-0.3l2.3,-0.3l2.3,-0.3l2.3,-0.2l2.3,-0.1l2.2,-0.1l-2.2,0.2l-2.3,0.2l-2.3,0.3l-2.3,0.2l-2.3,0.3l-2.3,0.4l-2.3,0.3l-2.3,0.4l-2.3,0.3c-1.4,0.5 -2.1,0.9 -2.1,0.6Zm-13,3.4c0.1,0.2 -0.5,0.6 -1.1,0.8c-0.6,0.2 -1.2,0.1 -1.3,-0.1c-0.1,-0.2 0.4,-0.5 1.1,-0.7l1.3,0Zm48.3,-6.9l-2.1,0.1l-2.7,0.1l-2.8,0.1l-2.5,0l2.8,0l2.5,-0.1l2.5,0c1,-0.2 1.7,-0.2 2.3,-0.2Zm-445.3,0.6l-3.2,-0.3l-3.2,-0.1l-3.2,-0.1l-3.9,0l7,0l3.2,0.1l3.2,0.2c0.4,0 0.6,0.1 0.7,0.2l-0.6,0c0.1,0 0.1,0 0,0Zm38.4,7.5c-0.1,0.3 -1.1,-0.1 -3,-0.7l-3.2,-1l-3.2,-0.8c-1,-0.3 -2.1,-0.7 -3.2,-0.9l-3.2,-0.8c-1.1,-0.3 -2.2,-0.6 -3.2,-0.7l-3.2,-0.6l-3.3,-0.6l-3.3,-0.5l-3.1,-0.5c0,-0.2 1.1,0 3.1,0.2l6.6,0.8c1,0.2 2.1,0.5 3.3,0.6l3.2,0.7l3.3,0.6c1.1,0.2 2.2,0.6 3.2,0.9l3.2,0.9l3.1,1.1c1.9,0.8 3,0.9 2.9,1.3Zm265.9,10.7l2.3,0.4c1.1,0.2 1.1,0 2.3,0.2l2.3,0.4l2.3,0l4.6,0.4c1.1,0.1 1.1,0.4 2.3,0.5l4.6,0.2c1.1,0.1 1.1,-0.2 2.3,-0.1c1.2,0 1.2,0.2 2.3,0.2c1.2,0 1.2,-0.2 2.3,-0.3l2.3,0c1.2,0 1.2,0.2 2.3,0.2c1.2,0 1.2,-0.2 2.3,-0.2l2.3,0.1c1.2,-0.1 1.2,-0.3 2.3,-0.4l2.3,0l2.3,-0.3l2.3,0c1.2,-0.2 1.1,-0.3 2.3,-0.4c1.1,-0.2 1,-0.3 2.1,-0.4c1.1,-0.2 1.1,0 2.2,-0.1l2.1,-0.4l2.1,-0.4l2.1,-0.4c1.1,-0.2 1,-0.3 2.1,-0.6l2.1,-0.6l2.1,-0.5l2,-0.7c1,-0.3 1.1,-0.1 2.1,-0.5l2.1,-0.6c0.3,-0.1 0.3,-0.5 0.3,-0.5c0,-0.1 -0.2,-0.2 -0.4,-0.1l-2.1,0.6c-1,0.3 -1.1,0.1 -2.1,0.4l-2.1,0.6l-2.1,0.5l-2.1,0.4l-2.1,0.4c-1.1,0.2 -1.1,0 -2.1,0.1c-1.1,0.2 -1,0.4 -2.1,0.5l-2.1,0.3l-2.1,0.2l-2.1,0.2c-1.2,0.1 -1.2,0 -2.3,0.2c-1.1,0.1 -1.1,0.3 -2.3,0.4l-2.3,0.1l-2.3,0.1l-2.3,0l-2.3,0.2l-6.9,0l-2.3,-0.1l-2.3,0c-1.1,0 -1.1,0.2 -2.3,0.2c-1.1,0 -1.1,-0.2 -2.3,-0.2l-2.3,0.1l-2.3,0c-1.1,0 -1.1,-0.3 -2.2,-0.3l-2.3,-0.1l-2.2,-0.2l-2.3,0c-1.1,-0.1 -1.1,-0.4 -2.2,-0.5l-2.2,-0.2c-0.3,0 -0.4,0.3 -0.5,0.5c0,-0.1 0,0.4 0.2,0.5Zm-8.7,-2.9l-4.1,-1c-2,-0.5 -2.1,-0.3 -4.1,-0.9c-2,-0.6 -1.9,-0.8 -3.9,-1.4l-4,-1.3l-3.9,-1.5c-2,-0.7 -2.1,-0.5 -4,-1.2l-3.9,-1.5l-4,-1.5c-2,-0.7 -2.1,-0.4 -4.1,-1.1c-2,-0.6 -1.9,-0.9 -4,-1.4l-4.2,-1.1c-0.679,-0.227 -1.385,-0.362 -2.1,-0.4l-2.2,-0.4l-4.3,-0.7l-4.3,-0.5l-4.3,-0.5c-2.2,-0.2 -2.2,-0.4 -4.3,-0.5l-4.4,-0.1l-8.5,0c-0.285,0.092 -0.555,0.227 -0.8,0.4c-0.3,0.2 -0.7,0.9 -0.4,1.3c0.2,0.3 0.6,0.4 1,0.5c2.1,0 2.1,0.3 4.3,0.3c2.1,0 2.1,-0.2 4.3,-0.2c2.1,0.1 2.1,0.5 4.2,0.6l4.3,0.1l4.2,0.6c2.1,0.3 2.2,-0.1 4.3,0.2l4.2,0.7l2.1,0.5l2.1,0.6c2.1,0.5 2.1,0.3 4.2,0.7c2,0.4 2,0.8 4,1.3l4,1.1l4,1.2c2,0.6 2.1,0.4 4.1,1l8,2.6c2,0.6 1.9,0.9 4,1.5c2,0.6 2.1,0.5 4.1,1c2,0.5 2,0.7 4.1,1.1l4.1,0.8c0.5,0.1 0.8,-0.4 0.8,-0.4c0,0 -0.1,-0.4 -0.6,-0.5Zm83.6,-2.6c1.1,-0.3 2,-0.8 3,-1.2c1.5,-0.5 1.6,-0.4 3.1,-1l3,-1.2l1.6,-0.5l0.8,-0.2l0.7,-0.2l0.2,-0.1l0.3,-0.2l0.1,-0.1c0.2,-0.3 -0.5,-0.3 -0.8,-0.3c-0.3,0 -0.7,0.3 -1.1,0.4l-2,0.7l-3.1,0.9l-3,1.2l-3.1,1c-0.4,0.1 -0.5,0.5 -0.5,0.7l0,0.1c0.1,0.1 0.5,0.1 0.8,0c-0.1,0.1 -0.1,0.1 0,0Zm-207.8,-7.5c0.2,0.6 1.3,0.1 3.5,-0.4l3.7,-0.8l3.7,-0.5l3.7,-0.7l3.7,-0.7l3.7,-0.5l3.7,-0.5c1.3,-0.1 2.6,-0.1 3.7,-0.3l3.7,-0.4c2.2,-0.3 3.5,-0.2 3.5,-0.8c0,-0.8 -1.3,-0.5 -3.6,-0.4l-3.8,0.2c-1.2,0 -2.4,-0.2 -3.8,-0.1c-1.2,0.1 -2.4,0.6 -3.7,0.7l-3.8,0.5c-1.3,0.2 -2.6,0 -3.8,0.2c-1.3,0.2 -2.5,0.6 -3.7,0.9l-3.7,0.9l-3.6,1.2c-2,0.9 -3.4,0.7 -3.1,1.5Z" style="fill-rule:nonzero;"/><path d="M350.75,273.885l-4.1,0c-1.4,0 -3.1,-0.3 -5.3,-0.5l-3.5,-0.4l-4.1,-0.7c-3.427,-0.604 -6.829,-1.338 -10.2,-2.2l-5.6,-1.6l-5.8,-1.9c-8,-2.7 -15.1,-5.4 -21.4,-7.1c-2.9,-0.7 -5.4,-1.4 -7.5,-1.8l-5.1,-1l-2.9,-0.5l-0.9,-0.3c0,-0.1 1.1,-0.2 3.7,0.2l5.1,0.8c2.1,0.3 4.6,1 7.5,1.6l5,1.4l5.4,1.7l11.5,4l5.7,1.9l5.4,1.6l5.1,1.2l4.8,1l4,0.8l3.5,0.5l5.3,0.7c3,0.3 4.4,0.5 4.4,0.6Zm128.8,-19.3l-4.8,0.1l-5,0.1l-5.8,0.4l-2.9,0.2l-2.7,0.3l-4.6,0.5l-3.1,0.4l-0.8,0.1l-0.3,0l0.3,-0.1l0.8,-0.2c0.7,-0.1 1.8,-0.4 3.1,-0.5l4.6,-0.6l2.7,-0.3l2.9,-0.2l5.8,-0.3l5,-0.1c2.9,0.3 4.5,0.3 4.8,0.2Zm-253.1,2.2l4.9,-0.6l4.3,-0.4l5.8,-0.6c1.4,-0.2 2.3,-0.4 1.7,-0.5c-0.6,-0.1 -2.5,-0.3 -6.6,0l-6.1,0.4l-6.1,0.7l-1.5,0.2l-1.5,0.3l-3,0.5l-3,0.5l-3,0.7c-7.801,1.825 -15.482,4.129 -23,6.9c-8.125,2.901 -16.491,5.076 -25,6.5c-2.1,0.4 -4.3,0.6 -6.4,0.9l-3.2,0.4l-3.2,0.2l-6.4,0.4l-6.5,0.2c-12.2,0.2 -24.4,-0.4 -36.4,-2.6c-6,-1.2 -11.9,-2.7 -17.7,-4.7c-5.8,-1.9 -11.6,-3.9 -17.5,-5.7c-4.5,-1.3 -11.8,-3.2 -19,-4.2l-5.4,-0.6l-2.6,-0.3l-2.5,-0.2l-4.5,-0.2l-3.7,-0.1l-8.7,0l3.3,0.1l5.7,0.2l5.9,0.4l3.6,0.3l3.6,0.5c10.841,1.494 21.498,4.108 31.8,7.8c8,2.8 16,5.7 24.5,7.6c8.9,2.1 18.1,3 27.2,3.5c4.5,0.1 9.1,0.3 13.6,0.1l6.7,-0.2l6.7,-0.5c12.7,-1.1 24.9,-4.1 36.8,-8.2c5.9,-2 11.8,-4.1 17.9,-5.7c1.5,-0.5 3,-0.8 4.6,-1.2c1.5,-0.3 3.1,-0.8 4.6,-1c3,-0.8 6.1,-1.5 9.3,-1.8Zm199.5,6.4l-0.7,0.3l-1.9,0.7c-3.918,1.411 -7.851,2.778 -11.8,4.1l-6.3,1.8l-6.5,1.6l-5.8,1l-3.9,0.5l-3.5,0.3c-1,0.1 -1.9,0.2 -2.5,0.1l-1,-0.1l1.2,-0.2l3,-0.4c2.4,-0.3 5.5,-0.6 8.1,-1.2l5,-1l5.8,-1.4l5.8,-1.6l5,-1.5l6.8,-2.2l2.2,-0.7c0.6,-0.1 0.9,-0.2 1,-0.1Z" style="fill-rule:nonzero;"/><path d="M118.25,284.185l-1.3,0.1c-2.295,-0.253 -4.596,-0.453 -6.9,-0.6l-1.8,-0.2l-1.9,-0.3l-4.4,-0.8l-5.1,-1.1c-2,-0.4 -4,-1 -6.1,-1.6c-2.219,-0.638 -4.42,-1.339 -6.6,-2.1c-4.5,-1.5 -9.3,-3.3 -14.3,-4.9c-5.1,-1.7 -10,-3 -14.7,-4.1l-6.9,-1.3l-6.5,-0.9l-2.8,-0.3l-2.6,-0.2c-1.5,-0.094 -3,-0.194 -4.5,-0.3l-3.7,-0.2l-2.9,-0.1l-4.9,-0.1l4.7,0.1c3.64,-0.075 7.282,0.092 10.9,0.5l5.3,0.4l6.6,0.8l7.1,1.3c5.062,1.089 10.068,2.424 15,4l14.2,4.7c4.4,1.4 8.6,2.7 12.5,3.6l5.1,1.2l4.4,0.8l1.9,0.4l1.8,0.2l3,0.4c1.8,0.2 3.1,0.5 4,0.5l1.4,0.1Zm41.1,-1.5l1.1,-0.1c4.9,-0.7 9.6,-1.6 14.4,-2.8l7,-1.9l7,-2.2l14,-4.6l7.1,-2l3.6,-0.8l3.6,-0.8l5.2,-0.9l4.6,-0.6l4.1,-0.5l3.7,-0.3l3.4,-0.3l3.1,-0.2l5.7,-0.2c7.5,0 15.1,-0.3 30,1.7c29.7,5.3 28.4,10 57.7,15.9c10.2,1.8 20.6,2.3 30.8,2.3c4.9,-0.1 9.8,-0.2 14.6,-0.6l3.4,-0.2l3.5,-0.4c2.3,-0.3 4.7,-0.5 6.9,-0.9l4.8,-0.8l5.6,-1.2l2.8,-0.6c2.1,-0.5 0.5,0.1 -2.4,1l-4.9,1.3l-4.8,1c-3,0.7 -6.5,1 -10.1,1.5l-5.4,0.4l-5.1,0.3c-13.3,0.5 -26.6,0.2 -39.7,-2.1c-3.7,-0.6 -6.9,-1.4 -9.8,-2l-4,-1.1l-3.6,-1l-11.6,-3.8l-5.4,-1.8l-6.1,-1.8l-3.5,-1l-4,-0.9l-2.2,-0.5l-2.3,-0.4l-5.2,-0.9c-14.8,-2 -22.3,-1.8 -29.7,-1.9l-5.7,0.1l-3.1,0.1l-3.3,0.2l-3.7,0.2l-4.1,0.5l-4.6,0.6c-2.622,0.558 -5.256,1.058 -7.9,1.5l-2.5,0.6l-2.3,0.5l-2.2,0.6l-4,1.1l-3.5,1.1l-11.5,3.9c-6.359,2.056 -12.797,3.858 -19.3,5.4l-4.6,0.8l-2.5,0.4l-2.7,0.3l-5,0.5l-3.9,0.1l-4.1,-0.1c-0.1,0 -0.2,0 0,-0.1c0.8,-0.3 8.5,-0.8 11.4,-1.4l1.2,-0.2Zm274.2,-11.4l0.5,-0.2l1.4,-0.5l2.2,-0.7l1.4,-0.4l1.6,-0.4c2.2,-0.5 4.7,-1.2 7.6,-1.6l4.4,-0.8l4.6,-0.5c3.1,-0.4 6,-0.6 8.7,-0.7l3.8,-0.2l3.3,0l6.6,-0.1l-6.6,0.2l-3.3,0.1l-3.8,0.3c-2.7,0.2 -5.6,0.4 -8.7,0.8l-4.6,0.6l-4.3,0.8c-2.8,0.4 -5.4,1.1 -7.5,1.6l-1.6,0.4l-1.4,0.4l-2.3,0.6l-1.5,0.4l-0.5,-0.1Z" style="fill-rule:nonzero;"/><path d="M225.85,277.785l-0.9,0.1c-8,1.1 -15.9,2.9 -23.6,5.3c-7.7,2.4 -15.3,5.2 -23.2,7.4l-2.2,0.6l-2.1,0.5l-3.8,0.9l-6.4,1.2l-1.4,0.3l-1.3,0.2l-2.5,0.3l-4.7,0.6c-6.2,0.5 -12.4,1.1 -24.8,0.7l-4.4,-0.1c-1.301,-0.093 -2.601,-0.193 -3.9,-0.3c-2.4,-0.2 -4.6,-0.3 -6.5,-0.6l-5.3,-0.7l-4.7,-0.8c-8.133,-1.591 -16.125,-3.832 -23.9,-6.7c-8.1,-2.8 -16.2,-5.6 -24.5,-7.4l-3,-0.6l-3,-0.5l-3,-0.5l-3,-0.4l-2.8,-0.4l-2.9,-0.3l-5.8,-0.4l-2.1,-0.2l-2,-0.1l-4.8,-0.1l-2.3,-0.1l2.2,0c2.5,0.1 6,0 8.3,0.2l8.4,0.6l4.4,0.5c1.4,0.2 2.9,0.3 4.2,0.6l4.1,0.7l2,0.4l2,0.5l4,0.9l4,1.1c2.7,0.7 5.2,1.6 7.9,2.4l7.8,2.6c11.7,4 17.8,5.3 23.9,6.3l4.7,0.7l5.3,0.6c1.9,0.3 4,0.3 6.4,0.5l3.8,0.3l4.4,0.1c12.4,0.3 18.5,-0.2 24.7,-0.6l4.7,-0.5l2.5,-0.3l1.3,-0.2l1.4,-0.2c3.392,-0.571 6.761,-1.272 10.1,-2.1l2.1,-0.5l2.2,-0.6l4.2,-1.2l3.7,-1.2l6.1,-2.1l9.6,-3.2l2.2,-0.7l2.3,-0.7c1.6,-0.4 3.3,-1 5.2,-1.4c4.78,-1.168 9.62,-2.069 14.5,-2.7c3.571,-0.612 7.218,-0.646 10.8,-0.1l-4.1,0.5l-3,0.4l-2.4,0.4l-1.1,0.1Zm175.7,13.9l-1.2,0.4l-1.4,0.4l-2,0.4c-1.5,0.3 -3.4,0.7 -5.7,1l-7.8,1l-4.9,0.4l-5.2,0.4l-5.6,0.2l-2.9,0.1l-3,0c-3.5,-0.1 -7.1,-0.1 -10.8,-0.4l-5.6,-0.4l-5.7,-0.7c-7.6,-1 -14.7,-2.7 -21.2,-4.7c-7.8,-2.4 -14.9,-5 -20.7,-6.8l-7.4,-2.2l-5.5,-1.4l-4.5,-1.2c0,-0.1 1.5,0 4.5,0.4l5.4,1.1l7.4,2c5.9,1.7 13.3,4.9 21.1,7.2c6.5,2 13.5,3.2 21.1,4.3l5.7,0.7l5.6,0.4c3.7,0.3 7.4,0.3 10.8,0.4l3,0.1l8.7,0l5.3,-0.2l4.9,-0.3l7.7,-0.8c2.956,-0.356 5.893,-0.856 8.8,-1.5l1.1,-0.3Zm78,-16.2l-6.1,0.2c-3.7,0 -8.7,0.5 -13.8,0.9l-7.2,0.9l-5.8,1c-1.7,0.2 -3,0.6 -3.9,0.8l-1.1,0.2c-0.2,0 -0.4,0.1 -0.4,0l0.4,-0.1l1,-0.3l3.9,-0.9l5.8,-1l7.2,-0.9c5.1,-0.4 10.1,-0.8 13.8,-0.7l6.2,-0.1Z" style="fill-rule:nonzero;"/><g><path d="M183.55,299.085c4.759,-2.053 9.596,-3.921 14.5,-5.6c7.6,-2.6 14,-3.6 14.1,-3.3c0.1,0.3 -6.1,1.9 -13.7,4.5l-10.2,3.3c-2.9,0.8 -4.7,1.2 -4.7,1.1Zm-40.6,6.6c0,0.2 -2.6,0.4 -7,0.6c-4.4,0 -10.7,0.1 -18.1,-0.6c-1.8,-0.1 -3.6,-0.4 -5.3,-0.6l-4.9,-0.7l-4.4,-0.8l-2,-0.4l-1.8,-0.4l-5.3,-1.4l-1.9,-0.7l2,0.4l5.4,1.1l1.8,0.4l2,0.3l4.3,0.7l4.9,0.6c1.7,0.2 3.5,0.5 5.3,0.5c7.3,0.6 13.6,0.6 18,0.8c4.4,-0.1 7,0 7,0.2Z" style="fill-rule:nonzero;"/><path d="M210.85,290.085c-1.494,0.582 -2.994,1.148 -4.5,1.7l-4.7,1.6l-5.5,1.9c-4.606,1.537 -9.277,2.872 -14,4c4.468,-1.752 8.969,-3.419 13.5,-5l5.5,-1.8c1.571,-0.535 3.174,-0.97 4.8,-1.3l3.4,-0.8l1.5,-0.3Zm54.4,-3.7c0,0.2 -1.9,0.2 -4.8,0.2l-21,0c-2.6,0 -4.2,0 -4.2,-0.2c0,-0.2 1.6,-0.4 4.2,-0.7l10.2,-0.4l10.8,0.4c2.9,0.3 4.8,0.6 4.8,0.7Zm-187.2,9.4l-1.5,-0.4l-4,-1.3l-5.8,-1.8l-6.8,-1.9l-3.5,-0.8l-3.2,-0.7l-5.5,-1l-3.7,-0.5l-1,-0.2l-0.4,-0.1l0.4,0l1,0.1l3.7,0.4l5.5,0.9l1.6,0.3l1.7,0.4l3.5,0.8c2.4,0.5 4.7,1.3 6.8,1.9l5.8,1.9l4,1.4l1.4,0.6Zm75.7,9c0,0.1 -1.9,0.4 -4.7,0.7l-2.3,0.2l-1.3,0.1l-1.3,0.1l-5.8,0.2l-2.9,0l-2.7,-0.1l-4.6,-0.2c-1.407,-0.146 -2.808,-0.346 -4.2,-0.6l1.1,-0.1l3.1,-0.1l7.3,0l2.9,-0.1l5.8,-0.1l1.3,0l1.3,-0.1l2.3,-0.1l4.7,0.2Zm201.4,0.8c0,0.2 -1.9,0.2 -4.8,0.1l-5,-0.2l-5.8,-0.6c-2,-0.2 -3.9,-0.6 -5.6,-0.9c-1.7,-0.4 -3.2,-0.6 -4.5,-1c-2.5,-0.7 -4,-1.3 -4,-1.4c0,-0.1 1.6,0.1 4.2,0.6l4.5,0.8c1.7,0.3 3.6,0.7 5.5,0.9l5.7,0.8l4.9,0.5c3.1,0 4.9,0.3 4.9,0.4Z" style="fill-rule:nonzero;"/><path d="M20.55,285.985l4.8,0.1l5,0.1l5.8,0.3c4,0.2 7.6,0.8 10.2,1.1c1.3,0.1 2.3,0.4 3,0.5l0.8,0.2l0.3,0.1l-0.3,0l-0.8,-0.1l-3.1,-0.4c-2.6,-0.3 -6.2,-0.9 -10.2,-1.1l-5.8,-0.4l-5,-0.1c-2.7,-0.3 -4.4,-0.3 -4.7,-0.3Zm170.5,10.5c-7.695,3.343 -15.747,5.792 -24,7.3l-5.3,0.9l-4.9,0.6l-2.3,0.3l-2.1,0.1l-3.8,0.2l-3.1,0.1l-2.4,0c-1.3,0 -2,-0.1 -2,-0.2l2,-0.3l2.3,-0.1c2.296,-0.248 4.596,-0.448 6.9,-0.6l2.1,-0.2c2.392,-0.363 4.793,-0.663 7.2,-0.9l5.2,-0.9c8.19,-1.595 16.272,-3.699 24.2,-6.3Z" style="fill-rule:nonzero;"/><path d="M98.15,301.985l-1,-0.1l-2.6,-0.6c-2.2,-0.6 -5.3,-1.4 -8.6,-2.5c-4.3,-1.3 -8.8,-2.9 -14.5,-4.8l-4,-1.3l-3.7,-1.1l-3.4,-1l-3.1,-0.8l-2.4,-0.6l-2.4,-0.5l-4.4,-0.8l-3.2,-0.5l-0.9,-0.1l-0.3,-0.1l0.3,0l0.8,0.1l2.8,0.3l4,0.6l4.6,0.8c4.1,0.9 9.8,2.3 15.6,4.2l15.9,5.3l4.4,1.4l3.3,1l2.8,1.1Zm161.5,-16c0,0.2 -1.9,0.3 -4.8,0.4l-5,0.1l-5.8,0.2c-4,0 -7.6,0.2 -10.2,0.3l-3.1,0l-1.1,-0.1l1.1,-0.4l3.1,-0.4c2.6,-0.3 6.2,-0.7 10.2,-0.7l5.8,-0.1l5,0.2c3,0.2 4.9,0.4 4.8,0.5Zm53.3,11.7c0,0.1 -1.9,-0.3 -4.7,-1.1l-10.3,-3.2c-7.6,-2.4 -13.8,-4 -13.7,-4.4c0,-0.2 1.6,0.1 4.2,0.6l2.1,0.4l2.4,0.6c1.7,0.5 3.5,0.9 5.4,1.6c3.8,1.2 7.5,2.6 10.2,3.6c2.7,1 4.5,1.7 4.4,1.9Z" style="fill-rule:nonzero;"/><path d="M125.95,305.385c0,0.2 -2.3,0.1 -5.8,0c-3.5,-0.1 -8.3,-0.6 -13.1,-1.3l-6.8,-1.3l-5.4,-1.4l-3.6,-1.2l-1.3,-0.5c1.652,0.457 3.32,0.857 5,1.2l5.4,1.2l6.7,1.2c4.8,0.7 9.5,1.3 13,1.5l4.2,0.4c1.2,0.1 1.8,0.1 1.7,0.2Zm99.2,-17.8c0,0.2 -1.8,0.5 -4.6,1.2l-4.8,1.1l-5.6,1.4l-9.8,2.6l-4.1,0.9c0,-0.1 1.4,-0.8 3.9,-1.7l4.4,-1.5l5.4,-1.6l5.7,-1.3l4.9,-0.8c2.7,-0.5 4.6,-0.5 4.6,-0.3Zm149,18.2l1.3,-0.2l3.4,-0.4l4.9,-0.5l5.7,-0.7l5.6,-0.8l4.5,-0.7l4.2,-0.7l-4.1,1.2l-4.5,0.9c-1.7,0.3 -3.6,0.7 -5.6,0.9l-5.8,0.7l-5,0.3c-2.7,0.1 -4.6,0.2 -4.6,0Zm105.4,-19.8l-5.8,0.2l-2.8,0.1l-3.2,0.2l-7.1,0.6c-3.272,0.426 -6.539,0.892 -9.8,1.4l-2.6,0.4l-3.7,0.6l-1,0.2c-0.2,0 -0.4,0.1 -0.4,0l0.3,-0.1l1,-0.3l3.7,-0.8l2.6,-0.5l3,-0.5l6.8,-0.8l7.1,-0.5l3.2,-0.1l2.9,0l5.8,-0.1Z" style="fill-rule:nonzero;"/></g><path d="M50.45,298.685l-0.3,0l-1,-0.1l-1.5,-0.2l-2,-0.2l-4.9,-0.6l-2.8,-0.3l-3,-0.2l-2.9,-0.2l-1.4,-0.1l-1.3,0l-4.6,-0.1l-4.2,-0.1l4.2,0.1l4.6,0.1l1.3,0l1.4,0.1l2.9,0.2l3,0.2c1,0.1 1.9,0.1 2.8,0.3c2.776,0.33 5.544,0.73 8.3,1.2l0.9,0.2l0.5,-0.3Zm210.1,-2.2c0,0.1 -1.9,0.3 -4.8,0.4l-5,0.1l-5.8,0.2l-5.6,0.1l-4.6,0.1c-2.6,0 -4.2,0 -4.2,-0.2c0,-0.2 1.6,-0.4 4.2,-0.7l4.6,-0.4l5.7,-0.2l5.8,-0.1l5,0.2c2.8,0.2 4.7,0.3 4.7,0.5Zm-126.7,19.6l-4.8,0.3l-5,0l-5.8,-0.4c-1.879,-0.116 -3.75,-0.35 -5.6,-0.7l-4.5,-0.7l-4.1,-1.1l4.2,0.5l4.6,0.5l5.6,0.5l5.8,0.4c1.8,0.2 3.5,0.1 5,0.2l4.6,0.5Zm63,-11.4c0,0.1 -1.7,0.9 -4.4,2l-4.7,1.8l-5.5,1.9c-3.276,1.021 -6.617,1.823 -10,2.4l-3.1,0.5l-1.2,0l1.1,-0.4l3,-0.9l4.4,-1.2l5.4,-1.6l10.3,-3.3c2.9,-0.9 4.7,-1.4 4.7,-1.2Zm252.8,-5.9l0.3,-0.1l0.9,-0.2c1.114,-0.299 2.251,-0.5 3.4,-0.6l4.9,-0.6l2.8,-0.3l3,-0.2l2.9,-0.2l1.4,-0.1l1.3,0l4.6,-0.1l4.2,-0.1l-4.2,0.1l-4.6,0.1l-1.3,0l-1.4,0.1l-2.9,0.2l-3,0.2c-1,0.1 -1.9,0.1 -2.8,0.3c-2.272,0.22 -4.539,0.486 -6.8,0.8l-1.5,0.2l-1,0.1l-0.2,0.4Zm-61.7,16.2l4.7,-1l4.9,-1l1.4,-0.3l1.4,-0.3l2.9,-0.7c2,-0.4 3.8,-0.9 5.5,-1.4l2.4,-0.6l2.1,-0.6l3,-0.8l1.1,-0.2l-4,1.5l-2,0.7l-2.4,0.7c-1.7,0.5 -3.5,1.1 -5.5,1.5l-2.9,0.7l-1.4,0.3l-1.4,0.2l-4.9,0.8l-3.5,0.4c-0.9,0.2 -1.4,0.2 -1.4,0.1Zm-86.7,-10.6c0.1,-0.2 2.6,0.5 6.8,1.8c4.2,1.3 10.1,3.3 17.2,5.2l5.2,1.2l4.8,0.9l2.2,0.4l2.1,0.3l3.8,0.5c2.3,0.4 4.2,0.5 5.4,0.7l2,0.4l-2,0.1c-1.3,0 -3.2,0 -5.5,-0.3l-3.8,-0.4l-2.1,-0.3l-2.3,-0.4l-4.9,-0.9l-5.3,-1.2c-7.2,-1.8 -13.1,-4 -17.3,-5.5c-2.151,-0.698 -4.256,-1.533 -6.3,-2.5Z" style="fill-rule:nonzero;"/><path d="M390.25,325.085c0,0.1 -1,0.3 -2.8,0.5l-3.1,0.5l-3.9,0.4l-4.5,0.3l-5.1,0.2c-3,0.1 -6.2,0.3 -9.6,0.2c-4.878,0 -9.752,-0.267 -14.6,-0.8l-4.5,-0.4c-2.18,-0.327 -4.348,-0.727 -6.5,-1.2l-2.4,-0.7l2.5,0.2l2.8,0.3l3.7,0.4c1.4,0.1 2.8,0.4 4.4,0.4c4.864,0.314 9.731,0.581 14.6,0.8l9.5,0c1.8,0 3.5,0 5.1,-0.2l4.5,-0.3l3.9,-0.2l3.1,-0.3l2.9,-0.1Zm40.2,-11.1c0,0.1 -0.4,0.3 -1.4,0.6l-4.6,1.7l-8,2.8l-4.4,1.4l-3.9,1.1l-2.8,0.8l-1.9,0.4l-1.5,0.2l1.3,-0.5l1.9,-0.5l2.8,-0.8l3.9,-1.1l4.4,-1.4c4.215,-1.356 8.415,-2.756 12.6,-4.2l1.6,-0.5Zm49.1,-7.1l-5.9,0.2l-3.9,0.1l-1.6,0l0.4,-0.1l1.2,-0.1l3.9,-0.1l5.9,0Zm-226.1,0.9l5.6,0l3.7,0.1l4.1,0.3l3.9,0.2c3,0 1.8,-0.6 -1.2,-1.2c-1.9,-0.3 -4.1,-0.4 -6.2,-0.5l-3.2,-0.2l-3.1,-0.1l-4.6,-0.1l-2.3,-0.1l-11.6,0c-9.7,0.2 -19.7,1.6 -29.1,4.2c-8.9,2.5 -17.5,5.8 -26.2,8.3l-8.5,2.3l-6.3,1.4l-4.3,0.7l-2,0.3l-2.3,0.3l-6.4,0.7l-10.8,0.8l-4.4,0.2l-2.8,0.1l-3.6,-0.1l-6.5,-0.1l-4.4,-0.3l-4.4,-0.3l-6.4,-0.7l-3.6,-0.5l-2.8,-0.5l-2.3,-0.4l-2,-0.5l-4.3,-1l-6.2,-1.7l-20.9,-6.5l-6.3,-1.8l-4.3,-1c-1.3,-0.3 -2.7,-0.7 -4.4,-0.9c-1.7,-0.3 -3.7,-0.7 -6.4,-1l-6.5,-0.7l-4.4,-0.3l-4.4,-0.2l-9.9,0c-0.9,0 -1,0 0,0l3.5,0.2l6.5,0.3l8.8,0.8l6.4,0.9c2.7,0.4 4.7,0.9 6.4,1.2l4.3,1l4.3,1.1l6.2,1.9c10.4,3.4 10.3,3.6 20.7,7l6.3,1.8l4.4,1.1l2.1,0.5l2.3,0.4l2.8,0.5l3.6,0.6l6.5,0.9l9,0.8l6.5,0.2l4.4,0.1l4.9,-0.2l5.1,-0.2l5.1,-0.5c3.3,-0.2 6.4,-0.8 9,-1.2c2.6,-0.3 4.5,-0.8 5.6,-1c8,-1.3 15.8,-3.5 23.5,-6l14.5,-4.8l5.9,-1.9c10.933,-3.227 22.305,-4.711 33.7,-4.4c3,-0.3 6.3,-0.4 9.7,-0.3Zm71.5,14.5c0,0.2 -1.7,0 -4.4,-0.6l-2.2,-0.6l-2.2,-0.7c-1.7,-0.5 -3.5,-0.9 -5.2,-1.5c-2,-0.6 -4,-1.4 -5.9,-2.1l-5.2,-1.7l-5.2,-1.6l-11.1,-3.2c-1.4,-0.3 -3.1,-0.6 -4.3,-1.1l-0.2,-0.1l0,-0.3c1.2,-0.1 3.1,0.4 4.6,0.6l4.8,0.9l2.3,0.5l2.4,0.7l4.7,1.3l4.7,1.4l4.6,1.7l4.6,1.6l4.5,1.7l2.5,0.8l2.2,0.6c2.6,0.8 4.1,1.5 4,1.7Zm133.9,-14.4l-0.3,0.1l-0.8,0.1l-2.5,0.4l-4.6,0.7l-4.7,0.9l-2.8,0.5l-1.3,0.2l1.6,-0.4l3,-0.7l4.1,-0.8l4.2,-0.6l2.7,-0.3l0.9,-0.1l0.5,0Z" style="fill-rule:nonzero;"/><path d="M479.55,317.285l-5.9,0.1l-7.1,0.3l-6.8,0.5l-4.4,0.5l-1.5,0.1l-0.6,0l1.8,-0.3l4,-0.5l3.4,-0.3l4.1,-0.2c2.8,-0.2 5.7,-0.2 7.8,-0.2l5.2,0Zm-46.6,6.2l-3.2,1.2l-3.7,1.4l-3.8,1.3l-3.8,1.2l-3.8,1.3c-2.1,0.6 -3.2,0.8 -3.3,0.6c-0.1,-0.2 0.9,-0.7 2.9,-1.5c1.1,-0.4 2.5,-0.6 3.9,-1.1c1.2,-0.4 2.3,-1.1 3.7,-1.5l3.9,-1.3c1.4,-0.5 2.8,-0.8 3.9,-1.1c1.078,-0.289 2.185,-0.457 3.3,-0.5Zm-27.4,8.8c0.1,0.2 -2.9,1.3 -6.2,2.1c-3.3,0.6 -6.7,0.9 -6.7,0.6c2.076,-0.869 4.264,-1.441 6.5,-1.7c1.2,-0.3 2.5,-0.7 3.4,-0.8c1.6,-0.3 3,-0.3 3,-0.2Zm40.1,-12.2c0,0.1 -1.7,0.7 -3.5,1.1c-1.8,0.4 -3.4,0.6 -3.4,0.5c0,-0.2 1.4,-0.6 3.3,-1l3.6,-0.6Zm-273.4,13.9c-3.4,0.9 -5.1,1 -6.9,1.3l-2.8,0.4l-4.1,0.5l-4.1,0.6l-2.8,0.3l-6.9,0.6l-7,0.2l-2.8,0.1l-4.1,-0.1c-7,-0.1 -7,-0.4 -13.9,-0.8c-6.9,-0.8 -7,-0.6 -13.8,-1.9l-4.1,-0.8l-2.8,-0.6c-1.7,-0.3 -3.4,-0.8 -6.8,-1.8c-6.7,-2.1 -6.6,-2.4 -13.2,-4.6c-2.173,-0.811 -4.375,-1.545 -6.6,-2.2l-2.7,-0.8l-3.9,-1.1l-2.2,-0.6c-0.591,-0.17 -1.192,-0.304 -1.8,-0.4l-2.7,-0.7c-1.7,-0.5 -3.4,-0.8 -6.8,-1.4c-1.7,-0.4 -3,-0.5 -4.1,-0.7l-2.8,-0.4l-2.8,-0.4l-4.1,-0.4c-4.5,-0.5 -9,-0.6 -13.6,-0.8l-0.6,0c-0.7,0 -1.2,-0.1 -0.8,0l10,0l1.7,0.1l3.3,0.2l4.1,0.2l5.6,0.6l4.1,0.6c3.4,0.6 5.2,0.8 6.9,1.2l2.8,0.6l1.8,0.4l2.2,0.6l4,1.1l2.7,0.8l6.6,2.1c6.6,2.2 6.5,2.4 13.1,4.4l6.6,1.9l2.7,0.7l4,0.9c6.8,1.3 6.9,0.9 13.7,1.7c6.9,0.5 6.9,0.5 13.8,0.6l6.9,0.2l6.9,0c3.5,-0.1 5.2,-0.3 6.9,-0.4l2.8,-0.2l4.1,-0.5l3.8,-0.5l3.8,-0.7l3.7,-0.7c1.6,-0.4 3.2,-0.8 4.6,-0.7c1.9,-0.1 -0.4,1 -1.6,1.3Zm151.9,-0.9l-6.3,-1.8l-6.2,-2.1c-6.1,-2.1 -6.1,-2.2 -12.3,-4.2l-6.2,-1.8l-2.5,-0.7l-3.7,-0.9c-3.1,-0.8 -4.8,-0.9 -6.4,-1.1l-6.4,-0.8c-6.4,-0.8 -6.4,-1 -12.8,-1.5l-3.8,-0.1l-2.6,0.1l-2.6,0.1l-3.8,0c-3.2,0.1 -4.8,0 -6.5,-0.1l-2.6,-0.1l-3.8,0.2c-3.2,0.2 -4.8,0.4 -6.4,0.8l-6.4,1.1c-2.121,0.409 -4.255,0.742 -6.4,1c-1.6,0.2 -3.2,0.6 -6.3,1.3l-6.2,1.7l-6.2,1.9c-6.1,2.1 -6.1,2.2 -12.3,4.2c-2.6,0.8 -6.2,0.3 -0.5,-1.7c6.1,-2.2 6,-2.4 12.2,-4.5c4.103,-1.411 8.275,-2.612 12.5,-3.6l6.4,-1.4l6.4,-1.1l6.5,-0.8l6.5,-0.6l3.9,-0.3l2.6,-0.1l6.5,-0.1l3.9,0l5.2,0.2c1,0 2.2,0 3.9,0.2c6.5,0.5 6.6,-0.1 13,0.7c3.3,0.4 4.8,0.9 6.4,1.3l6.4,1.6l3.8,0.9l2.6,0.7c6.243,1.83 12.444,3.797 18.6,5.9l6.2,1.9l6.2,1.8c6.2,1.7 6.7,2.3 5.4,2.5c-1.4,0 -4.7,-0.4 -5.9,-0.7Zm62.1,2.6l-1.1,0.4l-1.4,0.3l-1.9,0.3c-1.5,0.2 -3.1,0.1 -4.7,0.3c-1.8,0.3 -3.7,0.4 -5.6,0.5l-6.5,0.1c-3.8,-0.1 -7.5,0 -11.3,-0.2c-4,-0.3 -8,-0.7 -11.9,-1.5c-1.4,-0.3 -3.2,-0.4 -4.4,-0.9c-0.11,0 -0.2,-0.091 -0.2,-0.2l0.1,-0.3c1.3,-0.2 3.2,0.2 4.7,0.3c3.296,0.262 6.597,0.462 9.9,0.6l2.4,0.2l2.5,0.1l5,0l5,0.2l9.9,0l5,-0.3l3.3,0c0.8,-0.1 1.2,0 1.2,0.1Z" style="fill-rule:nonzero;"/><path d="M145.85,346.685c9.2,-0.7 9.4,-0.5 18.5,-1.9l5.4,-1l3.7,-0.9c2.3,-0.5 4.5,-1.1 8.9,-2.5c8.8,-2.8 8.7,-3 17.6,-5.9c8.9,-2.8 8.8,-3 18,-5l5.5,-0.9l3.8,-0.4l3.8,-0.4l5.5,-0.4l3.1,-0.2l2.4,-0.1l3.8,-0.2l3.8,-0.2l5.5,0.1l5.5,0.2l3.8,0.4l9.3,1l3.1,0.4l2.4,0.4l3.8,0.6c1.2,0.1 2.3,0.4 3.7,0.7c1.4,0.3 3.2,0.6 5.4,1.3l5.3,1.6l3.6,1.2l8.8,3.1c8.8,2.9 8.7,3.1 17.7,5.4c4.5,1.1 6.8,1.4 9.1,1.8l1.7,0.3l2,0.2l5.4,0.7c3.8,0.3 8.6,1.6 -0.1,1.1l-5.5,-0.6l-2,-0.2l-1.8,-0.3c-2.3,-0.4 -4.6,-0.6 -9.2,-1.8c-9,-2.3 -9,-2.5 -17.8,-5.4l-8.8,-3l-3.6,-1.2l-5.3,-1.5l-5.3,-1.3l-3.7,-0.8l-3.7,-0.7l-2.4,-0.4l-3,-0.4c-4.6,-0.6 -6.9,-0.7 -9.2,-0.9l-3.7,-0.3l-5.5,-0.1l-5.5,-0.1l-3.8,0.1l-3.8,0.1l-2.4,0.1l-3.1,0.2l-5.5,0.4l-3.7,0.6l-3.7,0.6l-5.4,1c-9,1.9 -9.1,1.6 -17.9,4.3c-8.8,2.9 -8.7,3.2 -17.6,6c-4.5,1.3 -6.7,2 -9,2.5l-3.7,0.9l-5.4,1c-9.2,1.4 -9.2,1.5 -18.5,2c-18.8,0.1 -3.6,-1.1 -0.3,-1.3Zm-125.3,-19l9.5,0.1c3.3,0.1 6.6,0.4 9.8,0.6c3.9,0.5 7.8,0.8 11.7,1.5l3.4,0.6l6.6,1.6l3.3,0.9c7.6,2.2 15.1,4.9 22.6,7.3c8.1,2.5 16.2,4.4 24.4,5.6c1.5,0.2 3.2,0.5 4.9,0.6c1.713,0.178 3.415,0.445 5.1,0.8l-4.8,-0.2c-1.8,-0.1 -3.6,-0.4 -5.1,-0.6l-4.8,-0.6c-5.368,-0.833 -10.679,-2.002 -15.9,-3.5l-2.5,-0.7l-2.5,-0.8l-5.1,-1.7l-10,-3.4l-5.1,-1.7l-5,-1.5c-3.6,-0.9 -7,-1.8 -10.3,-2.3c-3.7,-0.8 -7.2,-1.1 -10.4,-1.6c-2,-0.3 -3.9,-0.3 -5.7,-0.5l-4.9,-0.3l-9.2,-0.2Zm356.5,18.9l0.3,0c3.1,-0.2 6.3,-0.3 9.4,-0.7l4.7,-0.5l4.6,-0.8c9.4,-1.9 9.4,-2 18.5,-4.8l9.1,-3l3.7,-1.2l5.4,-1.7c3.2,-0.9 6.4,-1.9 9.6,-2.6c1.5,-0.4 3,-0.8 4.6,-1c1.951,-0.42 3.92,-0.754 5.9,-1l1.8,-0.2l0.9,-0.1c1.4,-0.1 -2.2,0.4 -4,0.8l-6.5,1.2l-6.2,1.5l-6.1,1.8c-9.1,2.9 -9,3.3 -18.1,6.3c-9.2,2.9 -9.2,2.8 -18.6,4.7c-4.7,0.9 -7.1,1.1 -9.5,1.4c-2.4,0.4 -4.8,0.5 -9.6,0.8c-2.4,0.2 -3.9,-0.2 -4.2,-0.4c0,0 -0.1,-0.1 0,-0.1l3.7,-0.5l0.6,0.1Zm87.6,-18.3l0.2,0l0.5,-0.1l1.7,-0.1l2.5,-0.2l2.9,-0.1l7.2,-0.1l-7.2,0.2l-2.9,0.1l-2.5,0.2l-1.7,0.1l-0.7,0Z" style="fill-rule:nonzero;"/><path d="M99.25,354.485l-1.8,-0.3l-2.2,-0.5l-3,-0.8l-3.8,-1l-4.3,-1.3l-8.1,-2.8l-8,-2.7l-4.3,-1.3c-1.4,-0.4 -2.6,-0.8 -3.8,-1l-5,-1.3l-1.8,-0.4l1.7,0.2l5,1c1.2,0.2 2.5,0.6 3.9,1.1l4.4,1.3l8.1,2.4l8.2,2.7c2.682,0.922 5.382,1.789 8.1,2.6l5,1.4l1.7,0.7Zm-63.7,-15.8l-0.7,0l-1.7,-0.1c-0.836,-0.025 -1.671,-0.092 -2.5,-0.2l-2.9,-0.1l-7.2,-0.2l7.2,0.1l2.9,0l2.5,0.2l1.7,0.1l0.5,0l0.2,0.2Zm276.2,11.7l-0.3,-0.1c-6,-2 -11.8,-4.4 -17.9,-6.1c-9.3,-2.5 -9.3,-2.3 -18.8,-3.7l-5.6,-0.7l-3.9,-0.4c-2.4,-0.2 -4.8,-0.6 -9.6,-0.6l-5,-0.1l-4.9,0.2l-4.7,0.2l-4.5,0.3l-3.5,0l-0.9,-0.1c-1.4,-0.3 2.2,-1 4,-1.2l3.3,-0.3l3.4,0l6.4,-0.1l6.4,0.1c4.8,0 7.2,0.2 9.7,0.3l3.9,0.2l5.7,0.7c9.6,1.5 9.5,1.8 18.9,4.3c9.3,2.8 9.2,2.9 18.3,6c2.2,0.8 3.5,1.7 3.7,2l0,0.1c-0.3,0.1 -2.7,-0.6 -3.7,-0.8l-0.4,-0.2Zm-132.6,2.1c0,0.1 -0.8,0.5 -2.6,1.1l-3.5,1c-1.4,0.3 -3.1,0.9 -5.2,1.2l-3.4,0.6c-1.2,0.2 -2.4,0.5 -3.7,0.6l-4,0.5l-2.1,0.3l-2.1,0.2c-2.9,0.2 -5.7,0.4 -8.3,0.4l-10.3,0l-2.5,-0.1l-3.6,-0.2c-1.9,-0.1 -2.7,-0.2 -2.7,-0.3c0,-0.1 0.8,-0.2 2.6,-0.2l8.8,-0.1l7.5,-0.2l4.1,-0.2l4.3,-0.3c5.031,-0.455 10.037,-1.156 15,-2.1l5.2,-1l3.6,-0.8c2,-0.4 2.9,-0.6 2.9,-0.4Zm201.4,5l-1.8,0.3l-2.2,0.2l-3.1,0.2l-8.4,0.4l-8.6,-0.2l-4.3,-0.2l-4.1,-0.3l-2.3,-0.2l-2.2,-0.2l-3.9,-0.5l-1.6,-0.2l-1.4,-0.3l-2.2,-0.5c-1.2,-0.3 -1.7,-0.5 -1.7,-0.6l1.8,-0.1l2.1,0.2l1.4,0.2l1.6,0.1l4,0.6l2.2,0.4l2.3,0.2l4.1,0.1l4.3,0.1l8.7,0.2l8.5,0.1l5.2,0c1,-0.1 1.6,-0.1 1.6,0Zm30.6,-5.8l-2.2,0.9c-3.31,1.187 -6.725,2.058 -10.2,2.6l-2.1,0.1l2,-0.6l5,-1.2l5.2,-1.3c0.733,-0.296 1.511,-0.465 2.3,-0.5Zm-197.7,-9.9c-2.338,1.001 -4.744,1.836 -7.2,2.5l-4.3,1.4l-7.7,2.3c-2,0.5 -3.2,0.8 -3.3,0.6c0,-0.1 1.1,-0.7 3,-1.4c1.9,-0.8 4.6,-1.7 7.6,-2.7l4.4,-1.3l3.8,-1l3.7,-0.4Zm242.1,-2.2l-1.8,0.3l-4,0.7c-1.78,0.387 -3.584,0.654 -5.4,0.8l1.5,-0.5l3.8,-0.7l4,-0.6l1.9,0Zm24,-1.4l-5.9,0.2l-3.8,0.1l-1.6,0l0.4,-0.1l1.2,-0.1l3.8,-0.1l5.9,0Z" style="fill-rule:nonzero;"/><path d="M206.55,354.985l-0.1,0c-2.6,0.7 -5.3,1.3 -7.9,2.1c-4,1.3 -3.9,1.5 -7.9,2.9c-4,1.4 -4.1,1.1 -8,2.4l-4.1,1.4l-1.9,0.7l-1.9,0.5l-0.7,0.1l-1.2,0c-0.7,-0.2 0.8,-0.9 1.5,-1.2l1.4,-0.4l1.4,-0.3l5.3,-1.5c4,-1.3 3.9,-1.5 7.8,-2.9c3.9,-1.4 4,-1.1 8,-2.4c4,-1.3 4,-1.4 8,-2.5c1,-0.3 1.8,0 2,0.3l0,0.1c-0.1,0.2 -1.1,0.6 -1.4,0.8c-0.1,-0.2 -0.2,-0.2 -0.3,-0.1Zm-151.2,-3l-0.8,-0.1l-2.3,-0.4l-3.6,-0.6l-3.7,-0.5l-3.6,-0.5l-2,-0.2l-1.7,-0.1l-2.2,-0.2l-0.8,-0.1l0.8,0l2.2,0.1l1.7,0.1l2,0.3l3.6,0.3l3.7,0.5l3.6,0.7l2.2,0.5c0.7,0 0.9,0.1 0.9,0.2Zm-28.3,-3.2l-1,0l-2.3,-0.1l-3.1,-0.1l5.4,0l1,0.2Zm56.5,11.7l-5.2,-1.5l-6.2,-2l-6,-2l-3.8,-1.2l-1.3,-0.4l-0.5,-0.2l5.3,1.2c1.7,0.4 4.1,1.2 6.6,2l6.8,2.3c2.7,1 4.4,1.7 4.3,1.8Zm65.7,7.5l-1.2,0.4c-0.8,0.1 -2.1,0.4 -3.9,0.4l-6.7,0.2c-2.5,0.1 -4.8,-0.2 -6.8,-0.3c-3.6,-0.2 -5.1,-0.3 -5,-0.5c0,-0.2 1.3,-0.4 5,-0.4c2,0 4.4,0.2 6.9,0.1l6.6,-0.1l3.9,-0.1l1.2,0.3Zm86.7,-18.7c0,0.3 -1.1,0.3 -3.1,0.6l-1.7,0.3c-0.6,0.1 -1.2,0.3 -1.9,0.3c-1.227,0.188 -2.461,0.321 -3.7,0.4l-3.6,0.4l-3.6,0.7l-2.3,0.2c-0.5,0 -0.8,0 -0.8,-0.2l0.6,-0.6l2.1,-0.7c1,-0.3 2.4,-0.2 3.7,-0.4c1.1,-0.3 2.3,-0.8 3.6,-0.9l3.8,-0.5c1.4,-0.2 2.7,-0.1 3.7,-0.1c2.2,0.1 3.2,0.3 3.2,0.5Zm13.5,-0.7c0,0.3 -1.6,0.8 -3.4,0.8c-1.7,0 -3.1,-0.4 -3.1,-0.7c0,-0.3 1.4,-0.6 3.1,-0.6c1.8,0 3.4,0.2 3.4,0.5Zm-84.8,17.6c0,0.3 -2.4,1.1 -5.1,1.4c-2.7,0.3 -4.9,0.2 -4.9,0c0,-0.3 2.1,-0.7 4.8,-1.1c2.6,-0.3 5.1,-0.6 5.2,-0.3Zm-68.3,-2c0,0.2 -1.3,0.2 -2.6,-0.2c-1.3,-0.4 -2.2,-0.9 -2.2,-1.1c0,-0.2 1.1,0 2.3,0.3c1.4,0.5 2.6,0.8 2.5,1Zm23.5,3.6c0,0.1 -1.1,0.2 -2.9,0.1c-1.7,0 -4,-0.3 -6.4,-0.6c-2.4,-0.2 -4.5,-0.8 -6,-1.1c-0.834,-0.153 -1.642,-0.422 -2.4,-0.8l2.5,0.2c1.5,0.2 3.6,0.6 6,0.8l6.3,0.8l2.9,0.6Zm201.1,-4.2c-2.6,-0.7 -2.7,-0.8 -5.3,-1.7l-5.2,-1.7l-5.2,-1.7c-2.6,-0.9 -2.7,-0.7 -5.2,-1.5c-2.6,-0.8 -2.5,-1.1 -5.1,-1.8c-2.6,-0.7 -2.7,-0.5 -5.3,-1.2c-2.6,-0.6 -2.6,-0.9 -5.2,-1.5c-2.7,-0.5 -2.7,-0.1 -5.4,-0.6c-2.7,-0.5 -2.6,-0.7 -5.3,-1c-2.7,-0.3 -2.7,-0.5 -5.4,-0.7l-5.4,-0.3c-1.1,-0.1 -2.5,-1.3 0.1,-1.3l5.5,0.2l5.4,0.8c2.7,0.3 2.7,0.3 5.4,0.9l5.4,1l5.3,1.3l5.3,1.5c2.6,0.8 2.7,0.5 5.3,1.3c2.6,0.8 2.5,1.2 5.1,2.1l5.2,1.6l5.2,1.7c2.6,0.8 2.7,0.6 5.2,1.5c5.2,1.5 0.6,1.4 -0.4,1.1Zm49.4,4.7c0,0.2 -1.1,0.2 -3.1,0.4c-1.1,0.1 -2.3,0.3 -3.7,0.2l-3.7,-0.1l-3.7,-0.1l-3.7,-0.1c-2,-0.2 -3,-0.5 -3,-0.7c0,-0.2 1,-0.4 3,-0.4c1,0 2.4,0.4 3.7,0.4c1.1,0 2.4,-0.3 3.6,-0.2l3.8,0.1l3.7,0.2c2.1,-0.1 3.1,0.1 3.1,0.3Zm-28.4,-1.4c0,0.3 -1.7,0.4 -3.4,0.2c-1.7,-0.2 -3,-0.9 -3,-1.2c0.1,-0.3 1.4,-0.2 3.2,0.1c1.6,0.2 3.2,0.6 3.2,0.9Zm57.7,-1.8c-2.698,0.778 -5.435,1.412 -8.2,1.9l-3.5,0.5l-6.3,0.6c-2.8,0.1 -5.9,0.2 -6,0.1c2.789,-0.471 5.59,-0.871 8.4,-1.2l3.7,-0.4l3.8,-0.4l3.3,-0.5l3.4,-0.4l1.4,-0.2Zm64.4,-15.9l-0.3,0.1l-0.9,0.1c-0.8,0.1 -2.1,0.1 -3.9,0.4l-6.6,0.9l-6.7,1.1l-3.8,0.8l-1.2,0.2l1.1,-0.4l3.7,-0.9l6.8,-1.1l6.6,-0.8c1.294,-0.164 2.596,-0.264 3.9,-0.3l1,0l0.3,-0.1Zm15.5,-0.6l-5.3,0.1l-3.5,0.1l-1.4,0l1.4,0l3.5,-0.1l5.3,-0.1Zm-67.1,13c0,0.2 -1,0.8 -2.3,1.1c-1.3,0.4 -2.3,0.4 -2.4,0.2c0,-0.2 0.9,-0.6 2.2,-0.9c1.3,-0.3 2.5,-0.6 2.5,-0.4Zm22.6,-7.4l-2.7,1l-6.1,2.1l-5.8,1.9c-1.5,0.4 -2.4,0.7 -2.5,0.6l2.3,-1l5.7,-2l6.1,-1.9l2,-0.5l1,-0.2Z" style="fill-rule:nonzero;"/><path d="M479.25,359.085l-5.7,0l-4.5,0.1l-5.5,0.4l-5.5,0.5l-5.5,0.6l-5.5,0.9c-1.4,0.2 -2,0.4 -2.7,0.6l-2.7,0.7c-2.7,0.6 -2.7,0.5 -5.4,1.3l-5.3,1.7l-5.3,1.8l-5.3,1.7l-5.2,1.8l-2.5,0.7c-2,0.7 -3.1,0.9 -4.1,1.2c-1,0.3 -2,0.7 -4.1,1.2l-4.2,1c-1,0.3 -2.1,0.5 -4.2,0.8l-4.2,0.6l-4.2,0.3c-4.2,0.5 -4.2,0.7 -8.5,1l-4.3,0.2l-4.3,0l-4.3,0.1l-4.3,0l-8.5,-0.5l-8.5,-0.9l-4.2,-0.4l-1.7,-0.1l-1.1,-0.1l-1.4,-0.3l-4.2,-0.8l-1.7,-0.4l-2.4,-0.6l-4.1,-1l-4.1,-1.2l-4,-1.4l-4,-1.4c-3.9,-1.4 -3.8,-1.6 -7.8,-2.9c-3.9,-1.3 -4.1,-0.9 -8.1,-2.2l-4,-1.3c-1,-0.4 -2,-0.7 -4,-1.1l-4.1,-0.9l-4.1,-0.7l-4.1,-0.7l-4.2,-0.5l-2.5,-0.3l-1.7,-0.2l-4.2,-0.4c-4.2,-0.3 -4.2,-0.1 -8.4,-0.2c-4.2,-0.1 -4.2,-0.3 -8.4,-0.1l-4.2,0.1l-4.2,0.2l-8.4,0.5l-4.2,0.5l-1.7,0.2c-0.7,0.1 -1.4,0.1 -2.5,0.4c-2.1,0.4 -3.1,0.7 -4.1,1l-1.6,0.5l-2.4,0.6l-4.1,0.9l-4.1,1l-4,1.2l-4,1.3c-3.9,1.4 -3.8,1.6 -7.7,3c-3.9,1.4 -4,0.9 -7.9,2.2l-3.9,1.2l-3.9,1.1c-3.9,0.9 -3.9,1.3 -7.9,2.1l-4,0.7l-4,0.5l-4,0.5l-4.1,0.3c-4.1,0.3 -4.1,0.5 -8.1,0.7l-4.1,0.1l-4.1,0l-8.2,-0.2l-8.2,-0.4c-4.1,-0.4 -4.1,-0.6 -8.1,-1l-8.1,-1.2l-4,-0.9l-4,-1c-0.6,-0.2 -3.9,-1 -6.5,-1.9c-2.6,-0.9 -2.7,-0.7 -5.3,-1.6l-5.2,-1.8l-5.2,-1.8l-5.4,-1.5c-2.7,-0.7 -2.6,-1 -5.3,-1.6l-5.4,-1.2l-5.5,-0.9l-3.4,-0.5l-3.9,-0.4l-3.9,-0.4c-2.597,-0.217 -5.197,-0.384 -7.8,-0.5l-5,-0.1l-3.4,-0.1l-0.5,0l4.1,0.1l3.7,0.1l3.6,0.2l1.7,0.1l0.7,0.1l2.9,0.2l1.5,0.1l1.4,0.2l2.8,0.3l2.7,0.4l2.7,0.5l5.5,1l5.4,1.2l5.3,1.5l5.3,1.7l5.3,1.8l5.3,1.7l5.3,1.8l6.5,2l4,1.1l4,1c4,0.8 4,0.9 8.1,1.6l8.2,0.8l8.2,0.6c4.1,0.1 4.1,0.4 8.2,0.6l4.1,0l4.1,-0.1c4.1,0 4.1,-0.1 8.2,-0.3l4.1,-0.2l4.1,-0.4l4.1,-0.5l4.1,-0.7c4.1,-0.7 4,-1.1 8.1,-2l4,-1l4,-1.1c3.9,-1.2 4,-1.1 7.9,-2.4l7.8,-2.5l4,-1.1l4,-1.1c2,-0.5 2.9,-0.9 3.9,-1.2l4,-1l2.4,-0.6l1.6,-0.3l4,-0.8l2.4,-0.3l1.7,-0.2l4.1,-0.5c4.1,-0.4 4.1,-0.1 8.2,-0.4l4.1,-0.3l4.1,-0.3c4.1,-0.1 4.1,-0.2 8.2,-0.1c4.1,0.1 4.1,0.2 8.2,0.5l4.1,0.4l1.7,0.2l2.4,0.3l4.1,0.5l1.7,0.2l2.4,0.4c4,0.7 4.1,0.5 8.1,1.4c4,0.9 3.9,1.3 7.8,2.4l7.9,2.3c3.9,1.3 4,1.1 7.9,2.4l4.1,1.5c1,0.4 2,0.8 4.1,1.4c4.2,1.1 4.2,1.2 8.4,2.1c4.2,1 4.3,0.5 8.6,1.3l8.6,1.4c4.3,0.4 4.3,-0.1 8.6,0.2l2.6,0.1l1.7,0l4.3,0.1c4.3,0.1 4.3,0.2 8.6,0.1l4.3,-0.2l4.3,-0.4c4.3,-0.4 4.3,-0.2 8.6,-0.8l4.3,-0.5l4.2,-0.8c1.418,-0.254 2.82,-0.588 4.2,-1l4.1,-1.1c2.1,-0.5 3.1,-0.9 4.1,-1.2l4.1,-1.2l2.5,-0.9l5.3,-1.7l5.2,-1.8c2.6,-0.9 2.7,-0.8 5.3,-1.6c2.6,-0.9 2.6,-0.9 5.3,-1.6l5.4,-1.4l2.7,-0.7c0.7,-0.2 1.3,-0.4 2.7,-0.6l5.5,-0.9l5.5,-0.7c2.7,-0.4 2.8,-0.4 5.5,-0.6l0.8,-0.1c2.7,-0.2 5.4,-0.5 8.1,-0.5l0.3,0l1.9,-0.1l2.5,-0.1l1.9,-0.1c0.3,-0.3 0.7,-0.3 0.1,-0.3Z" style="fill-rule:nonzero;"/><path d="M271.65,371.285l-5.8,-0.4l-5.8,-0.5l-5.9,0c-1.5,0 -2.2,-0.1 -2.9,-0.2c-0.7,-0.1 -1.5,-0.2 -2.9,-0.1l-5.9,0.2l-5.8,0.4c-2.9,0.2 -2.9,0.5 -5.8,0.8l-5.8,0.8c-2.2,0.2 -4.3,0.7 -6.5,1c-2.2,0.3 -4.3,0.8 -6.4,1.3c-1.9,0.4 -3.8,1.2 -5.7,1.6c-1.5,0.4 -2.9,0.5 -4.4,1l-5.7,1.9c-2.8,1 -2.7,1.3 -5.6,2.2c-7.6,2.6 -15.4,4.9 -23.3,6.4l-6,0.8l-5,0.7c-0.8,0.1 -1.6,0.3 -2.5,0.3l-2.5,0.2l-3.8,0.1l-3.8,0.1l-7,0.1l-1.7,0l-1.7,-0.1l-3.5,-0.1c-4.6,0 -9.2,-0.5 -13.8,-0.9l-5.5,-0.8c-2.8,-0.4 -2.8,-0.3 -5.5,-0.8l-2.7,-0.6l-2.7,-0.7l-5.4,-1.2l-5.3,-1.5c-0.7,-0.2 -0.8,-0.6 -0.8,-0.6c0,-0.1 0.3,-0.1 1,0.1l5.3,1.5l5.4,1.1l2.7,0.6l2.7,0.5c2.7,0.5 2.7,0.5 5.5,0.8l5.5,0.6l5.5,0.4l5.5,0c2.8,0 2.8,0.3 5.5,0.3l5.5,-0.1l5.5,-0.2c1.4,0 2.1,-0.1 2.7,-0.2l2.7,-0.2c4.5,-0.3 9.1,-0.7 13.5,-1.3l5.1,-1l1.3,-0.3l1.3,-0.3l2.5,-0.6c2.9,-0.7 2.9,-0.9 5.7,-1.7l5.8,-1.6l5.7,-1.9l5.7,-2l5.7,-1.9l5.8,-1.8c2.9,-0.9 3,-0.7 5.9,-1.4c2.9,-0.7 2.9,-0.4 5.8,-0.9c2.9,-0.5 2.9,-0.8 5.8,-1.1l5.9,-0.6l7.6,-0.4c1.297,-0.117 2.598,-0.183 3.9,-0.2l4,-0.1l4,-0.1l4,0.1l5.8,0.4c2.9,0.2 3,0 5.9,0.2l5.8,0.6c0.7,0.1 0.9,0.5 0.9,0.8c0,0 -0.3,0.6 -1,0.5Zm102.3,17.9c0,0.5 -3.4,0.7 -7.2,1c-1.7,0.1 -3.7,-0.2 -6.1,-0.2l-6.1,0l-6.1,-0.4l-3,-0.2l-3.1,-0.4l-3,-0.3l-3.1,-0.3c-2,-0.3 -3.9,-1.1 -5.9,-1.4l-6,-1.2c-2,-0.5 -3.9,-1.2 -5.8,-1.8c-2.9,-0.9 -5.8,-1.5 -8.7,-2.6c-4.8,-1.7 -9.5,-3.4 -14.3,-4.9l-5.8,-1.8l-5.9,-1.4c-3.7,-0.8 -6.2,-0.6 -5.9,-1.8c0.4,-1.6 2.6,-0.1 6.4,0.4c1.7,0.3 3.4,1.1 5.7,1.5l5.9,1.5l11.6,3.8c2.7,0.9 4.9,1.1 7.7,2.1l5.4,1.8c1.8,0.6 3.6,1.2 5.5,1.6l5.1,1.2l5.2,0.9l9,1.4c3,0.4 6.1,0.7 9.1,0.9l6,0.1l6.1,0c3.8,0 7.2,0 7.3,0.5Zm37.9,-6.3c0,0.1 -0.9,0.6 -2.7,1.2l-2.9,0.8l-3.5,1c-1.4,0.3 -2.7,0.7 -4.1,0.9c-2.4,0.4 -4.8,1 -7.3,1.3l-7.8,0.7l-3,0l-0.2,-0.1c0,0 -0.1,-0.2 0,-0.2c0.8,-0.3 2.1,-0.3 3,-0.4l3.2,-0.5l3.2,-0.4c1,-0.1 2.1,-0.2 3.2,-0.5l3.2,-0.6l3.2,-0.5l3.2,-0.7l3.2,-0.7l3.2,-0.9c1.8,-0.3 2.8,-0.5 2.9,-0.4Zm23.8,-7.9c-0.1,-0.2 1.4,-0.6 4,-1.3l4.4,-1c1.3,-0.4 2.8,-0.6 4.4,-0.9l4.5,-0.7l4.5,-0.5c1.5,-0.2 3,-0.4 4.5,-0.4l4.5,-0.3l4.5,-0.2l4.5,-0.1l4.2,-0.1l-4.3,0.1l-4.5,0.1l-4.5,0.3l-6.8,0.5l-5.5,0.7l-1.4,0.2l-1.4,0.3l-2.8,0.5c-1.6,0.3 -3.1,0.5 -4.4,0.9l-4.4,0.9c-2.5,0.7 -3.9,1.4 -4,1Zm-4.2,1.3c0,0.1 -1.1,0.7 -2.6,1.3l-3.5,1.2l-3.6,1.3c-1.5,0.4 -3.3,0.7 -3.3,0.6c-0.1,-0.2 2,-0.9 3.5,-1.5l3.1,-1.2l3.3,-1c1.5,-0.4 3,-0.9 3.1,-0.7Zm-379.1,-4.1l-0.8,0c-0.696,-0.129 -1.396,-0.229 -2.1,-0.3l-3,-0.5l-3.6,-0.4c-1.394,-0.216 -2.795,-0.383 -4.2,-0.5l-7.3,-0.6l-7.7,-0.3l-2.9,-0.1l-0.1,0c0,0 -0.1,0 0,0l3.1,0.1l6.5,0l9.6,0.6l6.4,0.8l3.2,0.5l2.1,0.5l0.8,0.2Zm31.1,9c-0.1,0.2 -1.6,0 -3.2,-0.5c-1.5,-0.5 -2.7,-1.2 -2.6,-1.4c0.1,-0.2 1.4,0.1 2.9,0.6c1.6,0.4 3,1 2.9,1.3Zm-11.7,-4c0,0.1 -1.3,-0.1 -2.9,-0.5l-3.6,-1.1l-3.7,-1c-1.5,-0.5 -3.2,-1 -3.1,-1.2c0,-0.1 2.2,0.3 3.7,0.7l3.3,0.8c1.3,0.3 2.3,0.7 3.3,1.1c1.5,0.5 3,1 3,1.2Z" style="fill-rule:nonzero;"/><path d="M479.25,379.885l-5.7,0l-4.5,0.1l-5.5,0.4l-5.5,0.5l-5.5,0.6l-5.5,0.9c-1.4,0.2 -2,0.4 -2.7,0.6l-2.7,0.7c-2.7,0.6 -2.7,0.5 -5.4,1.3l-5.3,1.7l-5.3,1.8l-5.3,1.7l-5.2,1.8l-2.5,0.7c-2,0.7 -3.1,0.9 -4.1,1.2c-1,0.3 -2,0.7 -4.1,1.2l-4.2,1c-1,0.3 -2.1,0.5 -4.2,0.8l-4.2,0.6l-4.2,0.3c-4.2,0.5 -4.2,0.7 -8.5,1l-4.3,0.2l-4.3,0l-4.3,0.1l-4.3,0l-8.5,-0.5l-8.5,-0.9l-4.2,-0.4l-1.7,-0.1l-1.1,-0.1l-1.4,-0.3l-4.2,-0.8l-1.7,-0.4l-2.4,-0.6l-4.1,-1l-4.1,-1.2l-4,-1.4l-4,-1.4c-3.9,-1.4 -3.8,-1.6 -7.8,-2.9c-3.9,-1.3 -4.1,-0.9 -8.1,-2.2l-4,-1.3c-1,-0.4 -2,-0.7 -4,-1.1l-4.1,-0.9l-4.1,-0.7l-4.1,-0.7l-4.2,-0.5l-2.5,-0.3l-1.7,-0.2l-4.2,-0.4c-4.2,-0.3 -4.2,-0.1 -8.4,-0.2c-4.2,-0.1 -4.2,-0.3 -8.4,-0.1l-4.2,0.1l-4.2,0.2l-8.4,0.5l-4.2,0.5l-1.7,0.2c-0.7,0.1 -1.4,0.1 -2.5,0.4c-2.1,0.4 -3.1,0.7 -4.1,1l-1.6,0.5l-2.4,0.6l-4.1,0.9l-4.1,1l-4,1.2l-4,1.3c-3.9,1.4 -3.8,1.6 -7.7,3c-3.9,1.4 -4,0.9 -7.9,2.2l-3.9,1.2l-3.9,1.1c-3.9,0.9 -3.9,1.3 -7.9,2.1l-4,0.7l-4,0.5l-4,0.5l-4.1,0.3c-4.1,0.3 -4.1,0.5 -8.1,0.7l-4.1,0.1l-4.1,0l-8.2,-0.2l-8.2,-0.4c-4.1,-0.4 -4.1,-0.6 -8.1,-1l-8.1,-1.2l-4,-0.9l-4,-1c-0.6,-0.2 -3.9,-1 -6.5,-1.9c-2.6,-0.9 -2.7,-0.7 -5.3,-1.6l-5.2,-1.8l-5.2,-1.8l-5.4,-1.5c-2.7,-0.7 -2.6,-1 -5.3,-1.6l-5.4,-1.2l-5.5,-0.9l-3.4,-0.5l-3.9,-0.4l-3.9,-0.4c-2.597,-0.217 -5.197,-0.384 -7.8,-0.5l-5,-0.1l-3.4,-0.1l-0.5,0l4.1,0.1l3.7,0.1l3.6,0.2l1.7,0.1l0.7,0.1l2.9,0.2l1.5,0.1l1.4,0.2l2.8,0.3l2.7,0.4l2.7,0.5l5.5,1l5.4,1.2l5.3,1.5l5.3,1.7l5.3,1.8l5.3,1.7l5.3,1.8l6.5,2l4,1.1l4,1c4,0.8 4,0.9 8.1,1.6l8.2,0.8l8.2,0.6c4.1,0.1 4.1,0.4 8.2,0.6l4.1,0l4.1,-0.1c4.1,0 4.1,-0.1 8.2,-0.3l4.1,-0.2l4.1,-0.4l4.1,-0.5l4.1,-0.7c4.1,-0.7 4,-1.1 8.1,-2l4,-1l4,-1.1c3.9,-1.2 4,-1.1 7.9,-2.4l7.8,-2.5l4,-1.1l4,-1.1c2,-0.5 2.9,-0.9 3.9,-1.2l4,-1l2.4,-0.6l1.6,-0.3l4,-0.8l2.4,-0.3l1.7,-0.2l4.1,-0.5c4.1,-0.4 4.1,-0.1 8.2,-0.4l4.1,-0.3l4.1,-0.3c4.1,-0.1 4.1,-0.2 8.2,-0.1c4.1,0.1 4.1,0.2 8.2,0.5l4.1,0.4l1.7,0.2l2.4,0.3l4.1,0.5l1.7,0.2l2.4,0.4c4,0.7 4.1,0.5 8.1,1.4c4,0.9 3.9,1.3 7.8,2.4l7.9,2.3c3.9,1.3 4,1.1 7.9,2.4l4.1,1.5c1,0.4 2,0.8 4.1,1.4c4.2,1.1 4.2,1.2 8.4,2.1c4.2,1 4.3,0.5 8.6,1.3l8.6,1.4c4.3,0.4 4.3,-0.1 8.6,0.2l2.6,0.1l1.7,0l4.3,0.1c4.3,0.1 4.3,0.2 8.6,0.1l4.3,-0.2l4.3,-0.4c4.3,-0.4 4.3,-0.2 8.6,-0.8l4.3,-0.5l4.2,-0.8c1.418,-0.254 2.82,-0.588 4.2,-1l4.1,-1.1c2.1,-0.5 3.1,-0.9 4.1,-1.2l4.1,-1.2l2.5,-0.9l5.3,-1.7l5.2,-1.8c2.6,-0.9 2.7,-0.8 5.3,-1.6c2.6,-0.9 2.6,-0.9 5.3,-1.6l5.4,-1.4l2.7,-0.7c0.7,-0.2 1.3,-0.4 2.7,-0.6l5.5,-0.9l5.5,-0.7c2.7,-0.4 2.8,-0.4 5.5,-0.6l0.8,-0.1c2.7,-0.2 5.4,-0.5 8.1,-0.5l0.3,0l1.9,-0.1l2.5,-0.1l1.9,-0.1c0.3,-0.3 0.7,-0.3 0.1,-0.3Z" style="fill-rule:nonzero;"/><path d="M374.15,410.185l-6.7,0.2c-3.3,0.1 -3.3,0.3 -6.7,0.3l-6.7,-0.2l-6.7,-0.5l-3.3,-0.2l-3.3,-0.3l-3.3,-0.5c-1.09,-0.279 -2.191,-0.512 -3.3,-0.7c-3.3,-0.6 -3.3,-0.5 -6.6,-1.3c-3.3,-0.7 -3.3,-0.4 -6.6,-1.3c-3.2,-0.9 -3.2,-1.2 -6.3,-2.2c-3.2,-1 -3.3,-0.8 -6.4,-1.8l-6.3,-2.1c-3.2,-1 -3.1,-1.2 -6.3,-2.2l-6.2,-1.5l-6.2,-1.3l-6.2,-1.4c-3.2,-0.4 -3.2,-0.2 -6.3,-0.6l-1.9,-0.2l-1.3,-0.1l-3.2,-0.2l-3.2,-0.3l-1.3,-0.1l-1.9,-0.1l-6.4,-0.3c-1.6,-0.1 -2.4,0 -3.2,0l-3.2,0.1c-3.2,0.1 -3.2,0.3 -6.4,0.5l-6.4,0.2l-3.2,0.3l-3.2,0.4l-3.2,0.4l-3.1,0.6l-6.2,1.4c-3.1,0.7 -3.1,0.5 -6.2,1.4l-6.1,1.7c-3,0.9 -3.1,0.8 -6.1,1.8l-6.1,2c-3,1 -3,1.3 -6,2.2l-6.2,1.8c-3.1,0.8 -3.1,0.7 -6.3,1.4l-3.1,0.6l-3.2,0.5c-3.2,0.6 -3.2,0.5 -6.3,0.9c-3.2,0.3 -3.2,0.1 -6.4,0.3l-6.4,0.4c-3.2,0.1 -3.2,0.3 -6.4,0.3l-6.4,-0.2l-6.4,-0.2c-1,0 -1.7,-0.2 -1.7,-0.4c0,-0.2 0.8,-0.3 1.7,-0.3l6.4,0c3.2,0.1 3.2,-0.1 6.3,-0.2c3.2,-0.1 3.2,0.1 6.4,0l6.3,-0.6c3.2,-0.2 3.2,-0.2 6.3,-0.6c3.1,-0.4 3.2,-0.3 6.3,-0.9l3.1,-0.7l3.1,-0.7l6.1,-1.5c3,-0.9 3.1,-0.8 6.1,-1.8c3,-1 2.9,-1.2 5.9,-2.3l6,-2.1c3,-1.1 3.1,-0.7 6.2,-1.7c3,-1 3,-1.2 6.1,-2.1c3.1,-0.9 3.1,-0.8 6.3,-1.6c3.2,-0.8 3.2,-0.5 6.4,-1.1l3.2,-0.8l3.2,-0.6l3.2,-0.3l3.2,-0.3l6.5,-0.4l6.5,-0.3l3.2,0l3.2,0.1l6.5,0.1l3.2,0.2l3.2,0.3l3.2,0.2l3.2,0.4l6.4,0.7c3.2,0.6 3.2,0.8 6.4,1.3c3.2,0.7 3.2,0.4 6.4,1.1l6.2,1.9c3.2,1 3.1,1.1 6.3,2.2l6.3,2.2l6.2,2.3l3.2,0.9l3.2,0.8c3.2,1 3.1,1 6.3,1.8c3.2,0.8 3.2,0.9 6.4,1.5l3.3,0.5l3.3,0.4l3.3,0.5l1.3,0.2l2,0.2c3.3,0.3 3.3,0 6.6,0.3c3.3,0.2 3.3,0.4 6.6,0.5l6.6,0l6.6,-0.2c1,0 1.8,0.1 1.9,0.4c0.5,0.5 -0.4,0.6 -1.3,0.6Zm-253.5,0.1c-1.9,-0.1 -3.6,-0.4 -5.4,-0.6l-5.4,-0.6l-2.7,-0.5l-2.6,-0.6l-2.8,-0.4l-1.3,-0.2l-1.2,-0.2c-0.15,-0.028 -0.288,-0.097 -0.4,-0.2l-0.5,-0.2l-0.2,-0.1c-0.3,-0.3 0.7,-0.3 1.2,-0.3c0.5,0 1.2,0.3 1.8,0.4l3.5,0.6l2.7,0.4l2.7,0.3c2.7,0.3 2.6,0.5 5.3,0.8l5.3,0.4c0.7,0 1,0.5 1.1,0.7l0,0.1c-0.351,0.135 -0.724,0.203 -1.1,0.2c0.1,0 0.1,0 0,0Zm275.7,-2.7c0,0.2 -0.9,0.5 -3.2,1c-1.2,0.3 -2.7,0.4 -4.3,0.7l-4.4,0.4c-2.3,0.2 -3.3,0.1 -3.3,-0.1c0,-0.2 0.8,-0.4 3.1,-0.7l4.4,-0.5l4.2,-0.6c2.4,-0.3 3.4,-0.4 3.5,-0.2Zm-300.5,-1.8c0,0.2 -1.1,0.2 -2.2,-0.1c-1.1,-0.3 -1.9,-0.8 -1.8,-1c0,-0.2 0.9,-0.1 2,0.2c1.1,0.4 2.1,0.7 2,0.9Zm-7.4,-1.6l-3,-1.1l-3,-0.9l-3,-1.2l-1.6,-0.5l-0.8,-0.2l-0.7,-0.2l-0.2,-0.1l-0.3,-0.2l-0.1,-0.1c-0.2,-0.2 0.5,-0.2 0.8,-0.2c0.3,0 0.7,0.2 1,0.4l2,0.7l3,0.9l3,1.1l3,1c0.4,0.1 0.5,0.4 0.5,0.6l0,0.1l-0.6,-0.1Zm320.5,0.4c0,0.1 -0.5,0.4 -1.8,0.9l-2.4,0.7l-2.6,0.5c-1.4,0.3 -1.9,0.3 -1.9,0.2c0,-0.1 0.4,-0.4 1.7,-0.8l2.6,-0.5l2.4,-0.6c1.4,-0.5 2,-0.6 2,-0.4Zm-334.5,-5.6c0,0.1 -0.7,0.1 -1.3,-0.1c-0.6,-0.2 -1.1,-0.6 -1,-0.7c0,-0.1 0.6,-0.1 1.2,0.2c0.6,0.2 1.2,0.5 1.1,0.6Zm346.1,1.8c0,0.1 -0.7,0.6 -1.5,0.9c-0.8,0.3 -1.6,0.3 -1.6,0.2c0,-0.1 0.6,-0.5 1.4,-0.8l1.7,-0.3Zm34.5,-8.8l1.2,-0.3l1.2,0l-1.2,0.3l-1.2,0Zm-27.4,6.4c0,0.1 -0.3,0.4 -0.8,0.6l-1.1,0.4l-1.1,0.4l-1.1,0l1.1,-0.5l1,-0.4l1,-0.3l1,-0.2Zm7.2,-2.2c0,0.2 -0.5,0.4 -1.3,0.7c-0.8,0.2 -1.5,0.4 -1.5,0.2c0,-0.2 0.5,-0.5 1.4,-0.7c0.8,-0.3 1.4,-0.4 1.4,-0.2Zm9.2,-2.4l-1,0.4l-1.2,0.4l-1.2,0.2c-0.5,0.1 -1.1,0.2 -1.2,0.1l0.9,-0.5l1.3,-0.3l1.4,-0.3l1,0Zm-30,9.2c0,0.2 -0.5,0.5 -1.1,0.8c-0.6,0.2 -1.2,0.2 -1.2,0c0,-0.2 0.4,-0.4 1,-0.6c0.6,-0.3 1.2,-0.4 1.3,-0.2Zm61,-12.5l-2.4,0l2.4,0Zm4.5,-0.1l-2.5,0l2.5,0Zm-15.7,0.6c0,0 -0.7,0.2 -1.5,0.2l-1.5,0l1.4,-0.2c0.9,-0.1 1.6,-0.1 1.6,0Zm6.3,-0.4l-1.3,0.1l-1.2,0l1.2,-0.1l1.3,0Zm-410.9,3.9c0,-0.1 0.7,0 2.3,0.4l3,0.8l3,0.9l2.2,0.8c0,0.1 -0.6,0 -2.2,-0.5l-3.1,-0.9l-2.9,-0.8c-0.798,-0.116 -1.573,-0.352 -2.3,-0.7Zm-17.5,-3l1.7,0.1c0.511,0.035 1.015,0.136 1.5,0.3l-1.6,-0.1l-1.6,-0.3Zm13.5,2.2c0,-0.1 0.7,-0.1 1.3,0.1c0.6,0.1 1.1,0.4 1.1,0.5l-1.2,-0.1c-0.6,-0.1 -1.2,-0.4 -1.2,-0.5Zm-7.3,-1.3l0.9,0l2.4,0.4l1,0.4l-1.2,-0.1l-1.1,-0.1l-1.1,-0.2l-0.9,-0.4Zm-15.6,-1.7l2.1,0l2.1,0.2l-2.1,-0.1c-1.2,0.1 -2.1,0 -2.1,-0.1Zm-9.3,-0.3l-2.5,0l2.5,0Zm4.5,0.1l-2.4,0l2.4,0Z" style="fill-rule:nonzero;"/><g><path d="M414.05,413.285l-2.7,0.9l-2.8,0.9l-2.8,0.8l-2.8,0.6l-2.8,0.6l-2.8,0.7l-2.8,0.6c-1.4,0.3 -1.5,0.1 -2.9,0.3l-2.9,0.4l-2.9,0.5c-1.4,0.2 -1.5,0 -2.9,0.1l-2.9,0.2c-1.4,0.1 -1.4,0.3 -2.9,0.4l-2.9,0l-2.9,0.1l-2.9,0c-1.4,0 -1.4,0.2 -2.9,0.2l-2.9,0.1c-1.4,0 -1.4,-0.3 -2.9,-0.4l-2.9,0l-2.9,0.1l-2.9,-0.2l-2.9,-0.1c-1.4,-0.1 -1.4,-0.4 -2.9,-0.5c-1.4,-0.2 -1.4,-0.1 -2.9,-0.2l-2.9,-0.3l-2.9,-0.4l-2.9,-0.5l-2.8,-0.6l-2.8,-0.5c-1.4,-0.3 -1.4,-0.5 -2.8,-0.9l-2.8,-0.7l-2.8,-0.9c-1.4,-0.4 -1.5,-0.2 -2.8,-0.6l-2.7,-0.9l-2.7,-0.9l-2.7,-0.9l-2.8,-0.9l-2.7,-1c-1.4,-0.5 -1.3,-0.6 -2.7,-1l-2.8,-0.9l-2.7,-0.9l-2.8,-0.8c-1.4,-0.4 -1.4,-0.2 -2.9,-0.5l-2.8,-0.6c-1.4,-0.3 -1.3,-0.6 -2.8,-1l-2.9,-0.5c-1.4,-0.3 -1.5,0.1 -2.9,-0.2l-2.9,-0.5c-1.4,-0.2 -1.4,-0.4 -2.9,-0.5c-0.4,0 -0.5,-0.8 -0.5,-0.8c0.1,-0.4 0.3,-0.8 0.7,-0.7l5.8,1c1.4,0.3 1.5,0.1 2.9,0.4l5.8,1l2.8,0.8c1.4,0.3 1.4,0.5 2.8,0.9l2.9,0.7l2.8,0.8l8.4,2.7l2.7,1l2.7,1.1c1.4,0.5 1.4,0.3 2.8,0.7c1.4,0.4 1.3,0.7 2.7,1.1c1.4,0.5 1.4,0.3 2.8,0.7c1.4,0.4 1.3,0.7 2.7,1l2.8,0.7l2.8,0.5l2.8,0.7l2.8,0.6l2.8,0.5c1.4,0.3 1.4,0.1 2.8,0.3l2.8,0.5c1.4,0.2 1.4,0 2.9,0.2l5.8,0.6l5.8,0.2c1.4,0 1.4,0.2 2.9,0.2l8.7,0l2.9,-0.1l2.9,-0.1c1.4,0 1.4,-0.2 2.9,-0.3c1.4,-0.1 1.4,0.2 2.9,0.1l2.9,-0.1c1.4,-0.1 1.4,-0.4 2.8,-0.5c1.4,-0.2 1.4,0 2.9,-0.1l2.8,-0.4l2.8,-0.5l2.8,-0.4l2.8,-0.6l2.8,-0.6l2.8,-0.5l2.8,-0.7l2.8,-0.8l2.7,-0.9c0.4,-0.1 0.7,-0.1 0.8,0.2c-0.1,-0.4 -0.3,0.1 -0.7,0.2Z" style="fill-rule:nonzero;"/><path d="M334.15,417.085l-5,-1l-5,-1c-2.5,-0.7 -2.4,-0.9 -4.8,-1.6l-4.9,-1.5l-4.8,-1.8c-2.4,-0.9 -2.3,-1.1 -4.8,-1.9l-4.9,-1.7l-5,-1.5l-5,-1.5c-2.5,-0.6 -2.6,-0.4 -5.1,-1c-2.5,-0.5 -2.5,-0.7 -5.1,-1.1c-2.8,-0.5 -2.8,-0.7 -5.6,-1l-5.6,-0.4l-5.6,-0.6l-2.8,-0.1l-2.8,0.1l-5.6,-0.4l-2.8,0.1l-2.8,0.1l-5.6,0c-2.8,0.1 -2.8,0.5 -5.6,0.7l-2.8,0.2l-1.1,0.1l-1.7,0.2l-5.6,0.4c-2.8,0.4 -2.8,0.7 -5.5,1.2c-2.7,0.5 -2.8,0.3 -5.5,1c-2.7,0.7 -2.7,0.6 -5.3,1.4l-5.3,1.6l-0.8,0.3c-8.5,2.6 -16.6,5.7 -25,8c-8.4,2.3 -16.9,3.7 -25.6,4.5l-8.1,0.6l-3.5,0.1l-12.6,0c-3.1,-0.1 -3.1,-0.3 -6.3,-0.5c-3.1,-0.2 -3.2,0 -6.3,-0.4l-6.2,-1l-6.2,-0.9l-6.1,-1.5l-6,-1.8c-3,-0.9 -3.1,-0.7 -6.1,-1.7l-6,-2c-3,-1 -2.9,-1.2 -6,-2.1c-3,-0.9 -3.1,-0.8 -6.1,-1.6c-3.1,-0.8 -3,-1.1 -6.1,-1.7l-3.1,-0.7l-1.3,-0.3c-0.629,-0.124 -1.263,-0.224 -1.9,-0.3c-3.1,-0.5 -3.1,-0.6 -6.3,-1l-6.3,-0.6l-6.3,-0.4l-3.2,-0.1l-10.3,0l0.2,0l1.6,0.1l1.3,0.1l0.3,0l3.2,0.2l3.7,0.2l3.7,0.3l0.7,0.1l4.7,0.4l4.7,0.7l4.3,0.8l2.6,0.5l2.3,0.4l4.8,1.2l2.7,0.6l6.1,1.8l6,2l2.6,0.9c6.3,2.5 12.7,4.8 19.4,6.3l6.8,1.6c2.3,0.4 4.5,0.9 6.8,1.2l0.7,0.1l0.2,0l2.9,0.4l2.1,0.4c1.6,0.4 3,0.4 4.6,0.4l3.5,0.2l0.9,0.1l0.2,0.1c1.2,0.3 2.5,0.2 3.7,0.1c4,0.1 7.9,0.3 11.9,0.2l6,-0.1l6,-0.4l0.9,0l1,-0.2c2.8,-0.2 5.6,-0.7 8.4,-1.2c2.7,-0.2 5.3,-0.7 8,-1.1l4,-0.9l3.9,-1c5.2,-1.5 10.2,-3.4 15.1,-5.6c5.7,-2.5 11.7,-4.1 17.7,-5.6l4.6,-1c1.5,-0.4 3.1,-0.6 4.7,-0.8c3.1,-0.6 6.3,-0.9 9.4,-1.3c1.8,-0.3 3.6,-0.4 5.3,-0.5l5.3,-0.5l10.7,-0.5l0.6,-0.1l0.4,0c2.8,0.1 2.8,-0.1 5.6,-0.1l5.6,0.2l5.6,0.3c2.8,0.3 2.7,0.6 5.5,0.9c2.8,0.3 2.8,0.2 5.5,0.7l5.1,0.9l5,1.1l5,1.3c2.5,0.7 2.4,1 4.9,1.7c2.5,0.8 2.5,0.5 5,1.3l4.9,1.7l9.8,3.2l4.9,1.5c2.5,0.6 2.6,0.4 5.1,0.9l5,1c0.7,0.1 0.9,0 1,-0.2c-0.2,-0.3 -0.4,-0.8 -1,-0.9Zm92.6,-8.2l-9.1,3c-0.4,0.1 -0.7,0.1 -0.8,-0.1l0,-0.1c0,-0.1 0.2,-0.3 0.6,-0.4l9,-3.1c0.4,-0.1 1.1,-0.2 1.1,0c0,0 -0.1,0.1 0,0.1c0.1,0.1 -0.4,0.5 -0.8,0.6Zm11.8,-4.1c0,0.2 -0.6,0.6 -1.4,0.8c-0.8,0.2 -1.5,0.1 -1.5,0c-0.1,-0.2 0.5,-0.5 1.3,-0.7c0.8,-0.2 1.6,-0.2 1.6,-0.1Zm-5.5,1.6c0,0.1 -0.3,0.5 -0.7,0.7l-1,0.4l-1.1,0.4c-0.5,0.1 -1,-0.1 -1.1,-0.2c-0.1,-0.2 0.6,-0.3 1,-0.6l0.9,-0.4l1,-0.2l1,-0.1Zm14.1,-3.3c0,0.2 -0.7,0.5 -1.8,0.7c-1.1,0.3 -2,0.3 -2,0.1c-0.1,-0.2 0.8,-0.5 1.9,-0.8c1.1,-0.2 1.9,-0.2 1.9,0Zm14.4,-1.8l-1.3,0.3c-0.8,0.1 -1.4,0.1 -1.4,-0.1c0,-0.1 0.6,-0.3 1.4,-0.3c0.7,-0.1 1.3,0 1.3,0.1Zm-5.6,0.6l-0.9,0.3l-1.2,0.2l-1.1,0.1l-1.1,0c0,-0.1 0.4,-0.3 0.9,-0.4l1.2,-0.2l1.3,-0.1c0.6,-0.1 0.9,0 0.9,0.1Zm12.2,-1l-1.2,0.2l-1.1,-0.1l1.1,-0.2l1.2,0.1Zm5.8,-0.1l-0.4,0.1l-1,0l-1.4,-0.1l1.4,-0.1l1,0l0.4,0.1Zm5.6,0l-2.3,0l2.3,0Z" style="fill-rule:nonzero;"/></g><path d="M199.85,417.885l-4,1.3c-2,0.6 -1.9,0.9 -3.9,1.6c-2,0.6 -2.1,0.4 -4.1,1.1l-4,1.3l-4,1.1c-2,0.5 -2,0.8 -4,1.3c-2,0.5 -2.1,0.3 -4.1,0.8l-4.1,0.7c-2.1,0.3 -2,0.5 -4.1,0.9c-2.1,0.4 -2.1,0.1 -4.2,0.3l-4.3,0.5c-2.1,0.3 -2.1,0.2 -4.3,0.4l-4.3,0.4c-2.1,0.2 -2.1,0.1 -4.3,0.2l-4.3,0.1l-4.3,-0.1l-4.3,0.1l-4.3,0l-4.2,-0.2l-0.8,0.3c-0.3,0.2 -0.8,0.6 -0.5,0.9c0.2,0.2 0.6,0.4 1,0.4l4.3,0.5c2.2,0.1 2.2,-0.1 4.3,-0.1c2.2,0.1 2.2,0.3 4.3,0.4c2.2,0.1 2.2,-0.1 4.3,-0.2l4.3,0.1c2.2,-0.1 2.2,-0.3 4.3,-0.4l4.3,-0.3c2.2,-0.2 2.2,0.2 4.3,-0.1l4.3,-0.7c2.1,-0.3 2.1,0 4.2,-0.4l4.2,-0.8c2.1,-0.4 2.1,-0.5 4.1,-1c2.1,-0.5 2,-0.8 4,-1.3l4,-1.2l4,-1.3c2,-0.7 2.1,-0.4 4.1,-1.1l3.9,-1.5l4,-1.3l4,-1.4c0.5,-0.2 0.5,-0.8 0.5,-0.8c0.5,-0.3 0.2,-0.6 -0.3,-0.5Zm-86.1,12.9l0.5,-0.5c0.2,-0.5 -0.3,-0.9 -0.6,-1.1l-0.8,-0.4l-2.5,-0.2l-2.8,-0.3l-2.8,-0.4l-2.8,-0.4c-1.4,-0.2 -1.4,-0.5 -2.8,-0.8l-2.8,-0.4l-2.8,-0.7l-2.8,-0.7l-2.8,-0.8l-2.7,-0.9l-2.8,-0.7l-2.7,-0.9l-0.6,0c0,0 0,0.4 0.4,0.5l2.7,0.9l2.8,0.8c1.4,0.5 1.3,0.6 2.7,1l2.8,0.8l2.7,0.9c1.4,0.4 1.3,0.6 2.7,0.9l2.8,0.7l5.6,1.2c1.4,0.3 1.5,0.1 2.9,0.4l2.8,0.6l3.1,0.5l0.6,0Zm325.7,-14.6l-4.8,1.4c-1.5,0.4 -3.1,0.2 -0.7,-0.5l5.4,-1.4c1.1,-0.2 1.9,-0.3 1.7,-0.1l-1.6,0.6Zm4.8,-1.4c0,-0.2 0.7,-0.4 2.1,-0.6l2.3,-0.4l2.3,-0.5l2.3,-0.4l2.3,-0.3l2.3,-0.3l2.3,-0.3l2.3,-0.2l2.3,-0.1l2.2,-0.1l-2.2,0.2l-2.3,0.2l-2.3,0.3l-2.3,0.2l-2.3,0.3l-2.3,0.4l-2.3,0.3l-2.3,0.4l-2.3,0.3c-1.4,0.4 -2.1,0.9 -2.1,0.6Zm-13,3.4c0.1,0.2 -0.5,0.6 -1.1,0.8c-0.6,0.2 -1.2,0.1 -1.3,-0.1c-0.1,-0.2 0.4,-0.5 1.1,-0.7c0.6,-0.1 1.3,-0.2 1.3,0Zm48.3,-6.9l-2.1,0.1l-2.7,0.1l-2.8,0.1l-2.5,0l2.8,0l2.5,-0.1l2.5,0c1,-0.2 1.7,-0.2 2.3,-0.2Zm-445.3,0.5l-3.2,-0.3l-3.2,-0.1l-3.2,-0.1l-3.9,0l7,0l3.2,0.1l3.2,0.2c0.4,0 0.6,0.1 0.7,0.2l-0.6,0c0.1,0 0.1,0 0,0Zm38.4,7.5c-0.1,0.3 -1.1,-0.1 -3,-0.7l-3.2,-1l-3.2,-0.8c-1,-0.3 -2.1,-0.7 -3.2,-0.9l-3.2,-0.8c-1.1,-0.3 -2.2,-0.6 -3.2,-0.7l-3.2,-0.6l-3.3,-0.6l-3.3,-0.5l-3.1,-0.5c0,-0.2 1.1,0 3.1,0.2l6.6,0.8c1,0.2 2.1,0.5 3.3,0.6l3.2,0.7l3.3,0.6c1.1,0.2 2.2,0.6 3.2,0.9l3.2,0.9l3.1,1.1c1.9,0.9 3,1 2.9,1.3Zm265.9,10.7l2.3,0.4c1.1,0.2 1.1,0 2.3,0.2l2.3,0.4l2.3,0l4.6,0.4c1.1,0.1 1.1,0.4 2.3,0.5l4.6,0.2c1.1,0.1 1.1,-0.2 2.3,-0.1c1.2,0 1.2,0.2 2.3,0.2c1.2,0 1.2,-0.2 2.3,-0.3l2.3,0c1.2,0 1.2,0.2 2.3,0.2c1.2,0 1.2,-0.2 2.3,-0.2l2.3,0.1c1.2,-0.1 1.2,-0.3 2.3,-0.4l2.3,0l2.3,-0.3l2.3,0c1.2,-0.2 1.1,-0.3 2.3,-0.4c1.1,-0.2 1,-0.3 2.1,-0.4c1.1,-0.2 1.1,0 2.2,-0.1l2.1,-0.4l2.1,-0.4l2.1,-0.4c1.1,-0.2 1,-0.3 2.1,-0.6l2.1,-0.6l2.1,-0.5l2,-0.7c1,-0.3 1.1,-0.1 2.1,-0.5l2.1,-0.6c0.3,-0.1 0.3,-0.5 0.3,-0.5c0,-0.1 -0.2,-0.2 -0.4,-0.1l-2.1,0.6c-1,0.3 -1.1,0.1 -2.1,0.4l-2.1,0.6l-2.1,0.5l-2.1,0.4l-2.1,0.4c-1.1,0.2 -1.1,0 -2.1,0.1c-1.1,0.2 -1,0.4 -2.1,0.5l-2.1,0.3l-2.1,0.2l-2.1,0.2c-1.2,0.1 -1.2,0 -2.3,0.2c-1.1,0.1 -1.1,0.3 -2.3,0.4l-2.3,0.1l-2.3,0.1l-2.3,0l-2.3,0.2l-6.9,0l-2.3,-0.1l-2.3,0c-1.1,0 -1.1,0.2 -2.3,0.2c-1.1,0 -1.1,-0.2 -2.3,-0.2l-2.3,0.1l-2.3,0c-1.1,0 -1.1,-0.3 -2.2,-0.3l-2.3,-0.1l-2.2,-0.2l-2.3,0c-1.1,-0.1 -1.1,-0.4 -2.2,-0.5l-2.2,-0.2c-0.3,0 -0.4,0.3 -0.5,0.5c0,0 0,0.5 0.2,0.5Zm-8.7,-2.9l-4.1,-1c-2,-0.5 -2.1,-0.3 -4.1,-0.9c-2,-0.6 -1.9,-0.8 -3.9,-1.4l-4,-1.3l-3.9,-1.5c-2,-0.7 -2.1,-0.5 -4,-1.2l-3.9,-1.5l-4,-1.5c-2,-0.7 -2.1,-0.4 -4.1,-1.1c-2,-0.6 -1.9,-0.9 -4,-1.4l-4.2,-1.1c-0.679,-0.227 -1.385,-0.362 -2.1,-0.4l-2.2,-0.4l-4.3,-0.7l-4.3,-0.5l-4.3,-0.5c-2.2,-0.2 -2.2,-0.4 -4.3,-0.5l-4.4,-0.1l-8.5,0c-0.285,0.092 -0.555,0.227 -0.8,0.4c-0.3,0.2 -0.7,0.9 -0.4,1.3c0.2,0.3 0.6,0.4 1,0.5c2.1,0 2.1,0.3 4.3,0.3c2.1,0 2.1,-0.2 4.3,-0.2c2.1,0.1 2.1,0.5 4.2,0.6l4.3,0.1l4.2,0.6c2.1,0.3 2.2,-0.1 4.3,0.2l4.2,0.7l2.1,0.5l2.1,0.6c2.1,0.5 2.1,0.3 4.2,0.7c2,0.4 2,0.8 4,1.3l4,1.1l4,1.2c2,0.6 2.1,0.4 4.1,1l8,2.6c2,0.6 1.9,0.9 4,1.5c2,0.6 2.1,0.5 4.1,1c2,0.5 2,0.7 4.1,1.1l4.1,0.8c0.5,0.1 0.8,-0.4 0.8,-0.4c0,0 -0.1,-0.3 -0.6,-0.5Zm83.6,-2.5c1.1,-0.3 2,-0.8 3,-1.2c1.5,-0.5 1.6,-0.4 3.1,-1l3,-1.2l1.6,-0.5l0.8,-0.2l0.7,-0.2l0.2,-0.1l0.3,-0.2l0.1,-0.1c0.2,-0.3 -0.5,-0.3 -0.8,-0.3c-0.3,0 -0.7,0.3 -1.1,0.4l-2,0.7l-3.1,0.9l-3,1.2l-3.1,1c-0.4,0.1 -0.5,0.5 -0.5,0.7l0,0.1c0.1,0.1 0.5,0 0.8,0c-0.1,0 -0.1,0 0,0Zm-207.8,-7.5c0.2,0.6 1.3,0.1 3.5,-0.4l3.7,-0.8l3.7,-0.5l3.7,-0.7l3.7,-0.7l3.7,-0.5l3.7,-0.5c1.3,-0.1 2.6,-0.1 3.7,-0.3l3.7,-0.4c2.2,-0.3 3.5,-0.2 3.5,-0.8c0,-0.8 -1.3,-0.5 -3.6,-0.4l-3.8,0.2c-1.2,0 -2.4,-0.2 -3.8,-0.1c-1.2,0.1 -2.4,0.6 -3.7,0.7l-3.8,0.5c-1.3,0.2 -2.6,0 -3.8,0.2c-1.3,0.2 -2.5,0.6 -3.7,0.9l-3.7,0.9l-3.6,1.2c-2,0.8 -3.4,0.6 -3.1,1.5Z" style="fill-rule:nonzero;"/><path d="M350.75,440.985l-4.1,0c-1.4,0 -3.1,-0.3 -5.3,-0.5l-3.5,-0.4l-4.1,-0.7c-3.427,-0.604 -6.829,-1.338 -10.2,-2.2l-5.6,-1.6l-5.8,-1.9c-8,-2.7 -15.1,-5.4 -21.4,-7.1c-2.9,-0.7 -5.4,-1.4 -7.5,-1.8l-5.1,-1l-2.9,-0.5l-0.9,-0.3c0,-0.1 1.1,-0.2 3.7,0.2l5.1,0.8c2.1,0.3 4.6,1 7.5,1.6l5,1.4l5.4,1.7l11.5,4l5.7,1.9l5.4,1.6l5.1,1.2l4.8,1l4,0.8l3.5,0.5l5.3,0.7c3,0.3 4.4,0.5 4.4,0.6Zm128.8,-19.3l-4.8,0.1l-5,0.1l-5.8,0.4l-2.9,0.2l-2.7,0.3l-4.6,0.5l-3.1,0.4l-0.8,0.1l-0.3,0l0.3,-0.1l0.8,-0.2c0.7,-0.1 1.8,-0.4 3.1,-0.5l4.6,-0.6l2.7,-0.3l2.9,-0.2l5.8,-0.3l5,-0.1l4.8,0.2Zm-253.1,2.1l4.9,-0.6l4.3,-0.4l5.8,-0.6c1.4,-0.2 2.3,-0.4 1.7,-0.5c-0.6,-0.1 -2.5,-0.3 -6.6,0l-6.1,0.4l-6.1,0.7l-1.5,0.2l-1.5,0.3l-3,0.5l-3,0.5l-3,0.7c-7.801,1.825 -15.482,4.129 -23,6.9c-8.125,2.901 -16.491,5.076 -25,6.5c-2.1,0.4 -4.3,0.6 -6.4,0.9l-3.2,0.4l-3.2,0.2l-6.4,0.4l-6.5,0.2c-12.2,0.2 -24.4,-0.4 -36.4,-2.6c-6,-1.2 -11.9,-2.7 -17.7,-4.7c-5.8,-1.9 -11.6,-3.9 -17.5,-5.7c-4.5,-1.3 -11.8,-3.2 -19,-4.2l-5.4,-0.6l-2.6,-0.3l-2.5,-0.2l-4.5,-0.2l-3.7,-0.1l-8.7,0l3.3,0.1l5.7,0.2l5.9,0.4l3.6,0.3l3.6,0.5c10.841,1.494 21.498,4.108 31.8,7.8c8,2.8 16,5.7 24.5,7.6c8.9,2.1 18.1,3 27.2,3.5c4.5,0.1 9.1,0.3 13.6,0.1l6.7,-0.2l6.7,-0.5c12.7,-1.1 24.9,-4.1 36.8,-8.2c5.9,-2 11.8,-4.1 17.9,-5.7c1.5,-0.5 3,-0.8 4.6,-1.2c1.5,-0.3 3.1,-0.8 4.6,-1c3,-0.8 6.1,-1.4 9.3,-1.8Zm199.5,6.4l-0.7,0.3l-1.9,0.7c-3.918,1.411 -7.851,2.778 -11.8,4.1l-6.3,1.8l-6.5,1.6l-5.8,1l-3.9,0.5l-3.5,0.3c-1,0.1 -1.9,0.2 -2.5,0.1l-1,-0.1l1.2,-0.2l3,-0.4c2.4,-0.3 5.5,-0.6 8.1,-1.2l5,-1l5.8,-1.4l5.8,-1.6l5,-1.5l6.8,-2.2l2.2,-0.7l1,-0.1Z" style="fill-rule:nonzero;"/><path d="M225.95,434.885l-0.9,0.1c-7.964,1.079 -15.824,2.818 -23.5,5.2c-7.7,2.3 -15.3,5.1 -23.3,7.3l-2.2,0.6l-2.1,0.5l-3.8,0.9l-6.4,1.2l-1.4,0.3l-1.3,0.2l-2.5,0.3l-4.7,0.6c-6.2,0.5 -12.4,1.1 -24.9,0.7l-4.4,-0.1c-1.301,-0.093 -2.601,-0.193 -3.9,-0.3c-2.4,-0.2 -4.6,-0.3 -6.5,-0.6l-5.3,-0.7c-1.6,-0.2 -3.2,-0.6 -4.7,-0.9c-6.1,-1.2 -12.2,-2.7 -23.9,-6.8c-8.1,-2.8 -16.2,-5.6 -24.5,-7.4l-3,-0.6l-3,-0.5l-3,-0.5l-3,-0.4l-2.8,-0.4c-1,-0.1 -1.9,-0.3 -2.9,-0.3l-5.8,-0.5l-2.1,-0.2l-2,-0.1l-4.8,-0.2l-2.3,-0.1l2.2,0l8.3,0.1l8.4,0.5l4.4,0.5c1.4,0.2 2.9,0.3 4.2,0.6l4.1,0.7l2,0.4l2,0.5l4,0.9l4,1.1c2.7,0.7 5.3,1.6 7.9,2.4l7.8,2.6c11.7,4 17.8,5.2 23.9,6.2l4.7,0.7l5.3,0.6c1.9,0.3 4,0.3 6.4,0.5l3.8,0.2l4.3,0.1c12.3,0.3 18.5,-0.2 24.6,-0.6l4.7,-0.5l2.5,-0.3l1.3,-0.2l1.4,-0.2l6.3,-1.1l3.7,-0.9l2,-0.5l2.2,-0.6l4.2,-1.2l3.7,-1.2l6.1,-2.1l9.6,-3.2l2.2,-0.7l2.3,-0.7c1.6,-0.4 3.3,-1 5.2,-1.4c4.782,-1.158 9.622,-2.059 14.5,-2.7c6.1,-0.9 10,-0.1 10.8,0.3c0.1,0.1 0.2,0.1 0,0.2c-0.3,0.2 -2.1,0.4 -4,0.7l-3,0.4l-2.4,0.4c0.1,0.1 -0.3,0.2 -0.7,0.2Zm175.6,13.5l-1.1,0.4l-1.4,0.4l-2,0.4l-5.7,1.1l-7.8,1.1l-4.9,0.4c-1.7,0.1 -3.4,0.4 -5.2,0.4l-5.6,0.2l-2.9,0.1l-3,0c-3.5,-0.1 -7.1,0 -10.8,-0.4l-5.6,-0.4l-5.7,-0.7c-7.6,-1 -14.7,-2.7 -21.3,-4.7c-7.8,-2.4 -14.9,-4.9 -20.8,-6.8c-11,-3.7 -17.3,-4.7 -17.2,-5.2c0,-0.2 1.6,-0.2 4.5,0.2l5.5,1l7.5,1.9c6,1.7 13.2,5 21,7.4c6.5,2 13.6,3 21.1,4.1l5.7,0.7l5.6,0.4c3.7,0.3 7.3,0.3 10.8,0.5l3,0.1l8.7,0l5.3,-0.2l4.9,-0.2l7.7,-0.8l5.5,-0.8l3.3,-0.5l0.9,-0.1Zm78,-16.3l-6.1,0.2c-3.7,0 -8.7,0.5 -13.8,1l-7.2,0.9l-5.8,1l-5.3,0.9l1.4,-0.4l3.9,-0.9l5.8,-1.1l7.2,-0.9c6.617,-0.577 13.259,-0.811 19.9,-0.7Z" style="fill-rule:nonzero;"/></svg>