<svg viewBox="0 0 103 702" xmlns="http://www.w3.org/2000/svg" fill-rule="evenodd" clip-rule="evenodd" stroke-linejoin="round" stroke-miterlimit="1.4">
  <g fill="#7f80aa" fill-rule="nonzero">
    <path d="M52 716a54.7 54.7 0 0 1 8.4-4.8c1.6-.9 3.4-1.7 5-2.7l6-3 10.6-5.2 11.2-5.4 4.2-2.2.2-.1c-1.5.8-3 1.4-4.4 2.3l-4.6 2.4-4.6 2.5-4.6 2.5-4.6 2.4c-1.7.8-3.1 1.7-4.6 2.5l-4.6 2.4L61 712l-4.6 2.5c-2.8 1.3-4.3 1.8-4.5 1.7zM-56.3 756.3c-6 3-5.1 4.6.8 1.7 6-3.2 5.7-3.3 11.7-6.3 5.9-3.1 5.9-2.8 11.8-6 5.9-3 5.7-3.2 11.7-6.2l11.6-6.2 9.7-5c4-2 4-2.2 7.9-4.4l7.9-4 8-4c4-2.1 3.8-2.3 8-4.3 3.9-2 4-1.8 8-4l7.9-4.2 7.8-4.1 5-2.6c7.4-4 14.8-7.7 22.1-11.7l7.3-3.8c1.6-.8 3.3-1.6 5-2.6l1.2-.7c.8-.3.7-.3-.5.4l-5.9 3-5.4 2.7-2.6 1.3c-.7.4-1.5.9-2.7 1.4-1 .4-1.8 1-2.4 1.3l-1.2.5-8.4 4.2c-1 .5-2 1-3.9 2.2l-8 4-8 4-7.8 4.1-8 4-8 4-7.8 4.2c-4 2-4 2.3-8 4.2l-8 4.2c-3.6 2-8.7 4.2-9.7 4.9l-11.8 5.9-11.8 5.7c-6 3-5.8 3.3-11.7 6.3l-11.8 6zM71 676.5l2.3-1.4 2.8-1.4 2.8-1.5 2.8-1.3 2.8-1.5a16 16 0 0 1 1.8-.8l.6-.4a2 2 0 0 1-.5.4c-.5.3-1 .5-1.6 1L82 671l-2.8 1.5-2.8 1.5-2.8 1.5c-1.6.8-2.4 1.1-2.6 1zM92.8 665.5l.9-.5 1.8-1 2.4-1.2-2.3 1.3-1.8 1-1 .4zM48.7 688.1c1.2-.8 2.5-1.6 3.9-2.3l5-2.6 4.7-2.3 3.1-1.5a6 6 0 0 1 1.5-.6c.5-.2-.5.3-1.2.8l-2.8 1.6-5.2 2.8c-2 1-4 2.2-5.4 2.8l-3.6 1.3zM38.5 693.4c-.2-.2.6-.8 1.8-1.3 1-.5 2-.7 2-.5.1.1-.7.6-1.7 1.1-1 .5-2 .8-2.1.7zM20.4 702.7c-.2-.1 3.1-2.3 6.7-4 2.2-1.2 4.4-2.2 6.8-3a42 42 0 0 1-6.4 3.8 44.6 44.6 0 0 1-7.1 3.2zM-39.7 717.2c-.3.3-.3.8-.2 1.2.2.8 1.2 1 1.8 1 .5 0 .9 0 1.3-.2l3.6-2 4.1-2.3 4.2-2.3 4-2.3c2-1.1 2.2-.8 4.3-2l4-2.4c1.3-.8 2.7-1.6 4-2.2l4.2-2.3 4-2.1c2-1.2 2.2-1 4.2-2l4-2.4c1.3-.8 2.6-1.6 4-2.2.5-.3.7-.5.5-.6-.2-.2-.6-.3-1-.2-1.4.6-2.7 1.3-4 2.1-2.2 1-2 1.4-4.2 2.3l-4.2 2c-2.2 1-2 1.2-4.1 2.1l-4.1 2c-2.2 1-2.2.8-4.3 1.8l-4.1 2c-2.2 1-2 1.1-4.1 2.1l-4.1 2c-2.2 1-2 1.3-4 2.3l-4.2 1.8c-2.3 1.2-2.3 1-4.6 2.1l-1 .7zM78 657.9l4.8-2.3 4.6-2.5c2.3-1.1 2.5-1.1 4.6-2.3a18 18 0 0 0 2.5-1.3c.4-.1.8-.4 1.1-.6a8 8 0 0 1 1.2-.5c.2 0 .2-.2.3-.2l.5-.2.2-.1-1 .5-1.7.8-3 1.6-4.7 2.5c-2.3 1.1-2.4 1.3-4.6 2.5l-4.6 2.4a2 2 0 0 1-1.1.4l1-.7c-.2.2 0 .2 0 0zM22 687c-.1-.5 1.5-1.2 4.3-2.7a146.9 146.9 0 0 0 9.4-5c1.4-.9 3-1.5 4.7-2.3a126.5 126.5 0 0 0 9.5-4.8c1.7-.8 3.3-1.7 4.8-2.3l4.8-2.5 4.8-2.3c2.7-1.3 4.4-2.3 4.6-2.1.1.3-1.7 1-4.5 2.5a146.9 146.9 0 0 0-9.3 5c-1.5.9-3.2 1.5-4.8 2.3-1.5.9-3.1 1.7-4.8 2.5-1.6.8-3 2-4.6 2.6a126.5 126.5 0 0 0-9.5 4.8l-4.8 2.1c-3 1.5-4.2 2.8-4.6 2.2zM-18.4 691.4c-26.1 13.3 14.4-4.5 49.5-23 13.4-7 42.2-22.2 54.2-28.7l11.7-6.3.6-.3-4.8 2.3-16.7 8.2-21.2 10.7C30.3 666.6 6 678.9-18.4 691.4zM-45.5 691.9c.5-.4 1-.8 1.7-1.1l5.4-3.2 23.3-12.3 40.6-20.7 41.4-20.9 30.7-15.6c-.8.4-8 4.3-29.9 15.6-12 6.3-26.4 13.8-41.9 21.7-15.1 8-28.4 14.8-40 20.7-10.6 5.5-18.5 9.6-23.7 12l-5.8 2.8c-.5.4-1.1.8-1.8 1zM10.2 648.7C-25 667-25.6 666 10 648l36.6-18.9 17.4-8.8 16.6-8.4 5.8-3 6.9-3.4 3.3-1.7c5-2.6-8.4 4.3-14.8 7.8l-24.5 12.6-47 24.5zM14 631.6l2.1-1.3 6-3.3c4.9-2.6 11.6-6.2 18.7-9.8 7-3.5 13.3-6.8 17.9-9l5.4-2.7 1.5-.7.5-.1a2 2 0 0 1-.5.3l-1.5.8-5.3 2.8-17.7 9.4c-7 3.6-13.8 7-18.7 9.7a93.7 93.7 0 0 1-6.1 3l-2.3 1z"/>
    <path d="M97.8 588.2A1900 1900 0 0 1 61 607.5c-1.8 1-3.5 1.6-4.5 2l-1.1.6-.5.2c-.2 0 .5-.4 1.6-1L61 607l14.6-7.6 22.2-11.2z"/>
    <path d="M-16.2 647l5-3c3.3-1.5 7.8-4 12.9-6.6 6.4-3.5 13.3-7 21.8-11.4a2900.8 2900.8 0 0 1 34.8-17.6l4.6-2.3a9.6 9.6 0 0 1 1.8-.8l-.3.2-1.1.6c-1 .5-2.3 1.4-4 2.2-3.3 1.8-7.7 4-12.3 6.6-6 3-14.3 7.5-23 12L0 639.1l-11.8 5.7-4.4 2.2zM54.9 595.5l.5-.4 1.3-.8 5-2.6c4-2.2 9.6-5.1 15.4-7.9l20.7-10.5L77.2 584c-5.7 3-11.3 6-15.4 8l-5 2.5-1.4.7-.5.2zM-34 624.9c-15.8 8-14.3 10.8 1.3 2.8 15.6-8.2 15.8-8 31.4-16.1 15.6-8.2 15.5-8.6 31-16.8 15.7-8.2 15.7-8 31.3-16.3l31-16.7a94 94 0 0 1 5-2.6c1.3-.7 1.4-.9 0 0l-5.1 2.4-31.6 15.6L28.8 593C13 600.9 13 600.9-2.6 609c-15.8 7.8-15.8 7.8-31.4 15.9zM-42.4 618c-9.8 5-11.5 2.3-1.4-3 9.8-5 9.8-5.2 19.7-10.3 10-5.1 9.8-5.5 19.7-10.4 10-5 10.2-4.7 20.2-9.8 10-5.1 9.8-5.3 19.9-10.4l20-9.9 20-9.8 19.8-9.7c.1-.2.5-.2.6-.3.2 0 .2 0 .2-.2l1.1-.5-1.4.8-1 .5c-6.3 3.5-12.5 7-18.8 10.2l-19.7 10.5-19.7 10.7L17.1 587c-9.8 5.3-10 5.1-19.9 10.2-9.8 5.1-10 5-19.8 10.2-10 5-10 5.4-19.8 10.7zM97.8 528.6l-13.7 7-14 7.5-16.8 8.8-19.4 10.2L0 580C-12 586-24 592.2-36 598c-4.5 2.1-9.9 5-13.8 6.7-.4.2-.7.4-.7.2 0 0-.5-.2-.1-.3 3.6-2.3 9.5-5.1 14-7.6l14.9-7.9 15-7.7 15.2-7.7 15.1-7.7c5.3-2.7 10.4-5.1 15.1-7.6l15.1-7.6 15.2-7.5c5.7-3 11-5.6 15.2-7.7l13.7-7.1zM-17.9 573.1c-.2-.1 3.6-2.1 10-5.6l12-6.4 12.4-6.2 12.1-6a714 714 0 0 0 12.2-6.3 220.9 220.9 0 0 1 10.2-4.8l-2.5 1.5-7.2 4-12.5 6.2-11.9 6.5a778.6 778.6 0 0 1-34.8 17zM76.3 524.8l.1-.1.7-.4 2.4-1.3c2.2-1.1 5-2.4 7.8-4l10.3-5.2-10.3 5.4c-2.8 1.5-5.6 3-7.8 4l-2.4 1.3-.7.3h-.1zM47.5 524.5c0-.2 1.5-1 4.4-2.5l5.3-2.8c1.6-.8 3.4-1.8 5.4-2.6 1.8-1 3.6-1.8 5.3-2.6l5.2-2.7c1.2-.4 2.3-1 3.3-1.6l1.2-.5-1 .7-3.1 1.8c-1.5.8-3.5 1.6-5.5 2.8l-5 2.8a85 85 0 0 1-5.5 2.8l-5.4 2.6c-3 1.3-4.4 2-4.6 1.8zM88.4 503.6l1.5-.8 3.3-1.6 4.4-2.3-4.4 2.3-3.3 1.8-1.5.6zM5.3 546.2c-.2-.2 3.3-2 7.5-4.3l9.2-5 9-4.4 6-2.8 2.8-1.3c-.7.6-1.5 1-2.3 1.5l-5.3 3c-2.4 1.3-6 3.3-9.8 5-3.8 2-7.4 4-10.2 5.3-4 2.2-6.8 3.1-7 3zM-56.3 562.4c-6 3-5.1 4.6.8 1.7 6-3.1 5.7-3.3 11.7-6.3 5.9-3 5.9-2.7 11.8-5.9 5.9-3 5.7-3.3 11.7-6.2l11.6-6.3 9.7-5c4-2 4-2.2 7.9-4.3l7.9-4.1 8-4c4-2.1 3.8-2.3 8-4.2 3.9-2 4-1.8 8-4l7.9-4.3 7.8-4 5-2.7c7.4-4 14.8-7.7 22.1-11.7l7.3-3.7 5-2.7c.4-.1.7-.5 1.2-.6.8-.3.7-.3-.5.3l-5.9 3-5.4 2.8-2.6 1.3-2.7 1.3-2.4 1.3-1.2.5-8.4 4.3-3.9 2.1-8 4-8 4-7.8 4.2-8 3.9-8 4.1-7.8 4.1c-4 2-4 2.3-8 4.3l-8 4c-3.6 2-8.7 4.4-9.7 5l-11.8 6c-6 2.9-6 2.7-11.8 5.7-6 3-5.8 3.3-11.7 6.2l-11.8 6zM52 492.5a54.7 54.7 0 0 1 8.5-4.4c1.6-1 3.4-1.9 5-2.7l6.2-3 10.5-5.2 11.1-5.6c1.4-.7 2.8-1.5 4.3-2.1l.2-.2-4.5 2.3-4.6 2.5-4.6 2.4-4.6 2.5-4.6 2.4-4.6 2.5-4.6 2.5-4.6 2.3c-1.8 1-3.2 1.8-4.6 2.4l-3 1.5c-.6-.2-1-.2-1.6-.1zM5.8 516.6c-.2-.3 1.8-2 4-3.1 2.4-1.2 4.5-1.8 4.7-1.5.1.3-1.7 1.5-4 2.8-2.3 1.1-4.6 2.1-4.7 1.8zM23.5 507.4c-.2-.2 1.5-1.5 3.8-2.8l5.4-2.8 5.4-2.8c2.3-1 5-2 5.1-1.8.2.2-3 1.8-5.2 3.1-1.5.9-2.8 1.7-4.8 2.7-2 1-3.4 1.8-5 2.4a22.7 22.7 0 0 1-4.7 2zM-56.3 532.5c-6 3-5.1 4.6.8 1.7 6-3.1 5.7-3.3 11.7-6.3 5.9-3 5.9-2.7 11.8-5.9 5.9-3 5.7-3.3 11.7-6.2l11.6-6.3 9.7-5c4-2 4-2.2 7.9-4.3l7.9-4.1 8-4c4-2.1 3.8-2.3 8-4.2 3.9-2 4-1.8 8-4l7.9-4.3 7.8-4 5-2.7c7.4-4 14.8-7.7 22.1-11.7l7.3-3.7 5-2.7c.4-.1.7-.5 1.2-.6.8-.3.7-.3-.5.3l-5.9 3-5.4 2.8-2.6 1.3-2.7 1.3-2.4 1.3-1.2.5L68 469l-3.9 2.1-8 4-8 4-7.8 4.2-8 3.9-8 4.1-7.8 4.1c-4 2-4 2.3-8 4.3l-8 4.1c-3.6 2-8.7 4.3-9.7 5l-11.8 5.8c-6 3-6 2.8-11.8 5.8-6 3-5.8 3.3-11.7 6.2l-11.8 6zM-2.3 490c1.7-.8 3.1-1.3 4.6-2.1 2.3-1.2 2.2-1.4 4.5-2.5 2.3-1.2 2.3-1 4.6-2.1l2.3-1.4 1.1-.6 1-.7.3-.1c.2 0 .4 0 .5-.2h.3c.5 0-.3.8-.6 1.1-.3.4-1.2.5-1.7.9l-3 1.6c-2.2 1.2-2 1.3-4.3 2.6l-4.6 2.2L-2 491c-.5.2-1 .1-1.4-.2v-.1c.2 0 .7-.5 1-.7zM19.2 479.6c-.1-.1.7-1 1.7-1.4 1-.5 1.8-.7 2-.5.1.1-.7.6-1.5 1.1-1 .7-2 1-2.2.8zM42 468l-3.4 2-4.4 2.2-4.6 2.3c-2.5 1.2-3.5 1.7-3.5 1.5l3.2-2 4.6-2.2c1.6-.9 3-1.7 4.4-2.3 2.5-1.2 3.6-1.7 3.6-1.5zM67.4 454.7c-.7.6-1.5 1-2.3 1.5l-2.3 1c.6-.6 1.4-1 2.1-1.4.8-.5 1.6-.9 2.5-1.1zM47.8 464.7c-.4.6-1 1-1.6 1.3-1 .5-1.8.7-1.8.5 0-.2.6-.7 1.6-1.1.8-.4 1.7-.9 1.8-.7zM58.3 459.3c0 .1-.4.5-1.1 1-.5.3-1.2.4-1.6.8-.6.2-1.2.6-1.7 1l-1.6.5c0-.2 1-.7 1.6-1A12 12 0 0 1 57 460c.7-.7 1.3-1 1.3-.8zM80.9 447.8a27 27 0 0 1-6 3.1c1-.7 2-1.2 3-1.7l3-1.4zM94.2 440.9l1.8-1c.5-.4 1-.6 1.6-.8l-1.6.8-1.8 1zM87.8 444.2l.4-.4c.5-.1.9-.5 1.4-.6l1.1-.7.5-.2a2 2 0 0 1-.5.4c-.4.1-.8.4-1.1.6l-1.4.7c-.1.2-.4.3-.4.2zM-48.4 496.6c-1.7.8-3.7 6.9 1 4.6 4.5-2.3 4.4-2.5 9-4.8l9.2-4.4c4.4-2.3 4.4-2.7 8.8-5 4.5-2.3 4.6-2.1 9-4.6 4.5-2.3 4.7-2.1 9.1-4.6 4.5-2.3 4.5-2.6 8.9-5l9-4.8 9.2-4.5c4.5-2.4 4.5-2.6 8.9-5s4.6-2.2 9-4.5l9-5c4.3-2.4 4.3-2.4 9-4.7l8.8-5 9-4.7 9-4.9 4.5-2.5c1.3-.6 2.7-1.4 3.8-2.1l.8-.5c.2-.2.4-.2.7-.3.1-.2.3-.2.1-.2h-.3c-.8.3-1.5.7-2.3 1.2l-1.8.8-.5.1-4.6 2.3-10.7 5.1-1 .5-13.6 6.8-6.4 3-3.8 1.9c-1 .6-2.1 1.2-3.3 1.6L42 451c-1.3.6-2.6 1.5-4 2.1l-18.3 9.2-4 2c-10 4.4-19.7 9.4-29.2 14.8l-19.7 10-1 .5-.3.2-4.2 2.1-3 1.3a50 50 0 0 0-6.6 3.5zM-39.7 478.5c-.3.3-.3.8-.2 1.1.2.9 1.2 1 1.8 1l1.3-.1 3.6-2 4.1-2.3 4.2-2.3 4-2.3c2-1.2 2.2-.8 4.3-2l4-2.4c1.3-.9 2.7-1.6 4-2.2l4.2-2.3 4-2.1c2-1.2 2.2-1 4.2-2l4-2.4c1.3-.9 2.6-1.6 4-2.2.5-.3.7-.5.5-.6-.2-.2-.6-.3-1-.2-1.4.6-2.7 1.3-4 2.1-2.2 1-2 1.3-4.2 2.3l-4.2 2c-2.2 1-2 1.2-4.1 2.1l-4.1 2c-2.2 1-2.2.8-4.3 1.8l-4.1 2c-2.2 1-2 1.1-4.1 2.1l-4.1 2c-2.2 1-2 1.3-4 2.3l-4.2 1.8c-2.3 1.2-2.3 1-4.6 2.1-.7.5-.9.5-1 .7zM78 419.3l4.8-2.3 4.6-2.4 4.6-2.3a18 18 0 0 0 2.5-1.3l1.1-.7a8 8 0 0 1 1.2-.5l.3-.1.5-.2c.1 0 .2 0 .2-.2l-1 .5c-.5.3-1 .6-1.7.8l-3 1.7c-2.4 1.1-2.4 1.3-4.7 2.4l-4.6 2.5-4.6 2.5a2 2 0 0 1-1.1.3c0-.2.6-.5 1-.6zM22 448.3c-.1-.5 1.5-1.2 4.3-2.7a146.9 146.9 0 0 0 9.4-5c1.4-.9 3-1.5 4.7-2.4l4.8-2.3 4.8-2.4c1.6-.8 3.2-1.7 4.7-2.3l4.8-2.5 4.8-2.3c2.7-1.3 4.4-2.3 4.6-2.1.1.3-1.7 1-4.5 2.4a146.9 146.9 0 0 0-9.3 5.1c-1.5.9-3.2 1.5-4.8 2.3-1.5.9-3.1 1.7-4.8 2.5-1.6.8-3 2-4.6 2.6l-4.7 2.3-4.8 2.5-4.8 2.1c-3 1.5-4.2 2.8-4.6 2.2zM-18.4 452.9c-26.1 13.3 14.4-4.6 49.5-23 13.4-7.1 42.2-22.2 54.2-28.8L97 395c1.4-.7-.4.1.6-.4-.6.4-1 .5-4.8 2.3l-16.7 8.3-21.2 10.6-73.3 37.2zM10.5 425.1c-35.3 18.4-36.1 17-.6-1.2l36.6-18.8 17.4-9c5.3-2.5 11.4-5.7 16.6-8.3l5.8-2.8 6.9-3.4a57 57 0 0 1 3.4-1.7c5.1-2.6-8.4 4.5-14.8 8l-24.3 12.7-47 24.5zM-42.4 438.9c-9.8 5-11.5 2.3-1.4-3 9.8-5 9.8-5.2 19.7-10.3 10-5.1 9.8-5.4 19.7-10.4 10-5 10.2-4.7 20.2-9.8 10-5.1 9.8-5.3 19.9-10.4l20-9.8 20-9.9 19.8-9.7c.1-.1.5-.1.6-.3.2 0 .2 0 .2-.2l1.1-.5-1.4.9-1 .5c-6.3 3.4-12.5 6.9-18.8 10.1l-19.7 10.6-19.7 10.6-19.7 10.5c-9.8 5.3-10 5.1-19.9 10.2-9.8 5.1-10 5-19.8 10.2-10 5.1-10 5.4-19.8 10.7zM-18.4 408c-26.1 13.3 14.4-4.5 49.5-23 13.4-7 42.2-22.2 54.2-28.7L97 350l.6-.3-4.8 2.3-16.7 8.2-21.2 10.7C30.3 383.2 6 395.5-18.4 408zM-34 401.1c-15.8 8-14.3 10.9 1.3 2.8 15.6-8.2 15.8-7.9 31.4-16 15.6-8.3 15.5-8.6 31-16.9 15.7-8.2 15.7-8 31.3-16.2L92 338a94 94 0 0 1 5-2.6c1.3-.7 1.4-.8 0 0l-5.1 2.5-31.6 15.6-31.5 15.7-31.4 16c-15.8 7.9-15.8 7.9-31.4 16zM97.8 319.8l-13.7 7-14 7.4-16.8 9-19.4 10.1L0 371C-12 377.3-24 383.4-36 389.3c-4.5 2.1-9.9 5-13.8 6.7l-.7.2s-.5-.2-.1-.3c3.6-2.3 9.5-5.1 14-7.6l14.9-7.9 15-7.7L8.5 365l15.1-7.8c5.3-2.6 10.4-5 15.1-7.5l15.1-7.6 15.2-7.5c5.7-3 11-5.6 15.2-7.7 8.6-4.5 13-7 13.7-7.1zM52 328.3a4 4 0 0 1 1-.6l3-1.7 4.5-2.1c1.6-1 3.4-1.8 5-2.6l6.2-3 10.5-5.2 11.1-5.6 4.3-2.2.2-.1c-1.5.8-3 1.4-4.5 2.3l-4.6 2.4c-1.4.9-3 1.7-4.6 2.5l-4.6 2.5-4.6 2.4-4.6 2.5-4.6 2.5-4.6 2.3c-1.8 1-3.2 1.8-4.6 2.4l-3 1.5c-.6-.2-1-.3-1.6-.2zM5.8 352.5c-.2-.3 1.8-2 4-3.1 2.4-1.2 4.5-1.8 4.7-1.5.1.3-1.7 1.5-4 2.8-2.3 1.1-4.6 2.1-4.7 1.8zM23.5 343.3c-.2-.2 1.5-1.5 3.8-2.8l5.4-2.8 5.4-2.8c2.3-1 5-2 5.1-1.8.2.2-3 1.8-5.2 3.1-1.5.8-2.8 1.7-4.8 2.6-2 1-3.4 1.9-5 2.5-2.4 1.2-4.5 2.3-4.7 2zM-42.4 364.3c-9.8 5.1-11.5 2.3-1.4-3 9.8-5 9.8-5.2 19.7-10.3 10-5 9.8-5.4 19.7-10.3 10-5.1 10.2-4.8 20.2-10 10-5 9.8-5.2 19.9-10.3l20-9.8 20-9.9 19.8-9.7c.1-.1.5-.1.6-.3.2 0 .2 0 .2-.2 1-.4 1.8-.8 1.1-.4l-1.4.8-1 .5c-6.3 3.4-12.5 6.9-18.8 10.2L56.5 312l-19.7 10.6-19.7 10.6c-9.8 5.2-10 5-19.9 10.1-9.8 5.1-10 5-19.8 10.2-10 5.1-10 5.5-19.8 10.7zM52 298.4a54.7 54.7 0 0 1 8.5-4.4c1.6-1 3.4-1.8 5-2.6l6.2-3 10.5-5.2 11.1-5.6 4.3-2.2.2-.5c-1.5.9-3 1.5-4.5 2.3l-4.6 2.5-4.6 2.5-4.6 2.4c-1.4.9-3 1.7-4.6 2.5l-4.6 2.5-4.6 2.4-4.6 2.3-4.6 2.5-3 1.5c-1 .1-1.6.3-1.6.1zM5.8 322.6c-.2-.3 1.8-2 4-3.1 2.4-1.2 4.5-1.8 4.7-1.5.1.3-1.7 1.5-4 2.8-2.3 1.3-4.6 2.1-4.7 1.8zM23.5 313.5c-.2-.1 1.5-1.4 3.8-2.7 1.5-.9 3.4-1.9 5.4-2.8 2-1 4-2.2 5.4-2.8 2.3-1 5-2 5.1-1.8.2.1-3 1.8-5.2 3-1.5.9-2.8 1.7-4.8 2.7l-5 2.5c-2.4 1-4.5 2.1-4.7 2zM-18.4 318.5c-26.1 13.3 14.4-4.6 49.5-23 13.4-7 42.2-22.2 54.2-28.8l11.7-6.2.6-.3-4.8 2.3-16.7 8.2-21.2 10.6-73.3 37.2zM10.2 290.7c-35.3 18.4-35.8 17.4-.3-.6 12.3-6.5 24.5-12.7 36.6-19l17.4-8.8 16.6-8.4 5.8-3 6.9-3.4 3.3-1.6c5-2.7-8.4 4.2-14.8 7.7-7.3 3.8-17 8.9-24.5 12.6l-47 24.5zM-45.5 304c-.1-.1 2.2-1.6 7-4.4 5-2.8 12.7-7 23.4-12.3 11.5-6 25.5-13 40.6-20.7 15.4-7.8 29.4-14.7 41.6-20.7l30.7-15.6c-.8.3-8 4.2-29.8 15.7L26.3 268c-15.1 7.9-28.4 15-40 20.8-10.6 5.5-18.5 9.6-23.7 12a37.7 37.7 0 0 1-8 3.3zM10.5 261c-35.3 18.4-36.1 17-.6-1.2L46.5 241l17.4-8.8 16.6-8.4 5.8-2.8 6.9-3.5a57 57 0 0 1 3.4-1.6c5.1-2.6-8.4 4.4-14.8 7.9l-24.3 12.8-47 24.5zM-45.5 274.3c-.1-.2 2.2-1.7 7-4.5 5-2.7 12.7-6.9 23.4-12.3l40.6-20.7L67 216.1c22-11.1 29.9-15 30.7-15.6-.8.3-8 4.3-29.8 15.8-12 6.4-26.4 13.8-41.7 21.8l-40 21-23.7 11.9c-5.3 2.3-8 3.4-8 3.3zM-42.4 259.8c-9.8 5.1-11.5 2.3-1.4-3 9.8-5 9.8-5.2 19.7-10.3 10-5 9.8-5.4 19.7-10.3 10-5.1 10.2-4.8 20.2-9.9 10-5 9.8-5.2 19.9-10.3l20-9.9 20-9.9 19.8-9.6c.1-.2.5-.2.6-.4l.2-.1 1.1-.5-1.4.8-1 .5c-6.3 3.4-12.5 6.9-18.8 10.2l-19.7 10.5c-9.8 5.2-9.8 5.2-19.7 10.7l-19.7 10.5c-9.8 5.2-10 5-19.9 10.2-9.8 5-10 4.9-19.8 10.1-10 5.1-10 5.5-19.8 10.7zM54.9 192.8l.5-.3 1.3-.9c1.1-.6 3-1.4 5-2.6l15.4-7.9 20.7-10.5-20.6 10.9-15.4 8-5 2.5-1.4.6c-.2 0-.4 0-.5.2zM97.8 155.7l-13.7 7-14 7.4c-5.7 3-11.1 6-16.8 8.9-6.5 3.4-13 6.7-19.4 10.2L0 206.9C-12 213.2-24 219.2-36 225.2c-4.5 2.1-9.9 5-13.8 6.7l-.7.2s-.5-.2-.1-.4c3.6-2.3 9.5-5 14-7.5l14.9-8c4.6-2.2 9.7-4.8 15-7.6l15.2-7.8c5-2.4 9.9-5 15.1-7.7 5.3-2.6 10.4-5 15.1-7.5l15.1-7.6 15.2-7.5 15.2-7.8 13.7-7zM-17.9 200.2c-.2-.2 3.6-2.1 10-5.6l12-6.4 12.4-6.2 12.1-6.1a714 714 0 0 0 12.2-6.3A220.9 220.9 0 0 1 51 165l-2.5 1.5-7.2 3.9-12.5 6.2-11.9 6.6c-4.2 2.3-8.5 4.4-12.3 6.4a778.6 778.6 0 0 1-22.5 10.7zM76.3 151.9l.1-.2.7-.3 2.4-1.3 7.8-4 10.3-5.2c-.8.5-4.8 2.4-10.3 5.4-2.8 1.5-5.6 3-7.8 4-1 .4-1.8 1-2.4 1.3l-.7.3c0-.2-.1 0-.1 0zM-42.4 200.2c-9.8 5-11.5 2.3-1.4-3 9.8-5 9.8-5.2 19.7-10.3 10-5.1 9.8-5.4 19.7-10.4 10-5 10.2-4.7 20.2-9.8 10-5.1 9.8-5.3 19.9-10.4l20-9.8 20-9.9 19.8-9.7c.1-.1.5-.1.6-.3.2 0 .2 0 .2-.2l1.1-.5-1.4.9-1 .4c-6.3 3.5-12.5 7-18.8 10.2L56.5 148l-19.7 10.7-19.7 10.5c-9.8 5.3-10 5.1-19.9 10.2-9.8 5.1-10 5-19.8 10.2-10 5.1-10 5.4-19.8 10.7zM10.5 156.5c-35.3 18.4-36.1 17-.6-1.2l36.6-18.9 17.4-8.8 16.6-8.4 5.8-2.8 6.9-3.4a57 57 0 0 1 3.4-1.7c5.1-2.6-8.4 4.4-14.8 7.9L57.5 132l-47 24.5zM17.3 137.4c-.4-.5 5.7-4 14.4-8.3 8.9-4.5 15.6-7.6 15.8-7.3.2.4-6.4 4-15.1 8.6a70.6 70.6 0 0 1-15.1 7zM67.4 111.5c.6-.5 1.3-.8 2-1.2L74 108l8.2-4.3c3.1-1.7 5.8-2.8 8-4a151.3 151.3 0 0 1-7.6 4.5 161.2 161.2 0 0 1-15.3 7.4zM-18.4 139.6c-26.1 13.3 14.4-4.6 49.5-23 13.4-7.1 42.2-22.2 54.2-28.8L97 81.6c1.4-.7-.4.1.6-.4-.6.4-1 .5-4.8 2.3l-16.7 8.3-21.2 10.6-73.3 37.2zM10.5 111.8c-35.3 18.4-36.1 17-.6-1.1 12.3-6.5 24.5-12.7 36.6-19L64 83l16.6-8.4 5.8-2.8 6.9-3.4a57 57 0 0 1 3.4-1.7c5.1-2.6-8.4 4.5-14.8 8L57.5 87.2l-47 24.5zM-18.4 109.7C-44.5 123-4 105 31.1 86.7c13.4-7.1 42.2-22.2 54.2-28.8L97 51.7c1.4-.7-.4.1.6-.4-.6.4-1 .5-4.8 2.3L76.1 62 54.9 72.5l-73.3 37.2zM-42.4 110.7c-9.8 5-11.5 2.2-1.4-3 9.8-5.1 9.8-5.3 19.7-10.4 10-5 9.8-5.4 19.7-10.3 10-5.1 10.2-4.8 20.2-9.9 10-5 9.8-5.2 19.9-10.3l20-9.9 20-9.8 19.8-9.7c.1-.2.5-.2.6-.3.2 0 .2 0 .2-.2l1.1-.5-1.4.8-1 .5c-6.3 3.5-12.5 7-18.8 10.2L56.5 58.4 36.8 69.1 17.1 79.6c-9.8 5.3-10 5.1-19.9 10.2-9.8 5-10 5-19.8 10.2-10 5-10 5.4-19.8 10.7zM-17.9 81c-.2-.2 3.6-2.2 10-5.7l12-6.4 12.4-6.2c4.2-2.2 8.3-4.1 12.1-6a714 714 0 0 0 12.2-6.3A220.9 220.9 0 0 1 51 45.6l-2.5 1.5-7.2 4-12.5 6.2-11.9 6.5a778.6 778.6 0 0 1-34.8 17zM76.3 32.5l.1-.2c.2-.2.3-.2.7-.3l2.4-1.4 7.8-3.9 10.3-5.3L87.3 27c-2.8 1.4-5.6 3-7.8 4L77.1 32l-.7.4h-.1zM-42.4 81c-9.8 5-11.5 2.2-1.4-3 9.8-5.1 9.8-5.3 19.7-10.4 10-5 9.8-5.4 19.7-10.3 10-5.1 10.2-4.8 20.2-9.9 10-5 9.8-5.3 19.9-10.3l20-9.9 20-9.9 19.8-9.7c.1-.1.5-.1.6-.3l.2-.1 1.1-.5-1.4.8-1 .5c-6.3 3.4-12.5 6.9-18.8 10.2L56.5 28.7c-9.8 5.2-9.8 5.2-19.7 10.7L17.1 49.9C7.3 55 7.1 54.9-2.8 60c-9.8 5-10 4.9-19.8 10.1-10 5.1-10 5.5-19.8 10.7zM-17.9 51c-.2-.1 3.6-2.1 10-5.6l12-6.4 12.4-6.2c4.2-2.2 8.3-4.1 12.1-6a714 714 0 0 0 12.2-6.3A220.9 220.9 0 0 1 51 15.7l-2.5 1.5-7.2 4-12.5 6.2-11.9 6.5a778.6 778.6 0 0 1-34.8 17zM76.3 2.7l.1-.1.7-.4L79.5 1l7.8-4 10.3-5.2-10.3 5.4c-2.8 1.5-5.6 3-7.8 4l-2.4 1.3-.7.3c0-.1-.1 0-.1 0zM97.8-23.4c-.5.3-5.1 2.6-13.5 7.2l-14 7.4-16.6 9c-6.4 3.5-13 6.8-19.3 10.2L.5 28.4c-12.1 6.4-24.1 12.1-36.3 18-4.4 2.2-9.8 5.1-14 6.6-.3.2-.6.3-.8.2 0 0-.5-.4-.3-.5 3.4-2.5 9.5-5.3 14-7.8 4-2.3 9-4.9 14.7-8L-7 29.2l15-7.8c5-2.4 10-5 15.2-7.7l15.3-7.5c5.2-2.7 10.3-5.1 15-7.6C59-4 64.2-6.6 68.8-8.9L84-16.7c8.7-4 13.1-6.4 13.8-6.7zM-18.5 19.6C-44.7 33-3.5 16.2 31.4-2.2c13.5-7 42.2-22.5 54-29L97-37.8l.6-.3-4.8 2.3-16.7 8-21.2 10.5a7646.3 7646.3 0 0 0-73.4 36.8zM97.8-53.1l-13.7 7-14 7.4c-5.7 3-11.1 6-16.8 8.9-6.5 3.4-13 6.7-19.4 10.2L0-2C-12 4.4-24 10.4-36 16.4c-4.5 2-9.9 5-13.8 6.7l-.7.2s-.5-.2-.1-.4c3.6-2.3 9.5-5 14-7.5l14.9-8c4.6-2.2 9.7-4.8 15-7.6L8.5-8c5-2.4 9.9-5 15.1-7.7 5.3-2.6 10.4-5 15.1-7.5l15.1-7.6L69-38.4c5.7-3 11-5.5 15.2-7.7 8.6-4.6 13-6.9 13.7-7zM-42.4 6.3c-9.8 5.1-11.5 2.3-1.4-3C-34-1.6-34-1.8-24.1-7c10-5 9.8-5.4 19.7-10.3 10-5.1 10.2-4.8 20.2-9.9 10-5 9.8-5.2 19.9-10.3l20-9.9 20-9.8L95.6-67c.1-.2.5-.2.6-.4l.2-.1 1.1-.5-1.4.8-1 .5c-6.3 3.4-12.5 6.9-18.8 10.2L56.5-46c-9.8 5.2-9.8 5.2-19.7 10.7L17.1-24.7c-9.8 5.2-10 5-19.9 10.2-9.8 5-10 4.9-19.8 10.2-10 5-10 5.4-19.8 10.6z"/>
  </g>
</svg>
